<?xml version="1.0" encoding="UTF-8"?>
<svg id="Layer_1" xmlns="http://www.w3.org/2000/svg" version="1.1" viewBox="0 0 1737.51 1355.01">
  <!-- Generator: Adobe Illustrator 29.5.1, SVG Export Plug-In . SVG Version: 2.1.0 Build 141)  -->
  <defs>
    <style>
      .st0 {
        fill: #0c3956;
      }

      .st1 {
        fill: #fff;
      }

      .st2 {
        fill: #0a4669;
      }
    </style>
  </defs>
  <polygon class="st1" points=".36 3.8 1737.51 0 1737.51 1347.45 1.09 1347.45 .36 3.8"/>
  <g>
    <path class="st2" d="M220.66,89.61l-.03,40.76c0,1.24.92,2.25,2.05,2.25l91.31.13c1.15,0,2.08,1.01,2.08,2.31l-.12,43.3c0,1.08-.81,1.93-1.79,1.97l-91.95.03c-.86,0-1.55.69-1.55,1.55l-.03,43.34c0,1.54,1.24,2.78,2.78,2.78l109.02.09c.86,0,1.54.68,1.54,1.54l-.12,41.81c0,.69-.6,1.29-1.28,1.29l-166.13-.24c-1.34,0-2.42-1.08-2.42-2.42l.3-225.6c0-.72.6-1.32,1.31-1.32l163.61.21c.98,0,1.75.77,1.75,1.71l-.27,41.21c0,.89-.74,1.6-1.63,1.6l-106.8.06c-.92,0-1.66.74-1.63,1.66Z"/>
    <path class="st2" d="M426.39,45.03v178.18c0,1.02.83,1.85,1.85,1.85h97.68c1.02,0,1.85.83,1.85,1.85v44.01c0,1.02-.83,1.85-1.85,1.85h-151.34c-1.02,0-1.85-.83-1.85-1.85V45.03c0-1.02.83-1.85,1.85-1.85h49.97c1.02,0,1.85.83,1.85,1.85Z"/>
    <path class="st2" d="M721.56,134.32v44.31c0,.93-.76,1.7-1.7,1.7h-94.99c-.93,0-1.7.76-1.7,1.7v41.32c0,.93.76,1.7,1.7,1.7h112.88c.93,0,1.7.76,1.7,1.7v44.31c0,.93-.76,1.7-1.7,1.7h-166.55c-.93,0-1.7-.76-1.7-1.7V44.88c0-.93.76-1.7,1.7-1.7h160.59c.93,0,1.7.76,1.7,1.7v41.32c0,.93-.76,1.7-1.7,1.7h-106.92c-.93,0-1.7.76-1.7,1.7v41.32c0,.93.76,1.7,1.7,1.7h94.99c.93,0,1.7.76,1.7,1.7Z"/>
    <path class="st2" d="M878.92,207.16h.44c.12-.03.21-.15.24-.27l61.46-162.37c.3-.81,1.11-1.35,1.98-1.35h55.15s1.46,1.85,1.13,2.66l-89.33,225.85c-.27.69-.92,1.16-1.64,1.22-2.77.21-12.43.33-28.98.36-16.52,0-26.18-.09-28.95-.27-.75-.06-1.37-.54-1.67-1.22l-89.89-225.64c-.33-.81,1.13.03,1.13.03l55.67-.15c.88,0,1.65.53,1.95,1.33l60.87,159.56c.03.12.12.24.24.27h.21Z"/>
    <path class="st2" d="M1098.79,227.23c-5.34,0-21.26.06-47.73.12-1.04,0-1.97.66-2.33,1.61l-16.1,42.52c-.45,1.19-1.58,2-2.86,1.28h-54.38c-.98.72-1.64-.27-1.28-1.19l90.88-225.32c.36-.89,1.19-1.55,2.18-1.67,1.22-.15,11.63-.24,31.22-.3,19.59-.03,30.02,0,31.25.18.95.12,1.79.75,2.18,1.64l91.89,224.9c.39.89-.3,1.91-1.28,4.74h-54.35c-1.28-2.56-2.44-3.37-2.89-4.56l-16.28-42.46c-.36-.95-1.31-1.58-2.36-1.58-26.48.03-42.37.06-47.73.09ZM1065.54,181.79c-.3.75.24,1.52,1.04,1.52l63.48.12c.78,0,1.34-.78,1.04-1.52l-31.57-83.1c-.39-.95-1.76-.95-2.12,0l-31.87,82.98Z"/>
    <path class="st2" d="M1335.76,89.33v181.99c0,.79-.64,1.43-1.43,1.43h-53.79c-.79,0-1.43-.64-1.43-1.43V89.33c0-.79-.64-1.43-1.43-1.43h-74.66c-.79,0-1.43-.64-1.43-1.43v-41.86c0-.79.64-1.43,1.43-1.43h202.87c.79,0,1.43.64,1.43,1.43v41.86c0,.79-.64,1.43-1.43,1.43h-68.7c-.79,0-1.43.64-1.43,1.43Z"/>
    <path class="st2" d="M1610.06,44.88v44.31c0,.93-.76,1.7-1.7,1.7h-109.9c-.93,0-1.7.76-1.7,1.7v38.34c0,.93.76,1.7,1.7,1.7h97.97c.93,0,1.7.76,1.7,1.7v41.32c0,.93-.76,1.7-1.7,1.7h-97.97c-.93,0-1.7.76-1.7,1.7v44.31c0,.93.76,1.7,1.7,1.7h112.88c.93,0,1.7.76,1.7,1.7v44.31c0,.93-.76,1.7-1.7,1.7h-169.53c-.93,0-1.7-.76-1.7-1.7V44.88c0-.93.76-1.7,1.7-1.7h166.55c.93,0,1.7.76,1.7,1.7Z"/>
    <path class="st1" d="M1065.54,181.67l31.87-82.98c.36-.95,1.73-.95,2.12,0l31.57,83.1c.3.75-.27,1.52-1.04,1.52l-63.48-.12c-.81,0-1.34-.78-1.04-1.52Z"/>
    <path class="st2" d="M1246.67,387.96c.5,40.83-34.78,74.36-78.77,74.9-44,.55-80.07-32.14-80.58-72.95-.5-40.83,34.78-74.36,78.77-74.9,44-.55,80.07,32.14,80.58,72.95ZM1166.45,344.69c-23.31.3-41.96,20.31-41.66,44.73.3,24.43,19.43,43.97,42.74,43.7,23.31-.3,41.96-20.31,41.66-44.73-.3-24.43-19.43-43.97-42.74-43.7Z"/>
    <path class="st2" d="M1550.96,337.05c.38.35.41.98.03,1.36l-20.8,20.77c-.49.49-1.31.52-1.8.03-14.67-14.2-29.52-17.45-44.57-9.76-6.95,3.57-6.27,12.98.63,17.37,3.9,2.48,7.41,4.14,10.55,4.99,16.79,4.58,32.44,7.71,45.25,16.79,16.49,11.69,19.19,35.6,8.37,51.99-6.41,9.73-16.08,16.22-28.98,19.49-27.89,7.06-59.35.71-80.39-20.12-.46-.46-.46-1.17,0-1.64l17.8-17.8c.76-.76,2.02-.85,2.86-.14,14.69,12.24,38.03,19.46,54.93,9.76,6.24-3.6,7.66-8.97,4.25-16.11-1.17-2.43-4.23-4.63-9.19-6.65-15.87-6.49-57.63-10.22-63.08-38.55-7.69-39.96,34.43-56.78,66.46-50.79,14.48,2.7,27.02,9.02,37.67,19Z"/>
    <path class="st2" d="M334.15,455.97h-100.65c-.81,0-1.47-.66-1.47-1.47v-133.36c0-.81.66-1.47,1.47-1.47h97.92c.81,0,1.47.66,1.47,1.47v24.32c0,.81-.66,1.47-1.47,1.47h-62.48c-.81,0-1.47.66-1.47,1.47v21.59c0,.81.66,1.47,1.47,1.47h57.03c.81,0,1.47.66,1.47,1.47v24.32c0,.81-.66,1.47-1.47,1.47h-57.03c-.81,0-1.47.66-1.47,1.47v27.04c0,.81.66,1.47,1.47,1.47h65.21c.81,0,1.47.66,1.47,1.47v24.32c0,.81-.66,1.47-1.47,1.47Z"/>
    <path class="st2" d="M440.44,361.7c.11,0,.22,0,.33-.03.35-.11.6-.25.65-.33l24.97-39.64c.6-.95,2.81-2.04,2.81-2.04h36.26c.89,0,1.43,1,.92,1.73l-43.44,62.83c-.46.68-.46,1.54,0,2.22l47.42,68.21c.41.57,0,1.32-.7,1.32h-36.66s-2.75.92-3.54-.28c-1.12-1.64-10.58-16.25-28.38-43.84-.19-.3-.44-.46-.74-.46s-.55.16-.74.46c-17.94,27.51-27.45,42.06-28.6,43.7-.79,1.2-3.54,3.14-3.54,3.14l-37.1-.17c-.69,0-1.1-.8-.72-1.35l48.65-69.28c.47-.66.5-1.57,0-2.26l-43.97-64.21c-.5-.74.03-1.76.94-1.76h36.62s2.21.98,2.81,1.93l24.78,39.75c.05.08.33.19.65.33.11.03.22.03.33.03Z"/>
    <path class="st2" d="M597.82,319.99c37.81.08,57.47.16,58.97.27,1.14.05,2.07,1.01,3.24,2.18v23.96c-1.11.79-2.5.52-2.5.52h-40.59s-1.47,1.55-.52,2.34v105.99c-1.03,1.17-1.88,2.15-3.02,2.32-.35.05-5.62.05-15.81.05-10.22-.03-15.48-.05-15.84-.11-1.14-.19-1.99-1.17-.77-2.32v-105.99c-.9-.82-2.37.44-2.37.44h-40.59s-1.39-2.68-.66-3.47v-23.96c-.6-1.17.33-2.13,1.5-2.18,1.47-.11,21.13-.11,58.97-.05Z"/>
    <path class="st2" d="M799.87,428.71c1.05,0,1.91.86,1.91,1.91l-.05,24.05c0,.73-.6,1.3-1.3,1.3l-100.63.11c-.87,0-1.6-.73-1.6-1.62l-.08-133.25c0-.84.68-1.54,1.55-1.54l98.02-.13c.76,0,1.38.59,1.38,1.35l.11,24.78c0,.7-.57,1.27-1.27,1.27l-62.8.24c-.81,0-1.46.65-1.46,1.46v21.42c0,.78.64,1.42,1.42,1.42h56.85c.95,0,1.74.81,1.71,1.81l-.19,23.62c0,1-.81,1.83-1.79,1.83l-56.47.06c-.83,0-1.52.75-1.52,1.63l.32,26.47c0,1.02.78,1.83,1.76,1.83h64.16Z"/>
    <path class="st2" d="M964.64,458.69h-35.21c-1.2,0-2.32-.64-2.91-1.68l-26.41-45.71c-.59-1.04-1.68-1.68-2.88-1.68h-14.37c-1.11,0-2.02.9-2.02,2.02v44.46s-1.01,1.58-1.85-.13h-31.95c-1.09,1.71-1.96.84-1.64-.25v-134.53c-.32-.6.17-1.09.77-1.09,18.13-.08,38.03-.16,59.7-.19,34.84-.08,58.86,15.92,54.11,55.45-1.55,13-10.28,23.14-26.12,30.4-.95.44-1.25,1.61-.68,2.45l32.66,46.97c.68.95-1.2,3.52-1.2,3.52ZM880.83,348.05l.05,33.23c0,.6.49,1.09,1.09,1.09l25.34-.03c9.49-.03,17.16-7.3,17.13-16.22v-3.02c-.03-8.95-7.72-16.2-17.19-16.17l-25.34.03c-.6,0-1.09.49-1.09,1.09Z"/>
    <rect class="st2" x="1008.96" y="319.66" width="35.44" height="136.3" rx=".5" ry=".5"/>
    <path class="st2" d="M1407.54,455.39c.65.98-1.2,3.3-1.2,3.3l-35.79-.17c-1.2,0-2.32-.64-2.9-1.67l-26.03-45.55c-.59-1.03-1.67-1.67-2.87-1.67l-14.23-.06c-1.14,0-2.06.92-2.06,2.04v44.36s-.73,1.55-1.58,0h-31.87c-1.09,1.41-1.96.54-1.99-.55v-134.21c.63-.6,1.12-1.09,1.72-1.09,18.07-.03,37.92,0,59.56.05,34.76.08,58.64,16.14,53.73,55.56-1.61,12.98-10.33,23.06-26.2,30.21-.93.44-1.25,1.61-.68,2.45l32.39,47ZM1322.46,348.33l.11,32.74c0,.72.57,1.29,1.28,1.29l25.39-.11c9.34-.03,16.87-6.93,16.84-15.44v-4.57c-.03-8.5-7.63-15.35-16.95-15.33l-25.39.11c-.71,0-1.28.58-1.28,1.29Z"/>
    <ellipse class="st1" cx="1165.71" cy="387.82" rx="42.25" ry="43.62" transform="translate(-6.78 21) rotate(-1.03)"/>
    <path class="st1" d="M880.78,348.02c0-.6.49-1.09,1.09-1.09l25.38-.03c9.48-.03,17.18,7.23,17.21,16.19v3.02c.03,8.94-7.65,16.22-17.15,16.25l-25.37.03c-.6,0-1.09-.49-1.09-1.09l-.05-33.29Z"/>
    <path class="st1" d="M1322.35,348.23c0-.72.57-1.3,1.28-1.3l25.46-.11c9.34-.03,16.96,6.87,16.99,15.42v4.6c.03,8.56-7.51,15.5-16.88,15.53l-25.46.11c-.71,0-1.28-.58-1.28-1.3l-.11-32.95Z"/>
    <path class="st0" d="M453.36,582.49c-.88-.81-1.03-2.14-.37-3.12l8.38-12.06c.93-1.38,2.85-1.62,4.13-.59,8.65,7.05,18.21,10.1,28.67,9.16,11.38-1.03,10.39-13.24,1.28-16.46-19.8-7.03-43.14-11.13-40.07-38.4,1.33-11.99,10.1-19.63,22.28-22.21,15.72-3.34,30.15-.61,43.29,8.21,1.84,1.23,2.31,3.73,1.06,5.55l-7.59,10.91c-1.2,1.74-3.64,2.09-5.26.74-3.07-2.53-6.22-4.42-9.48-5.68-5.55-2.11-21.5-4.15-22.14,5.18-.61,9.07,10.98,11.01,18.84,12.9,15.16,3.59,29.75,12.9,28.94,30.88-.42,9.9-4.25,17.22-11.47,21.99-18.7,12.28-44.86,7.42-60.49-7Z"/>
    <path class="st0" d="M536.01,582.61c-.88-.81-1.06-2.16-.37-3.14l8.38-12.09c.93-1.38,2.85-1.65,4.13-.59,8.67,7.05,18.25,10.1,28.75,9.14,11.38-1.03,10.39-13.27,1.25-16.49-19.85-7.03-43.24-11.11-40.19-38.43,1.33-12.01,10.1-19.68,22.31-22.28,15.75-3.37,30.2-.64,43.39,8.18,1.84,1.23,2.31,3.73,1.06,5.55l-7.59,10.96c-1.2,1.74-3.64,2.09-5.28.74-3.07-2.53-6.24-4.42-9.51-5.68-5.55-2.11-21.52-4.15-22.16,5.21-.61,9.09,11.01,11.03,18.89,12.9,15.18,3.59,29.83,12.9,29.04,30.91-.42,9.93-4.25,17.27-11.47,22.04-18.72,12.33-44.94,7.49-60.61-6.93Z"/>
    <path class="st0" d="M1160.41,582.49c-.88-.84-1.03-2.16-.34-3.14l8.43-12.09c.93-1.35,2.85-1.62,4.13-.57,8.65,7.1,18.23,10.17,28.75,9.26,11.38-.98,10.44-13.22,1.33-16.49-19.85-7.13-43.24-11.3-40.07-38.62,1.38-12.04,10.17-19.66,22.41-22.21,15.77-3.32,30.24-.52,43.41,8.35,1.82,1.25,2.28,3.76,1.03,5.58l-7.64,10.93c-1.23,1.74-3.66,2.06-5.31.71-3.05-2.56-6.22-4.47-9.48-5.72-5.55-2.14-21.52-4.25-22.21,5.13-.66,9.09,10.98,11.08,18.87,12.97,15.18,3.66,29.8,13.05,28.92,31.06-.47,9.95-4.32,17.27-11.57,22.01-18.8,12.28-45.01,7.32-60.64-7.17Z"/>
    <path class="st0" d="M1572.04,527.01c-.55.54-1.46.49-1.97-.1-5.87-7.05-12.88-10.2-21.05-9.43-20.42,1.94-24.53,21.42-22.34,37.66,2.47,18.3,20.18,24.85,36.84,18.9.94-.34,1.56-1.26,1.56-2.25v-10.68c0-.85-.69-1.55-1.55-1.55h-12.6c-1.22,0-2.21-.99-2.21-2.21v-13.82c0-1.68,1.37-3.05,3.05-3.05h33.89c.68,0,1.23.55,1.23,1.23v37.86c0,3.07-1.64,5.92-4.34,7.54-22.16,13.19-43.09,13.24-62.73.1-20.47-13.66-20.7-45.65-11.88-66.19,10.01-23.27,41.45-27.44,62.88-19.78,5.22,1.89,9.96,5.58,14.27,11.11.5.64.43,1.52-.15,2.11l-12.91,12.55Z"/>
    <path class="st0" d="M225.27,595h-19.06c-.8,0-1.45-.65-1.45-1.45v-92.38c0-.73.58-1.35,1.31-1.38,5.15-.17,16.77-.22,34.85-.12,22.5.15,33.41,11.47,32.71,33.95-.62,19.78-14.42,30.02-32.95,30.61-2.58.07-6.79.12-12.63.1-.81-.02-1.48.66-1.48,1.5v27.86c0,.72-.59,1.3-1.3,1.3ZM226.57,520.57l.14,23.56c0,1.01.82,1.8,1.83,1.8l11.83-.05c5.94-.05,10.75-4.76,10.73-10.55l-.05-6.25c-.02-5.77-4.88-10.46-10.82-10.41l-11.83.05c-1.01,0-1.83.84-1.83,1.85Z"/>
    <path class="st0" d="M365.11,594.4c.12.17-.02.39-.22-2.13h-23.83c-.29,2.52-.54,2.38-.66,2.13l-17.03-30.81c-.76-1.4-1.97-2.53-3.39-3.22-.84-.39-2.56-.59-5.18-.59-1.3,0-2.36,1.06-3.71,2.36v30.93c1.35.93.59,1.7-.32,1.92h-19.19c-1.2-.23-2.16-1.21-2.3-2.41v-91.96c.11-.66.65-1.2,1.29-1.2,17.84-.37,32.55-.25,44.18.37,23.07,1.18,28.67,23.93,22.19,42.38-1.74,4.94-5.87,9.31-12.41,13.1-.81.49-1.11,1.55-.61,2.38l21.2,36.76ZM313.81,517.15l-.15,21.99c0,.74.56,1.33,1.29,1.33l11.14.07c6.71.05,12.21-4.82,12.26-10.87v-2.67c.05-6.08-5.37-11.02-12.11-11.07l-11.14-.07c-.71,0-1.29.57-1.29,1.28Z"/>
    <path class="st0" d="M436.48,553.72c-.47.76-1.84,3.12-1.84,3.12l-31.94.07c-.93,0-1.68.73-1.66,1.59l.12,15.59c0,1.01.85,1.83,1.92,1.83l37.19-.12c.93-.02,1.66.7,1.66,1.59l-.07,15.82c0,.98-.81,1.79-1.79,1.79h-59.47c-.73,0-1.36-.61-1.36-1.38l-.15-92.76c0-.71.56-1.28,1.26-1.28l60.06-.05c.85,0,1.5.68,1.53,1.5l-.13,16c0,.9-.73,1.63-1.63,1.63l-37.74-.1c-.78,0-1.4.63-1.4,1.38v14.8s.97,1.47,1.78.28h31.69c.76,1.15,1.38,1.76,1.97,2.52v16.17Z"/>
    <path class="st0" d="M663.28,575.41c11.72-.02,17.57-6.44,17.59-18.23.02-19.09,0-37.84-.12-56.19,0-.96.79-1.72,1.74-4.13h18.82c.96,2.41,1.72,3.17,1.72,4.13-.02,7.69,0,24.54.07,50.59.02,8.48-.74,15.01-2.28,19.61-5.7,16.93-20.1,25.31-37.49,25.36-17.42.02-31.82-8.33-37.59-25.26-1.57-4.57-2.36-11.11-2.33-19.58,0-26.04-.02-42.92-.07-50.59,0-.96.76-1.72,1.7-1.53h18.82c.98-.27,1.77.5,1.77,1.45-.07,18.35-.05,37.1.02,56.19.07,11.79,5.92,18.18,17.64,18.18Z"/>
    <path class="st0" d="M800.64,593.15c.1.17-.02.39-.22-.88h-23.78c-.29,1.27-.54,1.12-.66.88l-16.98-30.74c-.76-1.4-1.94-2.53-3.39-3.22-.81-.39-2.53-.59-5.16-.59-1.3,0-2.36,1.06-3.19,2.36v30.86c.83.93.1,1.7-.84,3.18h-19.14c-1.2-1.48-2.16-2.46-1.83-3.67v-91.74c-.33-.66.19-1.18.85-1.2,17.76-.37,32.46-.25,44.05.37,23.02,1.18,28.6,23.88,22.14,42.28-1.74,4.94-5.87,9.29-12.38,13.07-.81.49-1.08,1.55-.61,2.38l21.15,36.66ZM748.43,517.48l-.57,21.33c-.02.84.64,1.55,1.5,1.57l10.42.27c7,.2,12.83-4.86,13-11.3l.02-1.13c.17-6.44-5.38-11.79-12.38-11.97l-10.42-.27c-.86-.02-1.57.64-1.57,1.5Z"/>
    <path class="st0" d="M837.22,556.47v18.07c0,.76.62,1.38,1.38,1.38h38.14c.76,0,1.38.62,1.38,1.38v16.33c0,.76-.62,1.38-1.38,1.38h-59.95c-.76,0-1.38-.62-1.38-1.38v-92.66c0-.76.62-1.38,1.38-1.38h59.95c.76,0,1.38.62,1.38,1.38v16.33c0,.76-.62,1.38-1.38,1.38h-38.14c-.76,0-1.38.62-1.38,1.38v16.33c0,.76.62,1.38,1.38,1.38h31.24s1.38-.96,2.83-.2v16.17c-1.45.76-2.07,1.38-2.83.39h-31.87c-.76.98-.75,2.36-.75,2.36Z"/>
    <path class="st0" d="M978.43,562.93c.15.91,1.45,1.01,1.67.1l15.53-61.23c.22-.86,1.89-2.22,1.89-2.22h16.31s1.52,1.31,1.74,2.09l16.17,60.54c.15.59.98.59,1.11,0l13.61-60.76c.15-.71,1.52.85,1.52.85h19.8c.64,0,1.15.62.98,1.27l-22.9,90.3c-.17.67-.76,1.12-1.43,1.12h-21.92c-1.23,0-2.29-.84-2.56-2.04l-13.02-56.59c-.2-.88-1.47-.91-1.7-.02l-14.45,56.98c-.25.98-1.13,1.67-2.14,1.67h-20.35c-1.03,0-1.94-.71-2.21-1.72l-24.35-91.21c-.34-1.25.61-2.48,1.89-2.48h19.59s2.43,1.53,2.73,2.81c3.46,16.02,7.17,32.16,11.15,48.43,1.15,4.69.76,8.45,1.33,12.11Z"/>
    <path class="st0" d="M1109.16,499.22c4.67-.02,8.26.02,10.79.12,1.35.05,2.53.91,2.97,2.19l31.47,90.83c.37,1.06-.44,2.16-1.57-.09h-19.14c-1.45,2.25-2.7,1.29-3.12-.08l-4.72-16.29c-.27-.88-1.03-1.5-1.94-1.55-.98-.05-5.82-.07-14.54-.05-8.72.02-13.59.05-14.57.12-.88.07-1.67.69-1.92,1.55l-4.64,16.31c-.39,1.4-1.67,2.36-3.12,2.71h-19.14c-1.13-.25-1.94-1.36-1.57-2.41l31.03-90.98c.44-1.28,1.62-2.16,2.97-2.21,2.51-.1,6.12-.17,10.76-.17ZM1099.25,555.41c-.22.71.29,1.43,1.03,1.43l17.22.29c.71.02,1.25-.66,1.08-1.38l-8.06-31.18c-.29-1.11-1.82-1.13-2.14-.05l-9.14,30.88Z"/>
    <path class="st0" d="M1289.73,535.8c8.58,0,14.36-.07,17.35-.2.99-.04,1.75-.85,1.75-1.84v-33.49c0-.38.31-.69.69-.69h20.33c.43,0,.79.35.79.79v92.73c0,1.04-.85,1.89-1.89,1.89h-18c-1.06,0-1.92-.86-1.92-1.92v-35.48s-.69-1.57-1.55-3.49l-16.98,2.73h-16.95c-.88-.81-2.69.76-2.69.76v35.48c0,1.06-.86,1.92-1.92,1.92h-18c-1.04,0-1.89-.85-1.89-1.89v-92.73c0-.43.35-.79.79-.79h20.33c.38,0,.69.31.69.69v33.49c0,.97.77,1.8,1.75,1.84,3,.12,8.79.2,17.32.2Z"/>
    <rect class="st0" x="1357.9" y="499.59" width="21.81" height="95.41" rx=".6" ry=".6"/>
    <path class="st0" d="M1453.34,542.29c.77,1.18,4.12,6.39,10.05,15.6.24.37.82.22.82-.22v-56.64c0-.8.65-1.45,1.45-1.45h21.64c.8,0,1.45.65,1.45,1.45v92.24s-1.94,1.23-2.63-1h-20.66c-1.23,2.23-2.36,1.61-3.02.56-10.25-16.12-19.04-29.78-26.39-41.01-.76-1.18-4.08-6.39-9.95-15.63-.25-.37-.81-.2-.04.25v56.56c-.77.81-2.22,2-2.22,2h-20.87c-.8,0-1.45-.65-1.45-1.45v-92.73c0-.68.55-1.23,1.23-1.23h20.89c1.24,0,2.38.61,3.05,1.65,10.35,16.15,19.24,29.82,26.66,41.06Z"/>
    <path class="st1" d="M226.43,520.53c0-1.01.82-1.86,1.84-1.86l11.93-.05c5.99-.05,10.89,4.66,10.91,10.45l.05,6.27c.02,5.81-4.82,10.54-10.81,10.59l-11.93.05c-1.02,0-1.84-.8-1.84-1.81l-.15-23.64Z"/>
    <path class="st1" d="M311.23,517.22c0-.71.58-1.28,1.28-1.28l11.07.07c6.7.05,12.09,4.96,12.04,11v2.65c-.05,6.02-5.51,10.86-12.18,10.81l-11.07-.07c-.73,0-1.28-.59-1.28-1.33l.15-21.86Z"/>
    <path class="st1" d="M748.41,518.61c0-.86.71-1.52,1.57-1.5l10.42.27c7,.17,12.55,5.53,12.38,11.97l-.02,1.13c-.17,6.44-5.99,11.5-13,11.3l-10.42-.27c-.86-.02-1.52-.74-1.5-1.57l.57-21.33Z"/>
    <path class="st1" d="M969.75,513.89l3.5-11.83c.12-.41.71-.4.82.02l3.09,11.95c.07.27-.14.54-.41.53l-6.6-.11c-.28,0-.48-.27-.4-.55Z"/>
    <path d="M776.2,759.59c0,.67-.39,1.2-.87,1.2h-137.34c-.49,0-.87-.53-.87-1.2v-123.3c0-.67.39-1.2.87-1.2h137.34c.49,0,.87.53.87,1.2v123.3ZM754.24,644.67c0-.85-.5-1.55-1.13-1.55h-90.47c-.62,0-1.13.69-1.13,1.55v90.51c0,.85.5,1.55,1.13,1.55h90.47c.62,0,1.13-.69,1.13-1.55v-90.51Z"/>
    <path d="M798.16,679.11v-42.64c0-.76.44-1.36.99-1.36h17.55c.55,0,.99.6.99,1.36v21.34c0,.76.44,1.36.99,1.36h17.53c.56,0,1,.64,1,1.46v18.48c0,.81-.44,1.46-1,1.46h-37.04c-.56,0-1-.64-1-1.46Z"/>
    <path d="M1134.9,759.59c0,.67-.39,1.2-.88,1.2h-137.34c-.49,0-.88-.53-.88-1.2v-123.3c0-.67.39-1.2.88-1.2h137.34c.49,0,.88.53.88,1.2v123.3ZM1110.5,644.7c0-.88-.51-1.58-1.15-1.58h-90.43c-.64,0-1.15.69-1.15,1.58v90.45c0,.88.51,1.58,1.15,1.58h90.43c.64,0,1.15-.69,1.15-1.58v-90.45Z"/>
    <path d="M936.02,699.23l-.38,19.91c-.02.85-.52,1.54-1.16,1.54h-18.1c-.6,0-1.09.67-1.09,1.49l-.19,17.23-17.87.22c-.82.03-1.46.93-1.46,2.07v17.2c0,1.06.6,1.91,1.34,1.91h16.44c.95,0,1.73-1.09,1.73-2.42l-.04-18.97,18.3.22c.7.03,1.26.81,1.26,1.81v17.41c0,1.08.61,1.95,1.37,1.95h17.7c1.59,0,2.89-1.82,2.89-4.08v-15.84c0-.82.46-1.47,1.01-1.47h17.26c.69,0,1.24.79,1.24,1.77v36.3c0,1.13.65,2.05,1.48,2.05h16.72c.73,0,1.32.83,1.32,1.86v36.72c0,.83.5,1.53,1.09,1.53h17.2c.67,0,1.23-.76,1.23-1.7v-15.55c0-.81.48-1.47,1.07-1.47h17.35c.59,0,1.09-.68,1.09-1.49v-17.74c0-1.2.68-2.16,1.53-2.16h16.84c.64,0,1.15.71,1.15,1.58v16.86c0,1.64.93,2.95,2.08,2.95h17.6c1.27,0,2.28-1.45,2.28-3.26v-16.58c0-.85.5-1.56,1.09-1.56h55.8c.92,0,1.67,1.07,1.67,2.38v17.23c0,1-.58,1.78-1.32,1.78h-16.95c-.7,0-1.26.76-1.26,1.7v15.08c0,1.07.66,1.94,1.45,1.94h16.99c.6,0,1.08.66,1.08,1.47v58.6c0,.78-.51,1.44-1.11,1.44h-17.85c-.31,0-.57.33-.57.73v17.28c0,.38.25.71.55.71h17.73c.68,0,1.24.77,1.24,1.73v36.84c0,.85-.5,1.54-1.14,1.54h-16.63c-.97,0-1.75,1.09-1.75,2.42v36.16c0,.83-.5,1.53-1.11,1.53h-37.21c-.4,0-.73-.46-.73-1.02v-37.76c0-.75-.42-1.34-.95-1.34h-20.1c-.5,0-.91.57-.91,1.27v98.92c0,.78-.46,1.43-1.02,1.43h-36.84c-.66,0-1.18.73-1.18,1.65v18.15c0,.89-.54,1.6-1.21,1.6h-17.16c-.63,0-1.15.68-1.15,1.52v15.42c0,.99-.59,1.78-1.34,1.78h-36.44c-.69,0-1.26-.76-1.26-1.68v-15.55c0-.84.5-1.5,1.13-1.5h17.1c.73,0,1.3-.76,1.3-1.73v-17.93c0-.96-.56-1.74-1.23-1.74h-36.83c-.54,0-.98.62-.98,1.36v37.07c0,.94-.54,1.68-1.21,1.68h-19.52c-.68,0-1.23-.71-1.23-1.6v-15.18c0-1.07-.66-1.93-1.5-1.93h-16.88c-.63,0-1.13.66-1.13,1.45v15.29c0,1.09-.64,1.98-1.45,1.98h-17.39c-.38,0-.68-.43-.68-.94v-16.92c0-.48.3-.86.66-.86h18.15c.39,0,.71-.48.71-1.07v-19.4c0-.5-.28-.93-.62-.93h-17.72c-.66,0-1.2-.81-1.18-1.79l.02-38.32,18.55-.2c.52,0,.95-.65.95-1.43v-18.47c0-.7.39-1.29.86-1.29h16.78c1.05,0,1.88-.99,1.88-2.23v-15.02c0-.81.56-1.47,1.24-1.47h19.33c.77,0,1.39.74,1.39,1.65v36.53c0,1.06.62,1.94,1.37,1.94h17.16c.54,0,.99-.63.99-1.39v-57.86c0-1.25-.72-2.26-1.6-2.26h-16.74c-.66,0-1.18-.74-1.18-1.66v-76.63c0-1.08-.68-1.94-1.54-1.94h-18.88c-.86,0-1.54.86-1.54,1.91v57.93c0,.92-.6,1.67-1.33,1.67h-36.69c-.56,0-1.03.61-1.03,1.34v15.71c0,.91-.58,1.67-1.28,1.67h-17.08c-.64,0-1.16.68-1.16,1.52v18.18c0,.94.57,1.7,1.28,1.7h36.95c.46,0,.82.48.82,1.09v16.64c0,.56-.32.99-.74.99h-17.57c-.66,0-1.21.76-1.21,1.71v19.68l-18.18-.22c-.74,0-1.34-.87-1.34-1.97v-17.37c0-1.01-.58-1.83-1.28-1.83h-37.07c-.37,0-.69.45-.69.99v19.33c0,.59.33,1.08.75,1.08h18.22c.3,0,.55.37.55.79v17.08c0,.48-.26.85-.59.85h-17.79c-.63,0-1.14.73-1.14,1.63v39.04c0,1.15-.67,2.11-1.49,2.11h-17.12c-.49,0-.91-.57-.91-1.24v-98.68c0-.94-.55-1.7-1.24-1.7h-97.5c-.71,0-1.3-.78-1.3-1.75v-18.04c0-.89-.53-1.6-1.2-1.6h-17.22c-.61,0-1.1-.66-1.1-1.47v-15.82c0-.79-.49-1.42-1.08-1.42h-19.85c-.57,0-1.03.64-1.03,1.42v36.95c0,.96-.55,1.74-1.24,1.74h-16.92c-.74,0-1.36-.83-1.36-1.88v-97.9c0-1.02.57-1.84,1.28-1.84h36.53c.67,0,1.23.8,1.23,1.76v18.09c0,.85.48,1.54,1.07,1.54h19.87c.56,0,1.02.6,1.02,1.36v15.37c0,1.11.69,1.99,1.54,1.99h35.81c.94,0,1.69-.98,1.69-2.22v-14.36c0-1.18-.66-2.14-1.48-2.14h-16.98c-.59,0-1.06-.69-1.06-1.54v-17.41c0-1.35-.76-2.45-1.69-2.45h-16.81c-.57,0-1.02-.62-1.02-1.39v-16.07c0-.69-.42-1.26-.93-1.26h-17.89c-.38,0-.7-.44-.7-.95v-19.42c0-.56.32-1.02.7-1.02h17.66c.65,0,1.16-.72,1.16-1.61v-36.55c0-1.07.61-1.96,1.37-1.96h117.73c.25,0,.47.3.47.68v20.05c0,.36-.22.66-.47.66h-98.38c-.67,0-1.2.77-1.2,1.7v55.77c0,.75.48,1.37,1.05,1.37h59.1c.48,0,.85-.52.85-1.14v-16.63c0-.52-.34-.96-.73-.96h-39.73c-.57,0-1.02-.6-1.02-1.37v-18.71c0-.74.43-1.31.97-1.31h39.59c.51,0,.91.55.91,1.23v18.81c0,.75.42,1.35.96,1.35h36.97c.61,0,1.11-.72,1.11-1.6v-18.13c0-.91.52-1.66,1.15-1.66h37.16c.42,0,.74.45.74,1.04v37.42c0,.91-.53,1.65-1.17,1.65h-17.25c-.6,0-1.1-.69-1.1-1.54v-13.98c0-1.76-1.09-3.2-2.44-3.2h-14.19c-1.6,0-2.89,1.69-2.89,3.79v13.63c0,.72-.45,1.3-1,1.3h-17.69c-.45,0-.83.55-.83,1.24v19.08c0,.61.32,1.07.74,1.07h17.44c.74,0,1.34.88,1.34,1.98v14.46c0,1.27-.69,2.28-1.53,2.28h-35.94c-.86,0-1.57,1.04-1.57,2.31l.08,19.09-21.39.03c-.36,0-.64.38-.64.86v17.21c0,.35.21.63.45.63h18.1c.53,0,.97-.58.97-1.29l.09-17.44,40.23.03c.65,0,1.16-.72,1.16-1.64v-15.83c0-2.17,1.24-3.95,2.77-3.95h13.82c1.61,0,2.93,1.86,2.93,4.15v15.66c0,.86.47,1.59,1.06,1.59h16.77c.94,0,1.7-1.11,1.7-2.51v-17.27c0-.89.49-1.62,1.11-1.62h36.37c.86,0,1.56-.93,1.56-2.09v-14.87c0-.98-.58-1.76-1.32-1.76h-17.66c-.3,0-.54-.33-.54-.7v-19.81c0-.48.27-.88.62-.88h37.25c.65,0,1.17-.72,1.17-1.62v-36.84c0-.9.54-1.65,1.19-1.65h17.24c.59,0,1.09-.69,1.09-1.5v-15.87c0-.74-.44-1.34-.98-1.34h-17.84c-.38,0-.71-.45-.71-.98v-19.33c0-.59.36-1.09.8-1.09h17.22c.82,0,1.49-.91,1.49-2.02v-14.01c0-1.47-.9-2.69-2.01-2.69h-16.21c-.73,0-1.3.78-1.3,1.73v15.79c0,.65-.4,1.19-.88,1.19h-36.65c-.84,0-1.51.91-1.51,2.05v17.67c0,.93-.53,1.68-1.2,1.68h-36.64c-.67,0-1.2-.74-1.2-1.68v-77.62c0-.51.31-.93.67-.93l38.37.03.06,17.14c.02.86.53,1.55,1.15,1.55h17.51c.45,0,.81-.48.81-1.09v-16.49c0-.63-.34-1.13-.77-1.13l-18.75.08.02-19.74c.02-.97.55-1.74,1.21-1.74h16.9c.77,0,1.39-.94,1.39-2.07v-17.63c0-.94-.53-1.69-1.18-1.69h-17.15c-.66,0-1.18-.75-1.18-1.69v-36.9c0-.83.49-1.53,1.09-1.53h56.26c.66,0,1.21.75,1.21,1.69v37.06c0,.75-.42,1.37-.95,1.37h-17.32c-.68,0-1.25.8-1.25,1.77v17.59c0,1.13.66,2.03,1.48,2.03l19.24-.06ZM915.24,700.71c0-.78-.46-1.44-1.02-1.43l-17.45.09c-.56.01-1.01.65-1.01,1.44l.05,18.44c0,.78.46,1.44,1.02,1.43l17.45-.09c.56-.01,1.01-.65,1.01-1.44l-.05-18.44ZM876.25,741.05c0-.91-.54-1.65-1.2-1.65h-17.12c-.66,0-1.2.75-1.2,1.65v36.81c0,.91.54,1.65,1.2,1.65h17.12c.66,0,1.2-.75,1.2-1.65v-36.81ZM976.29,802.28c0-.75-.44-1.37-.97-1.37h-17.57c-.53,0-.97.62-.97,1.37v37.37c0,.75.44,1.37.97,1.37h17.57c.53,0,.97-.62.97-1.37v-37.37ZM1115.36,820.83c0-.66-.37-1.21-.84-1.2l-37.34.09c-.46,0-.85.53-.84,1.21l.02,18.89c0,.66.37,1.21.84,1.2l37.34-.09c.46,0,.85-.53.84-1.21l-.02-18.89ZM1093.42,882.4c0-.71.42-1.26.96-1.26h20.03c.55,0,.98-.59.98-1.34v-18.77c0-.72-.44-1.29-.99-1.29h-59.01c-.56,0-.99-.57-.99-1.29v-16.14c0-.72-.44-1.29-.99-1.29h-56.61c-.54,0-.96.56-.96,1.28v16.15c0,.72-.42,1.28-.96,1.28h-37.13c-.54,0-.96.56-.96,1.28v18.74c0,.77.42,1.37.96,1.37h37.13c.54,0,.96-.6.96-1.37v-18.65c0-.77.42-1.37.96-1.37h17.61c.53,0,.95.61.95,1.38v18.64c0,.77-.42,1.38-.95,1.38h-17.62c-.53,0-.95.61-.95,1.38v15.95c0,.78.42,1.4.95,1.4h17.62c.53,0,.95.62.95,1.4v18.6c0,.78.42,1.4.95,1.4h17.6c.54,0,.97-.58.97-1.33v-37.46c0-.74.43-1.33.97-1.33h17.58c.54,0,.97.58.97,1.33v16.13c0,.71.42,1.26.96,1.26h37.13c.54,0,.96-.56.96-1.26v-16.2ZM776.16,882.67c0-.84-.53-1.54-1.15-1.53l-17.19.08c-.63.01-1.14.69-1.14,1.54l.04,15.57c0,.84.52,1.54,1.15,1.53l17.19-.08c.63-.01,1.14-.69,1.14-1.54l-.04-15.57ZM698.09,901.5c0-.89-.5-1.64-1.12-1.64l-17.27.04c-.61,0-1.12.73-1.12,1.64l.02,18.07c0,.89.5,1.64,1.12,1.64l17.27-.04c.61,0,1.12-.73,1.12-1.64l-.02-18.07ZM756.64,901.79c0-1.06-.62-1.94-1.36-1.93l-16.77.08c-.75.01-1.35.87-1.35,1.94l.04,17.44c0,1.06.62,1.94,1.36,1.93l16.77-.08c.75-.01,1.35-.87,1.35-1.94l-.04-17.44ZM957.75,899.86c-.53,0-.97.64-.97,1.43v37.4c0,.71.44,1.29.98,1.29h37.09c.54,0,.98-.58.98-1.29v-16.15c0-.71-.44-1.29-.98-1.29h-17.57c-.53,0-.97-.64-.97-1.43v-18.54c0-.78-.44-1.43-.97-1.43h-17.57ZM737.2,923.12c0-1.04-.61-1.85-1.38-1.86l-16.78-.08c-.77-.01-1.39.83-1.39,1.85l-.04,15.09c0,1.04.61,1.85,1.38,1.86l16.78.08c.77.01,1.39-.83,1.39-1.85l.04-15.09ZM837.16,922.8c0-.86-.51-1.55-1.14-1.55l-17.2.04c-.62,0-1.13.7-1.13,1.55l.05,36.98c0,.86.51,1.55,1.14,1.55l17.2-.04c.62,0,1.13-.7,1.13-1.55l-.05-36.98ZM1054.34,922.56c0-.71-.46-1.31-1.01-1.3l-17.46.08c-.56.01-1,.59-1.01,1.31l.04,16.03c0,.71.46,1.31,1.01,1.3l17.46-.08c.56-.01,1-.59,1.01-1.31l-.04-16.03ZM1115.4,923c0-.96-.58-1.74-1.3-1.75l-16.93-.04c-.71,0-1.3.78-1.31,1.74l-.02,15.27c0,.96.58,1.74,1.3,1.75l16.93.04c.71,0,1.3-.78,1.31-1.74l.02-15.27ZM1034.86,962.34c0-.52-.33-.97-.71-.97h-57.15c-.38,0-.71.45-.71.97v56.9c0,.52.33.97.71.97h57.15c.38,0,.71-.45.71-.97v-56.9Z"/>
    <path d="M957.87,640.45l17.25-.12c.64,0,1.17.69,1.17,1.56l.06,15.7c0,.87-.52,1.57-1.16,1.58l-17.25.12c-.64,0-1.17-.69-1.17-1.56l-.06-15.7c0-.87.52-1.57,1.16-1.58Z"/>
    <path class="st1" d="M754.24,735.18c0,.85-.5,1.55-1.13,1.55h-90.47c-.62,0-1.13-.69-1.13-1.55v-90.51c0-.85.5-1.55,1.13-1.55h90.47c.62,0,1.13.69,1.13,1.55v90.51ZM737.23,660.61c0-.8-.46-1.43-1.01-1.44l-56.6-.14c-.56-.01-1.02.64-1.02,1.43l-.07,58.78c0,.8.46,1.43,1.01,1.44l56.6.14c.56.01,1.02-.64,1.02-1.43l.07-58.78Z"/>
    <path class="st1" d="M1110.5,735.15c0,.88-.51,1.58-1.15,1.58h-90.43c-.64,0-1.15-.69-1.15-1.58v-90.45c0-.88.51-1.58,1.15-1.58h90.43c.64,0,1.15.69,1.15,1.58v90.45ZM1093.42,660.44c0-.7-.4-1.27-.9-1.27h-56.76c-.5,0-.9.57-.9,1.27v58.97c0,.7.4,1.27.9,1.27h56.76c.5,0,.9-.57.9-1.27v-58.97Z"/>
    <path d="M679.96,659.17l55.91.14c.71,0,1.29.64,1.29,1.42l-.07,58.54c0,.78-.58,1.42-1.3,1.42l-55.91-.14c-.71,0-1.29-.64-1.29-1.42l.07-58.54c0-.78.58-1.42,1.3-1.42Z"/>
    <rect x="1034.86" y="659.17" width="58.56" height="61.51" rx=".47" ry=".47"/>
    <path d="M838.32,680.6l17.26-.04c.62,0,1.12.55,1.12,1.23l.02,16.22c0,.68-.5,1.23-1.12,1.23l-17.26.04c-.62,0-1.12-.55-1.12-1.23l-.02-16.22c0-.68.5-1.23,1.12-1.23Z"/>
    <path d="M937.25,699.21l.15-17.17c0-.82.5-1.48,1.12-1.48h36.66c.62,0,1.12.66,1.12,1.48v15.74c0,.84-.5,1.5-1.12,1.5l-37.93-.08Z"/>
    <rect x="798.16" y="699.28" width="19.52" height="21.39" rx=".5" ry=".5"/>
    <path class="st1" d="M896.74,699.28l17.53-.09c.56,0,1.02.64,1.02,1.44l.05,18.59c0,.8-.45,1.45-1.01,1.45l-17.53.09c-.56,0-1.02-.64-1.02-1.44l-.05-18.59c0-.8.45-1.45,1.01-1.45Z"/>
    <path class="st1" d="M876.19,720.68l18.8-.08c.43,0,.77.46.77,1.04v16.66c0,.61-.36,1.1-.81,1.1h-17.56c-.62,0-1.13-.69-1.15-1.55l-.06-17.17Z"/>
    <path d="M799.28,739.44l17.25-.04c.62,0,1.12.55,1.13,1.23l.02,18.89c0,.68-.5,1.23-1.12,1.23l-17.25.04c-.62,0-1.12-.55-1.13-1.23l-.02-18.89c0-.68.5-1.23,1.12-1.23Z"/>
    <rect class="st1" x="856.73" y="739.4" width="19.52" height="40.12" rx=".62" ry=".62"/>
    <path class="st1" d="M915.29,739.18l.04,19.17c0,1.35-.78,2.45-1.74,2.45h-16.48c-.74,0-1.35-.85-1.35-1.93v-17.38c0-1.16.64-2.06,1.46-2.09l18.06-.22Z"/>
    <rect x="637.11" y="779.51" width="19.52" height="21.39" rx=".57" ry=".57"/>
    <rect class="st1" x="956.77" y="800.91" width="19.52" height="40.12" rx=".51" ry=".51"/>
    <path d="M877.46,819.63l17.11.04c.66,0,1.19.63,1.19,1.41l-.02,18.54c0,.78-.54,1.4-1.2,1.4l-17.11-.04c-.66,0-1.19-.63-1.19-1.41l.02-18.54c0-.78.54-1.4,1.2-1.4Z"/>
    <path class="st1" d="M1077.41,819.72l36.87-.09c.59,0,1.08.52,1.08,1.18l.02,18.95c0,.65-.48,1.18-1.07,1.18l-36.87.09c-.59,0-1.08-.52-1.08-1.18l-.02-18.95c0-.65.48-1.18,1.07-1.18Z"/>
    <path class="st1" d="M1095.86,882.51v16.01c0,.75-.43,1.34-.98,1.34h-39.53c-.54,0-.97-.55-.97-1.26v-16.2c0-.71-.43-1.26-.97-1.26h-17.58c-.54,0-.97.55-.97,1.26v37.46c0,.78-.42,1.4-.96,1.4h-17.61c-.54,0-.96-.62-.96-1.4v-18.6c0-.78-.42-1.4-.96-1.4h-17.61c-.53,0-.95-.55-.95-1.25v-16.21c0-.7.42-1.25.95-1.25h17.62c.53,0,.95-.55.95-1.25v-18.77c0-.77-.42-1.37-.95-1.37h-17.62c-.53,0-.95.6-.95,1.37v18.65c0,.77-.42,1.37-.95,1.37h-37.13c-.54,0-.96-.6-.96-1.37v-18.64c0-.77.42-1.37.96-1.37h37.13c.54,0,.96-.6.96-1.37v-16.06c0-.72.42-1.29.96-1.29h56.65c.54,0,.96.57.96,1.29v16.14c0,.72.42,1.29.96,1.29h59.1c.53,0,.95.6.95,1.37v18.66c0,.77-.42,1.37-.95,1.37h-17.63c-.53,0-.95.6-.95,1.37Z"/>
    <path class="st1" d="M876.25,1001.68v-19.86c0-.96.52-1.73,1.16-1.73h17.62c.42,0,.74-.43.74-.99v-16.64c0-.61-.36-1.09-.82-1.09h-36.95c-.7,0-1.28-.76-1.28-1.7v-18.18c0-.84.52-1.52,1.16-1.52h17.08c.7,0,1.28-.76,1.28-1.67v-15.71c0-.73.46-1.34,1.03-1.34h36.69c.73,0,1.33-.75,1.33-1.67v-57.93c0-1.05.68-1.91,1.54-1.91h18.88c.86,0,1.54.86,1.54,1.94v76.63c0,.93.52,1.66,1.18,1.66h16.74c.89,0,1.6,1.01,1.6,2.26v57.86c0,.76-.44,1.39-.99,1.39h-17.16c-.75,0-1.37-.87-1.37-1.94v-36.53c0-.91-.62-1.65-1.39-1.65h-19.33c-.68,0-1.24.66-1.24,1.47v15.02c0,1.24-.83,2.23-1.88,2.23h-16.78c-.47,0-.86.6-.86,1.31v18.64c0,.79-.43,1.45-.95,1.45l-18.57.2Z"/>
    <path class="st1" d="M757.79,881.14l17.26-.08c.64,0,1.15.69,1.16,1.54l.04,15.7c0,.86-.51,1.55-1.15,1.56l-17.26.08c-.64,0-1.15-.69-1.16-1.54l-.04-15.7c0-.86.51-1.55,1.15-1.56Z"/>
    <path class="st1" d="M679.99,899.9l16.71-.04c.77,0,1.4.73,1.4,1.64l.02,18.07c0,.91-.62,1.64-1.39,1.64l-16.71.04c-.77,0-1.4-.73-1.4-1.64l-.02-18.07c0-.91.62-1.64,1.39-1.64Z"/>
    <path class="st1" d="M738.47,899.86l16.85-.08c.75,0,1.36.87,1.36,1.95l.04,17.57c0,1.08-.6,1.96-1.35,1.96l-16.85.08c-.75,0-1.36-.87-1.36-1.95l-.04-17.57c0-1.08.6-1.96,1.35-1.96Z"/>
    <path class="st1" d="M957.75,899.86h17.57c.54,0,.98.64.98,1.43v18.54c0,.78.44,1.43.98,1.43h17.57c.54,0,.98.64.98,1.43v15.93c0,.75-.44,1.36-.98,1.36h-37.09c-.54,0-.98-.61-.98-1.36v-37.4c0-.75.44-1.36.98-1.36Z"/>
    <path class="st1" d="M719.06,921.25l16.72.08c.76,0,1.38.83,1.38,1.85l-.04,14.96c0,1.02-.62,1.84-1.39,1.83l-16.72-.08c-.76,0-1.38-.83-1.38-1.85l.04-14.96c0-1.02.62-1.84,1.39-1.83Z"/>
    <path class="st1" d="M776.2,921.23l-.09,17.46c0,.71-.43,1.29-.96,1.29h-18.01c-.25,0-.45-.28-.45-.63v-17.23c0-.48.28-.86.64-.86l18.88-.03Z"/>
    <path class="st1" d="M819.09,921.29l16.64-.04c.78,0,1.42.69,1.42,1.55l.05,36.97c0,.86-.63,1.55-1.41,1.55l-16.64.04c-.78,0-1.42-.69-1.42-1.55l-.05-36.97c0-.86.63-1.55,1.41-1.55Z"/>
    <path class="st1" d="M1035.82,921.25l17.54-.08c.56,0,1.01.59,1.02,1.31l.04,16.17c0,.73-.45,1.32-1.01,1.32l-17.54.08c-.56,0-1.01-.59-1.02-1.31l-.04-16.17c0-.73.45-1.32,1.01-1.32Z"/>
    <path class="st1" d="M1097.57,921.25l16.13.04c.93,0,1.68.83,1.68,1.85l-.02,14.99c0,1.02-.76,1.84-1.69,1.84l-16.13-.04c-.93,0-1.68-.83-1.68-1.85l.02-14.99c0-1.02.76-1.84,1.69-1.84Z"/>
    <path class="st1" d="M1034.86,1019.24c0,.52-.33.97-.71.97h-57.15c-.38,0-.71-.45-.71-.97v-56.9c0-.52.33-.97.71-.97h57.15c.38,0,.71.45.71.97v56.9ZM1015.36,981.51c0-.79-.43-1.41-.95-1.42l-17.63-.05c-.53,0-.95.62-.96,1.42l-.02,18.6c0,.79.43,1.41.95,1.42l17.63.05c.53,0,.95-.62.96-1.42l.02-18.6Z"/>
    <path d="M1134.9,981.8v17.94c0,.97-.52,1.74-1.18,1.74h-17.16c-.66,0-1.18.77-1.18,1.74v17.92c0,.97.52,1.74,1.18,1.74h17.16c.66,0,1.18.71,1.18,1.61v95.73c0,.9-.52,1.61-1.18,1.61h-17.16c-.66,0-1.18-.71-1.18-1.61v-15.55c0-.87-.52-1.56-1.17-1.56h-36.71c-.65,0-1.17.69-1.17,1.56v15.6c0,.87-.52,1.56-1.17,1.56h-19.64c-.64,0-1.16-.69-1.16-1.56v-15.6c0-.87.51-1.56,1.16-1.56h17.21c.64,0,1.16-.69,1.16-1.56v-18.13c0-.95-.51-1.7-1.16-1.7h-17.21c-.64,0-1.16.75-1.16,1.7v17.99c0,.95-.51,1.7-1.16,1.7h-36.72c-.65,0-1.17-.75-1.17-1.7v-18c0-.95.52-1.7,1.17-1.7h17.18c.65,0,1.17-.75,1.17-1.7v-15.36c0-.92.52-1.66,1.17-1.66h56.22c.65,0,1.17-.73,1.17-1.66v-58.2c0-.92.52-1.66,1.17-1.66h19.61c.66,0,1.18-.76,1.18-1.71v-17.97c0-.95.52-1.71,1.18-1.71h17.16c.66,0,1.18.76,1.18,1.71Z"/>
    <path d="M776.2,1120.22c0,.89-.52,1.61-1.17,1.61h-136.76c-.64,0-1.17-.73-1.17-1.61v-138.51c0-.89.52-1.61,1.17-1.61h136.76c.64,0,1.17.73,1.17,1.61v138.51ZM754.24,1005.51c0-.74-.45-1.35-.99-1.35h-90.75c-.54,0-.99.61-.99,1.35v90.9c0,.74.45,1.35.99,1.35h90.75c.54,0,.99-.61.99-1.35v-90.9Z"/>
    <path d="M997.03,980.09l17.11.04c.66,0,1.19.63,1.19,1.41l-.02,18.53c0,.78-.54,1.41-1.2,1.41l-17.11-.04c-.66,0-1.19-.63-1.19-1.41l.02-18.53c0-.78.54-1.41,1.2-1.41Z"/>
    <path class="st1" d="M754.24,1096.41c0,.74-.45,1.35-.99,1.35h-90.75c-.54,0-.99-.61-.99-1.35v-90.9c0-.74.45-1.35.99-1.35h90.75c.54,0,.99.61.99,1.35v90.9ZM737.16,1022.01c0-.98-.57-1.8-1.26-1.8h-56.04c-.69,0-1.26.82-1.26,1.8v57.9c0,.98.57,1.8,1.26,1.8h56.04c.69,0,1.26-.82,1.26-1.8v-57.9Z"/>
    <rect x="678.59" y="1020.21" width="58.56" height="61.51" rx=".66" ry=".66"/>
    <path d="M856.73,1021.61v98.88c0,.75-.43,1.34-.98,1.34h-56.62c-.54,0-.96-.56-.96-1.28v-16.16c0-.72.42-1.28.96-1.28h37.11c.54,0,.96-.56.96-1.28v-18.85c0-.71-.43-1.27-.98-1.27h-17.55c-.55,0-.98-.56-.98-1.27v-16.18c0-.71.43-1.27.98-1.27h17.59c.53,0,.94-.62.94-1.41v-39.97c0-.79.42-1.41.94-1.41h17.63c.53,0,.94.62.94,1.41Z"/>
    <rect x="876.25" y="1103.11" width="100.05" height="18.72" rx=".57" ry=".57"/>
    <path d="M1169.16,1180.11c8.05-.09,15.31.63,22.09,5.88,16.5,12.76,19,36.39,19.23,55.41.2,19-1.78,42.68-18.01,55.82-6.67,5.39-13.91,6.27-21.96,6.36s-15.29-.63-22.07-5.88c-16.5-12.78-19.03-36.39-19.23-55.41s1.78-42.68,18.01-55.82c6.67-5.39,13.89-6.27,21.94-6.36ZM1154.1,1241.97c0,10.19-.63,41.89,15.76,41.86,16.37,0,15.74-31.67,15.74-41.86s.63-41.86-15.76-41.86-15.74,31.7-15.74,41.86Z"/>
    <path d="M426.52,1300.52c-12.51,4.31-24.96,4.04-37.31-.81-13.53-8.09-19.64-21.37-21.82-36.59-.72-5.07-.74-13.3-.07-24.69,1.69-28.88,15.44-54.6,46.42-57.58,6.61-.65,14.68-.61,24.24.14.56.05.99.52.99,1.06v18.46c0,.5-.47.88-.97.79-14.34-2.86-32.01-2.01-42.23,9.81-5.3,6.13-7.33,17.41-7.64,25.44-.02.63.76.9,1.15.4,6.25-8.03,13.01-12.63,23.92-12.83,31.65-.59,39.09,30.82,31.34,55.28-3,9.51-9.02,16.55-18.01,21.12ZM406.99,1242.92c-8.82.2-15.77,9.55-15.51,20.87.27,11.34,7.62,20.36,16.45,20.15,8.82-.2,15.77-9.55,15.51-20.87-.27-11.34-7.62-20.36-16.45-20.15Z"/>
    <path d="M813.24,1303.72l-11.32-.92.11-18.71c.02-.79.74-1.35,1.49-1.15,16.07,4.1,38.62,1.35,45.74-15.78,1.56-3.76,2.98-10.21,4.22-19.34.07-.59-.59-.97-1.06-.63-.23.16-1.74,1.8-4.53,4.94-4.98,5.61-11.95,7.87-19.37,8.03-26.35.56-35.98-19.14-34.15-43.53,1.76-23.56,17.49-37.4,41.93-36.18,43.08,2.14,42.23,59.13,33.66,87.68-4.58,15.22-13.73,25.81-27.46,31.74-3.79,1.65-8.59,2.68-14.43,3.11-4.96.38-9.9.63-14.83.77ZM832.47,1200.47c-8.82.2-15.77,9.53-15.52,20.85.27,11.32,7.62,20.33,16.44,20.12,8.82-.2,15.77-9.53,15.52-20.85-.27-11.32-7.62-20.33-16.44-20.12Z"/>
    <path d="M906.46,1236.85c-.02.77,1.01,1.08,1.44.43,7.15-10.89,17.65-15.09,31.48-12.59,23.69,4.24,29.47,29.17,25,49.53-3.9,17.79-16.62,29.83-35.17,29.15-10.84-.41-16.64.16-24.75-5.7-12.22-8.88-17.56-22.36-18.85-36.77-3.13-34.76,5.3-74.46,46.15-80.1,5.57-.77,13.8-.65,24.64.32.61.07,1.08.59,1.08,1.19v18.26c0,.47-.41.81-.86.72-17.63-3.72-40.69-1.4-47.3,18.89-1.78,5.5-2.75,11.05-2.86,16.66ZM926.16,1242.9c-8.84.24-15.76,9.57-15.47,20.88.29,11.3,7.7,20.28,16.54,20.04,8.84-.24,15.76-9.57,15.47-20.88-.29-11.3-7.7-20.28-16.54-20.04Z"/>
    <path d="M1095.01,1239.56c.99.38,3.92,2.28,8.77,5.68,24.51,17.2,17.27,49.53-10.69,57.15-8.07,2.21-29.85,1.69-38.21-2.98-20.29-11.36-21.87-38.42-4.35-52.96,3.86-3.22,7.1-5.34,9.69-6.36.56-.23.61-.99.09-1.29-1.33-.77-3.72-2.77-7.17-6.04-15.1-14.29-15.47-37.42,4.13-47.79,19.79-10.51,58.86-4.89,57.8,25.14-.45,12.62-8.81,21.76-20.15,27.8-.68.36-.63,1.38.09,1.65ZM1078.71,1226.43c.18,0,.27,0,.29-.02,7.1-2.8,11.16-7.64,12.2-14.52,1.28-8.63-4.22-14.36-12.78-14.27-8.57.09-13.95,5.95-12.49,14.54,1.17,6.85,5.34,11.61,12.51,14.27h.27ZM1080.09,1251.15c-1.49-.95-3.4-.99-4.94-.11-4.44,2.59-7.8,5.5-10.12,8.75-6.88,9.69-3.29,23.96,9.92,25.48,11.23,1.29,17.95-2.46,20.15-11.2,2.64-10.55-7.64-18.19-15.01-22.91Z"/>
    <path d="M1394.84,1302.65c0,.23-.18.42-.4.42h-77.52c-.54,0-.98-.47-.98-1.03v-15.06c0-1.85.67-3.64,1.9-5,13.05-14.66,25.27-28.74,36.68-42.27,7.1-8.42,12.47-18.06,12.11-29.79-.42-14.22-14.3-15.04-23.55-10.35-4.22,2.13-8.42,5.25-12.6,9.36-.74.7-1.9.63-2.52-.19l-11.01-14.24c-.63-.8-.56-1.95.13-2.67,12.53-12.9,27.3-18.3,44.3-16.19,26.43,3.31,35.45,27.03,26.9,51.19-2.32,6.55-7.48,14.52-15.46,23.93-5.43,6.4-13.96,15.81-25.65,28.25-.54.56-.16,1.52.6,1.52h46.36c.4,0,.71.33.71.73v21.39Z"/>
    <path d="M517.87,1302.39c-.52.16-.88.45-1.13.88-1.82-.7-3.67-.81-5.51-.38l-18.16-1.22.11-90.76c0-.5-.59-.79-.97-.47l-20.19,16.41c-.52.43-1.28.36-1.69-.16l-10.53-12.96c-.45-.56-.36-1.42.2-1.87,19.94-16.16,31.28-25.43,34.05-27.79,2.25-1.91,4.79-2.81,7.61-2.7,5.99.25,10.57.22,13.77-.07,1.34-.12,2.44.91,2.44,2.26v118.84Z"/>
    <path d="M579.12,1203.88c-.59,0-1.07.45-1.12,1.04l-1.54,21.83c-.07.84.66,1.55,1.47,1.4,11.32-1.8,20.01-1.52,26.09.8,12.56,4.8,20.37,13.7,22.57,27.37,1.17,7.35.99,19.15-1.85,26.24-6.93,17.3-20.22,25.78-39.82,25.45-13.17-.21-22.63.37-32.28-4.1-1.94-.89-3.21-2.9-3.21-5.13v-16.53c0-1.5,1.54-2.46,2.8-1.76,10.82,5.9,43.48,14.14,48.81-5.03,7.09-25.42-15.36-29.87-33.05-25.66-5.6,1.33-8.97.35-13.35-2.6-1.65-1.1-2.6-3.07-2.44-5.1l4.2-59.95c.05-.47.41-.82.86-.82h60.83c.67,0,1.22.55,1.22,1.22v20.29c0,.57-.47,1.04-1.04,1.04h-39.16Z"/>
    <path d="M754.43,1205c.22-.54-.16-1.12-.74-1.12h-52.13c-.6,0-1.08-.48-1.08-1.08v-20.4c0-.59.47-1.06,1.06-1.06h80.04c.69,0,1.26.57,1.29,1.26.29,8.93.13,14.14-.48,15.59-18.56,44.84-32.8,79.41-42.79,103.66-.31.76-1.04,1.23-1.86,1.23h-24.19c-.38,0-.63-.38-.47-.74l41.36-97.34Z"/>
    <path d="M1282.1,1302.92l-.52.46c-7.47-.85-15.06-1.09-22.77-.71-.97.05-1.6.38-1.92,1.01l-.79-.97c.79-1.01,1.19-1.89,1.19-2.62-.27-31.13-.18-61.19.27-90.11,0-.23-.25-.34-.43-.2l-20.47,16.64c-.7.56-1.74.45-2.3-.25l-9.87-12.15c-.65-.81-.54-1.98.27-2.64l34.92-28.38c1.35-1.08,3.02-1.67,4.76-1.67h16.19c.82,0,1.49.67,1.49,1.49l-.02,120.09Z"/>
    <path class="st1" d="M944.14,1123.52c3.8-.04,6.24,2.5,5.67,6.33-.46,3.05-2.26,5.2-5.41,6.44-.01,0-.05,0-.13,0h-.12c-3.18-1.18-5.03-3.29-5.55-6.33-.65-3.81,1.74-6.41,5.54-6.45Z"/>
    <path class="st1" d="M1169.84,1200.11c16.39,0,15.76,31.7,15.76,41.86s.63,41.86-15.74,41.86c-16.39.02-15.76-31.67-15.76-41.86s-.65-41.86,15.74-41.86Z"/>
    <ellipse class="st1" cx="833.49" cy="1221.92" rx="15.78" ry="20.29" transform="translate(-27.16 18.98) rotate(-1.28)"/>
    <rect x="644.12" y="1242.21" width="42.83" height="20.29" rx=".5" ry=".5"/>
    <rect x="980.04" y="1242.24" width="42.8" height="20.22" rx=".45" ry=".45" transform="translate(-2.18 1.75) rotate(-.1)"/>
    <ellipse class="st1" cx="407.4" cy="1262.5" rx="15.78" ry="20.29" transform="translate(-28.31 9.49) rotate(-1.29)"/>
    <ellipse class="st1" cx="925.92" cy="1262.5" rx="15.78" ry="20.29" transform="translate(-31.98 24.09) rotate(-1.47)"/>
    <path class="st1" d="M1080.09,1251.15c7.37,4.71,17.65,12.35,15.01,22.91-2.21,8.75-8.93,12.49-20.15,11.2-13.21-1.51-16.8-15.78-9.92-25.48,2.32-3.25,5.68-6.15,10.12-8.75,1.53-.88,3.45-.83,4.94.11Z"/>
  </g>
</svg>