<?xml version="1.0" encoding="UTF-8"?>
<svg id="Layer_1" xmlns="http://www.w3.org/2000/svg" version="1.1" viewBox="0 0 2304 1728">
  <!-- Generator: Adobe Illustrator 29.5.1, SVG Export Plug-In . SVG Version: 2.1.0 Build 141)  -->
  <defs>
    <style>
      .st0 {
        fill: #582932;
      }

      .st1 {
        fill: #fff;
      }
    </style>
  </defs>
  <rect class="st0" width="2304" height="1728"/>
  <path class="st1" d="M808.13,777c.29.15.45.47.36.79-5.77,22.3-19,42.33-39.25,54.38-9.52,5.66-21.23,9.5-35.13,11.51-17.81,2.59-35.34,1.85-52.57-2.23-27.61-6.54-49.27-22.43-63.4-47.37-14.72-25.96-17.84-58.39-15.38-88.71,2.99-36.93,18.38-71.45,51.68-90.62,26.75-15.39,61.58-17.34,92.01-10.54,4.89,1.09,10.35,2.91,16.37,5.48,20.71,8.83,34.97,23.78,42.76,44.88.1.27-.01.58-.26.73-4.86,2.99-15.99,9.8-33.38,20.41-.97.6-2.33.59-4.08-.03-.35-.12-.64-.38-.8-.73-4.22-9.65-9.34-17.76-17.82-24.14-12.61-9.48-32.6-11.13-47.92-8.85-27.66,4.12-43.82,24.78-48.35,51.76-3.63,21.59-3.32,42.64.93,63.13.93,4.56,2.69,9.65,5.24,15.31,7.55,16.76,22.22,28.06,40.35,31.23,9.93,1.74,19.83,1.56,29.69-.54,22.43-4.78,35.16-20.4,40.47-42.08.23-.96,1.15-1.57,2.13-1.44,2.01.29,4.12,1.02,6.32,2.19,12.91,6.85,22.93,12,30.04,15.48Z"/>
  <path class="st1" d="M377.16,841.76c-.28,0-.52-.24-.52-.52v-155.73c0-.35-.23-.66-.55-.78-1.41-.51-2.55-.63-3.42-.37-.31.09-.57.33-.69.64l-53.93,156.12c-.12.37-.47.62-.87.62h-38.47c-.33,0-.62-.2-.73-.52l-54.07-156.53c-.1-.28-.37-.48-.68-.5-1.43-.03-2.53.16-3.28.59-.36.2-.57.57-.57.98v155.16c0,.46-.38.84-.85.84h-41.4c-.51,0-.91-.4-.91-.9v-236.31c0-.32.25-.56.55-.56h60.17c.43,0,.8.27.93.67l59.77,173.03c.23.65.8,1.11,1.47,1.19,1.34.17,2.17-.2,2.49-1.1,34.12-99.1,53.9-156.86,59.33-173.28.1-.29.38-.5.7-.5h59.05c.29,0,.53.24.53.53v236.5c0,.4-.33.73-.73.73h-43.31Z"/>
  <path class="st1" d="M820.51,841.12v-236.5c0-.35.29-.64.64-.64h45.75c.35,0,.64.29.64.64v197.22c0,.35.29.64.64.64h105.59c.35,0,.64.29.64.64v37.99c0,.35-.29.64-.64.64h-152.63c-.35,0-.64-.29-.64-.64Z"/>
  <path class="st1" d="M1161,841.12v-236.5c0-.35.29-.64.64-.64h45.75c.35,0,.64.29.64.64v197.22c0,.35.29.64.64.64h105.59c.35,0,.64.29.64.64v37.99c0,.35-.29.64-.64.64h-152.63c-.35,0-.64-.29-.64-.64Z"/>
  <path class="st1" d="M1129.47,737.5h-95.73c-.34,0-.61.27-.61.61v63.81c0,.34.27.61.61.61h112.32c.34,0,.61.27.61.61v38.01c0,.34-.27.61-.61.61h-159.38c-.34,0-.61-.27-.61-.61v-236.55c0-.34.27-.61.61-.61h156.75c.34,0,.61.27.61.61v38.05c0,.34-.27.61-.61.61h-109.69c-.34,0-.61.27-.61.61v54.56c0,.34.27.61.61.61h95.73c.34,0,.61.27.61.61v37.26c0,.34-.27.61-.61.61Z"/>
  <path class="st1" d="M1644.46,841.4l-17.68-54.03c-.07-.21-.26-.36-.48-.36h-90.43c-.22,0-.42.15-.48.36l-17.61,54.06c-.07.21-.26.36-.48.36h-187.53c-.28,0-.52-.24-.52-.52v-236.76c0-.28.24-.52.52-.52h45.99c.28,0,.52.24.52.52v197.48c0,.28.24.52.52.52h105.77c.23,0,.42-.14.5-.35l68.33-197.8c.08-.21.27-.35.49-.35h59.6c.22,0,.42.13.49.35l81.77,236.71c.11.34-.13.69-.5.69h-48.31c-.23,0-.42-.15-.48-.36ZM1612.95,747.51c.35,0,.59-.34.48-.66l-30.36-92.83c-.06-.17-.2-.3-.38-.34l-3.26-.63c-.25-.04-.5.1-.57.35l-30.42,93.45c-.1.33.13.66.48.66h64.03Z"/>
  <path class="st1" d="M1701.49,604.56c0-.32.26-.57.59-.57h52.66c.36,0,.71.19.9.5l94.66,151.93c.23.37.62.6,1.05.63,1,.07,2.02-.08,3.09-.44.36-.12.61-.46.61-.84v-151.27c0-.28.22-.51.51-.51h44.26c.27,0,.5.23.5.5v236.51c0,.42-.34.75-.75.75h-46.66c-.46,0-.89-.24-1.14-.63l-100.09-162c-.18-.29-.46-.51-.78-.61-1.23-.37-2.31-.31-3.24.18-.38.2-.63.61-.63,1.05v161.34c0,.38-.32.7-.7.7h-43.93c-.49,0-.89-.39-.89-.88v-236.33Z"/>
  <path class="st1" d="M2139.72,722.85c.01,40.36-11.2,80.88-48.35,102.57-20.82,12.16-45.73,16.35-70.3,16.33-54.89,0-83.3.01-85.22.05-.25,0-.46-.19-.48-.44-.03-.26-.04-39.76-.06-118.5,0-78.74.01-118.24.03-118.5.02-.25.24-.44.48-.44,1.93.03,30.34.04,85.22.03,24.57-.01,49.48,4.16,70.3,16.32,37.15,21.69,48.38,62.2,48.38,102.57ZM1982.34,722.9c0,49.44.02,75.71.06,78.82.01.28.24.52.53.52,21.74.02,33.42.02,35.06,0,21.86-.26,46.54-5.22,59.76-24.43,10.9-15.83,13.5-35.5,13.5-54.91s-2.61-39.09-13.51-54.92c-13.23-19.2-37.91-24.16-59.77-24.41-1.63-.02-13.32-.02-35.06.01-.28,0-.52.23-.53.52-.03,3.09-.05,29.37-.03,78.82Z"/>
  <path class="st0" d="M2091.24,722.89c0,19.41-2.6,39.08-13.5,54.91-13.22,19.22-37.9,24.18-59.76,24.43-1.63.02-13.32.02-35.06,0-.29,0-.52-.24-.53-.52-.03-3.11-.06-29.37-.06-78.82-.01-49.44,0-75.72.03-78.82.01-.29.25-.52.53-.52,21.74-.03,33.42-.03,35.06-.01,21.86.25,46.54,5.21,59.77,24.41,10.9,15.83,13.51,35.5,13.51,54.92Z"/>
  <path class="st0" d="M1612.95,747.51h-64.03c-.35,0-.59-.34-.48-.66l30.42-93.45c.08-.25.33-.39.57-.35l3.26.63c.18.03.33.17.38.34l30.36,92.83c.1.33-.13.66-.48.66Z"/>
  <path class="st1" d="M604.54,794.46c-2.09,6.14-4.62,12.3-8.19,17.85-11.57,17.99-28.29,28.55-50.19,31.69-21.52,3.09-46.72.18-64.97-11.22-11.3-7.05-20.26-16.25-26.9-27.6-10.57-18.08-13.5-38.77-12.59-60.15,1.33-30.83,13.86-58.79,40.69-74.45,21.71-12.68,50.22-14.05,74.4-8.42,21.23,4.94,36.1,17.25,44.61,36.95.23.52.06,1.12-.41,1.45-11.28,8.18-21.05,15.2-29.28,21.04-.99.71-2.13.96-3.42.74-.42-.07-.78-.33-.98-.7-6.94-12.62-13.67-21.32-28.64-23.58-8.08-1.23-15.65-.9-22.73.97-3.17.84-6.8,2.69-10.86,5.56-15.57,11-17.81,34.38-17.19,52.53.8,23.15,8.56,44.7,33.83,49.18,18.91,3.38,37.52-5.21,45.03-23.29.68-1.63,1.45-3.6,2.32-5.89.15-.37.44-.66.81-.8,1.31-.48,2.58-.39,3.8.28,8.44,4.6,18.58,10.2,30.45,16.82.36.21.53.64.39,1.03Z"/>
  <path class="st1" d="M1046.7,1095.03h-23.82c-.34,0-.62-.28-.61-.62.06-29.21.03-50.41-.07-63.63-.01-2.44-.65-5.22-1.91-8.36-3.48-8.62-14.13-9.2-22-6.98-11.21,3.16-15.13,14.86-15.33,26.04-.15,7.58-.18,25.22-.09,52.91,0,.34-.27.61-.61.61h-23.88c-.44,0-.8-.35-.8-.79v-138.54c0-.38.3-.69.69-.69h24.04c.3,0,.55.25.54.54-.03,14.14-.05,31.26-.01,51.37,0,.44.04.71.12.82.56.79,1.75.75,2.35-.07,8.75-12.2,22.25-16.12,36.65-13.83,19.87,3.16,25.47,19.39,25.54,37.17.08,22.65.1,43.71.06,63.18-.01.47-.38.86-.85.86Z"/>
  <path class="st1" d="M1316.15,955.87c.06,33.54.04,69.49-.02,107.89-.02,10.29,2.6,12.36,12.76,11.31.43-.04.81.26.86.69l2.1,18.07c.07.55-.27,1.08-.8,1.25-7.28,2.33-14.75,2.44-22.39.36-13.74-3.77-17.61-15.45-17.63-28.36-.01-10.95-.01-48.03,0-111.25,0-.44.36-.79.8-.79h23.47c.47,0,.86.38.86.84Z"/>
  <path class="st1" d="M1855.56,955.01h23.94c.25,0,.45.2.45.46v138.86c0,.36-.29.65-.66.65h-24.05c-.27,0-.48-.21-.48-.48v-11.65c0-1.15-1.5-1.58-2.1-.62-3.5,5.46-7.92,9.3-13.26,11.54-7.98,3.35-17.72,4.16-26.35,1.86-17.64-4.7-26.65-20.91-28.81-38.32-1.55-12.48-1.01-26.07,3.32-37.82,7.59-20.64,26.2-29.26,47.09-25.28,7.46,1.42,13.41,5.26,17.85,11.55.71,1,2.27.5,2.27-.73v-49.21c0-.45.36-.81.8-.81ZM1809.24,1045.05c.01,14.94,4.56,30.36,22.79,30.36,18.23-.01,22.76-15.43,22.76-30.38-.01-14.95-4.56-30.38-22.78-30.36-18.24.01-22.77,15.44-22.77,30.38Z"/>
  <path class="st1" d="M837.92,976.38c.37.36.42.94.11,1.36l-12.35,16.68c-.62.84-1.83.93-2.58.21-5.12-4.98-10.88-8.31-17.29-10-9.64-2.54-32.48-3.53-33.89,11.25-.94,9.86,6.29,14.73,15.11,16.59,25.09,5.3,56.28,8.44,56.28,43.61,0,25.26-16.47,37.83-39.51,40.37-21.93,2.41-48.55-3.53-61.46-23.37-.2-.3-.18-.71.04-.99l13.62-16.83c.82-1.02,2.38-.98,3.16.08,9.06,12.39,20.8,18.65,35.24,18.82,11.24.13,21.78-3.66,22.09-16.15.29-11.49-8.45-15.5-17.95-17.66-18.93-4.3-29.89-5.6-41.09-14.93-10.86-9.06-13.66-25.95-9.65-38.7,7.76-24.68,38.17-28.46,59.6-25.31,12,1.77,22.16,6.75,30.5,14.97Z"/>
  <path class="st1" d="M457.62,1094.97h-25.06c-.34,0-.61-.27-.61-.61v-131.32c0-.34.27-.61.61-.61h82.83c.34,0,.61.27.61.61v20.94c0,.34-.27.61-.61.61h-56.56c-.34,0-.61.27-.61.61v33.63c0,.34.27.61.61.61h51.28c.34,0,.61.27.61.61v20.64c0,.34-.27.61-.61.61h-51.27c-.34,0-.61.27-.61.61v52.47c0,.34-.27.61-.61.61Z"/>
  <path class="st1" d="M1386.08,1094.99c-.36,0-.65-.29-.65-.66v-131.52c0-.19.16-.34.35-.34,15.51-.02,34.24-.03,56.19-.02,20.89.01,38.57,9.5,37.89,32.93-.33,11.44-6.45,19.71-16.18,25.17-.64.36-.57,1.29.11,1.55,2.38.88,4.4,1.69,6.05,2.43,10.69,4.77,16.99,12.69,18.91,23.75,2.88,16.55-2.56,33.32-18,41.41-8.38,4.39-16.64,5.32-26.63,5.32-25.07.01-44.42,0-58.05-.01ZM1411.61,982.92l.16,31.86c.01.27.22.48.49.48l27.09-.15c8.56-.05,15.48-6.54,15.43-14.5l-.02-3.98c-.05-7.97-7.02-14.39-15.59-14.34l-27.09.15c-.26,0-.48.21-.47.48ZM1411.65,1035.34l.07,38.32c0,.27.23.5.5.5l31.98-.06c10.36-.02,18.74-7.83,18.72-17.46v-4.45c-.02-9.62-8.43-17.42-18.79-17.39l-31.98.06c-.27,0-.49.23-.49.5Z"/>
  <rect class="st1" x="1914.91" y="980.89" width="216.27" height="7.97" rx=".86" ry=".86" transform="translate(-5.13 10.61) rotate(-.3)"/>
  <rect class="st1" x="172.83" y="981.41" width="216.29" height="7.97" rx=".5" ry=".5" transform="translate(-5.16 1.48) rotate(-.3)"/>
  <path class="st0" d="M1411.61,982.92c-.01-.27.21-.48.47-.48l27.09-.15c8.57-.05,15.55,6.38,15.59,14.34l.02,3.98c.05,7.97-6.87,14.46-15.43,14.5l-27.09.15c-.27,0-.48-.21-.49-.48l-.16-31.86Z"/>
  <path class="st1" d="M572.14,993.3c31.7.01,49.14,21.41,49.13,51.88-.02,30.47-17.48,51.85-49.19,51.83-31.69-.01-49.14-21.41-49.12-51.88.01-30.47,17.47-51.85,49.17-51.83ZM548.91,1044.92c-.07,15.36,4.39,30.38,23.07,30.45,18.7.08,23.28-14.91,23.34-30.26.06-15.36-4.4-30.38-23.08-30.45s-23.28,14.91-23.33,30.26Z"/>
  <path class="st1" d="M944.8,1068.13c.29.17.43.51.33.83-4.31,13.67-14.84,24.01-29.1,26.8-33.19,6.46-59.34-11.67-61.36-45.87-1.51-25.61,9-49,35.46-55.07,11.87-2.72,24.54-2.12,35.87,2.61,8.16,3.41,14.12,10.07,17.71,18.02.15.33.04.71-.25.92l-16.89,12.16c-.71.51-1.7.26-2.08-.53-5.42-11.12-14.29-15.34-26.76-12.72-13.58,2.86-17.13,16.1-17.34,28.43-.3,18.55,6.55,34.32,28.38,31.24,8.63-1.22,14.18-8.21,16.9-16.19.25-.73,1.1-1.05,1.78-.66l17.36,10.02Z"/>
  <path class="st1" d="M1501.45,1045.12c.01-30.48,17.48-51.85,49.17-51.84,31.7.02,49.14,21.42,49.13,51.88-.01,30.48-17.48,51.86-49.17,51.84-31.7-.01-49.14-21.42-49.13-51.88ZM1527.4,1044.96c-.04,15.36,4.43,30.38,23.12,30.42,18.69.06,23.25-14.93,23.29-30.29.05-15.36-4.43-30.38-23.12-30.42-18.69-.06-23.24,14.93-23.29,30.28Z"/>
  <path class="st1" d="M1613.58,1011.39c-.16-.24-.13-.55.07-.76,7.2-7.68,15.88-12.78,26.04-15.3,11.33-2.81,22.31-2.81,32.92.01,14.56,3.87,20.41,15.15,20.85,29.27.12,4.06.17,18.86.12,44.39-.01,7.47,5.25,6.64,10.51,5.85.48-.07.92.27.98.75l1.92,16.51c.06.46-.21.91-.64,1.08-9.18,3.57-23.75,4.33-30.73-3.99-1.81-2.15-2.63-4.44-3.93-7.27-.38-.85-1.57-.91-2.04-.1-4.1,7.12-9.02,11.92-17.34,13.84-19.12,4.39-38.44-2.59-40.94-24.41-3.25-28.52,21.81-33.51,42.92-36.54,1.36-.19,4.12-1.1,8.28-2.72,9.98-3.88,8.19-16.61-2.69-18.2-13.9-2.03-23.77,3.44-33.74,12.62-.81.74-2.09.6-2.7-.31l-9.87-14.72ZM1669.56,1046.81c-.02-.9-1.02-1.44-1.79-.97-5.09,3.13-12.23,4.42-17.12,5.32-9.29,1.71-15.91,5.96-14.31,16.74,1.41,9.39,11.51,11.5,19.46,9.51,8.02-2,12.81-9.64,13.46-17.67.33-4.11.43-8.41.3-12.93Z"/>
  <path class="st1" d="M1064.21,1045.12c.01-30.48,17.48-51.85,49.18-51.84,31.69.01,49.14,21.42,49.12,51.88-.01,30.48-17.47,51.86-49.17,51.84-31.7-.01-49.14-21.41-49.13-51.88ZM1090.17,1044.91c-.07,15.36,4.38,30.38,23.05,30.47,18.69.09,23.28-14.88,23.34-30.24.08-15.35-4.37-30.36-23.05-30.45-18.67-.09-23.26,14.88-23.34,30.23Z"/>
  <path class="st1" d="M1175.2,1045.12c.01-30.48,17.48-51.86,49.18-51.84,31.7.01,49.14,21.41,49.13,51.88-.02,30.48-17.48,51.86-49.18,51.84-31.7-.01-49.14-21.41-49.13-51.88ZM1201.15,1044.91c-.07,15.37,4.38,30.39,23.07,30.48,18.69.08,23.28-14.9,23.34-30.26.08-15.36-4.38-30.38-23.06-30.47-18.7-.09-23.29,14.89-23.36,30.25Z"/>
  <path class="st1" d="M639.37,1094.45l-.02-98.97c0-.25.2-.45.45-.45h23.35c.41,0,.72.33.71.71-.01,5.86-.37,13.52.29,14.19.52.53,1.41.38,1.74-.28,3.57-7.36,8.15-12.62,16.54-14.54,6.67-1.52,13.19-1.01,19.52,1.54.3.12.48.45.43.79l-3.94,20.42c-.16.84-1.05,1.35-1.86,1.06-7.09-2.51-17.69-2.45-23.65,2.85-7.5,6.68-8.36,17.29-8.39,26.8-.02,9.52-.02,24.71,0,45.57,0,.47-.38.86-.86.86h-23.78c-.3,0-.54-.24-.54-.54Z"/>
  <path class="st1" d="M1718.12,1094.48v-99.01c0-.25.2-.45.45-.45h23.37c.39,0,.72.31.71.71-.02,5.86-.38,13.52.28,14.19.52.53,1.42.39,1.74-.28,3.58-7.36,8.16-12.62,16.55-14.53,6.68-1.52,13.2-1.01,19.53,1.54.3.13.48.46.43.79l-3.94,20.43c-.17.84-1.05,1.35-1.86,1.06-7.1-2.51-17.7-2.45-23.66,2.85-7.51,6.68-8.37,17.3-8.4,26.81-.02,9.52-.02,24.72-.01,45.6,0,.47-.38.85-.86.85h-23.79c-.3,0-.54-.24-.54-.54Z"/>
  <path class="st0" d="M572.24,1014.66c18.69.08,23.14,15.1,23.08,30.45-.07,15.36-4.65,30.34-23.34,30.26-18.69-.08-23.14-15.1-23.07-30.45.06-15.36,4.65-30.34,23.33-30.26Z"/>
  <path class="st0" d="M1201.15,1044.91c.07-15.36,4.66-30.34,23.36-30.25,18.69.09,23.14,15.11,23.06,30.47-.07,15.37-4.66,30.34-23.34,30.26-18.7-.09-23.14-15.11-23.07-30.48Z"/>
  <path class="st0" d="M1527.4,1044.96c.05-15.36,4.6-30.34,23.29-30.28,18.69.04,23.16,15.06,23.12,30.42-.03,15.36-4.6,30.34-23.29,30.29-18.69-.05-23.16-15.06-23.12-30.42Z"/>
  <path class="st0" d="M1832.01,1014.67c18.23-.01,22.77,15.41,22.78,30.36,0,14.94-4.53,30.36-22.76,30.38-18.24,0-22.78-15.42-22.79-30.36,0-14.94,4.53-30.36,22.77-30.38Z"/>
  <path class="st0" d="M1090.17,1044.91c.08-15.35,4.67-30.32,23.34-30.23,18.69.09,23.13,15.11,23.05,30.45-.07,15.36-4.66,30.33-23.34,30.24-18.68-.09-23.12-15.11-23.05-30.47Z"/>
  <rect class="st1" x="1914.92" y="1019.29" width="216.29" height="8.01" rx=".71" ry=".71" transform="translate(-5.33 10.61) rotate(-.3)"/>
  <rect class="st1" x="172.84" y="1019.88" width="216.25" height="8.01" rx=".63" ry=".63" transform="translate(-5.36 1.49) rotate(-.3)"/>
  <path class="st0" d="M1411.65,1035.34c0-.27.22-.5.49-.5l31.98-.06c10.36-.02,18.76,7.77,18.79,17.39v4.45c.02,9.63-8.36,17.44-18.72,17.46l-31.98.06c-.27,0-.5-.23-.5-.5l-.07-38.32Z"/>
  <path class="st0" d="M1669.56,1046.81c.12,4.51.02,8.82-.3,12.93-.64,8.03-5.43,15.67-13.46,17.67-7.95,1.99-18.06-.11-19.46-9.51-1.6-10.78,5.02-15.03,14.31-16.74,4.89-.9,12.04-2.19,17.12-5.32.77-.47,1.77.07,1.79.97Z"/>
  <rect class="st1" x="1914.92" y="1057.62" width="216.23" height="8.01" rx=".69" ry=".69" transform="translate(-5.53 10.61) rotate(-.3)"/>
  <rect class="st1" x="172.82" y="1058.23" width="216.27" height="8.03" rx=".72" ry=".72" transform="translate(-5.56 1.49) rotate(-.3)"/>
  <path class="st1" d="M1582.2,1573.31c0,.25-.19.44-.44.44h-859.61c-.25,0-.44-.19-.44-.44v-97.85c0-.25.19-.44.44-.44h859.61c.25,0,.44.19.44.44v97.85ZM1578.62,1479.16c0-.21-.17-.38-.38-.38h-852.46c-.21,0-.38.17-.38.38v90.67c0,.21.17.38.38.38h852.46c.21,0,.38-.17.38-.38v-90.67Z"/>
  <path class="st0" d="M1578.62,1569.84c0,.21-.17.38-.38.38h-852.46c-.21,0-.38-.17-.38-.38v-90.67c0-.21.17-.38.38-.38h852.46c.21,0,.38.17.38.38v90.67ZM829.83,1535.47v1.47c0,.6.47,1.07,1.07,1.07h.78c.55.01,1-.44,1.01-.99l.08-28.74c.01-.66-.54-1.21-1.2-1.21h-.37c-.77,0-1.38.62-1.38,1.38l-.03,10.82c0,.26-.32.39-.5.21-4.5-3.98-8.99-4.61-13.46-1.86-4.51,2.78-6.2,8.83-4.47,13.55,1.51,4.12,4.56,6.4,9.13,6.83,3.8.35,5.8-.93,8.49-2.96.35-.26.84-.01.84.43ZM921.4,1535.46c0-.44.5-.7.84-.43,2.68,2.05,4.68,3.33,8.48,3,4.6-.39,7.66-2.65,9.2-6.78,1.75-4.7.11-10.77-4.4-13.59-4.46-2.78-8.96-2.18-13.48,1.79-.19.17-.5.03-.5-.22l.03-10.85c0-.77-.62-1.38-1.38-1.38h-.37c-.67-.01-1.22.54-1.22,1.2l-.09,28.79c0,.55.45,1,1,1h.78c.6.01,1.08-.47,1.08-1.06v-1.47ZM1110.84,1508.02c0-.52-.43-.94-.94-.94h-1.1c-.52,0-.95.43-.95.94v29.09c0,.52.43.95.95.95h1.1c.52,0,.94-.43.94-.95v-29.09ZM1121.85,1508.09c0-.5-.39-.89-.89-.89h-1.19c-.5,0-.89.39-.89.89v29.12c0,.49.39.89.89.89h1.19c.5,0,.89-.39.89-.89v-29.12ZM1199.35,1535.47v1.47c0,.58.48,1.07,1.08,1.07h.78c.55,0,1-.45,1-1v-28.77c0-.67-.54-1.22-1.21-1.22h-.37c-.76,0-1.38.62-1.38,1.38v10.83c0,.26-.3.39-.49.23-4.51-3.98-9-4.59-13.47-1.82-4.51,2.8-6.18,8.85-4.43,13.57,1.52,4.13,4.58,6.39,9.17,6.81,3.8.34,5.8-.94,8.49-2.98.35-.26.84-.01.84.43ZM1339.53,1518.69v-10.44c0-.65-.53-1.18-1.18-1.18h-.51c-.73,0-1.32.59-1.32,1.31v28.75c0,.44.36.8.8.8h1.43c.45,0,.82-.37.83-.82.02-1.62.03-3.99.03-7.13.01-6.15.69-11.4,7.93-11.05,3.34.17,5.72,2.13,5.92,5.47.17,2.86.19,7.02.06,12.49-.02.6.46,1.08,1.06,1.08h1.19c.53,0,.94-.42.96-.93.02-4.15.57-14.21-1.56-17.1-2.82-3.84-6.55-4.92-11.15-3.25-1.62.59-2.52,1.55-3.94,2.34-.25.13-.55-.05-.55-.33ZM1552.87,1535.47v1.47c0,.6.48,1.07,1.08,1.07h.78c.55,0,1-.45,1-1v-28.79c0-.67-.54-1.21-1.21-1.21h-.37c-.76,0-1.38.62-1.38,1.38v10.85c0,.26-.3.39-.49.22-4.52-3.99-9.01-4.6-13.48-1.83-4.51,2.81-6.19,8.87-4.44,13.58,1.53,4.13,4.59,6.4,9.18,6.82,3.8.34,5.81-.94,8.5-2.98.34-.26.84-.01.84.43ZM805.44,1509.48c0-1.17-.96-2.13-2.13-2.13s-2.13.96-2.13,2.13.96,2.13,2.13,2.13,2.13-.96,2.13-2.13ZM856.1,1518.78h4.56c.6,0,1.11-.39,1.26-.97l.09-.34c.17-.65-.31-1.28-.99-1.28h-5.01c-.37,0-.68-.27-.73-.63-.72-4.84,1.79-7.15,6.4-5.3.57.23,1.22-.16,1.27-.76l.02-.19c.07-.74-.39-1.44-1.11-1.65-3.82-1.17-8.97,0-9.45,4.63-.08.82-.13,1.88-.17,3.16-.01.44-.37.79-.81.79h-2.14c-.59,0-1.06.47-1.06,1.06v.48c0,.54.44.98.98.98h2.4c.38,0,.69.3.69.69v17.67c0,.51.41.91.9.91h1.14c.54,0,.98-.44.98-.98v-17.47c0-.44.35-.8.79-.8ZM1074.63,1508.09c0-.46-.37-.83-.83-.83h-1.33c-.46,0-.83.37-.83.83v29.14c0,.46.37.83.83.83h1.33c.46,0,.83-.37.83-.83v-29.14ZM1225.63,1518.8h4.55c.6.01,1.11-.39,1.26-.96l.09-.34c.17-.65-.31-1.28-.98-1.28h-5.01c-.37-.01-.67-.27-.73-.64-.71-4.83,1.8-7.14,6.4-5.28.57.22,1.21-.16,1.27-.76l.02-.19c.07-.74-.39-1.44-1.11-1.65-3.81-1.17-8.95-.01-9.44,4.61-.08.83-.15,1.88-.17,3.16-.02.44-.37.79-.81.79h-2.14c-.59,0-1.06.47-1.06,1.05v.48c0,.54.44.98.98.98h2.38c.38.01.69.32.69.7l-.02,17.65c0,.5.4.91.9.91h1.14c.54,0,.98-.44.98-.98l.02-17.45c0-.44.35-.8.79-.8ZM1419.58,1508.23c0-.59-.47-1.06-1.06-1.06h-.9c-.59,0-1.06.47-1.06,1.06v28.78c0,.59.47,1.06,1.06,1.06h.9c.59,0,1.06-.47,1.06-1.06v-28.78ZM752.89,1528.83c5.23-.01,7.88-.02,7.91-.02,6.46.01,11.15-3.95,10.73-10.54-.72-11.31-14-9.11-21.64-9.34-.53-.02-.97.4-.97.94v27.08c0,.63.52,1.15,1.15,1.15h.75c.64,0,1.17-.52,1.17-1.16v-7.2c0-.51.4-.91.9-.91ZM995,1534.42c.5,0,1.06-.55,1.7-1.64,5.02-8.63,8.2-14.19,9.55-16.65.21-.38.8-.24.8.2v20.97c0,.38.31.69.7.69h1.5c.44,0,.79-.35.79-.79v-27.05c0-1.53-2.01-2.08-2.8-.78-3.78,6.29-7.66,12.97-11.63,20.06-.11.19-.3.29-.61.29s-.5-.09-.6-.28c-3.99-7.09-7.89-13.77-11.68-20.04-.8-1.32-2.81-.75-2.8.78l.06,27.05c.01.44.36.79.8.79h1.5c.38,0,.7-.32.69-.69l-.04-20.97c0-.45.59-.6.8-.21,1.36,2.46,4.56,8.01,9.58,16.63.64,1.1,1.22,1.64,1.71,1.64ZM1039.97,1523.53c0,12.97,15.13,18.97,24.6,11.44.57-.46.72-1.27.33-1.89l-.02-.05c-.42-.65-1.28-.81-1.9-.35-8.04,5.98-19.89,1.52-19.89-9.16s11.84-15.15,19.89-9.17c.61.46,1.49.29,1.9-.36l.02-.05c.38-.62.25-1.43-.33-1.88-9.48-7.53-24.62-1.53-24.6,11.45ZM1306.26,1511.84c.08-.4-.12-.82-.49-1.01-6.37-3.25-19.24-3.35-18.78,6.77.26,5.66,8.41,6.95,14.13,8.9,4.97,1.69,4.4,7.28-.15,8.47-4.7,1.23-9.11.48-13.22-2.23-.43-.28-1-.03-1.1.46l-.06.34c-.19.93.27,1.89,1.12,2.33,5.62,2.91,15.67,4.11,19.04-2.1,2.04-3.77.62-7.91-2.94-9.65-1.19-.57-4.53-1.61-10.02-3.09-5.46-1.46-4.77-7.17-.18-8.87,2.94-1.08,6.78-.67,11.54,1.21.39.16.82-.09.9-.49l.2-1.04ZM1458.22,1522.69c1.98-1.79,3.38-3.06,3.33-5.6-.1-6.85-5.6-8.1-11.68-8.09-5.88.02-9.3.03-10.24.02-.39,0-.71.32-.71.71v27.53c0,.39.31.71.71.72,7.77.11,13.14.01,16.12-.3,4.52-.47,7.57-3.23,7.36-8.16-.12-2.8-1.71-4.81-4.77-6.06-.3-.12-.37-.54-.12-.77ZM790.84,1535.68c.06.93.09,1.42.1,1.47.2.7.88,1.15,1.59,1.06.72-.09,1.26-.7,1.28-1.42.13-5.28.1-9.59-.1-12.93-.55-9.11-10.2-9.01-16.47-5.73-.66.35-1,1.12-.79,1.86v.07c.2.66.97.98,1.56.63,2.1-1.2,4.63-1.8,7.59-1.79,2.08.01,3.96,1.26,4.77,3.18l.27.63c.66,1.56-.55,3.28-2.25,3.18-5.25-.32-8.67.12-10.27,1.32-2.95,2.22-3.79,7.84.11,9.69,4.69,2.22,8.74,1.75,12.16-1.39.16-.15.43-.05.44.17ZM804.85,1516.93c0-.51-.41-.93-.92-.92h-1.15c-.51,0-.92.4-.92.92l-.04,20.23c0,.51.41.93.92.92h1.15c.51,0,.92-.4.92-.92l.04-20.23ZM885.32,1527.09c0-6.13-4.96-11.09-11.09-11.09s-11.09,4.96-11.09,11.09,4.96,11.09,11.09,11.09,11.09-4.96,11.09-11.09ZM894.15,1518.75v-1.54c0-.66-.54-1.19-1.19-1.19h-.46c-.68,0-1.22.54-1.2,1.19l.03,19.85c0,.54.44.97.98.97h1.17c.54,0,.97-.45.96-.99-.07-3.21-.07-6.6-.02-10.17.07-5.69,2.68-6.72,7.21-8.05,1.51-.45,1.25-2.66-.32-2.76-2.77-.17-4.27,1.56-6.32,3.11-.34.26-.83.02-.83-.4ZM952.99,1533.95l-7.47-16.72c-.15-.32-.41-.56-.72-.71l-1.18-.52c-.74-.33-1.51.44-1.17,1.18l8.78,19.62c.21.48.26,1.01.15,1.52-.47,2.06-1.48,3.67-3.05,4.82-.45.34-1,.51-1.58.49-1.18-.03-2.49-.43-3.93-1.18-.48-.25-1.08-.03-1.3.46l-.13.29c-.33.74.01,1.61.74,1.95,4.76,2.19,8.33,1.11,10.68-3.24,1.08-2.01,4.77-10.2,11.08-24.57.17-.39-.01-.84-.39-1.02l-.4-.17c-.73-.33-1.59,0-1.91.73l-7.53,17.07c-.12.28-.53.28-.65,0ZM1016.71,1527.04c-.02,3.6,1.23,6.41,3.74,8.44,4.54,3.66,9.4,3.7,14.59.13.67-.46.93-1.33.63-2.08l-.06-.16c-.26-.64-1.05-.88-1.61-.47-1.47,1.06-2.25,1.8-4.03,2.18-5.67,1.25-10.27-2.13-10.24-8.02.03-5.91,4.67-9.23,10.33-7.91,1.78.4,2.54,1.15,4,2.23.55.42,1.35.19,1.61-.45l.06-.16c.31-.75.07-1.62-.61-2.09-5.14-3.62-10-3.63-14.59-.02-2.53,1.99-3.8,4.78-3.83,8.38ZM1085.23,1527.95h15.88c.4,0,.72-.33.71-.73-.48-13.02-17.1-15.67-20.72-3.13-.79,2.72-.48,5.49.9,8.3,3.03,6.18,12.97,7.86,17.79,2.88.36-.38.4-.97.1-1.39l-.21-.3c-.37-.52-1.11-.59-1.57-.13-2.08,2.04-4.97,2.56-8.69,1.59-1.78-.47-3.35-1.55-4.43-3.05l-1.06-1.47c-.76-1.07-.01-2.55,1.31-2.55ZM1143.57,1535.5c.06.93.1,1.42.11,1.47.2.7.88,1.14,1.6,1.05.72-.1,1.26-.71,1.27-1.43.1-5.29.03-9.61-.19-12.94-.63-9.12-10.29-8.95-16.54-5.61-.66.35-.99,1.12-.78,1.86v.07c.2.66.97.97,1.58.63,2.09-1.23,4.62-1.83,7.58-1.86,2.09,0,3.98,1.24,4.8,3.16l.27.62c.67,1.56-.53,3.3-2.23,3.21-5.25-.27-8.69.19-10.27,1.39-2.94,2.24-3.74,7.89.18,9.7,4.71,2.19,8.77,1.7,12.17-1.49.16-.15.43-.06.44.17ZM1157.09,1518.72v-1.82c0-.45-.36-.81-.8-.81h-.93c-.59,0-1.06.48-1.06,1.07v20.03c0,.43.34.77.76.77h1.42c.5,0,.89-.39.89-.89-.03-7.64-1.89-18.27,7.53-18.18,3.31.03,5.83,1.74,6.27,5,.19,1.48.22,5.88.1,13.18-.01.47.37.87.86.87h1.51c.44,0,.79-.35.8-.78.09-7.08-.03-11.62-.36-13.65-1.1-6.86-6.93-8.92-13.03-6.62-.87.33-2.46,1.79-3.16,2.26-.34.23-.79-.02-.79-.43ZM1254.8,1527.09c0-6.12-4.96-11.08-11.08-11.08s-11.08,4.96-11.08,11.08,4.96,11.08,11.08,11.08,11.08-4.96,11.08-11.08ZM1263.62,1518.73v-1.55c0-.65-.54-1.19-1.2-1.19h-.46c-.66,0-1.2.54-1.2,1.2v19.85c.01.54.45.97.98.97h1.18c.53,0,.97-.44.96-.98-.06-3.22-.06-6.6-.01-10.18.08-5.69,2.69-6.72,7.23-8.05,1.51-.44,1.25-2.64-.32-2.75-2.77-.18-4.27,1.55-6.32,3.09-.35.26-.83.02-.83-.4ZM1311.42,1527.11c0,3.6,1.27,6.41,3.79,8.41,4.58,3.63,9.45,3.66,14.61.04.66-.46.92-1.33.62-2.08l-.07-.16c-.26-.64-1.05-.88-1.61-.46-1.46,1.07-2.24,1.81-4.02,2.22-5.67,1.28-10.29-2.07-10.29-7.98-.01-5.91,4.61-9.26,10.28-7.99,1.78.4,2.55,1.15,4.03,2.22.55.4,1.35.18,1.61-.46l.06-.16c.3-.77.05-1.63-.62-2.09-5.18-3.6-10.04-3.58-14.61.07-2.52,2-3.78,4.82-3.78,8.42ZM1384.57,1527.08c0-6.13-4.97-11.1-11.1-11.1s-11.1,4.97-11.1,11.1,4.97,11.1,11.1,11.1,11.1-4.97,11.1-11.1ZM1410.57,1527.09c0-6.13-4.97-11.1-11.1-11.1s-11.1,4.97-11.1,11.1,4.97,11.1,11.1,11.1,11.1-4.97,11.1-11.1ZM1489.57,1527.09c0-6.13-4.97-11.1-11.1-11.1s-11.1,4.97-11.1,11.1,4.97,11.1,11.1,11.1,11.1-4.97,11.1-11.1ZM1508.76,1535.67c.05.93.08,1.43.1,1.48.19.7.87,1.15,1.59,1.06.72-.09,1.26-.69,1.28-1.41.17-5.29.16-9.61-.03-12.96-.49-9.13-10.17-9.08-16.47-5.83-.67.35-1,1.12-.8,1.86v.07c.19.67.96.99,1.56.64,2.12-1.19,4.65-1.77,7.62-1.74,2.09.01,3.97,1.28,4.77,3.21l.26.64c.65,1.58-.56,3.29-2.27,3.17-5.25-.34-8.68.08-10.29,1.27-2.97,2.21-3.85,7.83.06,9.7,4.69,2.25,8.75,1.81,12.19-1.33.17-.15.43-.05.44.17ZM1522.65,1518.78v-1.54c0-.66-.53-1.19-1.19-1.19h-.46c-.66,0-1.2.53-1.2,1.19v19.81c0,.53.44.97.97.97h1.17c.54,0,.97-.44.96-.98-.06-3.21-.06-6.59,0-10.16.08-5.68,2.69-6.7,7.22-8.03,1.51-.44,1.25-2.64-.32-2.74-2.76-.18-4.26,1.55-6.31,3.08-.34.26-.83.02-.83-.4Z"/>
  <path class="st1" d="M829.83,1535.47c0-.44-.5-.69-.84-.43-2.69,2.03-4.69,3.31-8.49,2.96-4.58-.43-7.63-2.71-9.13-6.83-1.73-4.71-.05-10.77,4.47-13.55,4.47-2.76,8.96-2.13,13.46,1.86.18.18.5.04.5-.21l.03-10.82c0-.76.62-1.38,1.38-1.38h.37c.66,0,1.22.55,1.2,1.21l-.08,28.74c-.01.55-.46,1-1.01,1h-.78c-.6-.01-1.07-.48-1.07-1.08v-1.47ZM829.65,1526.31c.07-3.99-3.11-7.28-7.1-7.35l-1.37-.02c-3.99-.07-7.28,3.1-7.35,7.1l-.03,1.91c-.07,3.99,3.11,7.28,7.1,7.35l1.37.02c3.99.07,7.28-3.1,7.35-7.1l.03-1.91Z"/>
  <path class="st1" d="M921.4,1535.46v1.47c-.01.59-.5,1.07-1.09,1.07h-.78c-.55-.01-1-.46-1-1.01l.09-28.79c0-.66.54-1.21,1.22-1.2h.37c.76,0,1.38.62,1.38,1.38l-.03,10.85c0,.26.3.39.5.22,4.52-3.97,9.02-4.57,13.48-1.79,4.51,2.82,6.15,8.89,4.4,13.59-1.54,4.13-4.6,6.39-9.2,6.78-3.8.33-5.8-.96-8.48-3-.35-.27-.84-.01-.84.43ZM929.83,1518.73c-4.48-.12-8.22,3.54-8.34,8.18-.13,4.63,3.42,8.48,7.9,8.6,4.48.12,8.22-3.54,8.34-8.18.13-4.63-3.42-8.48-7.9-8.6Z"/>
  <rect class="st1" x="1107.84" y="1507.07" width="2.99" height="30.98" rx=".94" ry=".94"/>
  <rect class="st1" x="1118.88" y="1507.2" width="2.97" height="30.89" rx=".89" ry=".89"/>
  <path class="st1" d="M1198.51,1535.04c-2.69,2.04-4.69,3.32-8.49,2.98-4.59-.42-7.65-2.68-9.17-6.81-1.74-4.71-.08-10.77,4.43-13.57,4.47-2.77,8.96-2.16,13.47,1.82.19.17.49.03.49-.23v-10.83c0-.77.62-1.38,1.38-1.38h.37c.67,0,1.21.54,1.21,1.22v28.77c0,.55-.45,1-1,1h-.78c-.6,0-1.08-.48-1.08-1.07v-1.47c0-.44-.49-.69-.84-.43ZM1191.16,1518.75c-4.49.02-8.11,3.8-8.09,8.44.02,4.64,3.69,8.37,8.18,8.35,4.49-.02,8.11-3.8,8.09-8.44-.02-4.64-3.69-8.37-8.18-8.35Z"/>
  <path class="st1" d="M1340.08,1519.02c1.42-.79,2.32-1.75,3.94-2.34,4.6-1.66,8.32-.59,11.15,3.25,2.14,2.89,1.59,12.95,1.56,17.1-.01.52-.43.93-.96.93h-1.19c-.6,0-1.08-.48-1.06-1.08.13-5.47.11-9.63-.06-12.49-.2-3.34-2.58-5.3-5.92-5.47-7.24-.35-7.92,4.89-7.93,11.05,0,3.14-.01,5.51-.03,7.13-.01.45-.38.82-.83.82h-1.43c-.44,0-.8-.36-.8-.8v-28.75c0-.72.59-1.31,1.32-1.31h.51c.65,0,1.18.53,1.18,1.18v10.44c0,.28.3.46.55.33Z"/>
  <path class="st1" d="M1552.87,1535.47c0-.44-.51-.69-.84-.43-2.7,2.04-4.7,3.32-8.5,2.98-4.59-.42-7.65-2.69-9.18-6.82-1.74-4.71-.07-10.77,4.44-13.58,4.47-2.77,8.95-2.16,13.48,1.83.19.17.49.03.49-.22v-10.85c0-.77.62-1.38,1.38-1.38h.37c.67,0,1.21.54,1.21,1.21v28.79c0,.55-.45,1-1,1h-.78c-.6,0-1.08-.47-1.08-1.07v-1.47ZM1552.62,1526.4c.12-3.97-3.01-7.29-6.98-7.41l-1.37-.04c-3.98-.12-7.3,3.01-7.41,6.98l-.06,1.93c-.12,3.97,3.01,7.29,6.98,7.41l1.37.04c3.98.12,7.3-3.01,7.41-6.98l.06-1.93Z"/>
  <circle class="st1" cx="803.32" cy="1509.48" r="2.13"/>
  <path class="st1" d="M855.32,1519.58v17.47c0,.54-.44.98-.98.98h-1.14c-.5,0-.9-.4-.9-.91v-17.67c0-.38-.3-.69-.69-.69h-2.4c-.54,0-.98-.44-.98-.98v-.48c0-.59.47-1.06,1.06-1.06h2.14c.44,0,.8-.35.81-.79.03-1.28.09-2.34.17-3.16.48-4.63,5.62-5.81,9.45-4.63.72.21,1.18.91,1.11,1.65l-.02.19c-.06.61-.7.99-1.27.76-4.61-1.86-7.12.46-6.4,5.3.06.36.36.63.73.63h5.01c.68,0,1.16.63.99,1.28l-.09.34c-.15.57-.66.97-1.26.97h-4.56c-.44,0-.79.36-.79.8Z"/>
  <rect class="st1" x="1071.64" y="1507.25" width="2.99" height="30.8" rx=".83" ry=".83"/>
  <path class="st1" d="M1225.63,1518.8c-.44,0-.79.36-.79.8l-.02,17.45c0,.54-.44.98-.98.98h-1.14c-.49,0-.9-.42-.9-.91l.02-17.65c0-.38-.3-.69-.69-.69h-2.38c-.54-.01-.98-.45-.98-.99v-.48c0-.57.47-1.05,1.06-1.05h2.14c.44,0,.79-.35.81-.79.02-1.28.09-2.33.17-3.16.48-4.62,5.62-5.78,9.44-4.61.72.21,1.18.91,1.11,1.65l-.02.19c-.06.61-.7.99-1.27.76-4.6-1.87-7.11.45-6.4,5.28.06.37.36.63.73.63h5.01c.66.01,1.15.64.98,1.29l-.09.34c-.15.56-.66.97-1.26.97h-4.55Z"/>
  <rect class="st1" x="1416.57" y="1507.17" width="3.02" height="30.89" rx="1.06" ry="1.06"/>
  <path class="st1" d="M752,1529.74v7.2c0,.64-.53,1.16-1.17,1.16h-.75c-.63,0-1.15-.52-1.15-1.15v-27.08c0-.54.44-.97.97-.94,7.65.22,20.92-1.97,21.64,9.34.42,6.59-4.27,10.55-10.73,10.54-.03,0-2.68.01-7.91.02-.5,0-.9.4-.9.91ZM751.96,1512.64l.07,12.78c0,.42.35.76.77.75l7.92-.03c4.24-.02,7.66-3,7.64-6.66v-1.08c-.02-3.66-3.48-6.59-7.71-6.57l-7.92.03c-.43.01-.77.35-.77.78Z"/>
  <path class="st1" d="M994.98,1529.73c.3,0,.5-.1.61-.29,3.97-7.09,7.85-13.77,11.63-20.06.79-1.31,2.8-.75,2.8.78v27.05c0,.44-.35.79-.79.79h-1.5c-.38,0-.7-.3-.7-.69v-20.97c0-.44-.59-.59-.8-.2-1.35,2.46-4.53,8.02-9.55,16.65-.64,1.09-1.2,1.64-1.7,1.64s-1.07-.54-1.71-1.64c-5.03-8.62-8.22-14.16-9.58-16.63-.21-.38-.8-.24-.8.21l.04,20.97c.01.37-.3.69-.69.69h-1.5c-.44,0-.79-.35-.8-.79l-.06-27.05c-.01-1.53,2-2.09,2.8-.78,3.79,6.27,7.68,12.95,11.68,20.04.1.19.3.28.6.28Z"/>
  <path class="st1" d="M1043.09,1523.53c0,10.68,11.85,15.14,19.89,9.16.62-.46,1.49-.3,1.9.35l.02.05c.39.62.25,1.43-.33,1.89-9.47,7.53-24.6,1.53-24.6-11.44-.01-12.98,15.12-18.98,24.6-11.45.57.45.71,1.26.33,1.88l-.02.05c-.42.65-1.29.82-1.9.36-8.05-5.98-19.89-1.52-19.89,9.17Z"/>
  <path class="st1" d="M1306.26,1511.84l-.2,1.04c-.08.4-.51.65-.9.49-4.76-1.89-8.61-2.29-11.54-1.21-4.59,1.7-5.28,7.4.18,8.87,5.49,1.48,8.83,2.52,10.02,3.09,3.56,1.74,4.97,5.88,2.94,9.65-3.36,6.21-13.41,5.02-19.04,2.1-.86-.44-1.32-1.39-1.12-2.33l.06-.34c.1-.49.68-.74,1.1-.46,4.11,2.71,8.52,3.45,13.22,2.23,4.54-1.19,5.12-6.78.15-8.47-5.72-1.95-13.87-3.24-14.13-8.9-.46-10.12,12.41-10.02,18.78-6.77.37.19.57.61.49,1.01Z"/>
  <path class="st1" d="M1458.22,1522.69c-.25.22-.18.64.12.77,3.06,1.25,4.65,3.26,4.77,6.06.21,4.93-2.84,7.68-7.36,8.16-2.98.32-8.35.42-16.12.3-.39-.01-.71-.33-.71-.72v-27.53c0-.39.31-.71.71-.71.93.01,4.35,0,10.24-.02,6.08-.01,11.58,1.24,11.68,8.09.04,2.54-1.35,3.81-3.33,5.6ZM1442.03,1512.15l.02,9.36c.01.28.24.51.53.51l9.6-.03c3.45-.01,6.26-2.25,6.24-5.01v-.43c-.01-2.75-2.82-4.97-6.29-4.96l-9.6.03c-.28,0-.52.24-.51.53ZM1442.01,1525.12l.04,9.88c0,.26.21.46.47.46l11.44-.06c3.35-.02,6.05-2.38,6.04-5.28v-.32c-.01-2.9-2.75-5.23-6.11-5.21l-11.44.06c-.25,0-.45.21-.45.46Z"/>
  <path class="st0" d="M751.96,1512.64c0-.43.34-.76.77-.78l7.92-.03c4.23-.02,7.68,2.91,7.71,6.57v1.08c.02,3.66-3.4,6.64-7.64,6.66l-7.92.03c-.42.01-.77-.34-.77-.75l-.07-12.78Z"/>
  <path class="st0" d="M1442.03,1512.15c-.01-.29.22-.53.51-.53l9.6-.03c3.46-.01,6.28,2.22,6.29,4.96v.43c.01,2.76-2.79,4.99-6.24,5.01l-9.6.03c-.29,0-.52-.23-.53-.51l-.02-9.36Z"/>
  <path class="st1" d="M790.84,1535.68c-.01-.21-.28-.32-.44-.17-3.42,3.15-7.47,3.61-12.16,1.39-3.9-1.85-3.06-7.47-.11-9.69,1.6-1.19,5.02-1.63,10.27-1.32,1.7.1,2.91-1.62,2.25-3.18l-.27-.63c-.81-1.92-2.69-3.17-4.77-3.18-2.96-.01-5.49.59-7.59,1.79-.6.35-1.36.03-1.55-.63v-.07c-.23-.73.11-1.51.78-1.86,6.27-3.28,15.92-3.39,16.47,5.73.2,3.34.24,7.65.1,12.93-.02.72-.56,1.33-1.28,1.42-.71.09-1.38-.36-1.59-1.06-.01-.06-.04-.54-.1-1.47ZM788.95,1527.73l-9.21.99c-.85.09-1.46.84-1.37,1.69l.09.8c.3,2.86,2.95,4.92,5.89,4.6l1.59-.17c2.96-.32,5.11-2.89,4.79-5.75l-.08-.79c-.09-.84-.86-1.46-1.7-1.37Z"/>
  <rect class="st1" x="792.3" y="1525.55" width="22.07" height="2.99" rx=".92" ry=".92" transform="translate(-725.1 2327.71) rotate(-89.9)"/>
  <path class="st1" d="M885.32,1527.09c0,6.13-4.96,11.09-11.09,11.09s-11.09-4.96-11.09-11.09,4.96-11.09,11.09-11.09,11.09,4.96,11.09,11.09ZM882.06,1526.06c-.02-3.96-3.25-7.16-7.21-7.14h-1.37c-3.96.03-7.16,3.25-7.14,7.22v2.07c.03,3.96,3.26,7.16,7.23,7.14h1.37c3.96-.03,7.16-3.25,7.14-7.22v-2.07Z"/>
  <path class="st1" d="M894.15,1518.75c0,.43.5.66.83.4,2.05-1.54,3.56-3.27,6.32-3.11,1.56.1,1.82,2.31.32,2.76-4.53,1.34-7.14,2.36-7.21,8.05-.05,3.57-.05,6.96.02,10.17.01.54-.42.99-.96.99h-1.17c-.54,0-.98-.43-.98-.97l-.03-19.85c-.01-.65.53-1.19,1.2-1.19h.46c.65,0,1.19.53,1.19,1.19v1.54Z"/>
  <path class="st1" d="M952.99,1533.95c.12.28.53.28.65,0l7.53-17.07c.33-.73,1.18-1.06,1.91-.73l.4.17c.38.18.56.63.39,1.02-6.31,14.37-10,22.56-11.08,24.57-2.35,4.35-5.92,5.43-10.68,3.24-.73-.34-1.07-1.2-.74-1.95l.13-.29c.22-.49.82-.71,1.3-.46,1.44.75,2.75,1.15,3.93,1.18.57.01,1.12-.16,1.58-.49,1.56-1.15,2.58-2.76,3.05-4.82.11-.51.07-1.04-.15-1.52l-8.78-19.62c-.34-.74.43-1.51,1.17-1.18l1.18.52c.31.15.57.39.72.71l7.47,16.72Z"/>
  <path class="st1" d="M1019.73,1527.06c-.03,5.89,4.57,9.27,10.24,8.02,1.78-.38,2.55-1.12,4.03-2.18.56-.4,1.35-.17,1.61.47l.06.16c.3.75.04,1.62-.63,2.08-5.19,3.57-10.05,3.52-14.59-.13-2.51-2.03-3.76-4.84-3.74-8.44s1.29-6.39,3.83-8.38c4.59-3.61,9.45-3.6,14.59.02.68.47.92,1.34.61,2.09l-.06.16c-.26.64-1.06.87-1.61.45-1.46-1.08-2.23-1.82-4-2.23-5.66-1.32-10.29,2-10.33,7.91Z"/>
  <path class="st1" d="M1085.23,1527.95c-1.32,0-2.07,1.48-1.31,2.55l1.06,1.47c1.08,1.5,2.65,2.58,4.43,3.05,3.71.98,6.6.45,8.69-1.59.46-.45,1.2-.38,1.57.13l.21.3c.3.43.26,1.01-.1,1.39-4.82,4.98-14.76,3.3-17.79-2.88-1.38-2.81-1.69-5.58-.9-8.3,3.62-12.54,20.24-9.89,20.72,3.13.01.4-.3.73-.71.73h-15.88ZM1084.11,1525.71l14.42-.04c.08,0,.14-.07.14-.13v-.08c-.01-3.75-3.24-6.77-7.2-6.76h-.34c-3.96.01-7.17,3.06-7.15,6.81v.08c0,.08.06.13.13.13Z"/>
  <path class="st1" d="M1143.57,1535.5c-.01-.23-.28-.32-.44-.17-3.4,3.18-7.46,3.68-12.17,1.49-3.91-1.81-3.12-7.46-.18-9.7,1.59-1.2,5.02-1.66,10.27-1.39,1.7.09,2.9-1.64,2.23-3.21l-.27-.62c-.82-1.92-2.71-3.16-4.8-3.16-2.96.02-5.49.63-7.58,1.86-.61.34-1.37.03-1.56-.63v-.07c-.23-.73.1-1.51.76-1.86,6.24-3.34,15.91-3.51,16.54,5.61.23,3.33.29,7.65.19,12.94-.01.72-.55,1.33-1.27,1.43-.72.09-1.4-.35-1.6-1.05-.01-.06-.06-.54-.11-1.47ZM1141.68,1527.74l-9.25.97c-.84.09-1.46.84-1.37,1.7l.09.79c.29,2.87,3.05,4.93,6.13,4.6l1.12-.11c3.08-.33,5.34-2.91,5.05-5.78l-.09-.79c-.09-.86-.84-1.46-1.69-1.37Z"/>
  <path class="st1" d="M1157.87,1519.14c.7-.47,2.3-1.93,3.16-2.26,6.1-2.31,11.92-.25,13.03,6.62.33,2.03.45,6.57.36,13.65-.01.43-.36.78-.8.78h-1.51c-.48,0-.87-.39-.86-.87.12-7.3.09-11.7-.1-13.18-.44-3.25-2.96-4.96-6.27-5-9.42-.09-7.56,10.54-7.53,18.18,0,.49-.39.89-.89.89h-1.42c-.43,0-.76-.34-.76-.77v-20.03c0-.58.47-1.07,1.06-1.07h.93c.44,0,.8.36.8.81v1.82c0,.4.45.65.79.43Z"/>
  <path class="st1" d="M1254.8,1527.09c0,6.12-4.96,11.08-11.08,11.08s-11.08-4.96-11.08-11.08,4.96-11.08,11.08-11.08,11.08,4.96,11.08,11.08ZM1251.62,1526.3c.09-3.97-3.06-7.26-7.02-7.35l-1.39-.03c-3.97-.09-7.26,3.05-7.35,7.02l-.05,2c-.09,3.97,3.06,7.26,7.02,7.35l1.39.03c3.97.09,7.26-3.05,7.35-7.02l.05-2Z"/>
  <path class="st1" d="M1263.62,1518.73c0,.43.48.66.83.4,2.05-1.54,3.56-3.27,6.32-3.09,1.56.1,1.82,2.31.32,2.75-4.55,1.34-7.15,2.36-7.23,8.05-.05,3.58-.05,6.96.01,10.18.01.54-.43.98-.96.98h-1.18c-.53,0-.97-.43-.97-.97v-19.85c-.01-.66.53-1.2,1.19-1.2h.46c.66,0,1.2.54,1.2,1.19v1.55Z"/>
  <path class="st1" d="M1311.42,1527.11c0-3.6,1.26-6.41,3.78-8.42,4.58-3.64,9.44-3.67,14.61-.07.66.46.92,1.33.62,2.09l-.06.16c-.26.64-1.06.87-1.61.46-1.47-1.07-2.25-1.81-4.03-2.22-5.67-1.27-10.29,2.08-10.28,7.99,0,5.91,4.62,9.26,10.29,7.98,1.78-.4,2.55-1.15,4.02-2.22.56-.42,1.35-.18,1.61.46l.07.16c.3.75.05,1.62-.62,2.08-5.16,3.61-10.03,3.59-14.61-.04-2.52-2-3.79-4.82-3.79-8.41Z"/>
  <path class="st1" d="M1384.57,1527.08c0,6.13-4.97,11.1-11.1,11.1s-11.1-4.97-11.1-11.1,4.97-11.1,11.1-11.1,11.1,4.97,11.1,11.1ZM1381.31,1525.93c-.09-3.96-3.37-7.1-7.34-7.01l-1.39.03c-3.97.09-7.1,3.38-7.01,7.34l.05,2.02c.09,3.96,3.37,7.1,7.34,7.01l1.39-.03c3.97-.09,7.1-3.38,7.01-7.34l-.05-2.02Z"/>
  <path class="st1" d="M1410.57,1527.09c0,6.13-4.97,11.1-11.1,11.1s-11.1-4.97-11.1-11.1,4.97-11.1,11.1-11.1,11.1,4.97,11.1,11.1ZM1407.34,1526.15c.02-3.97-3.18-7.2-7.14-7.21h-1.39c-3.97-.03-7.2,3.17-7.21,7.13v2.02c-.03,3.97,3.17,7.2,7.13,7.21h1.39c3.97.03,7.2-3.17,7.21-7.13v-2.02Z"/>
  <path class="st1" d="M1489.57,1527.09c0,6.13-4.97,11.1-11.1,11.1s-11.1-4.97-11.1-11.1,4.97-11.1,11.1-11.1,11.1,4.97,11.1,11.1ZM1486.3,1526.15c.03-3.94-3.15-7.15-7.08-7.18h-1.39c-3.94-.04-7.16,3.13-7.18,7.07v2.07c-.04,3.94,3.13,7.15,7.07,7.18h1.39c3.94.04,7.16-3.13,7.18-7.07v-2.07Z"/>
  <path class="st1" d="M1508.76,1535.67c-.01-.21-.27-.32-.44-.17-3.44,3.14-7.5,3.58-12.19,1.33-3.9-1.87-3.03-7.49-.06-9.7,1.61-1.19,5.04-1.61,10.29-1.27,1.71.11,2.92-1.6,2.27-3.17l-.26-.64c-.8-1.92-2.68-3.2-4.77-3.21-2.97-.02-5.5.55-7.62,1.74-.61.35-1.37.03-1.55-.64v-.07c-.21-.73.11-1.51.79-1.86,6.3-3.25,15.98-3.31,16.47,5.83.19,3.35.2,7.67.03,12.96-.02.72-.56,1.32-1.28,1.41-.72.09-1.39-.36-1.59-1.06-.02-.06-.06-.55-.1-1.48ZM1506.88,1527.75l-9.11.91c-.84.09-1.47.84-1.38,1.7l.1.99c.27,2.78,3.07,4.78,6.24,4.47l.71-.08c3.17-.32,5.52-2.82,5.24-5.61l-.1-.98c-.08-.86-.84-1.47-1.7-1.39Z"/>
  <path class="st1" d="M1523.49,1519.19c2.05-1.53,3.56-3.26,6.31-3.08,1.56.1,1.82,2.31.32,2.74-4.53,1.33-7.14,2.35-7.22,8.03-.06,3.57-.06,6.95,0,10.16.01.54-.42.98-.96.98h-1.17c-.53,0-.97-.44-.97-.97v-19.81c0-.66.54-1.19,1.2-1.19h.46c.66,0,1.19.53,1.19,1.19v1.54c0,.43.5.66.83.4Z"/>
  <path class="st0" d="M1084.11,1525.71c-.08,0-.13-.06-.13-.13v-.08c-.01-3.75,3.19-6.8,7.15-6.81h.34c3.96-.01,7.19,3.02,7.2,6.76v.08c0,.07-.06.13-.14.13l-14.42.04Z"/>
  <rect class="st0" x="813.54" y="1519.22" width="16.36" height="15.82" rx="7.22" ry="7.22" transform="translate(-719.52 2322.08) rotate(-89)"/>
  <rect class="st0" x="866.34" y="1518.92" width="15.73" height="16.43" rx="7.18" ry="7.18" transform="translate(-7.98 4.6) rotate(-.3)"/>
  <ellipse class="st0" cx="929.61" cy="1527.12" rx="8.39" ry="8.12" transform="translate(-621.32 2416.44) rotate(-88.5)"/>
  <ellipse class="st0" cx="1191.21" cy="1527.14" rx="8.13" ry="8.39" transform="translate(-7.98 6.26) rotate(-.3)"/>
  <rect class="st0" x="1235.52" y="1519.23" width="16.38" height="15.77" rx="7.19" ry="7.19" transform="translate(-311.23 2735.86) rotate(-88.7)"/>
  <rect class="st0" x="1365.58" y="1518.93" width="15.75" height="16.38" rx="7.18" ry="7.18" transform="translate(-34.29 31.55) rotate(-1.3)"/>
  <rect class="st0" x="1391.26" y="1519.24" width="16.38" height="15.75" rx="7.18" ry="7.18" transform="translate(-134.97 2918.56) rotate(-89.7)"/>
  <rect class="st0" x="1470.3" y="1519.3" width="16.34" height="15.66" rx="7.13" ry="7.13" transform="translate(-58.95 2994.9) rotate(-89.6)"/>
  <rect class="st0" x="1536.54" y="1519.24" width="16.33" height="15.77" rx="7.2" ry="7.2" transform="translate(-27.58 3025.85) rotate(-88.3)"/>
  <path class="st0" d="M1442.01,1525.12c0-.25.2-.46.45-.46l11.44-.06c3.36-.02,6.1,2.31,6.11,5.21v.32c.01,2.89-2.69,5.25-6.04,5.28l-11.44.06c-.26,0-.47-.2-.47-.46l-.04-9.88Z"/>
  <path class="st0" d="M788.95,1527.73c.84-.09,1.61.53,1.7,1.37l.08.79c.32,2.86-1.83,5.43-4.79,5.75l-1.59.17c-2.95.31-5.59-1.74-5.89-4.6l-.09-.8c-.09-.84.52-1.6,1.37-1.69l9.21-.99Z"/>
  <path class="st0" d="M1141.68,1527.74c.84-.09,1.6.52,1.69,1.37l.09.79c.29,2.87-1.97,5.46-5.05,5.78l-1.12.11c-3.08.33-5.84-1.73-6.13-4.6l-.09-.79c-.09-.86.53-1.61,1.37-1.7l9.25-.97Z"/>
  <path class="st0" d="M1506.88,1527.75c.86-.08,1.62.54,1.7,1.39l.1.98c.28,2.79-2.07,5.3-5.24,5.61l-.71.08c-3.17.31-5.97-1.69-6.24-4.47l-.1-.99c-.09-.85.54-1.61,1.38-1.7l9.11-.91Z"/>
</svg>