<?xml version="1.0" encoding="UTF-8"?>
<svg id="Layer_1" xmlns="http://www.w3.org/2000/svg" version="1.1" viewBox="0 0 937 702">
  <!-- Generator: Adobe Illustrator 29.5.1, SVG Export Plug-In . SVG Version: 2.1.0 Build 141)  -->
  <defs>
    <style>
      .st0 {
        fill: #6a6c6b;
      }

      .st1 {
        fill: #53d11c;
      }

      .st2 {
        fill: #4de830;
      }
    </style>
  </defs>
  <path class="st2" d="M576.44,9.42c.05.79.1,1.31.13,1.56.34,2.82.58,6.83.71,12.02.64,24.59.11,48.38-1.6,71.35-.12,1.54-1.03,2.9-2.4,3.6-4.6,2.33-9.93,5.04-14.34,7.82-6.33,3.97-9.95,6.16-10.86,6.55-7.57,3.24-19.05,10.35-29.27,16.1-16.26,9.15-29.7,16.56-40.31,22.23-7.24,3.86-17.36,10.46-24.61,13.99-1.01.49-2.02,1.31-3.02,2.46-.22.25-.62.03-.53-.29l1.12-4c.09-.33.23-.65.41-.95,1.03-1.75,2.67-4.61,4.9-8.59.91-1.63,2.28-2.94,4.09-3.92,6.98-3.77,10.4-5.28,17.05-9.42,2.93-1.83,6.97-4.06,12.1-6.69,5.45-2.79,10.96-5.87,16.53-9.24,5.07-3.05,8.95-5.27,11.65-6.66,9.2-4.72,16.58-8.52,23.53-13.12.59-.39,1.06-.94,1.35-1.59,2.89-6.35,5.83-13.66,8.83-21.92,3.15-8.65,7.01-17.87,9.72-25.87,4.7-13.9,7.07-20.91,7.12-21.02,2.66-6.73,4.52-14.63,7.18-24.45.03-.12.15-.21.28-.19.13,0,.23.11.24.24Z"/>
  <path class="st0" d="M497.36,121.05c-.2.12-.44-.07-.38-.29,1.67-5.73,3.84-11.71,6.51-17.93,6.7-15.55,12.53-31.32,17.63-47.67.14-.45.45-.83.85-1.05,8.02-4.46,17-8.85,25.15-14.35.52-.35,1.07-.65,1.65-.89,1.45-.61,2.81-1.48,4.06-2.62.27-.24.6-.4.96-.47,1.85-.31,3.42-1.47,4.71-3.46.27-.42.92-.19.87.3-.1.97-.61,3.41-.97,4.44-4.88,14.25-7.57,23.49-12.46,34.99-1.97,4.63-4.67,11.96-8.1,22.01-.64,1.89-2.83,4.66-5.23,5.76-.71.33-10.41,6.1-29.12,17.31-.21.12-.42.22-.64.29-.95.32-2.39.82-3.19,1.69-.76.83-1.53,1.48-2.3,1.94Z"/>
  <path class="st2" d="M569.84,109.41c.2-.16.47.05.38.28-6.85,16.88-14.33,34.5-22.44,52.85-.8,1.81-3.71,3.62-5.99,4.55-3.69,1.5-6.7,3.06-9.03,4.69-3.23,2.24-6.06,3.99-8.51,5.24-5.13,2.62-11.34,6.14-18.63,10.56-1.06.63-2.94,2.77-3.55,2.91-.27.06-.5-.21-.4-.47,1.62-4.14,3.61-7.84,5.98-11.11.15-.21.28-.43.39-.66l14.79-30.38c.18-.37-.23-.75-.58-.54-.97.56-2.17,1.22-3.58,1.99-2.39,1.3-6.67,3.81-12.83,7.53-9.1,5.49-17.05,8.71-26.15,14.17-8.71,5.23-18.92,10.94-30.65,17.12-.08.04-.15.1-.2.17l-2.01,2.41c-.28.33-.82.11-.78-.32l.83-9.61c.14-1.65,1.11-3.12,2.57-3.9,3.52-1.88,5.95-3.26,7.28-4.14,5.32-3.51,9.05-5.06,16.15-8.82,3.13-1.67,6.05-3.3,8.75-4.9,17.08-10.13,35.37-20.39,54.87-30.78,4.24-2.25,8.05-4.51,11.44-6.76,2.41-1.6,4.6-2.9,6.56-3.91,3.83-1.96,6.07-3.22,6.74-3.79.33-.27.72-.45,1.13-.54,2.35-.49,4.84-1.77,7.47-3.84Z"/>
  <path class="st0" d="M569.26,152.92l-3.06,12.46c-.09.4-.56.57-.89.32-.5-.38-1.04-.47-1.63-.26-.09.03-.18.08-.25.14l-2.98,2.55c-.06.05-.12.09-.19.12-3.35,1.21-5.36,2.04-6.02,2.49-4.23,2.84-7.16,4.55-8.8,5.12-1.54.54-2.93,2.14-4.48,2.89-.3.15-.6-.19-.43-.47,1.83-2.95,3.2-6.13,4.12-9.53.1-.36.29-.69.55-.96l4.37-4.37c.13-.13.29-.23.46-.29,2.21-.76,3.54-2.51,5.62-3.3,3.68-1.41,7.99-3.86,12.94-7.36.33-.23.77.06.67.45Z"/>
  <path class="st0" d="M505.9,163.07c.47-.26.98.27.7.73l-3.33,5.49c-.14.23-.26.47-.37.72-1.86,4.49-3.55,7.96-5.06,10.42-4.03,6.58-5.31,9.97-8.86,16.58-.16.3-.41.54-.72.69-5.94,2.91-11.33,5.45-17.34,9.21-5.91,3.69-12.02,7.27-18.35,10.72-1.08.59-2.12,1.97-2.89,2.26-.31.12-.63-.13-.59-.46.51-4.36,1.19-5.38,3.93-8.86.4-.5.73-1.04,1-1.62,2.73-5.87,5.71-11.55,8.95-17.05.87-1.48,1.82-4.79,3.2-5.49,10.58-5.42,17.76-9.42,21.54-12,6.22-4.25,12.28-8.03,18.19-11.34Z"/>
  <path class="st0" d="M530.3,199.05c.03-.33-.08-.59-.34-.78,2.2-.95,2.06-3.12,2.82-4.53,1.17-2.17,2.33-4.61,3.47-7.32.27-.63.73-1.15,1.32-1.48l25.29-14.07c.39-.22.68-.59.79-1.04l.34-1.48c.09-.37.43-.62.81-.57h.09c.55.22.88.79.78,1.36l-2.06,11.68c-.24,1.35-1.13,2.5-2.38,3.06-2.81,1.44-7.83,3.73-12.23,6.31-4.16,2.44-8.06,4.08-11.69,4.92-.52.12-1,.38-1.37.75-1.06,1.06-2.07,1.85-3.03,2.36-.31.16-.62.18-.93.07-.27-.1-.58,0-.76.22-.25.31-.55.49-.92.54Z"/>
  <path class="st2" d="M660.66,198.32c.1.59-1.24,7.78-4.01,21.56-.41,2.05-1,3.54-1.75,4.45-.1.12-.22.22-.35.29l-108.65,60.45c-.07.04-.14.08-.21.13l-3.84,2.63c-.23.15-.53-.05-.47-.32,1.97-8.93,4.38-17.06,7.21-24.4.52-1.35,1.32-2.31,2.4-2.87,6.91-3.59,12.13-7.16,18.45-10.52,5.77-3.07,17.89-9.78,36.36-20.14,6.42-3.6,11.56-6.53,15.41-8.79,5.99-3.51,11.65-6.55,16.99-9.13,6.64-3.21,12.53-7.84,19.13-11.1,1.35-.67,1.79-1.61,2.77-2.44.2-.17.52-.06.56.2Z"/>
  <path class="st2" d="M529.96,198.27c.26.19.37.45.34.78-.37.46-.69.95-.96,1.47-3.9,7.48-7.98,15.17-12.25,23.08-2.42,4.48-3.95,5.89-8.43,8.08-2.12,1.03-5.41,2.67-9.88,4.92-3.64,1.84-7.3,4.78-11.34,6.32-.75.29-1.32.44-1.71.45-.27.01-.53.08-.77.22-3.81,2.25-8.33,4.59-13.55,7.02-1.41.65-2.96,1.82-4.44,2.83-.28.19-.63-.13-.46-.42l18.36-31.82c.43-.74,1.11-1.32,1.91-1.64,5.25-2.03,10.06-4.33,14.41-6.9.46-.27.89-.59,1.29-.96.24-.22.54-.37.85-.43,1.85-.35,4.73-1.53,8.66-3.56,6.01-3.1,12-6.25,17.97-9.44Z"/>
  <path class="st0" d="M439.37,242.29c.86-.57,1.62-.94,2.29-1.11,1.02-.27,1.82-.55,2.41-.86,3.47-1.79,9.95-4.99,19.46-9.6,1.89-.91,3.38-1.75,4.47-2.52,2.43-1.7,3.87-2.65,4.32-2.86.33-.15.65.22.45.52-2.27,3.5-4.13,8.6-6.76,12.85-3.22,5.2-6.75,11.02-10.58,17.45-.65,1.09-1.76,2.74-3.32,4.95-.34.47-.77.86-1.28,1.14l-13.26,7.38c-.49.27-1.04.41-1.6.41-1.03-.01-1.86.13-2.47.42-3.65,1.73-6.93,4.24-10.63,6.05-11.04,5.39-20.79,10.69-29.26,15.88-.37.23-.78.39-1.22.46-2.6.44-5.15,1.34-7.64,2.71-3.87,2.13-8.05,4.35-12.52,6.66-1.39.72-3.17,1.9-5.33,3.53-.05.04-.11.08-.17.11l-8.49,4.53c-.19.1-.41-.07-.35-.28,1.43-4.58,3.08-9.08,4.96-13.51,1-2.37,2.61-4.21,4.82-5.53.17-.11.36-.19.55-.26,2.07-.69,3.73-1.45,4.98-2.28,1.91-1.25,3.15-2.03,3.74-2.35,5.65-3.07,8.83-5.08,13.78-7.44,3.42-1.63,8.08-4.05,13.97-7.24,2.29-1.24,5.22-2.63,8.8-4.17,3.59-1.54,6.51-2.99,8.75-4.35,5.05-3.07,5.81-9.24,9.1-13.93,2.6-3.71,3.23-5.72,7.05-6.37.35-.06.68-.19.98-.39Z"/>
  <path class="st0" d="M651.02,233.94c1.14-.61,2.47.42,2.17,1.68-2.51,10.55-4.96,21.77-7.34,33.66-2.38,11.91-5.1,25.47-8.17,40.67-.8,3.96-2.42,3.67-6.07,5.09-16.52,6.46-30.7,11.79-42.54,15.99-5.69,2.02-12.71,4.8-21.05,8.33-7.91,3.35-15.62,6.27-23.14,8.78-.61.2-1.74.71-3.39,1.52-.5.24-1.1-.03-1.24-.57-1.02-3.85-1.84-8.19-2.46-13.02-.47-3.66-.02-6.89-.4-11.07-.31-3.36.47-8.8.17-10.64-.29-1.81-.09-4.52.6-8.15.43-2.27.84-4.95,1.21-8.04.15-1.29.84-2.39,2.07-3.31.17-.13.35-.23.54-.3,3.87-1.44,7.1-2.97,9.7-4.6,6.92-4.32,14.62-8.33,20.96-12.27,2.39-1.48,5.74-2.92,7.87-4.19,10.2-6.07,19.06-10.86,26.59-14.36,1.3-.61,4.29-2.44,8.96-5.5,4.37-2.85,7.67-4.44,11.63-6.78,4.94-2.92,12.07-5.36,15.05-7.63,2.61-1.98,5.37-3.74,8.28-5.29Z"/>
  <path class="st2" d="M421.85,354.9c-.22.23-.6.02-.53-.29,3.77-16.47,9.04-32.51,15.81-48.12,4.16-9.6,8.18-16.77,13.74-27.37,2.53-4.83,5.5-9.67,8.92-14.54.52-.74,1.22-1.34,2.04-1.73,6.19-2.98,12.48-6.29,17.79-9.57,3.1-1.93,5.95-3.41,8.54-4.46,3.73-1.5,6.57-2.77,8.5-3.8,3.7-1.98,6.41-3.5,8.13-4.57.67-.41,1.09-.7,1.25-.86.8-.79,1.68-1.65,2.65-2.58.18-.18.48.02.38.26l-2.09,4.89c-.17.38-.36.74-.59,1.09-4.03,6.1-7.24,12.34-11.02,18.48-5.91,9.59-10.09,16.7-12.53,21.35-3.75,7.15-7.2,13.76-10.33,19.81-.19.37.21.77.58.57l56.88-31.56c.06-.03.11-.07.16-.11,1.73-1.38,2.98-2.21,3.73-2.49,3.65-1.35,6.72-3.17,9.22-5.46.25-.23.65.01.57.34l-6.1,24.85c-.2.8-.72,1.47-1.44,1.86-5.13,2.75-8.62,4.6-10.47,5.55-4.69,2.39-8.47,4.47-11.34,6.23-9.56,5.83-18.99,10.6-27.25,15.35-4.34,2.49-9.67,5.47-16,8.94-14.11,7.76-21.4,11.81-21.87,12.15-1.25.93-9.11,5.27-23.58,13.04-1.47.79-2.72,1.71-3.75,2.75Z"/>
  <path class="st0" d="M399.35,302.8l-.02-.02c-.25-.18-.6-.13-.78.12-.81,1.09-1.82,1.96-3.03,2.6-6.79,3.62-11.78,6.17-14.96,7.65-2.72,1.27-5.44,2.88-8.17,4.82-4.48,3.19-10.62,7.01-16.2,8.97-.16.05-.31.13-.44.23l-1.06.78c-.56.41-1.33-.08-1.2-.76l1.78-9.28c.2-1.04,1-1.86,2.04-2.09l3.26-.71c.13-.03.26-.08.37-.15,1.87-1.07,5.71-2.98,11.52-5.73,5.79-2.74,11.83-7.9,17.61-10.67,2.79-1.34,7.7-3.82,14.72-7.44.67-.34,1.6-.26,2.45-.67,15.38-7.55,24.88-12.39,28.49-14.52,3.79-2.23,6.34-3.58,7.63-4.06.4-.15,1.03-.89,1.9-2.22.24-.37.66-.57,1.09-.52h.11c.33.05.51.4.36.69-2.72,5.13-6.29,10.32-8.5,15.41-2.64,6.13-6.18,11.86-8.95,18.08-7.79,17.5-13.21,35.68-16.28,54.54-.05.31-.16.6-.33.86-.81,1.23-1.82,2.17-3.03,2.82-7.65,4.13-13.4,7.41-17.27,9.84-6.24,3.93-14.08,6.47-19.51,11.27-.41.36-1.05.04-1.01-.5.68-8.73,2.86-16.5,5.57-26.58.97-3.61,2.22-7.48,3.73-11.63,4.37-11.98,7.18-19.5,12.54-29.47,1.23-2.28,2.13-4.11,2.7-5.49.85-2.02,1.84-3.86,2.98-5.53.14-.21.1-.49-.11-.64Z"/>
  <path class="st0" d="M535.05,298.09c.3-.25.76-.04.77.36.05,2.26-.2,4.53-.75,6.81-.12.5-.18,1.03-.18,1.55-.01,2.17-.17,6.49-.49,12.94-.24,4.92.45,10.34.52,13.98.05,2.49.35,5.29.9,8.39.69,3.79,1.31,6.5,1.88,8.13.17.5-.13,1.03-.64,1.13-4.57.93-8.51,2.9-12.71,4.52-18.59,7.15-30.51,11.8-35.78,13.97-7.48,3.08-15.96,6.17-25.44,9.28-5.61,1.85-11.33,4.04-17.16,6.58-9.24,4.02-15.76,6.37-26.11,10.6-.49.2-1.04-.11-1.12-.63-.29-1.9-.44-3.06-.43-3.47.09-4.62.06-9.48-.07-14.58-.13-5.32.71-8.56,1.11-13.59.04-.49.32-.94.76-1.18l71.61-39.98c.22-.12.46-.21.71-.28,1.94-.51,3.42-1.1,4.45-1.78,7.01-4.64,10.57-6.39,21.22-12.25,5.07-2.79,8.55-4.95,10.42-6.49.39-.32.83-.57,1.31-.74,1.51-.56,3.25-1.65,5.22-3.27Z"/>
  <path class="st0" d="M410.54,366.77c.2-.22.57-.08.57.22.17,8.39.2,14.72.11,18.99-.1,4.47.68,7.74.94,13.03.01.29-.19.55-.47.61-4.09.87-6.51,1.46-7.27,1.77-6.42,2.62-16.12,6.38-29.09,11.29-1.36.52-2.69,1.21-3.76,2-.3.22-.72.03-.76-.33-.83-6.86-.97-13.91-.41-21.15.09-1.28.79-2.43,1.87-3.11,11.41-7.24,22.94-13.76,34.58-19.55.15-.07.28-.17.4-.29l3.29-3.48Z"/>
  <path class="st0" d="M355.69,397.91c.71,3.22,1.09,6.11,1.12,8.67.03,2.63.13,4.37.3,5.2.64,3.19.91,5.71-.17,8.41-.13.31-.38.54-.69.65l-17.49,5.88c-.13.04-.27.06-.41.07-1.29.05-2.89.66-4.82,1.84-.52.32-1.19-.05-1.2-.66-.03-1.33.01-2.25.12-2.74.65-2.97,1.42-6.62,2.33-10.93.14-.65.23-1.21.26-1.68.09-1.31.76-2.43,2.02-3.37,1.78-1.33,3.71-2.44,5.79-3.35.31-.14.61-.31.88-.52,2.56-1.97,5.23-3.55,8.01-4.72.24-.11.46-.25.65-.43l2.67-2.51c.21-.2.56-.09.63.19Z"/>
  <path class="st0" d="M332.4,411.93c.24-.14.54.08.47.35l-3.55,14.48c-.18.74-.74,1.32-1.46,1.54-11.62,3.52-22.5,7.14-32.65,10.85-5.57,2.04-11.84,3.46-17.33,5.75-2.29.95-5.19.62-7.3,2.39-.34.29-.83.32-1.21.09l-.1-.06c-.31-.19-.31-.64,0-.83,1.83-1.12,3.14-1.71,3.93-1.77,3.05-.23,4.9-1.89,7.48-3.58,1.19-.78,2.5-1.52,3.94-2.21,3-1.43,6.55-4.27,9.18-5.83,2.99-1.78,5.92-3.45,8.8-5.01.3-.17.65-.2.98-.09.01,0,.03.01.06.02.2.09.42.09.62,0,7.33-3.54,12.75-6.45,16.27-8.72,4.62-2.98,8.58-5.43,11.87-7.36Z"/>
  <path class="st2" d="M179.01,572.58c.08.27-.15.54-.43.49-2.44-.4-4.8-.27-7.07.39-.2.06-.42-.05-.5-.25l-6.67-17.5c-.14-.38-.51-.63-.92-.62-3.17.05-8.14.08-14.91.07-1.11,0-2.24.26-3.38.79-.21.1-.45-.07-.44-.3.13-1.93.21-2.9.22-2.93.81-2.11,1.41-3.93,1.8-5.45.08-.29.34-.49.63-.49h12.66c.45,0,.76-.45.6-.87l-9.73-25.52c-.18-.47-.86-.45-1.01.03-2.19,6.95-4.26,12.82-6.23,17.59-5.3,12.89-7.98,21.05-13.28,34.72-.08.22-.29.36-.51.36h-7.13c-.09,0-.16-.1-.13-.19,4.61-13.43,9.88-26.6,14.73-39.66,1.19-3.21,2.86-7.36,5.01-12.45,2.39-5.66,4.01-11.62,7.45-16.8.19-.28.53-.41.86-.34,1.71.39,2.89,1.55,3.53,3.46,1.56,4.67,3.77,10.53,6.64,17.56,3.72,9.14,7.13,18.03,9.31,24.37,2.33,6.78,6.45,15.49,8.9,23.54Z"/>
  <path class="st2" d="M412.55,572.87c.06.17-.08.35-.26.31l-8.23-1.58c-.08-.02-.15-.08-.18-.16l-5.79-15.17c-.26-.69-.93-1.15-1.68-1.15h-17.55c-.71,0-1.21-.71-.95-1.38l2.34-6.13c.19-.49.66-.81,1.18-.81h12.43c.28,0,.48-.28.38-.55l-10.03-26.28c-.11-.3-.55-.26-.6.06-.28,1.82-.78,3.46-1.49,4.91-2.46,5.02-4.15,10.59-6.06,15.54-2.54,6.63-3.92,11.09-6.66,17.4-1.33,3.07-3.11,8.05-5.36,14.95-.11.32-.44.51-.77.44-2.17-.48-4.39-.51-6.68-.1-.25.05-.46-.19-.39-.44.86-3.08,1.46-5.56,2.55-7.93,3.65-7.89,5.97-15.63,9.03-23.38,3.03-7.69,7.39-18.87,13.06-33.56.42-1.07,2.27-3.51,3.69-3.91.82-.24,1.76.38,2.16,1.41,3.43,8.93,5.97,15.31,7.62,19.14,2.55,5.9,4.8,13.13,7.82,20.2.64,1.5,1.68,4.2,3.13,8.1,3.37,9.08,5.8,15.77,7.29,20.07Z"/>
  <path class="st2" d="M647.09,556.12l.33-.47s.02-.05.02-.08c-.09-2.79.61-5.56,2.11-8.3.17-.31.49-.5.84-.5h12.46c.45,0,.75-.46.57-.87-3.69-8.37-6.89-16.88-9.61-25.51-.14-.43-.74-.44-.9-.02l-19.88,52.15c-.11.28-.38.47-.68.47h-6.55c-.19,0-.33-.18-.29-.36.8-3.63,2-7.25,3.61-10.87,3.92-8.85,7.63-20.38,10.34-27.06,4.87-12.03,8.06-20.26,9.57-24.71.58-1.68,2.05-4.07,2.81-5.27.78-1.22,2.56-1.23,3.35-.01,1.27,1.96,2.16,3.85,2.69,5.66.51,1.76,2.13,5.85,4.86,12.26,1.07,2.51,2.68,6.6,4.84,12.29,7.37,19.44,12.14,32.1,14.3,37.98.03.07-.03.14-.1.13l-7.97-.68c-.31-.02-.57-.23-.68-.52l-6.11-15.99c-.17-.46-.63-.76-1.13-.74-4.1.19-9.53.26-16.28.23-1.18,0-1.71,1.21-2.19,1.28-.28.06-.49-.25-.33-.49Z"/>
  <path class="st2" d="M762.6,522.21v50.45c0,.35-.33.61-.67.53-1.71-.38-3.47-.4-5.29-.05-.27.05-.51-.15-.51-.42-.12-38.35-.17-59-.16-61.97.01-2.23.65-4.16,1.91-5.77.92-1.16,2.68-1.15,3.58.03.91,1.2,1.92,2.61,3.05,4.24,1.98,2.85,8.1,12.38,18.37,28.57,4.06,6.4,7.66,11.3,10.73,17.32.14.27.54.17.54-.13v-50.52c0-.45.48-.74.88-.52,1.68.92,3.38.98,5.09.18.42-.2.9.1.9.56.12,30.94.09,52.26-.08,63.97-.01.95-.56,2.28-1.65,3.99-.18.27-.43.5-.72.64-1.55.76-2.89.23-4.04-1.58-4.87-7.72-9.48-14.99-13.85-21.82-3.31-5.17-7.46-10.73-9.92-15.36-2.35-4.41-5.15-7.83-7.62-12.48-.14-.27-.54-.16-.54.14Z"/>
  <path class="st2" d="M236.04,504.69c.12.01.21.11.2.22v.12c-.87,12.95-2.4,23.39-3.43,23.32l-2.54-.17c-1.03-.07-1.17-10.62-.31-23.56v-.12c.02-.12.12-.21.24-.2l5.84.39Z"/>
  <path class="st2" d="M425.1,572.63c0,.5-.51.83-.97.64-2.07-.88-3.67-.9-4.81-.05-.49.37-1.2.02-1.2-.6-.07-19.35-.1-39.17-.08-59.45,0-3.21.5-5.53,1.58-8.41.19-.5.69-.8,1.22-.72,1.8.26,3.2,1.16,4.2,2.71,3.21,4.97,12.02,18.51,26.45,40.61,1.77,2.71,2.93,5.22,4.53,7.91.18.31.65.18.65-.18v-50.09c0-.29.23-.52.52-.52h5.83c.08,0,.15.07.15.15.09,24.08.08,44.95-.02,62.61,0,1.9-.47,3.69-1.38,5.36-.16.3-.42.53-.74.65-1.59.61-2.79.29-3.59-.95-15.7-24.47-25.53-39.8-29.48-45.98-.94-1.47-1.65-2.72-2.12-3.77-.17-.38-.74-.26-.74.16v49.92Z"/>
  <rect class="st2" x="740.38" y="504.55" width="7" height="68.46" rx=".42" ry=".42"/>
  <path class="st2" d="M221.56,504.35c.33-.08.65.17.65.52l.04,10.92c0,.19-.15.34-.34.34l-24.36.09c-1.42.01-2.8.46-3.96,1.29-7.43,5.36-9.11,15.07-8.45,23.91.51,6.88,1.94,13.21,7.19,17.8,2.41,2.1,4.9,1.9,8.71,1.92,9.53.05,16.38-.01,20.53-.16.43-.01.79.33.79.77l.04,10.72c0,.27-.21.48-.48.48l-24.71-.08c-.43,0-.86-.06-1.28-.17-4.28-1.22-7.84-3.92-10.67-8.09-9.43-13.92-9.66-32.37-3.4-47.04,2.29-5.34,6-9.15,11.13-11.4,2.06-.9,5.3-1.34,9.72-1.31,7.91.06,13.47.05,16.66-.05.07,0,.14-.01.21-.02l1.98-.44Z"/>
  <path class="st2" d="M620.97,504.86v10.94c0,.19-.15.34-.34.34h-24.4c-1.42,0-2.81.44-3.97,1.27-7.46,5.34-9.18,15.06-8.56,23.92.49,6.89,1.89,13.23,7.13,17.85,2.41,2.11,4.9,1.92,8.72,1.96,9.55.08,16.4.05,20.56-.08.43-.02.79.33.79.77v10.74c0,.27-.22.48-.49.48l-24.74-.18c-.43,0-.86-.06-1.28-.18-4.29-1.23-7.84-3.95-10.66-8.14-9.39-13.98-9.55-32.46-3.22-47.12,2.31-5.35,6.04-9.14,11.19-11.38,2.07-.89,5.31-1.32,9.74-1.27,7.93.09,13.49.1,16.69.01.07,0,.14-.01.21-.02l1.98-.43c.33-.08.65.18.65.52Z"/>
  <path class="st2" d="M700.68,554.37v-10.63c0-.29.24-.53.54-.54,8.65-.1,13.41-.14,14.26-.12,5.71.17,9.13-1.4,10.71-7.02,1.55-5.51,1.24-10.58-.91-15.21-1.64-3.53-3.84-4.79-7.98-4.71-6.85.13-14.19.05-22.04-.24-.27-.01-.5.21-.5.48v56.63c0,.52-.69.69-.93.23-.81-1.54-3.22-1.02-5.12-.72-.7.11-1.34-.44-1.34-1.15v-66.21c0-.48.42-.84.89-.76,1.36.23,2.36.35,2.99.36,3.71.03,12.79.09,27.25.16,1.62,0,3.86.66,6.71,1.97.3.14.58.31.83.52,11.23,9.27,10.25,34.66-.42,43.96-2.17,1.89-5.47,2.76-9.88,2.6-3.61-.13-7.01-.18-10.2-.14-.06,0-.12.01-.17.02l-4.23.89c-.24.05-.46-.13-.46-.37Z"/>
  <path class="st2" d="M105.99,515.72c.11-.26-.08-.55-.36-.55h-29.91c-.24,0-.44-.2-.44-.44v-9.05c0-.49.4-.89.9-.88,7.43.06,19.27,0,35.52-.18,3.43-.04,5.39.69,6.14,4.1.35,1.59.16,3.18-.57,4.78-3.25,7.15-7.07,11.63-11.58,18.91-6.06,9.79-12.28,18.89-18.16,28.89-.21.35-.09.81.27,1.02.15.08.52.01,1.1-.22.4-.16.82-.24,1.26-.24,11.42.11,20.5.09,27.24-.06.29-.01.52.22.52.51v10.18c0,.38-.34.68-.72.64-1.4-.15-2.72-.22-3.95-.21-4.03.05-15.6.03-34.69-.06-1.31-.01-2.25-.8-2.82-2.37-1.21-3.35-.67-6.64,1.61-9.89,4.82-6.87,8.15-13.03,12.91-19.76,1.81-2.57,3.3-4.94,4.46-7.11,2.77-5.2,8.51-11.7,11.27-18.01Z"/>
  <path class="st2" d="M287.97,504.48c.32-.04.61.21.62.54l.05,10.4c0,.39-.32.72-.71.72l-31.91.08c-.81,0-1.57.35-2.09.96-3.35,3.92-2.68,10.47-.37,14.77.5.93,1.47,1.52,2.53,1.52l24.35-.07c.32,0,.63.09.91.25,4.49,2.63,7.32,5.95,8.49,9.95,2.62,9,1.1,29.09-12.2,29.16-18.04.09-27.83.12-29.37.07-.57-.01-1.48.11-2.75.36-.34.07-.66-.2-.66-.55l-.03-11.16c0-.37.32-.65.68-.59,1.17.19,2.09.28,2.75.26,3.57-.06,13.62-.07,30.13-.03,2.24,0,3.71-.95,4.43-2.83,2.07-5.47,2.52-15.63-5.78-15.64-7.58,0-14.86-.02-21.85-.06-4.39-.03-8.01-5.09-9.35-8.84-2.86-8.03-2.5-15.43,1.08-22.2,2.75-5.2,7.21-6.66,13.53-6.66,14.91,0,23.24,0,24.99-.03.91,0,1.8-.3,2.53-.38Z"/>
  <path class="st2" d="M352.41,561.59v10.7c0,.34-.28.62-.62.62h-35.4c-.29,0-.52-.23-.52-.52v-66.4c0-.74.6-1.34,1.34-1.34h4.05c.59,0,1.07.45,1.12,1.03.27,3.14.43,6.85.48,11.13.13,13.33.15,27.99.06,43.99-.01.51.46.9.96.79l1.91-.38c.11-.02.21-.03.32-.03l25.81-.08c.27,0,.49.22.49.49Z"/>
  <path class="st2" d="M471.18,504.9c0-.17.14-.31.31-.31l22.58.04c13.04.02,23.58,14.3,23.55,31.88v4.8c-.03,17.59-10.63,31.82-23.67,31.8l-22.58-.04c-.17,0-.31-.14-.31-.31l.12-67.86ZM478.26,516.23l.16,44.96c0,.14.12.27.27.26l15.94-.05c8.66-.03,15.66-8.66,15.62-19.27l-.02-7.08c-.04-10.6-7.09-19.18-15.76-19.15l-15.94.05c-.15.01-.27.13-.27.28Z"/>
  <path class="st2" d="M568.4,504.92l.03,10.44c0,.4-.32.72-.72.72h-32.04c-.81,0-1.57.35-2.1.96-3.37,3.93-2.72,10.51-.41,14.83.5.94,1.48,1.53,2.54,1.53h24.45c.32,0,.64.09.91.25,4.51,2.65,7.34,5.99,8.5,10.01,2.61,9.04,1.03,29.21-12.32,29.25-18.11.05-27.94.05-29.49,0-.57,0-1.49.1-2.76.35-.35.07-.67-.2-.67-.55v-11.21c0-.37.33-.65.69-.59,1.17.19,2.09.28,2.76.27,3.59-.05,13.67-.04,30.25.04,2.25.01,3.73-.94,4.46-2.83,2.09-5.48,2.57-15.68-5.77-15.71-7.61-.02-14.92-.06-21.94-.12-4.41-.04-8.03-5.13-9.36-8.9-2.85-8.07-2.47-15.5,1.14-22.29,2.77-5.21,7.25-6.67,13.6-6.65,14.97.05,23.33.06,25.09.03.92-.01,1.81-.3,2.54-.37.33-.05.62.21.62.54Z"/>
  <path class="st2" d="M827.78,533.14c0-.1.09-.19.19-.19h26.33c.23,0,.41.18.41.41v38.59c0,.36-.29.65-.65.64-3.65-.07-12.88-.13-27.69-.18-.76,0-1.96-.37-3.61-1.11-4.98-2.24-9.67-8.31-11.33-12.55-5.46-14.01-5.52-27.76-.19-41.26,2.96-7.5,10.11-13.28,18.61-13.08,8.2.2,15.38.15,21.53-.16.35-.02.65.26.65.61v10.3c0,.31-.25.56-.56.56-12.92.03-20.54.03-22.85-.02-2.67-.05-3.93.09-5.88,1.72-3.88,3.25-6.37,7.15-7.47,11.69-2.25,9.3-.86,31.75,13.02,31.67,9.35-.06,14.24-.33,18.24.35.44.08.84-.26.84-.71v-17.72c0-.28-.22-.51-.5-.51h-18.83c-.14,0-.26-.12-.26-.26v-8.79Z"/>
  <path class="st1" d="M302.94,598c-3.67,2.93-7.78,5.27-12.32,7.02-.12.05-.25-.04-.25-.17v-5.74c0-.16.09-.3.24-.37,6.19-2.75,11.05-6.84,14.58-12.25.2-.3.53-.48.89-.48h3.08c.34,0,.62.28.62.62v51.05c0,.17-.14.31-.31.31h-5.93c-.18,0-.33-.15-.33-.33v-39.52c0-.14-.16-.23-.27-.14Z"/>
  <path class="st1" d="M353.38,615.66c-4.23,4.48-9.2,6.19-14.91,5.12-17.75-3.3-16.63-32.79,1.98-34.7,10.52-1.07,18.03,6.07,19.44,16.12,1.81,12.85,1.26,36-17.15,36.84-8.43.39-14.76-3.87-15.94-12.41-.03-.25.16-.47.41-.47h5.8c.19,0,.36.13.4.32,1.17,5.09,4.26,7.5,9.29,7.21,8.65-.51,11.23-11.1,11.22-17.82,0-.28-.34-.41-.54-.21ZM343.44,591.28c-5.69-.19-10.48,5.17-10.7,11.98-.23,6.8,4.2,12.47,9.89,12.66,5.69.19,10.48-5.17,10.7-11.98.23-6.8-4.2-12.47-9.89-12.66Z"/>
  <path class="st1" d="M396.75,609.17c0,.28.35.41.54.21,4.23-4.49,9.2-6.2,14.91-5.15,17.76,3.28,16.68,32.78-1.93,34.72-10.52,1.08-18.04-6.05-19.47-16.1-1.83-12.85-1.32-36,17.1-36.87,8.43-.41,14.77,3.84,15.96,12.38.03.25-.16.48-.41.48h-5.8c-.19,0-.36-.13-.4-.31-1.18-5.1-4.28-7.5-9.3-7.2-8.66.52-11.22,11.12-11.2,17.84ZM407.65,609.08c-5.64.15-10.07,5.79-9.89,12.58.18,6.8,4.9,12.19,10.54,12.05,5.64-.15,10.07-5.79,9.89-12.58-.18-6.8-4.9-12.19-10.54-12.05Z"/>
  <path class="st1" d="M464.78,625.92h-6.26c-.21,0-.38.17-.38.38v11.31c0,.21-.17.38-.38.38h-5.85c-.21,0-.38-.17-.38-.38v-11.3c0-.21-.17-.38-.38-.38h-21.91c-.21,0-.38-.17-.38-.38v-5.55c0-.08.02-.15.07-.22l23.55-33.59c.07-.1.18-.16.31-.16h4.97c.21,0,.38.17.38.38v33.2c0,.21.17.38.38.38h6.26c.21,0,.38.17.38.38v5.17c0,.21-.17.38-.38.38ZM451.54,597.78c0-.31-.4-.44-.58-.18l-15.35,21.9c-.15.21.01.5.27.5h15.34c.18,0,.32-.14.32-.32v-21.9Z"/>
  <path class="st1" d="M553.06,586.01c14.87,0,17.25,15.21,17.25,26.49.01,11.28-2.35,26.5-17.22,26.51-14.87.01-17.25-15.21-17.25-26.49-.01-11.28,2.35-26.5,17.22-26.51ZM542.8,612.47c-.01,5.63-.03,14.21,4.07,18.43,1.88,1.93,3.93,2.9,6.17,2.9s4.31-.96,6.19-2.89c4.1-4.21,4.09-12.79,4.1-18.42,0-5.63.03-14.22-4.07-18.43-1.88-1.94-3.94-2.9-6.18-2.91-2.24,0-4.3.97-6.18,2.9-4.11,4.21-4.1,12.79-4.1,18.42Z"/>
  <path class="st1" d="M576.32,612.51c0-11.28,2.37-26.5,17.24-26.51,14.87,0,17.24,15.22,17.25,26.5,0,11.28-2.37,26.5-17.24,26.51-14.87,0-17.24-15.22-17.25-26.5ZM583.31,612.48c0,5.63-.02,14.21,4.08,18.42,1.88,1.94,3.93,2.9,6.17,2.9,2.24.01,4.3-.96,6.19-2.89,4.1-4.21,4.09-12.79,4.09-18.42s.03-14.21-4.07-18.43c-1.88-1.93-3.94-2.9-6.18-2.9s-4.3.96-6.18,2.89c-4.11,4.22-4.09,12.8-4.1,18.43Z"/>
  <path class="st1" d="M685.26,615.86c0-.28-.34-.41-.54-.21-4.23,4.48-9.2,6.19-14.91,5.12-17.75-3.29-16.63-32.78,1.98-34.7,10.52-1.07,18.03,6.07,19.44,16.12,1.81,12.85,1.26,36-17.15,36.84-8.42.39-14.75-3.87-15.94-12.41-.03-.25.16-.47.41-.47h5.8c.2,0,.36.14.4.32,1.17,5.1,4.27,7.5,9.29,7.21,8.65-.51,11.23-11.1,11.22-17.82ZM674.76,591.28c-5.68-.18-10.46,5.19-10.67,12-.22,6.8,4.21,12.47,9.9,12.65,5.68.18,10.46-5.19,10.67-12,.22-6.8-4.21-12.47-9.9-12.65Z"/>
  <path class="st1" d="M245.76,593c-.22,0-.4-.18-.4-.4v-5.19c0-.2.17-.37.37-.37h33.17c.31,0,.56.25.56.56v3.64c0,.37-.14.72-.38,1-10.55,11.96-18.41,29.02-19.53,45.17-.02.33-.3.59-.63.59h-5.66c-.33,0-.59-.26-.6-.59-.01-.82,0-1.37.03-1.66,1.59-14.84,7.62-30.7,17.71-42.02.25-.28.05-.73-.33-.73h-24.31Z"/>
  <path class="st1" d="M472.26,593c-.22,0-.4-.18-.4-.4v-5.19c0-.21.16-.37.37-.37h33.17c.31,0,.56.25.56.56v3.64c0,.36-.13.72-.38,1-10.55,11.96-18.41,29.02-19.53,45.17-.02.33-.29.59-.63.59h-5.66c-.33,0-.59-.26-.6-.59-.01-.82,0-1.37.03-1.66,1.59-14.84,7.62-30.7,17.71-42.02.25-.28.05-.73-.33-.73h-24.31Z"/>
  <path class="st1" d="M626.36,606c6.32-2.72,12.94-2.99,18.3.66,13.15,8.95,7.24,31.5-9.13,32.32-10.54.53-16.79-4.33-18.76-14.6-.03-.14.07-.27.21-.29l6.78-.81c.12-.02.23.07.24.19.51,4.78,2.59,7.96,6.26,9.53,4.93,2.13,10.86-.6,12.99-5.18,3.1-6.67,1.66-16.92-7.44-18.4-4.47-.73-8.29.74-11.46,4.4-.24.28-.61.41-.98.34l-4.74-.92c-.32-.06-.53-.37-.47-.68l4.81-24.98c.06-.33.35-.56.68-.56h25.21c.28,0,.5.22.5.5v5.02c0,.25-.2.46-.45.46h-19.8c-.41,0-.76.29-.84.7l-2.3,11.98c-.05.22.18.41.39.32Z"/>
  <rect class="st1" x="365.65" y="616" width="20" height="6" rx=".4" ry=".4"/>
  <rect class="st1" x="511.04" y="616.02" width="19.92" height="5.98" rx=".37" ry=".37"/>
  <path class="st1" d="M261.89,671.22h13.23c.36,0,.66.3.66.66v1.44c0,.38-.3.69-.68.69h-17.16c-.3-.01-.55-.22-.59-.51-.17-1.25,0-2.21.51-2.88,1.63-2.13,5.94-7.6,12.94-16.42.15-.18.01-.45-.22-.45h-11.53c-.23,0-.41-.18-.41-.4v-1.99c0-.19.16-.35.36-.35h15.78c.33,0,.59.26.59.58v1.63c0,.26-.09.51-.25.71l-13.45,16.82c-.15.19-.02.47.22.47Z"/>
  <path class="st1" d="M330.21,658.95v-1.28c0-.36.29-.65.64-.65h2.02c.26,0,.46.24.41.5l-2.44,12.68c-.11.56.35,1.08.92,1.04.78-.06,1.62-.47,2.51-1.24,2.43-2.07,3.51-4.65,3.26-7.75-.42-5.2-4.06-7.82-8.92-8.72-1.35-.25-2.59-.28-3.72-.1-6.78,1.11-10.51,5.13-11.18,12.07-.56,5.75,3.16,10.61,9.04,11.63,5.31.92,10.79.52,14.49-3.43.42-.45,1.01-.7,1.62-.7h1.29c.47,0,.73.55.42.91-2.59,3.02-5.31,4.86-8.15,5.53-4.69,1.09-9.12.84-13.29-.76-12.47-4.79-9.54-23.87,2.45-27.04,6.65-1.77,14.12-.33,17.41,6.14,3.41,6.73-1.26,17.57-9.98,16.08-.31-.06-.58-.25-.73-.52l-.55-.99c-.16-.28-.53-.34-.77-.13-4.58,4.19-9.91.56-9.84-5,.05-4.17,1.64-7.23,4.75-9.18,2.93-1.83,5.54-1.46,7.84,1.1.18.2.5.07.5-.19ZM326.54,659.55c-2.18-.71-4.81,1.36-5.88,4.63-1.08,3.27-.19,6.49,1.99,7.21,2.18.71,4.81-1.36,5.88-4.63,1.08-3.27.19-6.49-1.99-7.21Z"/>
  <rect class="st1" x="408.36" y="651.01" width="3.12" height="22.94" rx=".35" ry=".35"/>
  <path class="st1" d="M460.8,658.31c.23.17.56.02.56-.27l.02-6.65c0-.21.17-.37.38-.37h2.35c.21.01.39.18.39.4l-.06,22.05c0,.28-.22.5-.49.5h-1.92c-.27,0-.48-.22-.48-.48v-1.04c0-.23-.28-.33-.43-.15-.71.88-1.34,1.37-1.88,1.48-4.46.83-7.39-.68-8.8-4.51-1.48-4.03-.55-10.12,4.07-11.88,2.29-.86,4.38-.56,6.29.92ZM457.12,659.44c-2.46.07-4.38,2.83-4.29,6.17.09,3.34,2.15,6,4.61,5.94,2.46-.07,4.38-2.83,4.29-6.17-.09-3.34-2.15-6-4.61-5.94Z"/>
  <rect class="st1" x="535.12" y="650.89" width="2.92" height="3.22" rx=".42" ry=".42" transform="translate(-125.19 1177.61) rotate(-89)"/>
  <path class="st1" d="M292.37,673.38c.14.24,0,.55-.28.6-.12.02-.44.02-.98.01-.93-.02-1.4-.03-1.41-.03-.44.07-.68-.44-.72-1.52,0-.3-.35-.46-.59-.27-2.27,1.78-4.94,2.31-8,1.58-1.93-.47-3.36-2.4-3.35-4.54,0-5.61,6.96-4.93,10.63-5.99.99-.29,1.35-1.5.69-2.29-2-2.36-6.89-1.92-7.54,1.27-.09.42-.46.73-.9.73h-1.75c-.4,0-.69-.38-.59-.77,1.43-5.55,7.4-6.17,11.8-4.4,4.05,1.61,1.32,12.7,2.99,15.62ZM287.55,665.69l-7.18,1.81c-.32.08-.51.41-.43.73l.14.57c.49,1.95,2.55,3.1,4.61,2.58l.91-.23c2.05-.52,3.31-2.51,2.82-4.46l-.15-.57c-.08-.32-.4-.52-.72-.43Z"/>
  <path class="st1" d="M298.17,665.61c.03,2.09.42,4.75,2.8,5.53,2.87.93,4.69.05,5.46-2.66.07-.27.31-.45.59-.45h2.09c.25,0,.45.24.4.49-.56,3.03-2.14,4.79-4.74,5.28-6.28,1.18-9.63-2.12-9.74-8.13-.1-6.02,3.14-9.43,9.46-8.47,2.61.4,4.25,2.1,4.91,5.11.06.26-.13.5-.38.51l-2.09.07c-.28.01-.52-.17-.6-.43-.86-2.68-2.72-3.5-5.56-2.47-2.34.86-2.64,3.54-2.6,5.62Z"/>
  <path class="st1" d="M346.42,671.47h9.68c.5,0,.9.41.9.91v.73c0,.5-.4.9-.89.9h-12.79c-1.15,0-1.79-1.34-1.07-2.24l9.64-12.05c.06-.08,0-.2-.09-.2h-8.65c-.36,0-.65-.29-.65-.65v-1.27c0-.33.26-.59.59-.59h12.45c.9,0,1.4,1.04.84,1.74l-10.04,12.56c-.05.06,0,.16.08.16Z"/>
  <path class="st1" d="M373.4,673.97c-.11.02-.44.02-.98.01-.93-.02-1.39-.03-1.4-.03-.44.07-.68-.43-.72-1.52,0-.3-.35-.46-.59-.27-2.27,1.79-4.94,2.31-8,1.58-1.93-.46-3.36-2.39-3.35-4.53.01-5.61,6.96-4.93,10.62-5.99.99-.29,1.36-1.5.69-2.29-2-2.35-6.88-1.91-7.53,1.27-.09.42-.46.73-.9.73h-1.75c-.4,0-.69-.38-.59-.77,1.43-5.54,7.39-6.16,11.79-4.4,4.05,1.61,1.32,12.69,2.99,15.61.14.24,0,.55-.28.6ZM368.73,665.73l-6.9,1.75c-.42.1-.68.53-.57.96l.07.27c.5,1.99,2.61,3.18,4.7,2.65l.86-.21c2.09-.53,3.38-2.58,2.87-4.58l-.07-.27c-.1-.42-.53-.68-.96-.57Z"/>
  <path class="st1" d="M376.21,665.65c-.1-6.01,3.15-9.42,9.46-8.44,2.61.4,4.25,2.11,4.91,5.12.05.26-.13.5-.39.5l-2.09.07c-.27,0-.52-.17-.6-.43-.85-2.68-2.7-3.5-5.55-2.48-2.34.85-2.64,3.53-2.61,5.61.03,2.09.41,4.75,2.78,5.53,2.88.94,4.7.06,5.47-2.64.07-.27.31-.45.59-.45h2.09c.26.01.45.24.4.5-.57,3.03-2.15,4.78-4.75,5.26-6.28,1.17-9.62-2.13-9.71-8.15Z"/>
  <path class="st1" d="M404.99,660.65c.21.55-.15,1.15-.73,1.21l-1.34.16c-.53.07-1.04-.27-1.18-.8-.55-2.05-5.34-2.44-6.43-.34-.41.79.02,1.77.89,2.03,3.83,1.11,6.1,1.81,6.83,2.09,3.96,1.53,3.33,6.22,0,8.11-1.29.73-2.99,1.03-5.08.9-3.43-.21-5.48-1.89-6.15-5.04-.08-.37.18-.73.56-.78l1.61-.19c.44-.05.84.24.95.66.53,2.3,2.33,3.18,5.41,2.66,1.15-.2,1.89-.8,2.22-1.79.26-.8-.25-1.67-1.12-1.91-3.37-.93-6.49-1.43-8.04-2.91-2.15-2.05-1.43-5.39,1.09-6.86.88-.52,2.22-.81,4.02-.87,3.34-.11,5.5,1.11,6.49,3.67Z"/>
  <path class="st1" d="M429.87,673.39c.15.24,0,.55-.28.6-.11.02-.44.02-.98.01-.92-.02-1.39-.03-1.4-.03-.44.07-.68-.44-.72-1.53,0-.29-.35-.45-.59-.27-2.28,1.79-4.95,2.32-8.01,1.58-1.93-.46-3.36-2.39-3.35-4.54,0-5.61,6.97-4.93,10.64-5.99.99-.28,1.36-1.5.69-2.29-2-2.35-6.89-1.92-7.54,1.27-.09.42-.47.73-.9.73h-1.76c-.4,0-.69-.39-.59-.78,1.44-5.54,7.41-6.16,11.81-4.39,4.05,1.61,1.31,12.7,2.98,15.63ZM425.51,665.86c-1.82.11-7.36.48-7.76,3.04-.15.95.44,1.88,1.39,2.19,3.86,1.24,6.83-.63,6.96-4.67,0-.32-.27-.58-.59-.56Z"/>
  <path class="st1" d="M436.07,659.02c2.19-2.68,7.35-2.82,9.55-.21.73.87,1.11,2.4,1.14,4.57.03,2.97.05,6.36.04,10.16,0,.24-.19.44-.43.44h-2.31c-.23,0-.42-.19-.42-.43v-10.8c0-1.97-1.73-3.49-3.68-3.24l-.36.05c-1.96.23-3.43,1.89-3.43,3.86v10.09c-.01.25-.21.46-.46.46h-2.21c-.24,0-.44-.2-.44-.45v-16.05c0-.24.2-.44.44-.44h1.78c.28,0,.5.22.5.5v1.39c0,.15.19.22.29.1Z"/>
  <path class="st1" d="M480.48,660.64c.21.55-.15,1.15-.73,1.22l-1.34.16c-.53.06-1.04-.28-1.18-.8-.55-2.05-5.35-2.44-6.43-.34-.41.79.01,1.77.89,2.03,3.83,1.11,6.1,1.81,6.83,2.09,3.97,1.52,3.34,6.22.01,8.11-1.29.73-2.99,1.04-5.08.91-3.43-.21-5.49-1.89-6.16-5.04-.08-.37.18-.73.56-.78l1.61-.19c.44-.05.85.23.95.66.53,2.29,2.34,3.18,5.42,2.65,1.15-.2,1.89-.8,2.22-1.79.26-.8-.25-1.67-1.13-1.91-3.37-.93-6.49-1.42-8.04-2.9-2.15-2.05-1.44-5.39,1.08-6.87.88-.52,2.22-.81,4.02-.87,3.34-.11,5.51,1.11,6.5,3.66Z"/>
  <path class="st1" d="M483.21,665.66c-.1-6.02,3.14-9.43,9.46-8.45,2.61.4,4.24,2.1,4.9,5.11.06.26-.12.5-.38.51l-2.09.07c-.27,0-.52-.17-.6-.43-.86-2.68-2.71-3.51-5.55-2.48-2.34.86-2.65,3.53-2.61,5.62.03,2.08.42,4.75,2.79,5.52,2.87.94,4.7.06,5.46-2.65.08-.26.32-.45.6-.44h2.08c.26,0,.45.23.4.49-.56,3.03-2.14,4.79-4.74,5.27-6.28,1.17-9.63-2.13-9.72-8.14Z"/>
  <path class="st1" d="M514.18,673.38c.15.25,0,.56-.28.6-.11.02-.44.03-.98.01-.93-.02-1.39-.03-1.4-.03-.44.07-.68-.43-.72-1.52,0-.3-.35-.46-.59-.27-2.28,1.78-4.94,2.3-8,1.56-1.94-.46-3.36-2.39-3.35-4.53.02-5.62,6.97-4.92,10.64-5.98.99-.28,1.36-1.5.69-2.29-2-2.35-6.88-1.92-7.54,1.26-.08.42-.46.73-.9.73h-1.75c-.4-.01-.69-.39-.59-.78,1.44-5.54,7.41-6.15,11.81-4.38,4.05,1.62,1.3,12.7,2.96,15.62ZM509.58,665.66l-7.5,1.83c-.26.07-.42.33-.36.58l.15.6c.49,2.01,2.63,3.21,4.77,2.69l.66-.16c2.15-.52,3.49-2.58,3-4.59l-.14-.59c-.07-.26-.33-.42-.58-.36Z"/>
  <path class="st1" d="M520.64,672.95v6.66c0,.2-.17.37-.38.37h-2.35c-.22,0-.39-.17-.39-.39v-22.08c0-.28.22-.5.49-.5h1.92c.27,0,.48.21.48.48v1.04c0,.23.29.33.43.15.71-.89,1.34-1.38,1.88-1.49,4.46-.84,7.4.66,8.82,4.49,1.49,4.03.58,10.13-4.04,11.9-2.29.87-4.39.57-6.3-.9-.23-.18-.56-.02-.56.27ZM524.84,659.47c-2.46-.06-4.53,2.59-4.62,5.93-.09,3.34,1.84,6.1,4.3,6.16,2.46.06,4.53-2.59,4.62-5.93.09-3.34-1.84-6.1-4.3-6.16Z"/>
  <rect class="st1" x="535.05" y="657.05" width="3.12" height="16.9" rx=".27" ry=".27"/>
  <path class="st1" d="M544.78,658.92c0,.15.19.22.29.1,2.19-2.68,7.35-2.82,9.55-.21.72.87,1.1,2.39,1.14,4.57.03,2.97.05,6.36.04,10.16,0,.24-.19.44-.43.44h-2.31c-.23,0-.42-.2-.42-.43v-10.8c0-1.97-1.73-3.49-3.68-3.24l-.36.05c-1.96.23-3.43,1.89-3.43,3.86v10.09c-.01.25-.21.46-.46.46h-2.21c-.24,0-.44-.2-.44-.45v-16.05c0-.24.2-.44.44-.44h1.78c.27,0,.5.23.5.5v1.39Z"/>
  <path class="st1" d="M570.36,658.46v-1.06c0-.21.17-.38.38-.38h2.22c.22,0,.4.18.4.4-.03,5.89-.03,10.59.01,14.11.07,6.4-3.13,9.19-9.6,8.37-2.68-.33-4.3-1.67-4.86-4-.08-.36.14-.72.5-.8,1.35-.31,2.27-.02,2.75.86,1.2,2.18,4.84,1.65,6.59.81.57-.27.98-.8,1.1-1.42l.43-2.24c.07-.39-.36-.68-.69-.46-3.5,2.28-6.63,1.88-9.39-1.21-3.83-4.28-1.82-13.94,4.83-14.48,1.95-.16,3.59.4,4.91,1.68.16.15.42.04.42-.18ZM565.95,659.45c-2.5.01-4.52,2.73-4.51,6.08.01,3.34,2.05,6.05,4.55,6.04,2.5-.01,4.52-2.73,4.51-6.08-.01-3.34-2.05-6.05-4.55-6.04Z"/>
  <path class="st1" d="M576.52,665.61c-.07-6.01,3.2-9.4,9.5-8.39,2.61.42,4.23,2.13,4.88,5.14.05.26-.14.5-.39.5l-2.09.06c-.27.01-.52-.17-.6-.43-.84-2.68-2.68-3.52-5.53-2.5-2.35.84-2.66,3.51-2.64,5.59.02,2.08.39,4.75,2.76,5.54,2.86.95,4.69.08,5.47-2.62.08-.26.32-.44.6-.44h2.08c.26.01.45.25.4.5-.58,3.03-2.17,4.78-4.77,5.25-6.28,1.13-9.61-2.18-9.67-8.2Z"/>
  <path class="st1" d="M607.71,666.74c.04,3.95-3.12,7.18-7.07,7.22h-1.4c-3.95.06-7.18-3.11-7.22-7.06l-.03-2.62c-.04-3.95,3.12-7.18,7.07-7.22h1.4c3.95-.06,7.18,3.11,7.22,7.06l.03,2.62ZM599.83,659.42c-2.68,0-4.85,2.72-4.85,6.08s2.17,6.08,4.85,6.08,4.85-2.72,4.85-6.08-2.17-6.08-4.85-6.08Z"/>
  <path class="st1" d="M618.52,665.63c-.07-6.01,3.18-9.41,9.49-8.41,2.6.41,4.23,2.12,4.88,5.13.05.26-.13.5-.38.5l-2.09.07c-.28,0-.53-.17-.6-.44-.85-2.68-2.69-3.51-5.54-2.49-2.35.84-2.66,3.52-2.63,5.6.02,2.08.4,4.75,2.77,5.53,2.87.95,4.69.08,5.47-2.62.07-.27.31-.45.59-.45h2.09c.25.01.44.25.4.5-.58,3.03-2.16,4.78-4.76,5.25-6.28,1.15-9.62-2.16-9.69-8.17Z"/>
  <path class="st1" d="M650.04,666.75c.02,3.96-3.18,7.2-7.14,7.22h-1.34c-3.96.02-7.19-3.17-7.22-7.14v-2.56c-.04-3.96,3.16-7.2,7.13-7.22h1.34c3.96-.02,7.19,3.17,7.22,7.14v2.56ZM646.77,663.87c0-2.35-1.89-4.26-4.24-4.26h-.72c-2.35,0-4.25,1.89-4.26,4.24v3.26c-.01,2.35,1.89,4.26,4.24,4.26h.72c2.35,0,4.25-1.89,4.26-4.24v-3.26Z"/>
  <path class="st1" d="M656.13,658.6c.48-.27.94-.51,1.38-.73,3.18-1.56,5.66-1.17,7.45,1.18.19.25.57.25.76,0,.97-1.27,2.3-1.95,4-2.05,5.17-.3,5.96,2.89,5.94,7.59,0,4.19,0,7.17.01,8.96.01.24-.18.43-.42.43h-2.3c-.23,0-.42-.19-.42-.42v-11.21c0-1.7-1.51-3.01-3.19-2.76l-.49.08c-1.75.26-3.05,1.76-3.05,3.54v10.29c0,.27-.21.48-.48.48h-2.22c-.25,0-.45-.2-.45-.45v-11.32c0-1.67-1.51-2.93-3.15-2.63l-.48.09c-1.77.32-3.05,1.86-3.05,3.66v10.17c0,.26-.21.47-.47.47h-2.21c-.24,0-.44-.19-.44-.43v-16.11c0-.23.18-.41.41-.41h1.92c.25,0,.45.2.45.45v.84c0,.26.28.42.5.29Z"/>
  <rect class="st1" x="611.5" y="670.7" width="2.96" height="3.6" rx=".39" ry=".39" transform="translate(-63.78 1280.77) rotate(-89.6)"/>
</svg>