<?xml version="1.0" encoding="UTF-8"?>
<svg xmlns="http://www.w3.org/2000/svg" version="1.1" viewBox="0 0 1250 833">
  <!-- Generator: Adobe Illustrator 29.5.1, SVG Export Plug-In . SVG Version: 2.1.0 Build 141)  -->
  <defs>
    <style>
      .st0 {
        fill: #fff;
      }

      .st1 {
        fill: #b72025;
      }

      .st2 {
        fill: #f9b816;
      }

      .st3 {
        fill: #e21f26;
      }
    </style>
  </defs>
  <g id="Layer_2">
    <rect class="st3" x="0" width="1020.49" height="833"/>
  </g>
  <g id="Layer_1">
    <path class="st2" d="M833.44,0c5.29,9.11,9.38,18.39,12.25,27.84.69,3.11,1.36,6.1,2.01,8.95.77,3.33,1.31,6.34,1.64,9.03,2.09,17.03,2.32,33.18.69,48.46-.62,5.81-2.14,13.2-4.56,22.18-1.15,3.61-2.28,7.24-3.38,10.9-.61,2.03-.33,4.09.82,6.2.07.13.12.27.14.42l1.19,8.27c2.33,12.74,4.38,23.92,11.56,34.39,3.38,4.75,7.32,8.41,11.82,10.98,4.33,2.47,8.04,4.14,11.15,4.99,6.26,1.71,13.51,2.57,21.76,2.6,11.87-.69,23.78-1.47,35.74-2.36,5.53-.41,12.59.14,21.17,1.64,8.03,1.58,15.42,4.22,22.15,7.93,12.31,6.78,20.73,16.92,25.26,30.42.35,1.04.8,3.16,1.34,6.36.49,8.11.52,15.88.1,23.3-.11,1.83-.37,4.21-.79,7.12-.81,6.69-2.33,12.22-4.56,16.57-2.86,5.55-7.42,10.01-13.68,13.36l-9.71,2.46c-.25.06-.48-.12-.49-.37l-.22-22.44c-.01-.5.34-.93.83-1.03,12.93-2.53,21.71-9.97,26.34-22.32.12-.34.14-.71.04-1.06-1.34-4.57-3.6-8.96-6.78-13.17-10.21-13.52-24.01-21.28-41.4-23.27-16.73-1.92-35.13-.4-50.61.46-10.47.58-20.55-.93-30.24-4.52-11.9-4.41-21.03-13.87-25.72-26.27-4.48-11.87-5.46-23.63-9.66-36.64l-3.51-10.03c-.12-.32-.56-.37-.74-.08-3.63,5.81-7.46,11.19-11.49,16.13-8.51,10.42-18.33,18.89-29.47,25.42-4.76,2.78-9.28,4.82-14.53,6.29-3.07.85-6.13,1.74-9.18,2.65-9.78,1.61-18.82.77-27.13-2.54-11.59-4.61-18.6-13.34-21.04-26.2-.47-2.52-.76-5.68-.86-9.48-.21-7.76.04-15.13.75-22.1,2.05-20.19,11.12-36.22,29.69-45.32,11.38-5.58,23.51-7.51,36.39-5.78,6.84,1.54,12.4,3.2,16.67,4.99,10.19,4.27,18.63,11.14,25.32,20.63,1.85,2.61,3.63,5.35,5.36,8.22.21.35.73.32.9-.05l3.13-6.55c2.57-5.72,4.35-10.34,5.32-13.85,1.02-3.69,2.29-9.81,3.8-18.34.62-3.51.68-6.21.18-8.1-1.47-5.52-2.84-13.45-5.09-20.16-2.49-7.42-5.7-14.37-9.63-20.85-5.66-9.34-13.06-16.87-22.19-22.59-1.13-.71-2.74-1.14-4.83-1.31.21,0,.33-.1.38-.32.05-.19-.07-.39-.26-.44-3.65-.95-4.31-1.49-1.96-1.62h27.82ZM732.99,125.99c-4.64,5.83-7.57,12.29-8.78,19.4-.06.32-.03.65.08.96,1.51,4.29,4.03,8.27,7.56,11.96,4.1,4.18,9.19,7.1,15.27,8.76,5.12,1.39,10.41,1.85,15.88,1.38,9.82-.79,18.82-3.28,26.99-7.47,13.02-6.67,24.51-16.09,34.48-28.26,1.06-1.3,2.09-2.79,3.08-4.48.4-.67.32-1.53-.19-2.12-11.49-13.43-26.17-20.86-44.04-22.3-8.49-.38-15.85.53-22.09,2.74-5.1,1.8-8.51,3.16-10.22,4.08-7.15,3.85-13.16,8.97-18.02,15.35Z"/>
    <path class="st1" d="M843.16,0l2.58,2.36c.89,3.55,3.25,6.76,4.36,9.5,2.04,5.01,3.59,8.87,4.65,11.59,1.51,3.89,3.12,10.65,4.83,20.26.63,3.54.52,6.71,1.05,10.27.31,2.1.55,4.68.72,7.74.69,13.01.21,25.18-1.46,36.5-.14.97-.89,4.97-2.24,12.02-1.24,6.49-3.47,11.41-5.59,18.29-.56,1.81,1.15,5.67,1.51,7.79,1.78,10.27,3.59,18.69,5.42,25.25,1.23,4.41,3.48,9.49,6.73,15.24.21.35.45.68.74.97,4.77,4.83,8.34,7.89,10.71,9.2,3.63,2,6.93,3.63,9.89,4.89,2.25.96,5.97,1.62,11.16,1.99.68.05,1.45.5,2.31,1.35-8.25-.03-15.5-.89-21.76-2.6-3.11-.85-6.82-2.52-11.15-4.99-4.5-2.57-8.44-6.23-11.82-10.98-1.48-10.06-3.85-19.79-7.11-29.18-.71-2.06-1.61-4.02-2.69-5.89-.37-.64-1.31-.56-1.56.13l-.2.55-1.19-8.27c-.02-.15-.07-.29-.14-.42-1.15-2.11-1.43-4.17-.82-6.2,1.1-3.66,2.23-7.29,3.38-10.9,1.44-2.38,3.14-4.56,4.21-7.02,2.91-6.69,5.34-13.67,7.29-20.92.96-3.58,1.13-6.73,2.05-10.7.35-1.54.63-4.08.84-7.63.04-.77-.05-1.54-.27-2.27-1.54-5.21-1.88-11-3.69-16.53-2.21-6.74-3.83-11.88-7.29-18.46-.8-1.52-1.77-3.22-2.92-5.09-2.87-9.45-6.96-18.73-12.25-27.84h9.72Z"/>
    <path class="st3" d="M845.47,116.46c2.42-8.98,3.94-16.37,4.56-22.18,1.63-15.28,1.4-31.43-.69-48.46-.33-2.69-.87-5.7-1.64-9.03-.65-2.85-1.32-5.84-2.01-8.95,1.15,1.87,2.12,3.57,2.92,5.09,3.46,6.58,5.08,11.72,7.29,18.46,1.81,5.53,2.15,11.32,3.69,16.53.22.73.31,1.5.27,2.27-.21,3.55-.49,6.09-.84,7.63-.92,3.97-1.09,7.12-2.05,10.7-1.95,7.25-4.38,14.23-7.29,20.92-1.07,2.46-2.77,4.64-4.21,7.02Z"/>
    <ellipse class="st2" cx="473.35" cy="69.88" rx="12.05" ry="15.94"/>
    <path class="st2" d="M350.33,174.54c0-.12-.09-.22-.21-.24s-.23.06-.27.17c-1.4,5.19-5.36,10.7-11,11.97-20.26,4.57-27.12-24.87-27.9-38.96-.9-15.94-.63-44.1,15.63-53.53,8.47-4.91,19.16-.9,22.45,8.24.06.15.21.23.36.21.15-.03.26-.16.26-.31v-46.85c0-.4.32-.72.73-.72h20.68c.27-.01.49.21.49.48l.02,128.01c0,.37-.3.67-.68.67h-20.14c-.23,0-.42-.19-.42-.42v-8.72ZM332.21,139.4c0,5.56.44,25.33,9.25,25.33,8.81,0,9.24-19.78,9.24-25.34s-.44-25.33-9.25-25.33-9.24,19.77-9.24,25.34Z"/>
    <path class="st2" d="M424.18,174.55c0-.12-.09-.23-.21-.25-.12-.01-.24.06-.27.18-1.4,5.19-5.37,10.7-11.01,11.97-20.26,4.56-27.12-24.88-27.9-38.98-.9-15.94-.62-44.1,15.64-53.53,8.48-4.91,19.17-.9,22.46,8.24.05.15.2.24.36.21.15-.02.26-.16.26-.31v-46.86c0-.4.33-.72.73-.72h20.69c.27,0,.49.22.49.49v128.03c0,.37-.3.67-.68.67h-20.14c-.23,0-.42-.19-.42-.42v-8.72ZM406.06,139.4c0,5.56.44,25.32,9.25,25.32s9.23-19.76,9.23-25.33-.44-25.32-9.25-25.32-9.23,19.77-9.23,25.33Z"/>
    <path class="st2" d="M185.71,102.91l-11.8,80.06c-.06.41-.42.72-.83.72h-22.57c-.29,0-.54-.22-.59-.51l-18.4-119.93c-.06-.44.28-.83.72-.83h21.42c.29,0,.54.22.57.51l10.21,83.47c.02.14.14.25.28.25.15,0,.27-.11.29-.25l10.65-83.33c.05-.37.36-.64.73-.64h20.28c.41,0,.76.3.81.7l11.11,83.07c.02.13.13.22.26.22s.23-.09.25-.22l9.94-83.29c.03-.28.26-.49.54-.49h20.64c.3,0,.53.27.48.56l-18.57,120.11c-.06.35-.35.6-.7.6h-22.46c-.33,0-.6-.24-.65-.56l-12.31-80.22c0-.07-.07-.13-.15-.13s-.14.06-.15.13Z"/>
    <path class="st1" d="M839.9,107.58l-3.13,6.55c-.17.37-.69.4-.9.05-1.73-2.87-3.51-5.61-5.36-8.22-6.69-9.49-15.13-16.36-25.32-20.63-4.27-1.79-9.83-3.45-16.67-4.99,7.38-.21,14.64.82,21.77,3.07,5.64,1.78,10.85,4.35,15.64,7.71,4.83,3.39,9.12,7.34,12.86,11.84.97,1.17,1.34,2.71,1.11,4.62Z"/>
    <path class="st2" d="M522.94,105.42c0,.15.11.27.26.29.15.02.28-.08.32-.22,1.91-7.4,7.77-13.99,15.65-14.76,9.96-.96,16.09,5.19,18.6,14.27,1.1,4,1.74,7.26,1.93,9.77.35,4.55.74,10.41.74,15.32,0,18.97,0,36.65-.01,53.04,0,.31-.25.56-.56.56h-20.97c-.3,0-.54-.24-.54-.54.01-21.93.01-40.74,0-56.45,0-2.69-.5-4.87-1.1-7.68-.78-3.62-3.49-5.75-7.25-4.68-5.09,1.45-6.61,9.93-6.62,14.35-.03,17.4-.03,35.54-.02,54.41,0,.32-.26.58-.57.58h-21.18c-.22,0-.39-.17-.39-.39v-88.58c0-.35.29-.64.64-.64h20.54c.23,0,.41.19.42.42l.11,10.93Z"/>
    <path class="st2" d="M301.6,145.75h-35.13c-.41,0-.74.33-.74.74,0,5.9,2.66,19.91,11.63,18.08,3.69-.76,6.42-5.76,7.42-9.06.1-.32.47-.45.74-.26l15.01,10.43c.28.2.4.56.28.88-2.3,6.16-5.81,11.22-10.52,15.19-7.06,5.94-18.38,6.66-26.69,2.44-20.71-10.52-21.39-45.99-17.07-64.73,3.89-16.94,16.03-33.33,35.52-27.38,11.7,3.58,17.29,17.41,18.92,28.23,1.24,8.25,1.67,16.52,1.29,24.81-.02.35-.31.63-.66.63ZM266.3,127.59l15.24.45c.27.01.5-.21.51-.48l.04-1.4c.25-8.3-3.1-15.14-7.47-15.27h-.4c-4.37-.14-8.11,6.48-8.36,14.79l-.04,1.4c-.01.27.21.5.48.51Z"/>
    <path class="st2" d="M611.49,103.98c.04.16.19.27.35.25.17-.02.29-.15.29-.32v-9.35c0-.27.22-.49.49-.49h19.72c.35,0,.64.29.64.64.03,57.43.01,87.36-.05,89.77-.25,10.21-3.51,24.72-10.63,31.99-5.68,5.81-13.25,8.45-21.37,8.37-10.05-.09-18.95-3.66-26.68-10.7-.48-.44-.6-1.14-.3-1.72l9.39-18.05c.17-.32.6-.39.85-.13,5.68,5.8,13.88,10.14,21.43,5.4.26-.16.5-.35.73-.56,5.63-5.26,6.17-17.86,5.52-25.35-.02-.23-.33-.27-.42-.06-4.47,10.37-15.79,15-25.35,7.53-15.19-11.86-15.1-43.13-12.34-60.71,1.66-10.57,6.59-24.21,17.52-28.4,5.57-2.13,12.61-.91,16.45,4.23,1.95,2.6,3.2,5.15,3.76,7.66ZM594,138.34c0,5.58.58,24.27,9.27,24.27s9.26-18.69,9.26-24.27-.58-24.28-9.27-24.28-9.26,18.7-9.26,24.28Z"/>
    <rect class="st2" x="462.09" y="94.3" width="22.32" height="89.4" rx=".58" ry=".58"/>
    <path class="st1" d="M783.32,103.82c-6.28,1.07-11.24,2.29-14.87,3.67-3.94,1.51-8.4,3.97-13.37,7.38-4.6,3.17-8.28,6.64-11.05,10.42-4,5.47-9.09,12.99-8.98,19.34.13,7.94,9,16.23,15.52,19.95,3.44,1.95,8.29,2.7,12.43,3.87-5.47.47-10.76.01-15.88-1.38-6.08-1.66-11.17-4.58-15.27-8.76.16-7.66.36-15.15.59-22.48.12-3.64.88-6.5,1.67-9.81.04-.17-.14-.3-.29-.22-.14.08-.25.22-.33.42-.01.04-.05.06-.09.07-.15.03-.29-.07-.41-.3,4.86-6.38,10.87-11.5,18.02-15.35,1.71-.92,5.12-2.28,10.22-4.08,6.24-2.21,13.6-3.12,22.09-2.74Z"/>
    <path class="st3" d="M783.32,103.82c17.87,1.44,32.55,8.87,44.04,22.3.51.59.59,1.45.19,2.12-.99,1.69-2.02,3.18-3.08,4.48-9.97,12.17-21.46,21.59-34.48,28.26-8.17,4.19-17.17,6.68-26.99,7.47-4.14-1.17-8.99-1.92-12.43-3.87-6.52-3.72-15.39-12.01-15.52-19.95-.11-6.35,4.98-13.87,8.98-19.34,2.77-3.78,6.45-7.25,11.05-10.42,4.97-3.41,9.43-5.87,13.37-7.38,3.63-1.38,8.59-2.6,14.87-3.67Z"/>
    <path class="st3" d="M266.3,127.59c-.27,0-.49-.24-.48-.51l.04-1.4c.25-8.31,3.99-14.93,8.36-14.8h.4c4.37.14,7.72,6.98,7.47,15.28l-.04,1.4c0,.27-.24.49-.51.48l-15.24-.45Z"/>
    <path class="st3" d="M341.45,114.06c8.81,0,9.25,19.77,9.25,25.33s-.43,25.33-9.24,25.34c-8.81,0-9.25-19.77-9.25-25.33s.43-25.34,9.24-25.34Z"/>
    <path class="st3" d="M406.06,139.4c0-5.56.42-25.33,9.23-25.33s9.25,19.76,9.25,25.32-.43,25.33-9.23,25.33-9.25-19.76-9.25-25.32Z"/>
    <path class="st3" d="M603.26,114.06c8.69,0,9.27,18.69,9.27,24.28s-.58,24.27-9.26,24.27-9.27-18.69-9.27-24.27.57-24.28,9.26-24.28Z"/>
    <path class="st3" d="M731.85,158.31c-3.53-3.69-6.05-7.67-7.56-11.96-.11-.31-.14-.64-.08-.96,1.21-7.11,4.14-13.57,8.78-19.4.12.23.26.33.41.3.04-.01.08-.03.09-.07.08-.2.19-.34.33-.42.15-.08.33.05.29.22-.79,3.31-1.55,6.17-1.67,9.81-.23,7.33-.43,14.82-.59,22.48Z"/>
    <path class="st1" d="M839.64,151.38c-4.46,4.33-8.62,8.84-12.48,13.51-2.97,3.59-5.41,6.16-7.33,7.7-7.36,5.91-15.3,10.83-23.83,14.75-2.14.98-4.64,1.81-7.51,2.48-2.41.56-5,1.12-7.75,1.69-3.43.71-6.77.8-10.02.25,3.05-.91,6.11-1.8,9.18-2.65,5.25-1.47,9.77-3.51,14.53-6.29,11.14-6.53,20.96-15,29.47-25.42,4.03-4.94,7.86-10.32,11.49-16.13.18-.29.62-.24.74.08l3.51,10.03Z"/>
    <path class="st3" d="M855.8,176.64c-7.18-10.47-9.23-21.65-11.56-34.39l.2-.55c.25-.69,1.19-.77,1.56-.13,1.08,1.87,1.98,3.83,2.69,5.89,3.26,9.39,5.63,19.12,7.11,29.18Z"/>
    <path class="st1" d="M987.26,299.55c6.26-3.35,10.82-7.81,13.68-13.36,2.23-4.35,3.75-9.88,4.56-16.57,4.01-3.67,6.87-8.15,8.57-13.42.15-.45.17-.93.05-1.39-1.01-4-2.4-7.27-4.16-9.81-2.05-2.97-3.31-4.91-3.77-5.8-.54-3.2-.99-5.32-1.34-6.36-4.53-13.5-12.95-23.64-25.26-30.42-6.73-3.71-14.12-6.35-22.15-7.93-.63-.44-.37-.85.79-1.22.29-.1.6-.13.91-.08,7.29,1.14,14.63,2.84,22.03,5.1.47.14.91.36,1.29.66l.87.67c.15.11.31.2.49.26,6.45,2.27,12.3,5.86,17.57,10.77,10.12,9.44,15.34,21.12,15.65,35.05.31,13.41.2,25.02-4.06,36.85-2.58,7.15-8.56,14.35-15.52,17.31-1.47.62-4.46,1.28-8.97,1.97-.2.03-.41,0-.59-.12-.65-.39-.86-1.11-.64-2.16Z"/>
    <path class="st3" d="M1005.5,269.62c.42-2.91.68-5.29.79-7.12.42-7.42.39-15.19-.1-23.3.46.89,1.72,2.83,3.77,5.8,1.76,2.54,3.15,5.81,4.16,9.81.12.46.1.94-.05,1.39-1.7,5.27-4.56,9.75-8.57,13.42Z"/>
    <path class="st0" d="M516.95,322.76l12.64,3.12c.32.08.51.4.43.72l-30.72,121.29c-.08.32-.39.51-.71.43l-12.63-3.12c-.32-.08-.51-.4-.43-.72l30.71-121.29c.08-.32.39-.51.71-.43Z"/>
    <path class="st0" d="M95.66,431.93l12.62-18.16c.17-.24.51-.27.72-.07,5.69,5.62,15.81,10.78,23.15,6.81,4.03-2.18,5.75-6.18,5.17-11.99-.56-5.61-7.67-9.7-12.4-12.02-12.45-6.09-22.36-12.42-24.46-27.22-.33-2.35-.41-5.34-.24-8.98.51-11.03,5.17-20.42,14.48-26.54,8.04-5.29,17.18-6.56,26.52-5.54,8.57.94,15.96,4.34,22.19,10.19.43.4.49,1.05.16,1.53l-12.22,17.59c-.31.44-.94.48-1.3.09-5.79-6.25-15.27-9.32-22.49-3.02-.38.33-.68.74-.88,1.2-3.28,7.59-1.39,13.36,5.66,17.29,6.12,3.41,13.45,6.7,18.3,10.63,9.55,7.75,13.52,18,11.91,30.76-2.87,22.73-21.3,33.45-42.98,30-8.97-1.43-16.9-5.27-23.79-11.51-.3-.27-.35-.71-.12-1.04Z"/>
    <path class="st0" d="M589.84,398h-10.98c-.33,0-.6-.27-.6-.6v-21.05c0-.2.16-.36.36-.36h34.03c.3,0,.55.25.55.56v58.81c0,.34-.16.66-.44.85-10.11,7.11-20.57,9.04-32.76,8.82-18.3-.33-31.84-11.91-38.38-28.4-2.88-7.25-4.57-15.42-5.06-24.51-.69-12.71.94-24.36,4.9-34.94,5.51-14.71,17.14-26.96,32.81-28.89,2.21-.27,5.1-.37,8.65-.3,11.43.24,21.14,4.29,28.72,13,.23.26.24.64.04.91l-13.3,17.74c-.28.37-.83.36-1.09-.02-2.65-3.79-5.75-6.55-10.33-7.85-13.31-3.79-20.94,8.26-23.21,19.26-1.55,7.51-1.91,15.62-1.1,24.35.76,8.16,3.24,17.69,9.79,23.13,5.02,4.16,11.8,4.38,17.46,1.39.3-.15.49-.46.49-.8v-20.55c0-.3-.25-.55-.55-.55Z"/>
    <path class="st0" d="M858.39,412.61c.12-.15.34-.15.46,0l13.7,16.81c.25.31.26.75.01,1.07-6.24,8.13-14.25,12.9-24.02,14.29-4.05.58-12.16.58-16.73-.7-31.58-8.78-38.01-47.8-32.78-75.04,3.65-19.02,15.13-37.06,35.13-40.61,2.93-.51,6.79-.63,11.6-.36,10.87.63,19.78,5.12,26.71,13.45.2.24.21.59.02.84l-13.17,17.56c-.26.35-.78.33-1.02-.03-2.74-4.09-6.74-7.62-11.83-8.5-15.94-2.76-21.54,15.23-22.77,27.24-1.28,12.54,0,36.89,14.64,42.33,3.01,1.12,5.98,1.27,8.9.46,5.15-1.42,7.9-4.68,11.15-8.8Z"/>
    <path class="st0" d="M199.32,330.98c20.2-.01,31.28,0,33.23.07.13.01.23.11.23.24v20.11c0,.33-.27.59-.6.59h-19.34c-.35,0-.64.29-.64.65v88.85c0,.21-.17.39-.38.41-.9.06-5.05.1-12.45.1-7.4.01-11.55-.02-12.45-.09-.22-.02-.38-.19-.38-.41l-.09-88.85c0-.36-.28-.65-.64-.65l-19.34.02c-.33,0-.6-.26-.6-.59l-.02-20.11c0-.13.11-.23.24-.24,1.94-.06,13.02-.1,33.23-.1Z"/>
    <path class="st0" d="M293.94,396h-26.91c-.23,0-.42.19-.42.42v22.15c0,.23.19.42.42.42h31.16c.23,0,.42.19.42.42v22.17c0,.23-.19.42-.42.42h-56.13c-.23,0-.42-.19-.42-.42v-110.18c0-.23.19-.42.42-.42h54.13c.23,0,.42.19.42.42v22.18c0,.23-.19.42-.42.42h-29.16c-.23,0-.42.19-.42.42v20.15c0,.23.19.42.42.42h26.91c.23,0,.42.19.42.42v20.17c0,.23-.19.42-.42.42Z"/>
    <path class="st0" d="M387.26,441.62c.07.18-.07.38-.27.38h-26.29c-.37,0-.7-.23-.82-.58l-14.75-42.9c-.1-.3-.39-.51-.72-.51h-5.69c-.29,0-.53.24-.53.53v42.98c0,.27-.22.48-.49.48h-24.06c-.27,0-.48-.21-.48-.47v-110.15c0-.22.18-.39.4-.39,12.44-.04,25.25-.04,38.44,0,16.05.05,28.94,8.66,31.64,25.17,2.33,14.26-.85,29.24-14.58,36.22-.2.1-.29.33-.21.53l18.41,48.71ZM338.12,352.38l.1,27.08c0,.22.18.4.41.4l7.38-.02c6.9-.03,12.47-5.41,12.45-12.04l-.02-3.92c-.02-6.62-5.63-11.97-12.53-11.94l-7.38.02c-.23,0-.41.19-.41.42Z"/>
    <path class="st0" d="M421.34,375.12l.67,66.16c0,.4-.31.72-.71.72h-22.28c-.23,0-.42-.19-.42-.42v-109.94c0-.36.3-.65.66-.65h27.46c.37,0,.71.23.85.58l25.46,67.38c.04.1.19.07.19-.04l-.68-67.3c-.01-.34.27-.62.61-.62h21.42c.34,0,.61.27.61.61v109.61c0,.44-.35.79-.79.79h-26.64c-.43,0-.81-.27-.96-.67l-25.05-66.28c-.08-.22-.4-.16-.4.07Z"/>
    <path class="st0" d="M647.31,330.98h32.02c.16,0,.31.11.35.27l27.04,110.3c.06.23-.12.45-.35.45h-26.3c-.16,0-.31-.11-.35-.27l-4.76-19.45c-.04-.16-.19-.27-.35-.27h-23.83c-.16,0-.31.11-.35.27l-4.79,19.46c-.04.16-.19.27-.35.27h-25.15c-.23,0-.41-.22-.35-.45l27.17-110.31c.04-.16.19-.27.35-.27ZM662.55,403c5.32.02,8.22.02,8.7.01.33-.01.57-.32.51-.64l-8.81-46.83c-.02-.08-.05-.15-.09-.16-.03,0-.07-.01-.1-.01-.04,0-.08,0-.11.01-.04.01-.08.07-.1.16l-9.2,46.75c-.06.33.18.63.51.64.48.02,3.38.04,8.69.07Z"/>
    <path class="st0" d="M790.24,441.62c.07.18-.07.38-.27.38h-26.28c-.37-.01-.7-.24-.82-.59l-14.75-42.89c-.1-.31-.39-.51-.72-.51h-5.69c-.29,0-.53.24-.53.53v42.97c0,.27-.22.48-.49.48h-24.06c-.26,0-.48-.21-.48-.47v-110.13c0-.22.19-.39.41-.39,12.44-.04,25.25-.04,38.43,0,16.05.05,28.94,8.66,31.64,25.17,2.33,14.25-.85,29.23-14.58,36.21-.2.1-.29.33-.21.53l18.4,48.71ZM741.24,352.37l-.1,27c0,.26.21.47.46.47l7.28.02c6.92.03,12.54-5.33,12.56-11.96l.02-3.9c.02-6.64-5.57-12.03-12.48-12.06l-7.28-.02c-.26,0-.46.2-.46.45Z"/>
    <rect class="st0" x="883.26" y="330.99" width="26.24" height="111" rx=".46" ry=".46"/>
    <path class="st0" d="M919.28,442c-.3,0-.52-.29-.45-.58l27.07-109.85c.08-.34.38-.57.72-.57h31.47c.31,0,.57.2.64.5l26.97,110.04c.06.23-.11.45-.35.45h-26.16c-.33.01-.61-.22-.68-.53l-4.35-18.94c-.07-.31-.35-.53-.67-.53h-23.43c-.45.01-.83.32-.93.76l-4.22,18.7c-.07.31-.36.54-.68.54h-24.95ZM961.56,402.99c5.31.02,8.21.02,8.7.01.33-.01.57-.31.5-.64l-8.82-46.83c-.02-.08-.05-.14-.09-.15-.03-.01-.07-.02-.1-.02-.04,0-.08.01-.11.02-.04.01-.08.07-.09.15l-9.19,46.76c-.07.32.17.63.5.64.49.02,3.39.04,8.7.06Z"/>
    <path class="st3" d="M338.12,352.38c0-.23.18-.42.41-.42l7.38-.02c6.9-.03,12.51,5.32,12.53,11.94l.02,3.92c.02,6.63-5.55,12.01-12.45,12.04l-7.38.02c-.23,0-.41-.18-.41-.4l-.1-27.08Z"/>
    <path class="st3" d="M741.24,352.37c0-.25.2-.45.46-.45l7.28.02c6.91.03,12.5,5.42,12.48,12.06l-.02,3.9c-.02,6.63-5.64,11.99-12.56,11.96l-7.28-.02c-.25,0-.46-.21-.46-.47l.1-27Z"/>
    <path class="st3" d="M662.76,355.37s.07.01.1.01c.04.01.07.08.09.16l8.81,46.83c.06.32-.18.63-.51.64-.48,0-3.38,0-8.7-.01-5.31-.03-8.21-.05-8.69-.07-.33,0-.57-.31-.51-.64l9.2-46.75c.02-.09.06-.15.1-.16.03-.01.07-.01.11-.01Z"/>
    <path class="st3" d="M961.56,402.99c-5.31-.02-8.21-.04-8.7-.06-.33,0-.57-.32-.5-.64l9.19-46.76c.01-.08.05-.14.09-.15.03-.01.07-.02.11-.02.03,0,.07.01.1.02.04.01.07.07.09.15l8.82,46.83c.07.33-.17.63-.5.64-.49.01-3.39.01-8.7-.01Z"/>
    <path class="st2" d="M989.02,716.15c-.45,6.86-7.11,12.7-14.55,11.92-9.45-1-20.9-1.98-20.09-14.21.8-12.23,12.28-11.69,21.78-11.44,7.48.2,13.31,6.86,12.86,13.73Z"/>
    <path class="st2" d="M944.66,745.72c2.78-.57,5.25-.31,7.4.76,11.06,5.5,18.51,9.5,22.34,12,4.39,2.87,6.46,7.19,6.21,12.96-.3,7.16-5.12,13.9-12.89,13.26-1.71-.15-3.71-.91-6.01-2.3-5.51-3.33-10.67-7.55-15.48-12.64-3.74-3.97-7.31-8.95-7.64-14.74-.25-4.23,1.49-8.36,6.07-9.3Z"/>
    <path class="st2" d="M925.32,795.08c-2.32.29-4.39-.42-6.2-2.12-2.09-1.96-4.01-4.84-4.96-7.91-1.22-3.99-2.82-8.97-4.81-14.92-1.32-3.94-1.79-6.92-1.41-8.93,1.62-8.61,10.62-13.74,17.03-5.47.19.25.35.52.47.81,4.29,10.69,6.84,17.11,7.65,19.28.56,1.48.89,3.92.99,7.31.17,5.53-2.99,11.23-8.76,11.95Z"/>
    <rect class="st0" x="1020.49" y="0" width="229.51" height="833"/>
  </g>
</svg>