<?xml version="1.0" encoding="UTF-8"?>
<svg id="Layer_1" xmlns="http://www.w3.org/2000/svg" version="1.1" viewBox="0 0 2304 1728">
  <!-- Generator: Adobe Illustrator 29.5.1, SVG Export Plug-In . SVG Version: 2.1.0 Build 141)  -->
  <defs>
    <style>
      .st0 {
        fill: #0c440d;
      }

      .st1 {
        fill: #fff;
      }

      .st2 {
        fill: #062c07;
      }
    </style>
  </defs>
  <rect class="st2" y="670.97" width="2304" height="464.07"/>
  <path class="st1" d="M2304,0v670.95l-2304,.02V0h2304ZM744.22,506.1c-1.25,1.11-2.72,1.82-4.41,2.14-4.2.78-8.22,1.45-12.97,1.68-4.12.19-8.11.55-11.99,1.08-.24.03-.4.23-.4.46v10c0,.17.13.3.3.3h137.37c.64,0,1.17-.53,1.17-1.17v-8.48c0-.72-.61-1.29-1.33-1.24-1.07.09-2.51-.01-4.31-.3-14.41-2.33-20.05-13.55-25.89-25.65-5.88-12.18-11.38-24.39-16.53-36.62-4.96-11.82-8.01-19.03-9.15-21.62-.03-.07-.5-1.17-1.41-3.32-8.42-19.88-13.69-32.2-15.84-36.96-.74-1.65-1.24-2.89-1.47-3.71-.24-.82-.47-1.51-.7-2.01l-53.17-124.36c-.04-.12-.08-.25-.09-.37-.1-.87-.33-1.7-.69-2.51-2.73-6.16-4.96-11.1-6.71-14.81-.56-1.19-.46-2.01-.85-3.25-.06-.19-1.41-3.14-4.05-8.82-.16-.35-.51-.57-.89-.57h-10.27c-.54,0-1.02.33-1.23.83-8.77,21.49-40.98,100.83-96.62,238.05-2.83,7-6.58,15.24-11.25,24.75-6.01,12.23-15.49,19.23-28.46,21-.33.04-.57.33-.57.66v9.98c0,.27.22.5.5.5h86.12c.17,0,.31-.13.31-.3v-10.21c0-.2-.15-.36-.35-.38-11.71-1.29-19.11-1.73-27.19-5.69-7.39-3.62-8.61-9.93-6.67-17.87.92-3.79,2.27-8.22,4.04-13.28.93-2.65,5.55-14.8,13.86-36.44.09-.24.32-.39.57-.39h95.21c.36,0,.69.21.83.54,4.51,10.05,8.88,20.83,13.1,32.37,2.91,7.95,4.96,14.97,6.14,21.04,1.25,6.45-.11,11.44-4.08,14.96ZM1713.32,464.89c-.75-2.01-3.51-8.2-8.26-18.58-.16-.35-.28-.7-.38-1.07-.44-1.63-.81-2.78-1.11-3.44-3.51-7.55-6.2-13.8-8.07-18.75-.98-2.56-3.52-8.34-7.65-17.31-1.01-2.2-1.25-4.53-2.33-6.72-2.47-4.96-4.6-9.68-6.37-14.14-1.56-3.95-3.54-8.72-5.96-14.31-4.85-11.24-9.52-22.29-14-33.14-1.46-3.54-4.31-10.05-8.55-19.49-.11-.24-.16-.49-.12-.74.03-.24.02-.41-.02-.51-4.68-10.43-8.26-18.64-10.74-24.62-2.1-5.04-4.44-10.65-7.03-16.85-.38-.92-.75-1.78-1.12-2.58-2.06-4.51-3.99-9.01-5.82-13.5-4.94-12.15-9.26-21.53-13.49-32.4-.17-.45-.6-.74-1.08-.74h-10.63c-.4,0-.76.25-.91.62-54.96,135.48-87.76,216.29-98.42,242.45-2.88,7.08-6.39,14.53-10.53,22.36-3.5,6.63-8.2,11.61-14.09,14.95-3.97,2.26-7.42,2.81-12.38,4.07-.81.2-1.37.93-1.37,1.77v8.93c0,.34.27.61.61.61h85.97c.13,0,.25-.11.25-.25v-10.26c0-.17-.13-.31-.3-.34-11.13-1.16-19.2-1.74-27.86-6.07-6.37-3.18-7.77-8.97-6.42-15.83,1.18-5.96,3.19-12.14,4.83-16.4,8.89-23.23,13.34-34.89,13.37-34.97.06-.26.29-.44.55-.44h95.47c.29-.01.56.16.67.43,5.28,12.23,9.74,23.37,13.4,33.41,3.09,8.52,5.12,15.85,6.1,22,1.05,6.67-1.35,11.6-7.2,14.79-.29.16-.61.26-.92.31-2.51.44-6.91,1.29-10.34,1.5-5.51.33-10.68.78-15.49,1.35-.18.02-.32.17-.32.35v10.12c0,.16.12.28.28.28h138.42c.16,0,.28-.12.28-.28v-10.33c0-.18-.16-.34-.34-.33-17.57.61-24.3-11.72-31.13-25.79-5.57-11.49-8.7-18.21-9.36-20.18-.01-.01-.02-.01-.02,0,0,.03,0,.06-.01.08s-.05-.01-.06-.05ZM846.52,241.75c0,.59.45,1.07,1.03,1.11,6.67.48,12.71,1.62,18.1,3.4,7.4,2.44,11.91,6.09,13.67,13.55,1.5,6.36,2.24,13.04,2.25,20.04.02,21.67.03,68.85.02,141.54-.01,16.06.76,29.96,4.35,43.25,10.5,38.87,51.07,59.5,88.65,63.99,22.22,2.67,43.8,1.12,64.73-4.6,16.27-4.44,31.38-13.26,42.86-25.41,10.55-11.17,17.53-27.69,20.59-42.71,2.67-13.06,3.99-26.56,3.99-40.5.01-76.93.03-122.98.07-138.17.01-7.72,1.24-17.37,6.11-23.78,5.19-6.82,18.89-9.7,26.92-10.57.15-.01.26-.14.26-.28v-10.54c0-.13-.11-.25-.25-.25h-93.76c-.13,0-.25.11-.25.25v10.45c0,.15.12.27.27.28,8.17.38,19.41,2.46,27.44,6.31,4.89,2.34,8.34,5.85,10.32,10.54,3.3,7.82,4.02,17.01,4.03,25.56.01,44.28.02,81.91.03,112.88.01,28.19.78,59.19-15.47,83.78-9.65,14.6-24.91,22.84-41.93,25.59-11.24,1.82-22.38,1.86-33.41.09-41.88-6.71-47.36-49.16-47.32-83.13.05-34.2.05-80.98.01-140.34,0-9.25.53-16.12,1.59-20.62,1.89-8.09,4.24-12.86,11.86-15.94,8.39-3.39,18.02-4.03,27.87-4.72.17-.01.29-.14.29-.3v-10.32c0-.21-.17-.38-.38-.38h-143.69c-.47,0-.86.38-.86.85v9.12ZM1272.68,499.11c0,.09.02.19.07.3.03.08,0,.1-.08.04-.08-.04-.17-.16-.21-.25-4.57-9.07-4.99-18.92-4.98-28.68.02-54.06.03-81.5.02-82.32-.01-.4.33-.74.73-.74h9.88c.63,0,1.23.31,1.58.84l88.02,133.11c.13.21.38.34.64.34h86.76c.44,0,.8-.36.8-.8v-9.07c0-.54-.42-.98-.96-1.01-4.89-.31-8.04-.9-9.45-1.75-3.41-2.08-5.84-4.14-7.28-6.19-34.12-48.46-59.23-84.08-75.32-106.86-4.6-6.51-7.57-10.6-8.9-12.24-.38-.47-.82-1.37-1.31-2.7-.15-.41.08-.84.48-.97,6.42-1.97,13.47-4.84,21.15-8.61.19-.1.38-.16.59-.18,1.02-.12,2.2-.53,3.57-1.2,8.5-4.27,15.27-8.56,20.27-12.86,14.54-12.44,20.94-31.16,20.48-50.48-.5-21.1-8.49-37.77-24-49.98-9.73-7.66-20.69-13.31-32.89-16.92-21.31-6.3-43.02-8.31-64.36-8.16-2.35.01-48.16.01-137.43,0-.12,0-.22.1-.22.22v10.45c0,.17.12.3.29.31,9.6.72,26.68,2.37,32.16,11.24,4.79,7.74,5.2,18.57,5.22,27.45.15,87.88.13,152.94-.05,195.19-.03,7.83-1,16.53-4.84,23.16-4.83,8.35-22.63,9.93-32.49,11.04-.18.02-.32.17-.32.34v10.35c0,.12.1.23.24.23h144.54c.12,0,.23-.1.23-.21v-10.31c0-.17-.13-.31-.3-.34-6.59-.84-30.39-3.84-32.22-11.81,0-.02-.03-.05-.06-.05-.02.01-.05.03-.05.06ZM1055.13,587.1c.08-.08.08-.21,0-.29-8.92-9.12-24.25-11.13-35.35-8.05-8.85,2.45-15.52,7.02-19.99,13.71-9.52,14.26-7.08,34.37,5.91,45.5,6.2,5.32,13.84,8.18,22.92,8.59,8.39.37,16.63-1.99,24.71-7.09,1.08-.69,1.74-1.88,1.74-3.16v-23.91c0-.28-.23-.51-.51-.51h-5.94c-.28,0-.52.24-.52.52v21.74c0,.63-.34,1.22-.89,1.53-21.59,12.25-49.09-1.68-45.63-28.14,2.12-16.09,17.08-25.26,32.58-23.65,7.26.75,10.92,3.32,16.41,7.68.22.18.54.15.72-.07l3.84-4.41ZM1139.03,598.31c-.21-.08-.33-.2-.34-.37-.43-4.26.56-7.58,2.96-9.96.76-.77,1.34-1.24,1.71-1.42,5.66-2.76,11.04-3.84,16.14-3.26,5.68.64,10.89,2.42,15.63,5.36.33.2.75.07.9-.29l1.9-4.52c.15-.36.02-.78-.3-.99-8.1-5.37-19.71-6.41-28.9-4.48-2.82.6-5.85,1.91-9.1,3.94-3.3,2.06-5.47,4.47-6.5,7.2-1.82,4.84-1.93,12.49,2.22,16.38,5.23,4.89,9.62,6.52,18.07,9.2.97.3,2.49.44,4.56.4.38-.01.76.11,1.07.35.94.71,2.07.97,3.38.76.51-.08.82.07.92.45.05.16.18.27.34.29,4.63.83,10.33,4.92,10.65,10.12.21,3.58-1.15,6.55-4.08,8.91-2.1,1.7-4.41,2.8-6.9,3.3-10.07,2.02-21.95-.04-29.7-7.02-.35-.31-.91-.19-1.09.25l-1.82,4.35c-.16.38-.06.82.25,1.09,9.6,8.38,26.94,10.52,38.49,5.73,7.65-3.2,12.06-9.01,11.57-17.44-.19-3.29-1.07-5.88-2.66-7.79-5.91-7.11-17.91-9.58-27.13-11.51-3.42-.71-11.87-4.37-12.03-8.8-.01-.11-.08-.2-.18-.25ZM1208.63,613.65c.9,19.19,17.76,33.99,37.64,33.05,19.88-.94,35.27-17.25,34.37-36.44-.9-19.19-17.76-33.99-37.64-33.05-19.88.94-35.27,17.25-34.37,36.44ZM1597.63,613c.57,19.23,17.15,34.32,37.04,33.73,19.88-.59,35.54-16.65,34.97-35.87-.57-19.23-17.15-34.32-37.04-33.73-19.88.59-35.54,16.65-34.97,35.87ZM1841.88,618.09c-6.41-6.82-16.86-8.18-27.09-11.08-6.16-1.74-11.88-4.56-11.62-11.14.24-5.79,4.65-10.53,10.34-11.71,8.97-1.86,17.39-.44,25.28,4.27.5.29,1.14.09,1.37-.43l1.7-3.74c.29-.65.05-1.42-.59-1.75-9.66-5.23-19.89-6.57-30.68-3.99-4.14.99-7.35,2.71-9.61,5.15-7.75,8.37-6.91,20.5,3.3,26.31,7.72,4.41,17.75,5.5,25.71,8.43,6.67,2.45,9.13,6.99,7.41,13.59-.1.37-.25.72-.44,1.05-2.22,3.64-5.49,5.87-9.83,6.67-11.15,2.05-20.94-.24-29.36-6.86-.42-.33-1.02-.18-1.24.3l-1.78,3.89c-.25.54-.1,1.17.36,1.53,9.84,8,25.59,10.02,37.12,6,11.04-3.85,16.19-14.76,10.59-25.18-.26-.48-.57-.92-.94-1.32ZM472.57,645.24v-20.05c0-.37.3-.66.68-.67,2.06-.04,7.25-.06,15.56-.04,5.65.01,9.97-.44,12.97-1.35,11.7-3.54,17.33-11.34,16.88-23.37-.54-14.68-12.76-21.78-26.16-21.93-8.75-.09-17.7-.08-26.84.02-.17,0-.3.13-.3.3v67.15c0,.35.28.64.63.64h5.89c.38,0,.7-.31.7-.71ZM644.06,578.34c0-.3-.24-.54-.54-.54h-6.1c-.3,0-.54.24-.54.54v67.09c0,.3.24.54.54.54h6.1c.3,0,.54-.24.54-.54v-67.09ZM710.01,613.93c13.84,17.53,22.08,27.9,24.73,31.13.47.57,1.18.91,1.92.91h3.89c.43,0,.76-.35.76-.79v-67.11c0-.18-.13-.31-.32-.31h-6.5c-.18,0-.33.15-.33.33v54.33c0,.22-.28.33-.43.15-6.46-8.1-12.48-15.71-18.08-22.79-13.85-17.53-22.08-27.9-24.74-31.12-.47-.58-1.17-.91-1.91-.91h-3.89c-.43,0-.78.35-.78.78v67.12c0,.17.15.31.32.31h6.5c.18,0,.33-.15.33-.33v-54.34c0-.23.29-.33.44-.15,6.45,8.11,12.48,15.7,18.08,22.79ZM798.25,646c1.73-.01,2.7-.02,2.9-.04.38-.06.67-.38.67-.78l-.02-60.5c0-.35.28-.63.63-.63h22.62c.42,0,.75-.34.75-.77v-4.75c0-.38-.33-.71-.72-.71-8.61-.06-17.56-.06-26.85-.02-9.29-.03-18.25-.02-26.85.02-.4.01-.72.33-.72.72v4.75c0,.42.34.75.75.75h22.62c.35,0,.63.28.63.63v60.5c-.01.39.28.72.67.78.19.02,1.16.04,2.9.04ZM862.51,578.25c0-.26-.2-.46-.46-.46h-6.23c-.26,0-.46.2-.46.46v67.27c0,.26.2.46.46.46h6.23c.26,0,.46-.2.46-.46v-67.27ZM934.2,609.82c-13.84-17.52-22.08-27.89-24.73-31.11-.47-.58-1.18-.91-1.92-.91h-3.89c-.43,0-.76.35-.76.78v67.1c.01.17.15.32.33.32h6.49c.18,0,.33-.15.33-.33v-54.31c-.01-.24.28-.33.43-.15,6.45,8.1,12.48,15.69,18.08,22.78,13.84,17.52,22.08,27.89,24.73,31.11.47.57,1.17.91,1.91.91h3.89c.43,0,.78-.35.78-.78v-67.1c-.01-.17-.16-.32-.33-.32h-6.5c-.18,0-.33.15-.33.33v54.31c.01.23-.28.33-.43.15-6.45-8.1-12.48-15.69-18.07-22.78ZM1321.79,578.23c0-.22-.19-.42-.42-.42h-6.33c-.23,0-.42.19-.42.42v67.34c0,.22.19.42.42.42h44.55c.22,0,.42-.19.42-.42v-5.4c0-.22-.19-.42-.42-.42h-37.38c-.23,0-.42-.19-.42-.42v-61.11ZM1416.33,646.5c12.43.01,22.49-5.22,26.43-17.7,1.05-3.3,1.56-7.97,1.58-14,.01-8.89,0-21.04-.01-36.44-.01-.31-.26-.56-.57-.56h-6c-.29,0-.53.24-.52.53.03,11.8.01,25.17-.07,40.12-.08,13.3-7.26,21.66-20.84,21.66s-20.77-8.36-20.84-21.66c-.08-14.95-.1-28.33-.07-40.12,0-.29-.22-.53-.52-.53h-6c-.31,0-.57.25-.57.56-.02,15.4-.02,27.55-.02,36.44.01,6.03.54,10.69,1.57,13.98,3.94,12.48,14,17.71,26.44,17.71ZM1499.48,645.99c1.73,0,2.7-.01,2.9-.05.38-.04.68-.38.68-.78v-60.49c-.01-.35.27-.63.62-.63h22.61c.42,0,.75-.34.75-.75v-4.75c0-.39-.32-.71-.71-.72-8.62-.04-17.56-.06-26.85-.02-9.29-.03-18.25-.02-26.85.02-.39.01-.72.33-.72.72v4.75c0,.42.34.75.75.75h22.61c.35,0,.63.28.63.63v60.49c-.01.39.28.73.68.78.19.03,1.16.05,2.9.05ZM1563.85,578.33c0-.3-.25-.55-.55-.55h-6.14c-.3,0-.55.25-.55.55v67.07c0,.3.25.55.55.55h6.14c.3,0,.55-.25.55-.55v-67.07ZM1729.29,613.97c13.83,17.5,22.06,27.87,24.7,31.08.47.57,1.17.91,1.91.91h3.89c.43,0,.76-.35.76-.78v-67.04c0-.17-.15-.31-.31-.31h-6.49c-.18,0-.33.15-.33.33v54.27c0,.23-.29.33-.43.15-6.45-8.1-12.48-15.68-18.07-22.77-13.83-17.5-22.06-27.87-24.71-31.08-.47-.57-1.17-.91-1.91-.91h-3.89c-.42,0-.77.35-.77.78v67.04c0,.18.15.31.32.31h6.49c.18,0,.33-.15.33-.33v-54.27c0-.23.29-.33.44-.15,6.45,8.1,12.47,15.68,18.06,22.77ZM598.97,627.77c.03-.42-.48-1.73-1.55-3.97-6.22-13.13-13.07-28.1-20.56-44.9-.27-.62-.88-1.01-1.55-1.01h-4.84c-.84,0-1.61.5-1.94,1.27-1.15,2.67-2.49,5.47-4.02,8.4-.19.35-.25.84-.19,1.48.01.11,0,.23-.06.33l-7.28,14.94c-.12.26-.16.56-.1.84.06.29.04.52-.01.66-2.19,5.3-4.69,10.38-7.5,15.24-.31.55-1.03,2.28-2.16,5.22-.79,2.05-1.54,3.78-2.27,5.19-2.76,5.39-5.06,10.14-6.92,14.24-.06.11.03.25.17.25h6.99c.15,0,.28-.08.34-.21l4.56-10.05c.03-.08.07-.17.08-.25.52-2.17,1.35-4.4,2.5-6.67.38-.78,1.18-1.27,2.05-1.27h36.17c.42,0,.8.25.97.63l7.84,17.6c.06.13.2.23.35.23h7.16c.12,0,.21-.13.16-.25l-8.34-17.85s-.02-.06-.02-.09Z"/>
  <path class="st0" d="M744.22,506.1c3.97-3.52,5.33-8.52,4.08-14.96-1.18-6.06-3.23-13.08-6.14-21.04-4.22-11.53-8.58-22.32-13.1-32.37-.15-.33-.47-.54-.83-.54h-95.21c-.26,0-.48.16-.57.39-8.31,21.63-12.93,33.78-13.86,36.44-1.77,5.05-3.12,9.48-4.04,13.28-1.94,7.93-.72,14.24,6.67,17.87,8.08,3.96,15.48,4.4,27.19,5.69.2.02.35.18.35.38v10.21c0,.17-.15.3-.31.3h-86.12c-.27,0-.5-.23-.5-.5v-9.98c0-.34.25-.62.57-.66,12.97-1.78,22.45-8.78,28.46-21,4.67-9.51,8.42-17.75,11.25-24.75,55.63-137.22,87.84-216.56,96.62-238.05.2-.51.69-.83,1.23-.83h10.27c.38,0,.73.22.89.57,2.64,5.68,3.99,8.63,4.05,8.82.39,1.24.29,2.06.85,3.25,1.74,3.7,3.97,8.64,6.71,14.81.36.81.59,1.64.69,2.51.01.12.05.25.09.37l53.17,124.36c.23.51.46,1.19.7,2.01.24.82.73,2.06,1.47,3.71,2.15,4.76,7.42,17.08,15.84,36.96.91,2.15,1.37,3.25,1.41,3.32,1.14,2.59,4.18,9.8,9.15,21.62,5.14,12.23,10.64,24.44,16.53,36.62,5.84,12.1,11.47,23.32,25.89,25.65,1.8.29,3.24.39,4.31.3.72-.06,1.33.52,1.33,1.24v8.48c0,.64-.53,1.17-1.17,1.17h-137.37c-.17,0-.3-.13-.3-.3v-10c0-.24.17-.43.4-.46,3.88-.53,7.88-.89,11.99-1.08,4.75-.23,8.77-.9,12.97-1.68,1.69-.31,3.16-1.02,4.41-2.14ZM679.7,317.35c-.17-.4-.75-.4-.92.01l-39.61,102.48c-.12.33.11.68.46.68h82.19c.35,0,.6-.36.46-.69l-42.58-102.48Z"/>
  <path class="st0" d="M1713.38,464.94s.01-.05.01-.08c0-.01.01-.01.02,0,.66,1.97,3.79,8.7,9.36,20.18,6.83,14.06,13.56,26.39,31.13,25.79.18-.01.34.15.34.33v10.33c0,.16-.12.28-.28.28h-138.42c-.16,0-.28-.12-.28-.28v-10.12c0-.18.13-.33.32-.35,4.81-.57,9.98-1.02,15.49-1.35,3.43-.2,7.83-1.06,10.34-1.5.32-.06.63-.16.92-.31,5.85-3.2,8.25-8.12,7.2-14.79-.98-6.15-3-13.49-6.1-22-3.66-10.05-8.12-21.18-13.4-33.41-.11-.27-.38-.44-.67-.44h-95.47c-.26.01-.49.19-.55.45-.02.08-4.48,11.73-13.37,34.97-1.63,4.26-3.64,10.44-4.83,16.4-1.35,6.86.06,12.65,6.42,15.83,8.65,4.33,16.73,4.92,27.86,6.07.17.02.3.17.3.34v10.26c0,.13-.11.25-.25.25h-85.97c-.34,0-.61-.27-.61-.61v-8.93c0-.83.56-1.56,1.37-1.77,4.95-1.26,8.4-1.81,12.38-4.07,5.88-3.34,10.59-8.32,14.09-14.95,4.14-7.83,7.65-15.29,10.53-22.36,10.65-26.16,43.46-106.97,98.42-242.45.15-.37.51-.62.91-.62h10.63c.48,0,.91.29,1.08.74,4.23,10.87,8.55,20.25,13.49,32.4,1.82,4.49,3.76,8.99,5.82,13.5.37.8.74,1.65,1.12,2.58,2.59,6.2,4.93,11.81,7.03,16.85,2.49,5.97,6.06,14.19,10.74,24.62.05.1.06.27.02.51-.03.25.01.51.12.74,4.24,9.44,7.09,15.94,8.55,19.49,4.48,10.86,9.15,21.9,14,33.14,2.42,5.59,4.4,10.36,5.96,14.31,1.77,4.47,3.89,9.18,6.37,14.14,1.08,2.18,1.32,4.51,2.33,6.72,4.13,8.98,6.67,14.75,7.65,17.31,1.87,4.95,4.56,11.2,8.07,18.75.3.66.67,1.81,1.11,3.44.1.37.22.72.38,1.07,4.75,10.38,7.5,16.57,8.26,18.58.01.03.05.07.06.05ZM1580.6,317.33c-.17-.41-.74-.39-.9.01l-39.62,102.51c-.12.33.11.66.45.66h82.24c.34,0,.57-.35.44-.68l-42.6-102.51Z"/>
  <path class="st0" d="M847.38,231.77h143.69c.21,0,.38.17.38.38v10.32c0,.17-.12.29-.29.3-9.84.7-19.47,1.34-27.87,4.72-7.62,3.08-9.97,7.85-11.86,15.94-1.06,4.5-1.59,11.37-1.59,20.62.03,59.37.03,106.14-.01,140.34-.04,33.96,5.43,76.42,47.32,83.13,11.04,1.77,22.17,1.73,33.41-.09,17.02-2.76,32.28-10.99,41.93-25.59,16.25-24.59,15.48-55.59,15.47-83.78-.01-30.97-.02-68.6-.03-112.88-.01-8.55-.73-17.74-4.03-25.56-1.98-4.69-5.42-8.2-10.32-10.54-8.03-3.85-19.27-5.93-27.44-6.31-.15-.01-.27-.14-.27-.28v-10.45c0-.13.11-.25.25-.25h93.76c.13,0,.25.11.25.25v10.54c0,.15-.11.27-.26.28-8.03.88-21.73,3.76-26.92,10.57-4.87,6.41-6.1,16.06-6.11,23.78-.03,15.19-.06,61.24-.07,138.17,0,13.94-1.33,27.44-3.99,40.5-3.06,15.02-10.03,31.53-20.59,42.71-11.49,12.15-26.6,20.97-42.86,25.41-20.94,5.73-42.51,7.27-64.73,4.6-37.58-4.49-78.15-25.12-88.65-63.99-3.59-13.29-4.37-27.18-4.35-43.25.01-72.69,0-119.87-.02-141.54-.01-7-.75-13.68-2.25-20.04-1.75-7.46-6.27-11.1-13.67-13.55-5.39-1.78-11.43-2.91-18.1-3.4-.59-.05-1.03-.53-1.03-1.11v-9.12c.01-.47.39-.85.87-.85Z"/>
  <path class="st0" d="M1272.78,499.1c1.83,7.98,25.63,10.97,32.22,11.81.17.02.3.17.3.34v10.31c0,.11-.1.21-.23.21h-144.54c-.13,0-.24-.1-.24-.23v-10.35c0-.17.13-.32.32-.34,9.86-1.1,27.66-2.69,32.49-11.04,3.84-6.64,4.8-15.33,4.84-23.16.18-42.24.19-107.3.05-195.19-.02-8.88-.43-19.71-5.22-27.45-5.48-8.86-22.57-10.52-32.16-11.24-.17-.01-.29-.15-.29-.31v-10.45c0-.12.1-.22.22-.22,89.27.01,135.08.01,137.43,0,21.34-.16,43.05,1.86,64.36,8.16,12.21,3.61,23.16,9.26,32.89,16.92,15.5,12.22,23.5,28.88,24,49.98.46,19.32-5.94,38.04-20.48,50.48-5.01,4.3-11.77,8.58-20.27,12.86-1.36.68-2.54,1.08-3.57,1.2-.2.02-.39.08-.59.18-7.68,3.77-14.73,6.64-21.15,8.61-.4.12-.63.56-.48.97.48,1.33.92,2.23,1.31,2.7,1.33,1.64,4.3,5.73,8.9,12.24,16.09,22.78,41.2,58.4,75.32,106.86,1.44,2.05,3.87,4.11,7.28,6.19,1.41.86,4.56,1.44,9.45,1.75.54.03.96.47.96,1.01v9.07c0,.44-.36.8-.8.8h-86.76c-.26,0-.51-.12-.64-.34l-88.02-133.11c-.35-.53-.94-.84-1.58-.84h-9.88c-.41,0-.74.34-.73.74.01.82,0,28.26-.02,82.32-.01,9.75.42,19.61,4.98,28.68.05.09.13.2.21.25.08.06.11.03.08-.04-.04-.11-.07-.21-.07-.3,0-.02.02-.05.05-.06.02,0,.06.02.06.05ZM1267.99,373.75c15.24-.08,31.16-1.17,45.51-5.25,24.31-6.92,31.27-28.51,32.32-51.51.63-13.89-.42-26.08-3.13-36.55-3.83-14.75-12.05-24.91-26.57-30.16-9.35-3.39-20.89-4.38-34.61-2.97-10.71,1.09-14.06,9.33-14.05,19.07.05,33.51.05,69.12-.01,106.84,0,.3.24.54.54.54Z"/>
  <path class="st1" d="M1267.99,373.75c-.3,0-.54-.24-.54-.54.06-37.72.06-73.33.01-106.84-.01-9.74,3.34-17.98,14.05-19.07,13.71-1.41,25.26-.42,34.61,2.97,14.52,5.25,22.75,15.41,26.57,30.16,2.71,10.47,3.76,22.66,3.13,36.55-1.05,23.01-8.01,44.59-32.32,51.51-14.34,4.08-30.26,5.18-45.51,5.25Z"/>
  <path class="st1" d="M679.7,317.35l42.58,102.48c.13.33-.11.69-.46.69h-82.19c-.35,0-.59-.35-.46-.68l39.61-102.48c.17-.42.75-.42.92-.01Z"/>
  <path class="st1" d="M1580.6,317.33l42.6,102.51c.13.33-.1.68-.44.68h-82.24c-.34,0-.57-.34-.45-.66l39.62-102.51c.16-.4.73-.42.9-.01Z"/>
  <path class="st0" d="M1050.57,591.58c-5.49-4.37-9.16-6.93-16.41-7.68-15.5-1.61-30.47,7.56-32.58,23.65-3.46,26.46,24.04,40.39,45.63,28.14.55-.31.89-.9.89-1.53v-21.74c0-.28.24-.52.52-.52h5.94c.28,0,.51.23.51.51v23.91c0,1.28-.66,2.48-1.74,3.16-8.08,5.1-16.31,7.46-24.71,7.09-9.08-.42-16.72-3.27-22.92-8.59-12.98-11.13-15.42-31.23-5.91-45.5,4.47-6.69,11.14-11.26,19.99-13.71,11.09-3.07,26.43-1.07,35.35,8.05.08.08.08.21,0,.29l-3.84,4.41c-.18.21-.5.25-.72.07Z"/>
  <path class="st0" d="M1139.21,598.56c.16,4.43,8.61,8.09,12.03,8.8,9.23,1.92,21.23,4.4,27.13,11.51,1.59,1.9,2.46,4.5,2.66,7.79.49,8.43-3.92,14.24-11.57,17.44-11.54,4.79-28.89,2.65-38.49-5.73-.3-.27-.4-.71-.25-1.09l1.82-4.35c.18-.44.74-.56,1.09-.25,7.75,6.98,19.63,9.04,29.7,7.02,2.49-.5,4.79-1.6,6.9-3.3,2.94-2.36,4.3-5.33,4.08-8.91-.33-5.21-6.02-9.29-10.65-10.12-.16-.02-.29-.13-.34-.29-.1-.38-.42-.53-.92-.45-1.31.2-2.43-.06-3.38-.76-.3-.24-.69-.36-1.07-.35-2.07.03-3.59-.1-4.56-.4-8.45-2.68-12.84-4.31-18.07-9.2-4.15-3.89-4.04-11.54-2.22-16.38,1.04-2.73,3.21-5.14,6.5-7.2,3.25-2.02,6.28-3.34,9.1-3.94,9.19-1.93,20.8-.89,28.9,4.48.33.21.45.63.3.99l-1.9,4.52c-.15.36-.57.5-.9.29-4.74-2.94-9.95-4.71-15.63-5.36-5.11-.57-10.49.51-16.14,3.26-.37.18-.95.65-1.71,1.42-2.4,2.37-3.39,5.69-2.96,9.96.01.17.12.29.34.37.1.04.17.13.18.25Z"/>
  <path class="st0" d="M1208.63,613.65c-.91-19.19,14.48-35.5,34.37-36.44,19.89-.94,36.74,13.86,37.64,33.05.91,19.19-14.48,35.5-34.37,36.44-19.89.94-36.74-13.86-37.64-33.05ZM1215.89,614.04c1.15,15.63,14.94,27.36,30.81,26.2,15.86-1.16,27.8-14.78,26.66-30.42-1.15-15.63-14.94-27.36-30.81-26.2-15.86,1.16-27.8,14.78-26.66,30.42Z"/>
  <path class="st0" d="M1597.63,613c-.57-19.23,15.09-35.28,34.97-35.87,19.89-.59,36.47,14.51,37.04,33.73.57,19.23-15.09,35.28-34.97,35.87-19.89.59-36.47-14.51-37.04-33.73ZM1604.8,612.46c.3,15.68,13.44,28.15,29.34,27.84,15.9-.31,28.55-13.26,28.25-28.94-.3-15.68-13.44-28.15-29.34-27.84-15.9.31-28.55,13.26-28.25,28.94Z"/>
  <path class="st0" d="M1842.83,619.4c5.6,10.42.45,21.33-10.59,25.18-11.53,4.03-27.28,2-37.12-6-.46-.36-.61-.99-.36-1.53l1.78-3.89c.21-.48.82-.63,1.24-.3,8.43,6.63,18.21,8.91,29.36,6.86,4.34-.8,7.62-3.03,9.83-6.67.19-.33.34-.68.44-1.05,1.72-6.6-.74-11.14-7.41-13.59-7.95-2.93-17.99-4.02-25.71-8.43-10.2-5.82-11.05-17.94-3.3-26.31,2.26-2.44,5.47-4.16,9.61-5.15,10.79-2.58,21.01-1.24,30.68,3.99.63.34.88,1.1.59,1.75l-1.7,3.74c-.24.52-.88.72-1.37.43-7.89-4.71-16.31-6.13-25.28-4.27-5.69,1.18-10.1,5.92-10.34,11.71-.26,6.58,5.46,9.39,11.62,11.14,10.23,2.9,20.68,4.26,27.09,11.08.37.39.69.83.94,1.32Z"/>
  <path class="st0" d="M472.57,645.24c0,.39-.31.71-.7.71h-5.89c-.35,0-.63-.29-.63-.64v-67.15c0-.17.13-.3.3-.3,9.15-.1,18.09-.11,26.84-.02,13.4.15,25.62,7.25,26.16,21.93.45,12.03-5.17,19.82-16.88,23.37-3,.91-7.32,1.36-12.97,1.35-8.31-.01-13.5,0-15.56.04-.37.01-.68.3-.68.67v20.05ZM472.55,584.61l.07,33.01c0,.26.2.47.47.47l20.72-.03c9.75-.02,17.65-6.99,17.63-15.57v-2.88c-.02-8.58-7.94-15.52-17.7-15.5l-20.72.03c-.26,0-.47.21-.47.47Z"/>
  <rect class="st0" x="636.88" y="577.8" width="7.18" height="68.17" rx=".54" ry=".54"/>
  <path class="st0" d="M710.01,613.93c-5.6-7.09-11.63-14.68-18.08-22.79-.15-.18-.44-.08-.44.15v54.34c0,.18-.15.33-.33.33h-6.5c-.17,0-.32-.15-.32-.31v-67.12c0-.43.35-.78.78-.78h3.89c.74,0,1.44.33,1.91.91,2.66,3.22,10.89,13.59,24.74,31.12,5.6,7.09,11.62,14.69,18.08,22.79.15.18.43.08.43-.15v-54.33c0-.18.15-.33.33-.33h6.5c.18,0,.32.13.32.31v67.11c0,.44-.34.79-.76.79h-3.89c-.74,0-1.45-.34-1.92-.91-2.64-3.23-10.89-13.6-24.73-31.13Z"/>
  <path class="st0" d="M798.25,646c-1.74,0-2.71-.02-2.9-.04-.39-.06-.69-.38-.69-.78v-60.5c.01-.35-.27-.63-.62-.63h-22.62c-.42,0-.75-.34-.75-.75v-4.75c0-.39.32-.71.72-.72,8.61-.04,17.56-.06,26.85-.02,9.29-.03,18.25-.03,26.85.02.39,0,.72.33.72.71v4.75c0,.43-.34.77-.75.77h-22.62c-.35,0-.63.28-.63.63l.02,60.5c0,.39-.29.72-.67.78-.2.02-1.17.03-2.9.04Z"/>
  <rect class="st0" x="855.36" y="577.79" width="7.15" height="68.2" rx=".46" ry=".46"/>
  <path class="st0" d="M934.2,609.82c5.59,7.09,11.62,14.68,18.07,22.78.15.18.44.08.44-.15v-54.31c-.01-.18.13-.33.32-.33h6.5c.17,0,.32.15.32.32v67.1c.01.43-.34.78-.76.78h-3.89c-.74,0-1.44-.34-1.91-.91-2.64-3.22-10.89-13.59-24.73-31.11-5.6-7.09-11.63-14.68-18.08-22.78-.15-.18-.44-.09-.44.15v54.31c.01.18-.13.33-.31.33h-6.49c-.18,0-.31-.15-.31-.32v-67.1c-.01-.43.33-.78.75-.78h3.89c.74,0,1.45.33,1.92.91,2.64,3.22,10.89,13.59,24.73,31.11Z"/>
  <path class="st0" d="M1321.79,578.23v61.11c0,.23.19.42.42.42h37.38c.22,0,.42.19.42.42v5.4c0,.22-.19.42-.42.42h-44.55c-.23,0-.42-.19-.42-.42v-67.34c0-.22.19-.42.42-.42h6.33c.22,0,.42.19.42.42Z"/>
  <path class="st0" d="M1416.33,640.11c13.58,0,20.76-8.36,20.84-21.66.08-14.95.1-28.32.07-40.12-.01-.29.22-.53.52-.53h6c.32,0,.56.25.57.56.01,15.4.02,27.55.01,36.44-.01,6.03-.53,10.7-1.58,14-3.94,12.48-13.99,17.71-26.43,17.7-12.44,0-22.5-5.23-26.44-17.71-1.03-3.3-1.56-7.95-1.57-13.98,0-8.89,0-21.04.02-36.44,0-.31.26-.56.57-.56h6c.29,0,.52.24.52.53-.03,11.79-.01,25.17.07,40.12.07,13.3,7.25,21.66,20.84,21.66Z"/>
  <path class="st0" d="M1499.48,577.8c9.29-.03,18.24-.02,26.85.02.39.01.71.33.71.72v4.75c0,.42-.34.75-.75.75h-22.61c-.35,0-.63.28-.63.63v60.49c.01.39-.28.73-.66.78-.2.03-1.17.05-2.9.05s-2.71-.01-2.9-.05c-.39-.04-.69-.38-.69-.78v-60.49c.01-.35-.27-.63-.62-.63h-22.61c-.42,0-.75-.34-.75-.75v-4.75c0-.39.33-.71.72-.72,8.61-.04,17.56-.06,26.85-.02Z"/>
  <rect class="st0" x="1556.61" y="577.78" width="7.24" height="68.17" rx=".55" ry=".55"/>
  <path class="st0" d="M1734.94,609.81c5.59,7.09,11.62,14.67,18.07,22.77.13.18.43.08.43-.15v-54.27c0-.18.15-.33.33-.33h6.49c.17,0,.31.15.31.31v67.04c0,.43-.34.78-.76.78h-3.89c-.74,0-1.44-.34-1.91-.91-2.64-3.22-10.88-13.58-24.7-31.08-5.59-7.09-11.61-14.67-18.06-22.77-.15-.18-.44-.08-.44.15v54.27c0,.18-.15.33-.33.33h-6.49c-.17,0-.32-.13-.32-.31v-67.04c0-.43.35-.78.77-.78h3.89c.74,0,1.44.34,1.91.91,2.64,3.22,10.88,13.58,24.71,31.08Z"/>
  <path class="st0" d="M599,627.86l8.34,17.85c.06.11-.03.25-.16.25h-7.16c-.15,0-.29-.09-.35-.23l-7.84-17.6c-.17-.38-.55-.63-.97-.63h-36.17c-.87,0-1.67.5-2.05,1.27-1.15,2.27-1.98,4.5-2.5,6.67-.01.08-.04.17-.08.25l-4.56,10.05c-.06.13-.19.21-.34.21h-6.99c-.14,0-.23-.13-.17-.25,1.86-4.11,4.16-8.85,6.92-14.24.73-1.41,1.48-3.14,2.27-5.19,1.12-2.94,1.84-4.67,2.16-5.22,2.81-4.86,5.31-9.95,7.5-15.24.06-.15.07-.37.01-.66-.06-.28-.02-.58.1-.84l7.28-14.94c.06-.1.07-.21.06-.33-.06-.64,0-1.14.19-1.48,1.53-2.94,2.87-5.74,4.02-8.4.33-.78,1.09-1.27,1.94-1.27h4.84c.68,0,1.28.39,1.55,1.01,7.49,16.8,14.34,31.77,20.56,44.9,1.07,2.24,1.59,3.56,1.55,3.97,0,.03.01.06.02.09ZM572.7,585.54l-8.11,17.38c-.03.08-.07.15-.08.23-1.15,5.83-4.59,11.32-8.04,18.02-.18.36.08.78.47.78h31.49c.36,0,.6-.37.44-.7-3.09-6.51-5.52-11.73-7.29-15.67-.75-1.66-1.33-2.82-1.72-3.46-1.75-2.82-2.24-5.9-3.74-8.92-.61-1.25-1.72-3.79-3.34-7.65-.01-.03-.06-.03-.08,0Z"/>
  <ellipse class="st1" cx="1244.62" cy="611.93" rx="28.81" ry="28.38" transform="translate(-41.47 92.8) rotate(-4.2)"/>
  <ellipse class="st1" cx="1633.59" cy="611.91" rx="28.8" ry="28.4" transform="translate(-11.45 31.47) rotate(-1.1)"/>
  <path class="st1" d="M472.55,584.61c0-.26.21-.47.47-.47l20.72-.03c9.75-.02,17.67,6.92,17.7,15.5v2.88c.02,8.58-7.88,15.55-17.63,15.57l-20.72.03c-.27,0-.47-.21-.47-.47l-.07-33.01Z"/>
  <path class="st1" d="M572.7,585.54s.07-.03.08,0c1.62,3.86,2.73,6.4,3.34,7.65,1.5,3.03,1.98,6.1,3.74,8.92.39.64.97,1.8,1.72,3.46,1.77,3.94,4.2,9.16,7.29,15.67.16.33-.08.7-.44.7h-31.49c-.39,0-.65-.42-.47-.78,3.45-6.71,6.9-12.2,8.04-18.02.01-.08.04-.15.08-.23l8.11-17.38Z"/>
  <path class="st1" d="M150.55,832.22h130.25c.37,0,.67.3.67.69v55.52c0,.69-.56,1.25-1.26,1.25h-.46c-.67,0-1.24-.51-1.31-1.17-.66-6.53-1.35-11.04-2.05-13.52-4.11-14.68-13.03-25.54-26.76-32.58-16.63-8.53-34.48-7.19-52.96-7.14-.27,0-.48.21-.48.47v78.69c0,.3.24.55.55.57,9.52.48,17.72-.79,24.59-3.79,13.98-6.1,21.18-16.95,21.62-32.58.02-.51.43-.9.93-.9h1.58c.52,0,.93.42.93.93v76.33c0,.6-.48,1.08-1.08,1.08h-1.36c-.5,0-.9-.37-.96-.86-.37-3.74-.63-6.02-.8-6.86-4.38-22.22-24.54-30.54-45.39-29.81-.35.01-.62.29-.62.64v84.59c0,.4-.34.74-.74.74h-45.02c-.35,0-.64-.29-.64-.64v-170.89c0-.43.34-.76.77-.76Z"/>
  <path class="st1" d="M1195.26,883.39c-4.02,6.23-12.23,8.81-19.37,7.72-10.15-1.53-17.74-9.31-18.09-19.61-.01-.39.21-.75.57-.9,5.61-2.33,8.77-6.42,9.48-12.28,1.27-10.43-3.08-17.47-13.04-21.15-10.71-3.96-21.41-4.12-32.09-.46-9.3,3.18-14.32,9.45-15.03,18.79-1.54,20.36,22.27,32.48,37.34,39.64,18.84,8.97,29.48,14.1,31.87,15.39,14.87,7.98,31.53,18.29,34.15,36.68,5.24,36.83-26.23,56.62-58.55,59.83-10.38,1.02-21.15.58-32.3-1.33-23.93-4.11-52.67-18.38-53.21-46.38-.24-11.9,9.11-20.25,20.6-20.32,14.12-.09,24.37,8.77,25.49,23,.02.37-.21.72-.57.82-8.07,2.25-10.86,8.14-10.42,16.32,1.59,29.35,54.49,30.74,68.62,13.59,8.04-9.75,3.49-23.2-5.11-31.06-9.29-8.5-21.11-14.82-32.4-20.28-13.1-6.34-23.85-12.12-32.26-17.3-11.64-7.17-24.14-17.79-28.09-31.48-2.77-9.56-2.68-19.02.26-28.37,2.08-6.63,5.62-12.32,10.65-17.1,18.24-17.35,50.33-20.25,73.63-14.95,14.66,3.34,30.48,12.16,36.88,25.76,3.59,7.61,5.73,18.06.97,25.45Z"/>
  <path class="st1" d="M1747.43,887.38c2.78-4.33,4.89-8.97,6.32-13.92l19.36-43.03c.13-.29.54-.3.69-.01l87.24,173.27c.18.37-.08.8-.5.8h-49.43c-.45,0-.84-.26-1.02-.66-5.75-12.79-10.14-22.39-13.16-28.78-.07-.13-.11-.39-.12-.79,0-.06-.03-.12-.08-.16-.03-.02-.07-.01-.07.03-.01.13-.02.21-.06.22-.09.06-.2.05-.22-.02l-1.01-3.45c-.02-.07-.05-.13-.08-.19l-8.18-16.98c-.21-.44-.65-.72-1.14-.72h-63.92c-.34,0-.64.2-.79.51l-22.74,50c-.35.76-1.11,1.26-1.96,1.26h-.41c-.76,0-1.28-.79-.97-1.49,8.74-19.47,14.84-32.94,18.3-40.42.4-.89.67-1.68.8-2.38.06-.32.16-.62.3-.9,3.63-7.23,6.91-14.1,9.8-20.59,7.69-17.25,15.37-34.45,23.03-51.6ZM1723.21,949.38c-.12.27.07.56.35.56l61.66-.11c.28,0,.47-.29.35-.55l-30.94-67.66c-.15-.3-.57-.3-.72,0l-30.7,67.76Z"/>
  <path class="st1" d="M537.28,918.56c-.44.01-.78.37-.78.8v81.63c.01.3.26.56.57.56,8.04.16,15.94.09,23.68-.21,31.27-1.19,64.99-20.81,68.89-54.61.07-.6.59-1.06,1.19-1.06h.98c.54,0,.96.47.91,1l-5.04,57.24c-.03.33-.3.57-.62.57l-136.45.02c-.3,0-.54-.25-.54-.54l-.02-171.15c0-.34.27-.61.61-.61l130.64-.02c.25,0,.45.2.45.45v55.9c.01.6-.47,1.07-1.07,1.07h-.88c-.62,0-1.12-.47-1.15-1.09-1.09-21.69-10.95-37.22-29.6-46.6-15.96-8.03-34.33-6.78-52.12-6.66-.25,0-.45.2-.45.45v78.68c.01.33.27.59.6.61,8.13.37,15.19-.47,21.15-2.53,15.85-5.49,24.12-16.75,24.8-33.77.02-.59.51-1.05,1.09-1.05h1.52c.57,0,1.05.46,1.05,1.03v76.44c0,.5-.4.91-.91.91h-1.83c-.48,0-.88-.37-.92-.84-.16-1.86-.29-3.15-.39-3.88-1.78-14.33-9.21-24.04-22.31-29.16-7.03-2.75-14.7-3.95-23.04-3.6Z"/>
  <path class="st1" d="M390.53,911.1c3.68.16,6.91.42,9.7.76,14.43,1.83,25.19,9.05,32.29,21.66,7.99,14.21,12.94,30.58,18.89,44.66,4.31,10.18,10.24,18.93,17.81,26.24.19.18.08.5-.18.53-9.28,1.18-19.33,1.19-30.15.05-8.37-.89-14.93-2.72-19.68-5.5-10.5-6.15-16.56-16.73-20.3-28.16-1.32-4.04-4.37-13.71-9.15-29.04-1.32-4.23-5.03-11.4-7.9-15.21-7.98-10.6-19.08-15.63-33.29-15.1-.35.01-.63.3-.63.65v91.14c0,.39-.33.72-.72.72h-44.97c-.45,0-.82-.37-.82-.82v-170.95c0-.26.2-.46.46-.46,32.46-.08,57.44-.06,74.96.06,6.62.03,13.81.69,21.6,1.96,14.28,2.33,30.26,9.31,35.88,23.56,6.77,17.12.37,31.21-13.87,41.85-8.67,6.48-18.65,10.28-29.94,11.42ZM347.94,835.01v73.5c0,.4.31.72.72.73,5.44.01,8.7.01,9.76.02,11.2.08,20.38-.88,25.43-12.19,4.83-10.85,4.78-24.93,3.15-36.42-1.87-13.1-7.59-25.02-22.22-25.95-5.19-.34-10.64-.39-16.37-.17-.27.01-.47.23-.47.48Z"/>
  <path class="st1" d="M710.03,919.36v81.63c0,.3.25.55.56.56,8.04.16,15.94.09,23.68-.21,31.27-1.19,65-20.8,68.91-54.6.07-.61.59-1.06,1.19-1.06h.98c.54,0,.96.46.91,1l-5.05,57.24c-.02.33-.29.57-.62.57h-136.45c-.3,0-.54-.24-.54-.54v-171.15c0-.34.27-.61.61-.61h130.64c.25,0,.45.2.45.45v55.9c0,.58-.48,1.07-1.08,1.07h-.88c-.61,0-1.11-.48-1.15-1.09-1.08-21.69-10.95-37.23-29.59-46.61-15.96-8.03-34.34-6.78-52.12-6.66-.25,0-.45.2-.45.45v78.68c0,.33.26.59.58.61,8.13.37,15.19-.47,21.15-2.53,15.85-5.49,24.12-16.75,24.79-33.77.02-.59.51-1.05,1.09-1.05h1.52c.57,0,1.05.46,1.05,1.03v76.44c0,.51-.4.91-.91.91h-1.83c-.48,0-.89-.37-.92-.84-.17-1.86-.29-3.15-.39-3.88-1.78-14.32-9.21-24.04-22.31-29.16-7.03-2.75-14.7-3.95-23.04-3.6-.43.01-.78.37-.78.8Z"/>
  <path class="st1" d="M946.81,918.55c-.43.01-.78.37-.78.8v81.63c0,.3.25.56.56.56,8.04.16,15.94.09,23.68-.21,31.26-1.18,65-20.79,68.91-54.59.07-.61.59-1.06,1.19-1.06h.98c.54,0,.96.46.91,1l-5.06,57.24c-.02.33-.29.57-.62.57h-136.44c-.3-.01-.54-.26-.54-.55v-171.15c.01-.34.28-.61.62-.61h130.63c.25.01.45.21.45.46v55.9c-.01.58-.49,1.07-1.09,1.07h-.88c-.61,0-1.11-.48-1.15-1.09-1.07-21.69-10.94-37.23-29.58-46.61-15.96-8.03-34.33-6.79-52.12-6.67-.25,0-.45.2-.45.45v78.68c-.01.33.25.59.57.61,8.14.38,15.19-.46,21.15-2.53,15.86-5.49,24.12-16.74,24.8-33.76.03-.59.51-1.05,1.09-1.05h1.52c.59,0,1.05.46,1.05,1.03v76.44c0,.5-.41.91-.91.91h-1.83c-.48-.01-.89-.37-.92-.86-.17-1.85-.29-3.14-.39-3.88-1.78-14.32-9.21-24.04-22.31-29.16-7.02-2.75-14.7-3.94-23.04-3.6Z"/>
  <path class="st1" d="M1303.41,1004.46c-13.98,0-21.51,0-22.58-.01-.38,0-.7-.32-.7-.7l.03-168.06c0-.23-.18-.41-.41-.41-32.34-.01-58.66,18.98-60.23,53.09-.03.72-.63,1.28-1.34,1.28h-.47c-.68,0-1.23-.55-1.23-1.24v-55.8c.01-.22.19-.42.42-.42,56.38.02,85.23.02,86.52.02s30.15,0,86.52.01c.22,0,.42.18.42.4v55.81c-.01.68-.56,1.24-1.24,1.23h-.47c-.71,0-1.31-.56-1.34-1.27-1.56-34.12-27.87-53.11-60.22-53.12-.23,0-.4.18-.4.41v168.06c-.01.39-.33.7-.71.71-1.07,0-8.6.01-22.58,0Z"/>
  <rect class="st1" x="1410.38" y="832.23" width="40.99" height="172.28" rx=".75" ry=".75"/>
  <path class="st1" d="M1579.12,932.62c.73,2.72,1.85,5.31,3.33,7.76.11.19.4.17.48-.03l45.1-107.72c.11-.26.37-.43.65-.43h45.56c.26,0,.46.2.46.45v171.15c0,.38-.32.7-.7.7h-45.15c-.35,0-.63-.28-.63-.63-.02-107.1-.02-161.22-.01-162.37,0-.27-.05-.46-.12-.56-.08-.1-.25-.09-.29.03l-64.42,150.96c-.03.08-.06.17-.07.27-.12,1.12-.47,2.19-1.07,3.21-.28.48-.48.86-.55.99l-5.02,11.05c-.1.23-.44.23-.53-.01-6.57-16.01-10.1-24.62-10.61-25.82-1.98-4.77-4.53-10.66-7.67-17.68-1.86-4.16-3.89-8.96-6.1-14.39-1.96-4.83-4.07-9.6-6.36-14.3-.32-.65-.75-2.06-1.33-4.21-.1-.37-.22-.72-.38-1.06-1.06-2.31-3.4-7.47-7.02-15.49-.23-.48-.33-1.06-.29-1.71,0-.04-.01-.09-.03-.13l-17.84-41.03c-.13-.3-.2-.64-.2-.98-.01-.56-.11-1.06-.3-1.47-4.41-9.75-8.48-19.34-12.21-28.77-.13-.33-.62-.24-.62.12v162.9c0,.72-.59,1.31-1.31,1.31h-.67c-.64,0-1.16-.52-1.16-1.16v-170.82c0-.31.25-.56.56-.56h49.56c.42,0,.8.25.98.63,20.69,45.21,35.11,76.69,43.24,94.44.79,1.72,1.47,3.03,2.07,3.92.29.45.52.93.65,1.45Z"/>
  <path class="st1" d="M1926.83,832.23h86.57c.23,0,.41.18.41.4v55.83c0,.69-.55,1.24-1.23,1.24h-.47c-.72,0-1.31-.56-1.34-1.28-1.58-34.13-27.89-53.13-60.25-53.13-.23,0-.4.18-.4.41v168.14c0,.38-.32.7-.7.7-1.07.01-8.61.01-22.59.01s-21.52,0-22.59-.01c-.38,0-.7-.31-.7-.7l.02-168.14c0-.23-.18-.41-.41-.41-32.37-.01-58.68,18.99-60.27,53.12-.02.72-.62,1.28-1.34,1.28h-.47c-.67,0-1.23-.55-1.23-1.24v-55.83c.01-.23.19-.4.42-.4,56.41.01,85.26.01,86.57.01Z"/>
  <path class="st1" d="M2080.99,918.55c-.43.01-.78.37-.78.8v81.63c-.01.3.24.55.55.56,8.04.16,15.93.09,23.67-.21,31.28-1.18,65-20.78,68.92-54.57.07-.61.59-1.06,1.19-1.06h.98c.54,0,.96.46.91,1l-5.06,57.24c-.02.31-.29.57-.62.57l-136.44-.03c-.3,0-.54-.24-.54-.54l.03-171.13c0-.34.27-.61.61-.61l130.62.02c.25,0,.45.2.45.45v55.9c-.01.6-.5,1.07-1.09,1.07h-.88c-.61,0-1.11-.48-1.15-1.09-1.07-21.69-10.93-37.23-29.58-46.61-15.95-8.03-34.32-6.8-52.11-6.67-.25,0-.45.2-.45.45l-.02,78.67c0,.33.26.6.59.61,8.13.38,15.19-.46,21.15-2.52,15.85-5.49,24.12-16.74,24.81-33.77.02-.59.51-1.05,1.09-1.03h1.52c.57,0,1.05.46,1.05,1.03l-.02,76.43c0,.51-.41.91-.91.91h-1.83c-.48,0-.88-.37-.92-.84-.16-1.86-.29-3.15-.39-3.88-1.77-14.32-9.2-24.04-22.3-29.16-7.03-2.75-14.7-3.95-23.04-3.61Z"/>
  <path class="st2" d="M347.94,835.01c0-.26.2-.47.47-.48,5.73-.23,11.18-.17,16.37.17,14.62.93,20.35,12.86,22.22,25.95,1.63,11.49,1.68,25.57-3.15,36.42-5.04,11.32-14.22,12.27-25.43,12.19-1.07-.01-4.32-.01-9.76-.02-.41-.01-.72-.33-.72-.73v-73.5Z"/>
  <path class="st0" d="M1753.75,873.46c-1.43,4.95-3.54,9.59-6.32,13.92,1.36-4.87,3.48-9.52,6.32-13.92Z"/>
  <path class="st2" d="M1723.21,949.38l30.7-67.76c.15-.3.57-.3.72,0l30.94,67.66c.12.26-.07.55-.35.55l-61.66.11c-.28,0-.47-.29-.35-.56Z"/>
  <path class="st1" d="M2304,1135.05v592.95H0v-592.94h2304ZM108.02,1355.14c-.33,25.85,5.81,51.47,18.51,74.63,3.5,6.38,6.16,10.59,8,12.64.29.33.77.44,1.17.27l16.17-6.73c.31-.13.44-.51.27-.8-7.08-12.16-12.01-24.62-14.82-37.34-2.99-13.59-4.4-27.71-4.22-42.37.18-14.66,1.94-28.74,5.28-42.27,3.12-12.64,8.36-24.96,15.73-36.95.18-.29.07-.67-.25-.81l-15.99-7.12c-.42-.18-.89-.09-1.18.24-1.88,2.01-4.65,6.15-8.3,12.44-13.28,22.85-20.05,48.3-20.36,74.15ZM830.57,1355.12c-.34-25.84-7.11-51.28-20.4-74.1-3.66-6.29-6.42-10.43-8.3-12.43-.3-.33-.78-.43-1.18-.25l-15.97,7.13c-.32.15-.44.52-.26.81,7.38,11.97,12.63,24.29,15.75,36.92,3.34,13.51,5.11,27.59,5.3,42.24.19,14.65-1.22,28.77-4.2,42.36-2.8,12.72-7.73,25.17-14.79,37.33-.17.29-.04.66.27.8l16.17,6.72c.42.17.88.06,1.17-.27,1.83-2.06,4.49-6.28,7.99-12.64,12.68-23.16,18.8-48.77,18.46-74.61ZM2170.77,1405.32c24.11,0,42.28-15.28,48.4-38.76,3.44-13.2,4.03-26.99,2.55-40.13-2.45-21.84-12.49-40.26-32.97-49.51-4.87-2.21-10.86-3.31-17.96-3.31s-13.07,1.1-17.95,3.3c-20.49,9.25-30.52,27.66-32.98,49.5-1.49,13.14-.9,26.93,2.53,40.13,6.12,23.49,24.28,38.77,48.39,38.78ZM478.26,1372.82c.1-.03.26-.12.47-.29,8.87-6.88,17.18-14.88,24.93-23.99,2.63-3.09,5.37-7.38,8.21-12.88,3.56-6.9,5.12-14.01,4.7-21.34-.73-12.44-6.78-26.68-17.58-33-10.11-5.91-21.87-8.4-35.27-7.49-13.83.94-26.79,9.08-34.5,20.51-3.38,5.01-6.83,10.23-8.73,15.8-.13.39.05.83.43,1l23.24,10.56c.27.12.58,0,.7-.27,2.61-6.43,5.66-12.13,10.4-17.19,5.15-5.49,10.2-7.31,17.73-5.42,4.51,1.12,7.72,3.73,9.62,7.84,3.59,7.73,3.39,15.19-.61,22.38-4.96,8.94-11.67,17.93-20.12,26.97-12.64,13.52-26.46,26.62-41.44,39.27-.44.37-.69.91-.69,1.47v5.76c0,.27.23.49.51.49h98.06c.28,0,.51-.22.51-.51v-24.26c0-.36-.29-.65-.65-.65h-45.52c-.37,0-.53-.48-.23-.7l4.94-3.53c.39-.28.73-.48.9-.54ZM1102.97,1402.35c-.24.27-.04.69.32.69l34.1-.13c.46,0,.9-.2,1.19-.54,11.68-13.77,21.59-25.63,29.72-35.57,3.26-3.99,7.12-9.8,11.59-17.4,3.58-6.12,5.82-11.79,6.72-17.02,2.17-12.69,2.41-26.45-4.78-36.74-8.88-12.69-21.45-19.92-37.71-21.68-15.21-1.65-32.38,2.64-43.03,13.59-9.7,9.95-12.58,24.8-10.12,38.15,2.91,15.78,11.75,26.74,26.5,32.85,7.01,2.91,14.06,3.44,21.14,1.6.34-.09.6.32.36.57l-35.99,41.65ZM1281.17,1402.35c-.22.27-.03.69.33.69l34.08-.21c.46,0,.9-.2,1.19-.55,11.64-13.78,21.51-25.65,29.62-35.61,3.25-4.01,7.1-9.81,11.53-17.43,3.57-6.13,5.79-11.8,6.67-17.02,2.15-12.7,2.35-26.45-4.85-36.71-8.91-12.67-21.5-19.87-37.74-21.59-15.21-1.61-32.36,2.72-42.97,13.68-9.66,9.97-12.51,24.82-10.02,38.15,2.95,15.77,11.8,26.7,26.55,32.78,7.02,2.89,14.07,3.4,21.14,1.53.34-.09.6.32.37.59l-35.89,41.7ZM1598.7,1402.38c-.24.27-.03.69.32.69l34.11-.13c.46,0,.9-.2,1.19-.54,11.68-13.77,21.59-25.63,29.72-35.57,3.27-3.99,7.13-9.8,11.6-17.41,3.58-6.12,5.82-11.79,6.72-17.02,2.18-12.69,2.42-26.45-4.77-36.74-8.89-12.7-21.46-19.92-37.72-21.69-15.21-1.65-32.38,2.64-43.04,13.59-9.7,9.94-12.58,24.8-10.12,38.15,2.91,15.8,11.74,26.75,26.5,32.86,7.01,2.91,14.06,3.44,21.15,1.6.34-.09.59.32.36.59l-36.01,41.65ZM322.26,1276.56c.24-.27.04-.69-.31-.69l-34.13.02c-.45,0-.89.2-1.19.55-11.72,13.74-21.68,25.56-29.85,35.48-3.27,3.99-7.17,9.79-11.64,17.39-3.6,6.11-5.86,11.78-6.78,17-2.22,12.7-2.5,26.47,4.67,36.79,8.85,12.72,21.41,20,37.67,21.81,15.22,1.7,32.41-2.54,43.11-13.45,9.72-9.93,12.66-24.78,10.24-38.15-2.86-15.81-11.67-26.8-26.4-32.96-7.01-2.92-14.06-3.48-21.15-1.65-.35.09-.6-.32-.36-.59l36.15-41.56ZM688.1,1276.54c.24-.27.04-.69-.32-.69h-34.14c-.46,0-.89.19-1.19.54-11.75,13.74-21.71,25.56-29.89,35.48-3.28,3.99-7.18,9.79-11.67,17.38-3.61,6.11-5.87,11.78-6.8,17.01-2.23,12.7-2.52,26.47,4.64,36.8,8.84,12.75,21.4,20.02,37.66,21.86,15.22,1.71,32.42-2.52,43.13-13.43,9.74-9.92,12.69-24.77,10.28-38.15-2.85-15.82-11.64-26.82-26.39-33-7.01-2.94-14.06-3.5-21.16-1.68-.34.09-.59-.32-.36-.59l36.2-41.55ZM997.13,1350.74c-.32,0-.57-.26-.57-.57v-73.7c0-.32-.26-.57-.57-.57h-27.76c-.19,0-.37.1-.47.26l-60.73,91.25c-.07.1-.1.2-.1.32v7.91c0,.32.26.57.57.57h61.38c.32,0,.57.26.57.57v25.65c0,.32.26.57.57.57h25.95c.32,0,.57-.26.57-.57v-25.67c0-.32.26-.57.57-.57h13.71c.31,0,.57-.26.57-.57v-24.29c0-.32-.26-.57-.57-.57h-13.7ZM1771.58,1300.77c0,.26.21.46.46.46h53.29c.44,0,.71.47.48.84l-57.72,100.32c-.15.27.05.61.35.61h33.1c.22.01.43-.11.54-.3l66.64-117.74c.25-.43.37-.9.37-1.4l.02-7.27c0-.21-.18-.38-.39-.38l-96.43-.02c-.39,0-.72.33-.72.71v24.18ZM2046.87,1276.37c0-.26-.21-.47-.47-.47h-96.58c-.26,0-.47.21-.47.47v24.39c0,.26.21.47.47.47h53.52c.37,0,.6.39.42.71l-57.94,100.35c-.18.32.05.71.42.71h33.15c.17,0,.33-.09.41-.24l67.03-118.35c.03-.08.06-.16.06-.24v-7.81ZM1500.1,1347.21c0-.33-.26-.59-.59-.59h-48.4c-.33,0-.59.26-.59.59v22.37c0,.33.26.59.59.59h48.4c.33,0,.59-.26.59-.59v-22.37ZM785.77,1523.58c-.13-4.3-4.11-7.66-8.9-7.52-4.79.14-8.57,3.74-8.44,8.04.13,4.3,4.11,7.66,8.9,7.52,4.79-.14,8.57-3.74,8.44-8.04ZM963.95,1523.52c-.15-4.29-4.13-7.63-8.91-7.47-4.77.16-8.51,3.78-8.36,8.07.15,4.29,4.13,7.63,8.91,7.47,4.77-.16,8.51-3.78,8.36-8.07ZM1483.68,1523.56c-.13-4.3-4.1-7.66-8.87-7.51-4.76.15-8.52,3.75-8.38,8.05.13,4.3,4.1,7.66,8.87,7.51,4.76-.15,8.52-3.75,8.38-8.05ZM1304.25,1520.51c0-.21-.18-.39-.39-.39h-13.03c-.21,0-.39.18-.39.39v65.07c0,.21.18.39.39.39h13.03c.21,0,.39-.18.39-.39v-65.07ZM359,1572.63c3.08,0,7.72,0,13.89-.01.26,0,.5.16.61.4l5.33,12.49c.13.3.44.51.78.51h13.71c.24,0,.39-.24.3-.45l-27.14-60.88c-.16-.35-.5-.6-.89-.63-1.53-.12-3.72-.18-6.58-.18s-5.05.06-6.58.18c-.39.03-.73.27-.89.62l-27.18,60.87c-.1.2.07.45.3.45h13.71c.33.01.63-.19.78-.5l5.34-12.49c.1-.25.35-.4.61-.4,6.18.01,10.8.01,13.88.02ZM894.38,1550.68c-.06,6.58-.08,10.68-.09,12.26-.02,11.14.19,20.35,12.23,23.2,4.92,1.16,10.12.65,15.64-1.52.9-.35,1.34-1.37.97-2.27l-2.96-7.1c-.3-.72-1.19-.99-1.83-.54-2.31,1.6-7.03,1.32-8.98-1-.78-.92-1.16-2.58-1.14-4.97.02-2.51.02-8.53-.01-18.06-.01-.42.34-.77.75-.77h10.83c.16,0,.29-.13.29-.3v-9.99c0-.17-.13-.32-.3-.32h-10.96c-.34,0-.62-.27-.62-.61v-10.44c0-.34-.28-.62-.63-.62h-12.63c-.33,0-.59.26-.59.59v10.43c0,.34-.28.62-.62.62h-5.37c-.78,0-1.41.63-1.41,1.41v7.81c0,.8.64,1.44,1.44,1.44h5.23c.42,0,.75.34.74.75ZM1414.12,1550.69c-.06,6.59-.08,10.68-.09,12.26-.01,11.14.2,20.35,12.24,23.2,4.92,1.15,10.12.64,15.64-1.53.9-.36,1.34-1.38.97-2.27l-2.96-7.1c-.3-.72-1.19-.99-1.83-.54-2.31,1.6-7.03,1.32-8.98-.99-.79-.92-1.16-2.59-1.14-4.97.01-2.52.01-8.54-.02-18.06-.01-.43.33-.77.75-.77h10.83c.16-.01.29-.15.29-.31v-9.99c-.01-.17-.15-.32-.32-.32h-10.96c-.34.01-.62-.26-.62-.6v-10.44c0-.34-.28-.62-.63-.62h-12.63c-.33.01-.59.27-.59.6v10.43c0,.34-.27.62-.62.62h-5.37c-.78,0-1.41.63-1.41,1.41v7.81c.01.79.65,1.44,1.45,1.44h5.23c.42-.01.74.34.74.74ZM507.13,1543.78v-4.86c0-.37-.3-.68-.68-.68h-11.88c-.4,0-.74.33-.74.73v46.31c0,.39.33.72.72.72h12.6c.36,0,.65-.29.66-.65l.11-26.2c0-.2.05-.42.13-.61,1.49-3.07,2.49-4.8,3-5.2,3.48-2.62,7.45-3.64,11.9-3.07.33.05.61-.21.61-.54v-11.5c0-.39-.31-.72-.71-.71-5.13.06-9.56,1.51-13.31,4.37-.78.6-1.38,1.71-1.95,2.13-.2.15-.48.01-.48-.24ZM559.44,1586.52l7.88-.06c3.75-.39,7.2-2.29,10.36-5.73.09-.1.25-.03.25.1v4.46c0,.39.33.72.72.72h11.6c.39,0,.72-.33.72-.72.05-8.11.07-16.81.06-26.08,0-3.17-.75-6.23-1.63-9.7-1.58-6.25-8.97-10.47-15-11.45-9.28-1.5-17.85-.02-25.71,4.44-.74.43-1.01,1.35-.63,2.1l3.45,6.87c.37.74,1.29,1,2,.57,2.44-1.48,5.5-2.58,9.2-3.27,5.39-1.02,9.73.28,13.05,3.94.63.69,1.02,2.22,1.19,4.59.02.37-.28.69-.65.67-5.19-.22-14.67-.52-21.11,1.53-5.83,1.85-9.53,6.12-9.65,12.31-.18,8.52,6.04,13.23,13.89,14.69ZM633.95,1542.6v-3.76c0-.33-.27-.6-.6-.6h-12.34c-.2,0-.37.17-.37.37v64.08c0,.3.24.54.54.54h12.63c.34,0,.62-.28.62-.62v-20.72c0-.26.3-.4.51-.24,5.48,4.4,11.53,5.95,18.17,4.67,14.42-2.79,21.05-14.66,19.17-28.77-1.73-13.02-12.72-20.68-25.68-19.96-4.53.25-8.5,2.01-11.94,5.29-.27.26-.71.07-.71-.29ZM727.74,1581.14v4.24c0,.35.28.63.63.63h11.63c.4,0,.73-.33.73-.73-.01-11.53,0-20.05.02-25.57.03-7.2-1.2-12.29-6.44-16.93-9.43-8.36-26.11-5.77-36.43-.17-.48.26-.66.87-.42,1.35l4.15,8.25c.21.44.78.59,1.18.29,3.5-2.58,7.84-3.89,13.01-3.97,6.04-.09,9.71,2.79,11.01,8.64.09.4-.21.79-.63.78-10.15-.12-30.77-1.85-30.84,13.87-.04,11.99,11.17,15.87,21.6,14.66,4.2-.49,7.58-2.35,10.14-5.56.21-.27.64-.11.64.22ZM827.33,1543.02v-4.3c0-.28-.23-.51-.51-.51h-11.95c-.41,0-.74.34-.74.74v46.39c0,.43.34.77.76.77h12.47c.38,0,.7-.32.7-.7-.01-12.61-.01-20.31,0-23.06.05-5.89,2.38-11.01,8.21-12.4,6.76-1.61,12.58,1.79,12.7,9.12.18,9.83.2,18.59.06,26.25-.01.43.35.78.78.78h12.43c.4,0,.74-.33.74-.73-.05-11.44-.06-19.69-.02-24.72.04-10.52-3.03-20.08-14.61-22.56-7.98-1.71-14.77.02-20.41,5.19-.24.21-.61.04-.61-.27ZM1005.59,1542.99v-4.3c0-.28-.24-.51-.51-.51l-11.94.02c-.4,0-.74.33-.74.74l.07,46.33c0,.43.34.76.76.76l12.44-.02c.39,0,.7-.3.7-.7-.03-12.59-.04-20.27-.03-23.03.04-5.88,2.37-11,8.19-12.39,6.75-1.62,12.57,1.77,12.7,9.09.19,9.82.21,18.55.09,26.21-.01.43.34.78.78.78l12.41-.02c.42,0,.74-.33.74-.73-.06-11.43-.08-19.65-.06-24.68.03-10.51-3.05-20.05-14.62-22.5-7.97-1.7-14.76.03-20.37,5.21-.23.21-.61.04-.61-.27ZM1106.9,1543.78c-.31-.57-.67-1.02-1.09-1.36-7.86-6.45-20.91-6.66-28.42-.26-.25.2-.54.35-.86.4-.26.06-.42.1-.48.16-11.04,9.67-10.92,26.48.02,35.62,4.59,3.83,10.66,5.48,16.71,5.31,5.65-.17,9.8-1.74,12.44-4.7.79-.88,2.22-.11,1.94,1.02l-1.41,5.66c-.61,2.42-2.28,4.43-4.56,5.47-7.47,3.63-17.99,1.29-24.83-3.21-.26-.17-.61-.08-.76.19l-4.59,8.1c-.44.78-.16,1.77.63,2.21,8.85,4.86,18.42,6.54,28.66,5.03,9.37-1.37,15.52-5.82,18.48-13.32,1.43-3.61,2.07-9.8,1.92-18.59-.08-5.31-.07-16.14.04-32.5,0-.43-.34-.77-.76-.77h-11.8c-.35,0-.63.28-.63.63v4.74c0,.36-.48.48-.66.17ZM1175.87,1570.96c.28,1.75-.06,2.92-1.03,3.51-6.49,3.9-17.8.87-23.67-2.53-.32-.18-.71-.05-.86.28l-3.98,8.81c-.13.29-.03.64.25.8,5.28,3.18,12.22,4.79,20.83,4.85,9.3.06,20.99-3.64,21.8-14.43,1.09-14.81-17.2-13.73-25.89-16.46-2.79-.87-3.89-3.52-1.81-5.7,4.11-4.29,15.99-1.17,20.63.64.58.22,1.26-.05,1.51-.63l3.48-7.65c.21-.48,0-1.05-.47-1.26-10.6-4.76-26.88-6.2-35.89,2.76-2.54,2.52-3.76,5.66-3.64,9.44.39,12.66,14.23,13.3,23.39,14.78,1.56.26,3.15.89,4.74,1.89.34.2.55.53.62.91ZM1211.4,1560.98c-.6,13.66,10.75,25.25,25.34,25.89,14.59.64,26.91-9.92,27.5-23.58.6-13.66-10.75-25.25-25.34-25.89-14.59-.64-26.91,9.92-27.5,23.58ZM1508.4,1561.88c-.12,13.67,11.62,24.87,26.23,24.99,14.6.12,26.54-10.86,26.66-24.53.12-13.67-11.62-24.87-26.23-24.99-14.6-.12-26.54,10.86-26.66,24.53ZM1600.62,1542.97v-4.3c0-.27-.24-.51-.51-.51h-11.95c-.4.01-.74.34-.74.75l.02,46.36c0,.42.34.75.76.75h12.45c.38,0,.7-.32.7-.7-.02-12.6-.02-20.28-.01-23.04.04-5.89,2.38-11.01,8.2-12.4,6.76-1.61,12.57,1.79,12.7,9.11.18,9.83.2,18.57.06,26.23,0,.43.35.78.78.78h12.42c.42-.01.74-.34.74-.74-.04-11.43-.06-19.66-.02-24.69.03-10.51-3.04-20.06-14.61-22.53-7.97-1.71-14.76.02-20.38,5.19-.24.21-.61.05-.61-.27ZM1691.16,1571.01c.28,1.76-.06,2.93-1.04,3.51-6.5,3.89-17.8.82-23.67-2.59-.3-.18-.71-.05-.86.28l-4.01,8.8c-.13.29-.02.64.25.8,5.28,3.19,12.22,4.83,20.82,4.89,9.3.08,21-3.6,21.84-14.38,1.12-14.81-17.17-13.77-25.85-16.52-2.78-.88-3.88-3.53-1.79-5.71,4.11-4.27,15.99-1.14,20.62.69.6.24,1.26-.04,1.52-.62l3.49-7.65c.21-.48.01-1.05-.47-1.26-10.59-4.78-26.85-6.26-35.89,2.68-2.55,2.51-3.77,5.66-3.67,9.43.36,12.66,14.2,13.33,23.36,14.84,1.56.26,3.15.9,4.74,1.9.33.2.55.53.61.91ZM1766.65,1562.14c0,9.18,4.57,17.11,12.8,21.29,11.7,5.93,27.78,4.42,34.85-8.08.18-.32.07-.71-.25-.89l-9.22-5.22c-.41-.22-.91-.11-1.18.26-3.14,4.44-7.19,6.35-12.15,5.71-6.88-.88-10.83-6.21-10.83-13.07s3.95-12.21,10.83-13.08c4.96-.63,9.01,1.28,12.15,5.72.27.38.78.49,1.18.26l9.22-5.22c.32-.17.43-.56.25-.89-7.08-12.5-23.15-14.01-34.85-8.08-8.23,4.17-12.8,12.11-12.8,21.3ZM1888.23,1562.12c0-13.69-11.82-24.78-26.42-24.78s-26.41,11.09-26.41,24.78,11.82,24.78,26.41,24.78,26.42-11.09,26.42-24.78ZM1927.64,1542.71v-3.83c0-.35-.29-.64-.64-.64h-11.96c-.37,0-.66.29-.66.66v46.35c0,.4.33.73.73.73h12.78c.22,0,.42-.19.4-.42-.07-6.6-.08-14.03-.05-22.28.02-6.01,1.2-11.5,7.02-13.23,9.21-2.73,12.59,3.66,12.54,11.71-.01.48.01,8.33.05,23.54,0,.38.31.7.7.7h12.39c.37,0,.67-.3.67-.69.02-13.33.02-20.8.01-22.41-.08-6.85,2.58-12.99,9.72-13.31,5.73-.26,9.66,3.62,9.81,9.35.17,6.58.19,15.35.09,26.31,0,.4.33.73.73.73h12.43c.38,0,.7-.3.69-.69-.06-10.09-.05-16.47.03-19.16.26-8.88-.38-14.97-1.92-18.28-3.21-6.92-9.27-10.37-18.21-10.36-6.59.01-11.91,2.49-15.98,7.44-.11.15-.34.17-.48.04l-5.58-4.87c-.11-.09-.24-.17-.36-.22-9.08-4.08-17.18-3.05-24.3,3.12-.26.23-.65.03-.65-.3ZM450.73,1581.18v4.28c-.01.28.21.51.5.51l11.87.02c.42,0,.74-.33.74-.74l.09-46.12c.01-.42-.34-.75-.75-.75l-12.4-.03c-.38,0-.69.32-.69.7-.01,12.54-.03,20.18-.04,22.93-.06,5.86-2.4,10.95-8.19,12.31-6.73,1.59-12.51-1.8-12.61-9.09-.16-9.78-.16-18.48,0-26.1,0-.43-.35-.78-.78-.78l-12.36-.02c-.4,0-.73.33-.73.73.02,11.37.01,19.56-.03,24.57-.07,10.45,2.97,19.97,14.49,22.46,7.92,1.71,14.68.01,20.29-5.12.24-.21.61-.05.61.27ZM784,1538.66c0-.22-.19-.42-.42-.42h-13.05c-.23,0-.42.19-.42.42v46.94c0,.22.19.42.42.42h13.05c.22,0,.42-.19.42-.42v-46.94ZM962.25,1538.71c0-.26-.2-.46-.46-.46h-12.89c-.26,0-.46.2-.46.46v46.8c0,.26.2.46.46.46h12.89c.26,0,.46-.2.46-.46v-46.8ZM1369.45,1581.13v4.28c0,.27.22.49.51.49h11.86c.4.01.74-.31.74-.72l.05-46.07c0-.42-.34-.75-.75-.75h-12.38c-.38-.02-.7.29-.7.67,0,12.52-.01,20.16-.02,22.89-.06,5.86-2.38,10.93-8.17,12.31-6.72,1.59-12.49-1.79-12.6-9.08-.17-9.77-.18-18.45-.03-26.06.01-.43-.34-.78-.77-.78h-12.34c-.42-.01-.74.32-.74.72.03,11.36.03,19.54,0,24.54-.06,10.44,2.98,19.93,14.48,22.41,7.92,1.71,14.67,0,20.27-5.13.22-.21.6-.04.6.27ZM1482,1538.72c0-.26-.21-.47-.47-.47h-12.94c-.26,0-.47.21-.47.47v46.82c0,.26.21.47.47.47h12.94c.26,0,.47-.21.47-.47v-46.82ZM1744.26,1578.07c0-4.77-3.86-8.63-8.63-8.63s-8.63,3.86-8.63,8.63,3.86,8.63,8.63,8.63,8.63-3.86,8.63-8.63Z"/>
  <path class="st2" d="M133.1,1355.46c-.18,14.66,1.23,28.78,4.22,42.37,2.8,12.72,7.74,25.18,14.82,37.34.17.29.05.66-.27.8l-16.17,6.73c-.41.17-.88.06-1.17-.27-1.83-2.06-4.5-6.27-8-12.64-12.7-23.16-18.83-48.78-18.51-74.63.32-25.85,7.09-51.3,20.36-74.15,3.66-6.29,6.42-10.43,8.3-12.44.29-.33.77-.42,1.18-.24l15.99,7.12c.31.13.43.52.25.81-7.37,11.98-12.61,24.3-15.73,36.95-3.34,13.52-5.1,27.61-5.28,42.27Z"/>
  <path class="st2" d="M830.57,1355.12c.34,25.84-5.78,51.45-18.46,74.61-3.5,6.37-6.15,10.59-7.99,12.64-.29.33-.75.44-1.17.27l-16.17-6.72c-.31-.13-.44-.51-.27-.8,7.07-12.16,11.99-24.6,14.79-37.33,2.98-13.59,4.39-27.71,4.2-42.36-.19-14.66-1.96-28.73-5.3-42.24-3.12-12.63-8.37-24.95-15.75-36.92-.18-.29-.06-.66.26-.81l15.97-7.13c.41-.18.88-.08,1.18.25,1.88,2,4.65,6.14,8.3,12.43,13.29,22.83,20.06,48.26,20.4,74.1Z"/>
  <path class="st2" d="M2170.79,1273.61c7.1,0,13.08,1.1,17.96,3.31,20.49,9.25,30.52,27.67,32.97,49.51,1.47,13.14.89,26.93-2.55,40.13-6.12,23.48-24.29,38.76-48.4,38.76-24.11-.01-42.27-15.29-48.39-38.78-3.43-13.2-4.02-26.99-2.53-40.13,2.46-21.84,12.5-40.25,32.98-49.5,4.88-2.19,10.87-3.3,17.95-3.3ZM2148.33,1339.56c-.01,14.03,2.62,40.48,22.4,40.49,19.78.01,22.45-26.43,22.47-40.44.01-14.03-2.62-40.48-22.4-40.49-19.78-.02-22.45,26.43-22.47,40.44Z"/>
  <path class="st2" d="M477.36,1373.36l-4.94,3.53c-.3.21-.15.7.23.7h45.52c.36,0,.65.29.65.65v24.26c0,.28-.23.51-.51.51h-98.06c-.28,0-.51-.22-.51-.49v-5.76c0-.56.25-1.1.69-1.47,14.99-12.66,28.8-25.75,41.44-39.27,8.45-9.03,15.15-18.02,20.12-26.97,3.99-7.19,4.2-14.65.61-22.38-1.9-4.11-5.11-6.72-9.62-7.84-7.53-1.89-12.58-.07-17.73,5.42-4.74,5.06-7.79,10.76-10.4,17.19-.11.27-.43.39-.7.27l-23.24-10.56c-.38-.17-.56-.61-.43-1,1.9-5.57,5.36-10.79,8.73-15.8,7.72-11.43,20.68-19.56,34.5-20.51,13.4-.91,25.15,1.59,35.27,7.49,10.8,6.31,16.85,20.55,17.58,33,.42,7.34-1.15,14.44-4.7,21.34-2.85,5.5-5.58,9.79-8.21,12.88-7.75,9.1-16.06,17.1-24.93,23.99-.21.17-.37.26-.47.29-.17.06-.51.26-.9.54Z"/>
  <path class="st2" d="M1102.97,1402.35l35.99-41.65c.24-.26-.02-.66-.36-.57-7.08,1.85-14.13,1.32-21.14-1.6-14.76-6.11-23.59-17.07-26.5-32.85-2.45-13.35.43-28.2,10.12-38.15,10.65-10.95,27.82-15.24,43.03-13.59,16.26,1.75,28.83,8.99,37.71,21.68,7.19,10.29,6.95,24.05,4.78,36.74-.9,5.23-3.14,10.9-6.72,17.02-4.47,7.61-8.33,13.41-11.59,17.4-8.13,9.94-18.04,21.8-29.72,35.57-.29.34-.73.54-1.19.54l-34.1.13c-.36,0-.55-.42-.32-.69ZM1158.13,1316.86c0-10.82-8.77-19.6-19.6-19.6s-19.6,8.78-19.6,19.6,8.77,19.6,19.6,19.6,19.6-8.77,19.6-19.6Z"/>
  <path class="st2" d="M1281.17,1402.35l35.89-41.7c.23-.27-.03-.67-.37-.59-7.07,1.87-14.12,1.36-21.14-1.53-14.75-6.09-23.6-17.01-26.55-32.78-2.49-13.33.36-28.18,10.02-38.15,10.62-10.96,27.76-15.29,42.97-13.68,16.25,1.72,28.83,8.92,37.74,21.59,7.2,10.26,7,24.01,4.85,36.71-.88,5.22-3.11,10.89-6.67,17.02-4.43,7.62-8.28,13.42-11.53,17.43-8.11,9.96-17.98,21.82-29.62,35.61-.29.35-.73.55-1.19.55l-34.08.21c-.36,0-.55-.42-.33-.69ZM1336.13,1316.86c0-10.82-8.78-19.6-19.6-19.6s-19.6,8.78-19.6,19.6,8.78,19.6,19.6,19.6,19.6-8.77,19.6-19.6Z"/>
  <path class="st2" d="M1598.7,1402.38l36.01-41.65c.23-.27-.02-.68-.36-.59-7.09,1.85-14.14,1.32-21.15-1.6-14.76-6.11-23.59-17.07-26.5-32.86-2.45-13.35.43-28.2,10.12-38.15,10.66-10.95,27.83-15.24,43.04-13.59,16.26,1.77,28.83,8.99,37.72,21.69,7.19,10.29,6.95,24.05,4.77,36.74-.9,5.23-3.14,10.9-6.72,17.02-4.47,7.62-8.32,13.42-11.6,17.41-8.13,9.95-18.05,21.8-29.72,35.57-.29.34-.73.54-1.19.54l-34.11.13c-.35,0-.55-.42-.32-.69ZM1653.87,1316.86c0-10.82-8.77-19.6-19.6-19.6s-19.6,8.78-19.6,19.6,8.77,19.6,19.6,19.6,19.6-8.77,19.6-19.6Z"/>
  <path class="st2" d="M322.26,1276.56l-36.15,41.56c-.24.27.01.67.36.59,7.09-1.82,14.14-1.27,21.15,1.65,14.74,6.16,23.55,17.16,26.4,32.96,2.42,13.37-.52,28.22-10.24,38.15-10.7,10.91-27.89,15.15-43.11,13.45-16.26-1.81-28.81-9.09-37.67-21.81-7.17-10.32-6.88-24.09-4.67-36.79.92-5.22,3.18-10.89,6.78-17,4.48-7.61,8.37-13.4,11.64-17.39,8.17-9.92,18.12-21.75,29.85-35.48.3-.35.74-.55,1.19-.55l34.13-.02c.36,0,.55.42.31.69ZM305.98,1362.03c0-10.82-8.78-19.6-19.6-19.6s-19.6,8.77-19.6,19.6,8.78,19.6,19.6,19.6,19.6-8.77,19.6-19.6Z"/>
  <path class="st2" d="M688.1,1276.54l-36.2,41.55c-.23.27.02.67.36.59,7.1-1.82,14.15-1.26,21.16,1.68,14.75,6.18,23.55,17.18,26.39,33,2.41,13.38-.54,28.23-10.28,38.15-10.71,10.91-27.91,15.14-43.13,13.43-16.27-1.83-28.82-9.11-37.66-21.86-7.16-10.33-6.86-24.1-4.64-36.8.92-5.23,3.18-10.9,6.8-17.01,4.49-7.59,8.38-13.39,11.67-17.38,8.18-9.92,18.15-21.75,29.89-35.48.3-.35.73-.54,1.19-.54h34.14c.36,0,.55.42.32.69ZM671.74,1362.02c0-10.82-8.77-19.6-19.6-19.6s-19.6,8.78-19.6,19.6,8.77,19.6,19.6,19.6,19.6-8.77,19.6-19.6Z"/>
  <path class="st2" d="M997.13,1350.74h13.7c.31,0,.57.26.57.57v24.29c0,.32-.26.57-.57.57h-13.71c-.32,0-.57.26-.57.57v25.67c0,.32-.26.57-.57.57h-25.95c-.31,0-.57-.26-.57-.57v-25.65c0-.32-.26-.57-.57-.57h-61.38c-.31,0-.57-.26-.57-.57v-7.91c0-.11.03-.21.1-.32l60.73-91.25c.1-.16.28-.26.47-.26h27.76c.31,0,.57.26.57.57v73.7c0,.32.26.57.57.57ZM969.45,1315.24c0-.34-.44-.46-.62-.18l-22.04,35.17c-.15.23.02.52.28.52h22.04c.19,0,.34-.15.34-.34v-35.17Z"/>
  <path class="st2" d="M1771.58,1300.77v-24.18c-.01-.38.32-.71.71-.71l96.43.02c.21,0,.39.17.39.38l-.02,7.27c0,.5-.12.97-.37,1.4l-66.64,117.74c-.11.19-.32.32-.54.32h-33.1c-.3-.01-.49-.35-.35-.62l57.72-100.32c.23-.37-.04-.84-.48-.84h-53.29c-.25,0-.46-.2-.46-.46Z"/>
  <path class="st2" d="M2046.87,1276.37v7.81c0,.08-.02.16-.06.24l-67.03,118.35c-.08.15-.24.24-.41.24h-33.15c-.37,0-.6-.39-.42-.71l57.94-100.35c.18-.32-.05-.71-.42-.71h-53.52c-.26,0-.47-.21-.47-.47v-24.39c0-.26.21-.47.47-.47h96.58c.26,0,.47.21.47.47Z"/>
  <circle class="st1" cx="1138.53" cy="1316.86" r="19.6" transform="translate(-417.27 535.94) rotate(-22.5)"/>
  <circle class="st1" cx="1316.53" cy="1316.86" r="19.6"/>
  <circle class="st1" cx="1634.28" cy="1316.86" r="19.6"/>
  <path class="st1" d="M2170.8,1299.12c19.78.01,22.41,26.46,22.4,40.49-.01,14.02-2.69,40.45-22.47,40.44-19.78-.01-22.41-26.46-22.4-40.49.01-14.02,2.69-40.47,22.47-40.44Z"/>
  <path class="st1" d="M969.45,1315.24v35.17c0,.19-.15.34-.34.34h-22.04c-.26,0-.43-.29-.28-.52l22.04-35.17c.18-.28.62-.16.62.18Z"/>
  <circle class="st1" cx="286.38" cy="1362.03" r="19.6" transform="translate(-74.88 17.92) rotate(-3.17)"/>
  <circle class="st1" cx="652.14" cy="1362.02" r="19.6"/>
  <rect class="st2" x="1450.53" y="1346.62" width="49.57" height="23.54" rx=".59" ry=".59"/>
  <ellipse class="st2" cx="777.1" cy="1523.83" rx="8.67" ry="7.78" transform="translate(-44.86 23.72) rotate(-1.7)"/>
  <ellipse class="st2" cx="955.32" cy="1523.82" rx="8.64" ry="7.77" transform="translate(-52.6 34.27) rotate(-2)"/>
  <ellipse class="st2" cx="1475.06" cy="1523.83" rx="8.63" ry="7.78" transform="translate(-47.14 47.08) rotate(-1.8)"/>
  <rect class="st2" x="1290.43" y="1520.11" width="13.82" height="65.86" rx=".39" ry=".39"/>
  <path class="st2" d="M359.02,1523.87c2.86,0,5.05.06,6.58.18.39.03.73.28.89.63l27.14,60.88c.09.21-.07.45-.3.45h-13.71c-.34,0-.64-.2-.78-.51l-5.33-12.49c-.11-.25-.35-.4-.61-.4-6.18.01-10.81.01-13.89.01-3.08-.01-7.71-.01-13.88-.02-.26,0-.51.16-.61.4l-5.34,12.49c-.15.3-.45.51-.78.51h-13.71c-.24-.01-.41-.26-.3-.46l27.18-60.87c.16-.35.5-.59.89-.62,1.53-.12,3.72-.18,6.58-.18ZM349.22,1561.32c-.09.23.08.48.33.48h18.74c.25,0,.42-.26.33-.48l-9.37-22.62c-.12-.29-.53-.29-.65,0l-9.37,22.62Z"/>
  <path class="st2" d="M893.63,1549.92h-5.23c-.8,0-1.44-.64-1.44-1.44v-7.81c0-.78.63-1.41,1.41-1.41h5.37c.34,0,.62-.28.62-.62v-10.43c0-.33.26-.59.59-.59h12.63c.35,0,.63.28.63.62v10.44c0,.34.28.61.62.61h10.96c.17,0,.3.15.3.32v9.99c0,.17-.13.3-.29.3h-10.83c-.42,0-.76.35-.75.77.03,9.53.03,15.55.01,18.06-.02,2.4.36,4.05,1.14,4.97,1.95,2.32,6.67,2.6,8.98,1,.64-.45,1.53-.18,1.83.54l2.96,7.1c.37.9-.07,1.92-.97,2.27-5.51,2.17-10.72,2.68-15.64,1.52-12.04-2.85-12.25-12.06-12.23-23.2.01-1.59.03-5.68.09-12.26.01-.42-.33-.75-.74-.75Z"/>
  <path class="st2" d="M1414.12,1550.69c0-.4-.33-.75-.74-.75h-5.23c-.8.01-1.44-.64-1.44-1.43v-7.81c-.01-.78.62-1.41,1.39-1.41h5.37c.35,0,.62-.28.62-.62v-10.43c0-.33.26-.58.59-.58h12.63c.35-.01.63.27.63.61v10.44c0,.34.28.61.62.61h10.96c.17-.01.3.13.3.3v9.99c.01.17-.12.3-.28.3h-10.83c-.43.01-.76.35-.75.78.03,9.52.03,15.54.02,18.06-.02,2.39.35,4.05,1.14,4.97,1.95,2.31,6.67,2.59,8.98.99.64-.45,1.53-.18,1.83.54l2.96,7.1c.37.89-.07,1.91-.97,2.27-5.51,2.17-10.72,2.68-15.64,1.53-12.04-2.85-12.25-12.06-12.24-23.2.01-1.59.03-5.67.09-12.26Z"/>
  <path class="st2" d="M507.61,1544.02c.56-.42,1.17-1.53,1.95-2.13,3.75-2.86,8.18-4.31,13.31-4.37.39-.01.71.32.71.71v11.5c0,.33-.28.59-.61.54-4.45-.57-8.43.45-11.9,3.07-.52.39-1.52,2.13-3,5.2-.09.19-.13.4-.13.61l-.11,26.2c-.01.36-.3.65-.66.65h-12.6c-.39,0-.72-.33-.72-.72v-46.31c0-.4.34-.73.74-.73h11.88c.37,0,.68.3.68.68v4.86c0,.25.28.38.48.24Z"/>
  <path class="st2" d="M567.31,1586.46l-7.88.06c-7.85-1.46-14.07-6.18-13.89-14.69.12-6.19,3.82-10.46,9.65-12.31,6.44-2.05,15.92-1.75,21.11-1.53.37.01.67-.3.65-.67-.17-2.37-.56-3.9-1.19-4.59-3.32-3.66-7.66-4.96-13.05-3.94-3.7.7-6.76,1.79-9.2,3.27-.71.43-1.63.17-2-.57l-3.45-6.87c-.38-.75-.11-1.68.63-2.1,7.85-4.47,16.43-5.94,25.71-4.44,6.03.98,13.42,5.2,15,11.45.88,3.47,1.63,6.53,1.63,9.7.01,9.27-.01,17.97-.06,26.08,0,.39-.33.72-.72.72h-11.6c-.39,0-.72-.33-.72-.72v-4.46c0-.13-.16-.2-.25-.1-3.16,3.43-6.62,5.33-10.36,5.73ZM573.46,1575.67c2.99-2.45,4.21-5.48,3.62-9.07-.06-.34-.35-.59-.69-.6-3.19-.06-6.5-.03-9.92.08-4.32.12-8.11,1.91-7.17,6.75.33,1.72,2.01,3.59,3.58,3.97,3.79.9,7.06.69,9.83-.65.27-.13.52-.29.74-.48Z"/>
  <path class="st2" d="M634.66,1542.89c3.43-3.27,7.4-5.04,11.94-5.29,12.96-.72,23.95,6.94,25.68,19.96,1.88,14.11-4.75,25.98-19.17,28.77-6.64,1.28-12.69-.27-18.17-4.67-.2-.17-.51-.02-.51.24v20.72c0,.34-.28.62-.62.62h-12.63c-.3,0-.54-.24-.54-.54v-64.08c0-.2.17-.37.37-.37h12.34c.33,0,.6.27.6.6v3.76c0,.36.44.55.71.29ZM646.29,1548.89c-6.8.08-12.25,6.11-12.16,13.45.09,7.34,5.68,13.23,12.48,13.15,6.8-.08,12.25-6.11,12.16-13.45-.09-7.34-5.68-13.23-12.48-13.15Z"/>
  <path class="st2" d="M727.1,1580.92c-2.55,3.21-5.94,5.06-10.14,5.56-10.43,1.22-21.64-2.67-21.6-14.66.07-15.72,20.69-14,30.84-13.87.42.01.72-.37.63-.78-1.31-5.85-4.97-8.73-11.01-8.64-5.16.08-9.51,1.39-13.01,3.97-.4.29-.97.15-1.18-.29l-4.15-8.25c-.25-.48-.07-1.09.42-1.35,10.32-5.6,27-8.19,36.43.17,5.23,4.65,6.47,9.73,6.44,16.93-.02,5.52-.03,14.04-.02,25.57,0,.4-.33.73-.73.73h-11.63c-.35,0-.63-.28-.63-.63v-4.24c0-.34-.43-.49-.64-.22ZM723.03,1575.69c2.99-2.44,4.2-5.46,3.62-9.03-.06-.34-.35-.58-.69-.6-3.18-.06-6.48-.03-9.89.07-4.3.12-8.08,1.9-7.14,6.73.33,1.71,2,3.58,3.57,3.96,3.77.9,7.04.69,9.8-.65.26-.12.51-.28.73-.47Z"/>
  <path class="st2" d="M827.93,1543.29c5.64-5.16,12.43-6.9,20.41-5.19,11.59,2.48,14.66,12.04,14.61,22.56-.03,5.03-.02,13.28.02,24.72,0,.4-.34.73-.74.73h-12.43c-.43,0-.79-.35-.78-.78.15-7.66.12-16.41-.06-26.25-.12-7.34-5.94-10.73-12.7-9.12-5.83,1.38-8.17,6.5-8.21,12.4-.01,2.76-.01,10.45,0,23.06,0,.38-.31.7-.7.7h-12.47c-.43,0-.76-.34-.76-.77v-46.39c0-.4.34-.74.74-.74h11.95c.28,0,.51.22.51.51v4.3c0,.32.37.48.61.27Z"/>
  <path class="st2" d="M1005.59,1542.99c0,.31.38.48.61.27,5.61-5.18,12.41-6.91,20.37-5.21,11.58,2.45,14.66,11.99,14.62,22.5-.02,5.03,0,13.25.06,24.68,0,.4-.33.73-.74.73l-12.41.02c-.44,0-.79-.35-.78-.78.12-7.66.1-16.39-.09-26.21-.13-7.32-5.95-10.71-12.7-9.09-5.82,1.38-8.14,6.5-8.19,12.39-.01,2.76,0,10.44.03,23.03,0,.39-.3.7-.7.7l-12.44.02c-.43,0-.76-.34-.76-.76l-.07-46.33c0-.42.34-.74.74-.74l11.94-.02c.27,0,.51.22.51.51v4.3Z"/>
  <path class="st2" d="M1106.9,1543.78c.18.32.66.19.66-.17v-4.74c0-.35.28-.63.63-.63h11.8c.43,0,.76.34.76.77-.11,16.36-.12,27.19-.04,32.5.15,8.79-.5,14.97-1.92,18.59-2.96,7.5-9.11,11.95-18.48,13.32-10.25,1.51-19.81-.17-28.66-5.03-.79-.44-1.07-1.43-.63-2.21l4.59-8.1c.16-.27.51-.36.76-.19,6.84,4.5,17.36,6.84,24.83,3.21,2.27-1.04,3.95-3.05,4.56-5.47l1.41-5.66c.28-1.14-1.15-1.9-1.94-1.02-2.64,2.96-6.79,4.53-12.44,4.7-6.04.17-12.12-1.48-16.71-5.31-10.95-9.13-11.06-25.94-.02-35.62.07-.06.23-.1.48-.16.32-.06.61-.2.86-.4,7.5-6.4,20.55-6.19,28.42.26.42.34.78.79,1.09,1.36ZM1081.82,1560.49c-.11,6.49,5.45,11.84,12.43,11.96,6.98.13,12.73-5.04,12.84-11.52.11-6.49-5.45-11.84-12.43-11.96-6.98-.13-12.73,5.04-12.84,11.52Z"/>
  <path class="st2" d="M1175.87,1570.96c-.07-.38-.28-.71-.62-.91-1.59-1-3.17-1.63-4.74-1.89-9.16-1.49-22.99-2.13-23.39-14.78-.11-3.78,1.1-6.92,3.64-9.44,9.01-8.95,25.29-7.52,35.89-2.76.47.21.69.78.47,1.26l-3.48,7.65c-.25.59-.92.86-1.51.63-4.65-1.81-16.53-4.93-20.63-.64-2.08,2.18-.98,4.84,1.81,5.7,8.69,2.73,26.98,1.65,25.89,16.46-.81,10.79-12.5,14.49-21.8,14.43-8.62-.06-15.56-1.66-20.83-4.85-.28-.16-.38-.51-.25-.8l3.98-8.81c.15-.33.54-.46.86-.28,5.87,3.4,17.18,6.43,23.67,2.53.98-.59,1.32-1.76,1.03-3.51Z"/>
  <path class="st2" d="M1211.4,1560.98c.59-13.66,12.91-24.23,27.5-23.58,14.59.64,25.94,12.23,25.34,25.89-.59,13.66-12.91,24.23-27.5,23.58-14.59-.64-25.94-12.23-25.34-25.89ZM1249.62,1558.58c-.27-5.68-3.29-8.82-9.03-9.42-4.22-.57-7.68.32-10.39,2.65-6.24,5.38-6.03,15.97.62,21.24,4.22,3.33,10.33,3.05,14.51-.52,3.78-3.21,5.21-7.86,4.3-13.96Z"/>
  <path class="st2" d="M1508.4,1561.88c.12-13.67,12.06-24.65,26.66-24.53,14.61.12,26.36,11.32,26.23,24.99-.12,13.67-12.06,24.65-26.66,24.53-14.61-.12-26.36-11.32-26.23-24.99ZM1539.28,1574.66c.63.15.92-.04.89-.55,5.61-3.57,7.73-8.93,6.35-16.12-.35-5.3-3.33-8.26-8.96-8.88-3.96-.53-7.61.37-10.93,2.69-.3.21-.57.47-.8.78-2.9,3.9-3.86,8.1-2.86,12.6,1.87,8.36,7.3,11.52,16.31,9.48Z"/>
  <path class="st2" d="M1600.62,1542.97c0,.32.37.48.61.27,5.62-5.16,12.42-6.9,20.38-5.19,11.58,2.47,14.65,12.03,14.61,22.53-.03,5.03-.02,13.26.02,24.69,0,.4-.33.73-.74.73h-12.42c-.43.01-.78-.34-.78-.77.15-7.66.12-16.4-.06-26.23-.13-7.32-5.94-10.72-12.7-9.11-5.82,1.38-8.16,6.5-8.2,12.4-.01,2.76-.01,10.44.01,23.04,0,.38-.32.7-.7.7h-12.45c-.43,0-.76-.34-.76-.75l-.02-46.36c0-.42.34-.74.74-.74h11.95c.27-.01.51.22.51.49v4.3Z"/>
  <path class="st2" d="M1690.55,1570.1c-1.59-1-3.17-1.64-4.74-1.9-9.16-1.51-22.99-2.18-23.36-14.84-.1-3.77,1.11-6.92,3.67-9.43,9.03-8.93,25.3-7.46,35.89-2.68.48.21.69.78.47,1.26l-3.49,7.65c-.26.57-.92.86-1.52.62-4.63-1.82-16.52-4.96-20.62-.69-2.09,2.18-.99,4.84,1.79,5.71,8.68,2.75,26.98,1.71,25.85,16.52-.83,10.78-12.53,14.46-21.84,14.38-8.61-.07-15.55-1.7-20.82-4.89-.27-.16-.38-.51-.25-.8l4.01-8.8c.15-.33.55-.46.86-.28,5.87,3.41,17.17,6.48,23.67,2.59.98-.58,1.32-1.75,1.04-3.51-.06-.38-.28-.71-.61-.91Z"/>
  <path class="st2" d="M1780.67,1562.14c0,6.86,3.95,12.2,10.83,13.07,4.96.63,9.01-1.27,12.15-5.71.27-.37.78-.48,1.18-.26l9.22,5.22c.32.18.43.57.25.89-7.08,12.5-23.15,14.01-34.85,8.08-8.23-4.17-12.8-12.11-12.8-21.29s4.57-17.12,12.8-21.3c11.7-5.93,27.78-4.42,34.85,8.08.18.33.07.72-.25.89l-9.22,5.22c-.41.24-.91.12-1.18-.26-3.14-4.43-7.19-6.35-12.15-5.72-6.88.88-10.83,6.21-10.83,13.08Z"/>
  <path class="st2" d="M1888.23,1562.12c0,13.69-11.82,24.78-26.42,24.78s-26.41-11.09-26.41-24.78,11.82-24.78,26.41-24.78,26.42,11.09,26.42,24.78ZM1861.02,1548.93c-6.83.4-12.03,6.66-11.59,13.96.44,7.31,6.32,12.9,13.16,12.49,6.83-.4,12.03-6.66,11.59-13.96-.44-7.31-6.32-12.9-13.16-12.49Z"/>
  <path class="st2" d="M1928.3,1543.02c7.12-6.16,15.22-7.2,24.3-3.12.12.06.25.13.36.22l5.58,4.87c.15.12.37.1.48-.04,4.06-4.95,9.38-7.43,15.98-7.44,8.94-.01,15.01,3.44,18.21,10.36,1.54,3.31,2.18,9.4,1.92,18.28-.08,2.69-.09,9.07-.03,19.16.01.38-.3.69-.69.69h-12.43c-.4,0-.73-.33-.73-.73.1-10.97.08-19.73-.09-26.31-.15-5.73-4.08-9.61-9.81-9.35-7.14.31-9.8,6.46-9.72,13.31.01,1.61.01,9.08-.01,22.41,0,.38-.3.69-.67.69h-12.39c-.38,0-.7-.32-.7-.7-.03-15.21-.06-23.05-.05-23.54.05-8.06-3.33-14.44-12.54-11.71-5.82,1.73-7,7.22-7.02,13.23-.03,8.25-.02,15.67.05,22.28.01.22-.18.42-.4.42h-12.78c-.4,0-.73-.33-.73-.73v-46.35c0-.37.29-.66.66-.66h11.96c.35,0,.64.29.64.64v3.83c0,.34.39.53.65.3Z"/>
  <path class="st2" d="M450.73,1581.18c0-.32-.37-.48-.61-.27-5.61,5.13-12.38,6.83-20.29,5.12-11.52-2.49-14.56-12-14.49-22.46.05-5.01.06-13.2.03-24.57,0-.4.33-.73.73-.73l12.36.02c.43,0,.78.35.78.78-.16,7.62-.16,16.32,0,26.1.1,7.29,5.88,10.68,12.61,9.09,5.79-1.36,8.13-6.45,8.19-12.31.01-2.75.03-10.38.04-22.93,0-.38.3-.7.69-.7l12.4.03c.42,0,.77.34.75.75l-.09,46.12c0,.42-.33.74-.74.74l-11.87-.02c-.28,0-.51-.22-.51-.51v-4.28Z"/>
  <rect class="st2" x="770.12" y="1538.25" width="13.88" height="47.77" rx=".42" ry=".42"/>
  <rect class="st2" x="948.43" y="1538.25" width="13.82" height="47.72" rx=".46" ry=".46"/>
  <path class="st2" d="M1369.45,1581.13c0-.31-.37-.48-.6-.27-5.6,5.13-12.35,6.84-20.27,5.13-11.5-2.48-14.54-11.97-14.48-22.41.03-4.99.03-13.17,0-24.54,0-.4.33-.73.74-.73h12.34c.43.01.78.36.77.79-.15,7.61-.13,16.29.03,26.06.11,7.29,5.88,10.66,12.6,9.08,5.78-1.37,8.11-6.45,8.17-12.31.01-2.73.02-10.37.02-22.89,0-.38.32-.7.7-.69h12.38c.42.01.75.35.75.76l-.05,46.07c0,.4-.34.73-.74.73h-11.86c-.28-.01-.51-.24-.51-.51v-4.28Z"/>
  <rect class="st2" x="1468.11" y="1538.25" width="13.88" height="47.77" rx=".47" ry=".47"/>
  <path class="st1" d="M349.22,1561.32l9.37-22.62c.12-.29.53-.29.65,0l9.37,22.62c.09.23-.08.48-.33.48h-18.74c-.25,0-.42-.26-.33-.48Z"/>
  <ellipse class="st1" cx="646.45" cy="1562.19" rx="12.32" ry="13.3" transform="translate(-19.04 8.01) rotate(-.7)"/>
  <ellipse class="st1" cx="1094.46" cy="1560.71" rx="11.74" ry="12.63" transform="translate(-485.12 2627.76) rotate(-89)"/>
  <ellipse class="st1" cx="1861.81" cy="1562.16" rx="12.4" ry="13.25" transform="translate(-89.37 113.17) rotate(-3.4)"/>
  <path class="st1" d="M1240.58,1549.16c4.52,1.7,7.54,4.84,9.03,9.42.91,6.1-.52,10.75-4.3,13.96-4.18,3.57-10.29,3.85-14.51.52-6.65-5.27-6.86-15.86-.62-21.24,2.71-2.34,6.18-3.23,10.39-2.65Z"/>
  <path class="st0" d="M1249.62,1558.58c-1.5-4.58-4.51-7.72-9.03-9.42,5.75.6,8.76,3.73,9.03,9.42Z"/>
  <path class="st1" d="M1537.56,1549.11c4.29,1.72,7.28,4.68,8.96,8.88,1.38,7.19-.73,12.56-6.35,16.12-.47.12-.77.32-.89.55-9.01,2.04-14.44-1.12-16.31-9.48-1-4.5-.05-8.7,2.86-12.6.22-.3.49-.56.8-.78,3.33-2.32,6.97-3.22,10.93-2.69Z"/>
  <path class="st0" d="M1546.52,1557.99c-1.68-4.2-4.67-7.15-8.96-8.88,5.62.62,8.61,3.58,8.96,8.88Z"/>
  <path class="st1" d="M573.46,1575.67c-.22.19-.47.35-.74.48-2.77,1.34-6.04,1.55-9.83.65-1.56-.38-3.25-2.25-3.58-3.97-.94-4.84,2.85-6.63,7.17-6.75,3.42-.11,6.73-.13,9.92-.08.34.01.63.26.69.6.58,3.59-.63,6.62-3.62,9.07Z"/>
  <path class="st1" d="M722.29,1576.16c-2.76,1.34-6.03,1.55-9.8.65-1.56-.38-3.24-2.25-3.57-3.96-.93-4.83,2.85-6.6,7.14-6.73,3.41-.1,6.7-.12,9.89-.07.34.01.63.26.69.6.57,3.58-.63,6.59-3.62,9.03-.23.19-.47.35-.73.47Z"/>
  <circle class="st2" cx="1735.63" cy="1578.07" r="8.63"/>
  <path class="st0" d="M1540.17,1574.11c.03.51-.26.7-.89.55.12-.24.42-.43.89-.55Z"/>
  <path class="st0" d="M567.31,1586.46l-7.88.06,7.88-.06Z"/>
</svg>