<?xml version="1.0" encoding="UTF-8"?>
<svg id="Layer_1" xmlns="http://www.w3.org/2000/svg" version="1.1" xmlns:xlink="http://www.w3.org/1999/xlink" viewBox="0 0 5472 4104">
  <!-- Generator: Adobe Illustrator 29.5.1, SVG Export Plug-In . SVG Version: 2.1.0 Build 141)  -->
  <defs>
    <style>
      .st0 {
        fill: url(#linear-gradient2);
      }

      .st1 {
        fill: #2bafdc;
      }

      .st2 {
        fill: #243b79;
      }

      .st3 {
        fill: #fff;
      }

      .st4 {
        fill: url(#linear-gradient1);
      }

      .st5 {
        fill: #0d589a;
      }

      .st6 {
        fill: #36b44a;
      }

      .st7 {
        fill: url(#linear-gradient);
      }
    </style>
    <linearGradient id="linear-gradient" x1="462.43" y1="406.07" x2="462.43" y2="268.02" gradientUnits="userSpaceOnUse">
      <stop offset=".57" stop-color="#2bafdc"/>
      <stop offset="1" stop-color="#aadee8"/>
    </linearGradient>
    <linearGradient id="linear-gradient1" x1="673.38" y1="635.99" x2="673.38" y2="511.32" gradientUnits="userSpaceOnUse">
      <stop offset=".49" stop-color="#43b75c"/>
      <stop offset="1" stop-color="#1dbcbf"/>
    </linearGradient>
    <linearGradient id="linear-gradient2" x1="412.78" y1="604.78" x2="412.78" y2="513.24" gradientUnits="userSpaceOnUse">
      <stop offset=".6" stop-color="#2bafdc"/>
      <stop offset="1" stop-color="#6eceeb"/>
    </linearGradient>
  </defs>
  <path class="st1" d="M5472,0v3206.41l-5472,.05V0h5472ZM826.3,314.53c0-105.81-85.79-191.6-191.6-191.6h-337.51c-105.81,0-191.6,85.79-191.6,191.6v338.87c0,105.81,85.79,191.6,191.6,191.6h337.51c105.81,0,191.6-85.79,191.6-191.6v-338.87ZM2633.45,581.16l40.32-79.33c.24-.48.11-1.07-.32-1.42-11.73-8.84-23.81-15.82-36.26-20.87-42.8-17.42-93.84-27.76-137.07-18.17-26.75,5.93-50.61,18.44-71.63,37.54-29.5,26.77-43.55,60.46-42.19,101.08,1.74,50.95,40.24,90.26,84.22,111.79,30.14,14.78,59.34,26.08,85.63,44.65,15.66,11.03,21.24,25.25,16.73,42.62-7.83,30.06-44.62,34.12-70.35,32.3-11.7-.83-25.49-4.81-41.33-11.89-24.61-11.01-45.56-23.75-62.82-38.26-.48-.4-1.23-.27-1.52.27l-49.51,85.77c-.24.43-.16.94.21,1.26,7.8,6.52,16.16,12.5,25.09,17.93,58.41,35.59,121.25,47.91,188.5,36.98,29.42-4.78,58.83-16.11,80.42-33.35,33.88-27.07,47.08-70.75,45.61-113.07-1.98-56.4-56.72-98.11-103.62-118.23-26.05-11.2-46.68-20.84-61.88-28.94-20.63-11.01-42.35-24.31-31.9-52.05,11.78-31.31,58.81-28.4,84.16-20.95,21.62,6.36,40.69,14.7,57.18,24.98.8.51,1.87.21,2.32-.64ZM3026.01,581.16l40.32-79.33c.24-.48.11-1.07-.32-1.42-11.73-8.87-23.81-15.82-36.26-20.87-42.8-17.42-93.84-27.76-137.07-18.17-26.75,5.93-50.63,18.44-71.63,37.54-29.5,26.77-43.58,60.46-42.19,101.08,1.74,50.95,40.24,90.26,84.22,111.79,30.14,14.78,59.34,26.08,85.63,44.65,15.66,11.03,21.24,25.25,16.73,42.62-7.83,30.06-44.62,34.12-70.35,32.3-11.7-.83-25.49-4.81-41.33-11.89-24.61-11.01-45.56-23.75-62.82-38.26-.48-.4-1.2-.27-1.52.27l-49.51,85.77c-.24.43-.16.96.21,1.26,7.8,6.52,16.16,12.5,25.09,17.93,58.41,35.59,121.25,47.91,188.5,36.98,29.42-4.78,58.83-16.11,80.42-33.35,33.88-27.07,47.08-70.75,45.61-113.07-1.98-56.4-56.72-98.11-103.62-118.23-26.08-11.2-46.7-20.84-61.88-28.94-20.63-11.01-42.35-24.31-31.9-52.05,11.78-31.31,58.81-28.4,84.16-20.95,21.62,6.36,40.67,14.7,57.18,24.98.8.51,1.87.21,2.32-.64ZM1322.9,751.33c26.64-.16,47.21-.19,61.77-.08,76.09.56,143.03-42.83,152.78-122.29,3.85-31.31.48-70.08-16.35-97.47-26.83-43.58-76.84-64.1-127.29-64.77-43.15-.56-101.26-.64-174.34-.24-.37,0-.67.29-.67.64v450.83c0,.56.45,1.02,1.04,1.02h100.84c.75,0,1.34-.59,1.34-1.34v-165.42c0-.48.4-.88.88-.88ZM1826.04,731.45c73.42-23.91,103.35-94.08,87.88-166.7-14.91-70.06-80.48-98.67-145.83-98.54-42.67.11-95.65.11-158.95.03-.59,0-1.07.48-1.07,1.07l-.03,450.64c0,.53.43.99.99.99h101.34c.48,0,.91-.4.91-.91v-175.62c0-.69.91-1.02,1.34-.45l136.03,175.81c.59.75,1.5,1.2,2.46,1.2h128.3c.56,0,.88-.67.51-1.1l-154.22-185.21c-.35-.4-.16-1.04.35-1.2ZM2024.83,692.47c.03,146.15.05,221.36.13,225.67,0,.37.29.67.67.67h257.25c.59,0,1.04-.45,1.04-1.04v-88.47c0-.53-.43-.96-.96-.96h-153.29c-.91,0-1.66-.75-1.66-1.66v-87.96c0-.59.45-1.07,1.04-1.07h147.09c.64,0,1.18-.51,1.18-1.18v-44.06c-.03-24.07,0-38.77,0-44.06-.03-.64-.53-1.18-1.2-1.18l-147.09.08c-.56,0-1.04-.48-1.04-1.07l-.03-87.96c0-.94.75-1.66,1.66-1.66l153.29-.08c.53,0,.96-.43.96-.96l-.03-88.47c0-.56-.48-1.04-1.04-1.04l-257.25.11c-.37,0-.69.29-.69.67-.05,4.3-.08,79.51-.03,225.67ZM3323.25,927.27c60.41,0,118.44-15.71,152.4-68.32,16.22-25.12,23.81-61.24,24.18-90.74.24-19.66.29-119.78.13-300.35,0-.91-.72-1.63-1.63-1.63l-99.82.03c-.99,0-1.79.8-1.79,1.79.21,108.26.16,198.28-.19,270.05-.08,19.32-2.83,35.96-8.23,49.99-10.98,28.56-35.94,37.65-65.09,37.65s-54.11-9.08-65.09-37.65c-5.37-14-8.12-30.67-8.2-49.99-.35-71.77-.43-161.78-.21-270.05,0-.99-.8-1.79-1.79-1.79h-99.82c-.91,0-1.63.72-1.63,1.63-.16,180.57-.11,280.68.16,300.35.37,29.5,7.96,65.62,24.18,90.74,33.96,52.58,91.99,68.29,152.43,68.29ZM3801.94,731.45c73.42-23.91,103.35-94.08,87.88-166.7-14.94-70.08-80.5-98.67-145.86-98.54-42.67.11-95.65.11-158.95.03-.59,0-1.07.48-1.07,1.07v450.67c0,.53.45.99.99.99h101.34c.51,0,.91-.4.91-.91v-175.62c0-.72.91-1.04,1.34-.48l136.05,175.81c.59.75,1.5,1.2,2.46,1.2h128.3c.56,0,.88-.67.51-1.1l-154.25-185.21c-.35-.4-.16-1.04.35-1.2ZM4000.68,692.5c.05,146.18.11,221.42.16,225.72.03.37.32.67.69.67l257.3-.05c.59,0,1.04-.45,1.04-1.04v-88.49c0-.51-.45-.96-.96-.96l-153.34.03c-.91,0-1.66-.72-1.66-1.66v-87.98c0-.59.45-1.07,1.04-1.07h147.11c.64,0,1.18-.53,1.18-1.18,0-5.29,0-19.99-.03-44.09v-44.06c0-.64-.53-1.18-1.18-1.18l-147.11.08c-.59,0-1.07-.48-1.07-1.07l-.03-87.96c0-.94.72-1.66,1.66-1.66l153.31-.11c.53,0,.96-.43.96-.96l-.05-88.47c0-.59-.45-1.04-1.04-1.04l-257.3.13c-.37,0-.67.29-.69.67-.05,4.28-.05,79.52,0,225.72ZM2515.65,1221.39l40.29-79.33c.27-.48.13-1.07-.32-1.42-11.7-8.84-23.81-15.82-36.26-20.87-42.78-17.39-93.81-27.73-137.04-18.14-26.72,5.96-50.61,18.46-71.61,37.57-29.5,26.77-43.55,60.46-42.16,101.05,1.74,50.95,40.24,90.23,84.22,111.76,30.14,14.78,59.34,26.05,85.63,44.62,15.66,11.03,21.24,25.25,16.73,42.62-7.83,30.06-44.59,34.12-70.32,32.3-11.7-.83-25.49-4.78-41.33-11.89-24.61-10.98-45.56-23.73-62.82-38.23-.48-.4-1.2-.27-1.52.27l-49.48,85.77c-.24.43-.16.94.21,1.26,7.8,6.52,16.16,12.48,25.09,17.93,58.41,35.56,121.22,47.88,188.47,36.93,29.42-4.78,58.83-16.11,80.4-33.35,33.88-27.07,47.08-70.75,45.58-113.07-1.98-56.4-56.72-98.08-103.62-118.18-26.05-11.2-46.68-20.84-61.88-28.94-20.63-11.01-42.35-24.29-31.9-52.02,11.78-31.31,58.78-28.43,84.14-20.97,21.64,6.36,40.69,14.7,57.18,24.98.8.51,1.9.21,2.32-.64ZM3955.44,1385.23h101.53c.48,0,.85.37.85.86.64,64.55-68.72,97.34-124.03,82.99-20.41-5.29-38.31-17.13-53.73-35.51-30.27-36.1-40.21-80.77-33.69-126.27,7.03-49,41.31-104.39,93.28-113.61,49.56-8.79,94.53,12.05,120.31,54.72.4.67,1.34.77,1.87.19l65.81-72.3c.35-.37.35-.96.03-1.36-45.07-54.64-108.1-77.8-178-76.84-70.64.94-129.61,32.73-171.16,89.48-34.28,46.84-49.16,102.07-44.7,165.68,3.55,50.2,21.19,94.61,52.93,133.22,31.23,37.97,68.37,62.55,111.47,73.74,47.99,12.45,95.79,9.11,143.37-10.05,65.27-26.26,105.7-75.05,121.22-146.39.08-.32.11-.64.11-.99v-95.41c0-.91-.72-1.63-1.63-1.63h-205.92c-.85,0-1.55.69-1.55,1.55v76.31c0,.91.72,1.63,1.63,1.63ZM1430.95,1307.16c.32,0,.53.16.64.53,45.72,160.05,69.55,243.59,71.55,250.68.16.56.67.94,1.23.94h112.65c.48,0,.91-.32,1.04-.8l128.44-451.09c.13-.48-.21-.96-.72-.96h-111.87c-.94,0-1.76.64-1.98,1.55l-76.63,308.01c-.29,1.15-1.66,1.63-2.59.94-.43-.32-.69-.72-.83-1.23-.37-1.31-27.63-104.04-81.73-308.17-.16-.67-.75-1.12-1.42-1.12-12.85.05-25.46.05-37.86.08-12.4,0-25.01-.03-37.83-.05-.67,0-1.26.45-1.44,1.1-54.05,204.16-81.25,306.89-81.63,308.2-.13.51-.4.91-.83,1.23-.96.72-2.3.21-2.59-.94l-76.74-307.99c-.21-.91-1.04-1.55-1.98-1.55l-111.87.03c-.48,0-.86.48-.72.96l128.57,451.07c.13.48.56.8,1.04.8l112.65-.03c.56,0,1.07-.4,1.23-.94,2-7.08,25.84-90.66,71.5-250.7.11-.37.35-.53.72-.53ZM1977.27,1468.76c56.11,0,84.54.03,85.29.05.56.03,1.04.4,1.23.91l32.76,88.49c.24.64.86,1.07,1.52,1.07h108.48c.64,0,1.07-.64.83-1.23l-181.95-450.64c-.27-.59-.86-.99-1.5-.99-15.55.03-31.1.05-46.68.05s-31.13-.03-46.68-.05c-.67,0-1.26.4-1.5.99l-181.93,450.67c-.21.59.21,1.23.83,1.23l108.48-.03c.69,0,1.28-.4,1.52-1.07l32.76-88.49c.19-.51.67-.86,1.23-.88.75-.05,29.18-.08,85.31-.08ZM2641.6,1332.57c-.03,149.95,0,225.05,0,225.27.05.59.53,1.02,1.12,1.02l100.57.05c.88,0,1.58-.69,1.58-1.55v-177.57c0-.96.77-1.76,1.74-1.79,8.79-.13,32.52-.21,71.18-.19,38.69,0,62.41.05,71.18.21.99.03,1.74.8,1.74,1.76v177.57c0,.86.69,1.55,1.58,1.55l100.57-.03c.56,0,1.04-.45,1.1-1.02.03-.21.05-75.32.05-225.29s0-225.05-.03-225.27c-.05-.59-.53-1.02-1.1-1.02l-100.57-.05c-.88,0-1.58.69-1.58,1.55v177.57c0,.96-.77,1.76-1.74,1.79-8.79.13-32.52.21-71.21.19-38.66,0-62.39-.05-71.18-.21-.96-.03-1.74-.8-1.74-1.76l.03-177.57c0-.85-.72-1.55-1.58-1.55l-100.57.03c-.59,0-1.07.45-1.12,1.02-.03.21-.03,75.32-.03,225.29ZM3186.77,1107.55c0-.56-.45-1.02-1.02-1.02h-101.16c-.56,0-1.02.45-1.02,1.02v450.58c0,.56.45,1.02,1.02,1.02h101.16c.56,0,1.02-.45,1.02-1.02v-450.58ZM3508.65,1308.1c-2.46-3.85-45.21-70.56-128.25-200.1-.61-.96-1.68-1.55-2.81-1.55h-99.71c-.88,0-1.6.69-1.6,1.6l-.03,449.97c0,.67.51,1.18,1.18,1.18l100.92.03c.64,0,1.15-.53,1.15-1.15l.03-278.78c0-.77,1.04-1.07,1.47-.4,18.65,29.18,35.46,55.39,50.42,78.71,2.48,3.85,45.23,70.54,128.25,200.1.61.94,1.68,1.52,2.81,1.52l99.71.03c.88,0,1.6-.72,1.6-1.6l.05-450c0-.64-.53-1.18-1.18-1.18h-100.94c-.61,0-1.15.51-1.15,1.12l-.03,278.78c0,.8-1.04,1.1-1.47.4-18.65-29.15-35.46-55.39-50.42-78.69ZM1473.06,2198.77l-96.21-99.93c-.45-.48-.43-1.28.11-1.71,22.39-18.3,43.28-38.53,62.68-60.65.21-.24.21-.64-.03-.86l-61.75-61.75c-.56-.56-1.47-.53-2,.03-13.28,13.92-26.51,26.67-39.68,38.23-8.31,7.29-16.41,13.15-24.29,17.5-.91.51-2.06.32-2.78-.43l-58.25-60.49c-.4-.4-.29-1.07.21-1.34,20.92-11.14,39.7-25.17,56.38-42.08,26.4-26.77,38.66-60.76,27.89-98.11-7.78-26.91-22.9-48.44-45.42-64.66-24.39-17.58-51.67-23.43-83.55-24.21-71.74-1.74-142.54,31.02-145.86,112.06-1.63,39.76,20.89,74.84,44.49,105.35.61.8.35,1.95-.56,2.4-27.23,13.65-51.19,29.71-71.9,48.23-26.05,23.3-39.41,50.87-36.34,86.19,4.3,49.3,30.43,82.99,78.45,101.13,40.24,15.2,83.18,18.17,128.84,8.9,15.79-3.18,29.23-9.24,42.88-16.38,16.91-8.84,34.01-19.75,51.35-32.76.51-.37,1.23-.32,1.68.13l43.15,44.83c.64.69,1.55,1.07,2.51,1.07h127.69c.37,0,.56-.45.29-.72ZM3600.11,2207.45c49.67,2.62,98.99-8.74,140.06-37.62,68.53-48.17,101.83-121.49,100.49-204.08-.77-49.06-15.15-92.98-43.07-131.75-41.79-58.01-101.8-91.73-172.74-95.47-70.91-3.74-134.13,23.49-181.79,76.76-31.88,35.62-50.77,77.75-56.72,126.46-10.02,82,15.36,158.42,78.45,213.54,37.81,33.05,85.63,49.51,135.33,52.16ZM1942.08,1947.21c.32,0,.53.19.64.53,45.69,160.1,69.55,243.7,71.55,250.78.16.56.64.94,1.23.94h112.67c.48,0,.91-.32,1.04-.8l128.54-451.2c.13-.48-.21-.96-.72-.96l-111.9-.03c-.96,0-1.76.64-1.98,1.55l-76.71,308.09c-.29,1.15-1.66,1.66-2.59.94-.43-.32-.69-.72-.83-1.23-.37-1.31-27.6-104.07-81.71-308.28-.19-.64-.77-1.12-1.44-1.1-12.82.03-25.46.05-37.86.05s-25.01-.03-37.86-.05c-.67-.03-1.26.45-1.42,1.1-54.11,204.21-81.33,306.97-81.71,308.28-.13.51-.4.91-.83,1.23-.96.72-2.3.21-2.59-.94l-76.71-308.09c-.21-.91-1.04-1.55-1.98-1.55l-111.9.03c-.51,0-.86.48-.72.96l128.54,451.2c.13.48.56.8,1.04.8h112.67c.56,0,1.07-.37,1.23-.94,2-7.08,25.84-90.68,71.55-250.78.11-.35.35-.53.72-.53ZM2409.31,1747.43c0-.51-.43-.94-.94-.94h-101.26c-.51,0-.94.43-.94.94v451.12c0,.51.43.94.94.94h101.26c.51,0,.94-.43.94-.94v-451.12ZM2731.27,1948.25c-2.46-3.85-45.23-70.56-128.33-200.15-.61-.96-1.68-1.55-2.81-1.55h-99.74c-.88,0-1.6.72-1.6,1.6v450.18c0,.64.53,1.18,1.18,1.18h100.97c.64,0,1.15-.51,1.15-1.15v-278.89c0-.8,1.04-1.1,1.47-.4,18.65,29.18,35.48,55.41,50.45,78.71,2.48,3.85,45.26,70.59,128.33,200.18.61.96,1.68,1.55,2.81,1.55h99.74c.91,0,1.6-.72,1.6-1.6v-450.18c0-.67-.51-1.18-1.18-1.18h-100.97c-.61,0-1.15.51-1.15,1.15v278.89c0,.77-1.02,1.07-1.47.4-18.65-29.18-35.46-55.41-50.45-78.74ZM2975.96,1747.41v451.12c0,.48.4.88.88.88h133.59c124.3,0,225.05-99.29,225.05-221.77v-9.35c0-122.48-100.76-221.77-225.05-221.77h-133.59c-.48,0-.88.4-.88.88ZM4184.82,1947.24c.32,0,.53.16.64.53,45.74,160.07,69.6,243.65,71.61,250.73.16.53.64.94,1.23.94l112.67-.03c.48,0,.88-.32,1.04-.8l128.41-451.2c.13-.48-.24-.96-.72-.96h-111.9c-.94,0-1.76.64-1.98,1.55l-76.6,308.09c-.29,1.15-1.66,1.66-2.59.94-.43-.32-.72-.72-.83-1.23-.37-1.31-27.65-104.04-81.81-308.23-.16-.67-.75-1.12-1.42-1.1-12.85.03-25.46.05-37.86.05s-25.01,0-37.86-.05c-.67,0-1.23.45-1.42,1.12-54.05,204.18-81.25,306.95-81.63,308.28-.13.48-.4.91-.83,1.23-.94.69-2.3.21-2.59-.94l-76.76-308.07c-.21-.91-1.04-1.55-1.98-1.55l-111.9.05c-.51,0-.85.48-.72.96l128.65,451.15c.13.48.56.8,1.04.8l112.67-.05c.56,0,1.07-.37,1.23-.94,1.98-7.08,25.81-90.66,71.47-250.76.11-.37.35-.53.72-.53ZM1164.16,2613.49c.05,129.08,115.34,233.98,243.94,234.54,51.75.21,106.71-10.63,149.06-40.69.75-.53,1.02-1.55.59-2.38l-42.4-84.65c-.51-1.02-1.84-1.34-2.75-.64-6.25,4.73-13.17,8.71-20.76,12-26.69,11.54-53.44,16.41-80.21,14.56-30.06-2.06-55.74-10.1-77.03-24.15-34.92-23.08-58.33-65.59-58.35-108.64,0-43.04,23.38-85.55,58.27-108.64,21.27-14.08,46.94-22.18,77-24.23,26.77-1.87,53.52,2.97,80.21,14.48,7.59,3.29,14.54,7.27,20.79,12,.91.67,2.22.37,2.75-.67l42.32-84.67c.43-.83.16-1.84-.59-2.38-42.38-30.03-97.34-40.83-149.12-40.56-128.57.67-243.78,105.67-243.73,234.72ZM4100.37,2665.76l101.53-.05c.48,0,.85.4.85.86.67,64.55-68.67,97.36-124,83.04-20.41-5.29-38.31-17.13-53.73-35.48-30.27-36.1-40.24-80.77-33.72-126.27,7-49,41.25-104.39,93.22-113.63,49.56-8.82,94.53,12.02,120.34,54.67.4.69,1.34.77,1.87.19l65.78-72.3c.32-.4.35-.96.03-1.36-45.1-54.64-108.13-77.78-178.03-76.79-70.64.96-129.61,32.76-171.13,89.53-34.25,46.84-49.14,102.07-44.65,165.68,3.55,50.23,21.21,94.61,52.98,133.22,31.23,37.94,68.4,62.52,111.5,73.69,47.99,12.45,95.76,9.08,143.35-10.07,65.27-26.29,105.67-75.11,121.2-146.45.05-.32.11-.64.11-.99l-.05-95.41c0-.91-.72-1.63-1.63-1.63l-205.92.08c-.85,0-1.55.69-1.55,1.55l.03,76.31c0,.88.75,1.63,1.63,1.63ZM1879.66,2839.72c.53,0,.96-.43.96-.96v-88.55c0-.53-.43-.96-.96-.96h-153.95c-.53,0-.96-.43-.96-.96v-360.57c0-.53-.43-.96-.96-.96h-101.32c-.53,0-.96.43-.96.96v451.04c0,.53.43.96.96.96h257.19ZM1955.33,2613.07c-.03,146.2,0,221.45.05,225.75.03.37.32.67.69.67l257.33.08c.59,0,1.04-.48,1.04-1.04l.03-88.52c0-.51-.43-.96-.96-.96l-153.34-.03c-.91,0-1.66-.75-1.66-1.66l.03-88.01c0-.59.48-1.07,1.04-1.07l147.14.05c.67,0,1.18-.51,1.2-1.18-.03-5.29-.03-19.99-.03-44.06.03-24.1.03-38.8.03-44.09,0-.64-.53-1.18-1.18-1.18l-147.17.03c-.56,0-1.04-.48-1.04-1.07v-87.98c0-.94.75-1.66,1.66-1.66l153.34-.03c.53,0,.96-.43.96-.96v-88.49c0-.59-.48-1.04-1.04-1.04l-257.36.03c-.37,0-.67.29-.67.67-.05,4.27-.11,79.54-.11,225.75ZM2479.61,2749.17c56.14,0,84.56.03,85.31.05.56.05,1.04.4,1.23.91l32.76,88.52c.24.64.86,1.07,1.52,1.07h108.5c.64,0,1.07-.64.83-1.23l-181.98-450.72c-.24-.61-.83-.99-1.5-.99-15.55.03-31.1.03-46.68.03s-31.15,0-46.68-.03c-.67,0-1.26.37-1.52.99l-181.95,450.72c-.24.59.19,1.23.83,1.23h108.5c.67,0,1.28-.43,1.52-1.07l32.76-88.52c.19-.51.67-.86,1.23-.88.75-.05,29.18-.08,85.31-.08ZM2983.82,2588.51c-2.46-3.85-45.23-70.56-128.3-200.15-.64-.96-1.68-1.55-2.83-1.55h-99.71c-.91,0-1.6.72-1.6,1.6v450.18c0,.64.51,1.18,1.18,1.18h100.94c.64,0,1.15-.53,1.15-1.15v-278.89c0-.8,1.04-1.1,1.47-.4,18.68,29.18,35.48,55.41,50.47,78.71,2.46,3.85,45.23,70.56,128.3,200.18.64.96,1.68,1.52,2.83,1.52h99.71c.91,0,1.6-.72,1.6-1.6v-450.16c0-.64-.51-1.18-1.18-1.18h-100.97c-.61,0-1.15.51-1.15,1.15l.03,278.89c0,.77-1.04,1.07-1.5.4-18.65-29.18-35.46-55.41-50.45-78.74ZM3331.67,2387.64c0-.48-.4-.88-.88-.88h-101.42c-.48,0-.88.4-.88.88v451.17c0,.48.4.88.88.88h101.42c.48,0,.88-.4.88-.88v-451.17ZM3653.63,2588.49c-2.48-3.85-45.26-70.56-128.33-200.15-.61-.96-1.68-1.52-2.81-1.52h-99.74c-.88,0-1.6.72-1.6,1.6l.03,450.13c0,.64.51,1.18,1.18,1.18h100.94c.64,0,1.15-.51,1.15-1.15v-278.86c0-.8,1.04-1.07,1.47-.4,18.65,29.18,35.48,55.41,50.45,78.71,2.48,3.85,45.23,70.56,128.33,200.15.61.96,1.68,1.55,2.81,1.55h99.74c.88,0,1.6-.72,1.6-1.6l-.03-450.16c0-.64-.51-1.18-1.18-1.18h-100.94c-.64,0-1.15.53-1.15,1.15v278.86c0,.8-1.04,1.1-1.47.43-18.68-29.18-35.48-55.41-50.45-78.74Z"/>
  <path class="st5" d="M826.3,314.53v338.87c0,105.81-85.79,191.6-191.6,191.6h-337.51c-105.81,0-191.6-85.79-191.6-191.6v-338.87c0-105.81,85.79-191.6,191.6-191.6h337.51c105.81,0,191.6,85.79,191.6,191.6ZM472.68,301.81c0-.83.67-1.5,1.5-1.5h35.94c.83,0,1.5-.67,1.5-1.5v-29.12c0-.83-.67-1.5-1.5-1.5h-114.38c-.83,0-1.5.67-1.5,1.5v29.26c0,.83.67,1.5,1.5,1.5h38.18c.83,0,1.5.67,1.5,1.5v102.47c0,.83.67,1.5,1.5,1.5h34.28c.83,0,1.5-.67,1.5-1.5v-102.6ZM592.38,360.33c.61,0,1.2.45,1.82,1.42,15.04,23.62,23.57,36.87,25.52,39.78,1.87,2.75,5,4.41,8.31,4.41h36.87c1.47,0,2.32-1.68,1.44-2.89l-46.73-64.58c-1.15-1.6-1.15-3.74,0-5.34l45.77-63.03c.64-.85,0-2.08-1.07-2.08l-39.89.11c-3.1,0-5.98,1.55-7.69,4.11-.72,1.02-8.47,12.91-23.22,35.7-.11.16-.29.29-.53.37-.21.08-.43.13-.64.13s-.43-.05-.64-.13c-.24-.08-.43-.21-.53-.37-14.78-22.76-22.55-34.63-23.27-35.64-1.74-2.59-4.62-4.11-7.72-4.11l-39.89-.03c-1.07,0-1.68,1.2-1.04,2.08l45.88,62.95c1.15,1.58,1.15,3.74,0,5.34l-46.62,64.66c-.86,1.2-.03,2.89,1.44,2.89l36.87-.08c3.34,0,6.44-1.66,8.31-4.41,1.95-2.91,10.45-16.19,25.46-39.84.59-.96,1.2-1.42,1.82-1.42ZM334.68,384.19c16.51.03,25.57.03,27.2.03.83,0,1.6.51,1.9,1.28l7.48,18.52c.48,1.18,1.6,1.95,2.89,1.95h34.52c1.74,0,2.91-1.76,2.27-3.39l-53.68-132.95c-.24-.61-.83-1.02-1.5-1.04-6.79-.16-13.76-.24-20.92-.24-7.19-.03-14.16.05-20.95.19-.64,0-1.23.43-1.5,1.04l-54.05,132.79c-.64,1.63.53,3.39,2.27,3.39l34.52.11c1.28,0,2.4-.77,2.89-1.95l7.53-18.49c.32-.77,1.07-1.28,1.9-1.28,1.63,0,10.69.03,27.23.05ZM211.67,461.86c.13,35.99,45.23,45.58,61.03,14.99.53-.99-.03-2.19-1.12-2.46l-9.27-2.32c-1.2-.29-2.46.13-3.23,1.07-8.63,10.31-18.06,11.06-28.3,2.22-3.1-2.67-4.65-7.16-4.65-13.55-.03-6.36,1.5-10.87,4.54-13.55,10.18-8.92,19.61-8.26,28.32,2,.77.94,2.06,1.34,3.23,1.04l9.27-2.4c1.07-.27,1.63-1.47,1.1-2.46-16-30.46-61.03-20.55-60.92,15.42ZM726.22,461.51c0-18.38-14.91-33.29-33.29-33.29s-33.29,14.91-33.29,33.29,14.91,33.29,33.29,33.29,33.29-14.91,33.29-33.29ZM298.37,480.64c-.94,0-1.71-.77-1.71-1.71v-47.59c0-.94-.77-1.71-1.71-1.71h-11.01c-.94,0-1.71.77-1.71,1.71v60.68c0,.94.77,1.71,1.71,1.71h36.44c.94,0,1.71-.77,1.71-1.71v-9.67c0-.94-.77-1.71-1.71-1.71h-22.02ZM331.5,461.78c0,3.5.03,13.52.05,30.11,0,1.07.86,1.92,1.92,1.92h38.05c.94,0,1.68-.75,1.68-1.68v-10.07c0-.8-.67-1.44-1.47-1.44h-24.37c-.88,0-1.6-.69-1.6-1.58v-9.32c0-.8.67-1.47,1.47-1.47h21.32c.94,0,1.68-.72,1.71-1.66.03-.61.05-2.24.03-4.86,0-2.65,0-4.27-.03-4.89-.05-.91-.8-1.63-1.74-1.63l-21.32.05c-.8.03-1.47-.64-1.47-1.44l-.03-9.32c0-.88.69-1.58,1.6-1.6l24.37-.08c.8,0,1.44-.64,1.44-1.44l-.03-10.07c0-.94-.75-1.68-1.68-1.68l-38.05.13c-1.07,0-1.92.88-1.92,1.92.03,16.59.03,26.64.05,30.11ZM411.98,481.55c5.66-.03,9.08-.05,10.29-.05,1.47.03,2.75.94,3.26,2.3l2.94,7.91c.43,1.12,1.5,1.87,2.67,1.87h11.09c1.12,0,1.9-1.12,1.5-2.16l-22.2-60.04c-.37-.99-1.31-1.68-2.35-1.74-2.32-.13-4.81-.19-7.4-.19s-5.1.11-7.4.27c-1.07.05-2,.75-2.35,1.74l-21.67,60.22c-.4,1.07.4,2.16,1.5,2.16l11.09-.11c1.2,0,2.24-.75,2.67-1.9l2.86-7.94c.48-1.36,1.79-2.27,3.23-2.3,1.2-.03,4.65-.03,10.29-.05ZM474.98,465.47c5.85,8.52,11.68,17.26,17.45,26.26.72,1.1,1.92,1.76,3.23,1.76h11.14c.96,0,1.74-.77,1.74-1.74v-60.25c0-1.2-.99-2.19-2.19-2.19h-9.81c-1.26,0-2.3,1.04-2.3,2.3v35.91c0,.94-1.23,1.28-1.68.48-2.62-4.3-4.86-7.86-6.76-10.61-5.85-8.52-11.68-17.29-17.45-26.26-.72-1.1-1.92-1.76-3.23-1.76h-11.14c-.96,0-1.74.77-1.74,1.74v60.25c0,1.2.99,2.19,2.19,2.19h9.81c1.28,0,2.3-1.04,2.3-2.3v-35.91c0-.94,1.23-1.28,1.71-.48,2.59,4.3,4.84,7.83,6.73,10.61ZM555.86,491.95v-18.04c0-.77.64-1.42,1.42-1.39,8.76.35,17.82.96,24.29-3.31,13.28-8.76,14.29-27.41.59-35.94-8.92-5.56-31.05-4.14-39.54-3.53-.99.08-1.76.91-1.76,1.92v60.28c0,.96.8,1.76,1.76,1.76h11.46c.99,0,1.79-.8,1.79-1.76ZM653.51,493.04l-13.79-21.59c-.32-.51-.13-1.18.4-1.44,17.82-8.52,14.88-36.55-6.31-39.76-6.49-.99-16.83-1.12-31.07-.45-1.02.05-1.82.88-1.82,1.9v60.25c0,.96.77,1.74,1.74,1.74h11.33c.85,0,1.55-.69,1.55-1.55v-18.73c0-1.04.85-1.9,1.92-1.9h5c.99,0,1.92.51,2.46,1.34l12.72,19.93c.29.51.86.8,1.44.8h14.13c.27,0,.45-.29.29-.53ZM673.58,635.99c27.92-.13,44.57-23.11,41.87-49-1.44-13.95-9.27-26.72-17.39-39.28-13.55-20.97-21.7-33.05-24.45-36.2-.08-.08-.19-.16-.37-.19h-.43c-.16.03-.29.11-.35.19-2.73,3.18-10.77,15.31-24.13,36.42-8.02,12.64-15.74,25.46-17.07,39.41-2.46,25.94,14.37,48.76,42.32,48.65ZM444.33,581.19c2.75,8.76,7.61,14.96,14.62,18.57,16.65,8.6,44.86,7,54.43-11.44,5.37-10.37,2.57-23.3-7.75-29.71-8.84-5.5-21.67-8.02-28.86-10.02-4.65-1.28-9.65-3.53-9.7-9.19-.03-4.44,2.59-6.97,7.86-7.64,9.46-1.2,15.9,1.76,19.34,8.9.24.45.75.72,1.23.64l17.47-2.81c.4-.08.67-.48.56-.88-7.64-26.75-41.01-30.97-59.93-15.15-.72.61-1.34,1.31-1.9,2.08-12,17.07-4.46,35.03,15.36,40.59,13.6,3.82,21.21,6.04,22.84,6.6,7.05,2.43,7.7,11.62.88,14.4-8.66,3.53-22.47,2.7-25.33-8.18-.4-1.52-1.87-2.48-3.42-2.22l-15.92,2.57c-1.36.21-2.19,1.58-1.79,2.89ZM288.43,550.22c.13,0,.32.08.53.29,1.52,1.31,9.14,30.73,15.02,50.98.35,1.23,1.47,2.06,2.75,2.06h20.12c1.2,0,2.27-.8,2.65-1.95l26.45-84.38c.32-1.04-.45-2.11-1.55-2.11h-20.39c-1.36,0-2.54.94-2.86,2.24l-14.54,58.43c-.19.77-1.28.77-1.5,0l-15.79-59.61c-.11-.43-.48-.75-.96-.8-1.95-.16-5.29-.24-9.94-.24s-8.02.08-9.97.27c-.48.03-.85.35-.96.77l-15.76,59.61c-.21.77-1.31.77-1.5,0l-14.56-58.43c-.32-1.31-1.5-2.24-2.86-2.24l-20.39.03c-1.1,0-1.87,1.04-1.55,2.11l26.48,84.35c.35,1.18,1.44,1.95,2.65,1.95h20.12c1.28,0,2.4-.83,2.75-2.06,5.88-20.25,13.47-49.67,14.99-50.98.24-.21.43-.29.56-.29ZM396.32,586.9c8.47,0,13.52.05,15.15.13,1.26.08,2.38.91,2.81,2.08l4.09,11.03c.75,2.03,2.67,3.37,4.81,3.37h15.31c1.79,0,3.02-1.79,2.4-3.45l-30.83-83.34c-.29-.83-1.1-1.39-1.98-1.42-3.74-.08-7.67-.13-11.76-.13s-7.99.05-11.73.13c-.91.03-1.68.59-1.98,1.42l-30.86,83.34c-.61,1.66.61,3.45,2.4,3.45h15.31c2.14,0,4.06-1.36,4.81-3.37l4.09-11.03c.43-1.2,1.55-2,2.81-2.08,1.63-.08,6.68-.13,15.15-.13ZM529.25,558.85c0,26.96,0,41.23.03,42.75.03.75.61,1.34,1.36,1.34h18.36c.83,0,1.52-.69,1.52-1.52v-31.15c0-.72.56-1.31,1.28-1.34h15.2c9.81,0,14.88,0,15.2.03.72.03,1.28.61,1.28,1.31l-.03,31.15c0,.86.67,1.52,1.52,1.55h18.36c.72,0,1.34-.59,1.36-1.34.03-1.52.03-15.79.05-42.75,0-26.96,0-41.23-.03-42.75-.03-.75-.61-1.34-1.36-1.34h-18.36c-.83,0-1.52.67-1.52,1.52v31.15c0,.72-.56,1.31-1.28,1.34h-15.2c-9.81,0-14.88,0-15.2-.03-.72-.03-1.28-.61-1.28-1.34l.03-31.15c0-.83-.67-1.52-1.52-1.52h-18.36c-.75,0-1.34.59-1.36,1.34-.03,1.52-.03,15.79-.05,42.75ZM569.54,632.19c.16.37,17.02-5.64,50.58-18.01,2.57-.96,3.31-2.62,2.27-5.02-1.04-2.38-2.78-2.97-5.21-1.74-31.9,16.16-47.8,24.42-47.64,24.77ZM524.12,631.02c-.64,1.07-1.79,1.71-3.02,1.71h-174.93c-.99,0-1.84-.61-2.19-1.55-1.18-3.34-3.66-5.16-7.51-5.16-13.12.03-37.27.03-72.51-.03-6.71-.03-11.17,1.28-10.1,8.58.11.8.59,1.52,1.28,1.92,3.82,2.27,5.58,4.92,5.26,7.94-.11.88-.37,1.74-.8,2.48-1.58,2.81-7.35,12-17.31,27.57-1.9,2.94-3.66,4.89-5.34,5.82-.75.4-1.2,1.2-1.23,2.06-.08,3.55,1.04,5.93,3.42,7.08,17.21,8.36,25.97,12.61,26.29,12.8,8.52,4.73,15.28,6.97,20.23,6.73,18.62-.88,25.68-12.83,31.37-30.43,3.58-11.14,6.07-18.76,7.45-22.84,1.02-3.07,3.87-5.13,7.11-5.13h8.63c.96,0,1.84-.53,2.27-1.39l1.71-3.37c.35-.67,1.04-1.1,1.82-1.1h175.86c.85,0,1.66.45,2.08,1.18.69,1.2,1.26,2.08,1.68,2.67.56.77,2,1.07,4.28.88,8.15-.75,16.38-1.74,24.66-2.99.99-.16,1.82-.83,2.19-1.76,1.44-3.66,1.52-7.56.27-11.73-.32-1.02-1.18-1.76-2.22-1.92l-24.85-3.87c-.77-.13-1.55.03-2.22.43-1.58.91-2.81,2.06-3.63,3.42ZM570.1,637.54c0,.11.03.21.05.29.08.11.27.19.53.21,28.72,2.48,46.89,4.3,54.53,5.4,7.94,1.15,11.92-.75,11.94-5.66s-3.95-6.81-11.89-5.74c-7.67,1.07-25.84,2.73-54.59,5-.27.03-.45.11-.51.19-.05.11-.08.19-.08.32ZM649.91,672.67c.8-2.24-.03-4.36-2.48-6.31-.59-.48-1.26-.83-1.95-1.04-50.98-14.91-76.55-22.07-76.74-21.54-.19.53,24.18,11.14,73.1,31.77.67.29,1.42.43,2.16.45,3.13.03,5.1-1.1,5.9-3.34Z"/>
  <path class="st7" d="M472.68,301.81v102.6c0,.83-.67,1.5-1.5,1.5h-34.28c-.83,0-1.5-.67-1.5-1.5v-102.47c0-.83-.67-1.5-1.5-1.5h-38.18c-.83,0-1.5-.67-1.5-1.5v-29.26c0-.83.67-1.5,1.5-1.5h114.38c.83,0,1.5.67,1.5,1.5v29.12c0,.83-.67,1.5-1.5,1.5h-35.94c-.83,0-1.5.67-1.5,1.5ZM592.33,308.44c.21,0,.43-.05.64-.13.24-.08.43-.21.53-.37,14.75-22.79,22.5-34.68,23.22-35.7,1.71-2.56,4.6-4.11,7.69-4.11l39.89-.11c1.07,0,1.71,1.23,1.07,2.08l-45.77,63.03c-1.15,1.6-1.15,3.74,0,5.34l46.73,64.58c.88,1.2.03,2.89-1.44,2.89h-36.87c-3.31,0-6.44-1.66-8.31-4.41-1.95-2.91-10.47-16.16-25.52-39.78-.61-.96-1.2-1.42-1.82-1.42s-1.23.45-1.82,1.42c-15.02,23.65-23.51,36.93-25.46,39.84-1.87,2.75-4.97,4.41-8.31,4.41l-36.87.08c-1.47,0-2.3-1.68-1.44-2.89l46.62-64.66c1.15-1.6,1.15-3.77,0-5.34l-45.88-62.95c-.64-.88-.03-2.08,1.04-2.08l39.89.03c3.1,0,5.99,1.52,7.72,4.11.72,1.02,8.5,12.88,23.27,35.64.11.16.29.29.53.37.21.08.43.13.64.13ZM334.84,268.34c7.16,0,14.13.08,20.92.24.67.03,1.26.43,1.5,1.04l53.68,132.95c.64,1.63-.53,3.39-2.27,3.39h-34.52c-1.28,0-2.4-.77-2.89-1.95l-7.48-18.52c-.29-.77-1.07-1.28-1.9-1.28-1.63,0-10.69,0-27.2-.03-16.54-.03-25.6-.05-27.23-.05-.83,0-1.58.51-1.9,1.28l-7.53,18.49c-.48,1.18-1.6,1.95-2.89,1.95l-34.52-.11c-1.74,0-2.91-1.76-2.27-3.39l54.05-132.79c.27-.61.85-1.04,1.5-1.04,6.79-.13,13.76-.21,20.95-.19ZM316.94,352.47c-.32.88.32,1.84,1.28,1.84l32.36.4c.96,0,1.63-.94,1.31-1.82l-15.66-44.38c-.4-1.2-2.08-1.23-2.54-.03l-16.75,43.98Z"/>
  <path class="st5" d="M316.94,352.47l16.75-43.98c.45-1.2,2.14-1.18,2.54.03l15.66,44.38c.32.88-.35,1.82-1.31,1.82l-32.36-.4c-.96,0-1.6-.96-1.28-1.84Z"/>
  <path class="st6" d="M226.12,461.81c0,6.39,1.55,10.87,4.65,13.55,10.23,8.84,19.67,8.1,28.3-2.22.77-.94,2.03-1.36,3.23-1.07l9.27,2.32c1.1.27,1.66,1.47,1.12,2.46-15.79,30.59-60.89,21-61.03-14.99-.11-35.96,44.91-45.88,60.92-15.42.53.99-.03,2.19-1.1,2.46l-9.27,2.4c-1.18.29-2.46-.11-3.23-1.04-8.71-10.26-18.14-10.93-28.32-2-3.05,2.67-4.57,7.19-4.54,13.55Z"/>
  <path class="st6" d="M726.22,461.51c0,18.38-14.91,33.29-33.29,33.29s-33.29-14.91-33.29-33.29,14.91-33.29,33.29-33.29,33.29,14.91,33.29,33.29ZM693.3,442.17c-10.45-.19-19.11,8.41-19.32,19.24-.22,10.84,8.09,19.76,18.56,19.97,10.45.19,19.11-8.41,19.32-19.24.22-10.84-8.09-19.76-18.56-19.97Z"/>
  <path class="st6" d="M298.37,480.64h22.02c.94,0,1.71.77,1.71,1.71v9.67c0,.94-.77,1.71-1.71,1.71h-36.44c-.94,0-1.71-.77-1.71-1.71v-60.68c0-.94.77-1.71,1.71-1.71h11.01c.94,0,1.71.77,1.71,1.71v47.59c0,.94.77,1.71,1.71,1.71Z"/>
  <path class="st6" d="M370.3,461.73c.03,2.62,0,4.25-.03,4.86-.03.94-.77,1.66-1.71,1.66h-21.32c-.8,0-1.47.67-1.47,1.47v9.32c0,.88.72,1.58,1.6,1.58h24.37c.8,0,1.47.64,1.47,1.44v10.07c0,.94-.75,1.68-1.68,1.68h-38.05c-1.07,0-1.92-.86-1.92-1.92-.03-16.59-.05-26.61-.05-30.11-.03-3.47-.03-13.52-.05-30.11,0-1.04.85-1.92,1.92-1.92l38.05-.13c.94,0,1.68.75,1.68,1.68l.03,10.07c0,.8-.64,1.44-1.44,1.44l-24.37.08c-.91.03-1.6.72-1.6,1.6l.03,9.32c0,.8.67,1.47,1.47,1.44l21.32-.05c.94,0,1.68.72,1.74,1.63.03.61.03,2.24.03,4.89Z"/>
  <path class="st6" d="M411.76,429.45c2.59,0,5.08.05,7.4.19,1.04.05,1.98.75,2.35,1.74l22.2,60.04c.4,1.04-.37,2.16-1.5,2.16h-11.09c-1.18,0-2.24-.75-2.67-1.87l-2.94-7.91c-.51-1.36-1.79-2.27-3.26-2.3-1.2,0-4.62.03-10.29.05-5.64.03-9.08.03-10.29.05-1.44.03-2.75.94-3.23,2.3l-2.86,7.94c-.43,1.15-1.47,1.9-2.67,1.9l-11.09.11c-1.1,0-1.9-1.1-1.5-2.16l21.67-60.22c.35-.99,1.28-1.68,2.35-1.74,2.3-.16,4.78-.27,7.4-.27ZM403.56,468.51c-.27.75.29,1.52,1.1,1.52l14.45-.11c.77,0,1.34-.77,1.07-1.52l-7.37-20.6c-.37-1.02-1.82-1.02-2.16.03l-7.08,20.68Z"/>
  <path class="st6" d="M474.98,465.47c-1.9-2.78-4.14-6.31-6.73-10.61-.48-.8-1.71-.45-1.71.48v35.91c0,1.26-1.02,2.3-2.3,2.3h-9.81c-1.2,0-2.19-.99-2.19-2.19v-60.25c0-.96.77-1.74,1.74-1.74h11.14c1.31,0,2.51.67,3.23,1.76,5.77,8.98,11.6,17.74,17.45,26.26,1.9,2.75,4.14,6.31,6.76,10.61.45.8,1.68.45,1.68-.48v-35.91c0-1.26,1.04-2.3,2.3-2.3h9.81c1.2,0,2.19.99,2.19,2.19v60.25c0,.96-.77,1.74-1.74,1.74h-11.14c-1.31,0-2.51-.67-3.23-1.76-5.77-9-11.6-17.74-17.45-26.26Z"/>
  <path class="st6" d="M555.86,491.95c0,.96-.8,1.76-1.79,1.76h-11.46c-.96,0-1.76-.8-1.76-1.76v-60.28c0-1.02.77-1.84,1.76-1.92,8.5-.61,30.62-2.03,39.54,3.53,13.71,8.52,12.69,27.17-.59,35.94-6.47,4.28-15.52,3.66-24.29,3.31-.77-.03-1.42.61-1.42,1.39v18.04ZM555.88,444.25v14.54c0,.8.67,1.47,1.47,1.47h11.54c5.13,0,9.27-3.71,9.27-8.28v-.91c0-4.57-4.14-8.28-9.27-8.28h-11.54c-.8,0-1.47.67-1.47,1.47Z"/>
  <path class="st6" d="M653.51,493.04c.16.24-.03.53-.29.53h-14.13c-.59,0-1.15-.29-1.44-.8l-12.72-19.93c-.53-.83-1.47-1.34-2.46-1.34h-5c-1.07,0-1.92.85-1.92,1.9v18.73c0,.85-.69,1.55-1.55,1.55h-11.33c-.96,0-1.74-.77-1.74-1.74v-60.25c0-1.02.8-1.84,1.82-1.9,14.24-.67,24.58-.53,31.07.45,21.19,3.21,24.13,31.23,6.31,39.76-.53.27-.72.94-.4,1.44l13.79,21.59ZM615.63,444.28v14.05c-.03.86.67,1.55,1.52,1.55l11.12.03c5.32,0,9.65-3.66,9.65-8.18v-.75c0-4.54-4.3-8.23-9.59-8.23l-11.12-.03c-.86,0-1.55.69-1.58,1.55Z"/>
  <ellipse class="st5" cx="692.92" cy="461.78" rx="19.61" ry="18.94" transform="translate(217.93 1145.71) rotate(-88.9)"/>
  <path class="st5" d="M555.88,444.25c0-.8.67-1.47,1.47-1.47h11.54c5.13,0,9.27,3.71,9.27,8.28v.91c0,4.57-4.14,8.28-9.27,8.28h-11.54c-.8,0-1.47-.67-1.47-1.47v-14.54Z"/>
  <path class="st5" d="M615.63,444.28c.03-.85.72-1.55,1.58-1.55l11.12.03c5.29,0,9.59,3.69,9.59,8.23v.75c0,4.52-4.33,8.18-9.65,8.18l-11.12-.03c-.85,0-1.55-.69-1.52-1.55v-14.05Z"/>
  <path class="st5" d="M403.56,468.51l7.08-20.68c.35-1.04,1.79-1.04,2.16-.03l7.37,20.6c.27.75-.29,1.52-1.07,1.52l-14.45.11c-.8,0-1.36-.77-1.1-1.52Z"/>
  <path class="st3" d="M2631.13,581.8c-16.49-10.29-35.56-18.62-57.18-24.98-25.36-7.45-72.38-10.37-84.16,20.95-10.45,27.73,11.28,41.04,31.9,52.05,15.2,8.1,35.83,17.74,61.88,28.94,46.89,20.12,101.64,61.83,103.62,118.23,1.47,42.32-11.73,86.01-45.61,113.07-21.59,17.23-51.01,28.56-80.42,33.35-67.25,10.93-130.09-1.39-188.5-36.98-8.92-5.42-17.29-11.41-25.09-17.93-.37-.32-.45-.83-.21-1.26l49.51-85.77c.29-.53,1.04-.67,1.52-.27,17.26,14.51,38.21,27.25,62.82,38.26,15.84,7.08,29.63,11.06,41.33,11.89,25.73,1.82,62.52-2.24,70.35-32.3,4.52-17.37-1.07-31.58-16.73-42.62-26.29-18.57-55.49-29.87-85.63-44.65-43.98-21.54-82.48-60.84-84.22-111.79-1.36-40.61,12.69-74.3,42.19-101.08,21.03-19.1,44.89-31.61,71.63-37.54,43.23-9.59,94.26.75,137.07,18.17,12.45,5.05,24.53,12.02,36.26,20.87.43.35.56.94.32,1.42l-40.32,79.33c-.45.86-1.52,1.15-2.32.64Z"/>
  <path class="st3" d="M3026.01,581.16c-.45.86-1.52,1.15-2.32.64-16.51-10.29-35.56-18.62-57.18-24.98-25.36-7.45-72.38-10.37-84.16,20.95-10.45,27.73,11.28,41.04,31.9,52.05,15.18,8.1,35.8,17.74,61.88,28.94,46.89,20.12,101.64,61.83,103.62,118.23,1.47,42.32-11.73,86.01-45.61,113.07-21.59,17.23-51.01,28.56-80.42,33.35-67.25,10.93-130.09-1.39-188.5-36.98-8.92-5.42-17.29-11.41-25.09-17.93-.37-.29-.45-.83-.21-1.26l49.51-85.77c.32-.53,1.04-.67,1.52-.27,17.26,14.51,38.21,27.25,62.82,38.26,15.84,7.08,29.63,11.06,41.33,11.89,25.73,1.82,62.52-2.24,70.35-32.3,4.52-17.37-1.07-31.58-16.73-42.62-26.29-18.57-55.49-29.87-85.63-44.65-43.98-21.54-82.48-60.84-84.22-111.79-1.39-40.61,12.69-74.3,42.19-101.08,21-19.1,44.89-31.61,71.63-37.54,43.23-9.59,94.26.75,137.07,18.17,12.45,5.05,24.53,12,36.26,20.87.43.35.56.94.32,1.42l-40.32,79.33Z"/>
  <path class="st3" d="M1322.9,751.33c-.48,0-.88.4-.88.88v165.42c0,.75-.59,1.34-1.34,1.34h-100.84c-.59,0-1.04-.45-1.04-1.02v-450.83c0-.35.29-.64.67-.64,73.08-.4,131.19-.32,174.34.24,50.45.67,100.46,21.19,127.29,64.77,16.83,27.39,20.2,66.16,16.35,97.47-9.75,79.46-76.68,122.85-152.78,122.29-14.56-.11-35.14-.08-61.77.08ZM1321.91,549.85l.21,117.78c0,.37.32.72.72.69l40.19-.05c37.06-.08,67.04-23.94,66.98-53.33v-12.82c-.05-29.36-30.14-53.14-67.2-53.06l-40.19.05c-.4.03-.72.35-.72.75Z"/>
  <path class="st3" d="M1826.04,731.45c-.51.16-.69.8-.35,1.2l154.22,185.21c.37.43.05,1.1-.51,1.1h-128.3c-.96,0-1.87-.45-2.46-1.2l-136.03-175.81c-.43-.56-1.34-.24-1.34.45v175.62c0,.51-.43.91-.91.91h-101.34c-.56,0-.99-.45-.99-.99l.03-450.64c0-.59.48-1.07,1.07-1.07,63.3.08,116.28.08,158.95-.03,65.35-.13,130.92,28.48,145.83,98.54,15.47,72.62-14.45,142.79-87.88,166.7ZM1711.47,549.82l-.43,115.85c0,.43.37.8.8.8l38.5.13c32.17.11,58.3-23.25,58.41-52.18l.05-12.72c.11-28.91-25.89-52.45-58.03-52.56l-38.5-.13c-.45,0-.8.35-.8.8Z"/>
  <path class="st3" d="M2277.32,692.42v44.06c0,.67-.53,1.18-1.18,1.18h-147.09c-.59,0-1.04.48-1.04,1.07v87.96c0,.91.75,1.66,1.66,1.66h153.29c.53,0,.96.43.96.96v88.47c0,.59-.45,1.04-1.04,1.04h-257.25c-.37,0-.67-.29-.67-.67-.08-4.3-.11-79.52-.13-225.67-.05-146.15-.03-221.36.03-225.67,0-.37.32-.67.69-.67l257.25-.11c.56,0,1.04.48,1.04,1.04l.03,88.47c0,.53-.43.96-.96.96l-153.29.08c-.91,0-1.66.72-1.66,1.66l.03,87.96c0,.59.48,1.07,1.04,1.07l147.09-.08c.67,0,1.18.53,1.2,1.18,0,5.29-.03,19.99,0,44.06Z"/>
  <path class="st3" d="M3323.22,825.74c29.15,0,54.11-9.08,65.09-37.65,5.4-14.03,8.15-30.67,8.23-49.99.35-71.77.4-161.78.19-270.05,0-.99.8-1.79,1.79-1.79l99.82-.03c.91,0,1.63.72,1.63,1.63.16,180.57.11,280.68-.13,300.35-.37,29.5-7.96,65.62-24.18,90.74-33.96,52.61-91.99,68.32-152.4,68.32s-118.47-15.71-152.43-68.29c-16.22-25.12-23.81-61.24-24.18-90.74-.27-19.66-.32-119.78-.16-300.35,0-.91.72-1.63,1.63-1.63h99.82c.99,0,1.79.8,1.79,1.79-.21,108.26-.13,198.28.21,270.05.08,19.32,2.83,35.99,8.2,49.99,10.98,28.56,35.96,37.65,65.09,37.65Z"/>
  <path class="st3" d="M3801.94,731.45c-.51.16-.69.8-.35,1.2l154.25,185.21c.37.43.05,1.1-.51,1.1h-128.3c-.96,0-1.87-.45-2.46-1.2l-136.05-175.81c-.43-.56-1.34-.24-1.34.48v175.62c0,.51-.4.91-.91.91h-101.34c-.53,0-.99-.45-.99-.99v-450.67c0-.59.48-1.07,1.07-1.07,63.3.08,116.28.08,158.95-.03,65.35-.13,130.92,28.46,145.86,98.54,15.47,72.62-14.45,142.79-87.88,166.7ZM3687.4,549.63l-.43,116.23c0,.32.29.61.61.61l38.58.13c32.22.11,58.41-23.27,58.51-52.21l.05-12.66c.11-28.94-25.94-52.48-58.14-52.58l-38.58-.13c-.35,0-.61.27-.61.61Z"/>
  <path class="st3" d="M4000.68,692.5c-.05-146.2-.05-221.44,0-225.72.03-.37.32-.67.69-.67l257.3-.13c.59,0,1.04.45,1.04,1.04l.05,88.47c0,.53-.43.96-.96.96l-153.31.11c-.94,0-1.66.72-1.66,1.66l.03,87.96c0,.59.48,1.07,1.07,1.07l147.11-.08c.64,0,1.18.53,1.18,1.18v44.06c.03,24.1.03,38.8.03,44.09,0,.64-.53,1.18-1.18,1.18h-147.11c-.59,0-1.04.48-1.04,1.07v87.98c0,.94.75,1.66,1.66,1.66l153.34-.03c.51,0,.96.45.96.96v88.49c0,.59-.45,1.04-1.04,1.04l-257.3.05c-.37,0-.67-.29-.69-.67-.05-4.3-.11-79.54-.16-225.72Z"/>
  <path class="st4" d="M673.02,511.32h.21c.19.03.29.11.37.19,2.75,3.15,10.9,15.23,24.45,36.2,8.12,12.56,15.95,25.33,17.39,39.28,2.7,25.89-13.95,48.87-41.87,49-27.95.11-44.78-22.71-42.32-48.65,1.34-13.95,9.06-26.77,17.07-39.41,13.36-21.11,21.4-33.24,24.13-36.42.05-.08.19-.16.35-.19h.21ZM653.86,566.3c-11.65,11.03-14.96,23.65-9.97,37.86,5.4,15.31,20.57,22.98,36.6,18.81.77-.19.72-1.31-.08-1.44-26.26-4.38-37.89-31.58-25.52-54.43.16-.29.08-.64-.19-.86-.24-.19-.61-.16-.85.05Z"/>
  <path class="st0" d="M444.33,581.19c-.4-1.31.43-2.67,1.79-2.89l15.92-2.57c1.55-.27,3.02.69,3.42,2.22,2.86,10.87,16.67,11.7,25.33,8.18,6.81-2.78,6.17-11.97-.88-14.4-1.63-.56-9.24-2.78-22.84-6.6-19.83-5.56-27.36-23.51-15.36-40.59.56-.77,1.18-1.47,1.9-2.08,18.92-15.82,52.29-11.6,59.93,15.15.11.4-.16.8-.56.88l-17.47,2.81c-.48.08-.99-.19-1.23-.64-3.45-7.13-9.89-10.1-19.34-8.9-5.26.67-7.88,3.21-7.86,7.64.05,5.66,5.05,7.91,9.7,9.19,7.19,2,20.01,4.52,28.86,10.02,10.31,6.41,13.12,19.34,7.75,29.71-9.57,18.44-37.78,20.04-54.43,11.44-7-3.61-11.86-9.81-14.62-18.57ZM288.43,515.14c4.65,0,7.99.08,9.94.24.48.05.85.37.96.8l15.79,59.61c.21.77,1.31.77,1.5,0l14.54-58.43c.32-1.31,1.5-2.24,2.86-2.24h20.39c1.1,0,1.87,1.07,1.55,2.11l-26.45,84.38c-.37,1.15-1.44,1.95-2.65,1.95h-20.12c-1.28,0-2.4-.83-2.75-2.06-5.88-20.25-13.49-49.67-15.02-50.98-.21-.21-.4-.29-.53-.29s-.32.08-.56.29c-1.52,1.31-9.11,30.73-14.99,50.98-.35,1.23-1.47,2.06-2.75,2.06h-20.12c-1.2,0-2.3-.77-2.65-1.95l-26.48-84.35c-.32-1.07.45-2.11,1.55-2.11l20.39-.03c1.36,0,2.54.94,2.86,2.24l14.56,58.43c.19.77,1.28.77,1.5,0l15.76-59.61c.11-.43.48-.75.96-.77,1.95-.19,5.29-.27,9.97-.27ZM396.32,515.19c4.09,0,8.02.05,11.76.13.88.03,1.68.59,1.98,1.42l30.83,83.34c.61,1.66-.61,3.45-2.4,3.45h-15.31c-2.14,0-4.06-1.34-4.81-3.37l-4.09-11.03c-.43-1.18-1.55-2-2.81-2.08-1.63-.08-6.68-.13-15.15-.13s-13.52.05-15.15.13c-1.26.08-2.38.88-2.81,2.08l-4.09,11.03c-.75,2-2.67,3.37-4.81,3.37h-15.31c-1.79,0-3.02-1.79-2.4-3.45l30.86-83.34c.29-.83,1.07-1.39,1.98-1.42,3.74-.08,7.64-.13,11.73-.13ZM386.03,567.99c-.32.85.32,1.74,1.2,1.74l18.6-.16c.91,0,1.52-.91,1.18-1.76l-9.49-24.29c-.45-1.1-2-1.07-2.4.03l-9.08,24.45ZM567,548.8h15.2c.72-.03,1.28-.61,1.28-1.34v-31.15c0-.86.69-1.52,1.52-1.52h18.36c.75,0,1.34.59,1.36,1.34.03,1.52.03,15.79.03,42.75-.03,26.96-.03,41.23-.05,42.75-.03.75-.64,1.34-1.36,1.34h-18.36c-.86-.03-1.52-.69-1.52-1.55l.03-31.15c0-.69-.56-1.28-1.28-1.31-.32-.03-5.4-.03-15.2-.03h-15.2c-.72.03-1.28.61-1.28,1.34v31.15c0,.83-.69,1.52-1.52,1.52h-18.36c-.75,0-1.34-.59-1.36-1.34-.03-1.52-.03-15.79-.03-42.75.03-26.96.03-41.23.05-42.75.03-.75.61-1.34,1.36-1.34h18.36c.86,0,1.52.69,1.52,1.52l-.03,31.15c0,.72.56,1.31,1.28,1.34.32.03,5.4.03,15.2.03Z"/>
  <path class="st5" d="M386.03,567.99l9.08-24.45c.4-1.1,1.95-1.12,2.4-.03l9.49,24.29c.35.86-.27,1.76-1.18,1.76l-18.6.16c-.88,0-1.52-.88-1.2-1.74Z"/>
  <path class="st1" d="M1321.91,549.85c0-.4.32-.72.72-.75l40.19-.05c37.06-.08,67.14,23.7,67.2,53.06v12.82c.05,29.39-29.93,53.25-66.98,53.33l-40.19.05c-.4.03-.72-.32-.72-.69l-.21-117.78Z"/>
  <path class="st1" d="M1711.47,549.82c0-.45.35-.8.8-.8l38.5.13c32.14.11,58.14,23.65,58.03,52.56l-.05,12.72c-.11,28.94-26.24,52.29-58.41,52.18l-38.5-.13c-.43,0-.8-.37-.8-.8l.43-115.85Z"/>
  <path class="st1" d="M3687.4,549.63c0-.35.27-.61.61-.61l38.58.13c32.2.11,58.25,23.65,58.14,52.58l-.05,12.66c-.11,28.94-26.29,52.32-58.51,52.21l-38.58-.13c-.32,0-.61-.29-.61-.61l.43-116.23Z"/>
  <path class="st5" d="M653.86,566.3c.24-.21.61-.24.85-.05.27.21.35.56.19.86-12.37,22.84-.75,50.04,25.52,54.43.8.13.85,1.26.08,1.44-16.03,4.17-31.21-3.5-36.6-18.81-5-14.21-1.68-26.83,9.97-37.86Z"/>
  <path class="st1" d="M622.39,609.16c1.04,2.4.29,4.06-2.27,5.02-33.56,12.37-50.42,18.38-50.58,18.01-.16-.35,15.74-8.6,47.64-24.77,2.43-1.23,4.17-.64,5.21,1.74Z"/>
  <path class="st1" d="M524.12,631.02c.83-1.36,2.06-2.51,3.63-3.42.67-.4,1.44-.56,2.22-.43l24.85,3.87c1.04.16,1.9.91,2.22,1.92,1.26,4.17,1.18,8.07-.27,11.73-.37.94-1.2,1.6-2.19,1.76-8.28,1.26-16.51,2.24-24.66,2.99-2.27.19-3.71-.11-4.28-.88-.43-.59-.99-1.47-1.68-2.67-.43-.72-1.23-1.18-2.08-1.18h-175.86c-.77,0-1.47.43-1.82,1.1l-1.71,3.37c-.43.85-1.31,1.39-2.27,1.39h-8.63c-3.23,0-6.09,2.06-7.11,5.13-1.39,4.09-3.87,11.7-7.45,22.84-5.69,17.61-12.74,29.55-31.37,30.43-4.94.24-11.7-2-20.23-6.73-.32-.19-9.08-4.44-26.29-12.8-2.38-1.15-3.5-3.53-3.42-7.08.03-.85.48-1.66,1.23-2.06,1.68-.94,3.45-2.89,5.34-5.82,9.97-15.58,15.74-24.77,17.31-27.57.43-.75.69-1.6.8-2.48.32-3.02-1.44-5.66-5.26-7.94-.69-.4-1.18-1.12-1.28-1.92-1.07-7.29,3.39-8.6,10.1-8.58,35.24.05,59.4.05,72.51.03,3.85,0,6.33,1.82,7.51,5.16.35.94,1.2,1.55,2.19,1.55h174.93c1.23,0,2.38-.64,3.02-1.71ZM287.31,652.74c-3.02.48-5.74,2.14-7.53,4.62l-19.75,27.17c-1.5,2.08-.75,5.02,1.58,6.12l17.69,8.26c.56.27,1.18.45,1.79.53,9.78,1.42,17.1-1.66,21.94-9.24,5.05-7.94,8.76-18.86,11.14-32.73.11-.67-.16-1.6-.8-2.86-.59-1.18-2.24-1.2-2.89-.08l-21.46,37.17c-1.34,2.3-4.22,3.13-6.57,1.9l-1.15-.61c-1.39-.72-1.9-2.46-1.12-3.82l19.16-33.83c1.12-2-.56-4.44-2.83-4.06l-9.19,1.47Z"/>
  <path class="st1" d="M637.16,637.78c-.03,4.92-4.01,6.81-11.94,5.66-7.64-1.1-25.81-2.91-54.53-5.4-.27-.03-.45-.11-.53-.21-.03-.08-.05-.19-.05-.29,0-.13.03-.21.08-.32.05-.08.24-.16.51-.19,28.75-2.27,46.92-3.93,54.59-5,7.94-1.07,11.92.83,11.89,5.74Z"/>
  <path class="st1" d="M649.91,672.67c-.8,2.24-2.78,3.37-5.9,3.34-.75-.03-1.5-.16-2.16-.45-48.92-20.63-73.29-31.23-73.1-31.77.19-.53,25.76,6.63,76.74,21.54.69.21,1.36.56,1.95,1.04,2.46,1.95,3.29,4.06,2.48,6.31Z"/>
  <path class="st5" d="M287.31,652.74l9.19-1.47c2.27-.37,3.95,2.06,2.83,4.06l-19.16,33.83c-.77,1.36-.27,3.1,1.12,3.82l1.15.61c2.35,1.23,5.24.4,6.57-1.9l21.46-37.17c.64-1.12,2.3-1.1,2.89.08.64,1.26.91,2.19.8,2.86-2.38,13.87-6.09,24.79-11.14,32.73-4.84,7.59-12.16,10.66-21.94,9.24-.61-.08-1.23-.27-1.79-.53l-17.69-8.26c-2.32-1.1-3.07-4.03-1.58-6.12l19.75-27.17c1.79-2.48,4.52-4.14,7.53-4.62Z"/>
  <path class="st3" d="M2515.65,1221.39c-.43.86-1.52,1.15-2.32.64-16.49-10.29-35.54-18.62-57.18-24.98-25.36-7.45-72.35-10.34-84.14,20.97-10.45,27.73,11.28,41.01,31.9,52.02,15.2,8.1,35.83,17.74,61.88,28.94,46.89,20.09,101.64,61.77,103.62,118.18,1.5,42.32-11.7,86.01-45.58,113.07-21.56,17.23-50.98,28.56-80.4,33.35-67.25,10.95-130.07-1.36-188.47-36.93-8.92-5.45-17.29-11.41-25.09-17.93-.37-.32-.45-.83-.21-1.26l49.48-85.77c.32-.53,1.04-.67,1.52-.27,17.26,14.51,38.21,27.25,62.82,38.23,15.84,7.11,29.63,11.06,41.33,11.89,25.73,1.82,62.5-2.24,70.32-32.3,4.52-17.37-1.07-31.58-16.73-42.62-26.29-18.57-55.49-29.84-85.63-44.62-43.98-21.54-82.48-60.81-84.22-111.76-1.39-40.59,12.66-74.28,42.16-101.05,21-19.1,44.89-31.61,71.61-37.57,43.23-9.59,94.26.75,137.04,18.14,12.45,5.05,24.55,12.02,36.26,20.87.45.35.59.94.32,1.42l-40.29,79.33Z"/>
  <path class="st3" d="M3953.81,1383.6v-76.31c0-.86.69-1.55,1.55-1.55h205.92c.91,0,1.63.72,1.63,1.63v95.41c0,.35-.03.67-.11.99-15.52,71.34-55.95,120.13-121.22,146.39-47.59,19.16-95.39,22.5-143.37,10.05-43.1-11.2-80.24-35.78-111.47-73.74-31.74-38.61-49.38-83.02-52.93-133.22-4.46-63.62,10.42-118.85,44.7-165.68,41.55-56.75,100.52-88.55,171.16-89.48,69.9-.96,132.93,22.2,178,76.84.32.4.32.99-.03,1.36l-65.81,72.3c-.53.59-1.47.48-1.87-.19-25.78-42.67-70.75-63.51-120.31-54.72-51.97,9.22-86.25,64.61-93.28,113.61-6.52,45.5,3.42,90.18,33.69,126.27,15.42,18.38,33.32,30.22,53.73,35.51,55.31,14.35,124.67-18.44,124.03-82.99,0-.48-.37-.86-.85-.86h-101.53c-.91,0-1.63-.72-1.63-1.63Z"/>
  <path class="st3" d="M1430.87,1106.5c12.4-.03,25.01-.03,37.86-.08.67,0,1.26.45,1.42,1.12,54.11,204.13,81.36,306.86,81.73,308.17.13.51.4.91.83,1.23.94.69,2.3.21,2.59-.94l76.63-308.01c.21-.91,1.04-1.55,1.98-1.55h111.87c.51,0,.86.48.72.96l-128.44,451.09c-.13.48-.56.8-1.04.8h-112.65c-.56,0-1.07-.37-1.23-.94-2-7.08-25.84-90.63-71.55-250.68-.11-.37-.32-.53-.64-.53-.37,0-.61.16-.72.53-45.66,160.05-69.5,243.62-71.5,250.7-.16.53-.67.94-1.23.94l-112.65.03c-.48,0-.91-.32-1.04-.8l-128.57-451.07c-.13-.48.24-.96.72-.96l111.87-.03c.94,0,1.76.64,1.98,1.55l76.74,307.99c.29,1.15,1.63,1.66,2.59.94.43-.32.69-.72.83-1.23.37-1.31,27.57-104.04,81.63-308.2.19-.64.77-1.1,1.44-1.1,12.82.03,25.44.05,37.83.05Z"/>
  <path class="st3" d="M1977.24,1106.48c15.58,0,31.13-.03,46.68-.05.64,0,1.23.4,1.5.99l181.95,450.64c.24.59-.19,1.23-.83,1.23h-108.48c-.67,0-1.28-.43-1.52-1.07l-32.76-88.49c-.19-.51-.67-.88-1.23-.91-.75-.03-29.18-.05-85.29-.05s-84.56.03-85.31.08c-.56.03-1.04.37-1.23.88l-32.76,88.49c-.24.67-.83,1.07-1.52,1.07l-108.48.03c-.61,0-1.04-.64-.83-1.23l181.93-450.67c.24-.59.83-.99,1.5-.99,15.55.03,31.1.05,46.68.05ZM1926.72,1376.71c-.24.61.21,1.26.83,1.26h99.5c.61,0,1.07-.64.83-1.26l-49.72-129.67c-.29-.77-1.42-.77-1.71,0l-49.72,129.67Z"/>
  <path class="st3" d="M2817.79,1287.34c38.69.03,62.41-.05,71.21-.19.96-.03,1.74-.83,1.74-1.79v-177.57c0-.85.69-1.55,1.58-1.55l100.57.05c.56,0,1.04.43,1.1,1.02.03.21.03,75.32.03,225.27s-.03,225.08-.05,225.29c-.05.56-.53,1.02-1.1,1.02l-100.57.03c-.88,0-1.58-.69-1.58-1.55v-177.57c0-.96-.75-1.74-1.74-1.76-8.76-.16-32.49-.21-71.18-.21-38.66-.03-62.39.05-71.18.19-.96.03-1.74.83-1.74,1.79v177.57c0,.86-.69,1.55-1.58,1.55l-100.57-.05c-.59,0-1.07-.43-1.12-1.02,0-.21-.03-75.32,0-225.27,0-149.97,0-225.08.03-225.29.05-.56.53-1.02,1.12-1.02l100.57-.03c.86,0,1.58.69,1.58,1.55l-.03,177.57c0,.96.77,1.74,1.74,1.76,8.79.16,32.52.21,71.18.21Z"/>
  <rect class="st3" x="3083.58" y="1106.53" width="103.19" height="452.62" rx="1.02" ry="1.02"/>
  <path class="st3" d="M3508.65,1308.1c14.96,23.3,31.77,49.54,50.42,78.69.43.69,1.47.4,1.47-.4l.03-278.78c0-.61.53-1.12,1.15-1.12h100.94c.64,0,1.18.53,1.18,1.18l-.05,450c0,.88-.72,1.6-1.6,1.6l-99.71-.03c-1.12,0-2.19-.59-2.81-1.52-83.02-129.56-125.77-196.25-128.25-200.1-14.96-23.33-31.77-49.54-50.42-78.71-.43-.67-1.47-.37-1.47.4l-.03,278.78c0,.61-.51,1.15-1.15,1.15l-100.92-.03c-.67,0-1.18-.51-1.18-1.18l.03-449.97c0-.91.72-1.6,1.6-1.6h99.71c1.12,0,2.19.59,2.81,1.55,83.04,129.53,125.79,196.25,128.25,200.1Z"/>
  <path class="st1" d="M1926.72,1376.71l49.72-129.67c.29-.77,1.42-.77,1.71,0l49.72,129.67c.24.61-.21,1.26-.83,1.26h-99.5c-.61,0-1.07-.64-.83-1.26Z"/>
  <path class="st3" d="M1473.06,2198.77c.27.27.08.72-.29.72h-127.69c-.96,0-1.87-.37-2.51-1.07l-43.15-44.83c-.45-.45-1.18-.51-1.68-.13-17.34,13.01-34.44,23.91-51.35,32.76-13.65,7.13-27.09,13.2-42.88,16.38-45.66,9.27-88.6,6.31-128.84-8.9-48.01-18.14-74.14-51.83-78.45-101.13-3.07-35.32,10.29-62.9,36.34-86.19,20.71-18.52,44.67-34.57,71.9-48.23.91-.45,1.18-1.6.56-2.4-23.59-30.51-46.12-65.59-44.49-105.35,3.31-81.04,74.12-113.8,145.86-112.06,31.88.77,59.16,6.63,83.55,24.21,22.52,16.22,37.65,37.75,45.42,64.66,10.77,37.35-1.5,71.34-27.89,98.11-16.67,16.91-35.46,30.94-56.38,42.08-.51.27-.61.94-.21,1.34l58.25,60.49c.72.75,1.87.94,2.78.43,7.88-4.36,15.98-10.21,24.29-17.5,13.17-11.57,26.4-24.31,39.68-38.23.53-.56,1.44-.59,2-.03l61.75,61.75c.24.21.24.61.03.86-19.4,22.12-40.29,42.35-62.68,60.65-.53.43-.56,1.23-.11,1.71l96.21,99.93ZM1197.64,1911.46c1.02.16.24.11.72-.11,25.3-11.92,51.97-31.88,50.1-62.39-1.34-22.07-14.03-33.83-35.05-37.14-21-3.34-36.71,3.93-44.81,24.5-11.2,28.43,7.99,55.66,28.38,74.79.37.37-.37.19.67.35ZM1230.02,2083.1l-68.59-68.61c-.88-.88-2.22-1.12-3.34-.64-25.12,10.87-48.65,34.79-45.26,63,3.07,25.57,34.97,35.22,57.07,32.89,22.76-2.38,42.75-10.45,59.98-24.23.75-.59.83-1.71.13-2.4Z"/>
  <path class="st3" d="M3624.85,1738.54c70.94,3.74,130.95,37.46,172.74,95.47,27.92,38.77,42.3,82.69,43.07,131.75,1.34,82.59-31.96,155.9-100.49,204.08-41.07,28.88-90.39,40.24-140.06,37.62-49.7-2.65-97.52-19.1-135.33-52.16-63.08-55.12-88.47-131.54-78.45-213.54,5.96-48.71,24.85-90.84,56.72-126.46,47.67-53.28,110.88-80.5,181.79-76.76ZM3610.99,2107.68c59.72.64,99.31-34.33,112.91-91.43,11.73-49.35,4.22-111.44-33.72-148.96-20.95-20.73-47.27-29.18-76.28-29.47-28.99-.32-55.47,7.53-76.87,27.79-38.77,36.71-47.61,98.62-36.95,148.24,12.34,57.34,51.19,93.17,110.91,93.84Z"/>
  <path class="st3" d="M1942.08,1947.21c-.37,0-.61.19-.72.53-45.72,160.1-69.55,243.7-71.55,250.78-.16.56-.67.94-1.23.94h-112.67c-.48,0-.91-.32-1.04-.8l-128.54-451.2c-.13-.48.21-.96.72-.96l111.9-.03c.94,0,1.76.64,1.98,1.55l76.71,308.09c.29,1.15,1.63,1.66,2.59.94.43-.32.69-.72.83-1.23.37-1.31,27.6-104.07,81.71-308.28.16-.64.75-1.12,1.42-1.1,12.85.03,25.46.05,37.86.05s25.04-.03,37.86-.05c.67-.03,1.26.45,1.44,1.1,54.11,204.21,81.33,306.97,81.71,308.28.13.51.4.91.83,1.23.94.72,2.3.21,2.59-.94l76.71-308.09c.21-.91,1.02-1.55,1.98-1.55l111.9.03c.51,0,.86.48.72.96l-128.54,451.2c-.13.48-.56.8-1.04.8h-112.67c-.59,0-1.07-.37-1.23-.94-2-7.08-25.86-90.68-71.55-250.78-.11-.35-.32-.53-.64-.53Z"/>
  <rect class="st3" x="2306.18" y="1746.5" width="103.13" height="452.99" rx=".94" ry=".94"/>
  <path class="st3" d="M2654,1997.79c-14.96-23.3-31.8-49.54-50.45-78.71-.43-.69-1.47-.4-1.47.4v278.89c0,.64-.51,1.15-1.15,1.15h-100.97c-.64,0-1.18-.53-1.18-1.18v-450.18c0-.88.72-1.6,1.6-1.6h99.74c1.12,0,2.19.59,2.81,1.55,83.1,129.59,125.87,196.3,128.33,200.15,14.99,23.33,31.8,49.56,50.45,78.74.45.67,1.47.37,1.47-.4v-278.89c0-.64.53-1.15,1.15-1.15h100.97c.67,0,1.18.51,1.18,1.18v450.18c0,.88-.69,1.6-1.6,1.6h-99.74c-1.12,0-2.19-.59-2.81-1.55-83.07-129.59-125.85-196.33-128.33-200.18Z"/>
  <path class="st3" d="M2975.96,1747.41c0-.48.4-.88.88-.88h133.59c124.3,0,225.05,99.29,225.05,221.77v9.35c0,122.48-100.76,221.77-225.05,221.77h-133.59c-.48,0-.88-.4-.88-.88v-451.12ZM3079.18,1839.69v266.65c0,.59.45,1.04,1.04,1.04h18.36c69.17,0,125.26-58.11,125.26-129.83v-9.08c0-71.71-56.08-129.83-125.26-129.83h-18.36c-.59,0-1.04.45-1.04,1.04Z"/>
  <path class="st3" d="M4184.82,1947.24c-.37,0-.61.16-.72.53-45.66,160.1-69.5,243.68-71.47,250.76-.16.56-.67.94-1.23.94l-112.67.05c-.48,0-.91-.32-1.04-.8l-128.65-451.15c-.13-.48.21-.96.72-.96l111.9-.05c.94,0,1.76.64,1.98,1.55l76.76,308.07c.29,1.15,1.66,1.63,2.59.94.43-.32.69-.75.83-1.23.37-1.34,27.57-104.1,81.63-308.28.19-.67.75-1.12,1.42-1.12,12.85.05,25.46.05,37.86.05s25.01-.03,37.86-.05c.67-.03,1.26.43,1.42,1.1,54.16,204.18,81.44,306.92,81.81,308.23.11.51.4.91.83,1.23.94.72,2.3.21,2.59-.94l76.6-308.09c.21-.91,1.04-1.55,1.98-1.55h111.9c.48,0,.86.48.72.96l-128.41,451.2c-.16.48-.56.8-1.04.8l-112.67.03c-.59,0-1.07-.4-1.23-.94-2-7.08-25.86-90.66-71.61-250.73-.11-.37-.32-.53-.64-.53Z"/>
  <path class="st1" d="M1213.41,1811.83c21.03,3.31,33.72,15.07,35.05,37.14,1.87,30.51-24.79,50.47-50.1,62.39-.48.21.29.27-.72.11-1.04-.16-.29.03-.67-.35-20.39-19.13-39.57-46.36-28.38-74.79,8.1-20.57,23.81-27.84,44.81-24.5Z"/>
  <path class="st1" d="M3613.9,1837.82c29.02.29,55.33,8.74,76.28,29.47,37.94,37.51,45.45,99.61,33.72,148.96-13.6,57.1-53.2,92.07-112.91,91.43-59.72-.67-98.57-36.5-110.91-93.84-10.66-49.62-1.82-111.52,36.95-148.24,21.4-20.25,47.88-28.11,76.87-27.79Z"/>
  <path class="st1" d="M3079.18,1839.69c0-.59.45-1.04,1.04-1.04h18.36c69.17,0,125.26,58.11,125.26,129.83v9.08c0,71.71-56.08,129.83-125.26,129.83h-18.36c-.59,0-1.04-.45-1.04-1.04v-266.65Z"/>
  <path class="st1" d="M1229.89,2085.51c-17.23,13.79-37.22,21.86-59.98,24.23-22.1,2.32-54-7.32-57.07-32.89-3.39-28.21,20.15-52.13,45.26-63,1.12-.48,2.46-.24,3.34.64l68.59,68.61c.69.69.61,1.82-.13,2.4Z"/>
  <path class="st3" d="M1276.25,2613.44c.03,43.04,23.43,85.55,58.35,108.64,21.29,14.05,46.97,22.1,77.03,24.15,26.77,1.84,53.52-3.02,80.21-14.56,7.59-3.29,14.51-7.27,20.76-12,.91-.69,2.24-.37,2.75.64l42.4,84.65c.43.83.16,1.84-.59,2.38-42.35,30.06-97.31,40.91-149.06,40.69-128.6-.56-243.89-105.46-243.94-234.54-.05-129.05,115.16-234.06,243.73-234.72,51.78-.27,106.74,10.53,149.12,40.56.75.53,1.02,1.55.59,2.38l-42.32,84.67c-.53,1.04-1.84,1.34-2.75.67-6.25-4.73-13.2-8.71-20.79-12-26.69-11.52-53.44-16.35-80.21-14.48-30.06,2.06-55.74,10.15-77,24.23-34.89,23.09-58.27,65.59-58.27,108.64Z"/>
  <path class="st3" d="M4100.37,2665.76c-.88,0-1.63-.75-1.63-1.63l-.03-76.31c0-.86.69-1.55,1.55-1.55l205.92-.08c.91,0,1.63.72,1.63,1.63l.05,95.41c0,.35-.05.67-.11.99-15.52,71.34-55.92,120.15-121.2,146.45-47.59,19.16-95.36,22.52-143.35,10.07-43.1-11.17-80.26-35.75-111.5-73.69-31.77-38.61-49.43-82.99-52.98-133.22-4.49-63.62,10.39-118.84,44.65-165.68,41.52-56.78,100.49-88.57,171.13-89.53,69.9-.99,132.93,22.15,178.03,76.79.32.4.29.96-.03,1.36l-65.78,72.3c-.53.59-1.47.51-1.87-.19-25.81-42.64-70.78-63.48-120.34-54.67-51.97,9.24-86.22,64.63-93.22,113.63-6.52,45.5,3.45,90.18,33.72,126.27,15.42,18.36,33.32,30.19,53.73,35.48,55.33,14.32,124.67-18.49,124-83.04,0-.45-.37-.86-.85-.86l-101.53.05Z"/>
  <path class="st3" d="M1879.66,2839.72h-257.19c-.53,0-.96-.43-.96-.96v-451.04c0-.53.43-.96.96-.96h101.32c.53,0,.96.43.96.96v360.57c0,.53.43.96.96.96h153.95c.53,0,.96.43.96.96v88.55c0,.53-.43.96-.96.96Z"/>
  <path class="st3" d="M1955.33,2613.07c0-146.2.05-221.47.11-225.75,0-.37.29-.67.67-.67l257.36-.03c.56,0,1.04.45,1.04,1.04v88.49c0,.53-.43.96-.96.96l-153.34.03c-.91,0-1.66.72-1.66,1.66v87.98c0,.59.48,1.07,1.04,1.07l147.17-.03c.64,0,1.18.53,1.18,1.18,0,5.29,0,19.99-.03,44.09,0,24.07,0,38.77.03,44.06-.03.67-.53,1.18-1.2,1.18l-147.14-.05c-.56,0-1.04.48-1.04,1.07l-.03,88.01c0,.91.75,1.66,1.66,1.66l153.34.03c.53,0,.96.45.96.96l-.03,88.52c0,.56-.45,1.04-1.04,1.04l-257.33-.08c-.37,0-.67-.29-.69-.67-.05-4.3-.08-79.54-.05-225.75Z"/>
  <path class="st3" d="M2479.61,2749.17c-56.14,0-84.56.03-85.31.08-.56.03-1.04.37-1.23.88l-32.76,88.52c-.24.64-.86,1.07-1.52,1.07h-108.5c-.64,0-1.07-.64-.83-1.23l181.95-450.72c.27-.61.86-.99,1.52-.99,15.52.03,31.1.03,46.68.03s31.13,0,46.68-.03c.67,0,1.26.37,1.5.99l181.98,450.72c.24.59-.19,1.23-.83,1.23h-108.5c-.67,0-1.28-.43-1.52-1.07l-32.76-88.52c-.19-.51-.67-.86-1.23-.91-.75-.03-29.18-.05-85.31-.05ZM2429.11,2657.15c-.27.69.24,1.44.99,1.44h99.13c.75,0,1.26-.75.99-1.44l-49.56-129.19c-.35-.94-1.63-.94-1.98,0l-49.56,129.19Z"/>
  <path class="st3" d="M2983.82,2588.51c14.99,23.33,31.8,49.56,50.45,78.74.45.67,1.5.37,1.5-.4l-.03-278.89c0-.64.53-1.15,1.15-1.15h100.97c.67,0,1.18.53,1.18,1.18v450.16c0,.88-.69,1.6-1.6,1.6h-99.71c-1.15,0-2.19-.56-2.83-1.52-83.07-129.61-125.85-196.33-128.3-200.18-14.99-23.3-31.8-49.54-50.47-78.71-.43-.69-1.47-.4-1.47.4v278.89c0,.61-.51,1.15-1.15,1.15h-100.94c-.67,0-1.18-.53-1.18-1.18v-450.18c0-.88.69-1.6,1.6-1.6h99.71c1.15,0,2.19.59,2.83,1.55,83.07,129.59,125.85,196.3,128.3,200.15Z"/>
  <rect class="st3" x="3228.48" y="2386.76" width="103.19" height="452.94" rx=".88" ry=".88"/>
  <path class="st3" d="M3653.63,2588.49c14.96,23.33,31.77,49.56,50.45,78.74.43.67,1.47.37,1.47-.43v-278.86c0-.61.51-1.15,1.15-1.15h100.94c.67,0,1.18.53,1.18,1.18l.03,450.16c0,.88-.72,1.6-1.6,1.6h-99.74c-1.12,0-2.19-.59-2.81-1.55-83.1-129.59-125.85-196.3-128.33-200.15-14.96-23.3-31.8-49.54-50.45-78.71-.43-.67-1.47-.4-1.47.4v278.86c0,.64-.51,1.15-1.15,1.15h-100.94c-.67,0-1.18-.53-1.18-1.18l-.03-450.13c0-.88.72-1.6,1.6-1.6h99.74c1.12,0,2.19.56,2.81,1.52,83.07,129.59,125.85,196.3,128.33,200.15Z"/>
  <path class="st1" d="M2429.11,2657.15l49.56-129.19c.35-.94,1.63-.94,1.98,0l49.56,129.19c.27.69-.24,1.44-.99,1.44h-99.13c-.75,0-1.26-.75-.99-1.44Z"/>
  <path class="st3" d="M5472,3206.41v897.59H0v-897.54l5472-.05ZM2600.54,3621.3c0-92.31-74.84-167.15-167.15-167.15s-167.15,74.84-167.15,167.15,74.84,167.15,167.15,167.15,167.15-74.84,167.15-167.15ZM2952.58,3729.94c24.15-.05,48.09-8.12,65.22-24.77,9.22-8.98,14.54-18.54,15.9-28.72,4.14-30.73-7.83-53.49-35.96-68.32-.59-.32-.61-1.18-.05-1.52,2.54-1.63,5.91-4.41,10.15-8.34,16.75-15.47,22.31-44.73,10.13-63.96-13.55-21.38-40.53-32.36-66-32.28-25.49.08-52.4,11.17-65.81,32.65-12.1,19.29-6.39,48.52,10.47,63.91,4.25,3.87,7.64,6.65,10.18,8.26.59.37.56,1.2-.03,1.52-28.05,14.99-39.92,37.83-35.59,68.53,1.42,10.15,6.79,19.69,16.06,28.62,17.21,16.57,41.2,24.5,65.33,24.42ZM3662.9,3680.91c16.86-12.21,31.58-24.96,44.14-38.29,22.87-24.26,37.33-51.75,29.39-84.67-6.71-27.79-23.59-45.1-50.61-51.97-53.33-13.6-92.45,9.03-113.05,58.43-.29.67,0,1.44.64,1.76l39.33,20.01c.88.45,1.95-.03,2.24-.96,4.25-13.57,11.7-24.96,22.39-34.12,14.83-12.72,37.99-6.41,44.25,12.45,5.37,16.25,2.4,26.64-6.95,41.71-9.94,16.06-23.16,32.36-39.65,48.92-25.41,25.57-46.3,45.02-62.71,58.35-.72.59-1.15,1.47-1.15,2.4v9.41c0,.94.77,1.68,1.68,1.68l168.89-.03c.45,0,.85-.37.85-.86v-41.65c0-.83-.67-1.47-1.5-1.47h-77.83c-.59,0-.86-.75-.37-1.12ZM3955.92,3616.38c-.03,29.82,5.53,60.36,24.42,83.5,16.19,19.88,39.22,30.43,64.85,30.43s48.71-10.53,64.9-30.38c18.89-23.14,24.47-53.68,24.47-83.5.03-29.82-5.56-60.38-24.42-83.52-16.19-19.85-39.22-30.41-64.87-30.41-25.62-.03-48.68,10.53-64.87,30.38-18.89,23.11-24.47,53.68-24.47,83.5ZM4565.54,3729.94c24.13-.05,48.07-8.12,65.19-24.77,9.24-8.98,14.53-18.54,15.92-28.72,4.14-30.73-7.83-53.49-35.96-68.32-.59-.32-.61-1.18-.05-1.52,2.54-1.63,5.93-4.41,10.15-8.34,16.75-15.47,22.34-44.73,10.15-63.96-13.55-21.38-40.51-32.36-66-32.28-25.49.05-52.37,11.14-65.81,32.62-12.1,19.29-6.39,48.52,10.45,63.91,4.25,3.87,7.67,6.65,10.21,8.26.56.37.53,1.2-.05,1.55-28.05,14.96-39.92,37.78-35.59,68.51,1.42,10.15,6.76,19.69,16.06,28.62,17.18,16.57,41.17,24.5,65.33,24.45ZM4773.49,3680.91c16.86-12.21,31.56-24.96,44.14-38.29,22.87-24.26,37.33-51.75,29.39-84.67-6.71-27.76-23.59-45.1-50.61-51.97-53.33-13.6-92.45,9.03-113.05,58.43-.29.67,0,1.44.64,1.76l39.33,20.01c.88.43,1.95-.03,2.24-.96,4.25-13.6,11.73-24.96,22.39-34.12,14.83-12.72,37.99-6.41,44.25,12.45,5.37,16.25,2.4,26.64-6.95,41.71-9.97,16.06-23.16,32.36-39.65,48.92-25.41,25.57-46.33,44.99-62.71,58.33-.72.59-1.15,1.47-1.15,2.4v9.41c0,.94.75,1.68,1.68,1.68h168.86c.48,0,.86-.37.86-.86v-41.65c0-.8-.67-1.47-1.5-1.47h-77.8c-.61,0-.85-.77-.37-1.12ZM4970.17,3652.51l-62.17,72.19c-.43.51-.08,1.26.59,1.26l59.08.03c.67,0,1.31-.27,1.76-.8,13.63-15.98,30.03-35.48,49.22-58.54,5.02-6.04,11.54-15.36,19.56-28.03,12.26-19.34,17.9-40.53,16.91-63.51-.45-10.39-2.46-19.29-6.01-26.67-22.12-45.93-82.61-56.99-124.51-36.23-9.73,4.84-17.39,10.74-23,17.74-19.93,24.77-20.57,63.38-4.01,89.91,11.68,18.65,29.28,29.87,52.8,33.67,4.44.72,10.85.11,19.26-1.87.51-.11.86.48.53.86ZM3202.99,3506.25h-108.8c-.96,0-1.76.69-1.9,1.63l-17.93,115.24c-.11.61.48,1.1,1.07.88,22.98-8.79,60.62-10.66,80.69,5.85,9.03,7.45,13.2,16.97,12.45,28.56-1.36,21.48-18.78,31.98-39.49,29.26-14.99-1.95-24.96-9.67-29.92-23.17-.35-.94-1.42-1.36-2.3-.91l-36.82,18.44c-.64.32-.91,1.1-.61,1.76,12.37,26.53,33,41.57,61.85,45.13,32.09,3.95,63.06-3.18,83.34-28.67,9.08-11.46,13.79-24.93,14.13-40.43.43-19.69-3.77-41.17-16.89-55.6-16.7-18.38-44.89-24.85-69.36-23.35-.96.05-1.74-.77-1.58-1.71l4.25-27.31c.13-.94.94-1.63,1.9-1.63h65.89c.99,0,1.76-.77,1.76-1.76v-40.48c0-.96-.77-1.74-1.74-1.74ZM3256.51,3549.32c0,.51.4.91.91.91h92.18c.69,0,1.15.75.8,1.36l-99.93,173.06c-.35.61.11,1.36.8,1.36h57.18c.32,0,.64-.19.8-.45l115.77-204.56c.05-.13.11-.29.11-.45v-13.36c0-.51-.4-.91-.91-.91h-166.8c-.51,0-.91.4-.91.91v42.14ZM3916.22,3506.25h-108.83c-.94,0-1.74.69-1.9,1.63l-17.93,115.24c-.11.61.51,1.1,1.07.88,22.98-8.79,60.63-10.66,80.69,5.85,9.06,7.45,13.2,16.97,12.45,28.56-1.36,21.48-18.78,31.98-39.49,29.26-14.99-1.95-24.96-9.67-29.93-23.17-.35-.94-1.42-1.36-2.3-.91l-36.82,18.44c-.64.32-.91,1.1-.61,1.76,12.37,26.53,33,41.57,61.85,45.13,32.09,3.95,63.06-3.18,83.34-28.67,9.08-11.46,13.79-24.93,14.13-40.43.43-19.69-3.74-41.17-16.86-55.6-16.73-18.38-44.91-24.85-69.39-23.35-.96.05-1.74-.77-1.58-1.71l4.25-27.31c.16-.94.96-1.63,1.9-1.63h65.91c.96,0,1.76-.8,1.76-1.76v-40.48c0-.96-.77-1.74-1.74-1.74ZM4371.51,3579.7l62.09-72.17c.43-.48.08-1.26-.59-1.26h-59.02c-.67,0-1.31.29-1.76.8-13.6,15.98-30.01,35.48-49.16,58.54-5,6.01-11.52,15.36-19.53,28-12.24,19.34-17.85,40.51-16.86,63.46.45,10.39,2.46,19.29,6.01,26.67,22.12,45.88,82.59,56.88,124.43,36.12,9.7-4.84,17.37-10.74,22.98-17.71,19.91-24.77,20.52-63.35,3.95-89.86-11.68-18.62-29.26-29.84-52.77-33.61-4.41-.72-10.82-.08-19.24,1.87-.51.11-.85-.45-.53-.85ZM416.33,3619.05c0,51.19,37.51,91,85.39,104.34,28.8,8.04,68.24,2.59,94.66-14.75.69-.45.94-1.34.56-2.06l-18.86-37.67c-.37-.75-1.31-.99-2-.56-14.94,9.22-31.07,13.04-48.36,11.46-32.92-3.02-59.88-26.05-59.88-60.79-.03-34.73,26.91-57.79,59.82-60.84,17.31-1.6,33.43,2.22,48.39,11.41.69.45,1.63.19,2-.56l18.81-37.67c.37-.72.13-1.63-.56-2.06-26.42-17.31-65.86-22.74-94.66-14.7-47.88,13.39-85.34,53.22-85.31,104.44ZM1534.06,3510.98c-58.09-2.94-107.63,43.12-110.65,102.88-3.02,59.75,41.6,110.6,99.68,113.53,58.09,2.94,107.63-43.12,110.64-102.88,3.02-59.75-41.6-110.6-99.68-113.53ZM708.88,3681.39h37.89c1.02,0,1.95.64,2.32,1.63l14.27,38.56c.32.85,1.15,1.42,2.06,1.42h48.2c.59,0,1.02-.61.77-1.15l-82.85-205.23c-.35-.83-1.15-1.39-2.06-1.42-5.96-.21-12.82-.32-20.57-.32s-14.64.11-20.6.32c-.91.03-1.71.59-2.06,1.42l-82.85,205.23c-.24.53.16,1.15.77,1.15h48.2c.91,0,1.74-.56,2.06-1.42l14.27-38.56c.35-.99,1.28-1.63,2.32-1.63h37.86ZM880.86,3681.36c-.56,0-1.02-.45-1.02-1.02v-164.45c0-.56-.45-1.02-1.02-1.02h-45.4c-.56,0-1.02.45-1.02,1.02v206.08c0,.56.45,1.02,1.02,1.02h117.05c.56,0,1.02-.45,1.02-1.02v-39.6c0-.56-.45-1.02-1.02-1.02h-69.63ZM1031.08,3514.85l-44.83.05c-.86,0-1.58.69-1.58,1.55v205.71c0,.45.37.86.83.86l116.68-.03c.88,0,1.58-.69,1.58-1.55v-38.55c0-.86-.67-1.52-1.5-1.52h-68.99c-.64,0-1.18-.53-1.18-1.2v-164.27c0-.56-.45-1.04-1.02-1.04ZM1286.24,3630.01c34.23,53.7,53.87,84.3,58.94,91.7.56.83,1.47,1.31,2.46,1.31h44.06c.83,0,1.52-.69,1.52-1.52v-205.09c0-.85-.69-1.55-1.55-1.55h-44.38c-.83,0-1.5.69-1.5,1.52l-.03,126.57c0,.56-.72.77-1.04.29-11.01-17.21-18.54-28.99-22.6-35.38-34.2-53.73-53.86-84.3-58.94-91.73-.53-.8-1.47-1.28-2.46-1.28h-44.06c-.83,0-1.52.67-1.52,1.52v205.09c0,.86.69,1.55,1.55,1.55h44.38c.83,0,1.5-.69,1.5-1.52l.03-126.57c0-.56.75-.77,1.04-.29,11.01,17.21,18.54,28.99,22.6,35.38ZM1790.48,3607.75c.08,0,.13,0,.21.03.16.08.29.19.32.32l32.33,113.31c.27.94,1.12,1.58,2.08,1.58h49.35c.96,0,1.79-.64,2.06-1.55l58.43-205.28c.19-.67-.29-1.31-.99-1.31h-49.8c-.86,0-1.58.59-1.79,1.42l-35,140.65c-.21.85-1.42.85-1.63,0l-37.19-140.3c-.21-.83-.96-1.44-1.82-1.47-5.05-.19-10.55-.27-16.59-.27s-11.54.08-16.57.29c-.85.03-1.6.61-1.82,1.44l-37.17,140.33c-.21.83-1.42.83-1.63,0l-35.03-140.65c-.21-.83-.96-1.42-1.79-1.42l-49.8.03c-.69,0-1.18.64-.99,1.31l58.49,205.25c.27.91,1.12,1.55,2.06,1.55l49.35-.03c.96,0,1.82-.64,2.08-1.58l32.3-113.31c.03-.13.16-.24.32-.32.08-.03.13-.03.21-.03ZM2745.78,3594.93c-.27.27-.64.43-1.1.4-18.46-.24-33.4-.24-44.81-.03-.88.03-1.6.72-1.66,1.6-.08,1.76-.11,7.99-.11,18.73s.03,16.94.11,18.7c.05.88.77,1.58,1.66,1.6,11.41.21,26.34.21,44.81-.03.45-.03.83.13,1.1.4.29.29.43.67.43,1.12-.24,18.46-.24,33.4-.03,44.81,0,.88.69,1.6,1.6,1.66,1.74.08,7.99.11,18.7.11s16.97-.03,18.7-.11c.91-.05,1.6-.77,1.63-1.66.21-11.41.19-26.34-.05-44.81,0-.45.13-.83.43-1.12.27-.27.64-.43,1.1-.4,18.49.24,33.4.24,44.81.03.88-.03,1.6-.72,1.66-1.6.08-1.76.13-7.99.13-18.73s-.05-16.94-.13-18.7c-.05-.88-.77-1.6-1.66-1.6-11.41-.21-26.32-.21-44.81.03-.45.03-.83-.13-1.1-.4-.29-.29-.43-.67-.43-1.12.24-18.46.27-33.4.05-44.81-.03-.88-.72-1.6-1.63-1.66-1.74-.08-7.99-.11-18.7-.11s-16.97.03-18.7.11c-.91.05-1.6.77-1.63,1.66-.21,11.41-.19,26.34.05,44.81,0,.45-.13.83-.43,1.12ZM3530.46,3629.48c0-.51-.43-.94-.94-.94h-83.95c-.51,0-.94.43-.94.94v38.85c0,.51.43.94.94.94h83.95c.51,0,.94-.43.94-.94v-38.85ZM4254.03,3629.42c0-.48-.37-.85-.86-.85h-84.06c-.48,0-.85.37-.85.85v39.01c0,.48.37.86.85.86h84.06c.48,0,.86-.37.86-.86v-39.01Z"/>
  <path class="st2" d="M2600.54,3621.3c0,92.31-74.84,167.15-167.15,167.15s-167.15-74.84-167.15-167.15,74.84-167.15,167.15-167.15,167.15,74.84,167.15,167.15ZM2391.94,3651.09c10.98,16.65,23.27,34.31,38.56,47.13,26,21.75,58.59,19.66,79.6-7.83,6.01-7.88,5.02-14.19-2.38-20.95-7.61-6.97-14.21-13.17-19.85-18.65-3.5-3.42-7.61-4.46-12.34-3.13-.67.19-1.31.48-1.87.91-6.95,5.13-13.49,9.19-20.87,3.93-.61-.45-1.15-.96-1.63-1.52-.45-.53-6.47-9.54-18.01-27.04-11.54-17.53-17.47-26.59-17.77-27.2-.35-.67-.59-1.39-.75-2.11-1.95-8.84,4.36-13.28,11.81-17.63.61-.35,1.15-.83,1.58-1.36,3.1-3.82,3.77-8.02,2-12.58-2.83-7.32-5.93-15.84-9.32-25.6-3.31-9.46-8.71-12.85-18.33-10.42-33.53,8.47-48.31,37.59-38.53,70.08,5.74,19.1,17.13,37.35,28.11,53.97Z"/>
  <path class="st2" d="M2951.97,3502.03c25.46-.08,52.45,10.9,66,32.28,12.18,19.24,6.63,48.49-10.13,63.96-4.25,3.93-7.61,6.71-10.15,8.34-.56.35-.53,1.2.05,1.52,28.13,14.83,40.1,37.59,35.96,68.32-1.36,10.18-6.68,19.75-15.9,28.72-17.13,16.65-41.07,24.71-65.22,24.77-24.13.08-48.12-7.86-65.33-24.42-9.27-8.92-14.64-18.46-16.06-28.62-4.33-30.7,7.53-53.54,35.59-68.53.59-.32.61-1.15.03-1.52-2.54-1.6-5.93-4.38-10.18-8.26-16.86-15.39-22.58-44.62-10.47-63.91,13.41-21.48,40.32-32.57,65.81-32.65ZM2977.16,3564.71c0-13.65-11.09-24.74-24.74-24.74s-24.74,11.09-24.74,24.74,11.09,24.74,24.74,24.74,24.74-11.09,24.74-24.74ZM2980.45,3658.95c0-15.47-12.56-28.03-28.03-28.03s-28.03,12.56-28.03,28.03,12.56,28.03,28.03,28.03,28.03-12.56,28.03-28.03Z"/>
  <path class="st2" d="M3662.9,3680.91c-.48.37-.21,1.12.37,1.12h77.83c.83,0,1.5.64,1.5,1.47v41.65c0,.48-.4.86-.85.86l-168.89.03c-.91,0-1.68-.75-1.68-1.68v-9.41c0-.94.43-1.82,1.15-2.4,16.41-13.33,37.3-32.78,62.71-58.35,16.49-16.57,29.71-32.86,39.65-48.92,9.35-15.07,12.32-25.46,6.95-41.71-6.25-18.86-29.42-25.17-44.25-12.45-10.69,9.16-18.14,20.55-22.39,34.12-.29.94-1.36,1.42-2.24.96l-39.33-20.01c-.64-.32-.94-1.1-.64-1.76,20.6-49.4,59.72-72.03,113.05-58.43,27.01,6.87,43.9,24.18,50.61,51.97,7.94,32.92-6.52,60.41-29.39,84.67-12.56,13.33-27.28,26.08-44.14,38.29Z"/>
  <path class="st2" d="M4045.27,3502.51c25.65,0,48.68,10.55,64.87,30.41,18.86,23.14,24.45,53.7,24.42,83.52,0,29.82-5.58,60.36-24.47,83.5-16.19,19.85-39.25,30.38-64.9,30.38s-48.65-10.55-64.85-30.43c-18.89-23.14-24.45-53.68-24.42-83.5,0-29.82,5.58-60.38,24.47-83.5,16.19-19.85,39.25-30.41,64.87-30.38ZM4006.48,3616.25c-.03,29.9,6.73,70.03,38.69,70.06,31.93.05,38.8-40.05,38.82-69.95.05-29.9-6.71-70-38.66-70.06-31.93-.03-38.8,40.08-38.85,69.95Z"/>
  <path class="st2" d="M4565.54,3729.94c-24.15.05-48.15-7.88-65.33-24.45-9.3-8.92-14.64-18.46-16.06-28.62-4.33-30.73,7.53-53.54,35.59-68.51.59-.35.61-1.18.05-1.55-2.54-1.6-5.96-4.38-10.21-8.26-16.83-15.39-22.55-44.62-10.45-63.91,13.44-21.48,40.32-32.57,65.81-32.62,25.49-.08,52.45,10.9,66,32.28,12.18,19.24,6.6,48.49-10.15,63.96-4.22,3.93-7.62,6.71-10.15,8.34-.56.35-.53,1.2.05,1.52,28.13,14.83,40.1,37.59,35.96,68.32-1.39,10.18-6.68,19.75-15.92,28.72-17.13,16.65-41.07,24.71-65.19,24.77ZM4590.15,3564.71c0-13.65-11.09-24.74-24.74-24.74s-24.74,11.09-24.74,24.74,11.09,24.74,24.74,24.74,24.74-11.09,24.74-24.74ZM4593.46,3658.97c0-15.5-12.56-28.05-28.05-28.05s-28.05,12.56-28.05,28.05,12.56,28.05,28.05,28.05,28.05-12.56,28.05-28.05Z"/>
  <path class="st2" d="M4773.49,3680.91c-.48.35-.24,1.12.37,1.12h77.8c.83,0,1.5.67,1.5,1.47v41.65c0,.48-.37.86-.86.86h-168.86c-.94,0-1.68-.75-1.68-1.68v-9.41c0-.94.43-1.82,1.15-2.4,16.38-13.33,37.3-32.76,62.71-58.33,16.49-16.57,29.68-32.86,39.65-48.92,9.35-15.07,12.32-25.46,6.95-41.71-6.25-18.86-29.42-25.17-44.25-12.45-10.66,9.16-18.14,20.52-22.39,34.12-.29.94-1.36,1.39-2.24.96l-39.33-20.01c-.64-.32-.94-1.1-.64-1.76,20.6-49.4,59.72-72.03,113.05-58.43,27.01,6.87,43.9,24.21,50.61,51.97,7.94,32.92-6.52,60.41-29.39,84.67-12.58,13.33-27.28,26.08-44.14,38.29Z"/>
  <path class="st2" d="M4970.17,3652.51c.32-.37-.03-.96-.53-.86-8.42,1.98-14.83,2.59-19.26,1.87-23.51-3.79-41.12-15.02-52.8-33.67-16.57-26.53-15.92-65.14,4.01-89.91,5.61-7,13.28-12.91,23-17.74,41.9-20.76,102.39-9.7,124.51,36.23,3.55,7.37,5.56,16.27,6.01,26.67.99,22.98-4.65,44.17-16.91,63.51-8.02,12.66-14.54,21.99-19.56,28.03-19.18,23.06-35.59,42.56-49.22,58.54-.45.53-1.1.8-1.76.8l-59.08-.03c-.67,0-1.02-.75-.59-1.26l62.17-72.19ZM5003.43,3577.08c0-18.65-15.12-33.77-33.77-33.77s-33.77,15.12-33.77,33.77,15.12,33.77,33.77,33.77,33.77-15.12,33.77-33.77Z"/>
  <path class="st2" d="M3202.99,3506.25c.96,0,1.74.77,1.74,1.74v40.48c0,.99-.77,1.76-1.76,1.76h-65.89c-.96,0-1.76.69-1.9,1.63l-4.25,27.31c-.16.94.61,1.76,1.58,1.71,24.47-1.5,52.66,4.97,69.36,23.35,13.12,14.43,17.31,35.91,16.89,55.6-.35,15.5-5.05,28.96-14.13,40.43-20.28,25.49-51.25,32.62-83.34,28.67-28.86-3.55-49.48-18.6-61.85-45.13-.29-.67-.03-1.44.61-1.76l36.82-18.44c.88-.45,1.95-.03,2.3.91,4.97,13.49,14.94,21.21,29.92,23.17,20.71,2.73,38.13-7.78,39.49-29.26.75-11.6-3.42-21.11-12.45-28.56-20.07-16.51-57.71-14.64-80.69-5.85-.59.21-1.18-.27-1.07-.88l17.93-115.24c.13-.94.94-1.63,1.9-1.63h108.8Z"/>
  <path class="st2" d="M3256.51,3549.32v-42.14c0-.51.4-.91.91-.91h166.8c.51,0,.91.4.91.91v13.36c0,.16-.05.32-.11.45l-115.77,204.56c-.16.27-.48.45-.8.45h-57.18c-.69,0-1.15-.75-.8-1.36l99.93-173.06c.35-.61-.11-1.36-.8-1.36h-92.18c-.51,0-.91-.4-.91-.91Z"/>
  <path class="st2" d="M3917.96,3507.98v40.48c0,.96-.8,1.76-1.76,1.76h-65.91c-.94,0-1.74.69-1.9,1.63l-4.25,27.31c-.16.94.61,1.76,1.58,1.71,24.47-1.5,52.66,4.97,69.39,23.35,13.12,14.43,17.29,35.91,16.86,55.6-.35,15.5-5.05,28.96-14.13,40.43-20.28,25.49-51.25,32.62-83.34,28.67-28.86-3.55-49.48-18.6-61.85-45.13-.29-.67-.03-1.44.61-1.76l36.82-18.44c.88-.45,1.95-.03,2.3.91,4.97,13.49,14.94,21.21,29.93,23.17,20.71,2.73,38.13-7.78,39.49-29.26.75-11.6-3.39-21.11-12.45-28.56-20.07-16.51-57.71-14.64-80.69-5.85-.56.21-1.18-.27-1.07-.88l17.93-115.24c.16-.94.96-1.63,1.9-1.63h108.83c.96,0,1.74.77,1.74,1.74Z"/>
  <path class="st2" d="M4372.04,3580.55c8.42-1.95,14.83-2.59,19.24-1.87,23.51,3.77,41.09,14.99,52.77,33.61,16.57,26.51,15.95,65.09-3.95,89.86-5.61,6.97-13.28,12.88-22.98,17.71-41.84,20.76-102.31,9.75-124.43-36.12-3.55-7.37-5.56-16.27-6.01-26.67-.99-22.95,4.62-44.11,16.86-63.46,8.02-12.64,14.53-21.99,19.53-28,19.16-23.06,35.56-42.56,49.16-58.54.45-.51,1.1-.8,1.76-.8h59.02c.67,0,1.02.77.59,1.26l-62.09,72.17c-.32.4.03.96.53.85ZM4405.81,3655.1c0-18.65-15.12-33.77-33.77-33.77s-33.77,15.12-33.77,33.77,15.12,33.77,33.77,33.77,33.77-15.12,33.77-33.77Z"/>
  <path class="st2" d="M467.85,3619.03c0,34.73,26.96,57.77,59.88,60.79,17.29,1.58,33.43-2.24,48.36-11.46.69-.43,1.63-.19,2,.56l18.86,37.67c.37.72.13,1.6-.56,2.06-26.42,17.34-65.86,22.79-94.66,14.75-47.88-13.33-85.39-53.14-85.39-104.34-.03-51.22,37.43-91.06,85.31-104.44,28.8-8.04,68.24-2.62,94.66,14.7.69.43.94,1.34.56,2.06l-18.81,37.67c-.37.75-1.31,1.02-2,.56-14.96-9.19-31.07-13.01-48.39-11.41-32.92,3.05-59.85,26.1-59.82,60.84Z"/>
  <path class="st2" d="M1534.06,3510.98c58.08,2.93,102.7,53.78,99.68,113.53-3.02,59.76-52.55,105.82-110.64,102.88-58.08-2.93-102.7-53.78-99.68-113.53,3.02-59.76,52.55-105.82,110.65-102.88ZM1475.04,3618.47c-.27,33,16.89,62.2,53.01,62.5,36.12.32,53.81-28.56,54.08-61.56.29-33-16.86-62.17-52.98-62.5s-53.81,28.56-54.11,61.56Z"/>
  <path class="st2" d="M708.9,3514.88c7.75,0,14.62.11,20.57.32.91.03,1.71.59,2.06,1.42l82.85,205.23c.24.53-.19,1.15-.77,1.15h-48.2c-.91,0-1.74-.56-2.06-1.42l-14.27-38.56c-.37-.99-1.31-1.63-2.32-1.63h-75.75c-1.04,0-1.98.64-2.32,1.63l-14.27,38.56c-.32.85-1.15,1.42-2.06,1.42h-48.2c-.61,0-1.02-.61-.77-1.15l82.85-205.23c.35-.83,1.15-1.39,2.06-1.42,5.96-.21,12.83-.32,20.6-.32ZM685.84,3638.67c-.21.51.19,1.07.75,1.07h44.57c.56,0,.96-.56.75-1.07l-22.28-58.17c-.27-.67-1.23-.67-1.5,0l-22.28,58.17Z"/>
  <path class="st2" d="M880.86,3681.36h69.63c.56,0,1.02.45,1.02,1.02v39.6c0,.56-.45,1.02-1.02,1.02h-117.05c-.56,0-1.02-.45-1.02-1.02v-206.08c0-.56.45-1.02,1.02-1.02h45.4c.56,0,1.02.45,1.02,1.02v164.45c0,.56.45,1.02,1.02,1.02Z"/>
  <path class="st2" d="M1031.08,3514.85c.56,0,1.02.48,1.02,1.04v164.27c0,.67.53,1.2,1.18,1.2h68.99c.83,0,1.5.67,1.5,1.52v38.55c0,.86-.69,1.55-1.58,1.55l-116.68.03c-.45,0-.83-.4-.83-.86v-205.71c0-.85.72-1.55,1.58-1.55l44.83-.05Z"/>
  <path class="st2" d="M1286.24,3630.01c-4.06-6.39-11.6-18.17-22.6-35.38-.29-.48-1.04-.27-1.04.29l-.03,126.57c0,.83-.67,1.52-1.5,1.52h-44.38c-.86,0-1.55-.69-1.55-1.55v-205.09c0-.85.69-1.52,1.52-1.52h44.06c.99,0,1.92.48,2.46,1.28,5.08,7.43,24.74,37.99,58.94,91.73,4.06,6.39,11.6,18.17,22.6,35.38.32.48,1.04.27,1.04-.29l.03-126.57c0-.83.67-1.52,1.5-1.52h44.38c.86,0,1.55.69,1.55,1.55v205.09c0,.83-.69,1.52-1.52,1.52h-44.06c-.99,0-1.9-.48-2.46-1.31-5.08-7.4-24.71-37.99-58.94-91.7Z"/>
  <path class="st2" d="M1790.45,3514.88c6.04,0,11.54.08,16.59.27.86.03,1.6.64,1.82,1.47l37.19,140.3c.21.85,1.42.85,1.63,0l35-140.65c.21-.83.94-1.42,1.79-1.42h49.8c.69,0,1.18.64.99,1.31l-58.43,205.28c-.27.91-1.1,1.55-2.06,1.55h-49.35c-.96,0-1.82-.64-2.08-1.58l-32.33-113.31c-.03-.13-.16-.24-.32-.32-.08-.03-.13-.03-.21-.03s-.13,0-.21.03c-.16.08-.29.19-.32.32l-32.3,113.31c-.27.94-1.12,1.58-2.08,1.58l-49.35.03c-.94,0-1.79-.64-2.06-1.55l-58.49-205.25c-.19-.67.29-1.31.99-1.31l49.8-.03c.83,0,1.58.59,1.79,1.42l35.03,140.65c.21.83,1.42.83,1.63,0l37.17-140.33c.21-.83.96-1.42,1.82-1.44,5.02-.21,10.55-.29,16.57-.29Z"/>
  <path class="st3" d="M2433.14,3623.94c11.54,17.5,17.55,26.51,18.01,27.04.48.56,1.02,1.07,1.63,1.52,7.37,5.26,13.92,1.2,20.87-3.93.56-.43,1.2-.72,1.87-.91,4.73-1.34,8.84-.29,12.34,3.13,5.64,5.48,12.24,11.68,19.85,18.65,7.4,6.76,8.39,13.07,2.38,20.95-21,27.49-53.6,29.58-79.6,7.83-15.28-12.83-27.57-30.49-38.56-47.13-10.98-16.62-22.36-34.87-28.11-53.97-9.78-32.49,5-61.61,38.53-70.08,9.62-2.43,15.02.96,18.33,10.42,3.39,9.75,6.49,18.28,9.32,25.6,1.76,4.57,1.1,8.76-2,12.58-.43.53-.96,1.02-1.58,1.36-7.45,4.36-13.76,8.79-11.81,17.63.16.72.4,1.44.75,2.11.29.61,6.23,9.67,17.77,27.2Z"/>
  <circle class="st3" cx="2952.42" cy="3564.71" r="24.74"/>
  <circle class="st3" cx="4565.41" cy="3564.71" r="24.74"/>
  <circle class="st3" cx="4969.66" cy="3577.08" r="33.77"/>
  <path class="st3" d="M4045.33,3546.3c31.96.05,38.72,40.16,38.66,70.06-.03,29.9-6.89,70-38.82,69.95-31.96-.03-38.72-40.16-38.69-70.06.05-29.87,6.92-69.98,38.85-69.95Z"/>
  <path class="st2" d="M2766.49,3547.23c10.71,0,16.97.03,18.7.11.91.05,1.6.77,1.63,1.66.21,11.41.19,26.34-.05,44.81,0,.45.13.83.43,1.12.27.27.64.43,1.1.4,18.49-.24,33.4-.24,44.81-.03.88,0,1.6.72,1.66,1.6.08,1.76.13,7.99.13,18.7s-.05,16.97-.13,18.73c-.05.88-.77,1.58-1.66,1.6-11.41.21-26.32.21-44.81-.03-.45-.03-.83.13-1.1.4-.29.29-.43.67-.43,1.12.24,18.46.27,33.4.05,44.81-.03.88-.72,1.6-1.63,1.66-1.74.08-7.99.11-18.7.11s-16.97-.03-18.7-.11c-.91-.05-1.6-.77-1.6-1.66-.21-11.41-.21-26.34.03-44.81,0-.45-.13-.83-.43-1.12-.27-.27-.64-.43-1.1-.4-18.46.24-33.4.24-44.81.03-.88-.03-1.6-.72-1.66-1.6-.08-1.76-.11-7.99-.11-18.7s.03-16.97.11-18.73c.05-.88.77-1.58,1.66-1.6,11.41-.21,26.34-.21,44.81.03.45.03.83-.13,1.1-.4.29-.29.43-.67.43-1.12-.24-18.46-.27-33.4-.05-44.81.03-.88.72-1.6,1.63-1.66,1.74-.08,7.99-.11,18.7-.11Z"/>
  <path class="st3" d="M1529.14,3556.91c36.12.32,53.28,29.5,52.98,62.5-.27,33-17.96,61.88-54.08,61.56-36.12-.29-53.28-29.5-53.01-62.5.29-33,17.98-61.88,54.11-61.56Z"/>
  <path class="st3" d="M685.84,3638.67l22.28-58.17c.27-.67,1.23-.67,1.5,0l22.28,58.17c.21.51-.19,1.07-.75,1.07h-44.57c-.56,0-.96-.56-.75-1.07Z"/>
  <circle class="st3" cx="4372.04" cy="3655.1" r="33.77"/>
  <rect class="st2" x="3444.63" y="3628.54" width="85.82" height="40.72" rx=".94" ry=".94"/>
  <rect class="st2" x="4168.26" y="3628.57" width="85.77" height="40.72" rx=".85" ry=".85"/>
  <circle class="st3" cx="2952.42" cy="3658.95" r="28.03"/>
  <circle class="st3" cx="4565.41" cy="3658.97" r="28.05"/>
</svg>