<?xml version="1.0" encoding="UTF-8"?>
<svg id="Layer_1" xmlns="http://www.w3.org/2000/svg" version="1.1" viewBox="0 0 1280 720">
  <!-- Generator: Adobe Illustrator 29.5.1, SVG Export Plug-In . SVG Version: 2.1.0 Build 141)  -->
  <defs>
    <style>
      .st0 {
        fill: #fff;
      }

      .st1 {
        fill: red;
      }
    </style>
  </defs>
  <rect x="944.49" y="31.22" width="26.46" height="22.6" rx="10.4" ry="10.4"/>
  <path d="M536.55,32.25c28.28-.02,43.11-.04,44.5-.05.21,0,.38.17.38.38v20.27c0,.2-.16.37-.36.37h-31.44c-.22,0-.4.18-.4.4v99.22c0,.23-.18.41-.41.41-4.73,0-8.79,0-12.17.02h-12.18c-.23,0-.41-.18-.41-.41l-.16-99.22c0-.22-.18-.4-.4-.4l-31.44.05c-.2,0-.36-.16-.36-.37l-.03-20.27c0-.21.17-.38.37-.38,1.4,0,16.23,0,44.51-.02Z"/>
  <path d="M866.12,79.53c15.28,0,24.28-.02,26.99-.05.24-.01.42-.19.42-.42v-46.33c0-.24.19-.43.43-.43h24.48c.19,0,.34.15.34.34v120.16c0,.24-.2.43-.44.43h-24.31c-.28,0-.5-.23-.5-.51v-50.41c0-.2-.16-.37-.36-.37-.47-.03-9.49-.04-27.05-.04s-26.57.01-27.04.04c-.2,0-.36.17-.36.37v50.41c0,.28-.22.51-.5.51h-24.31c-.24,0-.44-.19-.44-.43V32.64c0-.19.15-.34.34-.34h24.48c.23,0,.43.19.43.43v46.33c0,.23.18.41.41.42,2.72.03,11.71.05,26.99.05Z"/>
  <path d="M1053.31,65.51h24.74c.29,0,.45.34.26.56l-34.12,39.67c-.1.12-.11.3,0,.43l36.54,46.55c.17.22.01.55-.27.55h-26.25c-.11,0-.21-.05-.27-.13l-34.81-45.35c-.2-.25-.61-.11-.61.21v44.91c0,.19-.15.34-.34.34h-23.07c-.19,0-.34-.15-.34-.34V32.57c0-.19.15-.34.34-.34h23.07c.19,0,.34.15.34.34v72.3c0,.32.39.46.6.22l33.94-39.46c.06-.08.16-.12.26-.12Z"/>
  <path d="M141.4,132.43c-.23.2-.09.57.21.57h50.57c.31,0,.57.26.57.57v19.37c0,.18-.14.32-.32.32h-84.32c-.34,0-.61-.27-.61-.61v-15.42c0-.34.15-.66.4-.88,26.23-23.76,41.17-37.38,44.82-40.86,8.71-8.3,14.96-18.82,11.46-31.24-2.13-7.52-8.28-9.58-15.42-9.19-11.21.6-15.16,8.98-15.53,19.49-.02.39-.34.69-.73.69h-21.7c-.16,0-.28-.12-.29-.27-.44-21.91,10.99-37.87,33.42-40.55,20.98-2.5,42.08,6.11,45.26,29.27,2.41,17.59-5.68,30.67-17.91,42.09-9.12,8.51-19.08,17.39-29.88,26.65Z"/>
  <path d="M331.57,34.1c21.78.02,27.31,18.25,27.29,36.48-.02,18.22-5.58,36.44-27.36,36.42s-27.31-18.25-27.29-36.47c.02-18.23,5.58-36.45,27.36-36.43ZM320.38,70.57c0,7.39.53,22.7,11.14,22.7s11.13-15.32,11.13-22.7-.53-22.7-11.14-22.7-11.13,15.32-11.13,22.7Z"/>
  <path d="M244.27,63.97c0-.24-.29-.35-.45-.18-8.08,8.74-18.97,12.99-30.56,14.51-.2.03-.38-.13-.38-.34v-21.22c0-.31.22-.58.52-.64,13.58-2.75,24.49-9.42,32.72-20.01.29-.37.74-.59,1.21-.59h21.59c.25,0,.46.2.46.45v116.9c0,.23-.18.41-.41.41h-24.3c-.22,0-.4-.18-.4-.4V63.97Z"/>
  <path d="M401.83,35.48h16.13c.29,0,.47.32.32.56l-71.15,117.01c-.07.11-.19.18-.32.18h-16.13c-.29,0-.47-.32-.32-.56l71.15-117.01c.07-.11.19-.18.32-.18Z"/>
  <path class="st0" d="M331.51,47.87c10.61,0,11.14,15.32,11.14,22.7s-.53,22.7-11.13,22.7-11.14-15.31-11.14-22.7.53-22.7,11.13-22.7Z"/>
  <path d="M635.95,142.81c0-.46-.56-.68-.87-.35-12.04,12.85-30.96,16.01-46.12,8.02-2.45-1.29-4.98-3.7-7.59-7.22-5.53-7.47-5.39-21.1-.29-28.73,4.38-6.57,13.36-10.3,21.03-11.82,9.71-1.93,20.34-2.93,31.87-3.01.71,0,1.29-.57,1.3-1.28.12-7.04,0-14.69-7.92-17.23-5.18-1.67-10.41-1.42-15.69.73-4.39,1.79-6.77,5.59-7.16,11.39-.04.53-.48.94-1.01.94h-20.71c-.3,0-.55-.25-.55-.55-.02-18.67,11.7-26.63,28.96-28.74,11.98-1.46,29.16-.96,38.33,6.91,5.82,4.99,8.77,11.89,8.86,20.72.15,16.03.18,36.15.08,60.34,0,.18-.15.33-.33.33h-21.39c-.44,0-.8-.36-.8-.81v-9.64ZM635,113.14c0-.25-.22-.45-.47-.43-2.12.18-5.06.33-8.83.44-3.39.1-7.64.69-12.76,1.78-6.6,1.4-11.81,5.55-11.8,12.83.01,5.71,2.99,9.12,8.93,10.25,9.6,1.83,18.47-3.32,24.48-10.49.29-.35.45-.78.45-1.23v-13.15Z"/>
  <path d="M1108.22,114.73c.62,13.26,7.25,23.12,21.48,22.91,7.72-.12,16.59-3.65,16.43-12.64-.01-.42.33-.76.75-.76h22.25c.35,0,.62.29.6.63-1.65,25.43-26.19,31.7-47.29,29.69-18.62-1.77-31.92-11.88-36.4-30.1-2.3-9.37-2.42-18.89-.35-28.54,5.37-25.13,26.58-34.16,50.15-30.97,25.36,3.44,35.65,24.7,33.92,48.25-.03.48-.44.86-.92.86h-59.98c-.37,0-.66.3-.64.67ZM1108.83,99.03l37.4-.06c.14,0,.27-.12.27-.27v-.16c-.02-9.78-7.97-17.7-17.77-17.68h-2.48c-9.79.02-17.71,7.96-17.69,17.74v.16c0,.15.12.27.27.27Z"/>
  <path d="M716.65,93.5h.08c.08-.02.14-.05.16-.08l16.68-27.51c.14-.22.38-.36.64-.36h24.3c.31,0,.49.35.32.61l-27.47,41c-.18.28-.18.64,0,.91l30.04,44.68c.16.23-.01.55-.29.55h-24.14c-.35,0-.68-.18-.87-.48-6.93-11.02-13.31-21.14-19.15-30.37-.1-.15-.21-.22-.35-.22s-.25.07-.35.22c-5.87,9.21-12.29,19.31-19.25,30.3-.2.3-.53.48-.87.48l-24.14-.08c-.29,0-.45-.32-.29-.55l30.19-44.58c.18-.27.18-.63,0-.91l-27.33-41.09c-.17-.26.01-.61.32-.61l24.3.08c.26,0,.5.14.64.36l16.59,27.57s.08.06.15.07c.02.01.05.01.09.01Z"/>
  <rect x="945.76" y="65.5" width="23.74" height="87.76" rx=".46" ry=".46"/>
  <path class="st0" d="M1108.83,99.03c-.15,0-.27-.12-.27-.27v-.16c-.02-9.78,7.9-17.72,17.69-17.74h2.48c9.8-.02,17.75,7.9,17.77,17.68v.16c0,.15-.13.27-.27.27l-37.4.06Z"/>
  <path d="M390.01,118.13c-.01-18.21,5.52-36.41,27.28-36.42,21.75,0,27.29,18.19,27.3,36.4.01,18.2-5.52,36.4-27.27,36.41-21.76,0-27.3-18.19-27.31-36.39ZM406.18,118.13c0,7.37.53,22.64,11.11,22.65,10.58,0,11.12-15.28,11.12-22.65s-.53-22.64-11.11-22.65c-10.59,0-11.12,15.28-11.12,22.65Z"/>
  <path class="st0" d="M406.18,118.13c0-7.37.53-22.65,11.12-22.65,10.58,0,11.11,15.28,11.11,22.65s-.54,22.65-11.12,22.65c-10.58,0-11.11-15.28-11.11-22.65Z"/>
  <path class="st0" d="M635,113.14v13.15c0,.45-.16.88-.45,1.23-6.01,7.17-14.88,12.32-24.48,10.49-5.94-1.13-8.92-4.54-8.93-10.25-.01-7.28,5.2-11.43,11.8-12.83,5.12-1.09,9.37-1.68,12.76-1.78,3.77-.11,6.71-.26,8.83-.44.25-.02.47.18.47.43Z"/>
  <path d="M183.66,308.49c-.13-.17-.4-.09-.42.12l-.88,11.27c-.02.21-.19.37-.4.37h-21.81c-.22,0-.39-.17-.39-.39v-120.31c0-.17.13-.3.3-.3h23.12c.18,0,.32.14.32.32v45.08c0,.2.26.3.39.14,7.36-8.62,15.19-13.55,26.82-13.58,22.44-.07,34,16.5,35.5,37.05.83,11.46.42,23.37-4.58,33.8-7.47,15.58-23.68,22.74-40.67,18.9-7.19-1.63-12.65-6.43-17.3-12.47ZM183.5,276.22c-.11,7.91-.16,11.89-.16,11.96.05.44.17.86.36,1.26,4.5,9.29,13.31,16.08,24.09,13.9,11.92-2.42,14.34-16.59,14.48-26.58.14-9.99-1.88-24.22-13.72-26.97-10.72-2.49-19.72,4.05-24.48,13.21-.2.39-.33.82-.39,1.25,0,.07-.07,4.05-.18,11.97Z"/>
  <rect x="395.5" y="199.25" width="25.24" height="120.98" rx=".4" ry=".4"/>
  <path d="M781.12,245.18c0,.23.28.34.43.16,8.94-10.71,20.43-15.22,34.22-13.61,10.97,1.27,18.17,6.92,21.62,16.93,2.25,6.54,2.1,13.24,2.11,22.88.01,21.31,0,37.33-.01,48.07,0,.35-.29.63-.64.63h-22.73c-.2,0-.36-.16-.36-.36-.01-15.95-.01-33.41,0-52.38,0-8.87-2.26-16.65-12.75-17.02-8.81-.31-15.62,4.42-21.04,10.95-.3.37-.47.83-.47,1.31v57.1c0,.23-.18.41-.41.41h-23.02c-.18,0-.32-.14-.32-.32v-120.29c0-.22.17-.39.39-.39h22.59c.22,0,.39.17.39.39v45.54Z"/>
  <path d="M948.87,281.25c0,22.23-18.02,40.25-40.25,40.25h-7.82c-22.23,0-40.25-18.02-40.25-40.25v-9.6c0-22.23,18.02-40.25,40.25-40.25h7.82c22.23,0,40.25,18.02,40.25,40.25v9.6ZM884.66,276.55c.01,13.3,3.99,27.02,20.12,27,16.13,0,20.08-13.73,20.07-27.03,0-13.3-3.99-27.01-20.12-27-16.13,0-20.08,13.73-20.07,27.03Z"/>
  <path d="M505.26,286.5h21.79c.35,0,.63.29.62.64-.36,9.73-3.62,17.61-9.79,23.62-11.3,11.03-31.29,13.04-46.08,8.62-14.67-4.38-23.66-13.92-26.97-28.63-2.11-9.36-2.08-18.89.09-28.59,3.9-17.44,16.23-27.56,33.24-30.19,22.13-3.43,48.92,5.51,48.62,32.17-.01.2-.17.36-.36.36h-22.05c-.36,0-.65-.28-.66-.64-.52-12.86-13.48-16.27-23.78-12.94-14.06,4.56-13.52,28.34-10.46,39.08,2.41,8.45,7.97,12.79,16.69,13.02,11.35.3,17.5-5,18.44-15.91.03-.34.32-.61.66-.61Z"/>
  <path d="M568.86,281.06c-.36,0-.66.3-.64.67.62,13.26,7.25,23.12,21.48,22.91,7.72-.12,16.59-3.65,16.43-12.64-.01-.42.33-.76.75-.76h22.25c.35,0,.62.29.6.63-1.65,25.43-26.19,31.7-47.29,29.69-18.62-1.77-31.92-11.88-36.4-30.1-2.3-9.37-2.42-18.89-.35-28.54,5.37-25.13,26.58-34.16,50.15-30.97,25.36,3.44,35.65,24.7,33.92,48.25-.03.48-.44.86-.92.86h-59.98ZM568.88,266h37.26c.15,0,.28-.13.28-.28v-.51c0-9.58-7.99-17.35-17.84-17.35h-2.14c-9.85,0-17.84,7.77-17.84,17.35v.51c0,.15.13.28.28.28Z"/>
  <path d="M677.08,244.66c0,.39.48.59.77.32,1.73-1.64,3.07-2.91,4.03-3.8,7.81-7.24,17.33-10.44,28.58-9.59,19.26,1.46,25.31,15.75,25.36,32.89.03,10.83.03,29.26,0,55.28,0,.22-.18.41-.4.41l-22.92-.03c-.23,0-.42-.19-.42-.42.06-23,.06-41.29.01-54.87-.03-6.87-3.29-13.26-10.88-14.03-9.69-.98-17.49,3.37-23.16,10.75-.18.24-.28.52-.28.82l-.07,57.2c0,.3-.24.55-.55.55l-22.67-.03c-.3,0-.55-.25-.55-.56l.1-86.62c0-.21.16-.37.37-.37l22.21.02c.27,0,.49.22.49.49l-.02,11.59Z"/>
  <path d="M1100.76,246.76c4.56-10.78,16.12-16.04,27.49-15.15.21,0,.37.18.37.39v18.99c0,.28-.23.51-.51.5-10.23-.19-20.56,1.63-27.16,10.02-.29.37-.44.82-.44,1.29v56.92c0,.3-.24.54-.54.54h-22.74c-.26,0-.47-.21-.47-.47v-86.98c0-.18.15-.33.33-.33h22.1c.35,0,.63.28.63.62v13.47c0,.53.73.68.94.19Z"/>
  <path d="M299.9,296.72c.16.07.35-.01.4-.18l19.38-63.69c.07-.21.26-.36.48-.36h23.14c.31,0,.53.31.42.6-5.45,15.11-15.99,44.37-31.6,87.78-5.6,15.55-10.44,29.38-29.34,31.1-5.21.47-11.52.63-18.93.46-.35,0-.63-.3-.63-.65v-18.29c0-.22.19-.41.41-.4,7.02.1,15.14.97,19.66-4.83.95-1.22,2.15-3.67,3.58-7.35.15-.39.15-.83,0-1.22l-33.64-86.47c-.14-.36.13-.74.51-.74h23.58c.27,0,.51.17.6.43,10.5,30.75,21.46,63.59,21.98,63.81Z"/>
  <path d="M1027.27,307.91c-1.73,1.65-3.08,2.92-4.05,3.82-7.83,7.29-17.4,10.51-28.71,9.67-19.35-1.44-25.45-15.8-25.52-33.02-.04-10.89-.06-29.4-.06-55.55,0-.23.18-.41.4-.41h23.03c.23,0,.42.19.42.42-.03,23.11-.01,41.49.06,55.14.04,6.9,3.32,13.32,10.95,14.08,9.74.98,17.57-3.4,23.26-10.83.18-.23.28-.52.28-.82v-57.48c0-.3.25-.55.55-.55h22.78c.31,0,.56.25.56.56v87.05c0,.2-.17.37-.37.37h-22.32c-.27,0-.49-.22-.49-.49v-11.64c0-.4-.48-.6-.77-.32Z"/>
  <path class="st0" d="M568.88,266c-.15,0-.28-.13-.28-.28v-.51c0-9.58,7.99-17.35,17.84-17.35h2.14c9.85,0,17.84,7.77,17.84,17.35v.51c0,.15-.13.28-.28.28h-37.26Z"/>
  <path class="st0" d="M222.27,276.76c-.14,9.99-2.56,24.16-14.48,26.58-10.78,2.18-19.59-4.61-24.09-13.9-.19-.4-.31-.82-.36-1.26,0-.07.05-4.05.16-11.96.11-7.92.17-11.9.18-11.97.06-.43.19-.86.39-1.25,4.76-9.16,13.76-15.7,24.48-13.21,11.84,2.75,13.86,16.98,13.72,26.97Z"/>
  <path class="st0" d="M904.73,249.52c16.13-.01,20.11,13.7,20.12,27,.01,13.3-3.94,27.02-20.07,27.03-16.13.02-20.11-13.7-20.12-27,0-13.3,3.94-27.02,20.07-27.03Z"/>
  <path d="M162.82,443.59c-14.6,0-22.1.01-22.49.03-.17.01-.31.14-.31.31v41.92c0,.24-.18.43-.41.43h-20.22c-.2,0-.36-.16-.36-.36v-99.93c-.01-.15.12-.28.28-.28h20.36c.19,0,.35.16.35.36v38.52c0,.19.16.35.35.35,2.26.03,9.74.04,22.45.04s20.18-.01,22.44-.04c.19,0,.35-.16.35-.35v-38.53c0-.19.16-.35.35-.35h20.36c.16,0,.28.12.28.28v99.93c0,.19-.16.35-.36.35h-20.22c-.23,0-.41-.19-.41-.42v-41.92c0-.17-.14-.31-.3-.31-.4-.02-7.89-.03-22.49-.03Z"/>
  <path d="M608.14,486.24h-66.77c-.2,0-.36-.16-.36-.36v-99.77c0-.2.16-.36.36-.36h66.77c.2,0,.36.16.36.36v16.77c0,.2-.16.36-.36.36h-45.78c-.2,0-.36.16-.36.36v22.54c0,.2.16.36.36.36h41.41c.2,0,.36.16.36.36v16.02c0,.2-.16.36-.36.36h-41.41c-.2,0-.36.16-.36.36v24.79c0,.2.16.36.36.36h45.78c.2,0,.36.16.36.36v16.77c0,.2-.16.36-.36.36Z"/>
  <path d="M377.14,413.26c.31,0,.56-.25.56-.56v-15.99c0-.28.24-.51.52-.5h18.78c.31.01.56.25.56.55v15.98c-.01.28.22.52.5.52h14.89c.27,0,.49.23.49.5v14.51c-.01.19-.17.35-.37.35h-15.12c-.24-.01-.43.19-.43.43.01,2.47.01,12.17,0,29.1,0,5.01-.05,12.05,6.41,12.57,2.69.22,5.68.25,8.96.09.28-.01.51.21.51.5v14.3c0,.28-.22.5-.49.52-6.6.29-12.31.1-17.11-.58-14.69-2.07-18.05-11.69-18.09-24.92-.03-8.84-.02-19.39.01-31.64,0-.21-.16-.38-.36-.38h-11.32c-.24,0-.43-.19-.43-.42v-14.39c.01-.31.26-.55.56-.55h10.97Z"/>
  <path d="M487.35,435.25c0,.14-.11.25-.25.25h-17.46c-.38,0-.68-.3-.69-.68-.03-9.67-12.21-10.57-18.83-8.19-2.78,1-3.56,2.4-3.87,5.15-.3,2.59,2.76,4.64,5,5.51,11.48,4.46,25.41,4.39,34.5,14.47,3.89,4.32,4.39,11.11,3.39,16.63-3.44,19.11-27.48,20.91-42.53,18.2-12.32-2.22-21.14-9.5-21.22-22.7,0-.22.17-.39.38-.39h17.45c.28,0,.5.23.5.51-.07,4.65,2.28,7.71,7.06,9.18,4.98,1.54,16.73,2.55,18.71-4.15,2.37-8.06-5.72-10.27-11.95-11.77-11.39-2.76-28.31-6.55-30.62-19.65-3.74-21.23,18.26-26.24,34.1-25.21,13.84.9,26.23,7.02,26.33,22.84Z"/>
  <path d="M720.68,452.94c-.3,0-.54.25-.53.55.47,11.02,5.94,19.24,17.77,19.12,6.41-.08,13.8-2.98,13.69-10.45,0-.35.28-.63.63-.63l18.49.08c.29,0,.51.24.5.53-1.47,21.12-21.88,26.25-39.4,24.5-15.47-1.54-26.49-9.98-30.15-25.14-1.87-7.8-1.94-15.7-.19-23.72,4.56-20.86,22.21-28.29,41.79-25.55,21.06,2.95,29.53,20.65,28.01,40.21-.03.4-.36.71-.77.71l-49.84-.21ZM720.9,440.61h30.62c.22,0,.4-.18.4-.4v-.29c0-8.04-6.63-14.55-14.8-14.55h-1.82c-8.17,0-14.8,6.51-14.8,14.55v.29c0,.22.18.4.4.4Z"/>
  <path d="M991.58,453.87c-.03,18.49-15.04,33.45-33.53,33.41h-6.58c-18.48-.05-33.44-15.06-33.41-33.54v-7.92c.05-18.49,15.06-33.45,33.54-33.41h6.58c18.48.05,33.44,15.06,33.41,33.54v7.92ZM938.16,449.9c0,11.05,3.29,22.46,16.7,22.46,13.41.01,16.72-11.4,16.72-22.45s-3.29-22.47-16.7-22.47-16.71,11.4-16.72,22.46Z"/>
  <path d="M1115.32,453.61c-.31,0-.55.25-.54.55.48,11.02,5.95,19.24,17.78,19.11,6.41-.07,13.8-2.98,13.69-10.45,0-.35.28-.63.63-.63l18.49.07c.29,0,.51.25.49.53-1.45,21.13-21.86,26.26-39.39,24.52-15.47-1.53-26.49-9.98-30.15-25.13-1.88-7.8-1.95-15.71-.2-23.72,4.55-20.87,22.2-28.3,41.78-25.57,21.06,2.94,29.54,20.64,28.03,40.2-.03.4-.37.71-.77.71l-49.84-.19ZM1115.45,441.24l30.76.06c.16,0,.29-.13.29-.29v-.64c.01-7.89-6.6-14.3-14.78-14.32h-1.74c-8.17-.02-14.81,6.37-14.82,14.26v.64c0,.16.13.29.29.29Z"/>
  <path d="M338.58,425.14c3.79-8.96,13.4-13.34,22.85-12.6.18,0,.31.16.31.33v15.79c0,.23-.19.42-.42.41-8.51-.15-17.09,1.36-22.58,8.34-.24.3-.37.68-.37,1.07v47.32c.01.25-.19.45-.44.45h-18.9c-.22,0-.39-.17-.39-.39v-72.31c-.01-.15.11-.28.26-.28h18.37c.29,0,.53.23.53.52v11.19c0,.45.61.57.78.16Z"/>
  <path d="M808.58,425.14c3.79-8.97,13.4-13.34,22.86-12.6.17,0,.31.15.31.32v15.79c0,.23-.19.42-.43.42-8.5-.16-17.09,1.35-22.58,8.33-.24.31-.36.68-.36,1.07v47.33c0,.25-.2.45-.45.45h-18.91c-.21,0-.39-.17-.39-.39v-72.32c-.01-.15.12-.28.27-.28h18.37c.29,0,.53.23.53.52v11.2c0,.44.61.56.78.16Z"/>
  <path d="M1028.81,423.42c0,.33.4.49.64.26,1.43-1.36,2.55-2.41,3.35-3.15,6.49-6.02,14.41-8.68,23.76-7.97,16.01,1.21,21.04,13.09,21.08,27.34.02,9.01.02,24.32-.01,45.95,0,.19-.14.34-.33.34l-19.05-.02c-.19,0-.35-.16-.35-.35.05-19.12.05-34.32.01-45.61-.03-5.71-2.73-11.03-9.04-11.66-8.06-.82-14.54,2.79-19.26,8.93-.15.2-.23.43-.23.68l-.06,47.55c0,.25-.2.46-.45.46l-18.85-.03c-.25,0-.46-.2-.46-.46l.09-72.01c0-.17.13-.31.3-.31l18.47.02c.22,0,.4.18.4.41v9.63Z"/>
  <path d="M278.06,476.23c0-.33-.39-.5-.64-.27-1.44,1.37-2.56,2.43-3.36,3.18-6.52,6.06-14.48,8.74-23.88,8.04-16.1-1.21-21.17-13.15-21.22-27.47-.03-9.05-.04-24.45-.04-46.2,0-.19.15-.34.33-.34h19.16c.19,0,.35.16.35.35-.03,19.23-.02,34.51.03,45.86.04,5.74,2.76,11.08,9.11,11.71,8.1.82,14.61-2.82,19.34-9,.16-.19.24-.43.24-.68v-47.8c0-.26.21-.46.47-.46h18.94c.26,0,.47.21.47.47l-.02,72.39c0,.17-.14.31-.31.31h-18.56c-.23,0-.41-.18-.41-.41v-9.68Z"/>
  <path d="M655.86,486.25c-6.77,0-10.35-.01-10.75-.04-.35-.02-.66-.25-.78-.58l-26.09-71.8c-.1-.28.11-.57.4-.57h19.21c.33,0,.62.22.72.52l17.02,53.17v.03c.09.11.17.17.23.17.12,0,.22-.06.31-.17v-.03l17.04-53.16c.1-.31.38-.52.71-.52h19.21c.3,0,.5.29.4.57l-26.1,71.79c-.12.34-.43.57-.78.59-.4.02-3.99.03-10.75.03Z"/>
  <path d="M875,466.66c.14.06.29-.01.34-.15l16.09-52.96c.05-.17.21-.29.4-.29h19.23c.26-.01.44.24.35.49-4.52,12.56-13.27,36.89-26.24,72.98-4.65,12.93-8.67,24.43-24.38,25.87-4.33.4-9.58.52-15.74.39-.29-.01-.52-.25-.52-.54v-15.21c-.01-.18.14-.33.33-.33,5.84.08,12.59.8,16.34-4.02.8-1.02,1.79-3.05,2.98-6.11.13-.33.13-.69,0-1.02l-28-71.88c-.11-.29.11-.61.43-.61h19.6c.22,0,.42.13.5.35,8.74,25.56,17.86,52.86,18.29,53.04Z"/>
  <path class="st0" d="M720.53,441.27c-.22,0-.4-.18-.4-.4v-.29c0-8.04,6.63-14.55,14.8-14.55h1.82c8.17,0,14.8,6.51,14.8,14.55v.29c0,.22-.18.4-.4.4h-30.62Z"/>
  <path class="st0" d="M1115.45,441.24c-.16,0-.29-.13-.29-.29v-.64c.01-7.89,6.65-14.28,14.82-14.26h1.74c8.18.02,14.79,6.43,14.78,14.32v.64c0,.16-.13.29-.29.29l-30.76-.06Z"/>
  <path class="st0" d="M938.16,449.9c.01-11.06,3.31-22.46,16.72-22.46s16.7,11.41,16.7,22.47-3.31,22.46-16.72,22.45c-13.41,0-16.7-11.41-16.7-22.46Z"/>
  <path class="st1" d="M474.83,616.61c0-.21.16-.38.37-.38h24.81c.36,0,.67.24.75.59.32,1.36.39,3.17.64,4.28,1.39,6.12,5.23,10.11,11.52,11.97,10.53,3.11,35.23,2.81,32.26-15.35-1.23-7.51-8.66-10.69-15.13-12.78-9.48-3.06-21.2-6.26-31.68-10.79-15.37-6.63-22.26-18-20.41-34.71,2.76-25.12,30.33-29.8,51.03-28.19,19.92,1.56,38.5,11.81,38.69,34.05,0,.26-.21.47-.47.47h-24.78c-.36,0-.66-.3-.66-.66-.03-9.12-8.05-13.69-16.26-14.37-8.69-.73-22.45.96-21.92,12.43.37,8.05,10.24,11.69,16.79,13.73,14.65,4.55,22.1,6.41,32.46,11.42,9.7,4.68,16.06,11.45,17.87,22.18,3.31,19.5-4.53,35.17-23.86,41.08-18.42,5.62-45.24,4.96-60.18-7.43-7.78-6.45-11.73-15.63-11.84-27.54Z"/>
  <ellipse class="st1" cx="1049.71" cy="542.52" rx="11.81" ry="13.65" transform="translate(505.36 1591.28) rotate(-89.9)"/>
  <path class="st1" d="M110.43,626.7c.14,0,.22-.05.26-.15,14.22-45.44,23.99-76.7,29.31-93.79.08-.24.3-.41.56-.41h25.96c.33,0,.57.33.46.64l-41.44,119.79c-.11.32-.41.53-.74.53-7.51-.01-12.33-.02-14.44-.03-2.12,0-6.94-.02-14.45-.05-.33,0-.63-.22-.73-.53l-40.8-120.01c-.1-.32.13-.64.47-.64l25.96.14c.25,0,.48.17.55.41,5.23,17.12,14.83,48.43,28.81,93.94.03.11.12.16.26.16Z"/>
  <path class="st1" d="M629.87,652.97c0,.12-.1.23-.22.24-6.59.34-12.63.08-18.11-.77-18.28-2.85-21.67-14.71-21.68-30.95,0-21.99.01-51.6.02-88.85,0-.23.18-.41.41-.41h22.51c.44,0,.79.35.8.79.07,8.43.07,37.09.01,86,0,5.23.57,9.27,1.71,12.13,1.58,3.93,10.33,3.73,13.73,3.47.44-.03.82.32.82.76v17.59Z"/>
  <path class="st1" d="M773.52,605.28c0,.28.34.4.52.19l33.36-39.38c.31-.36.77-.58,1.26-.58h24.32c.31.01.48.38.27.61l-33.81,39.32c-.26.3-.27.73-.02,1.04l36.26,46.17c.19.24.02.59-.29.59l-25.7.02c-.42,0-.81-.19-1.06-.51l-34.58-45.05c-.17-.22-.52-.09-.52.18l-.02,44.85c0,.28-.23.51-.52.51h-22.64c-.32,0-.58-.26-.58-.58v-119.99c0-.23.18-.42.41-.41h22.61c.4,0,.73.32.73.73v72.29Z"/>
  <path class="st1" d="M278.81,565.51c.38,0,.68-.3.68-.67v-19.24c0-.34.28-.61.61-.61h22.6c.37,0,.67.29.67.66v19.21c0,.35.28.63.62.63h17.91c.32,0,.59.27.59.59v17.46c0,.24-.19.43-.43.43h-18.2c-.28,0-.51.24-.51.52.02,2.98.02,14.65.02,35.02.01,6.03-.04,14.5,7.73,15.12,3.23.26,6.83.3,10.77.1.34-.01.62.26.62.6v17.21c0,.33-.25.6-.59.62-7.93.36-14.8.13-20.58-.68-17.68-2.48-21.72-14.05-21.78-29.97-.04-10.64-.05-23.33-.01-38.08,0-.25-.2-.45-.44-.45h-13.62c-.28,0-.51-.22-.51-.5v-17.31c0-.37.29-.66.66-.66h13.19Z"/>
  <path class="st1" d="M1090.48,564.82v-19.24c0-.34.27-.61.61-.61h22.6c.37,0,.67.3.67.66v19.22c0,.35.28.63.62.63h17.91c.33,0,.59.26.59.59v17.46c0,.24-.19.43-.43.43h-18.2c-.29,0-.52.23-.51.52.01,2.98.02,14.65.02,35.02,0,6.03-.05,14.51,7.72,15.13,3.24.26,6.83.29,10.78.1.34-.02.62.26.62.6v17.21c0,.33-.26.6-.59.62-7.94.36-14.8.13-20.59-.68-17.68-2.48-21.72-14.06-21.78-29.98-.04-10.64-.04-23.33-.01-38.08,0-.25-.2-.45-.44-.45h-13.62c-.28,0-.51-.22-.51-.5v-17.32c0-.36.3-.66.66-.66h13.2c.38,0,.68-.3.68-.67Z"/>
  <path class="st1" d="M254.93,613.85c.19,22.25-17.68,40.44-39.93,40.63l-7.8.07c-22.24.2-40.43-17.68-40.63-39.93l-.08-9.6c-.19-22.25,17.68-40.44,39.93-40.63l7.8-.07c22.24-.2,40.43,17.68,40.63,39.93l.08,9.6ZM190.68,609.55c0,13.28,3.96,26.99,20.07,26.99s20.08-13.71,20.08-26.99-3.96-27-20.08-27-20.07,13.71-20.07,27Z"/>
  <path class="st1" d="M728.92,613.93c.16,22.24-17.75,40.4-39.99,40.55l-7.82.05c-22.24.15-40.39-17.75-40.55-39.99l-.07-9.6c-.16-22.24,17.75-40.4,39.99-40.55l7.82-.05c22.24-.15,40.39,17.75,40.55,39.99l.07,9.6ZM664.68,609.54c-.01,13.29,3.95,26.99,20.07,27,16.11,0,20.08-13.71,20.08-26.99s-3.96-27-20.07-27-20.08,13.7-20.08,26.99Z"/>
  <path class="st1" d="M927.9,613.96c.16,22.24-17.74,40.39-39.98,40.54l-7.8.05c-22.23.15-40.38-17.75-40.54-39.98l-.07-9.64c-.16-22.24,17.74-40.39,39.98-40.54l7.8-.05c22.23-.15,40.38,17.75,40.54,39.98l.07,9.64ZM863.68,609.56c.01,13.29,3.99,26.99,20.1,26.97,16.12-.01,20.07-13.73,20.05-27.01-.01-13.29-3.99-26.99-20.1-26.97-16.12.01-20.07,13.72-20.05,27.01Z"/>
  <path class="st1" d="M359.85,614.06c-.36,0-.65.3-.64.67.62,13.26,7.25,23.12,21.48,22.92,7.72-.12,16.6-3.65,16.44-12.64-.01-.42.33-.76.75-.76h22.25c.35,0,.63.29.6.63-1.65,25.44-26.2,31.7-47.3,29.69-18.63-1.78-31.93-11.89-36.4-30.12-2.3-9.37-2.41-18.89-.35-28.54,5.38-25.14,26.6-34.16,50.17-30.97,25.37,3.45,35.65,24.72,33.92,48.27-.04.49-.44.86-.92.86h-60ZM359.95,598.93h37.1c.15,0,.28-.13.28-.28v-.61c0-9.45-7.88-17.11-17.6-17.11h-2.46c-9.72,0-17.6,7.66-17.6,17.11v.61c0,.15.13.28.28.28Z"/>
  <path class="st1" d="M979.48,630.29c.14,0,.26-.07.36-.2,0-.01,0-.02,0-.03l20.5-63.91c.12-.37.47-.62.86-.62h23.09c.36,0,.61.36.48.69l-31.41,86.3c-.15.4-.51.68-.94.7-.48.03-4.79.05-12.92.04-8.13,0-12.44-.02-12.92-.05-.43-.03-.79-.3-.94-.7l-31.33-86.33c-.12-.34.13-.69.48-.69l23.09.02c.4,0,.74.25.86.62l20.44,63.93s.01.02.01.03c.1.13.2.2.28.2Z"/>
  <rect class="st1" x="1037.77" y="565.48" width="23.76" height="87.74" rx=".74" ry=".74"/>
  <path class="st1" d="M1174.18,634.5c-.01.11.09.21.2.21h43.02c.41,0,.74.33.74.73v17.21c0,.33-.27.6-.6.6h-71.19c-.45,0-.81-.36-.82-.81-.06-3.17-.07-7.9-.04-14.18.01-1.47.39-2.67,1.16-3.61.95-1.17,14.31-17.89,40.08-50.18.13-.16.01-.41-.2-.41h-36.96c-.27,0-.48-.21-.48-.48v-17.64c0-.25.21-.45.46-.45h65.19c.27,0,.49.21.5.48.15,4.91.13,9.82-.07,14.75-.05,1.21-.56,2.44-1.53,3.67-.25.33-13.33,16.84-39.22,49.53-.15.18-.23.37-.24.58Z"/>
  <path class="st0" d="M359.95,598.93c-.15,0-.28-.13-.28-.28v-.61c0-9.45,7.88-17.11,17.6-17.11h2.46c9.72,0,17.6,7.66,17.6,17.11v.61c0,.15-.13.28-.28.28h-37.1Z"/>
  <path class="st0" d="M190.68,609.55c0-13.29,3.96-27,20.07-27s20.08,13.71,20.08,27-3.96,26.99-20.08,26.99-20.07-13.71-20.07-26.99Z"/>
  <path class="st0" d="M664.68,609.54c0-13.29,3.96-26.99,20.08-26.99s20.07,13.71,20.07,27-3.97,26.99-20.08,26.99c-16.12,0-20.08-13.71-20.07-27Z"/>
  <path class="st0" d="M863.68,609.56c-.02-13.29,3.93-27,20.05-27.01,16.11-.02,20.09,13.68,20.1,26.97.02,13.28-3.93,27-20.05,27.01-16.11.02-20.09-13.68-20.1-26.97Z"/>
</svg>