<?xml version="1.0" encoding="UTF-8" standalone="no"?>
<!DOCTYPE svg PUBLIC "-//W3C//DTD SVG 1.1//EN" "http://www.w3.org/Graphics/SVG/1.1/DTD/svg11.dtd">
<svg xmlns="http://www.w3.org/2000/svg" version="1.1" viewBox="0.00 0.00 930.00 697.00" width="930.00" height="697.00">
<g stroke-width="2.00" fill="none" stroke-linecap="butt">
<path stroke="#8099d0" vector-effect="non-scaling-stroke" d="
  M 890.87 152.37
  C 890.87 152.62 891.07 152.82 891.32 152.82
  L 911.55 152.82
  C 911.80 152.82 912.00 152.62 912.00 152.37
  L 912.00 16.55
  C 912.00 16.30 911.80 16.10 911.55 16.10
  L 799.67 16.10
  C 799.42 16.10 799.22 16.30 799.22 16.55
  L 799.22 37.50
  C 799.22 37.75 799.42 37.95 799.67 37.95
  L 890.42 37.95
  C 890.67 37.95 890.87 38.15 890.87 38.40
  L 890.87 152.37"
/>
<path stroke="#8099d0" vector-effect="non-scaling-stroke" d="
  M 35.30 162.73
  C 52.25 181.07 68.39 200.42 83.72 220.77
  C 94.41 234.98 99.46 244.27 112.18 264.80
  C 112.31 265.01 112.61 265.00 112.73 264.79
  C 121.27 249.12 126.79 239.03 129.30 234.54
  C 134.87 224.55 142.88 211.72 153.33 196.06
  C 166.03 177.03 180.38 158.65 196.39 140.90
  C 207.60 128.47 219.89 117.42 233.26 107.77
  C 241.55 101.78 250.30 97.15 259.49 93.86
  C 259.68 93.79 259.78 93.59 259.72 93.39
  L 249.04 58.34
  C 248.95 58.04 248.62 57.87 248.32 57.98
  C 224.61 66.28 204.18 80.71 185.86 98.12
  C 156.56 125.96 132.01 158.73 110.50 192.72
  C 110.33 192.98 109.96 193.00 109.77 192.76
  C 95.28 173.94 79.59 155.34 62.68 136.96
  C 62.50 136.76 62.20 136.75 62.01 136.93
  L 35.34 161.74
  C 35.05 162.00 35.04 162.45 35.30 162.73"
/>
<path stroke="#8099d0" vector-effect="non-scaling-stroke" d="
  M 255.0323 203.9380
  C 254.96 182.64 237.63 165.44 216.3380 165.5128
  L 206.3580 165.5477
  C 185.06 165.62 167.86 182.95 167.9328 204.2420
  L 167.9677 214.2220
  C 168.04 235.52 185.37 252.72 206.6620 252.6472
  L 216.6420 252.6123
  C 237.94 252.54 255.14 235.21 255.0672 213.9180
  L 255.0323 203.9380"
/>
<path stroke="#8099d0" vector-effect="non-scaling-stroke" d="
  M 300.01 251.33
  C 308.39 251.33 312.59 251.33 312.63 251.33
  C 312.88 251.34 313.09 251.13 313.09 250.88
  L 313.08 187.91
  C 313.08 187.72 313.24 187.56 313.44 187.56
  L 339.11 187.56
  C 339.45 187.56 339.72 187.28 339.72 186.94
  L 339.72 167.61
  C 339.72 167.21 339.41 166.89 339.01 166.88
  C 338.24 166.86 325.23 166.85 300.00 166.86
  C 274.76 166.86 261.75 166.87 260.98 166.89
  C 260.59 166.90 260.27 167.23 260.27 167.62
  L 260.28 186.95
  C 260.28 187.29 260.55 187.57 260.89 187.57
  L 286.56 187.56
  C 286.76 187.56 286.92 187.72 286.92 187.91
  L 286.93 250.88
  C 286.93 251.14 287.13 251.34 287.38 251.33
  C 287.42 251.33 291.63 251.33 300.01 251.33"
/>
<path stroke="#8099d0" vector-effect="non-scaling-stroke" d="
  M 351.39 250.93
  C 351.39 251.15 351.57 251.33 351.79 251.33
  L 422.40 251.33
  C 422.62 251.33 422.80 251.15 422.80 250.93
  L 422.80 232.52
  C 422.80 232.30 422.62 232.12 422.40 232.12
  L 378.00 232.12
  C 377.78 232.12 377.60 231.94 377.60 231.72
  L 377.60 215.95
  C 377.60 215.73 377.78 215.55 378.00 215.55
  L 417.78 215.55
  C 418.00 215.55 418.18 215.37 418.18 215.15
  L 418.18 198.51
  C 418.18 198.29 418.00 198.11 417.78 198.11
  L 378.00 198.11
  C 377.78 198.11 377.60 197.93 377.60 197.71
  L 377.60 185.28
  C 377.60 185.06 377.78 184.88 378.00 184.88
  L 421.19 184.88
  C 421.41 184.88 421.59 184.70 421.59 184.48
  L 421.59 167.27
  C 421.59 167.05 421.41 166.87 421.19 166.87
  L 351.79 166.87
  C 351.57 166.87 351.39 167.05 351.39 167.27
  L 351.39 250.93"
/>
<path stroke="#7d94cb" vector-effect="non-scaling-stroke" d="
  M 409.46 298.22
  C 409.06 297.17 408.72 295.86 408.45 294.28
  C 408.40 293.99 408.33 293.71 408.23 293.43
  C 405.82 286.72 401.01 282.41 393.80 280.48
  C 388.15 278.98 384.66 279.00 378.04 278.98
  C 368.24 278.94 357.79 281.36 352.74 289.66
  C 349.37 295.21 349.17 300.95 352.15 306.90
  C 355.01 312.62 362.92 316.29 369.04 317.97
  C 373.33 319.15 377.33 320.15 381.04 320.97
  C 383.77 321.57 385.86 322.40 387.31 323.47
  C 389.30 324.94 390.22 326.54 390.06 328.28
  C 389.82 330.80 388.42 332.65 385.86 333.84
  C 382.48 335.41 378.96 335.35 375.31 333.68
  C 371.71 332.03 369.56 328.78 368.86 323.91
  C 368.77 323.34 368.27 322.93 367.70 322.96
  L 348.11 324.04
  C 347.72 324.06 347.43 324.41 347.47 324.80
  C 348.18 331.44 350.69 336.87 354.99 341.10
  C 360.37 346.38 368.54 347.77 376.75 348.00
  C 385.02 348.23 392.50 347.98 399.42 344.41
  C 408.40 339.78 413.55 330.55 411.10 320.62
  C 407.67 306.79 388.72 304.31 376.99 301.73
  C 373.88 301.05 369.46 299.37 370.98 295.73
  C 372.78 291.40 379.14 291.61 382.89 292.94
  C 385.68 293.93 387.45 296.08 388.20 299.39
  C 388.31 299.85 388.73 300.17 389.21 300.15
  L 408.92 299.06
  C 409.34 299.04 409.61 298.61 409.46 298.22"
/>
<path stroke="#7d94cb" vector-effect="non-scaling-stroke" d="
  M 82.19 296.00
  C 82.43 296.00 82.62 295.81 82.62 295.57
  L 82.62 280.42
  C 82.62 280.18 82.43 279.99 82.19 279.99
  L 28.92 279.99
  C 28.68 279.99 28.49 280.18 28.49 280.42
  L 28.49 346.57
  C 28.49 346.81 28.68 347.00 28.92 347.00
  L 50.30 347.00
  C 50.54 347.00 50.73 346.81 50.73 346.57
  L 50.73 320.43
  C 50.73 320.19 50.92 320.00 51.16 320.00
  L 77.73 320.00
  C 77.97 320.00 78.16 319.81 78.16 319.57
  L 78.16 306.42
  C 78.16 306.18 77.97 305.99 77.73 305.99
  L 51.16 305.99
  C 50.92 305.99 50.73 305.80 50.73 305.56
  L 50.73 296.43
  C 50.73 296.19 50.92 296.00 51.16 296.00
  L 82.19 296.00"
/>
<path stroke="#7d94cb" vector-effect="non-scaling-stroke" d="
  M 142.28 317.29
  C 143.43 316.87 144.69 316.86 145.96 316.31
  C 154.41 312.69 158.45 306.49 158.06 297.72
  C 157.92 294.53 157.30 291.92 156.20 289.87
  C 151.27 280.68 141.80 279.99 132.25 279.99
  C 121.07 279.99 108.51 279.99 94.58 279.99
  C 94.40 279.99 94.26 280.14 94.26 280.32
  L 94.26 346.36
  C 94.26 346.71 94.54 347.00 94.89 347.00
  L 116.01 347.00
  C 116.34 347.00 116.61 346.73 116.61 346.40
  L 116.61 320.66
  C 116.61 320.33 116.87 320.06 117.20 320.05
  C 121.06 319.95 123.91 321.44 125.75 324.53
  C 127.39 327.28 131.58 334.62 138.32 346.53
  C 138.49 346.82 138.80 347.00 139.13 347.00
  L 163.17 347.00
  C 163.47 347.00 163.66 346.68 163.52 346.42
  C 158.90 337.85 155.34 331.37 152.84 326.96
  C 151.68 324.91 149.64 322.55 146.73 319.88
  C 146.42 319.60 146.06 319.38 145.67 319.22
  L 142.27 317.89
  C 141.99 317.78 142.00 317.39 142.28 317.29"
/>
<path stroke="#7d94cb" vector-effect="non-scaling-stroke" d="
  M 229.24 280.41
  C 229.24 280.17 229.04 279.97 228.80 279.97
  L 171.04 279.97
  C 170.80 279.97 170.60 280.17 170.60 280.41
  L 170.60 346.59
  C 170.60 346.83 170.80 347.03 171.04 347.03
  L 229.93 347.03
  C 230.17 347.03 230.37 346.83 230.37 346.59
  L 230.37 331.45
  C 230.37 331.21 230.17 331.01 229.93 331.01
  L 193.34 331.01
  C 193.10 331.01 192.90 330.81 192.90 330.57
  L 192.90 319.45
  C 192.90 319.21 193.10 319.01 193.34 319.01
  L 226.17 319.01
  C 226.41 319.01 226.61 318.81 226.61 318.57
  L 226.61 305.42
  C 226.61 305.18 226.41 304.98 226.17 304.98
  L 193.33 304.98
  C 193.09 304.98 192.89 304.78 192.89 304.54
  L 192.89 296.42
  C 192.89 296.18 193.09 295.98 193.33 295.98
  L 228.80 295.98
  C 229.04 295.98 229.24 295.78 229.24 295.54
  L 229.24 280.41"
/>
<path stroke="#7d94cb" vector-effect="non-scaling-stroke" d="
  M 242.04 280.58
  L 242.27 346.56
  C 242.27 346.88 242.53 347.14 242.85 347.14
  L 278.08 347.02
  C 294.19 346.96 307.20 333.85 307.15 317.74
  L 307.11 308.96
  C 307.06 292.84 293.95 279.82 277.84 279.88
  L 242.61 280.00
  C 242.29 280.00 242.03 280.26 242.04 280.58"
/>
<path stroke="#7d94cb" vector-effect="non-scaling-stroke" d="
  M 422.23 346.42
  C 422.23 346.73 422.48 346.98 422.79 346.98
  L 481.32 346.97
  C 481.65 346.97 481.91 346.70 481.91 346.38
  L 481.91 331.43
  C 481.91 331.18 481.71 330.98 481.46 330.98
  L 444.98 330.99
  C 444.72 330.98 444.51 330.78 444.51 330.53
  L 444.49 319.61
  C 444.49 319.27 444.76 318.99 445.10 318.99
  L 477.43 319.00
  C 477.84 319.00 478.17 318.67 478.17 318.26
  L 478.15 305.45
  C 478.16 305.20 477.95 305.00 477.71 305.00
  L 444.95 304.99
  C 444.70 304.99 444.50 304.79 444.50 304.55
  L 444.50 296.51
  C 444.50 296.23 444.72 296.01 444.99 296.01
  L 480.22 296.01
  C 480.54 296.01 480.81 295.75 480.81 295.43
  L 480.80 280.65
  C 480.80 280.30 480.52 280.02 480.18 280.02
  L 422.91 280.01
  C 422.54 280.01 422.24 280.30 422.24 280.66
  L 422.23 346.42"
/>
<path stroke="#7d94cb" vector-effect="non-scaling-stroke" d="
  M 493.23 346.43
  C 493.23 346.74 493.48 346.99 493.79 346.99
  L 552.34 346.97
  C 552.66 346.97 552.93 346.71 552.93 346.38
  L 552.92 331.43
  C 552.92 331.19 552.72 330.98 552.47 330.98
  L 515.98 330.99
  C 515.72 330.99 515.51 330.79 515.51 330.53
  L 515.49 319.62
  C 515.49 319.28 515.77 319.00 516.10 319.00
  L 548.44 319.00
  C 548.85 319.00 549.18 318.67 549.18 318.26
  L 549.16 305.45
  C 549.16 305.20 548.96 305.00 548.71 305.00
  L 515.95 304.99
  C 515.70 304.99 515.50 304.79 515.50 304.55
  L 515.50 296.51
  C 515.50 296.23 515.72 296.01 515.99 296.01
  L 551.22 296.00
  C 551.55 296.00 551.81 295.74 551.81 295.42
  L 551.81 280.64
  C 551.81 280.29 551.53 280.01 551.19 280.01
  L 493.90 280.00
  C 493.53 280.00 493.23 280.30 493.23 280.66
  L 493.23 346.43"
/>
<path stroke="#7d94cb" vector-effect="non-scaling-stroke" d="
  M 603.95 347.00
  C 609.00 347.00 611.59 346.99 611.72 346.97
  C 612.07 346.91 612.36 346.65 612.45 346.30
  L 625.34 297.75
  C 625.34 297.74 625.35 297.74 625.36 297.74
  C 625.36 297.74 625.37 297.74 625.37 297.75
  L 625.37 346.40
  C 625.37 346.72 625.63 346.98 625.95 346.98
  L 643.24 346.98
  C 643.44 346.98 643.61 346.82 643.61 346.62
  L 643.61 280.30
  C 643.61 280.12 643.47 279.98 643.29 279.98
  L 615.10 279.98
  C 614.74 279.98 614.43 280.22 614.34 280.56
  L 604.03 319.39
  C 604.02 319.41 604.00 319.43 603.98 319.43
  C 603.96 319.43 603.95 319.43 603.93 319.43
  C 603.92 319.43 603.91 319.43 603.89 319.43
  C 603.87 319.43 603.84 319.41 603.84 319.39
  L 593.48 280.57
  C 593.39 280.23 593.08 279.99 592.72 279.99
  L 564.53 280.03
  C 564.35 280.03 564.21 280.17 564.21 280.35
  L 564.29 346.67
  C 564.29 346.87 564.46 347.03 564.66 347.03
  L 581.95 347.01
  C 582.27 347.01 582.53 346.75 582.53 346.43
  L 582.47 297.78
  C 582.47 297.77 582.48 297.76 582.49 297.76
  C 582.49 297.76 582.50 297.77 582.50 297.78
  L 595.45 346.31
  C 595.54 346.66 595.83 346.92 596.18 346.98
  C 596.31 347.00 598.90 347.01 603.95 347.00"
/>
<path stroke="#7d94cb" vector-effect="non-scaling-stroke" d="
  M 703.74 346.65
  C 703.81 346.86 704.00 347.00 704.21 347.00
  L 726.56 347.00
  C 726.91 347.00 727.14 346.65 727.02 346.33
  L 701.13 280.30
  C 701.06 280.11 700.88 279.99 700.68 279.99
  L 676.78 279.99
  C 676.58 279.99 676.40 280.11 676.33 280.30
  L 650.48 346.32
  C 650.36 346.64 650.59 346.99 650.94 346.99
  L 672.91 346.99
  C 673.14 346.99 673.33 346.84 673.39 346.63
  L 676.10 336.37
  C 676.16 336.16 676.35 336.01 676.58 336.01
  L 700.14 336.01
  C 700.35 336.01 700.54 336.15 700.61 336.36
  L 703.74 346.65"
/>
<path stroke="#7d94cb" vector-effect="non-scaling-stroke" d="
  M 755.12 311.37
  L 780.09 346.34
  C 780.38 346.75 780.87 347.00 781.38 347.00
  L 801.31 347.00
  C 801.48 347.00 801.61 346.87 801.61 346.70
  L 801.61 280.60
  C 801.61 280.27 801.34 280.00 801.01 280.00
  L 781.07 280.00
  C 780.75 280.00 780.49 280.26 780.49 280.57
  L 780.49 314.79
  C 780.49 315.11 780.08 315.24 779.90 314.98
  L 755.26 280.47
  C 755.05 280.17 754.70 279.99 754.33 279.99
  L 734.77 279.99
  C 734.43 279.99 734.15 280.27 734.15 280.61
  L 734.15 346.40
  C 734.15 346.73 734.42 347.00 734.75 347.00
  L 754.26 347.00
  C 754.59 347.00 754.85 346.74 754.85 346.41
  L 754.85 311.46
  C 754.85 311.31 755.04 311.25 755.12 311.37"
/>
<path stroke="#8099d0" vector-effect="non-scaling-stroke" d="
  M 826.31 375.46
  L 826.07 370.93
  C 826.05 370.64 825.82 370.42 825.53 370.42
  L 623.84 370.42
  C 623.71 370.42 623.60 370.53 623.60 370.66
  L 623.57 469.09"
/>
<path stroke="#712b5e" vector-effect="non-scaling-stroke" d="
  M 623.57 469.09
  L 616.29 461.36
  C 616.07 461.13 615.72 461.12 615.49 461.33
  L 588.82 486.13
  C 588.58 486.36 588.56 486.74 588.79 486.98
  C 600.24 499.40 611.75 512.63 623.33 526.66
  C 623.52 526.90 623.61 527.17 623.59 527.46"
/>
<path stroke="#8099d0" vector-effect="non-scaling-stroke" d="
  M 623.59 527.46
  L 623.62 572.62
  C 623.62 572.89 623.84 573.11 624.11 573.11
  L 659.00 573.19"
/>
<path stroke="#712b5e" vector-effect="non-scaling-stroke" d="
  M 659.00 573.19
  L 681.17 608.36
  C 681.33 608.61 681.70 608.60 681.84 608.34
  L 701.11 573.16"
/>
<path stroke="#8099d0" vector-effect="non-scaling-stroke" d="
  M 701.11 573.16
  L 825.93 573.17
  C 826.08 573.17 826.20 573.05 826.20 572.90
  L 826.19 420.48"
/>
<path stroke="#712b5e" vector-effect="non-scaling-stroke" d="
  M 826.19 420.48
  C 837.52 411.86 849.91 405.10 863.34 400.21
  C 863.57 400.13 863.70 399.87 863.63 399.64
  L 852.96 364.65
  C 852.88 364.40 852.62 364.26 852.37 364.34
  C 843.36 367.32 834.82 371.04 826.76 375.51
  C 826.61 375.60 826.46 375.58 826.31 375.46"
/>
<path stroke="#f1928d" vector-effect="non-scaling-stroke" d="
  M 826.19 420.48
  C 818.74 425.87 811.63 431.70 804.88 437.95"
/>
<path stroke="#712b5e" vector-effect="non-scaling-stroke" d="
  M 804.88 437.95
  C 790.71 451.02 777.20 465.49 764.34 481.34
  C 745.71 504.31 728.92 527.85 713.99 551.94"
/>
<path stroke="#f1928d" vector-effect="non-scaling-stroke" d="
  M 713.99 551.94
  L 701.11 573.16"
/>
<path stroke="#f1928d" vector-effect="non-scaling-stroke" d="
  M 659.00 573.19
  C 648.15 557.52 636.50 542.31 624.05 527.58
  C 624.01 527.52 623.94 527.49 623.87 527.48
  L 623.59 527.46"
/>
<path stroke="#f1928d" vector-effect="non-scaling-stroke" d="
  M 623.57 469.09
  L 644.92 493.79"
/>
<path stroke="#712b5e" vector-effect="non-scaling-stroke" d="
  M 644.92 493.79
  C 656.45 507.39 667.68 521.42 678.61 535.87
  C 678.90 536.25 679.49 536.22 679.74 535.81
  C 697.75 506.35 717.79 478.37 739.88 451.88
  C 751.63 437.78 764.21 424.44 777.61 411.86
  C 784.62 405.27 792.47 398.66 801.14 392.02"
/>
<path stroke="#f1928d" vector-effect="non-scaling-stroke" d="
  M 801.14 392.02
  C 808.95 386.18 817.21 380.81 825.94 375.91
  C 826.15 375.79 826.27 375.64 826.31 375.46"
/>
<path stroke="#8099d0" vector-effect="non-scaling-stroke" d="
  M 801.14 392.02
  L 645.40 392.02
  C 645.15 392.02 644.94 392.22 644.94 392.47
  L 644.92 493.79"
/>
<path stroke="#8099d0" vector-effect="non-scaling-stroke" d="
  M 713.99 551.94
  L 804.41 551.94
  C 804.68 551.94 804.90 551.72 804.90 551.45
  L 804.88 437.95"
/>
<path stroke="#7d94cb" vector-effect="non-scaling-stroke" d="
  M 130.91 447.28
  C 131.14 446.54 130.67 445.77 129.91 445.61
  L 123.24 444.22
  C 122.40 444.05 121.57 444.54 121.33 445.36
  C 121.18 446.10 120.50 447.48 119.29 449.51
  C 115.80 455.36 106.95 455.82 101.67 453.16
  C 93.88 449.22 93.57 438.28 96.16 430.99
  C 98.68 423.90 106.56 422.68 112.78 423.66
  C 117.42 424.38 118.90 427.26 120.59 431.13
  C 120.95 431.97 121.88 432.42 122.76 432.18
  L 129.32 430.45
  C 129.94 430.28 130.29 429.62 130.07 429.01
  C 128.81 425.50 127.07 422.90 124.86 421.20
  C 121.04 418.26 117.08 416.60 112.98 416.23
  C 106.20 415.62 98.88 416.87 93.27 421.08
  C 84.14 427.93 82.87 442.25 88.55 451.63
  C 92.88 458.79 99.93 462.19 109.69 461.83
  C 113.69 461.68 117.33 460.84 120.60 459.32
  C 125.78 456.91 129.22 452.89 130.91 447.28"
/>
<path stroke="#7d94cb" vector-effect="non-scaling-stroke" d="
  M 408.08 438.45
  C 407.77 452.92 418.45 461.56 432.15 461.86
  C 445.86 462.16 456.91 454.00 457.23 439.52
  C 457.54 425.05 446.86 416.41 433.15 416.12
  C 419.45 415.82 408.40 423.98 408.08 438.45"
/>
<path stroke="#7d94cb" vector-effect="non-scaling-stroke" d="
  M 168.62 458.73
  L 168.61 454.56
  C 168.61 454.30 168.40 454.09 168.14 454.09
  L 145.14 454.09
  C 144.95 454.09 144.83 453.89 144.92 453.72
  C 144.95 453.68 145.00 453.59 145.07 453.45
  C 145.09 453.40 145.10 453.34 145.10 453.29
  L 144.84 417.58
  C 144.83 417.26 144.58 417.00 144.26 417.00
  L 136.00 417.00
  C 135.68 417.00 135.42 417.26 135.42 417.58
  L 135.42 460.53
  C 135.42 460.79 135.63 461.00 135.89 461.00
  L 176.73 461.00
  C 177.19 461.00 177.60 460.72 177.77 460.29
  L 182.16 449.09
  C 182.28 448.77 182.59 448.55 182.94 448.55
  L 200.38 448.55
  C 200.68 448.55 200.94 448.73 201.06 449.00
  L 206.07 460.82
  C 206.11 460.92 206.20 460.98 206.30 460.98
  L 216.50 460.98
  C 216.57 460.98 216.62 460.91 216.59 460.84
  L 196.27 417.55
  C 196.11 417.21 195.77 416.99 195.40 416.99
  L 187.35 417.00
  C 186.96 417.00 186.62 417.26 186.51 417.64
  C 186.39 418.03 180.79 430.76 169.72 455.85
  C 169.39 456.60 169.04 458.52 168.85 458.80
  C 168.78 458.90 168.62 458.85 168.62 458.73"
/>
<path stroke="#7d94cb" vector-effect="non-scaling-stroke" d="
  M 264.77 460.14
  C 263.94 459.51 263.05 458.39 262.09 456.78
  C 261.46 455.72 258.61 451.92 253.56 445.37
  C 253.17 444.86 251.75 443.66 249.31 441.77
  C 249.10 441.60 249.17 441.26 249.43 441.19
  C 256.84 439.11 262.31 434.01 259.73 425.81
  C 257.51 418.75 250.66 417.04 243.75 417.00
  C 231.35 416.95 223.09 416.95 218.96 417.00
  C 218.76 417.01 218.60 417.17 218.60 417.37
  L 218.60 460.41
  C 218.60 460.71 218.84 460.95 219.14 460.95
  L 227.38 460.95
  C 227.68 460.95 227.93 460.70 227.93 460.40
  L 227.93 442.98
  C 227.93 442.71 228.16 442.48 228.44 442.49
  L 236.98 442.68
  C 237.17 442.69 237.34 442.72 237.51 442.79
  C 239.78 443.76 241.50 444.97 242.69 446.41
  C 245.82 450.22 249.26 454.86 253.01 460.35
  C 253.28 460.75 253.73 460.99 254.21 460.99
  L 264.48 460.99
  C 264.93 460.99 265.13 460.41 264.77 460.14"
/>
<path stroke="#7d94cb" vector-effect="non-scaling-stroke" d="
  M 277.20 434.98
  C 276.99 434.98 276.82 434.81 276.82 434.60
  L 276.82 424.28
  C 276.82 424.07 276.99 423.90 277.20 423.90
  L 305.00 423.90
  C 305.21 423.90 305.38 423.73 305.38 423.52
  L 305.38 417.37
  C 305.38 417.16 305.21 416.99 305.00 416.99
  L 267.77 416.99
  C 267.56 416.99 267.39 417.16 267.39 417.37
  L 267.39 460.62
  C 267.39 460.83 267.56 461.00 267.77 461.00
  L 306.06 461.00
  C 306.27 461.00 306.44 460.83 306.44 460.62
  L 306.44 454.48
  C 306.44 454.27 306.27 454.10 306.06 454.10
  L 277.22 454.10
  C 277.01 454.10 276.84 453.93 276.84 453.72
  L 276.84 442.28
  C 276.84 442.07 277.01 441.90 277.22 441.90
  L 303.14 441.90
  C 303.35 441.90 303.52 441.73 303.52 441.52
  L 303.52 435.36
  C 303.52 435.15 303.35 434.98 303.14 434.98
  L 277.20 434.98"
/>
<path stroke="#7d94cb" vector-effect="non-scaling-stroke" d="
  M 329.34 441.64
  C 338.64 453.77 343.43 460.02 343.69 460.40
  C 343.94 460.77 344.36 460.99 344.81 460.99
  L 352.59 460.99
  C 352.95 460.99 353.25 460.69 353.25 460.33
  L 353.25 417.45
  C 353.25 417.21 353.05 417.02 352.81 417.02
  L 344.61 417.02
  C 344.38 417.02 344.19 417.20 344.19 417.43
  L 344.19 446.21
  C 344.19 446.47 343.86 446.57 343.71 446.37
  C 342.43 444.65 339.90 441.32 336.11 436.38
  C 326.81 424.26 322.03 418.00 321.77 417.62
  C 321.52 417.25 321.10 417.03 320.65 417.03
  L 312.87 417.03
  C 312.50 417.03 312.21 417.33 312.21 417.69
  L 312.21 460.57
  C 312.21 460.81 312.41 461.00 312.65 461.00
  L 320.85 461.00
  C 321.08 461.00 321.27 460.82 321.27 460.59
  L 321.27 431.81
  C 321.27 431.56 321.59 431.45 321.75 431.65
  C 323.03 433.37 325.56 436.70 329.34 441.64"
/>
<path stroke="#7d94cb" vector-effect="non-scaling-stroke" d="
  M 361.32 417.57
  L 361.24 460.33
  C 361.24 460.68 361.52 460.96 361.87 460.96
  L 383.88 461.00
  C 395.06 461.02 404.14 451.96 404.16 440.77
  L 404.16 437.29
  C 404.18 426.09 395.14 417.00 383.96 416.98
  L 361.95 416.94
  C 361.60 416.94 361.32 417.22 361.32 417.57"
/>
<path stroke="#7d94cb" vector-effect="non-scaling-stroke" d="
  M 479.57 441.64
  C 488.87 453.77 493.65 460.03 493.91 460.41
  C 494.17 460.78 494.59 461.00 495.04 461.00
  L 502.82 461.01
  C 503.18 461.01 503.48 460.71 503.48 460.35
  L 503.50 417.46
  C 503.50 417.22 503.30 417.03 503.06 417.03
  L 494.86 417.02
  C 494.63 417.02 494.44 417.21 494.44 417.43
  L 494.42 446.22
  C 494.42 446.47 494.10 446.58 493.95 446.38
  C 492.67 444.65 490.13 441.32 486.35 436.39
  C 477.05 424.25 472.28 417.99 472.01 417.61
  C 471.76 417.24 471.34 417.02 470.89 417.02
  L 463.11 417.02
  C 462.75 417.02 462.45 417.31 462.45 417.68
  L 462.43 460.57
  C 462.43 460.80 462.62 461.00 462.87 461.00
  L 471.07 461.00
  C 471.30 461.00 471.49 460.82 471.49 460.59
  L 471.50 431.80
  C 471.50 431.55 471.83 431.44 471.98 431.65
  C 473.26 433.37 475.79 436.70 479.57 441.64"
/>
<path stroke="#7d94cb" vector-effect="non-scaling-stroke" d="
  M 125.05 515.49
  C 124.75 529.97 135.44 538.59 149.15 538.87
  C 162.86 539.15 173.90 530.98 174.20 516.50
  C 174.49 502.03 163.80 493.40 150.09 493.12
  C 136.38 492.84 125.34 501.02 125.05 515.49"
/>
<path stroke="#7d94cb" vector-effect="non-scaling-stroke" d="
  M 354.08 515.47
  C 353.77 529.94 364.45 538.57 378.15 538.87
  C 391.86 539.16 402.90 531.00 403.21 516.53
  C 403.52 502.05 392.84 493.42 379.14 493.13
  C 365.43 492.84 354.39 501.00 354.08 515.47"
/>
<path stroke="#7d94cb" vector-effect="non-scaling-stroke" d="
  M 103.96 538.00
  C 106.50 538.00 107.96 537.97 108.33 537.89
  C 108.49 537.85 108.60 537.72 108.60 537.56
  L 108.60 501.31
  C 108.60 501.09 108.78 500.91 109.00 500.91
  L 124.08 500.91
  C 124.37 500.91 124.60 500.68 124.60 500.39
  L 124.60 494.52
  C 124.60 494.24 124.37 494.02 124.09 494.02
  C 117.54 493.99 110.83 493.98 103.99 493.99
  C 97.14 493.98 90.44 493.98 83.88 493.99
  C 83.60 493.99 83.37 494.22 83.37 494.50
  L 83.37 500.37
  C 83.37 500.65 83.60 500.89 83.89 500.89
  L 98.97 500.90
  C 99.19 500.90 99.37 501.08 99.37 501.30
  L 99.32 537.55
  C 99.32 537.71 99.44 537.85 99.59 537.88
  C 99.97 537.96 101.42 538.00 103.96 538.00"
/>
<path stroke="#7d94cb" vector-effect="non-scaling-stroke" d="
  M 222.20 524.38
  C 221.92 523.27 221.89 521.89 221.52 520.72
  C 215.97 503.57 213.17 494.89 213.14 494.68
  C 213.08 494.30 212.76 494.02 212.38 494.01
  L 203.22 493.99
  C 202.84 493.99 202.50 494.24 202.39 494.60
  L 192.80 525.04
  C 192.77 525.12 192.65 525.12 192.63 525.03
  L 184.49 494.23
  C 184.45 494.10 184.34 494.01 184.20 494.01
  L 175.08 494.01
  C 174.93 494.01 174.82 494.16 174.86 494.31
  L 188.02 537.48
  C 188.11 537.78 188.39 537.99 188.71 537.99
  L 196.59 537.99
  C 196.98 537.99 197.32 537.74 197.44 537.37
  L 207.52 505.35
  C 207.59 505.14 207.89 505.14 207.95 505.35
  L 217.70 537.33
  C 217.82 537.72 218.18 537.99 218.59 537.99
  L 226.19 537.99
  C 226.51 537.99 226.79 537.78 226.89 537.47
  L 240.53 494.19
  C 240.56 494.10 240.49 494.01 240.39 494.01
  L 231.25 494.01
  C 231.14 494.01 231.04 494.09 231.00 494.20
  L 222.64 524.38
  C 222.58 524.61 222.26 524.61 222.20 524.38"
/>
<path stroke="#7d94cb" vector-effect="non-scaling-stroke" d="
  M 260.57 518.64
  C 269.87 530.78 274.65 537.04 274.91 537.42
  C 275.17 537.79 275.59 538.01 276.04 538.01
  L 283.82 538.01
  C 284.19 538.01 284.48 537.72 284.48 537.35
  L 284.50 494.46
  C 284.50 494.22 284.31 494.03 284.06 494.02
  L 275.86 494.02
  C 275.63 494.02 275.44 494.20 275.44 494.43
  L 275.42 523.22
  C 275.42 523.48 275.10 523.59 274.95 523.38
  C 273.67 521.66 271.14 518.33 267.35 513.39
  C 258.05 501.25 253.27 494.99 253.01 494.61
  C 252.76 494.24 252.34 494.02 251.89 494.02
  L 244.11 494.01
  C 243.74 494.01 243.45 494.31 243.44 494.67
  L 243.42 537.57
  C 243.42 537.81 243.62 538.00 243.86 538.00
  L 252.07 538.01
  C 252.30 538.01 252.49 537.82 252.49 537.60
  L 252.50 508.81
  C 252.50 508.55 252.83 508.44 252.98 508.65
  C 254.26 510.37 256.79 513.70 260.57 518.64"
/>
<path stroke="#7d94cb" vector-effect="non-scaling-stroke" d="
  M 342.71 514.13
  C 345.75 512.52 347.43 509.98 347.74 506.51
  C 348.39 499.32 341.12 494.23 334.44 494.10
  C 326.59 493.95 318.79 493.94 311.04 494.05
  C 310.81 494.06 310.62 494.25 310.62 494.48
  L 310.62 537.41
  C 310.62 537.72 310.88 537.98 311.19 537.98
  C 318.80 538.00 326.08 538.01 333.01 538.00
  C 340.56 538.00 349.36 534.99 350.10 526.04
  C 350.53 520.75 348.07 516.92 342.72 514.53
  C 342.55 514.45 342.55 514.22 342.71 514.13"
/>
<path stroke="#7d94cb" vector-effect="non-scaling-stroke" d="
  M 441.85 537.80
  C 441.90 537.91 442.01 537.98 442.13 537.98
  L 451.67 537.98
  C 451.90 537.98 452.05 537.74 451.95 537.54
  L 431.60 494.19
  C 431.55 494.08 431.44 494.01 431.32 494.01
  L 422.53 494.01
  C 422.41 494.01 422.30 494.08 422.25 494.19
  L 403.14 537.54
  C 403.05 537.75 403.20 537.98 403.43 537.98
  L 412.77 537.98
  C 412.90 537.98 413.01 537.90 413.06 537.78
  L 417.76 525.78
  C 417.81 525.66 417.92 525.58 418.05 525.58
  L 435.90 525.58
  C 436.02 525.58 436.13 525.65 436.18 525.76
  L 441.85 537.80"
/>
<path stroke="#7d94cb" vector-effect="non-scaling-stroke" d="
  M 500.06 537.12
  C 499.23 536.49 498.33 535.37 497.37 533.76
  C 496.73 532.70 493.88 528.90 488.81 522.36
  C 488.41 521.86 486.99 520.66 484.55 518.77
  C 484.33 518.60 484.40 518.26 484.67 518.19
  C 492.08 516.09 497.54 510.98 494.94 502.78
  C 492.70 495.72 485.85 494.02 478.93 494.00
  C 466.53 493.97 458.26 493.99 454.13 494.05
  C 453.93 494.06 453.77 494.22 453.77 494.42
  L 453.86 537.48
  C 453.86 537.78 454.10 538.02 454.40 538.02
  L 462.65 538.01
  C 462.95 538.00 463.20 537.76 463.20 537.45
  L 463.16 520.03
  C 463.16 519.75 463.39 519.53 463.67 519.53
  L 472.21 519.71
  C 472.40 519.71 472.58 519.75 472.74 519.81
  C 475.01 520.78 476.74 521.99 477.93 523.43
  C 481.07 527.23 484.52 531.87 488.29 537.35
  C 488.56 537.75 489.01 537.99 489.49 537.99
  L 499.77 537.97
  C 500.22 537.97 500.42 537.39 500.06 537.12"
/>
<path stroke="#7d94cb" vector-effect="non-scaling-stroke" d="
  M 502.40 494.58
  L 502.48 537.44
  C 502.48 537.76 502.74 538.03 503.07 538.03
  L 525.18 537.99
  C 536.38 537.97 545.44 528.86 545.42 517.64
  L 545.42 514.22
  C 545.40 503.01 536.30 493.93 525.10 493.95
  L 502.99 493.99
  C 502.67 493.99 502.40 494.25 502.40 494.58"
/>
<path stroke="#8099d0" vector-effect="non-scaling-stroke" d="
  M 37.29 542.89
  C 37.29 542.71 37.14 542.56 36.96 542.56
  L 16.13 542.56
  C 15.95 542.56 15.80 542.71 15.80 542.89
  L 15.80 678.62
  C 15.80 678.80 15.95 678.95 16.13 678.95
  L 128.45 678.95
  C 128.63 678.95 128.78 678.80 128.78 678.62
  L 128.78 657.93
  C 128.78 657.75 128.63 657.60 128.45 657.60
  L 37.62 657.60
  C 37.44 657.60 37.29 657.45 37.29 657.27
  L 37.29 542.89"
/>
<path stroke="#8099d0" vector-effect="non-scaling-stroke" d="
  M 193.88 209.14
  C 193.89 220.91 196.87 233.15 211.52 233.13
  C 226.17 233.11 229.12 220.87 229.11 209.10
  C 229.10 197.34 226.12 185.10 211.47 185.11
  C 196.82 185.13 193.86 197.37 193.88 209.14"
/>
<path stroke="#7d94cb" vector-effect="non-scaling-stroke" d="
  M 116.52 294.29
  L 116.70 306.75
  C 116.70 306.86 116.79 306.95 116.90 306.95
  L 126.80 306.81
  C 131.78 306.74 135.78 304.22 135.74 301.18
  L 135.72 299.34
  C 135.67 296.29 131.60 293.88 126.62 293.95
  L 116.72 294.09
  C 116.61 294.09 116.52 294.18 116.52 294.29"
/>
<path stroke="#7d94cb" vector-effect="non-scaling-stroke" d="
  M 264.45 296.49
  L 264.63 330.83
  C 264.63 331.00 264.77 331.13 264.93 331.13
  L 272.25 331.09
  C 279.22 331.06 284.84 325.30 284.80 318.23
  L 284.76 308.89
  C 284.72 301.82 279.04 296.12 272.07 296.15
  L 264.75 296.19
  C 264.58 296.19 264.45 296.33 264.45 296.49"
/>
<path stroke="#7d94cb" vector-effect="non-scaling-stroke" d="
  M 688.57 320.99
  C 691.64 320.99 693.88 320.97 695.30 320.93
  C 695.59 320.93 695.79 320.64 695.70 320.36
  C 693.51 313.98 691.24 306.89 688.88 299.10
  C 688.79 298.78 688.67 298.62 688.53 298.62
  C 688.40 298.62 688.28 298.78 688.19 299.11
  C 685.85 306.90 683.61 314.00 681.44 320.38
  C 681.35 320.66 681.55 320.95 681.84 320.96
  C 683.26 320.98 685.50 321.00 688.57 320.99"
/>
<path stroke="#7d94cb" vector-effect="non-scaling-stroke" d="
  M 447.4181 436.4236
  C 447.12 428.91 440.78 423.06 433.2625 423.3612
  L 430.7046 423.4639
  C 423.19 423.77 417.34 430.10 417.6421 437.6196
  L 417.8019 441.5964
  C 418.10 449.11 424.44 454.96 431.9575 454.6588
  L 434.5154 454.5561
  C 442.03 454.25 447.88 447.92 447.5779 440.4004
  L 447.4181 436.4236"
/>
<path stroke="#7d94cb" vector-effect="non-scaling-stroke" d="
  M 191.56 441.44
  C 195.27 441.42 197.22 441.42 197.40 441.42
  C 197.58 441.44 197.70 441.25 197.62 441.08
  C 195.35 436.44 193.34 431.86 191.59 427.34
  C 191.57 427.29 191.55 427.26 191.54 427.26
  C 191.52 427.25 191.50 427.25 191.48 427.25
  C 191.45 427.25 191.42 427.26 191.40 427.26
  C 191.39 427.26 191.37 427.29 191.35 427.34
  C 189.66 431.88 187.71 436.49 185.49 441.15
  C 185.41 441.32 185.54 441.51 185.72 441.50
  C 185.90 441.48 187.84 441.47 191.56 441.44"
/>
<path stroke="#7d94cb" vector-effect="non-scaling-stroke" d="
  M 227.91 424.09
  L 227.89 434.91
  C 227.89 435.08 228.03 435.22 228.20 435.22
  L 243.52 435.25
  C 247.39 435.25 250.53 432.77 250.54 429.70
  L 250.54 429.38
  C 250.55 426.31 247.41 423.81 243.54 423.81
  L 228.22 423.78
  C 228.05 423.78 227.91 423.92 227.91 424.09"
/>
<path stroke="#7d94cb" vector-effect="non-scaling-stroke" d="
  M 370.57 424.18
  L 370.57 453.82
  C 370.57 453.98 370.70 454.11 370.86 454.11
  L 381.65 454.11
  C 388.81 454.11 394.61 448.42 394.61 441.41
  L 394.61 436.59
  C 394.61 429.58 388.81 423.89 381.65 423.89
  L 370.86 423.89
  C 370.70 423.89 370.57 424.02 370.57 424.18"
/>
<path stroke="#7d94cb" vector-effect="non-scaling-stroke" d="
  M 164.4961 513.7468
  C 164.38 506.25 158.20 500.26 150.7045 500.3818
  L 148.1448 500.4220
  C 140.65 500.54 134.66 506.71 134.7798 514.2137
  L 134.8439 518.2932
  C 134.96 525.79 141.14 531.78 148.6355 531.6582
  L 151.1952 531.6180
  C 158.69 531.50 164.68 525.33 164.5602 517.8263
  L 164.4961 513.7468"
/>
<path stroke="#7d94cb" vector-effect="non-scaling-stroke" d="
  M 393.4486 513.6045
  C 393.24 506.09 386.97 500.16 379.4536 500.3701
  L 376.8746 500.4421
  C 369.36 500.65 363.43 506.92 363.6402 514.4371
  L 363.7514 518.4155
  C 363.96 525.93 370.23 531.86 377.7464 531.6499
  L 380.3254 531.5779
  C 387.84 531.37 393.77 525.10 393.5598 517.5829
  L 393.4486 513.6045"
/>
<path stroke="#7d94cb" vector-effect="non-scaling-stroke" d="
  M 320.00 501.28
  L 319.86 510.96
  C 319.86 511.18 320.03 511.35 320.25 511.36
  L 331.45 511.51
  C 335.32 511.57 338.48 509.61 338.52 507.15
  L 338.54 505.61
  C 338.57 503.15 335.46 501.11 331.59 501.05
  L 320.39 500.90
  C 320.18 500.89 320.00 501.07 320.00 501.28"
/>
<path stroke="#7d94cb" vector-effect="non-scaling-stroke" d="
  M 320.12 519.00
  L 320.10 530.84
  C 320.10 530.96 320.20 531.06 320.32 531.06
  L 332.63 531.08
  C 337.01 531.09 340.56 528.66 340.57 525.65
  L 340.57 524.27
  C 340.58 521.26 337.03 518.81 332.65 518.80
  L 320.34 518.78
  C 320.22 518.78 320.12 518.88 320.12 519.00"
/>
<path stroke="#7d94cb" vector-effect="non-scaling-stroke" d="
  M 427.06 518.43
  C 430.79 518.41 432.75 518.40 432.93 518.41
  C 433.11 518.43 433.24 518.23 433.15 518.07
  C 430.87 513.40 428.85 508.80 427.10 504.25
  C 427.08 504.20 427.06 504.17 427.04 504.17
  C 427.03 504.16 427.01 504.16 426.99 504.16
  C 426.95 504.16 426.93 504.16 426.91 504.17
  C 426.90 504.17 426.87 504.20 426.86 504.25
  C 425.16 508.82 423.19 513.45 420.96 518.14
  C 420.88 518.30 421.01 518.49 421.19 518.48
  C 421.37 518.47 423.33 518.45 427.06 518.43"
/>
<path stroke="#7d94cb" vector-effect="non-scaling-stroke" d="
  M 463.26 500.98
  L 463.24 512.02
  C 463.24 512.13 463.33 512.22 463.44 512.22
  L 478.75 512.25
  C 482.62 512.25 485.76 509.75 485.77 506.65
  L 485.77 506.43
  C 485.78 503.33 482.64 500.81 478.77 500.81
  L 463.46 500.78
  C 463.35 500.78 463.26 500.87 463.26 500.98"
/>
<path stroke="#7d94cb" vector-effect="non-scaling-stroke" d="
  M 511.84 501.25
  L 511.68 530.69
  C 511.68 530.90 511.86 531.08 512.07 531.08
  L 522.87 531.14
  C 529.98 531.17 535.77 525.57 535.81 518.62
  L 535.83 513.56
  C 535.87 506.62 530.14 500.95 523.03 500.92
  L 512.23 500.86
  C 512.01 500.86 511.84 501.03 511.84 501.25"
/>
</g>
<path fill="#0032a1" d="
  M 930.00 0.00
  L 930.00 697.00
  L 0.00 697.00
  L 0.00 0.00
  L 930.00 0.00
  Z
  M 890.87 152.37
  C 890.87 152.62 891.07 152.82 891.32 152.82
  L 911.55 152.82
  C 911.80 152.82 912.00 152.62 912.00 152.37
  L 912.00 16.55
  C 912.00 16.30 911.80 16.10 911.55 16.10
  L 799.67 16.10
  C 799.42 16.10 799.22 16.30 799.22 16.55
  L 799.22 37.50
  C 799.22 37.75 799.42 37.95 799.67 37.95
  L 890.42 37.95
  C 890.67 37.95 890.87 38.15 890.87 38.40
  L 890.87 152.37
  Z
  M 35.30 162.73
  C 52.25 181.07 68.39 200.42 83.72 220.77
  C 94.41 234.98 99.46 244.27 112.18 264.80
  C 112.31 265.01 112.61 265.00 112.73 264.79
  C 121.27 249.12 126.79 239.03 129.30 234.54
  C 134.87 224.55 142.88 211.72 153.33 196.06
  C 166.03 177.03 180.38 158.65 196.39 140.90
  C 207.60 128.47 219.89 117.42 233.26 107.77
  C 241.55 101.78 250.30 97.15 259.49 93.86
  C 259.68 93.79 259.78 93.59 259.72 93.39
  L 249.04 58.34
  C 248.95 58.04 248.62 57.87 248.32 57.98
  C 224.61 66.28 204.18 80.71 185.86 98.12
  C 156.56 125.96 132.01 158.73 110.50 192.72
  C 110.33 192.98 109.96 193.00 109.77 192.76
  C 95.28 173.94 79.59 155.34 62.68 136.96
  C 62.50 136.76 62.20 136.75 62.01 136.93
  L 35.34 161.74
  C 35.05 162.00 35.04 162.45 35.30 162.73
  Z
  M 255.0323 203.9380
  C 254.96 182.64 237.63 165.44 216.3380 165.5128
  L 206.3580 165.5477
  C 185.06 165.62 167.86 182.95 167.9328 204.2420
  L 167.9677 214.2220
  C 168.04 235.52 185.37 252.72 206.6620 252.6472
  L 216.6420 252.6123
  C 237.94 252.54 255.14 235.21 255.0672 213.9180
  L 255.0323 203.9380
  Z
  M 300.01 251.33
  C 308.39 251.33 312.59 251.33 312.63 251.33
  C 312.88 251.34 313.09 251.13 313.09 250.88
  L 313.08 187.91
  C 313.08 187.72 313.24 187.56 313.44 187.56
  L 339.11 187.56
  C 339.45 187.56 339.72 187.28 339.72 186.94
  L 339.72 167.61
  C 339.72 167.21 339.41 166.89 339.01 166.88
  C 338.24 166.86 325.23 166.85 300.00 166.86
  C 274.76 166.86 261.75 166.87 260.98 166.89
  C 260.59 166.90 260.27 167.23 260.27 167.62
  L 260.28 186.95
  C 260.28 187.29 260.55 187.57 260.89 187.57
  L 286.56 187.56
  C 286.76 187.56 286.92 187.72 286.92 187.91
  L 286.93 250.88
  C 286.93 251.14 287.13 251.34 287.38 251.33
  C 287.42 251.33 291.63 251.33 300.01 251.33
  Z
  M 351.39 250.93
  C 351.39 251.15 351.57 251.33 351.79 251.33
  L 422.40 251.33
  C 422.62 251.33 422.80 251.15 422.80 250.93
  L 422.80 232.52
  C 422.80 232.30 422.62 232.12 422.40 232.12
  L 378.00 232.12
  C 377.78 232.12 377.60 231.94 377.60 231.72
  L 377.60 215.95
  C 377.60 215.73 377.78 215.55 378.00 215.55
  L 417.78 215.55
  C 418.00 215.55 418.18 215.37 418.18 215.15
  L 418.18 198.51
  C 418.18 198.29 418.00 198.11 417.78 198.11
  L 378.00 198.11
  C 377.78 198.11 377.60 197.93 377.60 197.71
  L 377.60 185.28
  C 377.60 185.06 377.78 184.88 378.00 184.88
  L 421.19 184.88
  C 421.41 184.88 421.59 184.70 421.59 184.48
  L 421.59 167.27
  C 421.59 167.05 421.41 166.87 421.19 166.87
  L 351.79 166.87
  C 351.57 166.87 351.39 167.05 351.39 167.27
  L 351.39 250.93
  Z
  M 409.46 298.22
  C 409.06 297.17 408.72 295.86 408.45 294.28
  C 408.40 293.99 408.33 293.71 408.23 293.43
  C 405.82 286.72 401.01 282.41 393.80 280.48
  C 388.15 278.98 384.66 279.00 378.04 278.98
  C 368.24 278.94 357.79 281.36 352.74 289.66
  C 349.37 295.21 349.17 300.95 352.15 306.90
  C 355.01 312.62 362.92 316.29 369.04 317.97
  C 373.33 319.15 377.33 320.15 381.04 320.97
  C 383.77 321.57 385.86 322.40 387.31 323.47
  C 389.30 324.94 390.22 326.54 390.06 328.28
  C 389.82 330.80 388.42 332.65 385.86 333.84
  C 382.48 335.41 378.96 335.35 375.31 333.68
  C 371.71 332.03 369.56 328.78 368.86 323.91
  C 368.77 323.34 368.27 322.93 367.70 322.96
  L 348.11 324.04
  C 347.72 324.06 347.43 324.41 347.47 324.80
  C 348.18 331.44 350.69 336.87 354.99 341.10
  C 360.37 346.38 368.54 347.77 376.75 348.00
  C 385.02 348.23 392.50 347.98 399.42 344.41
  C 408.40 339.78 413.55 330.55 411.10 320.62
  C 407.67 306.79 388.72 304.31 376.99 301.73
  C 373.88 301.05 369.46 299.37 370.98 295.73
  C 372.78 291.40 379.14 291.61 382.89 292.94
  C 385.68 293.93 387.45 296.08 388.20 299.39
  C 388.31 299.85 388.73 300.17 389.21 300.15
  L 408.92 299.06
  C 409.34 299.04 409.61 298.61 409.46 298.22
  Z
  M 82.19 296.00
  C 82.43 296.00 82.62 295.81 82.62 295.57
  L 82.62 280.42
  C 82.62 280.18 82.43 279.99 82.19 279.99
  L 28.92 279.99
  C 28.68 279.99 28.49 280.18 28.49 280.42
  L 28.49 346.57
  C 28.49 346.81 28.68 347.00 28.92 347.00
  L 50.30 347.00
  C 50.54 347.00 50.73 346.81 50.73 346.57
  L 50.73 320.43
  C 50.73 320.19 50.92 320.00 51.16 320.00
  L 77.73 320.00
  C 77.97 320.00 78.16 319.81 78.16 319.57
  L 78.16 306.42
  C 78.16 306.18 77.97 305.99 77.73 305.99
  L 51.16 305.99
  C 50.92 305.99 50.73 305.80 50.73 305.56
  L 50.73 296.43
  C 50.73 296.19 50.92 296.00 51.16 296.00
  L 82.19 296.00
  Z
  M 142.28 317.29
  C 143.43 316.87 144.69 316.86 145.96 316.31
  C 154.41 312.69 158.45 306.49 158.06 297.72
  C 157.92 294.53 157.30 291.92 156.20 289.87
  C 151.27 280.68 141.80 279.99 132.25 279.99
  C 121.07 279.99 108.51 279.99 94.58 279.99
  C 94.40 279.99 94.26 280.14 94.26 280.32
  L 94.26 346.36
  C 94.26 346.71 94.54 347.00 94.89 347.00
  L 116.01 347.00
  C 116.34 347.00 116.61 346.73 116.61 346.40
  L 116.61 320.66
  C 116.61 320.33 116.87 320.06 117.20 320.05
  C 121.06 319.95 123.91 321.44 125.75 324.53
  C 127.39 327.28 131.58 334.62 138.32 346.53
  C 138.49 346.82 138.80 347.00 139.13 347.00
  L 163.17 347.00
  C 163.47 347.00 163.66 346.68 163.52 346.42
  C 158.90 337.85 155.34 331.37 152.84 326.96
  C 151.68 324.91 149.64 322.55 146.73 319.88
  C 146.42 319.60 146.06 319.38 145.67 319.22
  L 142.27 317.89
  C 141.99 317.78 142.00 317.39 142.28 317.29
  Z
  M 229.24 280.41
  C 229.24 280.17 229.04 279.97 228.80 279.97
  L 171.04 279.97
  C 170.80 279.97 170.60 280.17 170.60 280.41
  L 170.60 346.59
  C 170.60 346.83 170.80 347.03 171.04 347.03
  L 229.93 347.03
  C 230.17 347.03 230.37 346.83 230.37 346.59
  L 230.37 331.45
  C 230.37 331.21 230.17 331.01 229.93 331.01
  L 193.34 331.01
  C 193.10 331.01 192.90 330.81 192.90 330.57
  L 192.90 319.45
  C 192.90 319.21 193.10 319.01 193.34 319.01
  L 226.17 319.01
  C 226.41 319.01 226.61 318.81 226.61 318.57
  L 226.61 305.42
  C 226.61 305.18 226.41 304.98 226.17 304.98
  L 193.33 304.98
  C 193.09 304.98 192.89 304.78 192.89 304.54
  L 192.89 296.42
  C 192.89 296.18 193.09 295.98 193.33 295.98
  L 228.80 295.98
  C 229.04 295.98 229.24 295.78 229.24 295.54
  L 229.24 280.41
  Z
  M 242.04 280.58
  L 242.27 346.56
  C 242.27 346.88 242.53 347.14 242.85 347.14
  L 278.08 347.02
  C 294.19 346.96 307.20 333.85 307.15 317.74
  L 307.11 308.96
  C 307.06 292.84 293.95 279.82 277.84 279.88
  L 242.61 280.00
  C 242.29 280.00 242.03 280.26 242.04 280.58
  Z
  M 422.23 346.42
  C 422.23 346.73 422.48 346.98 422.79 346.98
  L 481.32 346.97
  C 481.65 346.97 481.91 346.70 481.91 346.38
  L 481.91 331.43
  C 481.91 331.18 481.71 330.98 481.46 330.98
  L 444.98 330.99
  C 444.72 330.98 444.51 330.78 444.51 330.53
  L 444.49 319.61
  C 444.49 319.27 444.76 318.99 445.10 318.99
  L 477.43 319.00
  C 477.84 319.00 478.17 318.67 478.17 318.26
  L 478.15 305.45
  C 478.16 305.20 477.95 305.00 477.71 305.00
  L 444.95 304.99
  C 444.70 304.99 444.50 304.79 444.50 304.55
  L 444.50 296.51
  C 444.50 296.23 444.72 296.01 444.99 296.01
  L 480.22 296.01
  C 480.54 296.01 480.81 295.75 480.81 295.43
  L 480.80 280.65
  C 480.80 280.30 480.52 280.02 480.18 280.02
  L 422.91 280.01
  C 422.54 280.01 422.24 280.30 422.24 280.66
  L 422.23 346.42
  Z
  M 493.23 346.43
  C 493.23 346.74 493.48 346.99 493.79 346.99
  L 552.34 346.97
  C 552.66 346.97 552.93 346.71 552.93 346.38
  L 552.92 331.43
  C 552.92 331.19 552.72 330.98 552.47 330.98
  L 515.98 330.99
  C 515.72 330.99 515.51 330.79 515.51 330.53
  L 515.49 319.62
  C 515.49 319.28 515.77 319.00 516.10 319.00
  L 548.44 319.00
  C 548.85 319.00 549.18 318.67 549.18 318.26
  L 549.16 305.45
  C 549.16 305.20 548.96 305.00 548.71 305.00
  L 515.95 304.99
  C 515.70 304.99 515.50 304.79 515.50 304.55
  L 515.50 296.51
  C 515.50 296.23 515.72 296.01 515.99 296.01
  L 551.22 296.00
  C 551.55 296.00 551.81 295.74 551.81 295.42
  L 551.81 280.64
  C 551.81 280.29 551.53 280.01 551.19 280.01
  L 493.90 280.00
  C 493.53 280.00 493.23 280.30 493.23 280.66
  L 493.23 346.43
  Z
  M 603.95 347.00
  C 609.00 347.00 611.59 346.99 611.72 346.97
  C 612.07 346.91 612.36 346.65 612.45 346.30
  L 625.34 297.75
  C 625.34 297.74 625.35 297.74 625.36 297.74
  C 625.36 297.74 625.37 297.74 625.37 297.75
  L 625.37 346.40
  C 625.37 346.72 625.63 346.98 625.95 346.98
  L 643.24 346.98
  C 643.44 346.98 643.61 346.82 643.61 346.62
  L 643.61 280.30
  C 643.61 280.12 643.47 279.98 643.29 279.98
  L 615.10 279.98
  C 614.74 279.98 614.43 280.22 614.34 280.56
  L 604.03 319.39
  C 604.02 319.41 604.00 319.43 603.98 319.43
  C 603.96 319.43 603.95 319.43 603.93 319.43
  C 603.92 319.43 603.91 319.43 603.89 319.43
  C 603.87 319.43 603.84 319.41 603.84 319.39
  L 593.48 280.57
  C 593.39 280.23 593.08 279.99 592.72 279.99
  L 564.53 280.03
  C 564.35 280.03 564.21 280.17 564.21 280.35
  L 564.29 346.67
  C 564.29 346.87 564.46 347.03 564.66 347.03
  L 581.95 347.01
  C 582.27 347.01 582.53 346.75 582.53 346.43
  L 582.47 297.78
  C 582.47 297.77 582.48 297.76 582.49 297.76
  C 582.49 297.76 582.50 297.77 582.50 297.78
  L 595.45 346.31
  C 595.54 346.66 595.83 346.92 596.18 346.98
  C 596.31 347.00 598.90 347.01 603.95 347.00
  Z
  M 703.74 346.65
  C 703.81 346.86 704.00 347.00 704.21 347.00
  L 726.56 347.00
  C 726.91 347.00 727.14 346.65 727.02 346.33
  L 701.13 280.30
  C 701.06 280.11 700.88 279.99 700.68 279.99
  L 676.78 279.99
  C 676.58 279.99 676.40 280.11 676.33 280.30
  L 650.48 346.32
  C 650.36 346.64 650.59 346.99 650.94 346.99
  L 672.91 346.99
  C 673.14 346.99 673.33 346.84 673.39 346.63
  L 676.10 336.37
  C 676.16 336.16 676.35 336.01 676.58 336.01
  L 700.14 336.01
  C 700.35 336.01 700.54 336.15 700.61 336.36
  L 703.74 346.65
  Z
  M 755.12 311.37
  L 780.09 346.34
  C 780.38 346.75 780.87 347.00 781.38 347.00
  L 801.31 347.00
  C 801.48 347.00 801.61 346.87 801.61 346.70
  L 801.61 280.60
  C 801.61 280.27 801.34 280.00 801.01 280.00
  L 781.07 280.00
  C 780.75 280.00 780.49 280.26 780.49 280.57
  L 780.49 314.79
  C 780.49 315.11 780.08 315.24 779.90 314.98
  L 755.26 280.47
  C 755.05 280.17 754.70 279.99 754.33 279.99
  L 734.77 279.99
  C 734.43 279.99 734.15 280.27 734.15 280.61
  L 734.15 346.40
  C 734.15 346.73 734.42 347.00 734.75 347.00
  L 754.26 347.00
  C 754.59 347.00 754.85 346.74 754.85 346.41
  L 754.85 311.46
  C 754.85 311.31 755.04 311.25 755.12 311.37
  Z
  M 826.31 375.46
  L 826.07 370.93
  C 826.05 370.64 825.82 370.42 825.53 370.42
  L 623.84 370.42
  C 623.71 370.42 623.60 370.53 623.60 370.66
  L 623.57 469.09
  L 616.29 461.36
  C 616.07 461.13 615.72 461.12 615.49 461.33
  L 588.82 486.13
  C 588.58 486.36 588.56 486.74 588.79 486.98
  C 600.24 499.40 611.75 512.63 623.33 526.66
  C 623.52 526.90 623.61 527.17 623.59 527.46
  L 623.62 572.62
  C 623.62 572.89 623.84 573.11 624.11 573.11
  L 659.00 573.19
  L 681.17 608.36
  C 681.33 608.61 681.70 608.60 681.84 608.34
  L 701.11 573.16
  L 825.93 573.17
  C 826.08 573.17 826.20 573.05 826.20 572.90
  L 826.19 420.48
  C 837.52 411.86 849.91 405.10 863.34 400.21
  C 863.57 400.13 863.70 399.87 863.63 399.64
  L 852.96 364.65
  C 852.88 364.40 852.62 364.26 852.37 364.34
  C 843.36 367.32 834.82 371.04 826.76 375.51
  C 826.61 375.60 826.46 375.58 826.31 375.46
  Z
  M 130.91 447.28
  C 131.14 446.54 130.67 445.77 129.91 445.61
  L 123.24 444.22
  C 122.40 444.05 121.57 444.54 121.33 445.36
  C 121.18 446.10 120.50 447.48 119.29 449.51
  C 115.80 455.36 106.95 455.82 101.67 453.16
  C 93.88 449.22 93.57 438.28 96.16 430.99
  C 98.68 423.90 106.56 422.68 112.78 423.66
  C 117.42 424.38 118.90 427.26 120.59 431.13
  C 120.95 431.97 121.88 432.42 122.76 432.18
  L 129.32 430.45
  C 129.94 430.28 130.29 429.62 130.07 429.01
  C 128.81 425.50 127.07 422.90 124.86 421.20
  C 121.04 418.26 117.08 416.60 112.98 416.23
  C 106.20 415.62 98.88 416.87 93.27 421.08
  C 84.14 427.93 82.87 442.25 88.55 451.63
  C 92.88 458.79 99.93 462.19 109.69 461.83
  C 113.69 461.68 117.33 460.84 120.60 459.32
  C 125.78 456.91 129.22 452.89 130.91 447.28
  Z
  M 408.08 438.45
  C 407.77 452.92 418.45 461.56 432.15 461.86
  C 445.86 462.16 456.91 454.00 457.23 439.52
  C 457.54 425.05 446.86 416.41 433.15 416.12
  C 419.45 415.82 408.40 423.98 408.08 438.45
  Z
  M 168.62 458.73
  L 168.61 454.56
  C 168.61 454.30 168.40 454.09 168.14 454.09
  L 145.14 454.09
  C 144.95 454.09 144.83 453.89 144.92 453.72
  C 144.95 453.68 145.00 453.59 145.07 453.45
  C 145.09 453.40 145.10 453.34 145.10 453.29
  L 144.84 417.58
  C 144.83 417.26 144.58 417.00 144.26 417.00
  L 136.00 417.00
  C 135.68 417.00 135.42 417.26 135.42 417.58
  L 135.42 460.53
  C 135.42 460.79 135.63 461.00 135.89 461.00
  L 176.73 461.00
  C 177.19 461.00 177.60 460.72 177.77 460.29
  L 182.16 449.09
  C 182.28 448.77 182.59 448.55 182.94 448.55
  L 200.38 448.55
  C 200.68 448.55 200.94 448.73 201.06 449.00
  L 206.07 460.82
  C 206.11 460.92 206.20 460.98 206.30 460.98
  L 216.50 460.98
  C 216.57 460.98 216.62 460.91 216.59 460.84
  L 196.27 417.55
  C 196.11 417.21 195.77 416.99 195.40 416.99
  L 187.35 417.00
  C 186.96 417.00 186.62 417.26 186.51 417.64
  C 186.39 418.03 180.79 430.76 169.72 455.85
  C 169.39 456.60 169.04 458.52 168.85 458.80
  C 168.78 458.90 168.62 458.85 168.62 458.73
  Z
  M 264.77 460.14
  C 263.94 459.51 263.05 458.39 262.09 456.78
  C 261.46 455.72 258.61 451.92 253.56 445.37
  C 253.17 444.86 251.75 443.66 249.31 441.77
  C 249.10 441.60 249.17 441.26 249.43 441.19
  C 256.84 439.11 262.31 434.01 259.73 425.81
  C 257.51 418.75 250.66 417.04 243.75 417.00
  C 231.35 416.95 223.09 416.95 218.96 417.00
  C 218.76 417.01 218.60 417.17 218.60 417.37
  L 218.60 460.41
  C 218.60 460.71 218.84 460.95 219.14 460.95
  L 227.38 460.95
  C 227.68 460.95 227.93 460.70 227.93 460.40
  L 227.93 442.98
  C 227.93 442.71 228.16 442.48 228.44 442.49
  L 236.98 442.68
  C 237.17 442.69 237.34 442.72 237.51 442.79
  C 239.78 443.76 241.50 444.97 242.69 446.41
  C 245.82 450.22 249.26 454.86 253.01 460.35
  C 253.28 460.75 253.73 460.99 254.21 460.99
  L 264.48 460.99
  C 264.93 460.99 265.13 460.41 264.77 460.14
  Z
  M 277.20 434.98
  C 276.99 434.98 276.82 434.81 276.82 434.60
  L 276.82 424.28
  C 276.82 424.07 276.99 423.90 277.20 423.90
  L 305.00 423.90
  C 305.21 423.90 305.38 423.73 305.38 423.52
  L 305.38 417.37
  C 305.38 417.16 305.21 416.99 305.00 416.99
  L 267.77 416.99
  C 267.56 416.99 267.39 417.16 267.39 417.37
  L 267.39 460.62
  C 267.39 460.83 267.56 461.00 267.77 461.00
  L 306.06 461.00
  C 306.27 461.00 306.44 460.83 306.44 460.62
  L 306.44 454.48
  C 306.44 454.27 306.27 454.10 306.06 454.10
  L 277.22 454.10
  C 277.01 454.10 276.84 453.93 276.84 453.72
  L 276.84 442.28
  C 276.84 442.07 277.01 441.90 277.22 441.90
  L 303.14 441.90
  C 303.35 441.90 303.52 441.73 303.52 441.52
  L 303.52 435.36
  C 303.52 435.15 303.35 434.98 303.14 434.98
  L 277.20 434.98
  Z
  M 329.34 441.64
  C 338.64 453.77 343.43 460.02 343.69 460.40
  C 343.94 460.77 344.36 460.99 344.81 460.99
  L 352.59 460.99
  C 352.95 460.99 353.25 460.69 353.25 460.33
  L 353.25 417.45
  C 353.25 417.21 353.05 417.02 352.81 417.02
  L 344.61 417.02
  C 344.38 417.02 344.19 417.20 344.19 417.43
  L 344.19 446.21
  C 344.19 446.47 343.86 446.57 343.71 446.37
  C 342.43 444.65 339.90 441.32 336.11 436.38
  C 326.81 424.26 322.03 418.00 321.77 417.62
  C 321.52 417.25 321.10 417.03 320.65 417.03
  L 312.87 417.03
  C 312.50 417.03 312.21 417.33 312.21 417.69
  L 312.21 460.57
  C 312.21 460.81 312.41 461.00 312.65 461.00
  L 320.85 461.00
  C 321.08 461.00 321.27 460.82 321.27 460.59
  L 321.27 431.81
  C 321.27 431.56 321.59 431.45 321.75 431.65
  C 323.03 433.37 325.56 436.70 329.34 441.64
  Z
  M 361.32 417.57
  L 361.24 460.33
  C 361.24 460.68 361.52 460.96 361.87 460.96
  L 383.88 461.00
  C 395.06 461.02 404.14 451.96 404.16 440.77
  L 404.16 437.29
  C 404.18 426.09 395.14 417.00 383.96 416.98
  L 361.95 416.94
  C 361.60 416.94 361.32 417.22 361.32 417.57
  Z
  M 479.57 441.64
  C 488.87 453.77 493.65 460.03 493.91 460.41
  C 494.17 460.78 494.59 461.00 495.04 461.00
  L 502.82 461.01
  C 503.18 461.01 503.48 460.71 503.48 460.35
  L 503.50 417.46
  C 503.50 417.22 503.30 417.03 503.06 417.03
  L 494.86 417.02
  C 494.63 417.02 494.44 417.21 494.44 417.43
  L 494.42 446.22
  C 494.42 446.47 494.10 446.58 493.95 446.38
  C 492.67 444.65 490.13 441.32 486.35 436.39
  C 477.05 424.25 472.28 417.99 472.01 417.61
  C 471.76 417.24 471.34 417.02 470.89 417.02
  L 463.11 417.02
  C 462.75 417.02 462.45 417.31 462.45 417.68
  L 462.43 460.57
  C 462.43 460.80 462.62 461.00 462.87 461.00
  L 471.07 461.00
  C 471.30 461.00 471.49 460.82 471.49 460.59
  L 471.50 431.80
  C 471.50 431.55 471.83 431.44 471.98 431.65
  C 473.26 433.37 475.79 436.70 479.57 441.64
  Z
  M 125.05 515.49
  C 124.75 529.97 135.44 538.59 149.15 538.87
  C 162.86 539.15 173.90 530.98 174.20 516.50
  C 174.49 502.03 163.80 493.40 150.09 493.12
  C 136.38 492.84 125.34 501.02 125.05 515.49
  Z
  M 354.08 515.47
  C 353.77 529.94 364.45 538.57 378.15 538.87
  C 391.86 539.16 402.90 531.00 403.21 516.53
  C 403.52 502.05 392.84 493.42 379.14 493.13
  C 365.43 492.84 354.39 501.00 354.08 515.47
  Z
  M 103.96 538.00
  C 106.50 538.00 107.96 537.97 108.33 537.89
  C 108.49 537.85 108.60 537.72 108.60 537.56
  L 108.60 501.31
  C 108.60 501.09 108.78 500.91 109.00 500.91
  L 124.08 500.91
  C 124.37 500.91 124.60 500.68 124.60 500.39
  L 124.60 494.52
  C 124.60 494.24 124.37 494.02 124.09 494.02
  C 117.54 493.99 110.83 493.98 103.99 493.99
  C 97.14 493.98 90.44 493.98 83.88 493.99
  C 83.60 493.99 83.37 494.22 83.37 494.50
  L 83.37 500.37
  C 83.37 500.65 83.60 500.89 83.89 500.89
  L 98.97 500.90
  C 99.19 500.90 99.37 501.08 99.37 501.30
  L 99.32 537.55
  C 99.32 537.71 99.44 537.85 99.59 537.88
  C 99.97 537.96 101.42 538.00 103.96 538.00
  Z
  M 222.20 524.38
  C 221.92 523.27 221.89 521.89 221.52 520.72
  C 215.97 503.57 213.17 494.89 213.14 494.68
  C 213.08 494.30 212.76 494.02 212.38 494.01
  L 203.22 493.99
  C 202.84 493.99 202.50 494.24 202.39 494.60
  L 192.80 525.04
  C 192.77 525.12 192.65 525.12 192.63 525.03
  L 184.49 494.23
  C 184.45 494.10 184.34 494.01 184.20 494.01
  L 175.08 494.01
  C 174.93 494.01 174.82 494.16 174.86 494.31
  L 188.02 537.48
  C 188.11 537.78 188.39 537.99 188.71 537.99
  L 196.59 537.99
  C 196.98 537.99 197.32 537.74 197.44 537.37
  L 207.52 505.35
  C 207.59 505.14 207.89 505.14 207.95 505.35
  L 217.70 537.33
  C 217.82 537.72 218.18 537.99 218.59 537.99
  L 226.19 537.99
  C 226.51 537.99 226.79 537.78 226.89 537.47
  L 240.53 494.19
  C 240.56 494.10 240.49 494.01 240.39 494.01
  L 231.25 494.01
  C 231.14 494.01 231.04 494.09 231.00 494.20
  L 222.64 524.38
  C 222.58 524.61 222.26 524.61 222.20 524.38
  Z
  M 260.57 518.64
  C 269.87 530.78 274.65 537.04 274.91 537.42
  C 275.17 537.79 275.59 538.01 276.04 538.01
  L 283.82 538.01
  C 284.19 538.01 284.48 537.72 284.48 537.35
  L 284.50 494.46
  C 284.50 494.22 284.31 494.03 284.06 494.02
  L 275.86 494.02
  C 275.63 494.02 275.44 494.20 275.44 494.43
  L 275.42 523.22
  C 275.42 523.48 275.10 523.59 274.95 523.38
  C 273.67 521.66 271.14 518.33 267.35 513.39
  C 258.05 501.25 253.27 494.99 253.01 494.61
  C 252.76 494.24 252.34 494.02 251.89 494.02
  L 244.11 494.01
  C 243.74 494.01 243.45 494.31 243.44 494.67
  L 243.42 537.57
  C 243.42 537.81 243.62 538.00 243.86 538.00
  L 252.07 538.01
  C 252.30 538.01 252.49 537.82 252.49 537.60
  L 252.50 508.81
  C 252.50 508.55 252.83 508.44 252.98 508.65
  C 254.26 510.37 256.79 513.70 260.57 518.64
  Z
  M 342.71 514.13
  C 345.75 512.52 347.43 509.98 347.74 506.51
  C 348.39 499.32 341.12 494.23 334.44 494.10
  C 326.59 493.95 318.79 493.94 311.04 494.05
  C 310.81 494.06 310.62 494.25 310.62 494.48
  L 310.62 537.41
  C 310.62 537.72 310.88 537.98 311.19 537.98
  C 318.80 538.00 326.08 538.01 333.01 538.00
  C 340.56 538.00 349.36 534.99 350.10 526.04
  C 350.53 520.75 348.07 516.92 342.72 514.53
  C 342.55 514.45 342.55 514.22 342.71 514.13
  Z
  M 441.85 537.80
  C 441.90 537.91 442.01 537.98 442.13 537.98
  L 451.67 537.98
  C 451.90 537.98 452.05 537.74 451.95 537.54
  L 431.60 494.19
  C 431.55 494.08 431.44 494.01 431.32 494.01
  L 422.53 494.01
  C 422.41 494.01 422.30 494.08 422.25 494.19
  L 403.14 537.54
  C 403.05 537.75 403.20 537.98 403.43 537.98
  L 412.77 537.98
  C 412.90 537.98 413.01 537.90 413.06 537.78
  L 417.76 525.78
  C 417.81 525.66 417.92 525.58 418.05 525.58
  L 435.90 525.58
  C 436.02 525.58 436.13 525.65 436.18 525.76
  L 441.85 537.80
  Z
  M 500.06 537.12
  C 499.23 536.49 498.33 535.37 497.37 533.76
  C 496.73 532.70 493.88 528.90 488.81 522.36
  C 488.41 521.86 486.99 520.66 484.55 518.77
  C 484.33 518.60 484.40 518.26 484.67 518.19
  C 492.08 516.09 497.54 510.98 494.94 502.78
  C 492.70 495.72 485.85 494.02 478.93 494.00
  C 466.53 493.97 458.26 493.99 454.13 494.05
  C 453.93 494.06 453.77 494.22 453.77 494.42
  L 453.86 537.48
  C 453.86 537.78 454.10 538.02 454.40 538.02
  L 462.65 538.01
  C 462.95 538.00 463.20 537.76 463.20 537.45
  L 463.16 520.03
  C 463.16 519.75 463.39 519.53 463.67 519.53
  L 472.21 519.71
  C 472.40 519.71 472.58 519.75 472.74 519.81
  C 475.01 520.78 476.74 521.99 477.93 523.43
  C 481.07 527.23 484.52 531.87 488.29 537.35
  C 488.56 537.75 489.01 537.99 489.49 537.99
  L 499.77 537.97
  C 500.22 537.97 500.42 537.39 500.06 537.12
  Z
  M 502.40 494.58
  L 502.48 537.44
  C 502.48 537.76 502.74 538.03 503.07 538.03
  L 525.18 537.99
  C 536.38 537.97 545.44 528.86 545.42 517.64
  L 545.42 514.22
  C 545.40 503.01 536.30 493.93 525.10 493.95
  L 502.99 493.99
  C 502.67 493.99 502.40 494.25 502.40 494.58
  Z
  M 37.29 542.89
  C 37.29 542.71 37.14 542.56 36.96 542.56
  L 16.13 542.56
  C 15.95 542.56 15.80 542.71 15.80 542.89
  L 15.80 678.62
  C 15.80 678.80 15.95 678.95 16.13 678.95
  L 128.45 678.95
  C 128.63 678.95 128.78 678.80 128.78 678.62
  L 128.78 657.93
  C 128.78 657.75 128.63 657.60 128.45 657.60
  L 37.62 657.60
  C 37.44 657.60 37.29 657.45 37.29 657.27
  L 37.29 542.89
  Z"
/>
<path fill="#ffffff" d="
  M 890.87 152.37
  L 890.87 38.40
  C 890.87 38.15 890.67 37.95 890.42 37.95
  L 799.67 37.95
  C 799.42 37.95 799.22 37.75 799.22 37.50
  L 799.22 16.55
  C 799.22 16.30 799.42 16.10 799.67 16.10
  L 911.55 16.10
  C 911.80 16.10 912.00 16.30 912.00 16.55
  L 912.00 152.37
  C 912.00 152.62 911.80 152.82 911.55 152.82
  L 891.32 152.82
  C 891.07 152.82 890.87 152.62 890.87 152.37
  Z"
/>
<path fill="#ffffff" d="
  M 35.34 161.74
  L 62.01 136.93
  C 62.20 136.75 62.50 136.76 62.68 136.96
  C 79.59 155.34 95.28 173.94 109.77 192.76
  C 109.96 193.00 110.33 192.98 110.50 192.72
  C 132.01 158.73 156.56 125.96 185.86 98.12
  C 204.18 80.71 224.61 66.28 248.32 57.98
  C 248.62 57.87 248.95 58.04 249.04 58.34
  L 259.72 93.39
  C 259.78 93.59 259.68 93.79 259.49 93.86
  C 250.30 97.15 241.55 101.78 233.26 107.77
  C 219.89 117.42 207.60 128.47 196.39 140.90
  C 180.38 158.65 166.03 177.03 153.33 196.06
  C 142.88 211.72 134.87 224.55 129.30 234.54
  C 126.79 239.03 121.27 249.12 112.73 264.79
  C 112.61 265.00 112.31 265.01 112.18 264.80
  C 99.46 244.27 94.41 234.98 83.72 220.77
  C 68.39 200.42 52.25 181.07 35.30 162.73
  C 35.04 162.45 35.05 162.00 35.34 161.74
  Z"
/>
<path fill="#ffffff" d="
  M 255.0672 213.9180
  C 255.14 235.21 237.94 252.54 216.6420 252.6123
  L 206.6620 252.6472
  C 185.37 252.72 168.04 235.52 167.9677 214.2220
  L 167.9328 204.2420
  C 167.86 182.95 185.06 165.62 206.3580 165.5477
  L 216.3380 165.5128
  C 237.63 165.44 254.96 182.64 255.0323 203.9380
  L 255.0672 213.9180
  Z
  M 193.88 209.14
  C 193.89 220.91 196.87 233.15 211.52 233.13
  C 226.17 233.11 229.12 220.87 229.11 209.10
  C 229.10 197.34 226.12 185.10 211.47 185.11
  C 196.82 185.13 193.86 197.37 193.88 209.14
  Z"
/>
<path fill="#ffffff" d="
  M 300.00 166.86
  C 325.23 166.85 338.24 166.86 339.01 166.88
  C 339.41 166.89 339.72 167.21 339.72 167.61
  L 339.72 186.94
  C 339.72 187.28 339.45 187.56 339.11 187.56
  L 313.44 187.56
  C 313.24 187.56 313.08 187.72 313.08 187.91
  L 313.09 250.88
  C 313.09 251.13 312.88 251.34 312.63 251.33
  C 312.59 251.33 308.39 251.33 300.01 251.33
  C 291.63 251.33 287.42 251.33 287.38 251.33
  C 287.13 251.34 286.93 251.14 286.93 250.88
  L 286.92 187.91
  C 286.92 187.72 286.76 187.56 286.56 187.56
  L 260.89 187.57
  C 260.55 187.57 260.28 187.29 260.28 186.95
  L 260.27 167.62
  C 260.27 167.23 260.59 166.90 260.98 166.89
  C 261.75 166.87 274.76 166.86 300.00 166.86
  Z"
/>
<path fill="#ffffff" d="
  M 351.39 250.93
  L 351.39 167.27
  C 351.39 167.05 351.57 166.87 351.79 166.87
  L 421.19 166.87
  C 421.41 166.87 421.59 167.05 421.59 167.27
  L 421.59 184.48
  C 421.59 184.70 421.41 184.88 421.19 184.88
  L 378.00 184.88
  C 377.78 184.88 377.60 185.06 377.60 185.28
  L 377.60 197.71
  C 377.60 197.93 377.78 198.11 378.00 198.11
  L 417.78 198.11
  C 418.00 198.11 418.18 198.29 418.18 198.51
  L 418.18 215.15
  C 418.18 215.37 418.00 215.55 417.78 215.55
  L 378.00 215.55
  C 377.78 215.55 377.60 215.73 377.60 215.95
  L 377.60 231.72
  C 377.60 231.94 377.78 232.12 378.00 232.12
  L 422.40 232.12
  C 422.62 232.12 422.80 232.30 422.80 232.52
  L 422.80 250.93
  C 422.80 251.15 422.62 251.33 422.40 251.33
  L 351.79 251.33
  C 351.57 251.33 351.39 251.15 351.39 250.93
  Z"
/>
<path fill="#0032a1" d="
  M 211.47 185.11
  C 226.12 185.10 229.10 197.34 229.11 209.10
  C 229.12 220.87 226.17 233.11 211.52 233.13
  C 196.87 233.15 193.89 220.91 193.88 209.14
  C 193.86 197.37 196.82 185.13 211.47 185.11
  Z"
/>
<path fill="#faf5f5" d="
  M 409.46 298.22
  C 409.61 298.61 409.34 299.04 408.92 299.06
  L 389.21 300.15
  C 388.73 300.17 388.31 299.85 388.20 299.39
  C 387.45 296.08 385.68 293.93 382.89 292.94
  C 379.14 291.61 372.78 291.40 370.98 295.73
  C 369.46 299.37 373.88 301.05 376.99 301.73
  C 388.72 304.31 407.67 306.79 411.10 320.62
  C 413.55 330.55 408.40 339.78 399.42 344.41
  C 392.50 347.98 385.02 348.23 376.75 348.00
  C 368.54 347.77 360.37 346.38 354.99 341.10
  C 350.69 336.87 348.18 331.44 347.47 324.80
  C 347.43 324.41 347.72 324.06 348.11 324.04
  L 367.70 322.96
  C 368.27 322.93 368.77 323.34 368.86 323.91
  C 369.56 328.78 371.71 332.03 375.31 333.68
  C 378.96 335.35 382.48 335.41 385.86 333.84
  C 388.42 332.65 389.82 330.80 390.06 328.28
  C 390.22 326.54 389.30 324.94 387.31 323.47
  C 385.86 322.40 383.77 321.57 381.04 320.97
  C 377.33 320.15 373.33 319.15 369.04 317.97
  C 362.92 316.29 355.01 312.62 352.15 306.90
  C 349.17 300.95 349.37 295.21 352.74 289.66
  C 357.79 281.36 368.24 278.94 378.04 278.98
  C 384.66 279.00 388.15 278.98 393.80 280.48
  C 401.01 282.41 405.82 286.72 408.23 293.43
  C 408.33 293.71 408.40 293.99 408.45 294.28
  C 408.72 295.86 409.06 297.17 409.46 298.22
  Z"
/>
<path fill="#faf5f5" d="
  M 82.19 296.00
  L 51.16 296.00
  C 50.92 296.00 50.73 296.19 50.73 296.43
  L 50.73 305.56
  C 50.73 305.80 50.92 305.99 51.16 305.99
  L 77.73 305.99
  C 77.97 305.99 78.16 306.18 78.16 306.42
  L 78.16 319.57
  C 78.16 319.81 77.97 320.00 77.73 320.00
  L 51.16 320.00
  C 50.92 320.00 50.73 320.19 50.73 320.43
  L 50.73 346.57
  C 50.73 346.81 50.54 347.00 50.30 347.00
  L 28.92 347.00
  C 28.68 347.00 28.49 346.81 28.49 346.57
  L 28.49 280.42
  C 28.49 280.18 28.68 279.99 28.92 279.99
  L 82.19 279.99
  C 82.43 279.99 82.62 280.18 82.62 280.42
  L 82.62 295.57
  C 82.62 295.81 82.43 296.00 82.19 296.00
  Z"
/>
<path fill="#faf5f5" d="
  M 142.27 317.89
  L 145.67 319.22
  C 146.06 319.38 146.42 319.60 146.73 319.88
  C 149.64 322.55 151.68 324.91 152.84 326.96
  C 155.34 331.37 158.90 337.85 163.52 346.42
  C 163.66 346.68 163.47 347.00 163.17 347.00
  L 139.13 347.00
  C 138.80 347.00 138.49 346.82 138.32 346.53
  C 131.58 334.62 127.39 327.28 125.75 324.53
  C 123.91 321.44 121.06 319.95 117.20 320.05
  C 116.87 320.06 116.61 320.33 116.61 320.66
  L 116.61 346.40
  C 116.61 346.73 116.34 347.00 116.01 347.00
  L 94.89 347.00
  C 94.54 347.00 94.26 346.71 94.26 346.36
  L 94.26 280.32
  C 94.26 280.14 94.40 279.99 94.58 279.99
  C 108.51 279.99 121.07 279.99 132.25 279.99
  C 141.80 279.99 151.27 280.68 156.20 289.87
  C 157.30 291.92 157.92 294.53 158.06 297.72
  C 158.45 306.49 154.41 312.69 145.96 316.31
  C 144.69 316.86 143.43 316.87 142.28 317.29
  C 142.00 317.39 141.99 317.78 142.27 317.89
  Z
  M 116.52 294.29
  L 116.70 306.75
  C 116.70 306.86 116.79 306.95 116.90 306.95
  L 126.80 306.81
  C 131.78 306.74 135.78 304.22 135.74 301.18
  L 135.72 299.34
  C 135.67 296.29 131.60 293.88 126.62 293.95
  L 116.72 294.09
  C 116.61 294.09 116.52 294.18 116.52 294.29
  Z"
/>
<path fill="#faf5f5" d="
  M 229.24 280.41
  L 229.24 295.54
  C 229.24 295.78 229.04 295.98 228.80 295.98
  L 193.33 295.98
  C 193.09 295.98 192.89 296.18 192.89 296.42
  L 192.89 304.54
  C 192.89 304.78 193.09 304.98 193.33 304.98
  L 226.17 304.98
  C 226.41 304.98 226.61 305.18 226.61 305.42
  L 226.61 318.57
  C 226.61 318.81 226.41 319.01 226.17 319.01
  L 193.34 319.01
  C 193.10 319.01 192.90 319.21 192.90 319.45
  L 192.90 330.57
  C 192.90 330.81 193.10 331.01 193.34 331.01
  L 229.93 331.01
  C 230.17 331.01 230.37 331.21 230.37 331.45
  L 230.37 346.59
  C 230.37 346.83 230.17 347.03 229.93 347.03
  L 171.04 347.03
  C 170.80 347.03 170.60 346.83 170.60 346.59
  L 170.60 280.41
  C 170.60 280.17 170.80 279.97 171.04 279.97
  L 228.80 279.97
  C 229.04 279.97 229.24 280.17 229.24 280.41
  Z"
/>
<path fill="#faf5f5" d="
  M 242.04 280.58
  C 242.03 280.26 242.29 280.00 242.61 280.00
  L 277.84 279.88
  C 293.95 279.82 307.06 292.84 307.11 308.96
  L 307.15 317.74
  C 307.20 333.85 294.19 346.96 278.08 347.02
  L 242.85 347.14
  C 242.53 347.14 242.27 346.88 242.27 346.56
  L 242.04 280.58
  Z
  M 264.45 296.49
  L 264.63 330.83
  C 264.63 331.00 264.77 331.13 264.93 331.13
  L 272.25 331.09
  C 279.22 331.06 284.84 325.30 284.80 318.23
  L 284.76 308.89
  C 284.72 301.82 279.04 296.12 272.07 296.15
  L 264.75 296.19
  C 264.58 296.19 264.45 296.33 264.45 296.49
  Z"
/>
<path fill="#faf5f5" d="
  M 422.23 346.42
  L 422.24 280.66
  C 422.24 280.30 422.54 280.01 422.91 280.01
  L 480.18 280.02
  C 480.52 280.02 480.80 280.30 480.80 280.65
  L 480.81 295.43
  C 480.81 295.75 480.54 296.01 480.22 296.01
  L 444.99 296.01
  C 444.72 296.01 444.50 296.23 444.50 296.51
  L 444.50 304.55
  C 444.50 304.79 444.70 304.99 444.95 304.99
  L 477.71 305.00
  C 477.95 305.00 478.16 305.20 478.15 305.45
  L 478.17 318.26
  C 478.17 318.67 477.84 319.00 477.43 319.00
  L 445.10 318.99
  C 444.76 318.99 444.49 319.27 444.49 319.61
  L 444.51 330.53
  C 444.51 330.78 444.72 330.98 444.98 330.99
  L 481.46 330.98
  C 481.71 330.98 481.91 331.18 481.91 331.43
  L 481.91 346.38
  C 481.91 346.70 481.65 346.97 481.32 346.97
  L 422.79 346.98
  C 422.48 346.98 422.23 346.73 422.23 346.42
  Z"
/>
<path fill="#faf5f5" d="
  M 493.23 346.43
  L 493.23 280.66
  C 493.23 280.30 493.53 280.00 493.90 280.00
  L 551.19 280.01
  C 551.53 280.01 551.81 280.29 551.81 280.64
  L 551.81 295.42
  C 551.81 295.74 551.55 296.00 551.22 296.00
  L 515.99 296.01
  C 515.72 296.01 515.50 296.23 515.50 296.51
  L 515.50 304.55
  C 515.50 304.79 515.70 304.99 515.95 304.99
  L 548.71 305.00
  C 548.96 305.00 549.16 305.20 549.16 305.45
  L 549.18 318.26
  C 549.18 318.67 548.85 319.00 548.44 319.00
  L 516.10 319.00
  C 515.77 319.00 515.49 319.28 515.49 319.62
  L 515.51 330.53
  C 515.51 330.79 515.72 330.99 515.98 330.99
  L 552.47 330.98
  C 552.72 330.98 552.92 331.19 552.92 331.43
  L 552.93 346.38
  C 552.93 346.71 552.66 346.97 552.34 346.97
  L 493.79 346.99
  C 493.48 346.99 493.23 346.74 493.23 346.43
  Z"
/>
<path fill="#faf5f5" d="
  M 603.93 319.43
  C 603.95 319.43 603.96 319.43 603.98 319.43
  C 604.00 319.43 604.02 319.41 604.03 319.39
  L 614.34 280.56
  C 614.43 280.22 614.74 279.98 615.10 279.98
  L 643.29 279.98
  C 643.47 279.98 643.61 280.12 643.61 280.30
  L 643.61 346.62
  C 643.61 346.82 643.44 346.98 643.24 346.98
  L 625.95 346.98
  C 625.63 346.98 625.37 346.72 625.37 346.40
  L 625.37 297.75
  C 625.37 297.74 625.36 297.74 625.36 297.74
  C 625.35 297.74 625.34 297.74 625.34 297.75
  L 612.45 346.30
  C 612.36 346.65 612.07 346.91 611.72 346.97
  C 611.59 346.99 609.00 347.00 603.95 347.00
  C 598.90 347.01 596.31 347.00 596.18 346.98
  C 595.83 346.92 595.54 346.66 595.45 346.31
  L 582.50 297.78
  C 582.50 297.77 582.49 297.76 582.49 297.76
  C 582.48 297.76 582.47 297.77 582.47 297.78
  L 582.53 346.43
  C 582.53 346.75 582.27 347.01 581.95 347.01
  L 564.66 347.03
  C 564.46 347.03 564.29 346.87 564.29 346.67
  L 564.21 280.35
  C 564.21 280.17 564.35 280.03 564.53 280.03
  L 592.72 279.99
  C 593.08 279.99 593.39 280.23 593.48 280.57
  L 603.84 319.39
  C 603.84 319.41 603.87 319.43 603.89 319.43
  C 603.91 319.43 603.92 319.43 603.93 319.43
  Z"
/>
<path fill="#faf5f5" d="
  M 703.74 346.65
  L 700.61 336.36
  C 700.54 336.15 700.35 336.01 700.14 336.01
  L 676.58 336.01
  C 676.35 336.01 676.16 336.16 676.10 336.37
  L 673.39 346.63
  C 673.33 346.84 673.14 346.99 672.91 346.99
  L 650.94 346.99
  C 650.59 346.99 650.36 346.64 650.48 346.32
  L 676.33 280.30
  C 676.40 280.11 676.58 279.99 676.78 279.99
  L 700.68 279.99
  C 700.88 279.99 701.06 280.11 701.13 280.30
  L 727.02 346.33
  C 727.14 346.65 726.91 347.00 726.56 347.00
  L 704.21 347.00
  C 704.00 347.00 703.81 346.86 703.74 346.65
  Z
  M 688.57 320.99
  C 691.64 320.99 693.88 320.97 695.30 320.93
  C 695.59 320.93 695.79 320.64 695.70 320.36
  C 693.51 313.98 691.24 306.89 688.88 299.10
  C 688.79 298.78 688.67 298.62 688.53 298.62
  C 688.40 298.62 688.28 298.78 688.19 299.11
  C 685.85 306.90 683.61 314.00 681.44 320.38
  C 681.35 320.66 681.55 320.95 681.84 320.96
  C 683.26 320.98 685.50 321.00 688.57 320.99
  Z"
/>
<path fill="#faf5f5" d="
  M 754.85 311.46
  L 754.85 346.41
  C 754.85 346.74 754.59 347.00 754.26 347.00
  L 734.75 347.00
  C 734.42 347.00 734.15 346.73 734.15 346.40
  L 734.15 280.61
  C 734.15 280.27 734.43 279.99 734.77 279.99
  L 754.33 279.99
  C 754.70 279.99 755.05 280.17 755.26 280.47
  L 779.90 314.98
  C 780.08 315.24 780.49 315.11 780.49 314.79
  L 780.49 280.57
  C 780.49 280.26 780.75 280.00 781.07 280.00
  L 801.01 280.00
  C 801.34 280.00 801.61 280.27 801.61 280.60
  L 801.61 346.70
  C 801.61 346.87 801.48 347.00 801.31 347.00
  L 781.38 347.00
  C 780.87 347.00 780.38 346.75 780.09 346.34
  L 755.12 311.37
  C 755.04 311.25 754.85 311.31 754.85 311.46
  Z"
/>
<path fill="#0032a1" d="
  M 116.52 294.29
  C 116.52 294.18 116.61 294.09 116.72 294.09
  L 126.62 293.95
  C 131.60 293.88 135.67 296.29 135.72 299.34
  L 135.74 301.18
  C 135.78 304.22 131.78 306.74 126.80 306.81
  L 116.90 306.95
  C 116.79 306.95 116.70 306.86 116.70 306.75
  L 116.52 294.29
  Z"
/>
<path fill="#0032a1" d="
  M 264.45 296.49
  C 264.45 296.33 264.58 296.19 264.75 296.19
  L 272.07 296.15
  C 279.04 296.12 284.72 301.82 284.76 308.89
  L 284.80 318.23
  C 284.84 325.30 279.22 331.06 272.25 331.09
  L 264.93 331.13
  C 264.77 331.13 264.63 331.00 264.63 330.83
  L 264.45 296.49
  Z"
/>
<path fill="#0032a1" d="
  M 688.53 298.62
  C 688.67 298.62 688.79 298.78 688.88 299.10
  C 691.24 306.89 693.51 313.98 695.70 320.36
  C 695.79 320.64 695.59 320.93 695.30 320.93
  C 693.88 320.97 691.64 320.99 688.57 320.99
  C 685.50 321.00 683.26 320.98 681.84 320.96
  C 681.55 320.95 681.35 320.66 681.44 320.38
  C 683.61 314.00 685.85 306.90 688.19 299.11
  C 688.28 298.78 688.40 298.62 688.53 298.62
  Z"
/>
<path fill="#e2241b" d="
  M 826.19 420.48
  C 818.74 425.87 811.63 431.70 804.88 437.95
  C 790.71 451.02 777.20 465.49 764.34 481.34
  C 745.71 504.31 728.92 527.85 713.99 551.94
  L 701.11 573.16
  L 681.84 608.34
  C 681.70 608.60 681.33 608.61 681.17 608.36
  L 659.00 573.19
  C 648.15 557.52 636.50 542.31 624.05 527.58
  C 624.01 527.52 623.94 527.49 623.87 527.48
  L 623.59 527.46
  C 623.61 527.17 623.52 526.90 623.33 526.66
  C 611.75 512.63 600.24 499.40 588.79 486.98
  C 588.56 486.74 588.58 486.36 588.82 486.13
  L 615.49 461.33
  C 615.72 461.12 616.07 461.13 616.29 461.36
  L 623.57 469.09
  L 644.92 493.79
  C 656.45 507.39 667.68 521.42 678.61 535.87
  C 678.90 536.25 679.49 536.22 679.74 535.81
  C 697.75 506.35 717.79 478.37 739.88 451.88
  C 751.63 437.78 764.21 424.44 777.61 411.86
  C 784.62 405.27 792.47 398.66 801.14 392.02
  C 808.95 386.18 817.21 380.81 825.94 375.91
  C 826.15 375.79 826.27 375.64 826.31 375.46
  C 826.46 375.58 826.61 375.60 826.76 375.51
  C 834.82 371.04 843.36 367.32 852.37 364.34
  C 852.62 364.26 852.88 364.40 852.96 364.65
  L 863.63 399.64
  C 863.70 399.87 863.57 400.13 863.34 400.21
  C 849.91 405.10 837.52 411.86 826.19 420.48
  Z"
/>
<path fill="#ffffff" d="
  M 826.31 375.46
  C 826.27 375.64 826.15 375.79 825.94 375.91
  C 817.21 380.81 808.95 386.18 801.14 392.02
  L 645.40 392.02
  C 645.15 392.02 644.94 392.22 644.94 392.47
  L 644.92 493.79
  L 623.57 469.09
  L 623.60 370.66
  C 623.60 370.53 623.71 370.42 623.84 370.42
  L 825.53 370.42
  C 825.82 370.42 826.05 370.64 826.07 370.93
  L 826.31 375.46
  Z"
/>
<path fill="#0032a1" d="
  M 801.14 392.02
  C 792.47 398.66 784.62 405.27 777.61 411.86
  C 764.21 424.44 751.63 437.78 739.88 451.88
  C 717.79 478.37 697.75 506.35 679.74 535.81
  C 679.49 536.22 678.90 536.25 678.61 535.87
  C 667.68 521.42 656.45 507.39 644.92 493.79
  L 644.94 392.47
  C 644.94 392.22 645.15 392.02 645.40 392.02
  L 801.14 392.02
  Z"
/>
<path fill="#faf5f5" d="
  M 130.91 447.28
  C 129.22 452.89 125.78 456.91 120.60 459.32
  C 117.33 460.84 113.69 461.68 109.69 461.83
  C 99.93 462.19 92.88 458.79 88.55 451.63
  C 82.87 442.25 84.14 427.93 93.27 421.08
  C 98.88 416.87 106.20 415.62 112.98 416.23
  C 117.08 416.60 121.04 418.26 124.86 421.20
  C 127.07 422.90 128.81 425.50 130.07 429.01
  C 130.29 429.62 129.94 430.28 129.32 430.45
  L 122.76 432.18
  C 121.88 432.42 120.95 431.97 120.59 431.13
  C 118.90 427.26 117.42 424.38 112.78 423.66
  C 106.56 422.68 98.68 423.90 96.16 430.99
  C 93.57 438.28 93.88 449.22 101.67 453.16
  C 106.95 455.82 115.80 455.36 119.29 449.51
  C 120.50 447.48 121.18 446.10 121.33 445.36
  C 121.57 444.54 122.40 444.05 123.24 444.22
  L 129.91 445.61
  C 130.67 445.77 131.14 446.54 130.91 447.28
  Z"
/>
<path fill="#faf5f5" d="
  M 433.15 416.12
  C 446.86 416.41 457.54 425.05 457.23 439.52
  C 456.91 454.00 445.86 462.16 432.15 461.86
  C 418.45 461.56 407.77 452.92 408.08 438.45
  C 408.40 423.98 419.45 415.82 433.15 416.12
  Z
  M 447.4181 436.4236
  C 447.12 428.91 440.78 423.06 433.2625 423.3612
  L 430.7046 423.4639
  C 423.19 423.77 417.34 430.10 417.6421 437.6196
  L 417.8019 441.5964
  C 418.10 449.11 424.44 454.96 431.9575 454.6588
  L 434.5154 454.5561
  C 442.03 454.25 447.88 447.92 447.5779 440.4004
  L 447.4181 436.4236
  Z"
/>
<path fill="#faf5f5" d="
  M 168.85 458.80
  C 169.04 458.52 169.39 456.60 169.72 455.85
  C 180.79 430.76 186.39 418.03 186.51 417.64
  C 186.62 417.26 186.96 417.00 187.35 417.00
  L 195.40 416.99
  C 195.77 416.99 196.11 417.21 196.27 417.55
  L 216.59 460.84
  C 216.62 460.91 216.57 460.98 216.50 460.98
  L 206.30 460.98
  C 206.20 460.98 206.11 460.92 206.07 460.82
  L 201.06 449.00
  C 200.94 448.73 200.68 448.55 200.38 448.55
  L 182.94 448.55
  C 182.59 448.55 182.28 448.77 182.16 449.09
  L 177.77 460.29
  C 177.60 460.72 177.19 461.00 176.73 461.00
  L 135.89 461.00
  C 135.63 461.00 135.42 460.79 135.42 460.53
  L 135.42 417.58
  C 135.42 417.26 135.68 417.00 136.00 417.00
  L 144.26 417.00
  C 144.58 417.00 144.83 417.26 144.84 417.58
  L 145.10 453.29
  C 145.10 453.34 145.09 453.40 145.07 453.45
  C 145.00 453.59 144.95 453.68 144.92 453.72
  C 144.83 453.89 144.95 454.09 145.14 454.09
  L 168.14 454.09
  C 168.40 454.09 168.61 454.30 168.61 454.56
  L 168.62 458.73
  C 168.62 458.85 168.78 458.90 168.85 458.80
  Z
  M 191.56 441.44
  C 195.27 441.42 197.22 441.42 197.40 441.42
  C 197.58 441.44 197.70 441.25 197.62 441.08
  C 195.35 436.44 193.34 431.86 191.59 427.34
  C 191.57 427.29 191.55 427.26 191.54 427.26
  C 191.52 427.25 191.50 427.25 191.48 427.25
  C 191.45 427.25 191.42 427.26 191.40 427.26
  C 191.39 427.26 191.37 427.29 191.35 427.34
  C 189.66 431.88 187.71 436.49 185.49 441.15
  C 185.41 441.32 185.54 441.51 185.72 441.50
  C 185.90 441.48 187.84 441.47 191.56 441.44
  Z"
/>
<path fill="#faf5f5" d="
  M 264.77 460.14
  C 265.13 460.41 264.93 460.99 264.48 460.99
  L 254.21 460.99
  C 253.73 460.99 253.28 460.75 253.01 460.35
  C 249.26 454.86 245.82 450.22 242.69 446.41
  C 241.50 444.97 239.78 443.76 237.51 442.79
  C 237.34 442.72 237.17 442.69 236.98 442.68
  L 228.44 442.49
  C 228.16 442.48 227.93 442.71 227.93 442.98
  L 227.93 460.40
  C 227.93 460.70 227.68 460.95 227.38 460.95
  L 219.14 460.95
  C 218.84 460.95 218.60 460.71 218.60 460.41
  L 218.60 417.37
  C 218.60 417.17 218.76 417.01 218.96 417.00
  C 223.09 416.95 231.35 416.95 243.75 417.00
  C 250.66 417.04 257.51 418.75 259.73 425.81
  C 262.31 434.01 256.84 439.11 249.43 441.19
  C 249.17 441.26 249.10 441.60 249.31 441.77
  C 251.75 443.66 253.17 444.86 253.56 445.37
  C 258.61 451.92 261.46 455.72 262.09 456.78
  C 263.05 458.39 263.94 459.51 264.77 460.14
  Z
  M 227.91 424.09
  L 227.89 434.91
  C 227.89 435.08 228.03 435.22 228.20 435.22
  L 243.52 435.25
  C 247.39 435.25 250.53 432.77 250.54 429.70
  L 250.54 429.38
  C 250.55 426.31 247.41 423.81 243.54 423.81
  L 228.22 423.78
  C 228.05 423.78 227.91 423.92 227.91 424.09
  Z"
/>
<path fill="#faf5f5" d="
  M 277.20 434.98
  L 303.14 434.98
  C 303.35 434.98 303.52 435.15 303.52 435.36
  L 303.52 441.52
  C 303.52 441.73 303.35 441.90 303.14 441.90
  L 277.22 441.90
  C 277.01 441.90 276.84 442.07 276.84 442.28
  L 276.84 453.72
  C 276.84 453.93 277.01 454.10 277.22 454.10
  L 306.06 454.10
  C 306.27 454.10 306.44 454.27 306.44 454.48
  L 306.44 460.62
  C 306.44 460.83 306.27 461.00 306.06 461.00
  L 267.77 461.00
  C 267.56 461.00 267.39 460.83 267.39 460.62
  L 267.39 417.37
  C 267.39 417.16 267.56 416.99 267.77 416.99
  L 305.00 416.99
  C 305.21 416.99 305.38 417.16 305.38 417.37
  L 305.38 423.52
  C 305.38 423.73 305.21 423.90 305.00 423.90
  L 277.20 423.90
  C 276.99 423.90 276.82 424.07 276.82 424.28
  L 276.82 434.60
  C 276.82 434.81 276.99 434.98 277.20 434.98
  Z"
/>
<path fill="#faf5f5" d="
  M 336.11 436.38
  C 339.90 441.32 342.43 444.65 343.71 446.37
  C 343.86 446.57 344.19 446.47 344.19 446.21
  L 344.19 417.43
  C 344.19 417.20 344.38 417.02 344.61 417.02
  L 352.81 417.02
  C 353.05 417.02 353.25 417.21 353.25 417.45
  L 353.25 460.33
  C 353.25 460.69 352.95 460.99 352.59 460.99
  L 344.81 460.99
  C 344.36 460.99 343.94 460.77 343.69 460.40
  C 343.43 460.02 338.64 453.77 329.34 441.64
  C 325.56 436.70 323.03 433.37 321.75 431.65
  C 321.59 431.45 321.27 431.56 321.27 431.81
  L 321.27 460.59
  C 321.27 460.82 321.08 461.00 320.85 461.00
  L 312.65 461.00
  C 312.41 461.00 312.21 460.81 312.21 460.57
  L 312.21 417.69
  C 312.21 417.33 312.50 417.03 312.87 417.03
  L 320.65 417.03
  C 321.10 417.03 321.52 417.25 321.77 417.62
  C 322.03 418.00 326.81 424.26 336.11 436.38
  Z"
/>
<path fill="#faf5f5" d="
  M 361.32 417.57
  C 361.32 417.22 361.60 416.94 361.95 416.94
  L 383.96 416.98
  C 395.14 417.00 404.18 426.09 404.16 437.29
  L 404.16 440.77
  C 404.14 451.96 395.06 461.02 383.88 461.00
  L 361.87 460.96
  C 361.52 460.96 361.24 460.68 361.24 460.33
  L 361.32 417.57
  Z
  M 370.57 424.18
  L 370.57 453.82
  C 370.57 453.98 370.70 454.11 370.86 454.11
  L 381.65 454.11
  C 388.81 454.11 394.61 448.42 394.61 441.41
  L 394.61 436.59
  C 394.61 429.58 388.81 423.89 381.65 423.89
  L 370.86 423.89
  C 370.70 423.89 370.57 424.02 370.57 424.18
  Z"
/>
<path fill="#faf5f5" d="
  M 479.57 441.64
  C 475.79 436.70 473.26 433.37 471.98 431.65
  C 471.83 431.44 471.50 431.55 471.50 431.80
  L 471.49 460.59
  C 471.49 460.82 471.30 461.00 471.07 461.00
  L 462.87 461.00
  C 462.62 461.00 462.43 460.80 462.43 460.57
  L 462.45 417.68
  C 462.45 417.31 462.75 417.02 463.11 417.02
  L 470.89 417.02
  C 471.34 417.02 471.76 417.24 472.01 417.61
  C 472.28 417.99 477.05 424.25 486.35 436.39
  C 490.13 441.32 492.67 444.65 493.95 446.38
  C 494.10 446.58 494.42 446.47 494.42 446.22
  L 494.44 417.43
  C 494.44 417.21 494.63 417.02 494.86 417.02
  L 503.06 417.03
  C 503.30 417.03 503.50 417.22 503.50 417.46
  L 503.48 460.35
  C 503.48 460.71 503.18 461.01 502.82 461.01
  L 495.04 461.00
  C 494.59 461.00 494.17 460.78 493.91 460.41
  C 493.65 460.03 488.87 453.77 479.57 441.64
  Z"
/>
<path fill="#ffffff" d="
  M 826.19 420.48
  L 826.20 572.90
  C 826.20 573.05 826.08 573.17 825.93 573.17
  L 701.11 573.16
  L 713.99 551.94
  L 804.41 551.94
  C 804.68 551.94 804.90 551.72 804.90 551.45
  L 804.88 437.95
  C 811.63 431.70 818.74 425.87 826.19 420.48
  Z"
/>
<rect fill="#0032a1" x="-14.90" y="-15.61" transform="translate(432.61,439.01) rotate(-2.3)" width="29.80" height="31.22" rx="13.62"/>
<path fill="#0032a1" d="
  M 227.91 424.09
  C 227.91 423.92 228.05 423.78 228.22 423.78
  L 243.54 423.81
  C 247.41 423.81 250.55 426.31 250.54 429.38
  L 250.54 429.70
  C 250.53 432.77 247.39 435.25 243.52 435.25
  L 228.20 435.22
  C 228.03 435.22 227.89 435.08 227.89 434.91
  L 227.91 424.09
  Z"
/>
<path fill="#0032a1" d="
  M 370.57 424.18
  C 370.57 424.02 370.70 423.89 370.86 423.89
  L 381.65 423.89
  C 388.81 423.89 394.61 429.58 394.61 436.59
  L 394.61 441.41
  C 394.61 448.42 388.81 454.11 381.65 454.11
  L 370.86 454.11
  C 370.70 454.11 370.57 453.98 370.57 453.82
  L 370.57 424.18
  Z"
/>
<path fill="#0032a1" d="
  M 191.48 427.25
  C 191.50 427.25 191.52 427.25 191.54 427.26
  C 191.55 427.26 191.57 427.29 191.59 427.34
  C 193.34 431.86 195.35 436.44 197.62 441.08
  C 197.70 441.25 197.58 441.44 197.40 441.42
  C 197.22 441.42 195.27 441.42 191.56 441.44
  C 187.84 441.47 185.90 441.48 185.72 441.50
  C 185.54 441.51 185.41 441.32 185.49 441.15
  C 187.71 436.49 189.66 431.88 191.35 427.34
  C 191.37 427.29 191.39 427.26 191.40 427.26
  C 191.42 427.26 191.45 427.25 191.48 427.25
  Z"
/>
<path fill="#0032a1" d="
  M 804.88 437.95
  L 804.90 551.45
  C 804.90 551.72 804.68 551.94 804.41 551.94
  L 713.99 551.94
  C 728.92 527.85 745.71 504.31 764.34 481.34
  C 777.20 465.49 790.71 451.02 804.88 437.95
  Z"
/>
<path fill="#faf5f5" d="
  M 125.05 515.49
  C 125.34 501.02 136.38 492.84 150.09 493.12
  C 163.80 493.40 174.49 502.03 174.20 516.50
  C 173.90 530.98 162.86 539.15 149.15 538.87
  C 135.44 538.59 124.75 529.97 125.05 515.49
  Z
  M 164.4961 513.7468
  C 164.38 506.25 158.20 500.26 150.7045 500.3818
  L 148.1448 500.4220
  C 140.65 500.54 134.66 506.71 134.7798 514.2137
  L 134.8439 518.2932
  C 134.96 525.79 141.14 531.78 148.6355 531.6582
  L 151.1952 531.6180
  C 158.69 531.50 164.68 525.33 164.5602 517.8263
  L 164.4961 513.7468
  Z"
/>
<path fill="#faf5f5" d="
  M 354.08 515.47
  C 354.39 501.00 365.43 492.84 379.14 493.13
  C 392.84 493.42 403.52 502.05 403.21 516.53
  C 402.90 531.00 391.86 539.16 378.15 538.87
  C 364.45 538.57 353.77 529.94 354.08 515.47
  Z
  M 393.4486 513.6045
  C 393.24 506.09 386.97 500.16 379.4536 500.3701
  L 376.8746 500.4421
  C 369.36 500.65 363.43 506.92 363.6402 514.4371
  L 363.7514 518.4155
  C 363.96 525.93 370.23 531.86 377.7464 531.6499
  L 380.3254 531.5779
  C 387.84 531.37 393.77 525.10 393.5598 517.5829
  L 393.4486 513.6045
  Z"
/>
<path fill="#faf5f5" d="
  M 103.99 493.99
  C 110.83 493.98 117.54 493.99 124.09 494.02
  C 124.37 494.02 124.60 494.24 124.60 494.52
  L 124.60 500.39
  C 124.60 500.68 124.37 500.91 124.08 500.91
  L 109.00 500.91
  C 108.78 500.91 108.60 501.09 108.60 501.31
  L 108.60 537.56
  C 108.60 537.72 108.49 537.85 108.33 537.89
  C 107.96 537.97 106.50 538.00 103.96 538.00
  C 101.42 538.00 99.97 537.96 99.59 537.88
  C 99.44 537.85 99.32 537.71 99.32 537.55
  L 99.37 501.30
  C 99.37 501.08 99.19 500.90 98.97 500.90
  L 83.89 500.89
  C 83.60 500.89 83.37 500.65 83.37 500.37
  L 83.37 494.50
  C 83.37 494.22 83.60 493.99 83.88 493.99
  C 90.44 493.98 97.14 493.98 103.99 493.99
  Z"
/>
<path fill="#faf5f5" d="
  M 222.64 524.38
  L 231.00 494.20
  C 231.04 494.09 231.14 494.01 231.25 494.01
  L 240.39 494.01
  C 240.49 494.01 240.56 494.10 240.53 494.19
  L 226.89 537.47
  C 226.79 537.78 226.51 537.99 226.19 537.99
  L 218.59 537.99
  C 218.18 537.99 217.82 537.72 217.70 537.33
  L 207.95 505.35
  C 207.89 505.14 207.59 505.14 207.52 505.35
  L 197.44 537.37
  C 197.32 537.74 196.98 537.99 196.59 537.99
  L 188.71 537.99
  C 188.39 537.99 188.11 537.78 188.02 537.48
  L 174.86 494.31
  C 174.82 494.16 174.93 494.01 175.08 494.01
  L 184.20 494.01
  C 184.34 494.01 184.45 494.10 184.49 494.23
  L 192.63 525.03
  C 192.65 525.12 192.77 525.12 192.80 525.04
  L 202.39 494.60
  C 202.50 494.24 202.84 493.99 203.22 493.99
  L 212.38 494.01
  C 212.76 494.02 213.08 494.30 213.14 494.68
  C 213.17 494.89 215.97 503.57 221.52 520.72
  C 221.89 521.89 221.92 523.27 222.20 524.38
  C 222.26 524.61 222.58 524.61 222.64 524.38
  Z"
/>
<path fill="#faf5f5" d="
  M 260.57 518.64
  C 256.79 513.70 254.26 510.37 252.98 508.65
  C 252.83 508.44 252.50 508.55 252.50 508.81
  L 252.49 537.60
  C 252.49 537.82 252.30 538.01 252.07 538.01
  L 243.86 538.00
  C 243.62 538.00 243.42 537.81 243.42 537.57
  L 243.44 494.67
  C 243.45 494.31 243.74 494.01 244.11 494.01
  L 251.89 494.02
  C 252.34 494.02 252.76 494.24 253.01 494.61
  C 253.27 494.99 258.05 501.25 267.35 513.39
  C 271.14 518.33 273.67 521.66 274.95 523.38
  C 275.10 523.59 275.42 523.48 275.42 523.22
  L 275.44 494.43
  C 275.44 494.20 275.63 494.02 275.86 494.02
  L 284.06 494.02
  C 284.31 494.03 284.50 494.22 284.50 494.46
  L 284.48 537.35
  C 284.48 537.72 284.19 538.01 283.82 538.01
  L 276.04 538.01
  C 275.59 538.01 275.17 537.79 274.91 537.42
  C 274.65 537.04 269.87 530.78 260.57 518.64
  Z"
/>
<path fill="#faf5f5" d="
  M 342.71 514.13
  C 342.55 514.22 342.55 514.45 342.72 514.53
  C 348.07 516.92 350.53 520.75 350.10 526.04
  C 349.36 534.99 340.56 538.00 333.01 538.00
  C 326.08 538.01 318.80 538.00 311.19 537.98
  C 310.88 537.98 310.62 537.72 310.62 537.41
  L 310.62 494.48
  C 310.62 494.25 310.81 494.06 311.04 494.05
  C 318.79 493.94 326.59 493.95 334.44 494.10
  C 341.12 494.23 348.39 499.32 347.74 506.51
  C 347.43 509.98 345.75 512.52 342.71 514.13
  Z
  M 320.00 501.28
  L 319.86 510.96
  C 319.86 511.18 320.03 511.35 320.25 511.36
  L 331.45 511.51
  C 335.32 511.57 338.48 509.61 338.52 507.15
  L 338.54 505.61
  C 338.57 503.15 335.46 501.11 331.59 501.05
  L 320.39 500.90
  C 320.18 500.89 320.00 501.07 320.00 501.28
  Z
  M 320.12 519.00
  L 320.10 530.84
  C 320.10 530.96 320.20 531.06 320.32 531.06
  L 332.63 531.08
  C 337.01 531.09 340.56 528.66 340.57 525.65
  L 340.57 524.27
  C 340.58 521.26 337.03 518.81 332.65 518.80
  L 320.34 518.78
  C 320.22 518.78 320.12 518.88 320.12 519.00
  Z"
/>
<path fill="#faf5f5" d="
  M 441.85 537.80
  L 436.18 525.76
  C 436.13 525.65 436.02 525.58 435.90 525.58
  L 418.05 525.58
  C 417.92 525.58 417.81 525.66 417.76 525.78
  L 413.06 537.78
  C 413.01 537.90 412.90 537.98 412.77 537.98
  L 403.43 537.98
  C 403.20 537.98 403.05 537.75 403.14 537.54
  L 422.25 494.19
  C 422.30 494.08 422.41 494.01 422.53 494.01
  L 431.32 494.01
  C 431.44 494.01 431.55 494.08 431.60 494.19
  L 451.95 537.54
  C 452.05 537.74 451.90 537.98 451.67 537.98
  L 442.13 537.98
  C 442.01 537.98 441.90 537.91 441.85 537.80
  Z
  M 427.06 518.43
  C 430.79 518.41 432.75 518.40 432.93 518.41
  C 433.11 518.43 433.24 518.23 433.15 518.07
  C 430.87 513.40 428.85 508.80 427.10 504.25
  C 427.08 504.20 427.06 504.17 427.04 504.17
  C 427.03 504.16 427.01 504.16 426.99 504.16
  C 426.95 504.16 426.93 504.16 426.91 504.17
  C 426.90 504.17 426.87 504.20 426.86 504.25
  C 425.16 508.82 423.19 513.45 420.96 518.14
  C 420.88 518.30 421.01 518.49 421.19 518.48
  C 421.37 518.47 423.33 518.45 427.06 518.43
  Z"
/>
<path fill="#faf5f5" d="
  M 500.06 537.12
  C 500.42 537.39 500.22 537.97 499.77 537.97
  L 489.49 537.99
  C 489.01 537.99 488.56 537.75 488.29 537.35
  C 484.52 531.87 481.07 527.23 477.93 523.43
  C 476.74 521.99 475.01 520.78 472.74 519.81
  C 472.58 519.75 472.40 519.71 472.21 519.71
  L 463.67 519.53
  C 463.39 519.53 463.16 519.75 463.16 520.03
  L 463.20 537.45
  C 463.20 537.76 462.95 538.00 462.65 538.01
  L 454.40 538.02
  C 454.10 538.02 453.86 537.78 453.86 537.48
  L 453.77 494.42
  C 453.77 494.22 453.93 494.06 454.13 494.05
  C 458.26 493.99 466.53 493.97 478.93 494.00
  C 485.85 494.02 492.70 495.72 494.94 502.78
  C 497.54 510.98 492.08 516.09 484.67 518.19
  C 484.40 518.26 484.33 518.60 484.55 518.77
  C 486.99 520.66 488.41 521.86 488.81 522.36
  C 493.88 528.90 496.73 532.70 497.37 533.76
  C 498.33 535.37 499.23 536.49 500.06 537.12
  Z
  M 463.26 500.98
  L 463.24 512.02
  C 463.24 512.13 463.33 512.22 463.44 512.22
  L 478.75 512.25
  C 482.62 512.25 485.76 509.75 485.77 506.65
  L 485.77 506.43
  C 485.78 503.33 482.64 500.81 478.77 500.81
  L 463.46 500.78
  C 463.35 500.78 463.26 500.87 463.26 500.98
  Z"
/>
<path fill="#faf5f5" d="
  M 502.40 494.58
  C 502.40 494.25 502.67 493.99 502.99 493.99
  L 525.10 493.95
  C 536.30 493.93 545.40 503.01 545.42 514.22
  L 545.42 517.64
  C 545.44 528.86 536.38 537.97 525.18 537.99
  L 503.07 538.03
  C 502.74 538.03 502.48 537.76 502.48 537.44
  L 502.40 494.58
  Z
  M 511.84 501.25
  L 511.68 530.69
  C 511.68 530.90 511.86 531.08 512.07 531.08
  L 522.87 531.14
  C 529.98 531.17 535.77 525.57 535.81 518.62
  L 535.83 513.56
  C 535.87 506.62 530.14 500.95 523.03 500.92
  L 512.23 500.86
  C 512.01 500.86 511.84 501.03 511.84 501.25
  Z"
/>
<rect fill="#0032a1" x="-14.86" y="-15.62" transform="translate(149.67,516.02) rotate(-0.9)" width="29.72" height="31.24" rx="13.58"/>
<rect fill="#0032a1" x="-14.91" y="-15.61" transform="translate(378.60,516.01) rotate(-1.6)" width="29.82" height="31.22" rx="13.62"/>
<path fill="#0032a1" d="
  M 463.26 500.98
  C 463.26 500.87 463.35 500.78 463.46 500.78
  L 478.77 500.81
  C 482.64 500.81 485.78 503.33 485.77 506.43
  L 485.77 506.65
  C 485.76 509.75 482.62 512.25 478.75 512.25
  L 463.44 512.22
  C 463.33 512.22 463.24 512.13 463.24 512.02
  L 463.26 500.98
  Z"
/>
<path fill="#0032a1" d="
  M 320.00 501.28
  C 320.00 501.07 320.18 500.89 320.39 500.90
  L 331.59 501.05
  C 335.46 501.11 338.57 503.15 338.54 505.61
  L 338.52 507.15
  C 338.48 509.61 335.32 511.57 331.45 511.51
  L 320.25 511.36
  C 320.03 511.35 319.86 511.18 319.86 510.96
  L 320.00 501.28
  Z"
/>
<path fill="#0032a1" d="
  M 511.84 501.25
  C 511.84 501.03 512.01 500.86 512.23 500.86
  L 523.03 500.92
  C 530.14 500.95 535.87 506.62 535.83 513.56
  L 535.81 518.62
  C 535.77 525.57 529.98 531.17 522.87 531.14
  L 512.07 531.08
  C 511.86 531.08 511.68 530.90 511.68 530.69
  L 511.84 501.25
  Z"
/>
<path fill="#0032a1" d="
  M 427.06 518.43
  C 423.33 518.45 421.37 518.47 421.19 518.48
  C 421.01 518.49 420.88 518.30 420.96 518.14
  C 423.19 513.45 425.16 508.82 426.86 504.25
  C 426.87 504.20 426.90 504.17 426.91 504.17
  C 426.93 504.16 426.95 504.16 426.99 504.16
  C 427.01 504.16 427.03 504.16 427.04 504.17
  C 427.06 504.17 427.08 504.20 427.10 504.25
  C 428.85 508.80 430.87 513.40 433.15 518.07
  C 433.24 518.23 433.11 518.43 432.93 518.41
  C 432.75 518.40 430.79 518.41 427.06 518.43
  Z"
/>
<path fill="#0032a1" d="
  M 320.12 519.00
  C 320.12 518.88 320.22 518.78 320.34 518.78
  L 332.65 518.80
  C 337.03 518.81 340.58 521.26 340.57 524.27
  L 340.57 525.65
  C 340.56 528.66 337.01 531.09 332.63 531.08
  L 320.32 531.06
  C 320.20 531.06 320.10 530.96 320.10 530.84
  L 320.12 519.00
  Z"
/>
<path fill="#ffffff" d="
  M 659.00 573.19
  L 624.11 573.11
  C 623.84 573.11 623.62 572.89 623.62 572.62
  L 623.59 527.46
  L 623.87 527.48
  C 623.94 527.49 624.01 527.52 624.05 527.58
  C 636.50 542.31 648.15 557.52 659.00 573.19
  Z"
/>
<path fill="#ffffff" d="
  M 37.29 542.89
  L 37.29 657.27
  C 37.29 657.45 37.44 657.60 37.62 657.60
  L 128.45 657.60
  C 128.63 657.60 128.78 657.75 128.78 657.93
  L 128.78 678.62
  C 128.78 678.80 128.63 678.95 128.45 678.95
  L 16.13 678.95
  C 15.95 678.95 15.80 678.80 15.80 678.62
  L 15.80 542.89
  C 15.80 542.71 15.95 542.56 16.13 542.56
  L 36.96 542.56
  C 37.14 542.56 37.29 542.71 37.29 542.89
  Z"
/>
</svg>
