<?xml version="1.0" encoding="UTF-8"?>
<svg id="Layer_1" xmlns="http://www.w3.org/2000/svg" version="1.1" viewBox="0 0 1428 1075">
  <!-- Generator: Adobe Illustrator 29.5.1, SVG Export Plug-In . SVG Version: 2.1.0 Build 141)  -->
  <defs>
    <style>
      .st0 {
        fill: #8cafb4;
      }

      .st1 {
        fill: #779a9e;
      }

      .st2 {
        fill: #0f112c;
      }

      .st3 {
        fill: #202d44;
      }

      .st4 {
        fill: #f9f3e2;
      }

      .st5 {
        fill: #0b5fad;
      }

      .st6 {
        fill: #323232;
      }

      .st7 {
        fill: #eceded;
      }
    </style>
  </defs>
  <path class="st2" d="M546.86,38.31l-4.92,3.93c-13.94,12.27-23.08,20.47-33.49,31.92-21.44,24.31-37.61,50.94-53.06,79.61l-.63.89c-4.19,7.37-8.81,14.43-13.87,21.2-8.47,11.33-19.87,16.05-34.2,14.15-5.11-.68-8.42-3.22-9.93-7.61-5.37-15.65-13.44-28.81-24.22-39.49-.27-.13-.34-.22-.23-.29-4.31-3.88-8.84-7.51-13.6-10.9-3.29-2.35-5.34-4.25-6.14-5.72-4.46-8.18,3.95-16.54,10.47-21.07,10.65-7.39,23.42-7.26,33.98.54,1.27.93,2.98,2.39,5.15,4.36,7.5,9.38,13.54,19.52,18.13,30.43.12.27.48.32.66.08l17.97-23.62c16.49-20.59,35.31-38.75,56.45-54.5,19.29-14.05,40.19-25.17,62.68-33.34.11-.04.22.01.28.1.05.1.03.23-.06.3l-11.42,9.03Z"/>
  <path class="st5" d="M495.38,62.22c-21.14,15.75-39.96,33.91-56.45,54.5-10.25-8.17-24.28-9.76-36.76-6.89-2.17-1.97-3.88-3.43-5.15-4.36-10.56-7.8-23.33-7.93-33.98-.54-6.52,4.53-14.93,12.89-10.47,21.07.8,1.47,2.85,3.37,6.14,5.72,4.76,3.39,9.29,7.02,13.6,10.9-.23.41-.24.6-.04.55-3.52,20.95,4.21,40.5,24.31,49.02,9.16,3.88,21.46,4.03,30.71,1.06,17.64-5.64,27.2-20.25,27.94-38.52.13-.29.19-.61.16-.96,15.45-28.67,31.62-55.3,53.06-79.61,15.61,17.42,24.9,37.6,27.87,60.54,4.63,35.71-5.16,70.5-30.58,96.16-19.23,19.43-45.89,30.71-73.13,33.98-66.84,8.03-132.12-25.72-142.21-97.07-1.91-13.48-1.25-30.47,2.07-44.23,15.04-62.33,74.63-94.06,135.79-87.98,23.19,2.31,44.21,10.09,63.05,23.34,1.41.99,2.77,2.1,4.07,3.32Z"/>
  <path class="st5" d="M162.31,173.64c.16,0,.32-.03.46-.09.2-.09.32-.29.33-.5.17-9.19,2.06-19.97,5.65-32.33,8.55-29.45,18.46-63.46,29.73-102.01.07-.22.27-.37.5-.37h84.09c.26,0,.44.26.35.5l-86.41,223.06c-.13.33-.44.55-.79.55h-67.83c-.35,0-.66-.22-.79-.55L41.19,38.84c-.09-.24.09-.5.35-.5h84.09c.23,0,.44.15.5.37,11.27,38.55,21.18,72.56,29.73,102.01,3.59,12.36,5.48,23.14,5.65,32.33.01.21.13.41.33.5.14.06.3.09.47.09Z"/>
  <path class="st5" d="M546.86,38.31h165.77c.32,0,.58.27.58.58v71.98c0,.17-.14.3-.31.29l-44.21-2.05c-.19-.01-.35.14-.35.33v152.55c0,.26-.21.47-.47.47h-80.49c-.29,0-.52-.23-.52-.52V109.56c0-.25-.2-.45-.45-.44l-44.13,2.04c-.17,0-.31-.13-.31-.3l-.03-68.62,4.92-3.93Z"/>
  <path class="st5" d="M885.88,262.46h-152.19c-.25,0-.45-.2-.45-.45V38.79c0-.25.2-.45.45-.45h149.83c.25,0,.45.2.45.45v60.34c0,.25-.2.45-.45.45h-67.75c-.25,0-.45.2-.45.45v20.5c0,.25.2.45.45.45h61.82c.25,0,.45.2.45.45v57.37c0,.25-.2.45-.45.45h-61.83c-.25,0-.45.2-.45.45v21.08c0,.25.2.45.45.45h70.12c.25,0,.45.2.45.45v60.33c0,.25-.2.45-.45.45Z"/>
  <path class="st7" d="M438.93,116.72l-17.97,23.62c-.18.24-.54.19-.66-.08-4.59-10.91-10.63-21.05-18.13-30.43,12.48-2.87,26.51-1.28,36.76,6.89Z"/>
  <path class="st0" d="M372.31,142.62c-.11.07-.04.16.23.29-.4.24-.49.33-.27.26-.2.05-.19-.14.04-.55Z"/>
  <path class="st7" d="M372.54,142.91c10.78,10.68,18.85,23.84,24.22,39.49,1.51,4.39,4.82,6.93,9.93,7.61,14.33,1.9,25.73-2.82,34.2-14.15,5.06-6.77,9.68-13.83,13.87-21.2l.47.07c-.74,18.27-10.3,32.88-27.94,38.52-9.25,2.97-21.55,2.82-30.71-1.06-20.1-8.52-27.83-28.07-24.31-49.02-.22.07-.13-.02.27-.26Z"/>
  <path class="st0" d="M455.39,153.77c.03.35-.03.67-.16.96l-.47-.07.63-.89Z"/>
  <path class="st3" d="M1241.08,315.29c-2.04-2.89-4.41-5.82-7.12-8.77-14.63-16-30.48-32.82-47.55-50.47-9.21-9.52-18.67-18.55-28.4-27.1-1.17-1.03-2.52-1.89-4.05-2.58-.44-.21-.96-.18-1.39.07-1.11.65-2.41,1.63-3.92,2.94-5.75,5-10.88,9.61-15.4,13.84-25.45,23.82-49.31,46.88-71.57,69.18-1.89,1.89-3.47,3.79-4.73,5.7l-3.88,4.45c-.29.33-.82.33-1.1-.02l-6.72-8.11c-.39-.47-.38-1.16.03-1.61,1.37-1.52,5.57-5.92,12.61-13.19,11.47-11.84,26.29-26.77,44.46-44.8,14-13.89,26.98-26.33,38.94-37.31,2.19-2.01,5.04-4.39,8.54-7.12.31-.24.73-.29,1.08-.11,1.15.58,2.72,1.64,4.7,3.19,2.67,2.09,6.63,5.46,11.88,10.11,9.41,8.36,21.2,19.37,35.37,33.03,19.19,18.5,37.75,36.76,55.68,54.77.7.7.85,1.78.37,2.65-1.77,3.21-4.13,6.04-7.06,8.48-.47.39-1.14.4-1.62.02l-9.15-7.24Z"/>
  <path class="st0" d="M1241.08,315.29l.98,23.1.43,13.33c.47,29.65.95,59.32,1.42,89.01.36,22.75.33,52.5-.09,89.24-.13,10.68-.39,21.36-.78,32.03-.14,3.68-.62,7.35-1.45,11-1.2.11-1.85.05-1.95-.17l-.45-37.54c0-.35-.28-.63-.63-.65l-3.21-.15c-.16-.01-.3-.11-.35-.26l-.88-2.86c-.1-.3.02-.64.28-.82,2.81-2,4.23-4.21,4.26-6.64.04-3.51-1.15-6.03-3.56-7.54-2.67-1.67-5.49-1.92-8.46-.76-3.85,1.51-5.45,4.93-4.78,10.26.23,1.81,1.45,3.56,3.68,5.24.25.19.36.51.29.81l-.36,1.51c-.05.23.11.45.34.48l6.66.72s.06.04.06.08l-.02.4c-.01.13-.11.22-.24.21-2.41-.15-4.48-.36-6.22-.65-1.49-.24-3.01-.21-4.54.08-.38.08-.66.41-.66.8v27.25c0,.24-.19.43-.42.43h-4.71c-.25,0-.46-.21-.46-.46v-5.24c0-.31-.26-.57-.57-.57h-5.88c-.31,0-.56-.25-.56-.55v-4.91c0-.38-.3-.69-.68-.71l-5.71-.27c-.41-.02-.75-.35-.77-.76l-.34-7.57c-.01-.1-.05-.19-.12-.26-.28-.29-.8-.34-1.55-.15-.42.11-.83-.21-.83-.64v-78.58c0-.33.28-.6.62-.58l1.21.05c.36.02.66-.27.66-.62v-2.89c0-.38.3-.69.68-.71l2.92-.13c1.44-.07,2.59-1.22,2.66-2.66l.36-7.76c.02-.38-.29-.7-.67-.69-37.66.51-72.05,1.17-103.16,1.99-7.19.19-12.3.49-15.32.9-.63.08-1.1.64-1.07,1.28l.39,8.34c.03.69.58,1.24,1.27,1.26l5.57.2c-.02.51.19.76.62.77-.59.19-.78.75-.55,1.68.08.31.32.55.63.64.93.25,1.9.28,2.91.08-.07.31,0,.51.21.62-.27.08-.4.21-.4.38,0,3.07-.02,28.13-.05,75.17,0,.3.23.54.53.56l8.18.38c.22.01.4.19.42.41.01.22-.15.42-.37.46-3.4.59-6.91,1.35-10.31-.06-.78-.33-1.64.23-1.65,1.07l-.15,6.79c-.27-.21-.41,0-.42.63l-6.35.81c-.36.05-.63.35-.63.71v4.75c0,.32-.26.58-.58.58h-5.62c-.3,0-.55.25-.55.55v5.05c0,.35-.29.64-.64.64h-3.37c-.27,0-.49-.21-.49-.48v-27.92c0-.46-.27-.87-.68-1.06-.95-.43-2.41-.41-4.37.07-2.53.61-5.86.56-10.01-.17-.25-.05-.51-.06-.77-.04l-1.78.14c-.37.03-.65.34-.66.71l-.64,37.13-4.25.1,3.49-219.71.35-11.56.53-22.32c1.26-1.91,2.84-3.81,4.73-5.7,22.26-22.3,46.12-45.36,71.57-69.18,4.52-4.23,9.65-8.84,15.4-13.84,1.51-1.31,2.81-2.29,3.92-2.94.43-.25.95-.28,1.39-.07,1.53.69,2.88,1.55,4.05,2.58,9.73,8.55,19.19,17.58,28.4,27.1,17.07,17.65,32.92,34.47,47.55,50.47,2.71,2.95,5.08,5.88,7.12,8.77ZM1177.97,293.7c0-12.31-9.98-22.29-22.29-22.29h-4.38c-12.31,0-22.29,9.98-22.29,22.29v4.94c0,12.31,9.98,22.29,22.29,22.29h4.38c12.31,0,22.29-9.98,22.29-22.29v-4.94ZM1097.59,335.63c-.77,6.49-.72,12.15.13,17,.06.31.28.56.58.65,1.04.29,2.45.49,4.23.58,10.3.56,22.21.76,35.72.6,1.27-.02,5.43.01,12.49.09,10.02.11,23.59-.31,31.04-.37,7.19-.07,13.9-.37,20.11-.92.71-.07,1.29-.6,1.42-1.3,1.05-5.9,1.21-11.92.46-18.07-.18-1.49-1.18-2.24-2.99-2.23-30.65.11-62.41.88-95.27,2.3-1.38.06-3.81.4-7.3,1.01-.33.06-.58.33-.62.66ZM1085.28,373.51c-.33,3.78-.49,6.52-.5,8.21-.06,12.63-.06,27.26-.01,43.91,0,.33.27.59.6.59h50.2c.63,0,1.14-.51,1.14-1.13v-51.76c0-.29-.23-.53-.53-.55-16.63-.73-30.18-.09-50.64.48-.14,0-.25.11-.26.25ZM1169.56,373v52.12c0,.61.5,1.11,1.11,1.11h50.11c.32,0,.59-.26.6-.59.39-10.97.49-19.86.32-26.68-.25-9.77.18-17.4-.67-25.07-.04-.36-.33-.63-.68-.64-8.43-.27-17.97-.52-28.6-.74-7.54-.15-14.86-.07-21.95.24-.13.01-.24.12-.24.25ZM1070.98,532.17l-.33-1.06c-.1-.32.03-.67.3-.86,8.29-5.63,2.92-19.44-7.84-15.63-6.16,2.18-6.87,10.17-1.96,14.18,1.34,1.09,1.1,1.85.67,3.29-.1.33.13.66.47.69,1.87.16,3.08.13,3.61-.1.29-.12.62-.11.9.04.31.17,1.52.24,3.63.21.39,0,.66-.39.55-.76Z"/>
  <path class="st4" d="M1177.97,298.64c0,12.31-9.98,22.29-22.29,22.29h-4.38c-12.31,0-22.29-9.98-22.29-22.29v-4.94c0-12.31,9.98-22.29,22.29-22.29h4.38c12.31,0,22.29,9.98,22.29,22.29v4.94ZM1172.56,289.77c-.11-.26-.39-.38-.65-.28l-16.43,6.46c-.23.1-.49.09-.71-.02-.69-.31-1.38-.43-2.09-.35-.43.05-.84-.15-1.07-.51l-8.46-13.22c-.23-.37-.53-.7-.88-.96l-.96-.73c-.33-.25-.79.1-.62.48,2.39,5.56,6.63,11.52,9.41,15.97.3.5.42,1.08.34,1.66-.49,3.28,4.79,4.65,5.48.31.08-.49.4-.91.86-1.11l15.57-6.63c.31-.13.46-.5.32-.81l-.11-.26Z"/>
  <path class="st3" d="M1172.56,289.77l.11.26c.14.31-.01.68-.32.81l-15.57,6.63c-.46.2-.78.62-.86,1.11-.69,4.34-5.97,2.97-5.48-.31.08-.58-.04-1.16-.34-1.66-2.78-4.45-7.02-10.41-9.41-15.97-.17-.38.29-.73.62-.48l.96.73c.35.26.65.59.88.96l8.46,13.22c.23.36.64.56,1.07.51.71-.08,1.4.04,2.09.35.22.11.48.12.71.02l16.43-6.46c.26-.1.54.02.65.28Z"/>
  <path class="st5" d="M741.9,408.34c-.08.21-.33.28-.51.16-15.12-10.3-32.69-18.23-51.37-16.32-5.42.55-11.97,3.85-12.85,9.97-1.04,7.25,4.73,9.77,10.66,11.29,1.85.48,7.5,1.74,16.95,3.79,13.86,3,28.66,7.08,41.06,15.39,16.99,11.39,24.94,28.05,25.39,48.13.4,18.03-4.23,34.53-15.8,48.58-19.6,23.81-51.61,34.08-81.7,33.67-29.72-.4-58.19-7.15-85.41-20.26-.16-.08-.23-.27-.17-.43l24.32-62.78c.1-.27.44-.35.66-.16,14.53,12.63,31.92,22.37,51.84,23.54,8.99.53,22.63-1.69,23.61-12.43.74-8.21-6.04-10.54-12.4-12.21-2.49-.65-4.5-1.09-6.03-1.32-9.03-1.35-17.3-2.95-24.82-4.8-22.29-5.49-41.8-19.55-47.93-42.28-2.11-7.78-2.43-16.79-.98-27.02,2.18-15.34,8.75-28.85,19.72-40.54,20.44-21.78,51.54-31.38,80.95-30.47,23.79.73,45.92,7.19,66.41,19.37.25.14.35.45.25.72l-21.85,56.41Z"/>
  <path class="st4" d="M1098.21,334.97c3.49-.61,5.92-.95,7.3-1.01,32.86-1.42,64.62-2.19,95.27-2.3,1.81-.01,2.81.74,2.99,2.23.75,6.15.59,12.17-.46,18.07-.13.7-.71,1.23-1.42,1.3-6.21.55-12.92.85-20.11.92-7.45.06-21.02.48-31.04.37-7.06-.08-11.22-.11-12.49-.09-13.51.16-25.42-.04-35.72-.6-1.78-.09-3.19-.29-4.23-.58-.3-.09-.52-.34-.58-.65-.85-4.85-.9-10.51-.13-17,.04-.33.29-.6.62-.66ZM1125.62,345.66c-.98-2.42-2.7-4.26-5.17-5.52-.8-.41-.7-1.59.16-1.86l2.69-.83c1.23-.38,1.19-2.14-.05-2.46-4.17-1.09-8.06,1.57-6.8,6.22.09.34.31.63.62.81l3.98,2.4c.67.4.96,1.22.69,1.96-.71,1.94-1.89,2.53-3.55,1.76-1.18-.55-2.27.9-1.48,1.97,2.09,2.86,8.17.52,8.58-2.83.09-.76.15-1.15.18-1.18.16-.17.44-.06.44.17.01.47.29,1.12.86,1.93,1.66,2.41,3.74,3.1,6.25,2.08,1.14-.46,1.12-2.08-.03-2.53l-2.3-.89c-.31-.12-.58-.34-.78-.61-1.71-2.42-1.71-4.89-.01-7.4.12-.18.29-.32.49-.41l2.92-1.24c.98-.42.92-1.83-.09-2.16-3.12-1.02-5.43.06-6.94,3.24-.99,2.07-1.21,4.53-.66,7.38ZM1138.79,340.65c.09-1.29-.03-2.76-.36-4.43-.27-1.34-1.84-1.91-2.73-.99-.33.34-.48,1.02-.47,2.04.08,6.54.35,10.86.82,12.95.19.88,1.31,1.15,1.88.46,1.29-1.53,1.15-3.71,1.05-5.92-.01-.3.23-.55.53-.55h4.26c.31,0,.55.27.52.58-.15,1.38-.01,2.87.43,4.47.33,1.23,2.11,1.12,2.29-.14.65-4.69.72-9.13.19-13.3-.14-1.1-1.54-1.49-2.22-.62-.16.2-.26.53-.3.98-.18,2.11-.31,3.52-.39,4.22-.04.35-.33.62-.68.64l-4.25.2c-.33.02-.6-.26-.57-.59ZM1154.5,334.67c-3.52,0-6.37,3.82-6.37,8.54s2.85,8.54,6.37,8.54,6.37-3.82,6.37-8.54-2.85-8.54-6.37-8.54ZM1167.8,334.67c-3.53,0-6.38,3.84-6.36,8.56,0,4.72,2.87,8.55,6.39,8.54,3.53,0,6.38-3.84,6.36-8.56,0-4.72-2.87-8.55-6.39-8.54ZM1183.85,347.24l-3.93.19c-.33.01-.61-.25-.63-.59l-.41-10.77c-.03-.76-.67-1.34-1.42-1.31l-.31.02c-1.02.04-1.8.9-1.76,1.92l.57,12.2c.05,1.01.81,1.84,1.81,1.98,2.22.31,4.46-.07,6.71-1.15,1.29-.62.8-2.55-.63-2.49Z"/>
  <path class="st3" d="M1125.62,345.66c-.55-2.85-.33-5.31.66-7.38,1.51-3.18,3.82-4.26,6.94-3.24,1.01.33,1.07,1.74.09,2.16l-2.92,1.24c-.2.09-.37.23-.49.41-1.7,2.51-1.7,4.98.01,7.4.2.27.47.49.78.61l2.3.89c1.15.45,1.17,2.07.03,2.53-2.51,1.02-4.59.33-6.25-2.08-.57-.81-.85-1.46-.86-1.93,0-.23-.28-.34-.44-.17-.03.03-.09.42-.18,1.18-.41,3.35-6.49,5.69-8.58,2.83-.79-1.07.3-2.52,1.48-1.97,1.66.77,2.84.18,3.55-1.76.27-.74-.02-1.56-.69-1.96l-3.98-2.4c-.31-.18-.53-.47-.62-.81-1.26-4.65,2.63-7.31,6.8-6.22,1.24.32,1.28,2.08.05,2.46l-2.69.83c-.86.27-.96,1.45-.16,1.86,2.47,1.26,4.19,3.1,5.17,5.52Z"/>
  <path class="st3" d="M1138.79,340.65c-.03.33.24.61.57.59l4.25-.2c.35-.02.64-.29.68-.64.08-.7.21-2.11.39-4.22.04-.45.14-.78.3-.98.68-.87,2.08-.48,2.22.62.53,4.17.46,8.61-.19,13.3-.18,1.26-1.96,1.37-2.29.14-.44-1.6-.58-3.09-.43-4.47.03-.31-.21-.58-.52-.58h-4.26c-.3,0-.54.25-.53.55.1,2.21.24,4.39-1.05,5.92-.57.69-1.69.42-1.88-.46-.47-2.09-.74-6.41-.82-12.95-.01-1.02.14-1.7.47-2.04.89-.92,2.46-.35,2.73.99.33,1.67.45,3.14.36,4.43Z"/>
  <path class="st3" d="M1154.5,334.67c3.52,0,6.37,3.82,6.37,8.54s-2.85,8.54-6.37,8.54-6.37-3.82-6.37-8.54,2.85-8.54,6.37-8.54ZM1154.6,338.11c-1.62.03-2.89,2.28-2.85,5.03.04,2.75,1.39,4.95,3.01,4.93,1.62-.03,2.89-2.28,2.85-5.03-.04-2.75-1.39-4.95-3.01-4.93Z"/>
  <path class="st3" d="M1167.8,334.67c3.52-.01,6.39,3.82,6.39,8.54.01,4.72-2.84,8.55-6.36,8.56-3.52.01-6.39-3.82-6.39-8.54-.01-4.72,2.84-8.55,6.36-8.56ZM1167.76,338.11c-1.63-.03-2.99,2.17-3.04,4.9-.05,2.73,1.23,4.97,2.86,5,1.63.03,2.99-2.17,3.04-4.9.05-2.73-1.23-4.97-2.86-5Z"/>
  <path class="st3" d="M1183.85,347.24c1.43-.06,1.92,1.87.63,2.49-2.25,1.08-4.49,1.46-6.71,1.15-1-.14-1.76-.97-1.81-1.98l-.57-12.2c-.04-1.02.74-1.88,1.76-1.92l.31-.02c.75-.03,1.39.55,1.42,1.31l.41,10.77c.02.34.3.6.63.59l3.93-.19Z"/>
  <path class="st5" d="M397.11,335.34c.17,0,.28.19.19.34l-76.22,126.73c-.18.29-.27.63-.27.97v95.56c0,.3-.24.55-.54.55h-78.79c-.19,0-.35-.16-.35-.36v-95.01c0-.81-.22-1.61-.65-2.3l-77.2-125.89c-.16-.26.03-.59.33-.59h91.02c.28,0,.53.17.64.43l24.44,57.31c.59,1.37,2.56,1.3,3.04-.12,2.52-7.42,4.43-14.08,7.51-21.09.78-1.79,5.94-13.84,15.49-36.15.1-.23.33-.38.58-.38h90.78Z"/>
  <path class="st5" d="M564.65,498.25c.39,0,.7.31.7.69v60.12c.01.24-.19.43-.42.43h-152.38c-.17,0-.32-.14-.32-.32v-223.34c-.01-.27.2-.48.47-.48h149.76c.28-.01.51.22.51.5v60.16c.01.31-.25.57-.57.57h-67.71c-.2.01-.36.17-.36.37l-.02,20.4c0,.35.29.64.65.64h61.69c.22,0,.4.18.4.4v57.44c0,.24-.2.43-.43.43h-61.68c-.35,0-.62.28-.62.62v20.71c0,.37.29.66.66.66h69.67Z"/>
  <path class="st3" d="M1385.18,353.09c-8.59-.54-17.12-.84-25.59-.89-11.43-.08-20.25-.32-32.35-.21-1.72.01-3.58-.28-4.99-.28-26.52.02-53.11.02-79.76.01l-.43-13.33,146.54-1.62c.46,0,.85.33.92.79.69,4.6.67,9.48-.04,14.63-.08.64-.64,1.1-1.28,1.07l-3.02-.17Z"/>
  <ellipse class="st4" cx="1154.68" cy="343.09" rx="2.93" ry="4.98" transform="translate(-5.25 18.18) rotate(-.9)"/>
  <ellipse class="st4" cx="1167.67" cy="343.06" rx="4.95" ry="2.95" transform="translate(804.28 1504.56) rotate(-89)"/>
  <path class="st3" d="M1056.42,340.42l-.35,11.56c-17.41.24-34.72.44-51.95.6-22.1.2-44.47.8-66.8,1.28-9.29.2-18.56.62-27.82,1.25-1.53.11-2.78.46-3.76,1.07h-4c-.22,0-.39-.19-.38-.41l.6-13.04c.02-.38.34-.68.72-.69l153.74-1.62Z"/>
  <path class="st1" d="M1385.18,353.09c.08,23.53.18,47.08.29,70.63v2.75c.03,33.31.05,52.97.05,59,0,1.88-.33,4.29-.32,6.33.24,27.11-.08,53.6-.97,79.46-.01.29-.21.53-.5.58-3.3.56-6.12.86-8.47.9-37.32.56-70.41.69-99.26.38-14.78-.16-26.25-.2-34.41-.12.83-3.65,1.31-7.32,1.45-11,.39-10.67.65-21.35.78-32.03.42-36.74.45-66.49.09-89.24-.47-29.69-.95-59.36-1.42-89.01,26.65.01,53.24.01,79.76-.01,1.41,0,3.27.29,4.99.28,12.1-.11,20.92.13,32.35.21,8.47.05,17,.35,25.59.89ZM1261.42,371.37c-.53,21.59-.73,43.46-.62,65.61.02,4.39.18,8.38.47,11.96.02.3.22.57.51.67,1.03.37,3.52.66,7.48.85,9.25.45,18.91.51,28.99.17,2.79-.1,5.33-.43,7.62-.98.17-.04.28-.19.29-.36.75-21.77.99-43.04.72-63.82-.03-2.45-.18-6.13-.46-11.04-.11-1.94-1.18-2.99-3.23-3.16-11.76-.92-23.73-1.25-35.92-.99-1.85.04-3.59.17-5.23.4-.35.05-.61.34-.62.69ZM1323.98,371.76c-.32.07-.54.35-.55.67-.43,24.41-.47,47.68-.13,69.83.02,1.36.16,3.56.42,6.59.03.32.24.6.54.73.91.36,2.45.61,4.62.73,8.93.51,18.6.65,29.04.43,3.61-.08,6.98-.41,10.09-.98.35-.06.61-.36.63-.72,1-21.1,1.53-42.4,1.6-63.88.01-3.22.16-9.15-.92-13.72-.08-.32-.3-.58-.61-.69-.88-.33-2.67-.51-5.35-.56-10.9-.18-22.57.14-35.02.99-1.69.11-3.14.31-4.36.58ZM1306.43,464.66c-.01-.35-.27-.64-.62-.69-1.64-.22-3.38-.36-5.23-.4-12.18-.27-24.16.05-35.92.96-2.04.17-3.12,1.22-3.23,3.16-.28,4.91-.44,8.59-.47,11.04-.29,20.78-.06,42.05.67,63.82.01.17.13.31.29.36,2.29.55,4.83.88,7.62.98,10.08.35,19.74.3,28.99-.15,3.96-.19,6.45-.47,7.48-.84.29-.11.49-.37.51-.67.3-3.58.46-7.57.48-11.96.13-22.15-.06-44.01-.57-65.61ZM1369.68,543.46c.19-.92.29-2.25.3-4,.21-23.73-.04-48.26-.77-73.59-.02-.55-.44-.99-.99-1.03-7.57-.55-18.88-.75-33.95-.58-3.28.03-6.19.25-8.72.65-.67.11-1.2.64-1.31,1.32-.53,3.41-.82,7.27-.87,11.57-.25,21.19-.03,42.71.68,64.56.01.28.2.52.47.59,2.1.55,4.42.9,6.96,1.07,10.51.7,21.64.9,33.39.6,1.29-.03,2.68-.21,4.17-.52.32-.07.57-.32.64-.64Z"/>
  <path class="st1" d="M1056.07,351.98l-3.49,219.71c-2.01.01-3.97.02-5.9.05-55.14.79-98.5.98-130.09.57-5.06-.07-8.35-.18-9.86-.34-.35-.04-.63-.29-.69-.63-.28-1.48-.49-4.46-.62-8.93-.66-21.36-1.09-41.34-1.3-59.94-.25-22.54-.46-43.66-.63-63.37-.1-12.76.38-25.87.25-37.53-.13-10.51.56-21.43.8-33.35.05-2.51.45-6.53,1.2-12.04.98-.61,2.23-.96,3.76-1.07,9.26-.63,18.53-1.05,27.82-1.25,22.33-.48,44.7-1.08,66.8-1.28,17.23-.16,34.54-.36,51.95-.6ZM972.86,371.75c-1.22-.27-2.67-.47-4.36-.58-12.45-.83-24.11-1.15-35-.96-2.69.05-4.47.23-5.35.56-.31.11-.54.37-.61.69-1.08,4.57-.92,10.5-.91,13.72.09,21.47.64,42.76,1.65,63.85.02.36.28.66.63.72,3.11.57,6.48.89,10.09.97,10.43.21,20.1.06,29.02-.45,2.17-.13,3.71-.37,4.62-.74.3-.12.51-.4.54-.73.25-3.03.39-5.22.41-6.58.33-22.14.27-45.41-.18-69.8,0-.32-.23-.6-.55-.67ZM1035.46,371.41c-.01-.35-.27-.64-.62-.69-1.64-.23-3.38-.36-5.23-.41-12.18-.27-24.15.04-35.9.94-2.05.17-3.13,1.22-3.24,3.16-.28,4.91-.44,8.59-.47,11.03-.3,20.77-.09,42.04.63,63.79,0,.18.12.32.29.36,2.28.56,4.82.89,7.61.99,10.08.36,19.74.32,28.98-.13,3.96-.18,6.45-.46,7.48-.83.28-.11.48-.37.51-.67.3-3.58.46-7.57.49-11.96.14-22.13-.04-43.99-.53-65.58ZM990.43,464.64c-.53,21.6-.74,43.46-.63,65.61.02,4.39.17,8.38.47,11.96.02.3.22.56.51.67,1.02.37,3.52.65,7.48.85,9.24.45,18.9.51,28.98.17,2.8-.1,5.34-.42,7.62-.98.17-.04.29-.18.29-.36.76-21.76,1-43.03.73-63.81-.02-2.45-.18-6.13-.46-11.04-.1-1.94-1.18-2.99-3.23-3.16-11.75-.92-23.73-1.25-35.91-1-1.85.04-3.59.18-5.23.4-.35.05-.61.34-.62.69ZM927.14,543.47c.07.32.32.57.64.64,1.5.32,2.89.49,4.17.52,11.75.3,22.89.1,33.4-.6,2.54-.17,4.87-.52,6.97-1.07.26-.07.45-.31.47-.59.7-21.85.93-43.38.67-64.58-.05-4.3-.34-8.16-.87-11.57-.11-.68-.64-1.21-1.31-1.32-2.53-.4-5.44-.62-8.72-.65-15.07-.17-26.39.03-33.96.58-.55.04-.98.49-.99,1.03-.73,25.34-.98,49.88-.77,73.61.02,1.75.12,3.08.3,4Z"/>
  <path class="st3" d="M972.86,371.75c.32.07.54.35.55.67.45,24.39.51,47.66.18,69.8-.02,1.36-.16,3.55-.41,6.58-.03.33-.24.61-.54.73-.91.37-2.45.61-4.62.74-8.92.51-18.59.66-29.02.45-3.61-.08-6.98-.4-10.09-.97-.35-.06-.61-.36-.63-.72-1.01-21.09-1.56-42.38-1.65-63.85-.01-3.22-.17-9.15.91-13.72.07-.32.3-.58.61-.69.88-.33,2.66-.51,5.35-.56,10.89-.19,22.55.13,35,.96,1.69.11,3.14.31,4.36.58ZM948.99,375.24c.01-.21-.16-.38-.37-.38l-16.42.15c-.2,0-.36.16-.37.36l-.5,21.07c-.01.22.17.39.39.38l16.43-.76c.19-.01.34-.17.35-.36l.49-20.46ZM969.06,394.43c.25-2.6.19-7.25-.16-13.94-.08-1.68.24-4.18-1.46-4.72-.41-.13-1.85-.29-4.32-.46-2.31-.16-5.46-.3-9.47-.41-.42,0-.77.32-.78.73l-.47,19.75c0,.19.16.35.35.34l15.72-.73c.31-.02.56-.26.59-.56ZM968.43,424.87c.18.01.33-.14.34-.32l.61-25.39c.01-.19-.15-.34-.34-.33l-16.81.78c-.18,0-.31.14-.32.32l-.57,24.21c-.01.18.14.33.32.34l16.77.39ZM947.11,424.28c.28,0,.52-.24.52-.52l.57-23.52c0-.31-.25-.56-.56-.56l-15.8.4c-.3,0-.53.25-.53.55l.59,23.49c0,.3.25.53.55.53l14.66-.37ZM951.25,428.11c-.19,0-.34.15-.35.34l-.42,17.76c-.01.2.15.36.35.36h17.25c.19,0,.34-.15.35-.34l.42-17.76c.01-.2-.15-.36-.35-.36h-17.25ZM932.14,428.47c-.27,0-.48.22-.48.49l.41,16.62c0,.26.22.47.48.47h13.89c.26,0,.47-.21.48-.47l.39-16.62c0-.27-.21-.49-.48-.49h-14.69Z"/>
  <path class="st3" d="M1035.46,371.41c.49,21.59.67,43.45.53,65.58-.03,4.39-.19,8.38-.49,11.96-.03.3-.23.56-.51.67-1.03.37-3.52.65-7.48.83-9.24.45-18.9.49-28.98.13-2.79-.1-5.33-.43-7.61-.99-.17-.04-.29-.18-.29-.36-.72-21.75-.93-43.02-.63-63.79.03-2.44.19-6.12.47-11.03.11-1.94,1.19-2.99,3.24-3.16,11.75-.9,23.72-1.21,35.9-.94,1.85.05,3.59.18,5.23.41.35.05.61.34.62.69ZM1030.98,375.85c0-.42-.35-.77-.77-.77l-13.66-.02c-.43,0-.77.34-.77.77l-.03,18.24c0,.42.35.77.77.77l13.66.02c.43,0,.77-.34.77-.77l.03-18.24ZM1012.74,394.34c.34.01.62-.27.61-.61l-.44-17.91c0-.33-.3-.6-.63-.58l-16.31.75c-.32.02-.57.27-.57.59l-.41,16.74c0,.33.26.61.59.61l17.16.41ZM1012.83,421.72c.33-.02.59-.29.59-.62v-22.15c0-.34-.27-.62-.61-.62l-17.42-.42c-.34,0-.63.28-.63.62v23.38c0,.35.3.64.65.62l17.42-.81ZM1030.96,398.85c0-.15-.12-.28-.28-.28l-14.7.05c-.15,0-.28.12-.28.28l.08,22.06c0,.15.12.28.28.28l14.7-.05c.15,0,.28-.12.28-.28l-.08-22.06ZM1030.3,445.93c.25,0,.45-.22.45-.47v-19.69c0-.27-.22-.48-.49-.47l-14.07.65c-.25,0-.45.22-.45.47v19.69c0,.27.22.48.49.47l14.07-.65ZM1012.71,446.93c.24.01.44-.19.45-.43l.47-19.7c.01-.24-.2-.45-.44-.45l-17.89.16c-.24,0-.43.19-.44.43l-.46,19.11c-.01.24.19.44.43.45l17.88.43Z"/>
  <path class="st3" d="M1262.04,370.68c1.64-.23,3.38-.36,5.23-.4,12.19-.26,24.16.07,35.92.99,2.05.17,3.12,1.22,3.23,3.16.28,4.91.43,8.59.46,11.04.27,20.78.03,42.05-.72,63.82-.01.17-.12.32-.29.36-2.29.55-4.83.88-7.62.98-10.08.34-19.74.28-28.99-.17-3.96-.19-6.45-.48-7.48-.85-.29-.1-.49-.37-.51-.67-.29-3.58-.45-7.57-.47-11.96-.11-22.15.09-44.02.62-65.61.01-.35.27-.64.62-.69ZM1265.93,375.34v19.22c0,.16.13.29.29.29h12.81c1.24,0,2.24-.39,2.24-.88v-18.04c0-.49-1-.88-2.24-.88h-12.81c-.16,0-.29.13-.29.29ZM1301.76,393.73c.17,0,.3-.15.3-.32l-.8-17.11c0-.16-.13-.29-.29-.29l-16.93-.79c-.17-.01-.32.13-.32.3v18.73c0,.17.15.31.32.3l17.72-.82ZM1301.67,422.35c.19.01.35-.15.35-.34v-23.94c0-.2-.16-.35-.36-.34l-17.86.82c-.18.01-.32.16-.32.34v22.7c0,.18.15.33.33.34l17.86.42ZM1266.24,398.93c-.17,0-.31.15-.31.33v21.44c0,.18.14.32.32.33l14.68.34c.19.01.34-.14.34-.33v-22.46c0-.19-.16-.34-.35-.33l-14.68.68ZM1266.68,425.3c-.37-.02-.68.28-.68.65v19.32c0,.35.27.63.62.65l13.97.65c.37.02.68-.28.68-.65v-19.32c0-.35-.27-.63-.62-.65l-13.97-.65ZM1302.3,426.73c0-.14-.11-.26-.26-.26l-18.26-.1c-.14,0-.26.12-.26.26l-.1,19.76c0,.14.11.26.26.26l18.26.1c.14,0,.26-.12.26-.26l.1-19.76Z"/>
  <path class="st3" d="M1323.98,371.76c1.22-.27,2.67-.47,4.36-.58,12.45-.85,24.12-1.17,35.02-.99,2.68.05,4.47.23,5.35.56.31.11.53.37.61.69,1.08,4.57.93,10.5.92,13.72-.07,21.48-.6,42.78-1.6,63.88-.02.36-.28.66-.63.72-3.11.57-6.48.9-10.09.98-10.44.22-20.11.08-29.04-.43-2.17-.12-3.71-.37-4.62-.73-.3-.13-.51-.41-.54-.73-.26-3.03-.4-5.23-.42-6.59-.34-22.15-.3-45.42.13-69.83,0-.32.23-.6.55-.67ZM1348.16,374.72c-.18-.01-.33.14-.32.32l.51,20.7c.01.16.14.3.3.3l16.33.76c.18.01.33-.13.33-.31l-.2-21.06c0-.17-.13-.3-.3-.31l-16.65-.4ZM1327.83,394.43c.03.3.28.54.59.56l15.71.7c.19.01.35-.15.35-.34l-.5-19.73c-.01-.42-.36-.74-.78-.73-4.01.12-7.16.26-9.46.43-2.47.17-3.91.33-4.32.46-1.7.54-1.37,3.04-1.45,4.72-.34,6.69-.39,11.33-.14,13.93ZM1345.22,424.59c.32-.01.58-.28.56-.6l-1.11-24.05c-.01-.3-.25-.54-.55-.54l-15.83-.38c-.32,0-.59.26-.58.58l.21,24.57c.01.31.27.57.58.56l16.72-.14ZM1364.8,424.47c.25,0,.46-.21.46-.46v-23.49c0-.25-.2-.45-.45-.46l-15.7-.38c-.26,0-.47.21-.47.47l.6,23.87c.01.25.21.45.46.45h15.1ZM1346.01,446.56c.33,0,.6-.28.58-.61l-.79-17.29c-.02-.31-.27-.55-.58-.55h-16.8c-.33,0-.6.28-.58.61l.79,17.29c.02.31.27.55.58.55h16.8ZM1350.08,428.65c-.31,0-.56.27-.56.58l.42,16.44c0,.32.26.56.58.56l13.93-.35c.31,0,.56-.26.56-.57v-16.46c0-.32-.26-.57-.58-.57l-14.35.37Z"/>
  <path class="st3" d="M1085.28,373.51c.01-.14.12-.24.26-.25,20.46-.57,34.01-1.21,50.64-.48.3.02.53.26.53.55v51.76c0,.62-.51,1.13-1.14,1.13h-50.2c-.33,0-.6-.26-.6-.59-.05-16.65-.05-31.28.01-43.91.01-1.69.17-4.43.5-8.21ZM1090.1,376.53c-.42.01-.76.35-.77.77l-.49,20.66c-.01.46.37.83.83.81l18.81-.87c.42-.02.75-.35.76-.77l.48-20.25c.01-.45-.36-.82-.81-.81l-18.81.46ZM1114.75,376.38c-.27,0-.49.2-.49.47l-.48,19.78c0,.27.23.5.5.49l17.68-.82c.26,0,.46-.23.46-.49l-.46-18.56c-.01-.26-.21-.46-.47-.47l-16.74-.4ZM1113.75,401.58c-.27.01-.5.24-.5.51l-.48,20.16c0,.31.25.56.56.54l18.13-.84c.27-.01.5-.24.5-.51l.48-20.16c0-.31-.25-.56-.56-.54l-18.13.84ZM1107.97,422.73c.24,0,.43-.18.44-.42l.48-20.1c0-.25-.2-.45-.45-.44l-19.04.88c-.23.01-.42.21-.41.44l.47,18.79c.01.23.19.41.42.42l18.09.43Z"/>
  <path class="st3" d="M1169.56,373c0-.13.11-.24.24-.25,7.09-.31,14.41-.39,21.95-.24,10.63.22,20.17.47,28.6.74.35.01.64.28.68.64.85,7.67.42,15.3.67,25.07.17,6.82.07,15.71-.32,26.68-.01.33-.28.59-.6.59h-50.11c-.61,0-1.11-.5-1.11-1.11v-52.12ZM1197.27,376.08c-.39,0-.71.31-.7.7l.5,20.43c.01.36.3.65.66.67l19,.88c.4,0,.73-.31.72-.71l-.51-20.84c0-.37-.31-.67-.68-.68l-18.99-.45ZM1174.68,376.77c-.17.01-.3.14-.31.31l-.44,18.89c-.01.17.12.31.29.31l18.21.85c.18.01.33-.14.32-.32l-.94-20.16c0-.17-.14-.3-.31-.29l-16.82.41ZM1174.34,400.93c-.25,0-.45.2-.45.45l.51,20.34c.01.24.19.42.43.43l18.24.43c.25.01.45-.2.45-.45l-.51-20.34c-.01-.24-.19-.42-.43-.43l-18.24-.43ZM1216.56,422.09c.18,0,.31-.14.32-.32l.45-18.99c.01-.18-.14-.33-.32-.34l-19.47-.46c-.19-.01-.34.15-.33.34l.93,20.29c.01.18.17.32.35.31l18.07-.83Z"/>
  <path class="st4" d="M948.99,375.24l-.49,20.46c-.01.19-.16.35-.35.36l-16.43.76c-.22,0-.4-.16-.39-.38l.5-21.07c.01-.2.17-.36.37-.36l16.42-.15c.21,0,.38.17.37.38Z"/>
  <path class="st4" d="M1348.16,374.72l16.65.4c.17.01.3.14.3.31l.2,21.06c0,.18-.15.32-.33.31l-16.33-.76c-.16,0-.29-.14-.3-.3l-.51-20.7c-.01-.18.14-.33.32-.32Z"/>
  <path class="st4" d="M968.47,394.99l-15.72.73c-.19.01-.35-.15-.35-.34l.47-19.75c.01-.41.36-.74.78-.73,4.01.11,7.16.25,9.47.41,2.47.17,3.91.33,4.32.46,1.7.54,1.38,3.04,1.46,4.72.35,6.69.41,11.34.16,13.94-.03.3-.28.54-.59.56Z"/>
  <rect class="st4" x="1013.47" y="377.36" width="19.78" height="15.2" rx=".77" ry=".77" transform="translate(636.61 1407.65) rotate(-89.9)"/>
  <path class="st4" d="M1265.93,375.34c0-.16.13-.29.29-.29h12.81c1.24,0,2.24.39,2.24.88v18.04c0,.49-1,.88-2.24.88h-12.81c-.16,0-.29-.13-.29-.29v-19.22Z"/>
  <path class="st4" d="M1327.83,394.43c-.25-2.6-.2-7.24.14-13.93.08-1.68-.25-4.18,1.45-4.72.41-.13,1.85-.29,4.32-.46,2.3-.17,5.45-.31,9.46-.43.42-.01.77.31.78.73l.5,19.73c0,.19-.16.35-.35.34l-15.71-.7c-.31-.02-.56-.26-.59-.56Z"/>
  <path class="st4" d="M1012.74,394.34l-17.16-.41c-.33,0-.59-.28-.59-.61l.41-16.74c0-.32.25-.57.57-.59l16.31-.75c.33-.02.62.25.63.58l.44,17.91c.01.34-.27.62-.61.61Z"/>
  <path class="st4" d="M1301.76,393.73l-17.72.82c-.17.01-.32-.13-.32-.3v-18.73c0-.17.15-.31.32-.3l16.93.79c.16,0,.29.13.29.29l.8,17.11c0,.17-.13.32-.3.32Z"/>
  <path class="st4" d="M1090.1,376.53l18.81-.46c.45-.01.82.36.81.81l-.48,20.25c-.01.42-.34.75-.76.77l-18.81.87c-.46.02-.84-.35-.83-.81l.49-20.66c.01-.42.35-.76.77-.77Z"/>
  <path class="st4" d="M1197.27,376.08l18.99.45c.37.01.67.31.68.68l.51,20.84c.01.4-.32.72-.72.71l-19-.88c-.36-.02-.65-.31-.66-.67l-.5-20.43c0-.39.31-.71.7-.7Z"/>
  <path class="st4" d="M1114.75,376.38l16.74.4c.26.01.46.21.47.47l.46,18.56c0,.26-.2.48-.46.49l-17.68.82c-.27.01-.5-.22-.5-.49l.48-19.78c0-.27.22-.47.49-.47Z"/>
  <path class="st4" d="M1174.68,376.77l16.82-.41c.17-.01.31.12.31.29l.94,20.16c.01.18-.14.33-.32.32l-18.21-.85c-.17,0-.3-.14-.29-.31l.44-18.89c.01-.17.14-.3.31-.31Z"/>
  <path class="st4" d="M1012.83,421.72l-17.42.81c-.35.02-.65-.27-.65-.62v-23.38c0-.34.29-.62.63-.62l17.42.42c.34,0,.61.28.61.62v22.15c0,.33-.26.6-.59.62Z"/>
  <path class="st4" d="M1301.67,422.35l-17.86-.42c-.18,0-.33-.16-.33-.34v-22.7c0-.18.14-.33.32-.34l17.86-.82c.2-.01.36.14.36.34v23.94c0,.19-.16.35-.35.34Z"/>
  <rect class="st4" x="1015.74" y="398.6" width="15.26" height="22.62" rx=".28" ry=".28" transform="translate(-1.42 3.57) rotate(-.2)"/>
  <path class="st4" d="M1266.24,398.93l14.68-.68c.19-.01.35.14.35.33v22.46c0,.19-.15.34-.34.33l-14.68-.34c-.18-.01-.32-.15-.32-.33v-21.44c0-.18.14-.33.31-.33Z"/>
  <path class="st4" d="M968.43,424.87l-16.77-.39c-.18-.01-.33-.16-.32-.34l.57-24.21c.01-.18.14-.32.32-.32l16.81-.78c.19,0,.35.14.34.33l-.61,25.39c-.01.18-.16.33-.34.32Z"/>
  <path class="st4" d="M1345.22,424.59l-16.72.14c-.31,0-.57-.25-.58-.56l-.21-24.57c-.01-.32.26-.58.58-.58l15.83.38c.3,0,.54.24.55.54l1.11,24.05c.02.32-.24.59-.56.6Z"/>
  <path class="st4" d="M947.11,424.28l-14.66.37c-.3,0-.55-.23-.55-.53l-.59-23.49c0-.3.23-.55.53-.55l15.8-.4c.31,0,.56.25.56.56l-.57,23.52c0,.28-.24.52-.52.52Z"/>
  <path class="st4" d="M1364.8,424.47h-15.1c-.25,0-.45-.2-.46-.45l-.6-23.87c0-.26.21-.47.47-.47l15.7.38c.25.01.45.21.45.46v23.49c0,.25-.21.46-.46.46Z"/>
  <path class="st4" d="M1113.75,401.58l18.13-.84c.31-.02.56.23.56.54l-.48,20.16c0,.27-.23.5-.5.51l-18.13.84c-.31.02-.56-.23-.56-.54l.48-20.16c0-.27.23-.5.5-.51Z"/>
  <path class="st4" d="M1174.34,400.93l18.24.43c.24,0,.42.19.43.43l.51,20.34c0,.25-.2.46-.45.45l-18.24-.43c-.24,0-.42-.19-.43-.43l-.51-20.34c0-.25.2-.46.45-.45Z"/>
  <path class="st4" d="M1107.97,422.73l-18.09-.43c-.23,0-.41-.19-.42-.42l-.47-18.79c-.01-.23.18-.43.41-.44l19.04-.88c.25,0,.45.19.45.44l-.48,20.1c-.01.24-.2.43-.44.42Z"/>
  <path class="st4" d="M1216.56,422.09l-18.07.83c-.18,0-.34-.13-.35-.31l-.93-20.29c-.01-.19.14-.35.33-.34l19.47.46c.18.01.33.16.32.34l-.45,18.99c-.01.18-.14.32-.32.32Z"/>
  <path class="st4" d="M1030.3,445.93l-14.07.65c-.27.01-.49-.2-.49-.47v-19.69c0-.25.2-.46.45-.47l14.07-.65c.27,0,.49.2.49.47v19.69c0,.25-.2.46-.45.47Z"/>
  <path class="st4" d="M1266.68,425.3l13.97.65c.35.02.62.3.62.65v19.32c0,.37-.31.67-.68.65l-13.97-.65c-.35-.02-.62-.3-.62-.65v-19.32c0-.37.31-.67.68-.65Z"/>
  <path class="st4" d="M1012.71,446.93l-17.88-.43c-.24-.01-.44-.21-.43-.45l.46-19.11c.01-.24.2-.43.44-.43l17.89-.16c.24,0,.45.21.44.45l-.47,19.7c0,.24-.21.44-.45.43Z"/>
  <rect class="st4" x="1282.72" y="427.17" width="20.28" height="18.78" rx=".26" ry=".26" transform="translate(849.54 1727.12) rotate(-89.7)"/>
  <path class="st4" d="M951.25,428.11h17.25c.2,0,.36.16.35.36l-.42,17.76c-.01.19-.16.34-.35.34h-17.25c-.2,0-.36-.16-.35-.36l.42-17.76c0-.19.16-.34.35-.34Z"/>
  <path class="st4" d="M1346.01,446.56h-16.8c-.31,0-.56-.24-.58-.55l-.79-17.29c-.02-.33.25-.61.58-.61h16.8c.31,0,.56.24.58.55l.79,17.29c.02.33-.25.61-.58.61Z"/>
  <path class="st4" d="M932.14,428.47h14.69c.27,0,.48.22.48.49l-.39,16.62c-.01.26-.22.47-.48.47h-13.89c-.26,0-.48-.21-.48-.47l-.41-16.62c0-.27.21-.49.48-.49Z"/>
  <path class="st4" d="M1350.08,428.65l14.35-.37c.32,0,.58.25.58.57v16.46c0,.31-.25.57-.56.57l-13.93.35c-.32,0-.58-.24-.58-.56l-.42-16.44c0-.31.25-.58.56-.58Z"/>
  <path class="st4" d="M1239.64,572.83c-45.46-.09-90.42-.25-134.88-.5-5.16-.03-10.32-.05-15.49-.08-9.81-.05-21.58-.72-32.44-.66l.64-37.13c.01-.37.29-.68.66-.71l1.78-.14c.26-.02.52-.01.77.04,4.15.73,7.48.78,10.01.17,1.96-.48,3.42-.5,4.37-.07.41.19.68.6.68,1.06v27.92c0,.27.22.48.49.48h3.37c.35,0,.64-.29.64-.64v-5.05c0-.3.25-.55.55-.55h5.62c.32,0,.58-.26.58-.58v-4.75c0-.36.27-.66.63-.71l6.35-.81c9.77.45,16.53.68,20.28.69,14.47,0,34.1.06,58.91.14,6.9.02,14.66-.35,21.38-.34.53,0,1.4-.15,2.59-.44.11-.03.19-.13.17-.25-.01-.11-.1-.2-.22-.2l-102.69-.23.15-6.79c.01-.84.87-1.4,1.65-1.07,3.4,1.41,6.91.65,10.31.06.22-.04.38-.24.37-.46-.02-.22-.2-.4-.42-.41l-8.18-.38c-.3-.02-.53-.26-.53-.56.03-47.04.05-72.1.05-75.17,0-.17.13-.3.4-.38l7.59-.24c.06,0,.1-.05.11-.11,0-.05-.04-.1-.1-.11-2.66-.36-5.26-.41-7.81-.16-1.01.2-1.98.17-2.91-.08-.31-.09-.55-.33-.63-.64-.23-.93-.04-1.49.55-1.68l15.14-.11c.13,0,.24-.11.24-.24v-.27c0-.26-.22-.48-.48-.47l-15.52.32-5.57-.2c-.69-.02-1.24-.57-1.27-1.26l-.39-8.34c-.03-.64.44-1.2,1.07-1.28,3.02-.41,8.13-.71,15.32-.9,31.11-.82,65.5-1.48,103.16-1.99.38-.01.69.31.67.69l-.36,7.76c-.07,1.44-1.22,2.59-2.66,2.66l-2.92.13c-.38.02-.68.33-.68.71v2.89c0,.35-.3.64-.66.62l-1.21-.05c-.34-.02-.62.25-.62.58v78.58c0,.43.41.75.83.64.75-.19,1.27-.14,1.55.15.07.07.11.16.12.26l.34,7.57c.02.41.36.74.77.76l5.71.27c.38.02.68.33.68.71v4.91c0,.3.25.55.56.55h5.88c.31,0,.57.26.57.57v5.24c0,.25.21.46.46.46h4.71c.23,0,.42-.19.42-.43v-27.25c0-.39.28-.72.66-.8,1.53-.29,3.05-.32,4.54-.08,1.74.29,3.81.5,6.22.65.13.01.23-.08.24-.21l.02-.4s-.03-.07-.06-.08l-6.66-.72c-.23-.03-.39-.25-.34-.48l.36-1.51c.07-.3-.04-.62-.29-.81-2.23-1.68-3.45-3.43-3.68-5.24-.67-5.33.93-8.75,4.78-10.26,2.97-1.16,5.79-.91,8.46.76,2.41,1.51,3.6,4.03,3.56,7.54-.03,2.43-1.45,4.64-4.26,6.64-.26.18-.38.52-.28.82l.88,2.86c.05.15.19.25.35.26l3.21.15c.35.02.62.3.63.65l.45,37.54ZM1198.96,458.05c-.03-.41-3.43-.56-7.6-.32-4.18.24-7.54.78-7.51,1.19.03.41,3.43.56,7.6.32,4.18-.24,7.54-.78,7.51-1.19ZM1114.6,544.67l66.57-.08c.28,0,.51-.23.52-.51l.03-2.15,3.96-.38c.29-.03.51-.27.51-.56l.04-77.59c3.31.13,6.63-.05,9.95-.55.18-.03.31-.19.3-.37-.02-.18-.17-.32-.35-.32h-8.64c-.34,0-.67.1-.95.3l-.65.45-3.05-.25c-.36-.03-.63-.33-.62-.69l.05-2.24c.01-.4-.31-.72-.71-.71l-68.57,1.71c-.43,0-.77.36-.76.79l.04,1.64c.01.34-.26.62-.6.61l-3.11-.08c-.3-.01-.55.24-.55.54v76.95c0,.33.27.6.61.6h2.14c.28,0,.51.24.5.52l-.03,1.63c-.01.34.23.64.57.7.91.17,1.84.18,2.8.04ZM1230.2,531.61c-.21.04-1.26.08-3.17.12-.21,0-.27.3-.07.38.74.31,1.86.34,3.34.09,1.49-.25,2.53-.64,3.14-1.17.16-.14.01-.4-.2-.34-1.81.58-2.82.89-3.04.92ZM1187,540.96l-.03.92c-.01.11.08.21.19.21l3.8.12c3.26.1,5.91-.08,5.92-.41v-.12c.01-.34-2.62-.69-5.88-.79l-3.8-.12c-.11,0-.2.08-.2.19ZM1088.83,557.37h116.64c.11,0,.17-.12.11-.21l-.14-.2c0-.09-.08-.16-.17-.17-26.75-.53-52.89-.82-78.41-.86-7.88-.01-15.79-.73-23.42-.13-3.47.28-7.63-.17-10.72.13-1.9.19-3.24.48-4.03.89-.27.14-.16.55.14.55ZM1195.04,564.34c5.97.07,11.89-.14,17.77-.61.27-.02.51-.1.71-.24.18-.12.09-.4-.13-.4l-20.18-.24-111.37-.25c-.21,0-.28.28-.1.38.7.4,1.16.61,1.39.63,2.6.18,4.87.59,7.16.5,6.04-.23,11.98.29,17.94.28,28.94-.05,57.88-.06,86.81-.05Z"/>
  <ellipse class="st1" cx="1191.4" cy="458.49" rx="7.57" ry=".76" transform="translate(-24.42 69.34) rotate(-3.3)"/>
  <path class="st0" d="M1185.89,462.91c.09.23.2.39.34.49l-.04,77.59c0,.29-.22.53-.51.56l-3.96.38c-.31-.61-.46-1.26-.47-1.96-.18-26.08-.89-47.27-2.12-63.58-.15-1.95-.4-3.42-.75-4.41-.31-.86-1.12-1.45-2.04-1.47l-29.61-.7c-.44-.01-.8.34-.79.78l.62,70.58c0,.12-.08.22-.19.25l-.49.16c-.13.04-.26-.06-.26-.2l-.63-70.94c-.01-.3-.25-.54-.55-.53-5.97.07-13.38.22-22.21.44-2.89.07-5.21.3-6.96.68-.3.06-.51.33-.52.63-.24,10.37-.57,19.75-.45,29.41.09,7.44.26,19.16.49,35.15.04,2.77-.02,5.59-.19,8.45-.96.14-1.89.13-2.8-.04-.34-.06-.58-.36-.57-.7l.03-1.63c.01-.28-.22-.52-.5-.52h-2.14c-.34,0-.61-.27-.61-.6v-76.95c0-.3.25-.55.55-.54l3.11.08c.34.01.61-.27.6-.61l-.04-1.64c-.01-.43.33-.78.76-.79l68.57-1.71c.4,0,.72.31.71.71l-.05,2.24c-.01.36.26.66.62.69l3.05.25Z"/>
  <path class="st3" d="M1094.99,461.31c-.43-.01-.64-.26-.62-.77l15.52-.32c.26-.01.48.21.48.47v.27c0,.13-.11.24-.24.24l-15.14.11Z"/>
  <path class="st6" d="M1186.23,463.4c-.14-.1-.25-.26-.34-.49l.65-.45c.28-.2.61-.3.95-.3h8.64c.18,0,.33.14.35.32.01.18-.12.34-.3.37-3.32.5-6.64.68-9.95.55Z"/>
  <path class="st3" d="M990.43,464.64c.01-.35.27-.64.62-.69,1.64-.22,3.38-.36,5.23-.4,12.18-.25,24.16.08,35.91,1,2.05.17,3.13,1.22,3.23,3.16.28,4.91.44,8.59.46,11.04.27,20.78.03,42.05-.73,63.81,0,.18-.12.32-.29.36-2.28.56-4.82.88-7.62.98-10.08.34-19.74.28-28.98-.17-3.96-.2-6.46-.48-7.48-.85-.29-.11-.49-.37-.51-.67-.3-3.58-.45-7.57-.47-11.96-.11-22.15.1-44.01.63-65.61ZM1011.37,469.13c0-.23-.19-.41-.41-.41l-16.14.14c-.23,0-.41.19-.41.41l.16,18.48c0,.23.19.41.41.41l16.14-.14c.23,0,.41-.19.41-.41l-.16-18.48ZM1030.66,487.6c.19-.01.35-.17.35-.36v-17.21c0-.19-.15-.35-.34-.36l-14.54-.67c-.21-.01-.38.15-.38.36v18.24c0,.2.17.37.37.36l14.54-.36ZM1011.91,492.58c0-.26-.22-.46-.48-.46l-16.62.2c-.26,0-.47.22-.46.48l.29,23.34c0,.26.22.46.48.46l16.62-.2c.26,0,.47-.22.46-.48l-.29-23.34ZM1030.77,492.55c0-.16-.13-.29-.29-.29l-14.38-.08c-.16,0-.29.13-.29.29l-.12,23.26c0,.16.13.29.29.29l14.38.08c.16,0,.29-.13.29-.29l.12-23.26ZM1029.67,538.71c.25,0,.46-.21.46-.46v-18.13c0-.25-.21-.46-.46-.46h-13.46c-.25,0-.46.21-.46.46v18.13c0,.25.21.46.46.46h13.46ZM1012.66,520.65c0-.27-.23-.49-.51-.49l-17.36.18c-.27,0-.49.23-.49.51l.18,17.36c0,.27.23.49.51.49l17.36-.18c.27,0,.49-.23.49-.51l-.18-17.36Z"/>
  <path class="st3" d="M1098.19,464.33c-.21-.11-.28-.31-.21-.62,2.55-.25,5.15-.2,7.81.16.06.01.1.06.1.11-.01.06-.05.11-.11.11l-7.59.24Z"/>
  <path class="st3" d="M1306.43,464.66c.51,21.6.7,43.46.57,65.61-.02,4.39-.18,8.38-.48,11.96-.02.3-.22.56-.51.67-1.03.37-3.52.65-7.48.84-9.25.45-18.91.5-28.99.15-2.79-.1-5.33-.43-7.62-.98-.16-.05-.28-.19-.29-.36-.73-21.77-.96-43.04-.67-63.82.03-2.45.19-6.13.47-11.04.11-1.94,1.19-2.99,3.23-3.16,11.76-.91,23.74-1.23,35.92-.96,1.85.04,3.59.18,5.23.4.35.05.61.34.62.69ZM1302.31,469.22c0-.21-.17-.39-.39-.39l-16.08-.08c-.21,0-.39.17-.39.39l-.1,18.52c0,.21.17.39.39.39l16.08.08c.21,0,.39-.17.39-.39l.1-18.52ZM1280.9,487.94c.2.01.36-.15.36-.35v-18.25c0-.2-.17-.36-.37-.35l-14.81.67c-.18.01-.33.17-.33.35v17.24c0,.19.15.34.34.35l14.81.34ZM1281.2,492.64c0-.25-.2-.45-.45-.45l-14.22.07c-.25,0-.45.2-.45.45l.12,22.94c0,.25.2.45.45.45l14.22-.07c.25,0,.45-.2.45-.45l-.12-22.94ZM1302.4,492.69c0-.2-.15-.35-.35-.35l-16.76-.2c-.19,0-.35.15-.35.35l-.29,23.56c0,.2.15.35.35.35l16.76.2c.19,0,.35-.15.35-.35l.29-23.56ZM1280.86,538.86c.27,0,.49-.21.49-.48l-.17-18.11c0-.25-.2-.45-.45-.46l-13.61-.33c-.27,0-.49.21-.49.48l.17,18.11c0,.26.2.46.45.47l13.61.32ZM1302.33,520.79c0-.29-.22-.53-.51-.53l-17.02-.24c-.29,0-.52.23-.53.51l-.24,17.54c0,.29.22.53.51.53l17.02.24c.29,0,.52-.23.53-.51l.24-17.54Z"/>
  <path class="st3" d="M927.14,543.47c-.18-.92-.28-2.25-.3-4-.21-23.73.04-48.27.77-73.61.01-.54.44-.99.99-1.03,7.57-.55,18.89-.75,33.96-.58,3.28.03,6.19.25,8.72.65.67.11,1.2.64,1.31,1.32.53,3.41.82,7.27.87,11.57.26,21.2.03,42.73-.67,64.58-.02.28-.21.52-.47.59-2.1.55-4.43.9-6.97,1.07-10.51.7-21.65.9-33.4.6-1.28-.03-2.67-.2-4.17-.52-.32-.07-.57-.32-.64-.64ZM949.18,469.26c0-.29-.24-.53-.53-.53l-15.76-.03c-.3,0-.53.23-.53.53l-.03,19.18c0,.29.24.53.53.53l15.76.03c.3,0,.53-.23.53-.53l.03-19.18ZM967.53,469.15c0-.27-.22-.49-.49-.49l-13.38.09c-.27,0-.49.22-.49.49l.13,19c0,.27.22.49.49.49l13.38-.09c.27,0,.49-.22.49-.49l-.13-19ZM932.62,492.03c-.22-.01-.4.17-.41.39l-.59,24.8c-.01.22.17.4.39.41l17.43.41c.23.01.42-.18.41-.41l-.62-24.83c-.01-.21-.18-.38-.39-.39l-16.22-.38ZM967.74,492.67c0-.26-.21-.47-.47-.47l-13.58.02c-.26,0-.47.21-.47.47l.04,24.24c0,.26.21.47.47.47l13.58-.02c.26,0,.47-.21.47-.47l-.04-24.24ZM953.82,521.37c-.32.02-.58.29-.58.61v17.46c0,.35.29.63.64.61l12.95-.6c.32-.02.58-.28.58-.6l.42-17.48c.01-.35-.28-.64-.63-.62l-13.38.62ZM949.93,521.84c0-.27-.22-.49-.49-.49l-17.34-.03c-.27,0-.49.22-.49.49l-.03,17.8c0,.27.22.49.49.49l17.34.03c.27,0,.49-.22.49-.49l.03-17.8Z"/>
  <path class="st3" d="M1369.04,544.1c-1.49.31-2.88.49-4.17.52-11.75.3-22.88.1-33.39-.6-2.54-.17-4.86-.52-6.96-1.07-.27-.07-.46-.31-.47-.59-.71-21.85-.93-43.37-.68-64.56.05-4.3.34-8.16.87-11.57.11-.68.64-1.21,1.31-1.32,2.53-.4,5.44-.62,8.72-.65,15.07-.17,26.38.03,33.95.58.55.04.97.48.99,1.03.73,25.33.98,49.86.77,73.59-.01,1.75-.11,3.08-.3,4-.07.32-.32.57-.64.64ZM1343.77,469.22c0-.27-.23-.5-.5-.5l-13.5-.02c-.28,0-.5.22-.5.5l-.03,18.98c0,.27.23.5.5.5l13.5.02c.28,0,.5-.22.5-.5l.03-18.98ZM1364.54,469.19c0-.26-.21-.47-.47-.47h-15.9c-.26,0-.47.21-.47.47v19.3c0,.26.21.47.47.47h15.9c.26,0,.47-.21.47-.47v-19.3ZM1343.84,492.67c0-.23-.18-.41-.41-.41l-13.76-.1c-.23,0-.41.18-.41.41l-.17,24.36c0,.23.18.41.41.41l13.76.1c.23,0,.41-.18.41-.41l.17-24.36ZM1364.94,492.7c0-.25-.2-.45-.45-.45l-16.68-.06c-.24,0-.45.2-.45.45l-.09,24.72c0,.25.2.45.45.45l16.68.06c.24,0,.45-.2.45-.45l.09-24.72ZM1329.72,520.9c-.27,0-.49.21-.49.48v17.58c0,.26.2.47.46.48l13.56.63c.27.01.5-.21.5-.48v-17.88c0-.26-.21-.48-.47-.48l-13.56-.33ZM1365.29,521.65c0-.16-.13-.3-.3-.3l-17.72-.06c-.16,0-.3.13-.3.3l-.06,18.18c0,.16.13.3.3.3l17.72.06c.16,0,.3-.13.3-.3l.06-18.18Z"/>
  <rect class="st4" x="930.63" y="470.43" width="20.24" height="16.82" rx=".53" ry=".53" transform="translate(460.27 1418.75) rotate(-89.9)"/>
  <rect class="st4" x="953.24" y="468.71" width="14.36" height="19.98" rx=".49" ry=".49" transform="translate(-3.32 6.72) rotate(-.4)"/>
  <rect class="st4" x="994.49" y="468.79" width="16.96" height="19.3" rx=".41" ry=".41" transform="translate(-4.14 8.77) rotate(-.5)"/>
  <rect class="st4" x="1284.18" y="470.01" width="19.3" height="16.86" rx=".39" ry=".39" transform="translate(808.62 1769.75) rotate(-89.7)"/>
  <rect class="st4" x="1326.51" y="471.45" width="19.98" height="14.5" rx=".5" ry=".5" transform="translate(855.47 1814.36) rotate(-89.9)"/>
  <rect class="st4" x="1347.7" y="468.72" width="16.84" height="20.24" rx=".47" ry=".47"/>
  <path class="st4" d="M1030.66,487.6l-14.54.36c-.2.01-.37-.16-.37-.36v-18.24c0-.21.17-.37.38-.36l14.54.67c.19,0,.34.17.34.36v17.21c0,.19-.16.35-.35.36Z"/>
  <path class="st4" d="M1280.9,487.94l-14.81-.34c-.19-.01-.34-.16-.34-.35v-17.24c0-.18.15-.34.33-.35l14.81-.67c.2,0,.37.15.37.35v18.25c0,.2-.16.36-.36.35Z"/>
  <path class="st3" d="M1181.72,541.93l-.03,2.15c0,.28-.24.51-.52.51l-66.57.08c.17-2.86.23-5.68.19-8.45-.23-15.99-.4-27.71-.49-35.15-.12-9.66.21-19.04.45-29.41.01-.3.22-.57.52-.63,1.75-.38,4.07-.61,6.96-.68,8.83-.22,16.24-.37,22.21-.44.3-.01.54.23.55.53l.63,70.94c0,.14.13.24.26.2l.49-.16c.11-.03.19-.13.19-.25l-.62-70.58c0-.44.35-.79.79-.78l29.61.7c.92.02,1.73.61,2.04,1.47.35.99.6,2.46.75,4.41,1.23,16.31,1.94,37.5,2.12,63.58.01.7.16,1.35.47,1.96Z"/>
  <path class="st4" d="M932.62,492.03l16.22.38c.21.01.38.18.39.39l.62,24.83c.01.23-.18.42-.41.41l-17.43-.41c-.22,0-.4-.19-.39-.41l.59-24.8c0-.22.19-.4.41-.39Z"/>
  <rect class="st4" x="953.24" y="492.21" width="14.52" height="25.18" rx=".47" ry=".47" transform="translate(-.88 1.68) rotate(-.1)"/>
  <rect class="st4" x="994.49" y="492.22" width="17.56" height="24.28" rx=".47" ry=".47" transform="translate(-6.09 12.29) rotate(-.7)"/>
  <rect class="st4" x="1011.31" y="496.66" width="23.84" height="14.96" rx=".29" ry=".29" transform="translate(513.74 1524.72) rotate(-89.7)"/>
  <rect class="st4" x="1266.14" y="492.23" width="15.12" height="23.84" rx=".45" ry=".45" transform="translate(-2.62 6.68) rotate(-.3)"/>
  <rect class="st4" x="1281.4" y="495.63" width="24.26" height="17.46" rx=".35" ry=".35" transform="translate(773.4 1791.63) rotate(-89.3)"/>
  <rect class="st4" x="1323.88" y="497.51" width="25.18" height="14.58" rx=".41" ry=".41" transform="translate(822.35 1837.71) rotate(-89.6)"/>
  <rect class="st4" x="1343.3" y="496.24" width="25.62" height="17.58" rx=".45" ry=".45" transform="translate(846.35 1859.37) rotate(-89.8)"/>
  <path class="st4" d="M1070.43,532.93c-2.11.03-3.32-.04-3.63-.21-.28-.15-.61-.16-.9-.04-.53.23-1.74.26-3.61.1-.34-.03-.57-.36-.47-.69.43-1.44.67-2.2-.67-3.29-4.91-4.01-4.2-12,1.96-14.18,10.76-3.81,16.13,10,7.84,15.63-.27.19-.4.54-.3.86l.33,1.06c.11.37-.16.76-.55.76ZM1066.02,531.25c.89.12,1.86.05,2.89-.22.2-.05.32-.24.29-.44-.02-.2-.2-.35-.41-.34-1.52.06-2.4.07-2.64.04-.25-.04-1.09-.28-2.54-.75-.2-.06-.41.04-.49.22-.08.19-.01.41.17.51.92.53,1.83.85,2.73.98Z"/>
  <path class="st4" d="M1029.67,538.71h-13.46c-.25,0-.46-.21-.46-.46v-18.13c0-.25.21-.46.46-.46h13.46c.25,0,.46.21.46.46v18.13c0,.25-.21.46-.46.46Z"/>
  <path class="st4" d="M1280.86,538.86l-13.61-.32c-.25-.01-.45-.21-.45-.47l-.17-18.11c0-.27.22-.48.49-.48l13.61.33c.25,0,.45.21.45.46l.17,18.11c0,.27-.22.48-.49.48Z"/>
  <rect class="st4" x="994.39" y="520.25" width="18.36" height="18.36" rx=".5" ry=".5" transform="translate(-5.49 10.54) rotate(-.6)"/>
  <rect class="st4" x="1283.89" y="520.4" width="18.58" height="18.06" rx=".52" ry=".52" transform="translate(745.75 1815.09) rotate(-89.2)"/>
  <path class="st4" d="M953.82,521.37l13.38-.62c.35-.02.64.27.63.62l-.42,17.48c0,.32-.26.58-.58.6l-12.95.6c-.35.02-.64-.26-.64-.61v-17.46c0-.32.26-.59.58-.61Z"/>
  <path class="st4" d="M1329.72,520.9l13.56.33c.26,0,.47.22.47.48v17.88c0,.27-.23.49-.5.48l-13.56-.63c-.26,0-.46-.22-.46-.48v-17.58c0-.27.22-.48.49-.48Z"/>
  <rect class="st4" x="931.36" y="521.56" width="18.78" height="18.32" rx=".49" ry=".49" transform="translate(408.39 1470.54) rotate(-89.9)"/>
  <rect class="st4" x="1346.71" y="521.55" width="18.78" height="18.32" rx=".3" ry=".3" transform="translate(820.66 1884.95) rotate(-89.8)"/>
  <path class="st6" d="M1066.15,530.29c.24.03,1.12.02,2.64-.04.21-.01.39.14.41.34.03.2-.09.39-.29.44-1.03.27-2,.34-2.89.22-.9-.13-1.81-.45-2.73-.98-.18-.1-.25-.32-.17-.51.08-.18.29-.28.49-.22,1.45.47,2.29.71,2.54.75Z"/>
  <path class="st6" d="M1230.3,532.2c-1.48.25-2.6.22-3.34-.09-.2-.08-.14-.38.07-.38,1.91-.04,2.96-.08,3.17-.12.22-.03,1.23-.34,3.04-.92.21-.06.36.2.2.34-.61.53-1.65.92-3.14,1.17Z"/>
  <path class="st0" d="M1187,540.96c0-.11.09-.19.2-.19l3.8.12c3.26.1,5.89.45,5.88.79v.12c-.01.33-2.66.51-5.92.41l-3.8-.12c-.11,0-.2-.1-.19-.21l.03-.92Z"/>
  <path class="st3" d="M1094.39,549.49l102.69.23c.12,0,.21.09.22.2.02.12-.06.22-.17.25-1.19.29-2.06.44-2.59.44-6.72-.01-14.48.36-21.38.34-24.81-.08-44.44-.13-58.91-.14-3.75-.01-10.51-.24-20.28-.69.01-.63.15-.84.42-.63Z"/>
  <path class="st3" d="M1088.69,556.82c.79-.41,2.13-.7,4.03-.89,3.09-.3,7.25.15,10.72-.13,7.63-.6,15.54.12,23.42.13,25.52.04,51.66.33,78.41.86.09.01.16.08.17.17l.14.2c.06.09,0,.21-.11.21h-116.64c-.3,0-.41-.41-.14-.55Z"/>
  <path class="st6" d="M1193.21,562.85l1.33.16c.35.04.59.35.56.7l-.06.63c-28.93-.01-57.87,0-86.81.05-5.96.01-11.9-.51-17.94-.28-2.29.09-4.56-.32-7.16-.5-.23-.02-.69-.23-1.39-.63-.18-.1-.11-.38.1-.38l111.37.25Z"/>
  <path class="st1" d="M1195.04,564.34l.06-.63c.03-.35-.21-.66-.56-.7l-1.33-.16,20.18.24c.22,0,.31.28.13.4-.2.14-.44.22-.71.24-5.88.47-11.8.68-17.77.61Z"/>
  <path d="M632.6,605.11c29.66.03,46.52,21.2,46.49,49.41-.02,28.2-16.92,49.35-46.57,49.32-29.65-.02-46.51-21.2-46.49-49.4.02-28.2,16.92-49.35,46.57-49.33ZM616.86,654.37c-.01,10.93.07,29.24,15.68,29.26,15.6.01,15.71-18.3,15.72-29.23s-.07-29.25-15.67-29.26c-15.61-.01-15.72,18.3-15.73,29.23Z"/>
  <path d="M879,690.81c-.94.91-.85,2.43.18,3.22,3.29,2.5,7.05,4.04,11.29,4.63.98.14,1.72.97,1.73,1.96.05,3.62.05,8.57,0,14.85-.02,2.24-1.35,3.41-4,3.52-13.97.56-22.96-5.08-31.54-15.34-.27-.32-.68-.49-1.1-.45-7.67.73-14.98.89-22.67-.87-31.58-7.25-39.52-42.2-30.41-68.41,8.85-25.45,37.36-34.44,61.19-25.79,15.18,5.5,24.81,19.06,27.57,35.14,2.76,16.11-.09,35.91-12.24,47.54ZM829.91,654.34c0,10.95.08,29.28,15.7,29.29,15.62.01,15.73-18.32,15.74-29.27,0-10.94-.08-29.28-15.7-29.29-15.62,0-15.73,18.33-15.74,29.27Z"/>
  <path d="M1099,690.81c-.94.91-.85,2.43.18,3.22,3.28,2.5,7.05,4.04,11.29,4.63.98.14,1.72.97,1.73,1.96.04,3.62.04,8.57,0,14.85-.02,2.24-1.36,3.41-4,3.52-13.97.56-22.96-5.08-31.54-15.34-.27-.33-.68-.49-1.1-.45-7.67.73-14.98.89-22.67-.87-31.58-7.25-39.52-42.2-30.41-68.41,8.85-25.45,37.36-34.44,61.19-25.79,15.18,5.5,24.81,19.06,27.57,35.14,2.76,16.11-.09,35.91-12.24,47.54ZM1049.91,654.34c0,10.95.08,29.28,15.7,29.29,15.62.01,15.73-18.32,15.74-29.27,0-10.94-.08-29.28-15.7-29.29-15.62,0-15.73,18.33-15.74,29.27Z"/>
  <path d="M1157.51,677.75c-.14.33.09.69.45.7.83.02,13.44.03,37.81.03,2.13,0,3.19.9,3.19,2.71.01,5.93.02,11.7.03,17.31.01,4.42-2.44,3.98-6.15,3.98-6.14-.01-29.67-.01-70.59-.02-1.36,0-2.47-1.1-2.47-2.46v-13.45c0-.51.13-1.01.39-1.45.75-1.3,1.83-2.54,3.23-3.73,4.29-3.65,13.81-11.54,28.56-23.69,4.46-3.67,8.8-7.58,13.01-11.73,5.77-5.69,6.85-15.79-1.68-19.15-5.3-2.09-11.43-.53-15.24,3.73-2.35,2.63-4.51,5.8-6.46,9.5-.68,1.29-1.79,1.6-3.34.93-2.26-.97-7.77-3.69-16.54-8.14-1.27-.64-1.89-2.1-1.46-3.46.61-1.92,2.03-3.57,2.99-5.02,9.37-14.08,23.04-20.46,41.01-19.14,16.8,1.24,32.75,10.02,33.74,28.58.65,12.26-6.01,20.56-15.65,27.03-13.59,9.11-21.72,14.56-24.39,16.34-.18.12-.33.32-.44.6Z"/>
  <path d="M295.73,653.27c10.28,4.16,18.86,9.17,19.26,21.64.91,28.12-29.75,27.55-49.2,27.56h-32.54c-2.35,0-3.53-1.16-3.53-3.49,0-49.4,0-77.95,0-85.64,0-3.74-.45-7.03,3.76-7.03,23.94-.04,38.03-.02,42.26.07,17.65.37,40.73,6.72,36.4,29.99-1.47,7.92-9.35,12.97-16.44,16.07-.36.16-.35.68.02.83ZM259.23,627.92l-.1,13.76c-.01,1.2.96,2.18,2.16,2.19l12.3.09c5.51.03,10.01-3.84,10.05-8.65v-.66c.04-4.82-4.41-8.76-9.93-8.79l-12.3-.09c-1.2-.01-2.17.96-2.18,2.15ZM259.09,666.19l.16,14.62c.01,1.26,1.04,2.27,2.3,2.26l12.32-.13c5.87-.06,10.58-4.28,10.52-9.42v-.56c-.06-5.14-4.86-9.26-10.72-9.2l-12.32.13c-1.26.01-2.27,1.04-2.26,2.3Z"/>
  <path d="M384.09,684.74c-.17-.55-.69-.93-1.27-.93h-28.43c-.72,0-1.37.46-1.6,1.14-2.52,7.37-4.39,12.68-5.6,15.93-.39,1.03-1.38,1.55-2.95,1.56-7.25.02-13.46.04-18.63.05-1.32.01-2.27-.31-2.86-.94-.7-.77-.84-1.76-.41-2.97,10.05-28.45,20.67-58.41,31.88-89.87.56-1.57,1.67-2.36,3.34-2.38,8.77-.08,17.5-.07,26.21.04,2.05.03,3.49,1.2,4.31,3.52,10.41,29.33,20.76,58.66,31.05,87.99.57,1.62.46,4.57-1.87,4.57-9.43.03-17.92.03-25.45.01-1.33,0-2.51-.87-2.91-2.14l-4.81-15.58ZM368.18,661.77c4.37.01,6.95.01,7.73-.02.64-.02,1.14-.54,1.15-1.18,0-.4-.09-.85-.26-1.34-2.21-6.45-4.81-13.87-7.82-22.24-.13-.38-.38-.57-.72-.57s-.59.19-.73.56c-3.06,8.36-5.71,15.76-7.95,22.2-.18.49-.27.94-.27,1.34,0,.64.51,1.16,1.14,1.19.78.03,3.36.05,7.73.06Z"/>
  <path d="M460.47,681.2h39.83c1.34,0,2.43,1.09,2.42,2.43-.02,4.68,0,9.65.06,14.9.03,2.71-1.31,4.05-4.03,4.01-6.64-.1-28.72-.12-66.24-.05-1.79.01-2.68-.92-2.69-2.78-.14-25.45-.15-55.37-.04-89.74.01-2.28.53-3.94,3.12-3.67.03,0,7.89,0,23.59.01,2.24,0,2.7,1.28,2.68,3.34-.01,1.57-.01,24.99,0,70.26,0,.71.58,1.29,1.3,1.29Z"/>
  <path d="M543.47,681.2h39.83c1.34,0,2.42,1.09,2.42,2.43-.02,4.68,0,9.65.06,14.9.03,2.71-1.31,4.05-4.03,4.01-6.64-.1-28.72-.12-66.24-.05-1.79.01-2.68-.92-2.69-2.78-.14-25.45-.15-55.37-.04-89.74,0-2.28.53-3.94,3.12-3.67.03,0,7.89,0,23.59.01,2.24,0,2.7,1.28,2.68,3.34-.01,1.57-.01,24.99,0,70.26,0,.71.58,1.29,1.3,1.29Z"/>
  <path d="M723.61,606.3c23.64.02,36.71.04,39.19.07,1.79.02,2.71,1.08,2.76,3.18.13,5.09.11,10.31-.06,15.64-.04,1.33-.96,1.99-2.77,1.98-8.56-.01-16.27,0-23.14.04-.69.01-1.25.57-1.26,1.26-.01,1.96-.03,25.54-.05,70.75,0,2.95-1.04,3.2-3.74,3.25h-10.98c-7.09,0-10.75-.01-10.99-.01-2.7-.06-3.74-.31-3.73-3.26.03-45.2.04-68.79.02-70.75,0-.69-.56-1.25-1.25-1.26-6.87-.05-14.58-.07-23.14-.06-1.81,0-2.73-.66-2.77-1.99-.16-5.33-.18-10.54-.04-15.64.05-2.1.97-3.16,2.76-3.18,2.48-.02,15.55-.03,39.19-.02Z"/>
  <path d="M945.93,680.07c0,.62.51,1.13,1.13,1.13h12.5c1.3,0,2.37,1.05,2.39,2.35.07,3.81.07,8.96.02,15.45-.03,3.99-2.88,3.45-6.36,3.45-30.38.06-47.9.04-52.55-.05-1.61-.04-2.43-.86-2.45-2.47-.09-6.02-.12-11.34-.07-15.96.02-1.69.77-2.58,2.25-2.67,1.99-.12,6.14-.16,12.45-.11.68.01,1.24-.55,1.24-1.23v-43.89c0-.75-.7-1.3-1.43-1.14-6.69,1.51-10.61,2.36-11.75,2.54-1.78.29-2.71-.49-2.79-2.32-.19-4.24-.19-8.43-.02-12.56.04-1.03.64-1.96,1.56-2.44,3.42-1.74,11.34-5.7,23.75-11.87,2.76-1.37,4.73-2.03,7.63-2,3.49.04,6.62.04,9.37-.01,3.6-.07,3.14,2.7,3.14,5.67-.04,31.25-.04,53.96-.01,68.13Z"/>
  <path class="st7" d="M632.59,625.14c15.6.01,15.68,18.33,15.67,29.26s-.12,29.24-15.72,29.23c-15.61-.02-15.69-18.33-15.68-29.26.01-10.93.12-29.24,15.73-29.23Z"/>
  <path class="st7" d="M829.91,654.34c.01-10.94.12-29.28,15.74-29.27,15.62.01,15.7,18.35,15.7,29.29,0,10.95-.12,29.28-15.74,29.27-15.62,0-15.7-18.34-15.7-29.29Z"/>
  <path class="st7" d="M1049.91,654.34c.01-10.94.12-29.28,15.74-29.27,15.62.01,15.7,18.35,15.7,29.29-.01,10.95-.12,29.28-15.74,29.27-15.62,0-15.7-18.34-15.7-29.29Z"/>
  <path class="st7" d="M259.23,627.92c0-1.19.98-2.16,2.18-2.15l12.3.09c5.52.03,9.97,3.97,9.93,8.79v.66c-.04,4.81-4.54,8.68-10.05,8.65l-12.3-.09c-1.2-.01-2.17-.99-2.16-2.19l.1-13.76Z"/>
  <path class="st7" d="M368.26,636.42c.34,0,.59.19.72.57,3.01,8.37,5.61,15.79,7.82,22.24.17.49.26.94.26,1.34-.01.64-.51,1.16-1.15,1.18-.78.03-3.36.03-7.73.02s-6.95-.03-7.73-.06c-.63-.03-1.14-.55-1.14-1.19,0-.4.09-.85.27-1.34,2.24-6.44,4.89-13.84,7.95-22.2.14-.37.38-.56.73-.56Z"/>
  <rect x="971.31" y="659.28" width="38.6" height="18.16" rx="2.7" ry="2.7"/>
  <path class="st7" d="M259.09,666.19c-.01-1.26,1-2.29,2.26-2.3l12.32-.13c5.86-.06,10.66,4.06,10.72,9.2v.56c.06,5.14-4.65,9.36-10.52,9.42l-12.32.13c-1.26.01-2.29-1-2.3-2.26l-.16-14.62Z"/>
  <path d="M263.15,774.93c6.57-15.36,19.93-24.21,36.87-24.18,11.04.02,21.44,4.23,27.09,14.26,6.16,10.93,5.05,26.11.25,37.32-6.57,15.36-19.93,24.22-36.87,24.18-11.04-.02-21.44-4.23-27.09-14.25-6.16-10.94-5.05-26.12-.25-37.33ZM283.63,786.43c-.81,4.41-1.23,8.84-1.27,13.31-.04,5.61,1.42,10.92,7.99,11.23,11.97.58,14.91-10.97,16.63-20.3.82-4.41,1.25-8.84,1.28-13.3.05-5.62-1.41-10.93-7.98-11.24-11.97-.58-14.91,10.97-16.65,20.3Z"/>
  <path d="M568.51,801.51c-.1,2.15-.7,4.1-1.81,5.87-8.11,12.93-19.67,19.29-34.67,19.07-28.69-.41-35.37-31.35-25.59-53,5.65-12.49,15.16-19.9,28.55-22.23,17.06-2.96,35.45,4.71,36.04,24.29.02.91-.68,1.66-1.58,1.7l-16.92.78c-.83.04-1.56-.56-1.67-1.39-.6-4.65-1.13-9.77-6.77-10.45-15.53-1.87-18.68,20.18-18.69,31.06,0,6.22.82,12.99,8.87,12.93,7.8-.06,13.57-3.96,17.32-11.71.41-.85,1.36-1.3,2.28-1.08l14.01,3.32c.39.09.65.45.63.84Z"/>
  <path d="M580.16,774.93c6.57-15.36,19.93-24.21,36.87-24.18,11.04.02,21.44,4.23,27.09,14.26,6.16,10.93,5.05,26.11.24,37.32-6.56,15.36-19.92,24.21-36.86,24.18-11.04-.02-21.44-4.23-27.09-14.25-6.16-10.94-5.05-26.12-.25-37.33ZM600.64,786.44c-.81,4.4-1.23,8.83-1.26,13.3-.04,5.61,1.42,10.92,7.99,11.24,11.97.57,14.9-10.98,16.62-20.31.82-4.4,1.25-8.84,1.28-13.3.05-5.61-1.41-10.92-7.98-11.24-11.98-.57-14.91,10.98-16.65,20.31Z"/>
  <path d="M343.98,752.59c.07-.51.51-.89,1.03-.9,4.48-.03,10.65-.04,18.51-.03,2.25.01,2.95,1.07,2.64,3.25-3.37,24.09-5.44,39.11-6.23,45.05-.86,6.45,2.13,11,9.11,10.64,10.76-.55,13.15-8.69,14.52-18.95,1.16-8.63,2.97-21.6,5.44-38.89.09-.62.62-1.07,1.24-1.08,6.43-.02,11.17-.03,14.21-.03,2.42,0,3.12.9,2.78,3.32-3.37,24.17-5.4,38.61-6.11,43.33-1.2,8.06-4.38,16.69-11.27,21.72-8.11,5.92-19.2,7.03-29.33,6.18-20.87-1.76-24.78-14.97-22.18-33.68,1.14-8.23,3.02-21.54,5.64-39.93Z"/>
  <path d="M433.12,796.96c-1.17,7.81-2.4,16.54-3.69,26.17-.21,1.57-1.19,2.35-2.93,2.35h-16.41c-2.27,0-3.56-.53-3.21-3.04,3.51-24.84,6.79-48.11,9.86-69.81.08-.55.55-.96,1.1-.96,12.56,0,23.53-.01,32.91-.02,11.78,0,28.59,3.27,28.63,18.57.03,10.61-6.21,19.18-16.23,23.23-.47.19-.71.71-.56,1.19l8.97,29.02c.27.89-.39,1.79-1.32,1.79-12.2.02-18.62.03-19.27.04-2.94.04-2.99-1.66-3.58-4.33-.32-1.45-2.13-9.5-5.44-24.17-.11-.5-.55-.85-1.05-.85h-6.83c-.48,0-.88.35-.95.82ZM436.09,781.27c3.17-.01,6.4.01,9.69.06,5.56.08,10.73-4.02,10.18-9.89-.33-3.62-3.81-5.05-6.97-5.06-6.95-.02-10.49-.02-10.64.01-.55.08-.98.51-1.06,1.06l-1.93,12.98c-.06.44.28.84.73.84Z"/>
  <path d="M721.3,778.47c.02-.17-.08-.34-.25-.39-.17-.04-.36.04-.43.2l-21.22,46.16c-.29.63-.92,1.03-1.61,1.03h-11.1c-1,0-1.85-.71-2.04-1.69-.31-1.56-3.02-16.33-8.15-44.3-.08-.45-.21-.81-.4-1.06-.3-.41-.94-.24-1.01.26l-6.41,45.53c-.1.72-.72,1.26-1.45,1.26h-15.08c-.87,0-1.54-.77-1.42-1.64l10.04-71.3c.07-.49.49-.86.98-.86,7.99,0,17.25-.01,27.78-.03,3.67-.01,3.52,2.14,4.15,5.47,2.72,14.35,4.52,23.83,5.41,28.43.08.41.64.48.81.1,5.91-13.11,10.62-23.66,14.14-31.65.7-1.59,1.85-2.38,3.44-2.37,12.98.05,22.6.07,28.87.04.72-.01,1.28.63,1.18,1.35-1.42,10.17-4.71,33.55-9.87,70.15-.4,2.81-1.9,2.27-4.31,2.3-4.13.04-9.57.02-16.3-.05-1.56-.01-2.2-1.01-1.92-2.99,2.65-18.47,4.7-33.12,6.17-43.95Z"/>
  <path d="M811.61,778.55c.02-.18-.09-.34-.26-.39-.17-.04-.35.04-.42.2l-21.22,46.16c-.29.63-.92,1.03-1.61,1.03h-11.1c-1,0-1.86-.71-2.04-1.69-.31-1.56-3.02-16.33-8.15-44.3-.08-.45-.21-.81-.4-1.06-.3-.41-.94-.24-1.01.26l-6.41,45.53c-.1.72-.72,1.26-1.45,1.26h-15.08c-.87,0-1.54-.77-1.42-1.64l10.04-71.3c.07-.49.49-.86.98-.86,7.99,0,17.25-.01,27.78-.03,3.67-.01,3.52,2.14,4.15,5.47,2.72,14.35,4.52,23.83,5.41,28.43.08.41.64.48.81.1,5.91-13.11,10.62-23.66,14.14-31.65.7-1.59,1.85-2.38,3.44-2.37,12.98.05,22.6.07,28.87.04.72-.01,1.28.63,1.18,1.35-1.42,10.17-4.71,33.55-9.87,70.15-.4,2.81-1.9,2.27-4.31,2.3-4.13.04-9.57.02-16.3-.05-1.56-.01-2.2-1.01-1.92-2.99,2.65-18.47,4.7-33.12,6.17-43.95Z"/>
  <path d="M854.98,752.59c.08-.51.51-.89,1.03-.9,4.48-.03,10.65-.04,18.51-.03,2.25.01,2.95,1.07,2.64,3.25-3.37,24.09-5.44,39.11-6.23,45.05-.86,6.45,2.13,11,9.11,10.64,10.76-.55,13.15-8.69,14.52-18.95,1.16-8.63,2.97-21.6,5.44-38.89.09-.62.62-1.07,1.24-1.08,6.43-.02,11.17-.03,14.21-.03,2.42,0,3.12.9,2.78,3.32-3.37,24.17-5.4,38.61-6.11,43.33-1.2,8.06-4.38,16.69-11.27,21.72-8.11,5.92-19.2,7.03-29.33,6.18-20.87-1.76-24.78-14.97-22.18-33.68,1.14-8.23,3.02-21.54,5.64-39.93Z"/>
  <path d="M942.12,785.94c-.31-.14-.68.06-.72.4l-5.4,37.86c-.1.72-.73,1.26-1.46,1.26h-15.19c-1,0-1.77-.88-1.63-1.86l9.99-70.91c.08-.58.58-1.02,1.17-1.02h16.99c1.18,0,2.26.62,2.85,1.64l19.74,34.19c.42.73,1.52.51,1.64-.32l4.85-34.42c.09-.62.62-1.09,1.25-1.09h15.74c.67,0,1.19.59,1.09,1.26l-10.06,71.43c-.09.64-.63,1.11-1.27,1.11h-14.05c-.93,0-1.79-.49-2.27-1.28l-22.97-38.06-.04-.04c-.13-.08-.21-.13-.25-.15Z"/>
  <path d="M1005.47,751.64h18.83c1.13,0,1.99.99,1.83,2.11l-9.87,70.11c-.12.91-.91,1.59-1.83,1.59h-18.83c-1.13,0-1.99-.99-1.83-2.11l9.87-70.11c.12-.91.91-1.59,1.83-1.59Z"/>
  <path d="M1033.41,767.66c-.57,0-1.01-.49-.96-1.06.05-.45.61-4.69,1.69-12.73.21-1.49,1.07-2.24,2.6-2.24,18.56.03,38.88.05,60.95.04.63,0,1.11.56,1.03,1.18l-1.93,13.71c-.09.63-.63,1.1-1.27,1.1h-18.59c-.73,0-1.35.54-1.45,1.26l-7.77,55.19c-.11.78-.77,1.36-1.56,1.36h-19.36c-.97,0-1.71-.86-1.58-1.82l7.74-54.94c.07-.56-.35-1.05-.91-1.05h-18.63Z"/>
  <path d="M1138.8,776.73s.06-.02.1-.01c.06,0,.11-.03.15-.09l16.49-23.87c.46-.66,1.21-1.06,2.01-1.07,10.09-.06,15.98-.05,17.69.04.63.03,1.07.36,1.32.97.14.34.09.73-.14,1.03l-29.37,38.57c-.78,1.02-1.29,2.22-1.47,3.49-1.23,8.32-2.52,17.38-3.86,27.19-.23,1.7-1.11,2.54-2.66,2.53-6.24-.03-12.41-.04-18.52-.03-.95,0-1.68-.84-1.55-1.79l3.9-27.71c.2-1.46-.02-2.95-.65-4.28l-18.3-38.61c-.31-.66.17-1.42.9-1.42h21.07c1.16,0,2.2.69,2.65,1.76l9.69,23.05c.09.21.33.32.55.25Z"/>
  <path class="st7" d="M283.63,786.43c1.74-9.33,4.68-20.88,16.65-20.3,6.57.31,8.03,5.62,7.98,11.24-.03,4.46-.46,8.89-1.28,13.3-1.72,9.33-4.66,20.88-16.63,20.3-6.57-.31-8.03-5.62-7.99-11.23.04-4.47.46-8.9,1.27-13.31Z"/>
  <path class="st7" d="M600.64,786.44c1.74-9.33,4.67-20.88,16.65-20.31,6.57.32,8.03,5.63,7.98,11.24-.03,4.46-.46,8.9-1.28,13.3-1.72,9.33-4.65,20.88-16.62,20.31-6.57-.32-8.03-5.63-7.99-11.24.03-4.47.45-8.9,1.26-13.3Z"/>
  <path class="st7" d="M436.09,781.27c-.45,0-.79-.4-.73-.84l1.93-12.98c.08-.55.51-.98,1.06-1.06.15-.03,3.69-.03,10.64-.01,3.16.01,6.64,1.44,6.97,5.06.55,5.87-4.62,9.97-10.18,9.89-3.29-.05-6.52-.07-9.69-.06Z"/>
  <path d="M346.16,873.93c6.57-15.36,19.93-24.21,36.87-24.18,11.04.02,21.44,4.23,27.09,14.26,6.16,10.93,5.05,26.11.24,37.32-6.56,15.36-19.92,24.21-36.86,24.18-11.04-.02-21.44-4.23-27.09-14.26-6.16-10.93-5.05-26.11-.25-37.32ZM366.65,885.44c-.82,4.4-1.24,8.83-1.27,13.3-.04,5.61,1.42,10.92,7.99,11.24,11.97.57,14.9-10.98,16.62-20.31.82-4.4,1.25-8.84,1.28-13.3.05-5.62-1.41-10.92-7.98-11.24-11.98-.57-14.91,10.98-16.64,20.31Z"/>
  <path d="M649.75,862.22c.27.61.06,1.33-.51,1.67l-11.86,7.28c-.31.19-.71.14-.98-.11-5.45-5.19-12.1-7.05-19.93-5.6-3.74.69-7.74,3.29-5.8,7.56.67,1.48,3.44,2.81,5.22,3.36,10.59,3.31,17.44,5.61,20.53,6.92,9.03,3.8,12.66,10.6,10.87,20.4-1.87,10.2-10.18,16.8-19.84,19.75-14.02,4.29-38.24,2.68-45.68-12.93-.29-.61-.08-1.34.5-1.7,6.61-4.09,10.08-6.23,10.42-6.43,2.33-1.38,3.51-.5,5.18,1.38,3.07,3.44,6.12,5.51,9.15,6.22,4.68,1.1,16.69,2.24,18.41-4.13,1.17-4.34-2.48-5.99-6.11-7.14-1.51-.47-6.25-1.92-14.22-4.34-12.32-3.75-18.87-13.17-14.77-26.15,3-9.53,13.1-15.71,22.77-17.65,11.78-2.36,24.89-.17,33.92,8.07,1.28,1.17,2.19,2.36,2.73,3.57Z"/>
  <path d="M720.88,899.67c.39.09.65.45.63.84-.1,2.15-.71,4.1-1.81,5.87-8.12,12.93-19.67,19.29-34.67,19.07-28.69-.41-35.37-31.35-25.59-53,5.65-12.49,15.16-19.9,28.55-22.23,17.06-2.96,35.45,4.71,36.04,24.29.02.91-.68,1.66-1.58,1.7l-16.92.78c-.83.04-1.56-.56-1.67-1.39-.6-4.65-1.13-9.77-6.77-10.45-15.53-1.87-18.68,20.18-18.69,31.06,0,6.22.82,12.99,8.87,12.93,7.8-.06,13.57-3.96,17.32-11.71.41-.85,1.36-1.3,2.28-1.08l14.01,3.32Z"/>
  <path d="M808.16,873.93c6.57-15.36,19.93-24.21,36.87-24.18,11.04.02,21.44,4.23,27.09,14.26,6.16,10.93,5.05,26.11.24,37.32-6.56,15.36-19.92,24.21-36.86,24.18-11.04-.02-21.44-4.23-27.09-14.25-6.16-10.94-5.05-26.12-.25-37.33ZM828.64,885.44c-.81,4.4-1.23,8.83-1.26,13.3-.04,5.61,1.42,10.92,7.99,11.24,11.97.57,14.9-10.98,16.62-20.31.82-4.4,1.25-8.84,1.28-13.3.05-5.62-1.41-10.92-7.98-11.24-11.98-.57-14.91,10.98-16.65,20.31Z"/>
  <path d="M886.16,873.93c6.57-15.36,19.93-24.21,36.87-24.18,11.04.02,21.44,4.23,27.09,14.26,6.16,10.93,5.05,26.11.24,37.32-6.56,15.36-19.92,24.21-36.86,24.18-11.04-.02-21.44-4.23-27.09-14.26-6.16-10.93-5.05-26.11-.25-37.32ZM906.65,885.44c-.82,4.4-1.24,8.83-1.27,13.3-.04,5.61,1.42,10.92,7.99,11.24,11.97.57,14.9-10.98,16.62-20.31.82-4.4,1.25-8.84,1.28-13.3.05-5.61-1.41-10.92-7.99-11.24-11.97-.57-14.9,10.98-16.63,20.31Z"/>
  <path d="M1087.75,862.22c.28.61.06,1.33-.51,1.67l-11.86,7.28c-.31.19-.71.15-.98-.11-5.45-5.19-12.1-7.05-19.93-5.6-3.74.69-7.74,3.29-5.8,7.56.67,1.48,3.44,2.81,5.22,3.36,10.59,3.31,17.44,5.61,20.53,6.92,9.03,3.8,12.66,10.6,10.87,20.4-1.87,10.2-10.18,16.8-19.84,19.75-14.02,4.29-38.24,2.68-45.68-12.93-.29-.61-.08-1.34.5-1.7,6.61-4.09,10.08-6.23,10.42-6.43,2.33-1.38,3.51-.5,5.18,1.38,3.07,3.44,6.12,5.51,9.15,6.22,4.68,1.1,16.69,2.24,18.41-4.13,1.17-4.34-2.48-5.99-6.11-7.14-1.51-.47-6.25-1.92-14.22-4.34-12.32-3.75-18.87-13.17-14.77-26.15,3-9.53,13.1-15.71,22.77-17.65,11.78-2.36,24.89-.17,33.92,8.07,1.28,1.17,2.19,2.36,2.73,3.57Z"/>
  <path d="M425.98,851.59c.08-.51.51-.89,1.03-.9,4.48-.03,10.65-.04,18.51-.03,2.25.01,2.95,1.07,2.64,3.25-3.37,24.09-5.44,39.11-6.23,45.05-.86,6.45,2.13,11,9.11,10.64,10.76-.55,13.15-8.69,14.52-18.95,1.16-8.63,2.97-21.6,5.44-38.89.09-.62.62-1.07,1.24-1.08,6.43-.02,11.17-.03,14.21-.03,2.42,0,3.12.9,2.78,3.32-3.37,24.17-5.4,38.61-6.11,43.33-1.2,8.06-4.38,16.69-11.27,21.72-8.11,5.92-19.2,7.03-29.33,6.18-20.87-1.76-24.78-14.97-22.18-33.68,1.14-8.23,3.02-21.54,5.64-39.93Z"/>
  <path d="M516.12,895.96c-1.17,7.81-2.4,16.54-3.69,26.17-.21,1.57-1.19,2.35-2.93,2.35h-16.41c-2.27,0-3.56-.53-3.21-3.04,3.51-24.84,6.79-48.11,9.86-69.81.08-.55.55-.96,1.1-.96,12.56-.01,23.53-.01,32.91-.02,11.78,0,28.59,3.27,28.63,18.57.03,10.61-6.21,19.18-16.23,23.23-.47.19-.71.71-.56,1.19l8.97,29.02c.27.89-.39,1.79-1.32,1.79-12.2.02-18.62.03-19.27.04-2.94.04-2.99-1.66-3.58-4.33-.32-1.45-2.13-9.5-5.44-24.17-.11-.5-.55-.85-1.05-.85h-6.83c-.48,0-.88.35-.95.82ZM519.09,880.27c3.17-.02,6.4,0,9.69.06,5.56.08,10.72-4.02,10.18-9.89-.33-3.62-3.81-5.05-6.97-5.06-6.95-.02-10.49-.02-10.64.01-.55.08-.98.51-1.06,1.06l-1.93,12.98c-.06.44.28.84.73.84Z"/>
  <path d="M772.33,895.76c.06-.44-.28-.84-.72-.84h-17.98c-.8,0-1.49.6-1.6,1.4l-3.73,26.53c-.13.92-.92,1.61-1.86,1.61h-19.61c-.71,0-1.26-.63-1.16-1.33l10.08-71.55c.07-.52.52-.91,1.05-.91h20.71c.47,0,.82.41.76.88l-3.54,25.17c-.08.57.36,1.09.94,1.09h17.6c.92,0,1.71-.68,1.84-1.6l3.43-24.41c.09-.65.65-1.13,1.31-1.13h20.18c.67,0,1.18.59,1.09,1.25l-10.04,71.33c-.1.68-.68,1.19-1.36,1.2-6.35.03-12.67.03-18.97,0-1.58-.01-2.27-.75-2.06-2.23,1.17-8.43,2.38-17.25,3.64-26.46Z"/>
  <path d="M988.29,850.8c.61.29.97.95.87,1.62l-7.66,54.56c-.09.62.39,1.17,1.01,1.17h30.32c.95,0,1.69.82,1.59,1.77-.41,3.91-1.41,8.72-1.84,13.5-.07.7-.92,1.05-2.57,1.05-12.08,0-29.02,0-50.82-.01-1.83,0-2.53-1.54-2.29-3.24,1.64-11.53,4.84-34.28,9.59-68.25.39-2.8,1.68-2.3,4.11-2.31,8.99-.01,14.62,0,16.9.03.38.01.64.04.79.11Z"/>
  <path class="st7" d="M366.65,885.44c1.73-9.33,4.66-20.88,16.64-20.31,6.57.32,8.03,5.62,7.98,11.24-.03,4.46-.46,8.9-1.28,13.3-1.72,9.33-4.65,20.88-16.62,20.31-6.57-.32-8.03-5.63-7.99-11.24.03-4.47.45-8.9,1.27-13.3Z"/>
  <path class="st7" d="M828.64,885.44c1.74-9.33,4.67-20.88,16.65-20.31,6.57.32,8.03,5.62,7.98,11.24-.03,4.46-.46,8.9-1.28,13.3-1.72,9.33-4.65,20.88-16.62,20.31-6.57-.32-8.03-5.63-7.99-11.24.03-4.47.45-8.9,1.26-13.3Z"/>
  <path class="st7" d="M906.65,885.44c1.73-9.33,4.66-20.88,16.63-20.31,6.58.32,8.04,5.63,7.99,11.24-.03,4.46-.46,8.9-1.28,13.3-1.72,9.33-4.65,20.88-16.62,20.31-6.57-.32-8.03-5.63-7.99-11.24.03-4.47.45-8.9,1.27-13.3Z"/>
  <path class="st7" d="M519.09,880.27c-.45,0-.79-.4-.73-.84l1.93-12.98c.08-.55.51-.98,1.06-1.06.15-.03,3.69-.03,10.64-.01,3.16.01,6.64,1.44,6.97,5.06.54,5.87-4.62,9.97-10.18,9.89-3.29-.06-6.52-.08-9.69-.06Z"/>
  <path d="M400.16,972.93c6.57-15.36,19.93-24.21,36.87-24.18,11.04.02,21.44,4.23,27.09,14.26,6.16,10.93,5.05,26.11.24,37.32-6.56,15.36-19.92,24.21-36.86,24.18-11.04-.02-21.44-4.23-27.09-14.25-6.16-10.94-5.05-26.12-.25-37.33ZM420.65,984.44c-.82,4.4-1.24,8.83-1.27,13.3-.04,5.61,1.42,10.92,7.99,11.24,11.97.57,14.9-10.98,16.62-20.31.82-4.4,1.25-8.84,1.28-13.3.05-5.61-1.42-10.92-7.99-11.24-11.97-.57-14.9,10.98-16.63,20.31Z"/>
  <path d="M704.88,998.67c.39.09.65.45.63.84-.1,2.15-.71,4.1-1.81,5.87-8.12,12.93-19.67,19.29-34.67,19.07-28.69-.41-35.37-31.35-25.59-53,5.65-12.49,15.16-19.9,28.55-22.23,17.06-2.96,35.45,4.71,36.04,24.29.02.91-.68,1.66-1.58,1.7l-16.92.78c-.83.04-1.56-.56-1.67-1.39-.6-4.65-1.13-9.77-6.77-10.45-15.53-1.87-18.68,20.18-18.69,31.06,0,6.22.82,12.99,8.87,12.93,7.8-.06,13.57-3.96,17.32-11.71.41-.85,1.36-1.3,2.28-1.08l14.01,3.32Z"/>
  <path d="M792.16,972.93c6.57-15.36,19.93-24.21,36.87-24.18,11.04.02,21.44,4.23,27.09,14.26,6.16,10.93,5.05,26.11.24,37.32-6.56,15.36-19.92,24.21-36.86,24.18-11.04-.02-21.44-4.23-27.09-14.25-6.16-10.94-5.05-26.12-.25-37.33ZM812.64,984.44c-.81,4.4-1.23,8.83-1.26,13.3-.04,5.61,1.42,10.92,7.99,11.24,11.97.57,14.9-10.98,16.62-20.31.82-4.4,1.25-8.84,1.28-13.3.05-5.61-1.41-10.92-7.98-11.24-11.98-.57-14.91,10.98-16.65,20.31Z"/>
  <path d="M964.88,998.67c.39.09.65.45.63.84-.1,2.15-.71,4.1-1.81,5.87-8.11,12.93-19.67,19.29-34.67,19.07-28.69-.41-35.37-31.35-25.59-53,5.65-12.49,15.16-19.9,28.55-22.23,17.06-2.96,35.45,4.71,36.04,24.29.02.91-.68,1.66-1.58,1.7l-16.92.78c-.83.04-1.56-.56-1.67-1.39-.6-4.65-1.13-9.77-6.77-10.45-15.53-1.87-18.68,20.18-18.69,31.06,0,6.22.82,12.99,8.87,12.93,7.8-.06,13.57-3.96,17.32-11.71.41-.85,1.36-1.3,2.28-1.08l14.01,3.32Z"/>
  <path d="M479.98,950.59c.08-.51.51-.89,1.03-.9,4.48-.03,10.65-.04,18.51-.03,2.25.01,2.95,1.07,2.64,3.25-3.37,24.09-5.44,39.11-6.23,45.05-.86,6.45,2.13,11,9.11,10.64,10.76-.55,13.15-8.69,14.52-18.95,1.16-8.63,2.97-21.6,5.44-38.89.09-.62.62-1.07,1.24-1.08,6.43-.02,11.17-.03,14.21-.03,2.42,0,3.12.9,2.78,3.32-3.37,24.17-5.4,38.61-6.11,43.33-1.2,8.06-4.38,16.69-11.27,21.72-8.11,5.92-19.2,7.03-29.33,6.18-20.87-1.76-24.78-14.97-22.18-33.68,1.14-8.23,3.02-21.54,5.64-39.93Z"/>
  <path d="M570.12,994.96c-1.17,7.81-2.4,16.54-3.69,26.17-.21,1.57-1.19,2.35-2.93,2.35h-16.41c-2.27,0-3.56-.53-3.21-3.04,3.51-24.84,6.79-48.11,9.86-69.81.08-.55.55-.96,1.1-.96,12.56,0,23.53-.01,32.91-.02,11.78,0,28.59,3.27,28.63,18.57.03,10.61-6.21,19.18-16.23,23.23-.47.19-.71.71-.56,1.19l8.97,29.02c.27.89-.39,1.79-1.32,1.79-12.2.02-18.62.03-19.27.04-2.94.04-2.99-1.66-3.58-4.33-.32-1.45-2.13-9.5-5.44-24.17-.11-.5-.55-.85-1.05-.85h-6.83c-.48,0-.88.35-.95.82ZM573.09,979.27c3.17-.02,6.4,0,9.69.06,5.56.08,10.72-4.02,10.18-9.89-.33-3.62-3.81-5.05-6.97-5.06-6.95-.02-10.49,0-10.64.01-.55.09-.98.51-1.06,1.06l-1.93,12.98c-.06.44.28.84.73.84Z"/>
  <path d="M757.33,994.76c.06-.44-.28-.84-.72-.84h-17.98c-.8,0-1.48.6-1.6,1.4l-3.73,26.53c-.13.92-.92,1.61-1.86,1.61h-19.61c-.71,0-1.25-.63-1.16-1.33l10.08-71.55c.08-.52.52-.91,1.05-.91h20.71c.47,0,.82.42.76.88l-3.54,25.17c-.08.58.36,1.09.94,1.09h17.6c.92,0,1.71-.68,1.84-1.6l3.43-24.41c.09-.65.65-1.13,1.31-1.13h20.18c.67,0,1.18.59,1.09,1.25l-10.04,71.33c-.1.68-.67,1.19-1.36,1.2-6.35.03-12.67.03-18.97,0-1.58-.01-2.26-.75-2.06-2.23,1.17-8.43,2.38-17.25,3.64-26.46Z"/>
  <path d="M875.47,949.64h18.83c1.13,0,1.99.99,1.83,2.11l-9.87,70.11c-.12.91-.91,1.59-1.83,1.59h-18.83c-1.13,0-1.99-.99-1.83-2.11l9.87-70.11c.12-.91.91-1.59,1.83-1.59Z"/>
  <path d="M999.41,978.4h19.52c.66,0,1.17.59,1.08,1.25l-1.97,14.04c-.06.42-.42.73-.84.73h-19.98c-.65,0-1.2.48-1.29,1.12l-1.51,10.73c-.06.47.3.89.77.89h33.59c.64,0,1.13.56,1.05,1.2l-1.94,13.72c-.11.8-.79,1.39-1.59,1.39-18.49,0-36.22,0-53.17.01-1.29,0-2.15-.19-2.59-.58-.6-.52-.82-1.36-.66-2.52,4.35-30.76,7.64-54,9.86-69.73.08-.57.56-.99,1.13-.99h54.53c.94,0,1.66.83,1.53,1.76l-1.83,12.98c-.13.9-.89,1.57-1.8,1.57h-32c-.64,0-1.17.47-1.26,1.09l-1.46,10.38c-.07.51.32.96.83.96Z"/>
  <path class="st7" d="M420.65,984.44c1.73-9.33,4.66-20.88,16.63-20.31,6.57.32,8.04,5.63,7.99,11.24-.03,4.46-.46,8.9-1.28,13.3-1.72,9.33-4.65,20.88-16.62,20.31-6.57-.32-8.03-5.63-7.99-11.24.03-4.47.45-8.9,1.27-13.3Z"/>
  <path class="st7" d="M812.64,984.44c1.74-9.33,4.67-20.88,16.65-20.31,6.57.32,8.03,5.63,7.98,11.24-.03,4.46-.46,8.9-1.28,13.3-1.72,9.33-4.65,20.88-16.62,20.31-6.57-.32-8.03-5.63-7.99-11.24.03-4.47.45-8.9,1.26-13.3Z"/>
  <path class="st7" d="M573.09,979.27c-.45,0-.79-.4-.73-.84l1.93-12.98c.08-.55.51-.97,1.06-1.06.15-.02,3.69-.03,10.64-.01,3.16.01,6.64,1.44,6.97,5.06.54,5.87-4.62,9.97-10.18,9.89-3.29-.06-6.52-.08-9.69-.06Z"/>
  <path d="M456.65,1054.89c.01.32-.26.59-.58.59h-.27c-.26,0-.47-.21-.47-.48v-8.89c0-.35.27-.65.62-.69,2.45-.26,4.35-.01,5.7.74.39.22.68.59.78,1.03.57,2.36-.28,3.66-2.54,3.9-1.82.19-2.74.29-2.76.29-.28-.01-.51.21-.51.49l.03,3.02ZM456.64,1046.73v3.14c0,.2.17.37.37.37h1.95c1.3,0,2.36-.81,2.36-1.8v-.28c0-.99-1.06-1.8-2.36-1.8h-1.95c-.2,0-.37.17-.37.37Z"/>
  <path d="M467.23,1045.33c.21,0,.4.07.6.2.19.13.32.28.38.45.85,2.43,1.92,5.4,3.19,8.89.09.25-.1.51-.37.5l-.43-.02c-.24-.01-.45-.17-.52-.4l-.52-1.7c-.11-.36-.45-.61-.83-.62-.39-.01-.9-.02-1.54-.02-.64-.01-1.15-.01-1.54,0-.38.01-.72.25-.84.61l-.54,1.69c-.07.23-.28.39-.52.4h-.43c-.27.02-.46-.24-.37-.49,1.32-3.48,2.42-6.43,3.3-8.85.06-.17.19-.32.39-.45.2-.13.39-.19.59-.19ZM467.14,1051.56c.66,0,1.08-.03,1.26-.09.28-.08.43-.38.33-.66-.98-2.54-1.51-3.81-1.6-3.8-.1,0-.62,1.27-1.58,3.81-.1.28.05.58.33.66.18.06.6.08,1.26.08Z"/>
  <path d="M477.58,1045.85c0-.27.21-.48.48-.48h2.5c2.55,0,4.62,2.02,4.62,4.52v1.04c0,2.5-2.07,4.52-4.62,4.52h-2.5c-.27,0-.48-.21-.48-.48v-9.12ZM478.87,1046.8v7.22c0,.24.19.43.43.43h1.05c1.91,0,3.46-1.48,3.46-3.3v-1.48c0-1.82-1.55-3.3-3.46-3.3h-1.05c-.24,0-.43.19-.43.43Z"/>
  <path d="M490.32,1055.15v-9.54c0-.14.11-.25.25-.25h5.78c.14,0,.26.12.25.26v.51c-.02.13-.13.24-.26.24h-4.46c-.14,0-.25.11-.25.25v3.17c0,.14.11.25.25.25h3.31c.14,0,.25.11.25.25v.48c0,.14-.11.25-.25.25h-3.3c-.14,0-.25.11-.25.25v3.84c0,.13-.11.24-.24.25l-.82.04c-.14,0-.26-.11-.26-.25Z"/>
  <path d="M501.98,1045.15c2.42,0,4.38,2.39,4.36,5.3-.02,2.92-1.99,5.27-4.42,5.26-2.42,0-4.38-2.39-4.36-5.3.02-2.92,1.99-5.27,4.42-5.26ZM501.93,1046.11c-1.67.01-3.04,1.94-3.02,4.32.01,2.38,1.38,4.31,3.05,4.3,1.68-.01,3.04-1.94,3.02-4.32,0-2.38-1.38-4.31-3.05-4.3Z"/>
  <path d="M513.86,1051.26l1.52,3.57c.09.2-.01.44-.21.53l-.26.11c-.29.12-.63-.02-.75-.31l-1.6-3.75c-.14-.32-.45-.53-.79-.54l-1.58-.03c-.31-.01-.57.24-.57.55v3.46c0,.19-.11.37-.29.45l-.43.18c-.27.12-.58-.08-.58-.38v-9.06c0-.36.27-.65.62-.68,2.04-.15,3.77-.02,5.19.4,2.17.65,1.83,3.66.01,4.69-.29.16-.41.51-.28.81ZM509.61,1046.82l.02,2.6c0,.28.23.5.51.5l1.92-.02c1.25-.01,2.27-.77,2.26-1.7v-.24c-.01-.93-1.04-1.67-2.3-1.66l-1.92.02c-.27,0-.49.22-.49.5Z"/>
  <path d="M520.83,1050.48c-.08-2.82-.11-4.28-.11-4.39.01-.34.27-.63.62-.67,1.94-.23,3.63-.13,5.09.31,1.94.59,2.03,3.15.3,4.29-.02.01-.04.05-.07.12-.05.1-.07.17-.07.21,0,.02.03.08.08.18.03.07.06.11.08.11,1.78,1.05,1.82,3.62-.09,4.3-1.43.51-3.11.71-5.06.57-.35-.02-.62-.29-.65-.63-.01-.11-.05-1.58-.12-4.4ZM522.13,1046.79l-.02,2.58c0,.28.22.5.49.5l1.55.02c1.35.01,2.44-.73,2.45-1.66v-.22c.01-.93-1.07-1.69-2.41-1.7l-1.55-.02c-.28,0-.51.22-.51.5ZM522.14,1051.36l-.04,2.62c0,.28.22.5.5.51l1.82.02c1.29.02,2.35-.73,2.36-1.66v-.24c0-.93-1.03-1.7-2.32-1.72l-1.82-.02c-.27-.01-.5.22-.5.49Z"/>
  <path d="M533.13,1049.84s.06-.01.08-.01c.07-.03.12-.06.14-.09l2.52-4.28c.13-.22.41-.29.62-.15l.34.21c.16.1.21.31.11.47l-2.93,4.77c-.21.33-.3.73-.26,1.12.27,2.38.06,3.57-.62,3.56-.69,0-.89-1.18-.62-3.56.04-.39-.05-.79-.25-1.13l-2.92-4.77c-.1-.16-.05-.37.11-.47l.34-.21c.21-.14.49-.06.62.16l2.51,4.28s.07.06.14.09c.02,0,.05.01.07.01Z"/>
  <path d="M547.93,1045.35c.42,0,.67.15.75.45,1.19,4.43,1.84,6.8,1.95,7.11.09.25.45.25.52,0l2.03-7.21c.06-.2.24-.33.44-.33h.26c.18,0,.31.17.27.35l-2.19,9.2c-.23.99-1.63,1.02-1.9.04-1.31-4.78-2.03-7.17-2.13-7.17-.11,0-.83,2.39-2.16,7.16-.27.98-1.67.95-1.9-.04l-2.16-9.21c-.04-.18.09-.35.27-.35h.26c.2,0,.38.14.44.34l2.01,7.21c.07.26.43.27.52.01.11-.3.76-2.67,1.97-7.1.08-.3.33-.45.75-.45Z"/>
  <path d="M556.34,1050.4c0-2.5,0-3.95.02-4.33.02-.42.37-.76.8-.75l5.34.03c.17-.01.31.14.31.32l-.02.31c0,.19-.17.34-.36.34l-4.24.02c-.32,0-.58.26-.58.58v2.4c.02.35.31.62.65.59,2.19-.18,3.26,0,3.23.5.04.48-1.04.64-3.22.47-.35-.03-.64.24-.64.59v2.4c0,.32.26.58.58.58h4.24c.19,0,.35.14.36.34l.02.3c.01.18-.13.33-.31.33l-5.34.06c-.43,0-.78-.33-.8-.75-.02-.38-.03-1.83-.04-4.33Z"/>
  <path d="M571.44,1052.59c-.64-.01-1.15-.01-1.54,0-.38.01-.72.25-.83.61l-.54,1.69c-.08.23-.29.39-.53.39l-.43.02c-.26.01-.45-.25-.36-.5,1.31-3.47,2.41-6.42,3.29-8.84.06-.17.19-.32.39-.45.19-.12.39-.18.59-.18s.4.06.59.19c.2.13.32.28.38.45.86,2.43,1.92,5.39,3.19,8.88.09.25-.1.51-.37.49h-.43c-.24-.03-.44-.19-.52-.41l-.52-1.7c-.11-.36-.44-.61-.82-.62-.39-.01-.91-.02-1.54-.02ZM571.35,1051.55c.52.01.9-.01,1.13-.05.28-.05.46-.34.38-.61-.69-2.43-1.17-3.65-1.45-3.65-.29-.01-.81,1.2-1.55,3.61-.09.27.08.56.37.62.23.05.6.08,1.12.08Z"/>
  <path d="M583.65,1050.46c-.28.15-.41.5-.28.81l1.51,3.57c.09.2,0,.44-.21.53l-.26.11c-.29.12-.63-.02-.75-.31l-1.59-3.76c-.14-.32-.45-.53-.79-.54l-1.58-.03c-.31-.01-.57.24-.57.55v3.46c-.01.19-.12.37-.3.45l-.43.18c-.28.12-.58-.08-.58-.38l.02-9.07c0-.35.27-.65.62-.68,2.04-.15,3.77-.01,5.19.41,2.17.66,1.82,3.67,0,4.7ZM579.13,1046.81v2.58c0,.27.22.5.5.5h2.11c1.12,0,2.03-.75,2.03-1.68v-.22c0-.92-.91-1.68-2.03-1.68h-2.11c-.27,0-.5.22-.5.5Z"/>
  <path d="M592.5,1050.41c.03.49-1.04.64-3.23.47-.35-.02-.64.25-.64.6v2.4c0,.32.26.58.58.58h4.25c.19,0,.35.15.36.34l.02.31c0,.18-.13.33-.31.33l-5.35.05c-.43.01-.78-.33-.8-.75-.02-.38-.03-1.83-.04-4.34,0-2.5,0-3.95.02-4.33.02-.42.37-.76.8-.75l5.35.03c.18-.01.32.14.31.32l-.02.31c-.01.2-.16.34-.36.35h-4.25c-.32.01-.57.27-.57.59v2.4c.01.35.3.63.65.6,2.19-.18,3.26-.02,3.23.49Z"/>
  <path d="M602.25,1049.78h1.74c.37,0,.67-.3.67-.67l-.04-3.3c0-.06.01-.12.03-.17.14-.36.45-.48.93-.34.17.05.3.18.35.36,0,.01,0,1.56.01,4.64,0,3.08-.01,4.63-.01,4.65-.04.17-.18.31-.35.36-.48.13-.79.02-.93-.34-.02-.05-.03-.11-.03-.17l.04-3.3c0-.37-.3-.67-.67-.67h-3.48c-.37,0-.67.3-.66.67l.04,3.3c0,.06-.01.12-.03.17-.14.36-.45.47-.93.34-.17-.05-.31-.19-.35-.36,0-.02-.01-1.56-.01-4.65s0-4.63.01-4.64c.04-.17.17-.31.35-.36.48-.13.79-.02.93.34.02.05.03.11.03.17l-.04,3.3c0,.37.29.67.66.67h1.74Z"/>
  <path d="M612.72,1045.15c2.42,0,4.38,2.38,4.37,5.3-.01,2.91-1.98,5.27-4.41,5.26-2.42-.01-4.38-2.38-4.37-5.3.01-2.91,1.98-5.27,4.41-5.26ZM612.7,1046.1c-1.68,0-3.05,1.93-3.05,4.31s1.37,4.31,3.05,4.31,3.05-1.93,3.05-4.31-1.37-4.31-3.05-4.31Z"/>
  <path d="M620.37,1054.87c.01.32-.25.59-.58.58h-.27c-.26,0-.47-.21-.46-.48l.02-8.88c0-.35.27-.65.62-.69,2.44-.25,4.34,0,5.69.75.4.22.68.6.78,1.04.56,2.36-.29,3.65-2.55,3.89-1.82.19-2.74.28-2.76.28-.28-.01-.51.21-.51.49l.02,3.02ZM620.39,1046.88l-.02,2.8c-.01.29.23.53.52.53l1.79.02c1.3.01,2.37-.74,2.38-1.68v-.46c.01-.93-1.04-1.71-2.34-1.72l-1.79-.02c-.29,0-.53.23-.54.53Z"/>
  <path d="M628.58,1050.41c-.01-2.51,0-3.95.01-4.33.02-.43.37-.77.8-.76l5.35.02c.18,0,.32.15.32.33l-.02.31c0,.19-.17.34-.36.34l-4.25.02c-.32,0-.58.27-.58.59v2.4c.01.35.31.62.65.59,2.19-.18,3.27-.02,3.24.49.04.48-1.04.64-3.23.48-.35-.03-.64.24-.64.59v2.4c.01.33.27.58.59.58h4.25c.19,0,.35.15.36.34l.02.31c0,.18-.13.33-.31.33l-5.35.06c-.43,0-.79-.33-.81-.76-.01-.38-.03-1.82-.04-4.33Z"/>
  <path d="M642.92,1047.79c-.11,0-.82,2.38-2.14,7.15-.28.98-1.67.95-1.9-.04l-2.18-9.19c-.04-.18.1-.35.27-.35h.26c.21,0,.38.13.44.33l2.02,7.2c.07.26.43.27.52.01.11-.3.76-2.67,1.96-7.09.08-.3.33-.45.75-.45s.67.15.75.45c1.2,4.42,1.85,6.79,1.95,7.09.09.26.45.25.52-.01l2.02-7.2c.06-.2.24-.33.44-.33h.26c.18,0,.31.17.27.35l-2.17,9.19c-.24.99-1.63,1.02-1.9.04-1.32-4.77-2.03-7.15-2.14-7.15Z"/>
  <path d="M651.31,1050.36c-.02-2.52-.02-3.97,0-4.35.01-.42.37-.76.79-.76h5.37c.17.01.32.16.31.34l-.02.31c-.01.19-.16.34-.35.34l-4.26.04c-.33,0-.58.26-.58.58l.02,2.41c0,.35.3.62.64.59,2.2-.19,3.28-.03,3.24.48.04.49-1.04.65-3.23.49-.35-.03-.64.25-.64.6v2.41c.01.32.27.58.59.57h4.26c.2,0,.35.14.37.33l.02.31c0,.18-.14.33-.31.33l-5.37.07c-.43.01-.78-.32-.8-.75-.02-.38-.04-1.83-.05-4.34Z"/>
  <path d="M665.94,1054.58c.19.04.32.21.3.4-.01.19-.17.34-.36.35l-5.32.24c-.4.02-.74-.3-.74-.7v-9.03c0-.27.23-.5.51-.49h.33c.26.02.46.23.46.49v7.99c0,.34.27.61.61.61,2.37,0,3.78.05,4.21.14Z"/>
  <path d="M682.82,1053.61c.09,0,.13-.03.15-.07.95-2.62,1.88-5.22,2.77-7.8.1-.28.39-.44.68-.37l.11.02c.29.08.45.38.35.65-1.8,5.07-2.86,8.06-3.17,8.95-.05.15-.18.27-.37.38-.16.08-.33.13-.52.12-.19,0-.36-.04-.52-.12-.19-.11-.32-.24-.37-.39-.31-.89-1.34-3.88-3.11-8.97-.1-.27.07-.57.35-.64l.11-.02c.29-.07.59.09.68.37.88,2.59,1.78,5.19,2.72,7.82.01.04.06.07.14.07Z"/>
  <path d="M691.44,1052.59h-1.54c-.38.01-.72.26-.83.61l-.54,1.69c-.08.23-.29.39-.53.4h-.43c-.26.02-.45-.24-.36-.49,1.31-3.47,2.41-6.42,3.29-8.84.06-.17.19-.32.39-.45.19-.12.39-.18.59-.18s.4.06.59.19c.2.13.33.28.39.45.85,2.43,1.91,5.39,3.18,8.88.09.25-.1.51-.37.5l-.43-.02c-.24-.01-.44-.17-.52-.4l-.52-1.7c-.11-.36-.44-.61-.82-.62-.39-.01-.91-.02-1.54-.02ZM691.34,1051.56c.53.01.91-.01,1.14-.05.28-.05.46-.34.38-.61-.68-2.44-1.16-3.67-1.44-3.67-.29-.01-.81,1.2-1.57,3.62-.09.27.08.56.37.63.23.04.6.07,1.12.08Z"/>
  <path d="M714.09,1050.37c0-2.5.02-3.95.04-4.33.01-.42.37-.76.8-.75l5.35.05c.18,0,.32.15.31.33l-.02.31c-.01.19-.17.34-.36.34h-4.25c-.32,0-.58.26-.58.58v2.4c0,.35.29.62.64.6,2.19-.18,3.26-.01,3.23.5.03.49-1.05.64-3.24.46-.34-.03-.64.25-.64.6v2.4c-.01.32.25.58.57.58l4.25.02c.19,0,.35.15.36.34l.02.31c0,.18-.14.33-.31.33l-5.35.03c-.43,0-.79-.34-.8-.76-.02-.38-.02-1.83-.02-4.34Z"/>
  <path d="M725.88,1055.44c-.68-.01-.89-1.19-.62-3.56.05-.39-.04-.78-.25-1.12l-2.91-4.76c-.1-.16-.05-.37.11-.47l.34-.21c.21-.13.49-.06.62.16l2.5,4.27s.07.06.14.08c.02.01.05.02.08.02.02,0,.05-.01.07-.02.07-.02.12-.05.14-.08l2.51-4.26c.13-.22.41-.29.62-.16l.34.21c.16.1.21.31.11.47l-2.92,4.75c-.21.34-.3.73-.26,1.12.27,2.37.06,3.56-.62,3.56Z"/>
  <path d="M736.14,1054.89c.01.33-.25.59-.58.59h-.27c-.26,0-.47-.21-.47-.48v-8.9c0-.36.27-.65.63-.69,2.45-.26,4.35-.02,5.7.74.4.22.68.59.79,1.03.56,2.37-.29,3.67-2.55,3.91-1.82.19-2.74.29-2.76.29-.28-.01-.52.21-.52.49l.03,3.02ZM736.13,1046.88l-.02,2.8c0,.3.24.54.54.54h1.81c1.29.02,2.33-.74,2.34-1.68v-.48c.01-.94-1.03-1.7-2.32-1.71h-1.81c-.3-.01-.54.23-.54.53Z"/>
  <path d="M747.98,1045.15c2.42,0,4.38,2.39,4.36,5.3-.02,2.92-1.99,5.27-4.42,5.26-2.42,0-4.38-2.39-4.36-5.3.02-2.92,1.99-5.27,4.42-5.26ZM747.92,1046.12c-1.68,0-3.03,1.95-3.01,4.32.02,2.38,1.39,4.29,3.07,4.28,1.68,0,3.03-1.95,3.01-4.32-.02-2.38-1.39-4.29-3.07-4.28Z"/>
  <path d="M763.34,1050.36s.03.07.08.17c.03.07.06.11.08.12,1.78,1.05,1.82,3.61-.09,4.29-1.43.51-3.11.7-5.06.57-.34-.02-.62-.29-.65-.64-.01-.1-.05-1.57-.12-4.39-.07-2.81-.1-4.28-.1-4.38.01-.35.27-.63.62-.67,1.94-.23,3.63-.13,5.08.31,1.94.59,2.03,3.15.3,4.28-.02.01-.04.05-.07.13-.05.1-.07.17-.07.21ZM758.86,1046.81l-.02,2.56c-.01.27.22.5.49.5l1.52.02c1.37.01,2.49-.72,2.5-1.65v-.22c.01-.92-1.09-1.68-2.46-1.69l-1.52-.02c-.28,0-.5.22-.51.5ZM758.87,1051.35l-.04,2.62c0,.28.23.51.51.52l1.79.02c1.32.02,2.41-.73,2.42-1.67v-.24c.01-.94-1.05-1.71-2.38-1.73l-1.79-.02c-.28-.01-.51.22-.51.5Z"/>
  <path d="M770.98,1045.15c2.42,0,4.38,2.39,4.36,5.3-.02,2.92-1.99,5.27-4.42,5.26-2.42,0-4.38-2.39-4.36-5.3.02-2.92,1.99-5.27,4.42-5.26ZM770.93,1046.11c-1.67.01-3.03,1.94-3.03,4.31.01,2.38,1.38,4.3,3.06,4.29,1.67-.01,3.03-1.94,3.02-4.31-.01-2.38-1.38-4.3-3.05-4.29Z"/>
  <path d="M779.9,1049.08h.07c.07-.01.12-.03.13-.05l2.37-3.57c.18-.28.55-.35.83-.16l.21.15c.14.1.18.3.08.44l-2.66,3.86c-.2.3-.2.69,0,.99l2.62,3.88c.17.25.1.58-.14.74l-.04.02c-.29.16-.65.08-.84-.19-.8-1.13-1.6-2.32-2.41-3.57-.03-.04-.1-.07-.22-.07-.11,0-.18.03-.21.07-.81,1.26-1.61,2.44-2.41,3.57-.19.27-.55.35-.84.19l-.04-.02c-.24-.16-.3-.49-.14-.74l2.62-3.88c.2-.3.2-.69,0-.99l-2.67-3.86c-.1-.14-.06-.34.08-.44l.21-.15c.28-.18.65-.11.83.16l2.38,3.57s.06.04.13.05h.06Z"/>
  <path d="M797.14,1054.37h3.89c.11,0,.21.08.25.19l.09.3c.09.29-.13.59-.44.59h-5.69c-.56,0-.84-.67-.45-1.06,1.21-1.22,2.63-2.66,4.27-4.31,2.68-2.71-.84-5.31-3.34-2.67-.2.21-.53.22-.75.03l-.07-.05c-.2-.17-.2-.48-.02-.66,3.02-3,8.48-1.05,5.46,3.6-.15.24-1.31,1.36-3.47,3.36-.26.24-.09.68.27.68Z"/>
  <path d="M814.13,1054.87c.01.32-.25.59-.58.59h-.27c-.26,0-.47-.22-.47-.48v-8.9c.01-.36.27-.65.63-.69,2.45-.26,4.35-.02,5.7.74.4.22.68.59.79,1.03.56,2.37-.29,3.67-2.55,3.91-1.82.19-2.74.29-2.76.29-.28-.02-.52.21-.52.49l.03,3.02ZM814.12,1046.88l-.02,2.8c0,.3.24.54.54.54h1.81c1.29.02,2.33-.74,2.34-1.68v-.48c.01-.94-1.03-1.7-2.32-1.71h-1.81c-.3-.01-.54.23-.54.53Z"/>
  <path d="M822.07,1050.37c-.01-2.52-.01-3.96,0-4.35.02-.42.37-.76.8-.76l5.36.02c.18,0,.32.15.32.33l-.02.31c-.01.19-.17.34-.36.34l-4.26.03c-.32,0-.58.26-.58.59l.02,2.4c0,.35.3.63.64.59,2.2-.18,3.28-.02,3.24.49.04.49-1.04.65-3.23.48-.35-.03-.64.25-.64.6v2.41c0,.32.27.58.59.58h4.26c.19-.01.35.14.36.33l.02.31c0,.18-.14.33-.31.33l-5.36.06c-.43.01-.79-.32-.81-.75-.02-.38-.03-1.83-.04-4.34Z"/>
  <path d="M834.2,1050.78c-1.15-1.65-1.77-2.53-1.85-2.64-.13-.17-.39-.07-.39.13l-.02,6.72c0,.25-.21.46-.46.45h-.3c-.21,0-.38-.17-.38-.38l.02-9.04c0-.68.86-.95,1.26-.41.13.18,1.15,1.66,3.08,4.44,1.13,1.66,1.75,2.55,1.83,2.66.13.16.39.07.39-.14l.02-6.71c0-.25.21-.46.46-.46h.3c.21,0,.38.17.38.38l-.02,9.05c0,.67-.86.95-1.26.4-.12-.17-1.14-1.65-3.06-4.45Z"/>
  <rect x="846.95" y="1049.75" width="10.06" height="1.32" rx=".46" ry=".46" transform="translate(-199.92 1900.56) rotate(-89.9)"/>
  <path d="M858.65,1050.68c-1.15-1.64-1.77-2.52-1.86-2.63-.13-.17-.39-.07-.39.13v6.7c0,.26-.2.46-.45.46h-.3c-.21,0-.38-.17-.38-.38v-9.02c-.01-.68.85-.96,1.25-.41.12.17,1.15,1.65,3.08,4.42,1.14,1.65,1.76,2.53,1.84,2.65.13.16.39.07.39-.14v-6.7c0-.25.2-.46.46-.46h.3c.21,0,.38.17.38.38v9.03c.01.67-.86.95-1.25.4-.13-.17-1.15-1.65-3.07-4.43Z"/>
  <path d="M873.25,1055.09c-.18.07-.4.02-.66-.14-.28-.16-.61-.18-.9-.05-7.59,3.45-8.63-8.65-3-9.6,1.7-.29,3.12.36,4.25,1.97.39.55-.14,1.28-.78,1.08-.07-.03-.27-.33-.59-.91-.23-.42-.51-.7-.83-.84-4.12-1.79-4.78,3.65-3.92,6.11.38,1.09,1.32,1.83,2.35,1.85,1.77.03,2.76-.84,2.97-2.61.04-.35-.2-.68-.55-.77-.42-.1-.95-.11-1.6-.02-.19.02-.35-.13-.36-.32v-.29c-.01-.13.09-.23.22-.23h2.91c.3,0,.54.23.55.53l.1,4.01c0,.11-.06.2-.16.23Z"/>
  <path d="M887.71,1045.15c2.42,0,4.39,2.37,4.38,5.29-.01,2.91-1.97,5.27-4.4,5.27s-4.39-2.37-4.38-5.29c.01-2.91,1.97-5.27,4.4-5.27ZM887.7,1046.1c-1.68,0-3.05,1.93-3.05,4.31s1.37,4.31,3.05,4.31,3.05-1.93,3.05-4.31-1.37-4.31-3.05-4.31Z"/>
  <path d="M913.7,1050.76c-1.15-1.65-1.77-2.54-1.86-2.65-.13-.16-.39-.07-.39.14v6.71c0,.26-.21.46-.46.46h-.3c-.21,0-.38-.17-.38-.38v-9.04c0-.68.86-.96,1.26-.41.12.17,1.15,1.65,3.08,4.43,1.14,1.66,1.76,2.54,1.85,2.66.12.16.39.07.39-.14v-6.72c0-.25.2-.46.46-.46h.3c.21,0,.38.17.38.38v9.05c0,.68-.87.95-1.26.41-.13-.18-1.15-1.66-3.07-4.44Z"/>
  <path d="M932.68,1045.18c2.12,0,3.83,2.35,3.83,5.24s-1.71,5.24-3.83,5.24-3.83-2.35-3.83-5.24,1.71-5.24,3.83-5.24ZM932.67,1046.16c-1.4,0-2.52,1.92-2.51,4.27.01,2.36,1.16,4.26,2.55,4.25,1.4-.01,2.52-1.92,2.51-4.27,0-2.36-1.16-4.26-2.55-4.25Z"/>
  <path d="M941.65,1045.26c2.43-.06,4.85,2.39,2.62,4.53-.25.23-.26.62-.02.86.32.32.75.45,1,1.02,1.1,2.58-1.15,3.88-3.35,3.93-2.2.05-4.52-1.14-3.54-3.77.22-.58.65-.73.95-1.06.23-.26.2-.65-.05-.87-2.34-2.03-.03-4.59,2.39-4.64ZM939.65,1047.8c-.1,1.01.78,1.93,1.97,2.06,1.19.13,2.24-.59,2.35-1.6.1-1.01-.78-1.93-1.97-2.06-1.19-.13-2.24.59-2.35,1.6ZM939.2,1052.56c-.09,1.03.96,1.97,2.36,2.09,1.4.13,2.61-.6,2.7-1.63.09-1.03-.96-1.97-2.36-2.09-1.4-.13-2.61.6-2.7,1.63Z"/>
  <path d="M953.74,1045.41c.17.01.31.14.32.31v.32c.02.25-.18.46-.43.45l-3.93-.09c-.39-.01-.71.29-.73.68l-.09,2.03c-.01.27.25.47.5.38,2.71-.94,5.72.07,5.21,3.2-.57,3.47-4.75,3.48-7.07,1.78-.21-.15-.25-.45-.08-.64l.06-.07c.17-.2.47-.24.68-.09,1.58,1.14,3,1.25,4.26.34,1.04-.76,1.22-2.24.38-3.21-1.02-1.19-2.41-.58-4.12-.07-.49.14-.97-.24-.95-.75l.17-3.79c.03-.51.45-.91.96-.9l4.86.12Z"/>
  <path d="M961.67,1050.49c.19.15.42.27.68.38.16.07.3.23.42.49.73,1.64.4,2.84-.99,3.61-1.91,1.06-3.82.87-5.71-.58-.16-.13-.2-.36-.09-.53l.07-.11c.13-.19.39-.25.59-.12,1.01.64,2.05.95,3.12.94,1.56-.02,2.62-1.52,1.87-2.64-.61-.93-1.69-1.34-3.24-1.23-.21.02-.39-.16-.38-.37v-.35c.01-.21.19-.37.4-.35,1.49.18,2.54-.32,3.16-1.51.14-.29.1-.63-.11-.87-1.2-1.35-2.68-1.38-4.45-.07-.15.11-.36.07-.46-.09l-.15-.24c-.08-.14-.06-.31.06-.41,3.42-2.88,8.99.54,5.22,3.2-.29.21-.3.64-.01.85Z"/>
  <path d="M969.01,1052.82l-3.82-.09c-.57-.02-.88-.66-.54-1.11l4.55-5.97c.5-.66,1.56-.3,1.54.53l-.12,5.04c-.01.31.22.56.53.58.66.03,1.04.13,1.15.3.16.25-.04.58-.34.57-1.22-.07-1.62.57-1.19,1.91.1.32-.05.66-.36.79-.36.15-.68.11-.96-.14-.08-.07-.13-.17-.12-.28l.04-1.76c.01-.2-.16-.36-.36-.37ZM968.99,1047.35l-2.88,3.79c-.23.29,0,.72.37.7l2.29-.11c.3-.01.53-.25.54-.55l.09-3.69c0-.22-.28-.32-.41-.14Z"/>
  <rect x="473.58" y="1045.39" width="1.32" height="10.06" rx=".47" ry=".47" transform="translate(-3.66 1.66) rotate(-.2)"/>
  <path d="M674.16,1054.58c.19.04.32.21.3.4-.01.19-.17.34-.36.35l-5.3.23c-.4.02-.74-.3-.74-.7v-9c.01-.28.24-.5.52-.49h.33c.25.01.46.23.46.49v7.96c-.01.34.26.61.59.61,2.37.01,3.77.05,4.2.15Z"/>
  <path d="M703.73,1054.55c.19.04.32.21.3.4-.01.19-.16.34-.36.35l-5.32.28c-.4.02-.74-.3-.75-.7l-.05-9.04c0-.28.23-.5.51-.5h.33c.25.02.46.23.46.49l.05,8c0,.34.28.61.61.61,2.38-.02,3.79.02,4.22.11Z"/>
  <path d="M711.91,1054.56c.18.04.31.21.29.4-.01.19-.16.33-.35.34l-5.29.24c-.4.02-.73-.3-.73-.7v-8.97c0-.27.23-.49.51-.49h.33c.25.02.45.23.45.49v7.94c0,.33.27.61.6.61,2.36,0,3.76.04,4.19.14Z"/>
  <path d="M788.93,1047.31c-.35-.09-.47-.53-.22-.79.61-.63,1.4-.99,2.39-1.08.37-.04.69.25.68.62l-.14,7.61c-.01.4.29.75.69.81l.87.12c.24.03.41.25.4.49-.02.24-.22.42-.46.41l-4.42-.09c-.22,0-.4-.18-.4-.41-.01-.22.17-.41.39-.42l.89-.05c.41-.02.73-.35.74-.76l.12-6.38c0-.33-.32-.56-.63-.43-.58.24-.88.36-.9.35Z"/>
  <path d="M803.24,1046.53c.61-.62,1.4-.98,2.38-1.07.37-.04.69.26.68.63l-.18,7.58c-.01.4.29.75.69.81l.87.13c.24.03.41.25.39.48-.02.24-.22.43-.46.42l-4.4-.11c-.22-.01-.4-.19-.41-.41,0-.22.18-.41.4-.42l.89-.05c.41-.02.73-.34.74-.75l.15-6.36c.01-.33-.32-.56-.63-.44-.58.24-.88.36-.9.35-.35-.09-.46-.53-.21-.79Z"/>
  <path d="M844.45,1050.76c-1.15-1.64-1.77-2.52-1.86-2.64-.13-.16-.39-.07-.39.14v6.71c0,.25-.2.46-.46.46h-.3c-.21,0-.38-.17-.38-.38v-9.04c-.01-.67.86-.95,1.25-.41.13.18,1.16,1.65,3.09,4.43,1.14,1.65,1.76,2.54,1.84,2.65.13.16.39.07.39-.14v-6.71c0-.25.2-.46.46-.46h.3c.21,0,.38.17.38.38v9.04c.01.67-.86.95-1.25.41-.13-.18-1.15-1.65-3.07-4.44Z"/>
  <path d="M878.97,1045.35c1.18-.03,2.37-.01,3.58.06.2.01.35.2.3.4l-.07.32c-.04.13-.15.22-.29.22h-2.29c-.31,0-.57.26-.56.57.01,4.47.04,6.98.09,7.55.05.64-.19.96-.71.96s-.77-.31-.72-.95c.04-.57.04-3.09.02-7.55,0-.32-.25-.57-.57-.57l-2.29.02c-.13,0-.25-.09-.29-.22l-.07-.32c-.05-.19.09-.39.3-.4,1.2-.07,2.4-.1,3.57-.09Z"/>
  <path d="M897.45,1050.75c-1.15-1.65-1.77-2.53-1.86-2.64-.13-.16-.39-.07-.39.14v6.7c0,.26-.21.46-.46.46h-.3c-.21,0-.38-.17-.38-.38v-9.03c0-.67.86-.95,1.26-.4.13.17,1.15,1.64,3.08,4.42,1.14,1.65,1.75,2.54,1.84,2.65.13.16.39.07.39-.14v-6.7c0-.25.21-.46.46-.46h.3c.21,0,.38.17.38.38v9.03c0,.67-.86.95-1.26.41-.12-.18-1.15-1.66-3.06-4.44Z"/>
  <path d="M920.49,1054.34c.84.11,1.35.07,1.54-.12.59-.6.34-5,.34-8.32,0-.31.25-.56.56-.56h.33c.22,0,.4.18.4.4v8.07c0,.32-.11.63-.31.88-.8.95-1.84,1.16-3.12.64-.24-.1-.37-.36-.31-.61.07-.25.31-.41.57-.38Z"/>
  <path class="st7" d="M467.13,1047.01c.09-.01.62,1.26,1.6,3.8.1.28-.05.58-.33.66-.18.06-.6.09-1.26.09s-1.08-.02-1.26-.08c-.28-.08-.43-.38-.33-.66.96-2.54,1.48-3.81,1.58-3.81Z"/>
  <path d="M904.91,1053.85c.32.06.51.28.57.66.01.1,0,.2-.03.3-.57,1.61-.95,2.4-1.15,2.36-.2-.04-.28-.91-.24-2.62.01-.1.04-.2.08-.29.19-.33.45-.47.77-.41Z"/>
</svg>