<?xml version="1.0" encoding="UTF-8"?>
<svg id="Layer_1" xmlns="http://www.w3.org/2000/svg" version="1.1" viewBox="0 0 513 684">
  <!-- Generator: Adobe Illustrator 29.5.1, SVG Export Plug-In . SVG Version: 2.1.0 Build 141)  -->
  <defs>
    <style>
      .st0 {
        fill: #050000;
      }

      .st1 {
        fill: #fff;
      }

      .st2 {
        fill: #20081c;
      }
    </style>
  </defs>
  <path class="st0" d="M297.68,50.63l9.15-.72c.35-.03.66.25.66.61v8.57c0,.27.29.45.53.32,4.67-2.45,12.97-3.08,15.29,2.97.09.24.14.5.14.76v21.5c0,.31-.26.57-.57.57h-9.42c-.37,0-.67-.3-.67-.67v-16.92c0-.68-.59-1.22-1.27-1.17l-2.09.16c-1.09.09-1.93,1-1.93,2.09v16.12c0,.22-.18.39-.4.39h-9.49c-.35,0-.64-.28-.64-.63v-33.19c0-.4.31-.73.71-.76Z"/>
  <path class="st0" d="M369.18,50.02c.42-.03.77.29.77.71l.03,26.34c0,.42.34.76.76.76h1.02c.34,0,.62.28.62.62v6.64c0,.4-.32.73-.72.73-3.19-.01-8.85.02-10.92-2.3-.93-1.04-1.39-2.63-1.38-4.76.07-13.08.07-22.15,0-27.24,0-.4.31-.74.71-.77l9.11-.73Z"/>
  <path class="st0" d="M47.16,52.89l-1.21,7.18c-.05.31-.35.51-.66.44-2.92-.66-5.94-.81-9.07-.43-1.1.13-1.92,1.06-1.93,2.16l-.02,13.56c0,.4.3.74.7.79,3.94.52,7.64.24,11.1-.84.23-.07.48.09.5.33l.62,8.1c.03.29-.15.55-.43.64-3.22.99-7.1,1.28-11.65.89-6.74-.59-10.67-4.19-11.78-10.8-.79-4.63-.7-10.78.49-14.98,2.84-10.03,14.77-9.98,22.88-7.76.31.09.51.4.46.72Z"/>
  <path class="st0" d="M173.66,51.88c.33-.08.65.17.65.52l-.04,5.61c0,.34.27.62.6.62l2.55.02c.4,0,.72.32.72.72l-.04,5.38c0,.4-.33.73-.73.72h-2.46c-.36-.01-.64.27-.65.62l-.07,11.07c-.01.4.32.73.72.74h1.61c.32.01.58.27.58.59l-.05,6.47c0,.48-.4.87-.88.86-3.37-.09-11.5.47-12.47-4.41-.02-.12-.03-1.27-.02-3.44.03-7.53.05-11.53.05-11.98,0-.32-.26-.57-.57-.57h-1.57c-.33-.02-.59-.28-.59-.6l.04-5.63c0-.32.28-.58.61-.58h1.5c.34,0,.62-.26.62-.6l.02-3.14c0-.36.25-.67.6-.75l9.27-2.24Z"/>
  <path class="st0" d="M415.28,52.38v5.62c0,.34.27.61.61.61h2.55c.4,0,.72.32.72.72v5.38c0,.4-.33.73-.73.73h-2.46c-.35,0-.64.29-.64.64v11.07c0,.4.33.73.73.73h1.61c.32,0,.58.26.58.58v6.47c0,.48-.4.88-.88.87-3.37-.07-11.49.55-12.5-4.33-.02-.12-.03-1.27-.04-3.44-.02-7.53-.03-11.53-.04-11.98-.01-.32-.26-.57-.57-.57h-1.57c-.33,0-.59-.26-.59-.58v-5.63c0-.33.27-.59.6-.59h1.5c.34,0,.62-.27.62-.61v-3.14c0-.36.24-.67.59-.76l9.26-2.3c.33-.08.65.17.65.51Z"/>
  <path class="st0" d="M195.01,65.55c-.91-.47-1.57-.73-1.98-.77-1.27-.14-1.86-.74-1.75-1.79.09-.87.14-1.34.14-1.42.03-11.76,11.29-9.72,19.62-8.57.22.03.38.24.34.46l-1.21,7.28c-.04.23-.23.39-.46.39h-6.28c-.7,0-1.26.56-1.26,1.26v1.83c0,.38.3.68.68.68h17.74c.52,0,.91.47.83.98l-.93,5.61c-.09.51-.53.89-1.04.89h-2.23c-.3,0-.55.24-.55.54v16.83c0,.3-.22.56-.51.61l-5.41.89c-.4.07-.77-.2-.84-.59l-.99-5.97c-.05-.33-.38-.54-.71-.45-6.81,1.9-16.81,3.74-18.58-4.68-1.12-5.3-.78-11.42,5.35-13.54.21-.07.23-.37.03-.47ZM207.06,75.93l-.08-2.82c0-.44-.38-.79-.82-.78l-2.84.07c-.65.02-1.17.48-1.15,1.02l.06,2.44c.02.55.56.98,1.21.96l2.84-.07c.44-.01.79-.38.78-.82Z"/>
  <path class="st0" d="M242.16,51.93c.23,0,.42.19.42.42v23.29c0,.64.51,1.15,1.15,1.15h4.26c1.05,0,1.9-.85,1.9-1.9v-22.47c0-.27.22-.48.49-.48h9.78c.15,0,.26.11.27.26.24,9.87.17,17.68-.2,23.45-.71,11.02-10.15,10.56-19.02,9.94-3.89-.27-6.6-2.23-8.14-5.86-.61-1.44-.94-4.18-.97-8.23-.06-5.98-.06-12.3,0-18.95,0-.34.28-.62.62-.62h9.43Z"/>
  <path class="st0" d="M52.73,66.93c-.13.03-.26-.05-.29-.19l-1.17-7.05c-.02-.15.07-.29.21-.33,6.51-1.76,20.42-3.54,24.01,3.19.61,1.15.92,3.18.91,6.07-.04,9.91-.05,15.21-.02,15.92.01.33-.26.61-.59.61h-4.14c-.41,0-.8-.17-1.09-.46l-2.04-2.03c-.26-.26-.68-.28-.96-.04-5.36,4.55-17.64,5.63-18.48-4.09-.82-9.5,8.61-11.33,15.76-10.76.56.04,1.03-.39,1.03-.95v-.31c0-.46-.37-.84-.83-.86-4.24-.19-8.34.23-12.31,1.28ZM62.79,78.25c.86-.05,1.5-.15,1.92-.32.32-.12.57-.39.69-.72.26-.76.36-1.68.28-2.75-.02-.31-.28-.56-.6-.57-.81-.02-1.63-.01-2.47.03-.86.03-1.5.13-1.92.3-.32.13-.57.39-.69.72-.26.76-.36,1.68-.28,2.75.02.32.28.57.6.58.81.02,1.63.01,2.47-.02Z"/>
  <path class="st0" d="M91.15,85.22h-9.59c-.24,0-.43-.19-.43-.43v-25.62c0-.31.26-.56.57-.56h4.31c.32,0,.63.13.85.35l2.19,2.19c.24.24.63.24.87,0,1.22-1.26,3.4-2.36,6.53-3.31.36-.11.72.14.75.51l.71,8.88c.04.49-.36.92-.86.91-1.89-.01-3.45.4-4.68,1.24-.34.22-.54.61-.54,1.02v14.14c0,.38-.3.68-.68.68Z"/>
  <path class="st0" d="M112.27,85.22c-.4.01-.73.34-.73.74v6.44c-.01.4-.32.74-.72.77l-9.3.72c-.38.03-.7-.27-.7-.66l.06-33.87c0-.41.33-.75.75-.75h4.1c.43,0,.82.23,1.03.58l1.01,1.63c.16.25.51.28.7.06,1.58-1.79,3.68-2.81,6.29-3.06,7.22-.69,11.56,2.46,13.03,9.46,1.02,4.84.58,12.7-3.67,15.82-3.75,2.76-7.44,2.06-11.85,2.12ZM111.55,71.99c-.02,3.75-.02,5.64-.02,5.65.05.33.32.58.64.6,1.65.09,2.9-.06,3.77-.47.44-.21.74-.64.78-1.12.04-.38.07-2,.08-4.84,0-3.75.02-5.64,0-5.65-.05-.33-.31-.58-.64-.59-1.64-.1-2.9.05-3.76.46-.44.21-.74.64-.79,1.12-.04.38-.06,2-.07,4.84Z"/>
  <path class="st0" d="M155.15,76.61c.37-.13.77.1.84.49l1.06,6.43c.07.44-.2.87-.64.98-8.91,2.24-22.46,3.65-24.7-8.44-.87-4.73-.33-9.04,1.64-12.95,2.23-4.45,8.23-5.57,13.08-5.36,6.81.31,12.04,1.31,11.9,9.5-.13,8.33-8.49,8.75-14.69,8.76-.54,0-.96.47-.9,1.01v.04c.08.58.56,1.02,1.15,1.04,4.35.09,8.1-.41,11.26-1.5ZM145.82,69.88c.83-.08,1.46-.21,1.86-.38.31-.14.55-.41.64-.74.23-.76.29-1.66.17-2.7-.03-.31-.3-.54-.61-.53-.79.01-1.59.05-2.41.12-.84.07-1.46.2-1.87.37-.31.14-.54.41-.64.74-.23.75-.28,1.66-.16,2.7.03.31.29.54.6.53.8,0,1.6-.05,2.42-.11Z"/>
  <path class="st0" d="M275.87,85.94v6.43c0,.4-.31.74-.71.77l-9.29.74c-.38.03-.7-.28-.7-.66v-33.83c0-.41.34-.75.75-.75h4.1c.42,0,.81.22,1.03.57l1.01,1.62c.15.25.51.28.7.06,1.57-1.79,3.67-2.81,6.28-3.06,7.21-.71,11.55,2.43,13.03,9.42,1.02,4.83.6,12.69-3.64,15.81-3.74,2.76-7.43,2.07-11.83,2.14-.4.01-.73.34-.73.74ZM275.87,72c.01,3.71.01,5.57.01,5.59.05.32.32.56.64.58,1.63.09,2.87-.07,3.72-.48.43-.21.73-.63.77-1.11.04-.38.05-1.98.05-4.79-.01-3.7-.01-5.57-.01-5.58-.06-.33-.32-.57-.64-.59-1.63-.08-2.87.08-3.72.48-.44.21-.73.63-.77,1.11-.04.38-.05,1.98-.05,4.79Z"/>
  <path class="st0" d="M354.88,74.61c-.08,6.27-5.22,11.29-11.49,11.21l-5.12-.06c-6.27-.08-11.29-5.22-11.21-11.49l.06-5.22c.08-6.27,5.22-11.29,11.49-11.21l5.12.06c6.27.08,11.29,5.22,11.21,11.49l-.06,5.22ZM343.62,66.6c0-.51-.41-.92-.91-.93l-3.3-.03c-.5,0-.92.4-.93.91l-.09,10.62c0,.51.41.92.91.93l3.3.03c.5,0,.92-.4.93-.91l.09-10.62Z"/>
  <path class="st0" d="M389.4,78.06c.34-.04.59-.32.59-.65v-.41c0-.35-.29-.63-.64-.61-5.1.24-13.43-.73-14.09-7.04-.58-5.53.07-9.3,5.89-10.78,5.83-1.49,11.59-1.18,17.27.92.13.05.21.18.19.32l-1.09,6.54c-.03.17-.19.27-.35.23-3.56-.9-7.16-1.19-10.81-.88-.4.04-.73.34-.79.73l-.07.41c-.05.31.17.6.49.63,4.22.35,6.97.68,8.26,1.01,5.71,1.46,6.48,7.26,5.24,12.06-.44,1.69-1.9,3.18-4.39,4.47-.27.14-.57.23-.87.28-6.33.91-12.59.75-18.77-.47-.51-.11-.85-.6-.77-1.11l1.02-6.1c.07-.42.5-.69.91-.57,4.03,1.15,8.29,1.49,12.78,1.02Z"/>
  <path class="st0" d="M445.7,76.64c.37-.13.77.11.83.49l1.04,6.44c.08.44-.2.86-.64.97-8.92,2.21-22.47,3.58-24.67-8.52-.86-4.72-.3-9.04,1.68-12.94,2.25-4.44,8.25-5.54,13.1-5.32,6.81.34,12.03,1.35,11.87,9.54-.16,8.33-8.52,8.72-14.72,8.71-.54,0-.97.47-.9,1.01v.04c.07.58.56,1.02,1.14,1.04,4.35.11,8.1-.38,11.27-1.46ZM436.35,69.83c.83-.08,1.43-.21,1.83-.39.3-.14.53-.4.62-.73.22-.74.27-1.63.14-2.66-.04-.3-.3-.52-.61-.51-.77.02-1.56.07-2.37.15-.82.08-1.43.2-1.83.38-.3.14-.53.41-.62.73-.22.75-.26,1.63-.13,2.66.03.3.3.52.6.52.78-.02,1.57-.07,2.37-.15Z"/>
  <path class="st0" d="M463.97,84.51c0,.37-.31.68-.68.68l-9.57.02c-.24,0-.43-.2-.43-.43l-.06-25.57c0-.31.26-.56.57-.56h4.3c.32-.01.63.11.85.34l2.19,2.18c.24.24.63.24.87,0,1.22-1.26,3.39-2.36,6.51-3.31.36-.11.72.14.75.5l.73,8.87c.04.49-.36.91-.86.91-1.88,0-3.44.4-4.67,1.24-.33.23-.53.61-.53,1.02l.03,14.12Z"/>
  <path class="st0" d="M484.27,75.87l2.72-16.34c.09-.52.54-.91,1.06-.91h9.15c.29,0,.5.27.43.55-.84,3.57-2.93,11.96-6.27,25.19-2.85,11.32-8.79,9.56-19.86,9.55-.41,0-.75-.34-.75-.75v-5.48c0-.38.25-.71.62-.81,2.62-.7,7.85-.92,10.16-3.6.31-.36.05-.93-.43-.93h-4.39c-.32,0-.61-.22-.69-.54l-5.54-22.35c-.11-.42.21-.83.65-.83h9.3c.29,0,.53.21.58.49l2.78,16.76c.02.12.12.2.24.2s.22-.08.24-.2Z"/>
  <path class="st1" d="M111.55,71.99c0-2.84.03-4.46.07-4.84.05-.48.35-.91.79-1.12.86-.41,2.12-.56,3.76-.46.33.01.59.26.64.59.01,0,0,1.9,0,5.65-.01,2.84-.04,4.46-.08,4.84-.04.48-.34.91-.78,1.12-.87.41-2.12.56-3.77.47-.32-.02-.59-.27-.64-.6,0-.01,0-1.9.02-5.65Z"/>
  <path class="st1" d="M145.82,69.88c-.82.06-1.62.1-2.42.11-.31.01-.57-.22-.6-.53-.12-1.04-.07-1.95.16-2.7.1-.33.33-.6.64-.74.41-.17,1.03-.3,1.87-.37.82-.07,1.62-.11,2.41-.12.31-.01.58.22.61.53.12,1.04.06,1.94-.17,2.7-.09.33-.33.6-.64.74-.4.17-1.03.3-1.86.38Z"/>
  <path class="st1" d="M275.87,72c0-2.81.01-4.41.05-4.79.04-.48.33-.9.77-1.11.85-.4,2.09-.56,3.72-.48.32.02.58.26.64.59,0,.01,0,1.88.01,5.58,0,2.81-.01,4.41-.05,4.79-.04.48-.34.9-.77,1.11-.85.41-2.09.57-3.72.48-.32-.02-.59-.26-.64-.58,0-.02,0-1.88-.01-5.59Z"/>
  <rect class="st1" x="334.77" y="69.32" width="12.46" height="5.14" rx=".92" ry=".92" transform="translate(266.14 412.25) rotate(-89.5)"/>
  <path class="st1" d="M436.35,69.83c-.8.08-1.59.13-2.37.15-.3,0-.57-.22-.6-.52-.13-1.03-.09-1.91.13-2.66.09-.32.32-.59.62-.73.4-.18,1.01-.3,1.83-.38.81-.08,1.6-.13,2.37-.15.31-.01.57.21.61.51.13,1.03.08,1.92-.14,2.66-.09.33-.32.59-.62.73-.4.18-1,.31-1.83.39Z"/>
  <path class="st1" d="M207.06,75.93c.01.44-.34.81-.78.82l-2.84.07c-.65.02-1.19-.41-1.21-.96l-.06-2.44c-.02-.54.5-1,1.15-1.02l2.84-.07c.44-.01.81.34.82.78l.08,2.82Z"/>
  <path class="st1" d="M62.79,78.25c-.84.03-1.66.04-2.47.02-.32,0-.58-.26-.6-.58-.08-1.07.02-1.99.28-2.75.12-.33.37-.59.69-.72.42-.17,1.06-.27,1.92-.3.84-.04,1.66-.05,2.47-.03.32.01.58.26.6.57.08,1.07-.02,1.99-.28,2.75-.12.33-.37.6-.69.72-.42.17-1.06.27-1.92.32Z"/>
  <rect class="st0" x="296.65" y="100.85" width="8.42" height="11.56" rx="3.37" ry="3.37" transform="translate(193.71 407.3) rotate(-89.9)"/>
  <path class="st0" d="M198.17,103.64v26.47c0,.43.34.77.77.77h1.02c.34,0,.62.28.62.62v6.68c0,.4-.33.73-.73.73-3.2-.01-8.89,0-10.97-2.32-.93-1.05-1.39-2.64-1.38-4.79.09-13.14.1-22.26.03-27.37,0-.41.3-.75.71-.78l9.16-.72c.42-.03.77.29.77.71Z"/>
  <path class="st0" d="M181.87,113.62c-2.92-.66-5.94-.8-9.07-.42-1.1.14-1.92,1.07-1.92,2.17v13.55c0,.4.3.74.7.79,3.94.51,7.64.22,11.09-.86.23-.08.48.08.5.33l.64,8.09c.02.29-.15.55-.43.64-3.21.99-7.09,1.3-11.64.91-6.74-.58-10.67-4.17-11.8-10.77-.79-4.63-.71-10.78.47-14.98,2.82-10.03,14.74-10,22.85-7.79.32.08.52.4.46.72l-1.19,7.18c-.05.31-.35.51-.66.44Z"/>
  <path class="st0" d="M358.05,129.95c-.35.04-.63.31-.69.66l-.05.28c-.03.19.11.35.3.36,3.61.15,9.11.76,9.79,4.8.98,5.85-1.36,9.27-7.02,10.28-5.01.89-11.05.64-18.11-.73-.33-.07-.55-.39-.49-.72l1.15-6.92c.05-.31.37-.51.67-.42,3.96,1.19,7.86,1.7,11.71,1.51.54-.02.97-.44,1.01-.98v-.27c-.01-.52-.43-.94-.95-.94h-5.72c-1.46,0-2.49-1.43-2.02-2.82l1.23-3.64c.1-.3-.08-.63-.4-.7-5.34-1.22-7.76-4.64-7.27-10.27.82-9.26,10.76-8.86,17.41-8.23.36.03.71-.08.98-.3l3.34-2.73c.5-.41,1.23-.37,1.69.08l4.08,4.08c.43.44.43,1.14,0,1.57l-1.91,1.92c-.24.24-.35.58-.29.92,1.58,8.06.01,12.22-8.44,13.21ZM356.17,122.66c.82-.93.97-2.31.48-4.15-.06-.21-.15-.37-.27-.48-.13-.11-.3-.18-.52-.21-1.89-.24-3.24.11-4.05,1.04s-.97,2.32-.47,4.16c.05.21.14.37.27.48.13.11.3.18.51.2,1.89.24,3.24-.11,4.05-1.04Z"/>
  <path class="st0" d="M226.82,129.67c.37-.13.77.1.84.48l1.08,6.42c.08.45-.2.87-.64.99-8.89,2.26-22.42,3.72-24.7-8.35-.89-4.72-.36-9.04,1.59-12.95,2.21-4.45,8.21-5.59,13.05-5.4,6.81.29,12.04,1.27,11.92,9.45-.1,8.33-8.45,8.78-14.64,8.81-.55,0-.96.47-.9,1.01v.04c.08.58.57,1.02,1.15,1.03,4.35.08,8.1-.43,11.25-1.53ZM217.21,118.63c-.82.06-1.43.17-1.83.34-.3.12-.54.38-.64.7-.24.73-.31,1.61-.22,2.63.03.3.28.54.59.54.77,0,1.55-.02,2.35-.08.82-.05,1.43-.15,1.84-.32.3-.13.54-.38.64-.7.24-.74.31-1.62.22-2.64-.03-.3-.28-.53-.59-.53-.77-.01-1.56.01-2.36.06Z"/>
  <path class="st0" d="M235.98,120c-.13.03-.26-.05-.28-.19l-1.19-7.02c-.02-.15.07-.29.21-.33,6.49-1.77,20.34-3.57,23.93,3.13.62,1.14.92,3.16.92,6.04-.02,9.87-.01,15.16.02,15.87.01.33-.26.6-.59.6h-4.12c-.41,0-.8-.15-1.09-.44l-2.04-2.02c-.26-.26-.67-.28-.96-.04-5.33,4.55-17.56,5.65-18.42-4.03-.83-9.47,8.56-11.31,15.68-10.76.56.04,1.03-.39,1.03-.95v-.31c0-.46-.37-.84-.83-.85-4.23-.19-8.32.25-12.27,1.3ZM246.21,131.13c.85-.06,1.48-.17,1.9-.34.32-.13.56-.39.67-.72.25-.76.33-1.67.24-2.73-.02-.31-.28-.55-.6-.56-.8-.01-1.62.02-2.44.07-.85.04-1.49.15-1.9.32-.32.13-.57.4-.67.73-.26.76-.34,1.67-.24,2.73.02.31.28.55.6.55.8.01,1.61,0,2.44-.05Z"/>
  <path class="st0" d="M280.33,137.33v-16.73c0-.66-.6-1.17-1.25-1.06l-2.75.45c-.75.13-1.29.77-1.29,1.53v15.92c0,.33-.26.59-.59.59h-9.37c-.34,0-.62-.28-.62-.63v-25.18c0-.35.29-.64.64-.64h4.07c.32,0,.63.13.85.35l1.78,1.78c.34.34.86.39,1.26.13,3.84-2.53,8.17-3.4,12.98-2.6,3.8.63,5,3.44,4.99,7.22-.02,6.63-.03,12.94-.04,18.93,0,.35-.28.63-.63.63h-9.34c-.38,0-.69-.31-.69-.69Z"/>
  <path class="st0" d="M328.51,138.02c-.38,0-.69-.31-.69-.69v-16.72c0-.67-.59-1.17-1.24-1.06l-2.75.44c-.75.13-1.29.78-1.29,1.53v15.92c-.01.33-.27.59-.6.59h-9.36c-.35,0-.62-.28-.62-.63v-25.18c0-.35.29-.64.64-.64h4.07c.32,0,.63.13.85.35l1.78,1.78c.34.34.87.4,1.26.13,3.84-2.53,8.17-3.39,12.98-2.59,3.8.63,5,3.44,4.99,7.22-.03,6.63-.04,12.94-.05,18.92,0,.35-.28.63-.63.63h-9.34Z"/>
  <path class="st0" d="M305.72,138.02h-9.76c-.28,0-.5-.22-.5-.5v-23.93c0-.24.18-.45.42-.49l9.76-1.62c.3-.05.58.18.58.49v25.55c0,.28-.22.5-.5.5Z"/>
  <path class="st1" d="M356.17,122.66c-.81.93-2.16,1.28-4.05,1.04-.21-.02-.38-.09-.51-.2-.13-.11-.22-.27-.27-.48-.5-1.84-.34-3.23.47-4.16s2.16-1.28,4.05-1.04c.22.03.39.1.52.21.12.11.21.27.27.48.49,1.84.34,3.22-.48,4.15Z"/>
  <path class="st1" d="M217.21,118.63c.8-.05,1.59-.07,2.36-.06.31,0,.56.23.59.53.09,1.02.02,1.9-.22,2.64-.1.32-.34.57-.64.7-.41.17-1.02.27-1.84.32-.8.06-1.58.08-2.35.08-.31,0-.56-.24-.59-.54-.09-1.02-.02-1.9.22-2.63.1-.32.34-.58.64-.7.4-.17,1.01-.28,1.83-.34Z"/>
  <path class="st1" d="M246.21,131.13c-.83.04-1.64.06-2.44.05-.32,0-.58-.24-.6-.55-.1-1.06-.02-1.97.24-2.73.1-.33.35-.6.67-.73.41-.17,1.05-.28,1.9-.32.82-.05,1.64-.08,2.44-.07.32.01.58.25.6.56.09,1.06,0,1.97-.24,2.73-.11.33-.35.59-.67.72-.42.17-1.05.28-1.9.34Z"/>
  <path class="st0" d="M334.93,187.08c-.05.13,0,.29.13.35.13.07.29.03.37-.09,1.39-2.07,2.65-3.68,3.8-4.84,2.93-2.95,6.68-.26,5.06,3.56-1.52,3.56-3.32,6.97-2.73,8.44.09.24.35.36.59.29,1.29-.4,1.94-.56,1.95-.49.2,1.05-.4,2.14-1.46,2.66-2.16,1.06-3.61.6-4.34-1.39-.97-2.62,1.42-7.22,2.88-9.96.09-.17.08-.47-.05-.88-.13-.42-.66-.57-.99-.28-3.72,3.19-6.54,7.18-8.46,11.98-.32.8-1.25,1.17-2.03.81l-.14-.06c-.75-.34-1.09-1.23-.75-1.98,2.74-6.1,4.52-10.95,5.33-14.54.55-2.42,1.22-5.21,1.99-8.38.12-.49.55-.83,1.05-.83,1.25.01,2.05.8,1.91,2.1-.51,4.63-2.46,9.4-4.11,13.53Z"/>
  <path class="st0" d="M248.59,176.55c.07-.24-.23-.4-.39-.21-4.89,5.91-8.14,14.38-11.83,19.2-1.08,1.42-2.59,1.85-4.52,1.3-.23-.06-.48-.04-.69.07l-.72.36c-.44.21-.95.19-1.38-.05-1.35-.78-1.79-1.85-1.34-3.22.31-.95,1.25-1.54,2.24-1.4,1.64.23,2.46.82,2.47,1.79,0,.47.54.74.92.46,2.55-1.89,4.81-7.09,8.78-14.01,1.9-3.32,5.32-7.93,9.18-7.52.93.09,1.5,1.06,1.14,1.92-2.31,5.6-3.8,11.1-4.45,16.49-.02.17.09.34.25.39.17.05.35-.03.43-.19,2.87-5.82,5.13-10.95,9.1-15.63,1.08-1.27,2.61-2.08,4.59-2.42.99-.17,1.8.78,1.47,1.72-1.27,3.69-2.65,7.99-4.14,12.88-.44,1.46-.71,2.99-.8,4.6-.04.73.61,1.31,1.33,1.19l1.66-.27c.51-.09.9.43.69.89-.75,1.68-2.6,2.66-4.47,2.13-5.79-1.65.7-16.14,2.24-19.92.07-.15-.01-.33-.16-.39l-.29-.13s-.05,0-.06.02c-3.09,4.71-6.06,9.97-8.91,15.8-.68,1.38-1.67,2.78-2.96,4.2-.86.93-2.41.48-2.63-.77-.41-2.29-.36-5.16.14-8.61.54-3.74,2.02-7.09,3.11-10.67Z"/>
  <ellipse class="st0" cx="396.82" cy="176.29" rx="2.44" ry="2.25" transform="translate(-37.4 176.64) rotate(-24)"/>
  <path class="st0" d="M326.54,181.22c-.13.32.12.66.46.63l2.24-.18c.49-.03.92.32.98.81.06.49-.27.93-.76,1.01l-4.03.67c-.35.06-.64.32-.74.67l-2.27,8.53c-.24.9.6,1.71,1.5,1.45.97-.29,1.87-.75,2.7-1.37.48-.36,1.13.15.9.71-1.96,4.8-9.64,4.68-7.91-2.33.98-4,1.67-6.35,2.06-7.05.17-.31,0-.69-.34-.79l-.79-.21c-.68-.18-.8-1.1-.18-1.44.71-.4,1.4-.59,2.05-.58.31,0,.59-.18.71-.46l1.42-3.38c.35-.84,1.41-1.11,2.13-.56l.3.22c.5.39.67,1.05.43,1.62l-.86,2.03Z"/>
  <path class="st0" d="M438.53,181.22c-.14.32.11.66.45.63l2.24-.18c.48-.03.92.32.97.81.06.48-.27.93-.76,1.01l-4.01.66c-.35.06-.64.32-.74.67l-2.27,8.49c-.24.9.6,1.71,1.5,1.44.96-.28,1.86-.74,2.69-1.36.48-.36,1.12.15.89.71-1.95,4.78-9.6,4.66-7.88-2.33.98-3.98,1.67-6.31,2.06-7.01.17-.31,0-.7-.34-.79l-.78-.21c-.68-.18-.8-1.1-.18-1.43.71-.4,1.39-.59,2.04-.58.31,0,.59-.18.71-.46l1.42-3.37c.35-.83,1.4-1.11,2.12-.55l.3.22c.49.38.67,1.04.42,1.61l-.85,2.02Z"/>
  <path class="st0" d="M409.09,191.41l-.25-.1c-.08-.04-.18,0-.22.08-.77,1.53-2.06,3.05-3.88,4.58-1.22,1.02-2.43,1.36-3.63,1.03-2-.55-2.08-3.24-1.45-4.63,1.35-2.96,2.49-5.64,3.43-8.05.19-.49-.04-1.04-.53-1.25l-.25-.11c-.43-.18-.49-.76-.11-1.03,1.33-.93,2.62-1.02,3.87-.27.36.21.57.62.54,1.04-.32,3.85-2.53,7.3-3.75,10.76-.22.62.49,1.15,1.03.78,3.55-2.43,6.71-8.27,8.64-12.09.4-.8,1.34-1.17,2.18-.86h.02c.69.31,1.01,1.11.72,1.8l-3.94,9.32c-.43,1.02.49,2.1,1.56,1.83l.66-.16c.48-.12.87.37.65.81-.81,1.57-1.97,2.31-3.48,2.21-3.12-.22-2.51-3.59-1.7-5.39.05-.11,0-.25-.11-.3Z"/>
  <path class="st0" d="M276.78,181.95c2.8,1.8,2.95,6.56.34,10.64-2.61,4.07-7.01,5.92-9.81,4.12-2.8-1.8-2.95-6.56-.34-10.64,2.61-4.07,7.01-5.92,9.81-4.12ZM274.72,183.09c-1.33-.57-3.59,1.74-5.05,5.16-1.46,3.42-1.56,6.65-.23,7.22,1.33.57,3.59-1.74,5.05-5.16,1.46-3.42,1.56-6.65.23-7.22Z"/>
  <path class="st0" d="M287.09,186.84c1.32-1.82,2.63-4.91,5.17-5.49.87-.2,1.74.3,1.99,1.15.31,1.01.09,2-.66,2.95-.29.37-.82.44-1.2.16-1.16-.87-2.22-.66-3.17.64-2.57,3.51-4.31,6.79-5.23,9.86-.25.85-1.2,1.29-2.01.93l-.19-.08c-.83-.36-1.2-1.33-.84-2.16,1.14-2.58,2.02-5.31,2.94-8.13.49-1.52.4-2.73-.28-3.63-.42-.55-.13-1.35.54-1.51,1.29-.31,2.28-.2,2.98.33,1.24.93-.09,3.56-.35,4.84-.04.18.2.29.31.14Z"/>
  <path class="st0" d="M298.93,191.51c-.85.02-1.49.79-1.35,1.63l.06.4c.17.97,1.05,1.65,2.03,1.58,1.8-.13,3.25-.74,4.35-1.82.54-.54,1.45-.06,1.33.69-.5,3.07-4.26,3.52-6.84,3.36-9.28-.61-2.42-18.76,6.92-15.53.38.13.69.39.89.74,2.86,5.19-2.93,8.87-7.39,8.95ZM298.33,189.89c.16.15.7.02,1.63-.38,1.43-.62,2.59-1.56,3.46-2.83.97-1.41,1.08-2.44.34-3.09-.71-.63-1.71-.37-2.98.78-1.14,1.03-1.92,2.3-2.35,3.8-.27.97-.31,1.55-.1,1.72Z"/>
  <path class="st0" d="M355.43,194.14c-.05-.29-.43-.37-.58-.11-2.22,3.58-7.97,4.84-8.27-.82-.2-3.88,1.3-7.19,4.52-9.92,2.68-2.28,5.03-2.57,7.04-.88.3.24.73.18.95-.13.43-.62.98-.95,1.64-.98,1.13-.06,1.94,1.05,1.44,1.96-1.79,3.24-3.08,6.38-3.85,9.44-.24.93.6,1.78,1.53,1.55l1.06-.26c.36-.09.68.26.55.61-1.2,3.28-5.36,3.77-6.03-.46ZM356.49,183.2c-1.19-.65-3.53,1.36-5.21,4.49-1.68,3.13-2.07,6.18-.88,6.82,1.19.65,3.53-1.36,5.21-4.49,1.68-3.13,2.07-6.18.88-6.82Z"/>
  <path class="st0" d="M369.79,186.63c.12-.09,1-1.15,2.63-3.18,1.49-1.87,4.67-3.24,6.27-.8,1.32,2.03-1.26,6.47-3.14,10.94-.3.7.38,1.42,1.09,1.16l.98-.35c.87-.31,1.53.8.84,1.41-1.75,1.54-3.23,2.01-4.43,1.41-4.41-2.2,1.19-9.25,1.55-12.31.07-.62-.67-1-1.13-.58-3.89,3.49-6.77,7.5-8.63,12.01-.34.84-1.29,1.26-2.14.94l-.07-.03c-.81-.31-1.19-1.24-.82-2.02,1.25-2.61,2.41-5.43,3.48-8.46.53-1.5.55-2.64.06-3.41-.67-1.03.47-2.3,1.83-2.05,2.65.49,3.04,2.12,1.17,4.87-.09.13-.07.31.04.42.12.11.29.12.42.03Z"/>
  <path class="st0" d="M384.78,204.34c4.71-1.98,7.86-12.7,8.7-17.62.35-2.07.21-3.33-.44-3.79-.25-.19-.27-.56-.04-.77,1-.89,2.25-1.1,3.74-.63.51.16.85.66.8,1.2-.65,7.12-4.08,19.44-11.19,22.81-.49.23-1.07.17-1.51-.15l-.17-.12c-.34-.25-.27-.77.11-.93Z"/>
  <path class="st0" d="M419.17,192.95l.17,1.02c.13.77.85,1.29,1.62,1.16l.89-.15c.78-.13,1.21-.97.87-1.68-.33-.69-1.04-1.8-2.13-3.33-5.64-7.93,6.56-11.42,8.63-6.25.41,1.03-.01,2.06-1.26,3.07-.75.61-1.86.05-1.83-.91.02-.62.03-.96.02-1.03-.14-1.41-1.82-2.09-2.99-1.21-2.86,2.15,2.98,6.21,2.85,9.15-.18,4.02-5.57,5.35-8.45,3.52-1.58-1-1.37-2.71-.02-3.93.58-.52,1.5-.2,1.63.57Z"/>
  <path class="st0" d="M459.93,194.14c-.05-.29-.43-.36-.58-.11-2.2,3.58-7.94,4.86-8.25-.79-.21-3.87,1.28-7.18,4.48-9.91,2.67-2.29,5.02-2.59,7.03-.9.29.24.72.18.94-.13.43-.62.98-.95,1.64-.99,1.13-.06,1.94,1.04,1.44,1.96-1.78,3.23-3.05,6.38-3.82,9.43-.24.93.6,1.77,1.53,1.54l1.06-.26c.36-.09.68.26.55.61-1.19,3.27-5.34,3.77-6.02-.45ZM461,183.18c-1.21-.65-3.54,1.36-5.21,4.49-1.67,3.12-2.04,6.18-.83,6.82,1.21.65,3.54-1.36,5.21-4.49,1.67-3.12,2.04-6.18.83-6.82Z"/>
  <ellipse class="st1" cx="272.08" cy="189.28" rx="6.73" ry="2.62" transform="translate(-8.77 365.28) rotate(-66.9)"/>
  <path class="st1" d="M298.33,189.89c-.21-.17-.17-.75.1-1.72.43-1.5,1.21-2.77,2.35-3.8,1.27-1.15,2.27-1.41,2.98-.78.74.65.63,1.68-.34,3.09-.87,1.27-2.03,2.21-3.46,2.83-.93.4-1.47.53-1.63.38Z"/>
  <ellipse class="st1" cx="353.45" cy="188.85" rx="6.42" ry="2.46" transform="translate(19.61 410.52) rotate(-61.7)"/>
  <ellipse class="st1" cx="457.98" cy="188.83" rx="6.41" ry="2.48" transform="translate(75.69 503.89) rotate(-61.9)"/>
  <circle class="st0" cx="213.04" cy="194.91" r="2.45"/>
  <ellipse class="st0" cx="221.53" cy="194.91" rx="2.49" ry="2.37" transform="translate(-51.58 83.22) rotate(-19.1)"/>
  <path class="st0" d="M417.58,212.89c-.13.31.12.65.46.62l2.24-.18c.48-.04.92.32.98.8.06.49-.28.94-.76,1.02l-4.03.67c-.35.06-.64.32-.74.67l-2.26,8.51c-.23.91.61,1.72,1.5,1.45.97-.29,1.87-.74,2.7-1.37.48-.36,1.13.15.9.71-1.95,4.79-9.62,4.68-7.9-2.32.97-3.99,1.66-6.33,2.05-7.03.17-.31,0-.7-.34-.79l-.79-.21c-.68-.18-.8-1.1-.18-1.44.71-.4,1.39-.59,2.04-.58.31,0,.59-.18.71-.46l1.42-3.38c.35-.84,1.4-1.11,2.12-.56l.3.22c.5.38.68,1.05.44,1.62l-.86,2.03Z"/>
  <path class="st0" d="M398.11,224.58l.16,1.03c.13.77.85,1.29,1.62,1.17l.9-.15c.78-.13,1.22-.97.87-1.68-.33-.69-1.04-1.81-2.12-3.35-5.62-7.97,6.62-11.42,8.68-6.23.41,1.04-.02,2.06-1.28,3.07-.75.61-1.86.05-1.83-.92.02-.62.03-.96.02-1.03-.13-1.42-1.81-2.1-2.99-1.23-2.87,2.15,2.97,6.24,2.82,9.19-.19,4.03-5.6,5.34-8.48,3.5-1.58-1.01-1.36-2.72-.01-3.94.59-.52,1.51-.19,1.64.57Z"/>
  <path class="st0" d="M425.24,223.13c-.86,0-1.51.78-1.37,1.63l.06.4c.16.97,1.03,1.66,2.01,1.6,1.81-.12,3.26-.72,4.38-1.8.54-.53,1.45-.05,1.32.71-.52,3.07-4.3,3.49-6.88,3.31-9.29-.68-2.28-18.82,7.06-15.51.38.13.69.4.88.75,2.83,5.23-3,8.87-7.46,8.91ZM424.64,221.67c.17.14.7,0,1.61-.42,1.4-.64,2.52-1.6,3.36-2.87.93-1.41,1.02-2.43.27-3.06-.72-.61-1.7-.33-2.93.84-1.1,1.04-1.85,2.31-2.24,3.81-.25.96-.27,1.53-.07,1.7Z"/>
  <path class="st0" d="M443.69,225.79c-.05-.29-.43-.36-.58-.11-2.22,3.57-7.97,4.83-8.26-.83-.19-3.88,1.32-7.18,4.53-9.9,2.69-2.28,5.04-2.57,7.05-.87.29.24.72.18.94-.13.43-.61.98-.94,1.64-.98,1.14-.06,1.94,1.05,1.44,1.97-1.8,3.23-3.09,6.37-3.87,9.42-.24.93.59,1.78,1.52,1.55l1.07-.25c.36-.1.68.26.54.61-1.2,3.27-5.36,3.75-6.02-.48ZM445.67,216.81c.21-.8-.34-1.59-1.16-1.67-4.32-.44-6.38,6.92-6.3,10.05.03,1.12,1.37,1.67,2.18.9,2.51-2.37,4.27-5.47,5.28-9.28Z"/>
  <path class="st0" d="M466.25,218.5l3.58-4.36c.1-.12.21-.22.34-.3,1.48-.93,2.83-1.04,4.06-.33.3.18.53.46.63.79.47,1.47.49,2.63.05,3.48-1.53,2.96-2.57,5.46-3.13,7.49-.19.7.49,1.33,1.17,1.08l1.04-.37c.46-.17.9.3.71.75-.74,1.69-2.08,2.41-4.01,2.18-1-.12-1.81-.87-2.01-1.85-.7-3.52,2.25-7.9,3.18-10.47.17-.47-.3-.92-.76-.73-.35.15-.68.39-1.01.73-3.35,3.5-5.8,7.3-7.36,11.4-.31.82-1.25,1.21-2.05.86l-.05-.03c-.83-.36-1.2-1.33-.82-2.15,2.53-5.49,3.93-8.63,4.21-9.4.19-.53.22-.91.1-1.15-.21-.4-.72-.5-1.07-.22-4.1,3.35-7.08,7.37-8.94,12.06-.32.8-1.23,1.19-2.02.86l-.1-.04c-.76-.31-1.12-1.19-.8-1.94,2.26-5.26,3.57-8.63,3.93-10.12.19-.81.03-1.39-.49-1.74-.7-.46-.33-1.56.59-1.79,2.47-.6,4.18.49,3.11,3.13-.51,1.26-.77,1.89-.77,1.9.01.25.31.37.48.2,1.63-1.55,3.49-5.98,7.18-5.28.95.18,1.59,1.08,1.43,2.04l-.54,3.25c0,.08.09.13.14.07Z"/>
  <path class="st1" d="M424.64,221.67c-.2-.17-.18-.74.07-1.7.39-1.5,1.14-2.77,2.24-3.81,1.23-1.17,2.21-1.45,2.93-.84.75.63.66,1.65-.27,3.06-.84,1.27-1.96,2.23-3.36,2.87-.91.42-1.44.56-1.61.42Z"/>
  <path class="st1" d="M445.67,216.81c-1.01,3.81-2.77,6.91-5.28,9.28-.81.77-2.15.22-2.18-.9-.08-3.13,1.98-10.49,6.3-10.05.82.08,1.37.87,1.16,1.67Z"/>
  <path class="st2" d="M376.38,514.51c0,.22-.18.4-.4.4h-225.16c-.22,0-.4-.18-.4-.4V216.95c0-.22.18-.4.4-.4h225.16c.22,0,.4.18.4.4v297.56ZM231.78,244.25c-.86-3.56-2.68-5.89-5.47-6.98-3.7-1.44-9.96-.87-12.81,2.59-3.26,3.96-3.3,8.34-2.63,13.27,1.24,9.09,12.06,11.31,18.25,5.7.85-.77,1.8-2.63,2.83-5.57.14-.39-.15-.81-.57-.81h-2.12c-.46,0-.84.35-.88.8-.57,6.52-9.34,7.69-12.71,2.97-2.13-2.98-2.15-6.65-1.61-10.25,1.12-7.47,11.77-9.8,14.44-1.83.07.19.24.31.44.31h2.67c.11,0,.2-.1.17-.2ZM206.46,243.33c-.29-6.31-6.96-7.31-11.98-6.38-2.98.55-4.77,2.25-5.37,5.1-2.49,11.84,16.02,5.45,15.12,13.53-.03.3-.14.6-.3.87-2.46,4.15-12.22,4.01-12.64-1.93-.03-.48-.43-.85-.9-.85h-1.92c-.44,0-.76.41-.65.84.62,2.49,1.57,4.96,4.21,6.24,3.53,1.72,7.22,1.78,11.08.17,3.49-1.46,4.76-4.64,3.94-8.06-.72-3.02-3.32-4.36-6.09-4.82-3.2-.54-5.75-1.27-7.66-2.18-2.36-1.14-1.9-4.08-.01-5.4,2.85-2,9.29-2.01,9.8,2.79.06.5.47.88.97.88h1.65c.43,0,.77-.36.75-.8ZM244.71,254.15c2.03.02,3.46.03,4.29.03.28,0,.53.18.62.44l2.2,6.11c.13.34.45.57.81.57h2.16c.3,0,.51-.3.41-.58l-8.2-22.78c-.12-.33-.39-.57-.73-.66-.37-.1-.84-.15-1.42-.16-.58,0-1.06.04-1.43.13-.34.09-.61.33-.74.65l-8.58,22.64c-.1.29.1.59.4.59l2.16.04c.36,0,.69-.22.82-.56l2.3-6.07c.1-.26.35-.44.63-.43.83,0,2.26.03,4.3.04ZM261.65,242.77c.27-.35.57-.27.89.25,2.71,4.33,6.22,9.92,10.52,16.77.89,1.41,2.28,1.87,4.19,1.36.3-.08.51-.36.51-.67v-22.68c0-.39-.31-.7-.7-.7h-1.69c-.38,0-.68.3-.68.68v18.24c0,.26-.34.36-.48.14l-11.6-18.67c-.15-.24-.41-.39-.7-.39h-2.64c-.4,0-.73.33-.73.73v22.82c0,.31.26.57.57.57h1.9c.33,0,.6-.26.6-.59v-17.72c0-.05.01-.1.04-.14ZM303.92,261.23h1.36c.22-.07.39-.23.46-.44l6.34-18.77c.04-.1.14-.17.25-.15.11.02.19.11.19.22v18.46c0,.39.31.7.7.7h1.6c.37,0,.67-.3.67-.68v-22.77c0-.38-.3-.69-.68-.69h-3.32c-.37,0-.7.24-.82.6-1.99,5.99-4.03,12.01-6.13,18.05-.21.58-.41.88-.62.88s-.41-.3-.61-.88c-2.1-6.04-4.14-12.06-6.13-18.05-.12-.36-.45-.6-.82-.6h-3.32c-.37,0-.68.3-.68.69v22.77c0,.37.29.68.66.68h1.6c.39,0,.7-.32.7-.7v-18.46c0-.11.09-.21.2-.22.11-.02.22.04.25.15l6.33,18.77c.07.21.24.37.46.44h1.36ZM338.57,237.75c0-.33-.27-.6-.6-.6h-16.45c-.33,0-.6.27-.6.6v22.84c0,.33.27.6.6.6h16.69c.33,0,.6-.27.6-.6v-1.5c0-.33-.27-.6-.6-.6h-13.8c-.33,0-.6-.27-.6-.6v-7.13c0-.33.27-.6.6-.6h12.37c.33,0,.6-.27.6-.6v-1.49c0-.33-.27-.6-.6-.6h-12.38c-.33,0-.6-.27-.6-.6v-6.21c0-.33.27-.6.6-.6h13.57c.33,0,.6-.27.6-.6v-1.71ZM349.49,284.91c0-.27-.22-.49-.49-.49h-169.58c-.27,0-.49.22-.49.49v4.34c0,.27.22.49.49.49h169.58c.27,0,.49-.22.49-.49v-4.34ZM350.09,320.44c0-2.17-1.76-3.93-3.93-3.93h-163.54c-2.17,0-3.93,1.76-3.93,3.93v164.86c0,2.17,1.76,3.93,3.93,3.93h163.54c2.17,0,3.93-1.76,3.93-3.93v-164.86Z"/>
  <path class="st1" d="M231.78,244.25c.03.1-.06.2-.17.2h-2.67c-.2,0-.37-.12-.44-.31-2.67-7.97-13.32-5.64-14.44,1.83-.54,3.6-.52,7.27,1.61,10.25,3.37,4.72,12.14,3.55,12.71-2.97.04-.45.42-.8.88-.8h2.12c.42,0,.71.42.57.81-1.03,2.94-1.98,4.8-2.83,5.57-6.19,5.61-17.01,3.39-18.25-5.7-.67-4.93-.63-9.31,2.63-13.27,2.85-3.46,9.11-4.03,12.81-2.59,2.79,1.09,4.61,3.42,5.47,6.98Z"/>
  <path class="st1" d="M206.46,243.33c.02.44-.32.8-.75.8h-1.65c-.5,0-.91-.38-.97-.88-.51-4.8-6.95-4.79-9.8-2.79-1.89,1.32-2.35,4.26.01,5.4,1.91.91,4.46,1.64,7.66,2.18,2.77.46,5.37,1.8,6.09,4.82.82,3.42-.45,6.6-3.94,8.06-3.86,1.61-7.55,1.55-11.08-.17-2.64-1.28-3.59-3.75-4.21-6.24-.11-.43.21-.84.65-.84h1.92c.47,0,.87.37.9.85.42,5.94,10.18,6.08,12.64,1.93.16-.27.27-.57.3-.87.9-8.08-17.61-1.69-15.12-13.53.6-2.85,2.39-4.55,5.37-5.1,5.02-.93,11.69.07,11.98,6.38Z"/>
  <path class="st1" d="M244.85,237.12c.58.01,1.05.06,1.42.16.34.09.61.33.73.66l8.2,22.78c.1.28-.11.58-.41.58h-2.16c-.36,0-.68-.23-.81-.57l-2.2-6.11c-.09-.26-.34-.44-.62-.44-.83,0-2.26,0-4.29-.03-2.04,0-3.47-.03-4.3-.04-.28,0-.53.17-.63.43l-2.3,6.07c-.13.34-.46.56-.82.56l-2.16-.04c-.3,0-.5-.3-.4-.59l8.58-22.64c.13-.32.4-.56.74-.65.37-.09.85-.13,1.43-.13ZM244.59,251.45c1.07.01,2.16,0,3.26-.06.33,0,.56-.35.43-.66-1.22-3.02-2.31-6.11-3.28-9.28-.05-.14-.16-.21-.34-.21-.19,0-.3.07-.35.21-1.01,3.15-2.14,6.23-3.39,9.24-.13.31.09.65.42.67,1.1.05,2.19.08,3.25.09Z"/>
  <path class="st1" d="M261.65,242.77s-.04.09-.04.14v17.72c0,.33-.27.59-.6.59h-1.9c-.31,0-.57-.26-.57-.57v-22.82c0-.4.33-.73.73-.73h2.64c.29,0,.55.15.7.39l11.6,18.67c.14.22.48.12.48-.14v-18.24c0-.38.3-.68.68-.68h1.69c.39,0,.7.31.7.7v22.68c0,.31-.21.59-.51.67-1.91.51-3.3.05-4.19-1.36-4.3-6.85-7.81-12.44-10.52-16.77-.32-.52-.62-.6-.89-.25Z"/>
  <path class="st1" d="M303.92,256.64c.21,0,.41-.3.62-.88,2.1-6.04,4.14-12.06,6.13-18.05.12-.36.45-.6.82-.6h3.32c.38,0,.68.31.68.69v22.77c0,.38-.3.68-.67.68h-1.6c-.39,0-.7-.31-.7-.7v-18.46c0-.11-.08-.2-.19-.22-.11-.02-.21.05-.25.15l-6.34,18.77c-.07.21-.24.37-.46.44h-2.72c-.22-.07-.39-.23-.46-.44l-6.33-18.77c-.03-.11-.14-.17-.25-.15-.11.01-.19.11-.19.22v18.46c0,.38-.32.7-.71.7h-1.6c-.37,0-.67-.31-.67-.68v-22.77c0-.39.32-.69.69-.69h3.32c.37,0,.7.24.82.6,1.99,5.99,4.03,12.01,6.13,18.05.2.58.41.88.61.88Z"/>
  <path class="st1" d="M338.57,237.75v1.71c0,.33-.27.6-.6.6h-13.57c-.33,0-.6.27-.6.6v6.21c0,.33.27.6.6.6h12.38c.33,0,.6.27.6.6v1.49c0,.33-.27.6-.6.6h-12.37c-.33,0-.6.27-.6.6v7.13c0,.33.27.6.6.6h13.8c.33,0,.6.27.6.6v1.5c0,.33-.27.6-.6.6h-16.69c-.33,0-.6-.27-.6-.6v-22.84c0-.33.27-.6.6-.6h16.45c.33,0,.6.27.6.6Z"/>
  <path class="st2" d="M244.66,241.24c.18,0,.29.07.34.21.97,3.17,2.06,6.26,3.28,9.28.13.31-.1.65-.43.66-1.1.05-2.19.07-3.26.06-1.06,0-2.15-.04-3.25-.09-.33-.02-.55-.36-.42-.67,1.25-3.01,2.38-6.09,3.39-9.24.05-.14.16-.21.35-.21Z"/>
  <rect class="st1" x="178.93" y="284.42" width="170.56" height="5.32" rx=".49" ry=".49"/>
  <path class="st1" d="M350.09,485.3c0,2.17-1.76,3.93-3.93,3.93h-163.54c-2.17,0-3.93-1.76-3.93-3.93v-164.86c0-2.17,1.76-3.93,3.93-3.93h163.54c2.17,0,3.93,1.76,3.93,3.93v164.86ZM224.79,339.56c-.05-7.39-6.08-13.34-13.47-13.29l-10.34.07c-7.39.05-13.34,6.08-13.29,13.47l.07,10.34c.05,7.39,6.08,13.34,13.47,13.29l10.34-.07c7.39-.05,13.34-6.08,13.29-13.47l-.07-10.34ZM271.35,331.74h-12.66c-1.25,0-2.26,1.01-2.26,2.25v2.14c0,.31-.25.56-.56.56h-14.48c-.29,0-.53-.23-.53-.52v-3.74c0-.3.25-.55.55-.55h12c1.53,0,2.86-1.04,3.24-2.53l.15-.59c.31-1.24-.62-2.44-1.89-2.44h-12.07c-1.19,0-2.15.96-2.15,2.15v2.71c0,.3-.24.55-.54.55h-8.23c-.99,0-1.79.8-1.79,1.78v2.47c0,.52.43.95.95.95h3.19c.44,0,.8.36.8.8v3.85c0,.39.31.7.7.7h9.49c.3,0,.54.24.54.53v8.61c0,1.29,1.27,2.2,2.49,1.77l.56-.19c1.56-.55,2.61-2.03,2.61-3.68v-6.25c0-.51.45-.91.96-.86,3.64.39,4.5-1.02,4.17-4.38-.04-.47.33-.88.8-.88h3.32c.46,0,.84.38.84.84v3.41c0,.51.37.94.87,1.01,3.65.55,5.26-.92,4.83-4.39-.06-.49.32-.92.81-.92h2.24c1.17,0,2.12-.95,2.12-2.12v-1.97c0-.59-.48-1.07-1.07-1.07ZM282.35,330.95c.88-1,1.03-2.46.43-4.39-.01-.05-.05-.1-.09-.14-.02-.02-.06-.04-.12-.05-1.99-.35-3.42-.03-4.3.96-.88.99-1.02,2.45-.42,4.37,0,.06.05.11.09.15.02.02.06.04.12.05,1.99.35,3.42.03,4.29-.95ZM298.02,326.51l-3.12-.13c-.62-.03-1.14.45-1.17,1.07l-.31,7.55c-.04.98.65,1.79,1.55,1.83l2.1.09c.9.04,1.66-.72,1.7-1.69l.32-7.55c.03-.62-.45-1.14-1.07-1.17ZM341.2,339.66c.02-7.34-5.91-13.31-13.24-13.34l-10.48-.04c-7.34-.02-13.31,5.91-13.34,13.24l-.04,10.48c-.02,7.34,5.91,13.31,13.24,13.34l10.48.04c7.34.02,13.31-5.91,13.34-13.24l.04-10.48ZM276.94,342c-.13.02-.63.04-1.5.06-2.83.05-3.7,2.2-3.01,4.97.07.3.31.53.61.59,2.41.48,4.83-.39,4.87-2.97.02-1.09.04-1.68.05-1.78.03-.3.27-.52.57-.53l7.75-.1c1.14-.02,2.05-.94,2.05-2.07v-1.88c0-.92-.75-1.67-1.67-1.67-3.32.01-5.53.08-6.64.21-1.91.23-2.66,1.57-2.26,4.01.09.54-.28,1.06-.82,1.16ZM298.15,346.8c.93-.94,1.16-2.38.68-4.32,0-.06-.04-.11-.08-.16-.02-.02-.06-.03-.12-.05-1.95-.46-3.39-.23-4.32.71-.92.93-1.15,2.36-.67,4.31,0,.06.04.11.08.15.02.02.06.04.12.05,1.95.47,3.38.24,4.31-.69ZM239.29,347.37h-6.95c-1.27,0-2.3,1.03-2.3,2.3v2.03c0,.76.62,1.38,1.38,1.38h6.03c1.57,0,2.95-1.02,3.43-2.52l.22-.72c.39-1.22-.53-2.47-1.81-2.47ZM251.17,362.76c0,.25-.74.38-2.24.39-1.52.01-2.81,1.1-3.06,2.6l-.21,1.26c-.15.94.57,1.79,1.52,1.81.51,0,2.61-.03,6.3-.12,2.13-.06,2.99-.6,3.06-2.7.1-3.08.12-7.16.05-12.25,0-.38.32-.68.7-.65,1.51.13,2.75-.13,3.7-.8.3-.21.53-.52.63-.88.25-.89.3-2.04.15-3.43-.03-.32-.3-.56-.62-.58-2.85-.13-4.85-.16-4.8,3.36,0,.82,0,1.26-.01,1.33-.15.53-.67.87-1.22.78-2.87-.45-3.85.61-3.92,3.49-.05,1.88-.06,4.01-.03,6.39ZM271.43,363.01h-3.3c-.44,0-.79-.35-.79-.79v-3.45c0-.39-.3-.73-.69-.78-7.1-.94-5.01,5.77-5.26,9.85-.02.39-.36.68-.74.65-3.59-.32-4.72,1.59-4.27,4.9.05.35.35.62.71.62h14.41c.4,0,.73.33.73.73v8.96c0,.37.25.7.6.79,3.36.9,5-.68,5.19-4.04.02-.43.34-.78.76-.85l2.88-.48c.19-.03.36-.14.48-.3.73-1.02.99-2.52.77-4.51-.04-.33-.32-.58-.65-.58h-3.39c-.51,0-.92-.41-.92-.92v-3.39c0-.51-.41-.92-.92-.92h-3.49c-.46,0-.84-.38-.84-.84v-3.64c0-.36.3-.66.66-.65,1.8.02,3.92.24,4.41-2.14.23-1.11.31-1.87.26-2.28-.05-.36.23-.68.6-.68h3.1c.5,0,.9.4.9.89v3.2c0,.69.62,1.22,1.29,1.1l2.82-.46c.97-.16,1.69-1.01,1.69-2v-7.6c0-.32-.26-.58-.57-.58h-7.94c-1.28,0-2.32,1.04-2.32,2.33v1.78c0,.62-.54,1.1-1.16,1.03-3.09-.35-4.47,1.01-4.14,4.08.05.52-.35.97-.87.97ZM293.78,364.13c.1-.54.61-.91,1.15-.82,2.41.39,3.73-.36,3.96-2.25.12-1.09.19-3.28.18-6.56,0-.92-.74-1.65-1.66-1.65h-1.86c-1.11,0-2.02.92-2.04,2.04l-.07,7.66c0,.3-.23.54-.52.57-.1.01-.68.03-1.76.06-2.55.04-3.4,2.44-2.92,4.82.06.3.29.53.59.6,2.74.68,4.86-.19,4.9-2.99.02-.86.04-1.36.05-1.48ZM230.82,358.66c-.85.81-1.11,2.1-.81,3.87.04.2.11.36.22.48.11.11.26.19.47.23,1.75.39,3.05.18,3.9-.63.84-.81,1.11-2.1.8-3.87-.04-.2-.11-.36-.22-.48-.11-.11-.26-.19-.46-.23-1.76-.39-3.06-.17-3.9.63ZM241.46,358.63c-.86.81-1.13,2.11-.83,3.91.03.2.11.36.22.48.11.11.26.19.47.24,1.77.4,3.09.19,3.94-.62.86-.81,1.14-2.12.84-3.91-.04-.21-.11-.37-.22-.48-.11-.12-.27-.2-.47-.25-1.78-.39-3.09-.19-3.95.63ZM214.84,379.39c3.53.8,5.33-1.34,4.84-4.76-.04-.31.2-.59.51-.59h2.21c1.19,0,2.2-.86,2.39-2.03l.29-1.7c.15-.92-.56-1.76-1.49-1.76h-12.42c-1.07,0-1.98.77-2.15,1.82l-.38,2.27c-.11.68.41,1.29,1.1,1.29h3.53c.4,0,.72.32.72.72v3.89c0,.49-.43.87-.92.81-3.16-.41-4.68.7-4.34,4.38.04.36-.25.68-.62.68h-3.86c-.24,0-.44-.2-.44-.45v-14.56c0-.4-.3-.73-.7-.78-1.33-.15-2.54-.02-3.65.4-.37.14-.66.44-.78.82-.29.92-.4,1.97-.33,3.16.02.44-.32.8-.76.8h-6.8c-1.63,0-3.01,1.18-3.28,2.78l-.14.82c-.18,1.07.65,2.05,1.74,2.05h8.61c.35,0,.63.28.63.62v8.87c0,.39-.32.71-.71.7-1.51-.03-2.66.16-3.44.59-.32.18-.58.45-.74.78-.28.56-.38,1.65-.29,3.27.02.42-.31.77-.72.77h-2.16c-1.25,0-2.32.9-2.53,2.14l-.29,1.74c-.14.84.51,1.6,1.36,1.6h12.33c1.11,0,2.07-.8,2.25-1.9l.39-2.35c.12-.7-.42-1.33-1.13-1.33h-3.63c-.32,0-.58-.26-.58-.58v-3.94c0-.36.29-.65.65-.65h8.91c.36,0,.66.3.66.66v3.04c0,1.01.82,1.83,1.83,1.83h1.01c1.48,0,2.68-1.2,2.68-2.68v-12.74c0-.33.31-.58.64-.5ZM231,374.05h6.98c1.41,0,2.63-1,2.9-2.38l.15-.72c.3-1.35-.76-2.63-2.14-2.59-2.74.07-4.35.11-4.84.11-3.57,0-4.3,1.31-3.99,4.64.03.35-.24.64-.59.64h-2.77c-.32,0-.63.15-.84.4-1.02,1.23-1.42,2.65-1.19,4.25.07.51-.38.95-.89.86-3.31-.57-4.77.87-4.38,4.3.06.53.48.96,1.02,1.02.81.1,1.83,0,3.07-.34.4-.11.73-.38.9-.75.5-1.11.68-2.16.53-3.13-.09-.55.38-1.04.94-.97,3.9.47,4.41-1.68,4.49-4.71,0-.35.29-.63.65-.63ZM314.86,379.43l4.11-.03c.55,0,.99.43.99.98v3.29c0,.49-.45.86-.93.77-.61-.11-1.4-.07-2.36.12-1.04.22-1.78,1.13-1.78,2.19v2.42c0,.3-.25.54-.55.53-3.13-.14-5.11-.02-4.89,4.45.02.41-.31.76-.73.76h-2.12c-.96,0-1.82.6-2.16,1.51-.38,1.03-.55,2.12-.5,3.25.02.46.37.84.83.88,3.64.31,5.26-1.23,4.87-4.64-.05-.42.28-.79.7-.79h3.79c.38,0,.69.31.69.69v3.67c0,.7.62,1.23,1.3,1.11l1.87-.31c1.15-.19,2-1.19,2-2.36v-7.47c0-.48.43-.85.91-.78,3.23.48,4.74-.64,4.52-3.35-.08-.9-.08-2.9,0-6.01.01-.51.45-.92.97-.89,3.09.17,4.3-.87,4.21-3.56-.02-.63,0-1.08.03-1.33.05-.31.32-.53.63-.52,3.44.09,5.68-.75,4.87-4.89-.06-.31-.32-.53-.63-.55-3.48-.19-5.6.47-5.09,4.54.05.37-.24.69-.61.69h-9.07c-.34,0-.61-.27-.61-.6v-3.92c0-.34-.25-.62-.58-.67-1.48-.19-2.56-.15-3.24.12-.34.13-.66.31-.95.54-.33.26-.52,1.25-.59,2.97-.09,2.43-.06,4.83.09,7.19l-4.41-.13c-.43,0-.78-.37-.78-.8v-4.06c0-.32-.24-.58-.55-.61-1.72-.17-2.96-.09-3.72.22-.34.14-.62.4-.79.74-.62,1.25-.83,2.45-.63,3.61.07.44-.27.84-.72.84h-3.67c-.33,0-.59-.26-.59-.59v-4.12c0-.37.34-.65.7-.58,3.98.77,4.82-1.32,4.51-4.82-.03-.33-.3-.58-.63-.58h-7.43c-.17,0-.35.02-.52.07-1.91.54-2.59,1.88-2.06,4.03.14.57-.29,1.11-.87,1.11h-2.65c-.26,0-.5.1-.68.29-1.05,1.11-1.46,2.7-1.24,4.75.04.36.35.64.71.64h3.69c.54,0,.98.43.98.97v3.69c0,.27.21.48.48.48,5.88-.07,11.64-.08,17.29-.03,3.04.03,4.23-1.68,3.58-5.12ZM236.09,400.57c1.15.2,3.46.19,6.91-.03,3.18-.2,2.99-2.43,3.26-4.69.03-.3.28-.54.59-.56,2.18-.13,3.95.1,4.52-2.63.01-.05.01-.09.01-.14l.11-7.25c0-.34.26-.62.6-.65l2.95-.23c.41-.04.77-.27.97-.63.55-.99.71-2.28.48-3.88-.05-.33-.31-.59-.64-.63-1.67-.21-2.9-.07-3.71.42-.4.24-.66.65-.72,1.1l-.38,2.98c-.04.31-.3.54-.6.54h-3.42c-.46,0-.83-.38-.83-.84v-3.24c0-.49.44-.86.92-.78.62.1,1.32.07,2.11-.09.35-.07.68-.24.94-.49,1.13-1.08,1.54-2.55,1.23-4.41-.05-.27-.26-.49-.53-.56-2.29-.58-3.88-.07-4.77,1.53-.18.32-.27.68-.27,1.04v1.91c0,.56-.51.98-1.06.88-2.8-.55-4.25.43-4.17,3.64.02.68.02,2.61,0,5.79,0,.54-.47.96-1.01.91-2.24-.2-3.74.59-4.51,2.38-.05.11-.07.22-.07.34v7.39c0,.35-.28.64-.63.64h-12.74c-1.15,0-2.08.93-2.08,2.08v2.46c0,.56.46,1.02,1.02,1.02h3.44c.38,0,.68.3.68.68v3.53c0,.4-.37.7-.76.62-1.43-.31-2.77.08-4.04,1.16-.25.22-.4.53-.4.87v2.65c0,.31.2.58.5.68,2.95.93,4.56.13,4.84-2.39.1-.88.14-1.61.12-2.2,0-.33.25-.6.58-.6h7.73c1.14,0,2.06-.92,2.06-2.06v-7.61c0-.41.37-.72.77-.65ZM235.51,380.94c.02-.94-.72-1.72-1.67-1.75l-2.04-.05c-.94-.02-1.72.72-1.75,1.67l-.17,7.32c-.02.94.72,1.72,1.67,1.75l2.04.05c.94.02,1.72-.72,1.75-1.67l.17-7.32ZM340.44,389.14c.41-.39.63-.77.66-1.13.22-2.4.31-4.86.28-7.38-.01-.95-.86-1.68-1.8-1.54l-1.69.25c-.91.14-1.62.84-1.77,1.74-.09.58-.16,1.62-.2,3.14,0,.01-.03.06-.08.11-.01.02-.02.03-.04.04,0,.02-.03.03-.04.05-.06.04-.11.07-.12.07-1.51,0-2.56.02-3.14.09-.9.12-1.63.8-1.8,1.7l-.31,1.68c-.18.94.52,1.82,1.47,1.86,2.52.12,4.98.11,7.38-.02.36-.02.76-.24,1.2-.66ZM188.62,385.11c-.97.89-1.27,2.32-.89,4.29.01.06.03.1.05.12.04.05.09.08.14.09,1.93.57,3.38.41,4.35-.47.99-.89,1.29-2.33.91-4.3,0-.06-.03-.1-.05-.12-.04-.05-.09-.08-.14-.1-1.93-.56-3.39-.4-4.37.49ZM257.18,385.11c-.41.41-.63.8-.66,1.17-.18,2.45-.24,4.95-.17,7.52.02.97.9,1.7,1.86,1.54l1.72-.28c.92-.16,1.63-.88,1.77-1.8.09-.59.14-1.65.16-3.2,0-.01.03-.06.08-.11.01-.02.02-.03.04-.05,0,0,.03-.03.04-.04.06-.05.11-.08.12-.08,1.55-.01,2.61-.06,3.2-.14.92-.13,1.65-.84,1.81-1.76l.29-1.72c.17-.96-.56-1.84-1.53-1.87-2.57-.08-5.07-.03-7.52.13-.37.03-.77.26-1.21.69ZM282.83,452.77v-19.61c0-.84-.76-1.48-1.59-1.34l-1.41.23c-1.24.21-2.15,1.28-2.15,2.54v12.78c0,.3-.24.55-.54.56-2.85.14-4.91.14-6.17,0-3-.34-4.28,1.1-3.84,4.31.07.54-.35,1.03-.9,1.03h-7.71c-.82,0-1.54.53-1.79,1.3-.36,1.12-.45,2.16-.27,3.11.06.37-.21.7-.58.7h-3.72c-.41,0-.75-.34-.75-.75v-3.42c0-.53.48-.93,1-.85,3.89.65,3.97-1.62,4.19-4.59.03-.35.32-.63.67-.64,2.95-.07,4.78-.08,5.47-.03,3.45.28,4.96-1.3,4.52-4.74-.05-.37.24-.7.61-.7h2.46c.89,0,1.66-.64,1.8-1.52l.42-2.57c.12-.68-.41-1.3-1.1-1.3h-3.75c-.25,0-.45-.2-.45-.45v-3.75c0-.78-.7-1.37-1.47-1.24l-2.14.35c-1.18.2-2.04,1.21-2.04,2.4l-.02,7.22c0,.37-.27.68-.63.73-1.06.15-2.38-.21-3.55.54-.81.53-1.14,1.89-.98,4.1.03.38-.27.71-.65.71h-23.45c-1.26,0-2.28,1.02-2.28,2.27v7.69c0,.4.33.73.73.73h3.46c.44,0,.8.36.8.8v3.46c0,.39-.3.71-.69.73-3.16.22-4.69.58-4.26,4.72.05.48.45.84.93.84h3.21c.43,0,.77.34.77.77v9.26c0,.37.3.67.67.66,8.5-.1,17.49-.13,26.98-.1,3.73.02,5.12-.84,4.7-4.86-.02-.16.11-.31.28-.3l4.45.07c.17,0,.3.14.3.31v4.03c0,.42.35.77.77.76,4.81-.04,15.61-.05,32.42-.02,3.51,0,4.28-1.21,4.06-4.47-.03-.37.3-.67.67-.62,3.18.47,4.78-1.05,4.81-4.57,0-.64-.52-1.17-1.16-1.17h-7.24c-.29,0-.58.06-.84.18-2,.88-1.85,2.89-1.81,4.91.01.31-.25.56-.56.56h-4.03c-.29,0-.53-.24-.53-.53v-4.33c0-.31-.22-.58-.52-.64-1.75-.36-3.21-.04-4.38.97-.3.26-.47.64-.47,1.04v2.91c0,.32-.26.58-.58.58h-14.54c-.37,0-.67-.3-.67-.67v-4.41c0-.31-.25-.56-.56-.55-3.27.08-5.42.09-6.45.03-3.44-.19-4.08,2.17-3.56,4.94.06.32-.18.62-.51.62h-14.7c-.33,0-.6-.27-.6-.6v-4.24c0-.35-.25-.65-.6-.71-2.44-.44-4.05.24-4.82,2.05-.09.22-.14.45-.14.68v2.09c0,.36-.3.65-.66.65h-3.24c-.55,0-.99-.45-.99-1v-3.3c0-.58.49-1.04,1.06-1,4.4.31,3.72-1.68,4.17-4.55.06-.38.39-.66.77-.67.17-.01,2.12-.02,5.87-.03,3.48-.02,3.8-1.1,3.72-4.44-.02-.53.41-.96.94-.95,3.47.08,9.59,1.15,9.82-2.56.07-1.07.06-1.68-.02-1.83-.15-.31.07-.67.41-.67l4.26-.08c.27-.01.49.22.49.49v4.01c0,.35.29.64.64.64h9.16c.29,0,.52.23.52.52v8.82c0,.95.85,1.67,1.78,1.51l1.59-.26c1.26-.21,2.18-1.3,2.18-2.58v-2.16c0-.31.25-.56.56-.55,2.4.05,4.62.08,6.67.08,3.18.01,3.8-2.26,3.33-4.8-.06-.28.17-.55.46-.55h9.34c.46,0,.84.38.84.84v3.95c0,.34.28.61.62.6,1.55-.07,2.4-.12,2.55-.14,2.17-.28,2.5-2.79,2.16-4.56-.09-.48.33-.9.81-.8,3.37.71,4.96-1.26,4.25-4.46-.07-.31.16-.6.48-.61l2.89-.07c.93-.02,1.72-.71,1.87-1.63l.36-2.14c.13-.77-.47-1.47-1.25-1.47h-3.71c-.27,0-.49-.22-.49-.49v-19.9c0-.34-.28-.62-.62-.62h-9.1c-.36,0-.65-.29-.65-.64v-4.21c0-.39-.32-.71-.71-.71h-4.17c-.34,0-.61-.27-.61-.61v-9.46c0-.28.23-.51.51-.51h4.31c.27,0,.48.21.48.48v4.31c0,.36.3.66.66.66h7.73c.91,0,1.69-.66,1.84-1.56l.47-2.82c.1-.6-.36-1.14-.96-1.14h-3.78c-.3,0-.54-.24-.54-.53v-3.85c0-.38-.31-.69-.69-.69h-14.68c-.3,0-.54-.24-.54-.54v-14.5c0-.68-.6-1.19-1.27-1.08l-2.6.43c-.93.16-1.62.96-1.62,1.91v2.12c0,.47-.38.86-.85.86h-3.26c-.55,0-1-.45-1-1v-3.67c0-.33-.26-.6-.59-.6h-4.14c-.39,0-.7-.31-.7-.7v-3.88c0-.33-.23-.61-.55-.67-1.83-.35-3.33.05-4.49,1.18-.17.17-.27.4-.27.64v2.46c0,.51-.42.92-.93.9-2.77-.09-4.21.85-4.31,2.81-.07,1.36-.1,2.05-.1,2.08-.09.42-.51.69-.93.6-3.97-.86-4.61,1.59-4.46,4.61.02.4-.32.72-.71.69-2.41-.2-3.93.42-4.54,1.87-.06.14-.09.29-.09.44v7.3c0,.45-.39.81-.84.78-3.23-.25-4.68,1.26-4.35,4.51.05.47-.31.87-.78.87h-9.02c-.27,0-.49-.22-.49-.49v-9.2c0-.34.28-.62.63-.62h7.26c1.46,0,2.64-1.18,2.64-2.63v-.94c0-1.09-.89-1.97-1.98-1.97-2.23,0-4.28.05-6.17.18-3.15.2-2.51,2.37-2.67,4.53-.03.42-.41.73-.83.68-2.41-.29-3.83.29-4.24,1.75-.02.05-.03.11-.03.17l-.05,8.14c0,.22-.18.4-.4.4-3.95.01-7.68,0-11.18-.01-3.46,0-4.77,1.1-4.3,4.49.05.41-.26.77-.67.77h-18.3c-.36,0-.71.14-.97.38-1.07.99-1.44,2.45-1.13,4.4.07.43-.27.82-.71.82h-8.04c-1.01,0-1.82.82-1.82,1.83v2.26c0,.58.47,1.05,1.05,1.05h3.61c.31,0,.57.26.57.58v3.59c0,.72.65,1.27,1.36,1.15l2.22-.37c1.04-.17,1.81-1.08,1.81-2.14v-7.16c0-.35.28-.63.63-.63h8.9c.37,0,.67.3.67.68v3.44c0,.41-.35.73-.76.69-3.47-.33-4.92,1.31-4.37,4.91.03.24.23.42.47.43,3.79.25,8.12.24,12.98-.01,2.19-.11,3.03-1.52,2.52-4.21-.09-.46.25-.88.72-.9,2.87-.12,6.72-.11,11.55.03,3.01.09,4.26-1.52,3.75-4.81-.02-.13.07-.24.2-.24h4.41c.22,0,.4.18.4.4v9.04c0,.36-.3.66-.66.66h-2.15c-1.34,0-2.42,1.08-2.42,2.42v1.57c0,.8.64,1.45,1.44,1.45h7.18c.35,0,.69-.14.94-.39,1.93-1.95,1.18-7.54,1.26-9.39.02-.5.48-.87.97-.79,1.77.29,4.15-.09,4.15-2.33-.01-.71,0-1.38.06-2.01.03-.36.32-.65.68-.68.81-.06,1.7.23,2.48-.12,1.76-.79,2.4-2.4,1.91-4.85-.07-.36-.36-.64-.72-.69-1.27-.2-2.34-.1-3.2.29-.35.16-.64.44-.82.78-.53.97-.7,2.22-.53,3.73.04.36-.23.67-.59.67h-3.47c-.48,0-.87-.39-.87-.88v-3.41c0-.54.44-.97.98-.96,3.47.06,4.21-.75,4.15-4.61-.01-.37.3-.68.67-.68h9.08c.4,0,.73.33.73.73v3.64c0,.37.27.68.63.74,3.76.56,4.8-.65,4.77-4.27-.02-3.07,0-4.95.06-5.65.03-.37.35-.66.72-.66h2.48c.35,0,.68-.15.92-.42,1.01-1.17,1.4-2.45,1.18-3.84-.08-.52-.51-.93-1.04-.98-3.13-.33-4.6.73-4.41,3.17.05.74.06,1.22.03,1.43-.04.26-.26.45-.52.45h-4.12c-.29,0-.53-.24-.53-.53v-8.93c0-.39.31-.7.7-.7h19.75c.27,0,.49.21.49.48v4.22c0,.3.25.55.55.55h4.28c.29,0,.53.24.53.54v9.36c0,.28-.23.51-.51.51h-4.23c-.25,0-.45-.21-.45-.46v-4.27c0-.38-.3-.7-.69-.72-.28-.02-1.86-.05-4.74-.08-3.97-.05-5.86.77-5.24,5,.05.34.34.6.69.6h3.84c.27,0,.49.22.49.49v4.17c0,.33-.28.59-.6.57-1.16-.06-2.49-.09-4-.1-2.95-.02-5.52-.55-5.68,2.79-.11,2.26-.14,4.34-.11,6.23.02,1.15,1.06,2.01,2.19,1.83l.94-.16c1.34-.23,2.33-1.39,2.33-2.75v-1.67c0-.32.26-.58.59-.58h14.77c.25,0,.45.2.45.45v25.05c0,.4-.32.72-.72.72h-9.51c-.29,0-.53-.24-.53-.54ZM213.84,400.31l-8.01.11c-.97,0-1.79.71-1.95,1.67l-.36,2.17c-.14.83.5,1.58,1.34,1.58h3.06c.44,0,.79.35.79.79v3.23c0,.46-.39.83-.85.8-3.17-.19-4.58,1.42-4.23,4.82.04.35-.24.66-.6.66h-9.11c-.33,0-.6-.27-.6-.6v-8.75c0-.78-.7-1.38-1.47-1.25l-2.15.36c-1.22.2-2.11,1.26-2.11,2.49v12.58c0,.33.27.6.6.6h13.06c.79,0,1.52-.41,1.93-1.09.57-.96.79-2.17.65-3.63-.03-.34.25-.62.59-.58,2.07.23,4.55.24,7.44.04,1.59-.11,2.38-1.05,2.36-2.82-.05-4.59-.03-8.73.08-12.43,0-.35.32-.6.67-.55,1.89.31,3.38-.2,4.46-1.54.15-.19.24-.42.26-.67l.16-2.39c.03-.53.54-.91,1.06-.79,2.79.64,4.15-.81,4.1-4.34,0-.6-.45-1.1-1.04-1.18-2.57-.37-5.01.69-4.5,4.05.08.57-.29,1.12-.85,1.24-.08.02-.45,0-1.1-.05-2.02-.16-3.3,1.17-3.51,3.17-.13,1.24-.14,1.91-.05,2.01.1.11.03.29-.12.29ZM325.15,400.22c-.17.17-.27.25-.3.24-3.28-.57-4.92.58-4.93,3.45,0,.93.1,1.49.29,1.68s.75.28,1.68.26c2.88-.07,4-1.73,3.35-5,0-.03.08-.13.24-.3.17-.17.27-.25.3-.24,3.28.57,4.92-.58,4.93-3.45,0-.93-.1-1.49-.29-1.68-.2-.19-.76-.28-1.69-.26-2.87.07-3.99,1.73-3.35,5,.01.03-.07.13-.23.3ZM330.09,405.73h-2.83c-1.05,0-1.9.85-1.9,1.9v2.39c0,.47.38.85.84.85h4.01c.15,0,.27.12.27.26v4.79c0,.17-.14.31-.31.3-1.78-.03-3.71-.04-5.8-.03-2.17.01-3.78-.21-4.32,2.44-.19.95-.23,3.56-.1,7.83,0,.36.3.64.65.64h4.15c.32,0,.58.26.58.57v14.06c0,.48.39.87.87.87h2.66c.92,0,1.66-.75,1.66-1.67v-3.15c0-.25.21-.46.46-.46h4.71c.23,0,.42.19.42.43v4.15c0,.36-.3.66-.66.66h-2c-1.65,0-2.98,1.33-2.98,2.97v7.08c0,.35.26.66.61.73,2.22.41,3.82-.2,4.8-1.84.64-1.06.04-2.29.3-3.11.1-.31.43-.5.76-.43,1.71.37,3.03-.04,3.96-1.22.23-.29.36-.65.36-1.03v-18.13c0-.34-.28-.61-.62-.61h-3.73c-.41,0-.74-.33-.74-.74v-3.86c0-.55.5-.97,1.04-.87.85.15,1.61.11,2.28-.12,1.02-.35,1.7-1.3,1.72-2.38l.12-7.66c0-.32-.26-.58-.58-.58h-3.96c-.34,0-.62-.28-.62-.62v-3.86c0-.3.24-.54.54-.54h2.05c1.38,0,2.49-1.11,2.49-2.49v-7.59c0-.37-.27-.68-.64-.73-1.07-.14-2.16-.05-3.29.27-.35.1-.64.34-.8.67-.5,1.05-.62,2.38-.35,3.99.04.29-.14.57-.43.63-.88.19-2.21-.35-3.44.15-1.73.69-2.27,2.14-1.64,4.34.11.38-.18.75-.57.75ZM234.77,441.89c.8-.86.99-2.18.57-3.94-.04-.2-.12-.35-.24-.46-.12-.11-.28-.18-.48-.21-1.79-.28-3.09.01-3.88.87-.8.86-1,2.17-.58,3.93.05.2.13.36.24.47.12.11.28.18.49.21,1.79.28,3.08-.01,3.88-.87ZM224.92,456.28c.06-7.53-6.01-13.68-13.54-13.73l-9.96-.07c-7.53-.06-13.68,6.01-13.73,13.54l-.07,9.96c-.06,7.53,6.01,13.68,13.54,13.73l9.96.07c7.53.06,13.68-6.01,13.73-13.54l.07-9.96ZM341.3,454.67c0-.74-.58-1.36-1.33-1.37l-2.48-.04c-.74-.01-1.36.58-1.37,1.33l-.12,7.86c0,.74.58,1.36,1.33,1.37l2.48.04c.74.01,1.36-.58,1.37-1.33l.12-7.86ZM325.99,459.28c-.89.97-1.07,2.42-.53,4.34.02.06.05.11.09.15.02.02.06.04.12.05,1.96.39,3.39.11,4.29-.86.89-.96,1.06-2.4.52-4.33-.02-.05-.05-.1-.09-.14-.02-.02-.06-.04-.12-.05-1.96-.4-3.39-.12-4.28.84ZM271.68,463.02c.91-.93,1.13-2.36.65-4.27-.02-.06-.04-.11-.09-.15-.02-.02-.06-.04-.11-.05-1.93-.45-3.35-.21-4.26.72-.91.92-1.12,2.34-.64,4.26.02.06.05.11.09.15.02.02.06.04.11.05,1.93.45,3.35.21,4.25-.71ZM261.06,468.37c.82-.84,1.04-2.14.67-3.9-.04-.2-.12-.36-.24-.47-.11-.11-.27-.18-.47-.22-1.77-.32-3.06-.06-3.88.77-.81.84-1.03,2.14-.66,3.9.04.2.12.36.23.47.12.11.27.18.48.22,1.77.32,3.06.06,3.87-.77ZM299.69,464.49c-.92.91-1.16,2.33-.71,4.25,0,.05.04.1.08.15.02.02.06.03.12.05,1.91.47,3.33.25,4.25-.66.92-.9,1.15-2.31.7-4.23-.01-.06-.04-.11-.08-.15-.02-.02-.06-.04-.12-.05-1.91-.48-3.32-.26-4.24.64ZM325.91,479.72c3.18.02,5.55.01,7.12-.03,2.36-.07,3.4-1.49,3.13-4.26-.05-.49.36-.9.85-.85,3.6.38,4.72-1.81,4.24-5.06-.05-.37-.37-.65-.75-.65h-18.03c-.94,0-1.76.63-2,1.54l-.75,2.79c-.19.73.35,1.44,1.1,1.44h3.68c.43,0,.78.35.78.78v3.67c0,.35.28.63.63.63Z"/>
  <path class="st2" d="M224.87,349.9c.05,7.39-5.9,13.42-13.29,13.47l-10.34.07c-7.39.05-13.42-5.9-13.47-13.29l-.07-10.34c-.05-7.39,5.9-13.42,13.29-13.47l10.34-.07c7.39-.05,13.42,5.9,13.47,13.29l.07,10.34ZM219.48,339.62c.01-4.31-3.46-7.81-7.76-7.82l-10.64-.04c-4.31-.01-7.81,3.46-7.82,7.76l-.04,10.64c-.01,4.31,3.46,7.81,7.76,7.82l10.64.04c4.31.01,7.81-3.46,7.82-7.76l.04-10.64Z"/>
  <path class="st2" d="M271.35,331.74c.59,0,1.07.48,1.07,1.07v1.97c0,1.17-.95,2.12-2.12,2.12h-2.24c-.49,0-.87.43-.81.92.43,3.47-1.18,4.94-4.83,4.39-.5-.07-.87-.5-.87-1.01v-3.41c0-.46-.38-.84-.84-.84h-3.32c-.47,0-.84.41-.8.88.33,3.36-.53,4.77-4.17,4.38-.51-.05-.96.35-.96.86v6.25c0,1.65-1.05,3.13-2.61,3.68l-.56.19c-1.22.43-2.49-.48-2.49-1.77v-8.61c0-.29-.24-.53-.54-.53h-9.49c-.39,0-.7-.31-.7-.7v-3.85c0-.44-.36-.8-.8-.8h-3.19c-.52,0-.95-.43-.95-.95v-2.47c0-.98.8-1.78,1.79-1.78h8.23c.3,0,.54-.25.54-.55v-2.71c0-1.19.96-2.15,2.15-2.15h12.07c1.27,0,2.2,1.2,1.89,2.44l-.15.59c-.38,1.49-1.71,2.53-3.24,2.53h-12c-.3,0-.55.25-.55.55v3.74c0,.29.24.52.53.52h14.48c.31,0,.56-.25.56-.56v-2.14c0-1.24,1.01-2.25,2.26-2.25h12.66Z"/>
  <path class="st2" d="M282.35,330.95c-.87.98-2.3,1.3-4.29.95-.06,0-.1-.03-.12-.05-.04-.04-.08-.09-.09-.15-.6-1.92-.46-3.38.42-4.37.88-.99,2.31-1.31,4.3-.96.06.01.1.03.12.05.04.04.08.09.09.14.6,1.93.45,3.39-.43,4.39Z"/>
  <path class="st2" d="M298.02,326.51c.62.03,1.1.55,1.07,1.17l-.32,7.55c-.04.97-.8,1.73-1.7,1.69l-2.1-.09c-.9-.04-1.59-.85-1.55-1.83l.31-7.55c.03-.62.55-1.1,1.17-1.07l3.12.13Z"/>
  <path class="st2" d="M341.16,350.14c-.02,7.34-5.99,13.27-13.34,13.24l-10.48-.04c-7.34-.02-13.27-5.99-13.24-13.34l.04-10.48c.02-7.34,5.99-13.27,13.34-13.24l10.48.04c7.34.02,13.27,5.99,13.24,13.34l-.04,10.48ZM335.96,339.67c-.01-4.4-3.58-7.96-7.97-7.95l-10.44.02c-4.4.01-7.96,3.58-7.95,7.97l.02,10.44c.01,4.4,3.58,7.96,7.97,7.95l10.44-.02c4.4-.01,7.96-3.58,7.95-7.97l-.02-10.44Z"/>
  <path class="st1" d="M219.44,350.26c-.01,4.3-3.51,7.77-7.82,7.76l-10.64-.04c-4.3-.01-7.77-3.51-7.76-7.82l.04-10.64c.01-4.3,3.51-7.77,7.82-7.76l10.64.04c4.3.01,7.77,3.51,7.76,7.82l-.04,10.64ZM214.24,344.87c0-4.39-3.56-7.95-7.95-7.95s-7.95,3.56-7.95,7.95,3.56,7.95,7.95,7.95,7.95-3.56,7.95-7.95Z"/>
  <path class="st1" d="M335.98,350.11c.01,4.39-3.55,7.96-7.95,7.97l-10.44.02c-4.39.01-7.96-3.55-7.97-7.95l-.02-10.44c-.01-4.39,3.55-7.96,7.95-7.97l10.44-.02c4.39-.01,7.96,3.55,7.97,7.95l.02,10.44ZM330.64,344.86c0-4.4-3.56-7.96-7.96-7.96s-7.96,3.56-7.96,7.96,3.56,7.96,7.96,7.96,7.96-3.56,7.96-7.96Z"/>
  <circle class="st2" cx="206.29" cy="344.87" r="7.95"/>
  <path class="st2" d="M276.94,342c.54-.1.91-.62.82-1.16-.4-2.44.35-3.78,2.26-4.01,1.11-.13,3.32-.2,6.64-.21.92,0,1.67.75,1.67,1.67v1.88c0,1.13-.91,2.05-2.05,2.07l-7.75.1c-.3.01-.54.23-.57.53,0,.1-.03.69-.05,1.78-.04,2.58-2.46,3.45-4.87,2.97-.3-.06-.54-.29-.61-.59-.69-2.77.18-4.92,3.01-4.97.87-.02,1.37-.04,1.5-.06Z"/>
  <circle class="st2" cx="322.68" cy="344.86" r="7.96"/>
  <path class="st2" d="M298.15,346.8c-.93.93-2.36,1.16-4.31.69-.06,0-.1-.03-.12-.05-.04-.04-.07-.09-.08-.15-.48-1.95-.25-3.38.67-4.31.93-.94,2.37-1.17,4.32-.71.06.02.1.03.12.05.04.05.07.1.08.16.48,1.94.25,3.38-.68,4.32Z"/>
  <path class="st2" d="M239.29,347.37c1.28,0,2.2,1.25,1.81,2.47l-.22.72c-.48,1.5-1.86,2.52-3.43,2.52h-6.03c-.76,0-1.38-.62-1.38-1.38v-2.03c0-1.27,1.03-2.3,2.3-2.3h6.95Z"/>
  <path class="st2" d="M251.17,362.76c-.03-2.38-.02-4.51.03-6.39.07-2.88,1.05-3.94,3.92-3.49.55.09,1.07-.25,1.22-.78.02-.07.02-.51.01-1.33-.05-3.52,1.95-3.49,4.8-3.36.32.02.59.26.62.58.15,1.39.1,2.54-.15,3.43-.1.36-.33.67-.63.88-.95.67-2.19.93-3.7.8-.38-.03-.7.27-.7.65.07,5.09.05,9.17-.05,12.25-.07,2.1-.93,2.64-3.06,2.7-3.69.09-5.79.13-6.3.12-.95-.02-1.67-.87-1.52-1.81l.21-1.26c.25-1.5,1.54-2.59,3.06-2.6,1.5,0,2.25-.14,2.24-.39Z"/>
  <path class="st2" d="M271.43,363.01c.52,0,.92-.45.87-.97-.33-3.07,1.05-4.43,4.14-4.08.62.07,1.16-.41,1.16-1.03v-1.78c0-1.29,1.04-2.33,2.32-2.33h7.94c.31,0,.57.26.57.58v7.6c0,.99-.72,1.84-1.69,2l-2.82.46c-.67.12-1.29-.41-1.29-1.1v-3.2c0-.49-.4-.89-.9-.89h-3.1c-.37,0-.65.32-.6.68.05.41-.03,1.17-.26,2.28-.49,2.38-2.61,2.16-4.41,2.14-.36-.01-.66.29-.66.65v3.64c0,.46.38.84.84.84h3.49c.51,0,.92.41.92.92v3.39c0,.51.41.92.92.92h3.39c.33,0,.61.25.65.58.22,1.99-.04,3.49-.77,4.51-.12.16-.29.27-.48.3l-2.88.48c-.42.07-.74.42-.76.85-.19,3.36-1.83,4.94-5.19,4.04-.35-.09-.6-.42-.6-.79v-8.96c0-.4-.33-.73-.73-.73h-14.41c-.36,0-.66-.27-.71-.62-.45-3.31.68-5.22,4.27-4.9.38.03.72-.26.74-.65.25-4.08-1.84-10.79,5.26-9.85.39.05.69.39.69.78v3.45c0,.44.35.79.79.79h3.3Z"/>
  <path class="st2" d="M293.78,364.13c-.01.12-.03.62-.05,1.48-.04,2.8-2.16,3.67-4.9,2.99-.3-.07-.53-.3-.59-.6-.48-2.38.37-4.78,2.92-4.82,1.08-.03,1.66-.05,1.76-.06.29-.03.52-.27.52-.57l.07-7.66c.02-1.12.93-2.03,2.04-2.03h1.86c.92,0,1.66.72,1.66,1.64,0,3.28-.06,5.47-.18,6.56-.23,1.89-1.55,2.64-3.96,2.25-.54-.09-1.05.28-1.15.82Z"/>
  <path class="st2" d="M230.82,358.66c.84-.8,2.14-1.02,3.9-.63.2.04.35.12.46.23.11.12.18.28.22.48.31,1.77.04,3.06-.8,3.87-.85.81-2.15,1.02-3.9.63-.21-.04-.36-.12-.47-.23-.11-.12-.18-.28-.22-.48-.3-1.77-.04-3.06.81-3.87Z"/>
  <path class="st2" d="M245.88,358.25c.11.11.18.27.22.48.3,1.79.02,3.1-.84,3.91-.85.81-2.17,1.02-3.94.62-.21-.05-.36-.13-.47-.24-.11-.12-.19-.28-.22-.48-.3-1.8-.03-3.1.83-3.91.86-.82,2.17-1.02,3.95-.63.2.05.36.13.47.25Z"/>
  <path class="st2" d="M214.84,379.39c-.33-.08-.64.17-.64.5v12.74c0,1.48-1.2,2.68-2.68,2.68h-1.01c-1.01,0-1.83-.82-1.83-1.83v-3.04c0-.36-.3-.66-.66-.66h-8.91c-.36,0-.65.29-.65.65v3.94c0,.32.26.58.58.58h3.63c.71,0,1.25.63,1.13,1.33l-.39,2.35c-.18,1.1-1.14,1.9-2.25,1.9h-12.33c-.85,0-1.5-.76-1.36-1.6l.29-1.74c.21-1.24,1.28-2.14,2.53-2.14h2.16c.41,0,.74-.35.72-.77-.09-1.62,0-2.71.29-3.27.16-.33.42-.6.74-.78.78-.43,1.93-.62,3.44-.59.39,0,.71-.31.71-.7v-8.87c0-.34-.28-.62-.63-.62h-8.61c-1.09,0-1.92-.98-1.74-2.05l.14-.82c.27-1.6,1.65-2.78,3.28-2.78h6.8c.44,0,.78-.36.76-.8-.07-1.19.04-2.24.33-3.16.12-.38.41-.68.78-.82,1.11-.42,2.32-.55,3.65-.4.4.05.7.38.7.78v14.56c0,.25.2.45.44.45h3.86c.37,0,.66-.32.62-.68-.34-3.68,1.18-4.79,4.34-4.38.49.06.92-.32.92-.81v-3.89c0-.4-.32-.72-.72-.72h-3.53c-.69,0-1.21-.61-1.1-1.29l.38-2.27c.17-1.05,1.08-1.82,2.15-1.82h12.42c.93,0,1.64.84,1.49,1.76l-.29,1.7c-.19,1.17-1.2,2.03-2.39,2.03h-2.21c-.31,0-.55.28-.51.59.49,3.42-1.31,5.56-4.84,4.76Z"/>
  <path class="st2" d="M230.35,374.68c-.08,3.03-.59,5.18-4.49,4.71-.56-.07-1.03.42-.94.97.15.97-.03,2.02-.53,3.13-.17.37-.5.64-.9.75-1.24.33-2.26.44-3.07.34-.54-.06-.96-.49-1.02-1.02-.39-3.43,1.07-4.87,4.38-4.3.51.09.96-.35.89-.86-.23-1.6.17-3.02,1.19-4.25.21-.25.52-.4.84-.4h2.77c.35,0,.62-.29.59-.64-.31-3.33.42-4.64,3.99-4.64.49,0,2.1-.04,4.84-.11,1.38-.04,2.44,1.24,2.14,2.59l-.15.72c-.27,1.38-1.49,2.38-2.9,2.38h-6.98c-.36,0-.64.28-.65.63Z"/>
  <path class="st2" d="M314.86,379.43c.65,3.44-.54,5.15-3.58,5.12-5.65-.05-11.41-.04-17.29.03-.27,0-.48-.21-.48-.48v-3.69c0-.54-.44-.97-.98-.97h-3.69c-.36,0-.67-.28-.71-.64-.22-2.05.19-3.64,1.24-4.75.18-.19.42-.29.68-.29h2.65c.58,0,1.01-.54.87-1.11-.53-2.15.15-3.49,2.06-4.03.17-.05.35-.07.52-.07h7.43c.33,0,.6.25.63.58.31,3.5-.53,5.59-4.51,4.82-.36-.07-.7.21-.7.58v4.12c0,.33.26.59.59.59h3.67c.45,0,.79-.4.72-.84-.2-1.16,0-2.36.63-3.61.17-.34.45-.6.79-.74.76-.31,2-.39,3.72-.22.31.03.55.29.55.61v4.06c0,.43.35.79.78.8l4.41.13Z"/>
  <path class="st2" d="M314.86,379.43c-.15-2.36-.18-4.76-.09-7.19.07-1.72.26-2.71.59-2.97.29-.23.61-.41.95-.54.68-.27,1.76-.31,3.24-.12.33.05.58.33.58.67v3.92c0,.33.27.6.61.6h9.07c.37,0,.66-.32.61-.69-.51-4.07,1.61-4.73,5.09-4.54.31.02.57.24.63.55.81,4.14-1.43,4.98-4.87,4.89-.31-.01-.58.21-.63.52-.04.25-.05.7-.03,1.33.09,2.69-1.12,3.73-4.21,3.56-.52-.03-.96.38-.97.89-.09,3.11-.09,5.11,0,6.01.22,2.71-1.29,3.83-4.52,3.35-.48-.07-.91.3-.91.78v7.47c0,1.17-.85,2.17-2,2.36l-1.87.31c-.68.12-1.3-.41-1.3-1.11v-3.67c0-.38-.31-.69-.69-.69h-3.79c-.42,0-.75.37-.7.79.39,3.41-1.23,4.95-4.87,4.64-.46-.04-.81-.42-.83-.88-.05-1.13.12-2.22.5-3.25.34-.91,1.2-1.51,2.16-1.51h2.12c.42,0,.75-.35.73-.76-.22-4.47,1.76-4.59,4.89-4.45.3,0,.55-.23.55-.53v-2.42c0-1.06.74-1.97,1.78-2.19.96-.19,1.75-.23,2.36-.12.48.09.93-.28.93-.77v-3.29c0-.55-.44-.99-.99-.98l-4.11.03Z"/>
  <path class="st2" d="M235.32,401.22v7.61c0,1.14-.92,2.06-2.06,2.06h-7.73c-.33,0-.59.27-.58.6.02.59-.02,1.32-.12,2.2-.28,2.52-1.89,3.32-4.84,2.39-.3-.1-.5-.37-.5-.68v-2.65c0-.34.15-.65.4-.87,1.27-1.08,2.61-1.47,4.04-1.16.39.08.76-.22.76-.62v-3.53c0-.38-.3-.68-.68-.68h-3.44c-.56,0-1.02-.46-1.02-1.02v-2.46c0-1.15.93-2.08,2.08-2.08h12.74c.35,0,.63-.29.63-.64v-7.39c0-.12.02-.23.07-.34.77-1.79,2.27-2.58,4.51-2.38.54.05,1.01-.37,1.01-.91.02-3.18.02-5.11,0-5.79-.08-3.21,1.37-4.19,4.17-3.64.55.1,1.06-.32,1.06-.88v-1.91c0-.36.09-.72.27-1.04.89-1.6,2.48-2.11,4.77-1.53.27.07.48.29.53.56.31,1.86-.1,3.33-1.23,4.41-.26.25-.59.42-.94.49-.79.16-1.49.19-2.11.09-.48-.08-.92.29-.92.78v3.24c0,.46.37.84.83.84h3.42c.3,0,.56-.23.6-.54l.38-2.98c.06-.45.32-.86.72-1.1.81-.49,2.04-.63,3.71-.42.33.04.59.3.64.63.23,1.6.07,2.89-.48,3.88-.2.36-.56.59-.97.63l-2.95.23c-.34.03-.59.31-.6.65l-.11,7.25c0,.05,0,.09-.01.14-.57,2.73-2.34,2.5-4.52,2.63-.31.02-.56.26-.59.56-.27,2.26-.08,4.49-3.26,4.69-3.45.22-5.76.23-6.91.03-.4-.07-.77.24-.77.65ZM245.86,390.63c0-.42-.34-.77-.77-.77h-3.4c-.42,0-.77.34-.77.76v3.5c0,.42.34.77.76.77h3.4c.42,0,.77-.34.77-.76v-3.5Z"/>
  <rect class="st2" x="227.33" y="381.81" width="10.74" height="5.46" rx="1.71" ry="1.71" transform="translate(-157.02 608.46) rotate(-88.7)"/>
  <path class="st2" d="M340.44,389.14c-.44.42-.84.64-1.2.66-2.4.13-4.86.14-7.38.02-.95-.04-1.65-.92-1.47-1.86l.31-1.68c.17-.9.9-1.58,1.8-1.7.58-.07,1.63-.1,3.14-.09,0,0,.06-.03.12-.07,0-.02.03-.03.04-.05.02-.01.03-.02.04-.04.05-.05.08-.1.08-.11.04-1.52.11-2.56.2-3.14.15-.9.86-1.6,1.77-1.74l1.69-.25c.94-.14,1.79.59,1.8,1.54.03,2.52-.06,4.98-.28,7.38-.03.36-.25.74-.66,1.13Z"/>
  <path class="st2" d="M188.62,385.11c.98-.89,2.44-1.05,4.37-.49.05.02.1.05.14.1.02.02.04.06.05.12.38,1.97.08,3.41-.91,4.3-.97.88-2.42,1.04-4.35.47-.05,0-.1-.04-.14-.09-.02-.02-.04-.06-.05-.12-.38-1.97-.08-3.4.89-4.29Z"/>
  <path class="st2" d="M261.98,389.9s-.03.03-.04.05c-.05.05-.08.1-.08.11-.02,1.55-.07,2.61-.16,3.2-.14.92-.85,1.64-1.77,1.8l-1.72.28c-.96.16-1.84-.57-1.86-1.54-.07-2.57-.01-5.07.17-7.52.03-.37.25-.76.66-1.17.44-.43.84-.66,1.21-.69,2.45-.16,4.95-.21,7.52-.13.97.03,1.7.91,1.53,1.87l-.29,1.72c-.16.92-.89,1.63-1.81,1.76-.59.08-1.65.13-3.2.14-.01,0-.06.03-.12.08,0,.01-.03.03-.04.04Z"/>
  <path class="st2" d="M283.36,453.31h9.51c.4,0,.72-.32.72-.72v-25.05c0-.25-.2-.45-.45-.45h-14.77c-.33,0-.59.26-.59.58v1.67c0,1.36-.99,2.52-2.33,2.75l-.94.16c-1.13.18-2.17-.68-2.19-1.83-.03-1.89,0-3.97.11-6.23.16-3.34,2.73-2.81,5.68-2.79,1.51.01,2.84.04,4,.1.32.02.6-.24.6-.57v-4.17c0-.27-.22-.49-.49-.49h-3.84c-.35,0-.64-.26-.69-.6-.62-4.23,1.27-5.05,5.24-5,2.88.03,4.46.06,4.74.08.39.02.69.34.69.72v4.27c0,.25.2.46.45.46h4.23c.28,0,.51-.23.51-.51v-9.36c0-.3-.24-.54-.53-.54h-4.28c-.3,0-.55-.25-.55-.55v-4.22c0-.27-.22-.48-.49-.48h-19.75c-.39,0-.7.31-.7.7v8.93c0,.29.24.53.53.53h4.12c.26,0,.48-.19.52-.45.03-.21.02-.69-.03-1.43-.19-2.44,1.28-3.5,4.41-3.17.53.05.96.46,1.04.98.22,1.39-.17,2.67-1.18,3.84-.24.27-.57.42-.92.42h-2.48c-.37,0-.69.29-.72.66-.06.7-.08,2.58-.06,5.65.03,3.62-1.01,4.83-4.77,4.27-.36-.06-.63-.37-.63-.74v-3.64c0-.4-.33-.73-.73-.73h-9.08c-.37,0-.68.31-.67.68.06,3.86-.68,4.67-4.15,4.61-.54,0-.98.42-.98.96v3.41c0,.49.39.88.87.88h3.47c.36,0,.63-.31.59-.67-.17-1.51,0-2.76.53-3.73.18-.34.47-.62.82-.78.86-.39,1.93-.49,3.2-.29.36.05.65.33.72.69.49,2.45-.15,4.06-1.91,4.85-.78.35-1.67.06-2.48.12-.36.03-.65.32-.68.68-.05.63-.07,1.3-.06,2.01,0,2.24-2.38,2.62-4.15,2.33-.49-.08-.95.29-.97.79-.08,1.85.67,7.44-1.26,9.39-.25.25-.59.39-.94.39h-7.18c-.8,0-1.44-.65-1.44-1.45v-1.57c0-1.34,1.08-2.42,2.42-2.42h2.15c.36,0,.66-.3.66-.66v-9.04c0-.22-.18-.4-.4-.4h-4.41c-.13,0-.22.11-.2.24.51,3.29-.74,4.9-3.75,4.81-4.83-.14-8.68-.15-11.55-.03-.47.02-.81.44-.72.9.51,2.69-.33,4.1-2.52,4.21-4.86.25-9.19.26-12.98.01-.24-.01-.44-.19-.47-.43-.55-3.6.9-5.24,4.37-4.91.41.04.76-.28.76-.69v-3.44c0-.38-.3-.68-.67-.68h-8.9c-.35,0-.63.28-.63.63v7.16c0,1.06-.77,1.97-1.81,2.14l-2.22.37c-.71.12-1.36-.43-1.36-1.15v-3.59c0-.32-.26-.58-.57-.58h-3.61c-.58,0-1.05-.47-1.05-1.05v-2.26c0-1.01.81-1.83,1.82-1.83h8.04c.44,0,.78-.39.71-.82-.31-1.95.06-3.41,1.13-4.4.26-.24.61-.38.97-.38h18.3c.41,0,.72-.36.67-.77-.47-3.39.84-4.5,4.3-4.49,3.5.01,7.23.02,11.18.01.22,0,.4-.18.4-.4l.05-8.14c0-.06,0-.12.03-.17.41-1.46,1.83-2.04,4.24-1.75.42.05.8-.26.83-.68.16-2.16-.48-4.33,2.67-4.53,1.89-.13,3.94-.19,6.17-.18,1.09,0,1.98.88,1.98,1.97v.94c0,1.45-1.18,2.63-2.64,2.63h-7.26c-.35,0-.63.28-.63.62v9.2c0,.27.22.49.49.49h9.02c.47,0,.83-.4.78-.87-.33-3.25,1.12-4.76,4.35-4.51.45.03.84-.33.84-.78v-7.3c0-.15.03-.3.09-.44.61-1.45,2.13-2.07,4.54-1.87.39.03.73-.29.71-.69-.15-3.02.49-5.47,4.46-4.61.42.09.84-.18.93-.6,0-.03.03-.72.1-2.08.1-1.96,1.54-2.9,4.31-2.81.51.02.93-.39.93-.9v-2.46c0-.24.1-.47.27-.64,1.16-1.13,2.66-1.53,4.49-1.18.32.06.55.34.55.67v3.88c0,.39.31.7.7.7h4.14c.33,0,.59.27.59.6v3.67c0,.55.45,1,1,1h3.26c.47,0,.85-.39.85-.86v-2.12c0-.95.69-1.75,1.62-1.91l2.6-.43c.67-.11,1.27.4,1.27,1.08v14.5c0,.3.24.54.54.54h14.68c.38,0,.69.31.69.69v3.85c0,.29.24.53.54.53h3.78c.6,0,1.06.54.96,1.14l-.47,2.82c-.15.9-.93,1.56-1.84,1.56h-7.73c-.36,0-.66-.3-.66-.66v-4.31c0-.27-.21-.48-.48-.48h-4.31c-.28,0-.51.23-.51.51v9.46c0,.34.27.61.61.61h4.17c.39,0,.71.32.71.71v4.21c0,.35.29.64.65.64h9.1c.34,0,.62.28.62.62v19.9c0,.27.22.49.49.49h3.71c.78,0,1.38.7,1.25,1.47l-.36,2.14c-.15.92-.94,1.61-1.87,1.63l-2.89.07c-.32.01-.55.3-.48.61.71,3.2-.88,5.17-4.25,4.46-.48-.1-.9.32-.81.8.34,1.77.01,4.28-2.16,4.56-.15.02-1,.07-2.55.14-.34.01-.62-.26-.62-.6v-3.95c0-.46-.38-.84-.84-.84h-9.34c-.29,0-.52.27-.46.55.47,2.54-.15,4.81-3.33,4.8-2.05,0-4.27-.03-6.67-.08-.31-.01-.56.24-.56.55v2.16c0,1.28-.92,2.37-2.18,2.58l-1.59.26c-.93.16-1.78-.56-1.78-1.51v-8.82c0-.29-.23-.52-.52-.52h-9.16c-.35,0-.64-.29-.64-.64v-4.01c0-.27-.22-.5-.49-.49l-4.26.08c-.34,0-.56.36-.41.67.08.15.09.76.02,1.83-.23,3.71-6.35,2.64-9.82,2.56-.53-.01-.96.42-.94.95.08,3.34-.24,4.42-3.72,4.44-3.75.01-5.7.02-5.87.03-.38.01-.71.29-.77.67-.45,2.87.23,4.86-4.17,4.55-.57-.04-1.06.42-1.06,1v3.3c0,.55.44,1,.99,1h3.24c.36,0,.66-.29.66-.65v-2.09c0-.23.05-.46.14-.68.77-1.81,2.38-2.49,4.82-2.05.35.06.6.36.6.71v4.24c0,.33.27.6.6.6h14.7c.33,0,.57-.3.51-.62-.52-2.77.12-5.13,3.56-4.94,1.03.06,3.18.05,6.45-.03.31-.01.56.24.56.55v4.41c0,.37.3.67.67.67h14.54c.32,0,.58-.26.58-.58v-2.91c0-.4.17-.78.47-1.04,1.17-1.01,2.63-1.33,4.38-.97.3.06.52.33.52.64v4.33c0,.29.24.53.53.53h4.03c.31,0,.57-.25.56-.56-.04-2.02-.19-4.03,1.81-4.91.26-.12.55-.18.84-.18h7.24c.64,0,1.17.53,1.16,1.17-.03,3.52-1.63,5.04-4.81,4.57-.37-.05-.7.25-.67.62.22,3.26-.55,4.47-4.06,4.47-16.81-.03-27.61-.02-32.42.02-.42.01-.77-.34-.77-.76v-4.03c0-.17-.13-.31-.3-.31l-4.45-.07c-.17-.01-.3.14-.28.3.42,4.02-.97,4.88-4.7,4.86-9.49-.03-18.48,0-26.98.1-.37.01-.67-.29-.67-.66v-9.26c0-.43-.34-.77-.77-.77h-3.21c-.48,0-.88-.36-.93-.84-.43-4.14,1.1-4.5,4.26-4.72.39-.02.69-.34.69-.73v-3.46c0-.44-.36-.8-.8-.8h-3.46c-.4,0-.73-.33-.73-.73v-7.69c0-1.25,1.02-2.27,2.28-2.27h23.45c.38,0,.68-.33.65-.71-.16-2.21.17-3.57.98-4.1,1.17-.75,2.49-.39,3.55-.54.36-.05.63-.36.63-.73l.02-7.22c0-1.19.86-2.2,2.04-2.4l2.14-.35c.77-.13,1.47.46,1.47,1.24v3.75c0,.25.2.45.45.45h3.75c.69,0,1.22.62,1.1,1.3l-.42,2.57c-.14.88-.91,1.52-1.8,1.52h-2.46c-.37,0-.66.33-.61.7.44,3.44-1.07,5.02-4.52,4.74-.69-.05-2.52-.04-5.47.03-.35.01-.64.29-.67.64-.22,2.97-.3,5.24-4.19,4.59-.52-.08-1,.32-1,.85v3.42c0,.41.34.75.75.75h3.72c.37,0,.64-.33.58-.7-.18-.95-.09-1.99.27-3.11.25-.77.97-1.3,1.79-1.3h7.71c.55,0,.97-.49.9-1.03-.44-3.21.84-4.65,3.84-4.31,1.26.15,3.32.15,6.17,0,.3,0,.54-.26.54-.56v-12.78c0-1.26.91-2.33,2.15-2.54l1.41-.23c.83-.14,1.59.5,1.59,1.34v19.61c0,.3.24.54.53.54ZM240.67,422.13c0-.28-.23-.51-.51-.51l-4.32.02c-.28,0-.51.23-.51.51v4.3c.02.28.25.51.53.51l4.32-.02c.28,0,.51-.23.51-.51v-4.3ZM224.72,427.64c0-.26-.21-.47-.47-.47l-4.06-.04c-.26,0-.47.21-.47.47l-.03,3.86c0,.26.21.47.47.47l4.06.04c.26,0,.47-.21.47-.47l.03-3.86ZM303.93,427.4c0-.19-.16-.34-.35-.33l-4.34.08c-.19,0-.34.16-.33.35l.08,4.34c0,.19.16.34.35.33l4.34-.08c.19,0,.34-.16.33-.35l-.08-4.34ZM314.88,437.59c0-.15-.12-.27-.27-.27h-15.42c-.15,0-.27.12-.27.27v15.42c0,.15.12.27.27.27h15.42c.15,0,.27-.12.27-.27v-15.42ZM245.86,454.26c.01-.44-.35-.81-.8-.82l-3.24-.06c-.44-.01-.81.35-.82.8l-.06,3.26c-.01.44.35.81.8.82l3.24.06c.44.01.81-.35.82-.8l.06-3.26Z"/>
  <path class="st2" d="M213.96,400.02c-.09-.1-.08-.77.05-2.01.21-2,1.49-3.33,3.51-3.17.65.05,1.02.07,1.1.05.56-.12.93-.67.85-1.24-.51-3.36,1.93-4.42,4.5-4.05.59.08,1.03.58,1.04,1.18.05,3.53-1.31,4.98-4.1,4.34-.52-.12-1.03.26-1.06.79l-.16,2.39c-.02.25-.11.48-.26.67-1.08,1.34-2.57,1.85-4.46,1.54-.35-.05-.66.2-.67.55-.11,3.7-.13,7.84-.08,12.43.02,1.77-.77,2.71-2.36,2.82-2.89.2-5.37.19-7.44-.04-.34-.04-.62.24-.59.58.14,1.46-.08,2.67-.65,3.63-.41.68-1.14,1.09-1.93,1.09h-13.06c-.33,0-.6-.27-.6-.6v-12.58c0-1.23.89-2.29,2.11-2.49l2.15-.36c.77-.13,1.47.47,1.47,1.25v8.75c0,.33.27.6.6.6h9.11c.36,0,.64-.31.6-.66-.35-3.4,1.06-5.01,4.23-4.82.46.03.85-.34.85-.8v-3.23c0-.44-.35-.79-.79-.79h-3.06c-.84,0-1.48-.75-1.34-1.58l.36-2.17c.16-.96.98-1.66,1.95-1.67l8.01-.11c.15,0,.22-.18.12-.29Z"/>
  <rect class="st1" x="240.87" y="389.91" width="5.04" height="4.94" rx=".77" ry=".77" transform="translate(-149.41 635.08) rotate(-89.9)"/>
  <path class="st2" d="M330.42,395.18c.19.19.29.75.29,1.68,0,2.87-1.65,4.02-4.93,3.45-.03-.01-.13.07-.3.24-.16.17-.24.27-.24.3.65,3.27-.47,4.93-3.35,5-.93.02-1.49-.07-1.68-.26s-.29-.75-.29-1.68c0-2.87,1.65-4.02,4.93-3.45.03.01.13-.07.3-.24.16-.17.24-.27.23-.3-.64-3.27.48-4.93,3.35-5,.93-.02,1.49.07,1.69.26Z"/>
  <path class="st2" d="M330.09,405.73c.39,0,.68-.37.57-.75-.63-2.2-.09-3.65,1.64-4.34,1.23-.5,2.56.04,3.44-.15.29-.06.47-.34.43-.63-.27-1.61-.15-2.94.35-3.99.16-.33.45-.57.8-.67,1.13-.32,2.22-.41,3.29-.27.37.05.64.36.64.73v7.59c0,1.38-1.11,2.49-2.49,2.49h-2.05c-.3,0-.54.24-.54.54v3.86c0,.34.28.62.62.62h3.96c.32,0,.58.26.58.58l-.12,7.66c-.02,1.08-.7,2.03-1.72,2.38-.67.23-1.43.27-2.28.12-.54-.1-1.04.32-1.04.87v3.86c0,.41.33.74.74.74h3.73c.34,0,.62.27.62.61v18.13c0,.38-.13.74-.36,1.03-.93,1.18-2.25,1.59-3.96,1.22-.33-.07-.66.12-.76.43-.26.82.34,2.05-.3,3.11-.98,1.64-2.58,2.25-4.8,1.84-.35-.07-.61-.38-.61-.73v-7.08c0-1.64,1.33-2.97,2.98-2.97h2c.36,0,.66-.3.66-.66v-4.15c0-.24-.19-.43-.42-.43h-4.71c-.25,0-.46.21-.46.46v3.15c0,.92-.74,1.67-1.66,1.67h-2.66c-.48,0-.87-.39-.87-.87v-14.06c0-.31-.26-.57-.58-.57h-4.15c-.35,0-.64-.28-.65-.64-.13-4.27-.09-6.88.1-7.83.54-2.65,2.15-2.43,4.32-2.44,2.09-.01,4.02,0,5.8.03.17.01.31-.13.31-.3v-4.79c0-.14-.12-.26-.27-.26h-4.01c-.46,0-.84-.38-.84-.85v-2.39c0-1.05.85-1.9,1.9-1.9h2.83Z"/>
  <rect class="st1" x="235.34" y="421.63" width="5.34" height="5.32" rx=".51" ry=".51" transform="translate(-1.48 .83) rotate(-.2)"/>
  <rect class="st1" x="219.8" y="427.05" width="4.8" height="5" rx=".47" ry=".47" transform="translate(-209.27 647.99) rotate(-89.5)"/>
  <rect class="st1" x="298.95" y="427.1" width="5.02" height="5.02" rx=".34" ry=".34" transform="translate(-7.45 5.33) rotate(-1)"/>
  <path class="st2" d="M234.77,441.89c-.8.86-2.09,1.15-3.88.87-.21-.03-.37-.1-.49-.21-.11-.11-.19-.27-.24-.47-.42-1.76-.22-3.07.58-3.93.79-.86,2.09-1.15,3.88-.87.2.03.36.1.48.21.12.11.2.26.24.46.42,1.76.23,3.08-.57,3.94Z"/>
  <path class="st1" d="M314.88,453.01c0,.15-.12.27-.27.27h-15.42c-.15,0-.27-.12-.27-.27v-15.42c0-.15.12-.27.27-.27h15.42c.15,0,.27.12.27.27v15.42ZM308.74,447.24c.95-.91,1.21-2.34.79-4.31-.01-.06-.03-.1-.05-.12-.04-.04-.09-.07-.15-.09-1.94-.52-3.39-.33-4.34.58-.96.91-1.23,2.35-.81,4.31.01.06.03.1.05.12.04.05.09.08.15.09,1.94.53,3.39.33,4.36-.58Z"/>
  <path class="st2" d="M224.85,466.24c-.05,7.53-6.2,13.6-13.73,13.54l-9.96-.07c-7.53-.05-13.6-6.2-13.54-13.73l.07-9.96c.05-7.53,6.2-13.6,13.73-13.54l9.96.07c7.53.05,13.6,6.2,13.54,13.73l-.07,9.96ZM219.49,455.98c.01-4.34-3.51-7.87-7.86-7.88l-10.52-.02c-4.34-.01-7.87,3.51-7.88,7.86l-.02,10.52c-.01,4.34,3.51,7.87,7.86,7.88l10.52.02c4.34.01,7.87-3.51,7.88-7.86l.02-10.52Z"/>
  <path class="st2" d="M308.74,447.24c-.97.91-2.42,1.11-4.36.58-.06-.01-.11-.04-.15-.09-.02-.02-.04-.06-.05-.12-.42-1.96-.15-3.4.81-4.31.95-.91,2.4-1.1,4.34-.58.06.02.11.05.15.09.02.02.04.06.05.12.42,1.97.16,3.4-.79,4.31Z"/>
  <path class="st1" d="M219.47,466.5c-.01,4.35-3.54,7.87-7.88,7.86l-10.52-.02c-4.35-.01-7.87-3.54-7.86-7.88l.02-10.52c.01-4.35,3.54-7.87,7.88-7.86l10.52.02c4.35.01,7.87,3.54,7.86,7.88l-.02,10.52ZM214.24,461.17c0-4.39-3.56-7.95-7.95-7.95s-7.95,3.56-7.95,7.95,3.56,7.95,7.95,7.95,7.95-3.56,7.95-7.95Z"/>
  <circle class="st2" cx="206.29" cy="461.17" r="7.95"/>
  <rect class="st2" x="333.37" y="455.97" width="10.56" height="5.18" rx="1.35" ry="1.35" transform="translate(-125.17 789.97) rotate(-89.1)"/>
  <rect class="st1" x="240.96" y="453.42" width="4.88" height="4.86" rx=".81" ry=".81" transform="translate(-216.63 691.26) rotate(-89)"/>
  <path class="st2" d="M330.39,458.49s.07.09.09.14c.54,1.93.37,3.37-.52,4.33-.9.97-2.33,1.25-4.29.86-.06-.01-.1-.03-.12-.05-.04-.04-.07-.09-.09-.15-.54-1.92-.36-3.37.53-4.34.89-.96,2.32-1.24,4.28-.84.06.01.1.03.12.05Z"/>
  <path class="st2" d="M271.68,463.02c-.9.92-2.32,1.16-4.25.71-.05-.01-.09-.03-.11-.05-.04-.04-.07-.09-.09-.15-.48-1.92-.27-3.34.64-4.26.91-.93,2.33-1.17,4.26-.72.05.01.09.03.11.05.05.04.07.09.09.15.48,1.91.26,3.34-.65,4.27Z"/>
  <path class="st2" d="M261.06,468.37c-.81.83-2.1,1.09-3.87.77-.21-.04-.36-.11-.48-.22-.11-.11-.19-.27-.23-.47-.37-1.76-.15-3.06.66-3.9.82-.83,2.11-1.09,3.88-.77.2.04.36.11.47.22.12.11.2.27.24.47.37,1.76.15,3.06-.67,3.9Z"/>
  <path class="st2" d="M299.69,464.49c.92-.9,2.33-1.12,4.24-.64.06,0,.1.03.12.05.04.04.07.09.08.15.45,1.92.22,3.33-.7,4.23-.92.91-2.34,1.13-4.25.66-.06-.02-.1-.03-.12-.05-.04-.05-.07-.1-.08-.15-.45-1.92-.21-3.34.71-4.25Z"/>
  <path class="st2" d="M325.28,479.09v-3.67c0-.43-.35-.78-.78-.78h-3.68c-.75,0-1.29-.71-1.1-1.44l.75-2.79c.24-.91,1.06-1.54,2-1.54h18.03c.38,0,.7.28.75.65.48,3.25-.64,5.44-4.24,5.06-.49-.05-.9.36-.85.85.27,2.77-.77,4.19-3.13,4.26-1.57.04-3.94.05-7.12.03-.35,0-.63-.28-.63-.63Z"/>
  <path class="st0" d="M122.72,518.23c-.05-.39-.55-.54-.79-.23-1.94,2.35-3.9,3.28-5.89,2.79-1.27-.32-2.06-1.08-2.38-2.29-1.19-4.4,1.37-8.91,4.71-11.72,1.96-1.65,4.21-1.95,6.73-.92.34.15.73-.06.8-.42.61-3.15,1.71-6.27,3.31-9.38.38-.73,1.22-1.11,2.03-.9l.05.02c.73.18,1.13.98.85,1.68-2.79,6.84-4.94,13.6-6.46,20.27-.19.82.67,1.47,1.41,1.08.3-.16.71-.28,1.23-.35.33-.04.59.29.46.61-1.24,3.04-5.59,3.68-6.06-.24ZM123.43,507.09c-1.25-.67-3.61,1.31-5.28,4.41-1.68,3.1-2.02,6.17-.78,6.84,1.25.67,3.61-1.31,5.28-4.41,1.68-3.1,2.02-6.17.78-6.84Z"/>
  <path class="st0" d="M32.95,499.58c-.29.04-.64.23-1.06.58-.56.45-1.37.41-1.87-.1l-.36-.35c-.46-.46-.36-1.24.21-1.57,3.08-1.76,7.93-1.48,6.98,3.38-1.36,6.91-3.28,13.46-7.92,18.67-.38.43-.91.67-1.48.67h-.92c-.64,0-.97-.76-.53-1.23,1.73-1.84,3.17-4.34,4.34-7.5,1.93-5.24,3.02-9.22,3.27-11.93.03-.37-.29-.67-.66-.62Z"/>
  <path class="st0" d="M77.75,515.22l-.25-.1c-.08-.04-.18,0-.22.08-.76,1.54-2.05,3.07-3.87,4.61-1.22,1.02-2.43,1.37-3.63,1.04-2.01-.54-2.1-3.24-1.47-4.63,1.34-2.98,2.47-5.67,3.41-8.08.19-.49-.05-1.05-.54-1.25l-.25-.11c-.43-.18-.49-.76-.11-1.03,1.32-.94,2.62-1.04,3.87-.29.37.22.58.62.55,1.04-.31,3.86-2.51,7.33-3.72,10.8-.22.62.49,1.15,1.03.78,3.55-2.45,6.7-8.31,8.62-12.15.4-.8,1.34-1.17,2.18-.87h.02c.7.31,1.02,1.11.73,1.8l-3.92,9.36c-.43,1.02.49,2.1,1.57,1.82l.66-.16c.48-.12.88.37.66.81-.81,1.58-1.97,2.32-3.48,2.23-3.13-.21-2.53-3.59-1.73-5.4.06-.11.01-.25-.11-.3Z"/>
  <path class="st0" d="M103.4,515.26c-.86.01-1.51.77-1.37,1.62l.05.4c.16.97,1.03,1.66,2.01,1.6,1.81-.11,3.26-.71,4.38-1.78.55-.53,1.45-.05,1.32.71-.53,3.06-4.3,3.47-6.88,3.29-9.28-.7-2.24-18.81,7.09-15.48.37.13.68.4.87.75,2.82,5.23-3.01,8.85-7.47,8.89ZM102.83,513.83c.16.14.7.01,1.61-.39,1.42-.63,2.56-1.57,3.41-2.84.95-1.4,1.05-2.42.31-3.06-.72-.61-1.7-.35-2.94.8-1.13,1.03-1.89,2.29-2.3,3.79-.26.96-.29,1.53-.09,1.7Z"/>
  <path class="st0" d="M43.63,510.39c.12-.09.99-1.15,2.62-3.18,1.49-1.87,4.67-3.24,6.27-.8,1.32,2.02-1.26,6.46-3.13,10.93-.3.7.38,1.41,1.09,1.16l.98-.35c.87-.32,1.53.8.84,1.41-1.75,1.54-3.23,2.01-4.43,1.41-4.4-2.2,1.19-9.25,1.54-12.3.07-.62-.66-1-1.13-.58-3.88,3.49-6.76,7.5-8.61,12.01-.34.84-1.29,1.25-2.14.94l-.07-.03c-.81-.31-1.19-1.24-.82-2.02,1.24-2.61,2.4-5.43,3.47-8.46.53-1.5.55-2.63.06-3.4-.67-1.04.46-2.31,1.82-2.05,2.65.49,3.04,2.11,1.18,4.86-.09.13-.07.31.04.42.11.11.29.12.42.03Z"/>
  <path class="st0" d="M56.9,516.68l.18,1.01c.13.77.85,1.28,1.62,1.15l.88-.15c.78-.13,1.21-.97.86-1.68-.33-.68-1.04-1.79-2.13-3.31-5.65-7.88,6.49-11.4,8.57-6.26.42,1.03,0,2.05-1.24,3.06-.74.61-1.85.06-1.83-.9.02-.61.03-.96.02-1.02-.15-1.41-1.82-2.08-2.99-1.2-2.84,2.16,3,6.18,2.88,9.11-.16,4.01-5.53,5.35-8.41,3.54-1.58-.99-1.37-2.7-.03-3.92.57-.52,1.5-.2,1.62.57Z"/>
  <path class="st0" d="M91.04,511.34c-.04.18.2.29.31.14,1.32-1.83,2.63-4.94,5.18-5.52.87-.21,1.74.3,2,1.15.31,1.02.09,2-.66,2.96-.29.37-.83.45-1.2.16-1.17-.87-2.23-.66-3.19.65-2.57,3.52-4.31,6.83-5.23,9.9-.26.86-1.2,1.3-2.02.94l-.19-.08c-.83-.36-1.21-1.33-.84-2.17,1.14-2.59,2.02-5.33,2.93-8.16.5-1.53.4-2.74-.28-3.64-.42-.56-.13-1.36.54-1.52,1.29-.31,2.29-.2,2.99.33,1.25.93-.09,3.57-.34,4.86Z"/>
  <ellipse class="st0" cx="19.94" cy="510.32" rx="3.89" ry="3.55" transform="translate(-295.45 108.63) rotate(-35.9)"/>
  <path class="st1" d="M108.16,507.54c.74.64.64,1.66-.31,3.06-.85,1.27-1.99,2.21-3.41,2.84-.91.4-1.45.53-1.61.39-.2-.17-.17-.74.09-1.7.41-1.5,1.17-2.76,2.3-3.79,1.24-1.15,2.22-1.41,2.94-.8Z"/>
  <ellipse class="st1" cx="120.4" cy="512.72" rx="6.39" ry="2.56" transform="translate(-388.12 375.65) rotate(-61.7)"/>
  <path class="st0" d="M97.04,547.09c-.09.26.15.51.41.43,1.87-.56,3.31-.14,4.3,1.26.45.64-.01,1.52-.79,1.52h-4.01c-.4,0-.75.25-.88.63-1.09,3.2-2.33,9.06-4.35,13.24-.62,1.29-1.39,2.05-2.86,1.93-.54-.05-.89-.58-.72-1.09l4.43-13.14c.14-.42-.2-.86-.65-.81-.71.08-1.08.11-1.13.1-.8-.19-.91-.66-.32-1.42.4-.52,1.12-.9,2.17-1.13.68-.16,1.2-.7,1.33-1.38.55-2.88,1.47-5.61,2.77-8.2,1.41-2.79,5.16-4.54,7.82-1.86,1.71,1.73.14,7.78-3.16,5.9-.73-.42-.87-1.38-.27-1.83.97-.71,1.43-1.61,1.37-2.69-.05-.88-1.12-1.27-1.73-.64-2.32,2.38-2.53,5.94-3.73,9.18Z"/>
  <path class="st0" d="M135.39,559.02c-.05-.39-.54-.53-.79-.23-1.93,2.36-3.89,3.29-5.88,2.8-1.27-.31-2.06-1.07-2.39-2.28-1.19-4.4,1.36-8.91,4.69-11.73,1.96-1.65,4.2-1.96,6.73-.93.34.14.73-.06.8-.43.6-3.15,1.7-6.27,3.29-9.38.38-.74,1.22-1.11,2.03-.91l.05.02c.73.19,1.13.98.85,1.68-2.77,6.85-4.91,13.61-6.42,20.29-.18.81.68,1.46,1.41,1.07.3-.16.71-.28,1.23-.35.34-.04.6.29.47.61-1.24,3.04-5.59,3.69-6.07-.23ZM136.14,547.87c-1.25-.68-3.65,1.3-5.36,4.42-1.71,3.13-2.09,6.21-.83,6.9,1.25.68,3.65-1.3,5.36-4.42,1.71-3.13,2.09-6.21.83-6.9Z"/>
  <path class="st0" d="M238.68,559.42c.61-.1,1.04.58.69,1.08-2.92,4.23-7.07.85-5.47-3.56,1.91-5.26,3.77-11.68,5.59-19.27.19-.78,1.09-1.15,1.77-.73l.17.1c.81.49,1.2,1.44.99,2.36-1.01,4.4-2.54,9.29-4.61,14.67-.61,1.58-.94,3.25-1.01,5-.01.35.3.62.64.56l1.24-.21Z"/>
  <path class="st0" d="M37.55,557.34c.45-.36,1.12-.05,1.14.53.04,1.36-.68,2.37-2.15,3.03-5.87,2.63-10.94.03-10.45-6.78.51-7.01,4.63-14,11.76-16.14.28-.09.57-.13.87-.13,3.58-.02,5.63,3.07,4.54,6.4-.62,1.87-1.63,3.32-3.03,4.34-.81.59-1.92.57-2.7-.06l-.11-.09c-.65-.52-.62-1.52.06-2.01,1.37-.98,2.43-2.27,3.19-3.88.47-1.01.05-2.16-.88-2.42-.32-.09-.91,0-1.77.25-.71.21-1.24.47-1.6.78-4.16,3.62-6.43,8.2-6.8,13.73-.43,6.52,4.54,5.17,7.93,2.45Z"/>
  <path class="st0" d="M173.4,559.45c2.59-.38,4.31-.67,5.16-.87,2.49-.58,4.31.06,5.44,1.91.57.94-.42,2.05-1.41,1.58-2.94-1.38-7.27-.64-11.41.15-1.55.3-2.61-1.53-1.58-2.72.89-1.03,1.47-1.92,1.74-2.69,1.23-3.54,2.51-7,3.84-10.39,1.29-3.3,3.41-6.55,6.79-7.66,2.57-.85,5.29,1.53,5.31,3.86.03,3.09-1.31,5.66-4.02,7.71-.75.57-1.81.54-2.53-.07l-.07-.07c-.67-.57-.65-1.62.04-2.16,3.22-2.51,4.53-4.62,3.94-6.35-.33-.97-1.55-1.27-2.27-.56-1.51,1.49-2.51,2.93-2.99,4.32-1.55,4.48-3.63,9.03-6.23,13.64-.11.18.04.4.25.37Z"/>
  <circle class="st0" cx="87.13" cy="541" r="2.31"/>
  <ellipse class="st0" cx="108.48" cy="541" rx="2.39" ry="2.21" transform="translate(-266.69 136.4) rotate(-31.5)"/>
  <path class="st0" d="M78.39,546.46l2.24-.18c.49-.04.92.32.98.8.06.49-.28.94-.76,1.02l-4.03.67c-.35.05-.64.32-.74.67l-2.27,8.52c-.24.9.6,1.72,1.5,1.45.97-.29,1.87-.74,2.7-1.37.48-.36,1.13.15.9.71-1.96,4.8-9.64,4.68-7.91-2.33.98-3.99,1.67-6.34,2.06-7.04.17-.31,0-.7-.34-.79l-.79-.21c-.68-.18-.8-1.1-.18-1.44.71-.4,1.4-.59,2.05-.58.31,0,.59-.18.71-.46l1.42-3.38c.35-.84,1.41-1.12,2.13-.56l.3.22c.5.38.67,1.05.43,1.62l-.86,2.03c-.13.31.12.66.46.63Z"/>
  <path class="st0" d="M47.2,556.06c-.86.01-1.5.78-1.36,1.62l.05.4c.16.97,1.04,1.67,2.02,1.6,1.8-.12,3.26-.72,4.37-1.79.55-.53,1.46-.05,1.33.7-.53,3.07-4.3,3.49-6.88,3.31-9.28-.68-2.28-18.8,7.06-15.49.37.13.68.39.87.74,2.83,5.23-2.99,8.87-7.46,8.91ZM46.58,554.6c.17.14.71.01,1.62-.38,1.42-.62,2.56-1.55,3.42-2.81.95-1.39,1.07-2.41.33-3.05-.71-.62-1.69-.36-2.94.77-1.13,1.02-1.9,2.28-2.32,3.77-.27.96-.31,1.53-.11,1.7Z"/>
  <path class="st0" d="M62.34,551.34c-.04.18.2.29.31.14,1.32-1.82,2.63-4.91,5.17-5.49.86-.2,1.74.3,1.99,1.15.3,1.02.08,2-.66,2.95-.29.37-.83.44-1.2.16-1.16-.87-2.22-.66-3.17.64-2.57,3.5-4.32,6.79-5.24,9.85-.25.86-1.2,1.29-2.01.93l-.19-.08c-.82-.36-1.2-1.33-.83-2.16,1.14-2.58,2.02-5.31,2.94-8.12.49-1.52.4-2.73-.28-3.63-.41-.56-.13-1.35.54-1.51,1.29-.31,2.28-.2,2.98.33,1.24.93-.09,3.56-.35,4.84Z"/>
  <path class="st0" d="M115.69,556.07c-.86.02-1.5.79-1.36,1.63l.06.4c.16.97,1.04,1.66,2.02,1.59,1.8-.13,3.25-.73,4.36-1.81.55-.53,1.46-.05,1.33.7-.51,3.07-4.28,3.5-6.86,3.33-9.28-.64-2.35-18.78,6.99-15.51.37.13.69.39.88.74,2.85,5.21-2.96,8.87-7.42,8.93ZM115.14,554.6c.16.14.69,0,1.59-.41,1.4-.63,2.51-1.58,3.34-2.85.93-1.4,1.02-2.41.27-3.04-.71-.6-1.68-.32-2.9.83-1.1,1.03-1.85,2.3-2.23,3.78-.25.96-.28,1.52-.07,1.69Z"/>
  <path class="st0" d="M85.31,559.24c.54-.09.95.48.69.97-1.68,3.1-6.64,2.11-5.53-1.97.59-2.15,1.51-4.5,2.76-7.03.58-1.18.5-2.51-.23-3.98-.19-.37.06-.82.48-.86l2.48-.22c.07-.01.13-.01.19,0,1.29.14,1.62,1.07,1.01,2.8-.59,1.65-1.83,4.67-3.72,9.06-.31.71.3,1.49,1.07,1.36l.8-.13Z"/>
  <path class="st0" d="M106.71,559.21c.54-.09.95.48.69.96-1.66,3.1-6.6,2.13-5.52-1.94.58-2.14,1.49-4.48,2.72-7,.58-1.18.5-2.5-.24-3.96-.19-.38.06-.82.47-.86l2.47-.23c.07-.01.13-.01.19,0,1.28.13,1.62,1.06,1.02,2.78-.59,1.65-1.81,4.66-3.67,9.03-.3.72.3,1.48,1.07,1.35l.8-.13Z"/>
  <path class="st0" d="M198.31,547.11c2.76,1.8,2.88,6.5.27,10.5-2.61,4.01-6.96,5.79-9.72,3.99-2.76-1.8-2.88-6.5-.27-10.5,2.61-4.01,6.96-5.79,9.72-3.99ZM196.16,548.46c-1.3-.57-3.54,1.63-4.99,4.92-1.45,3.29-1.57,6.43-.27,7.01,1.3.57,3.54-1.63,4.99-4.92,1.45-3.29,1.57-6.43.27-7.01Z"/>
  <path class="st0" d="M212.36,557.89c.23-.3.7-.22.82.13l.12.34c.13.36.1.77-.08,1.11-2.31,4.27-11.16,4.02-10.76-2.43.31-4.79,4.33-10.84,10.03-10.41,4.57.35,3.88,7.35.07,7.93-1.26.19-2.02-1.35-1.1-2.24.44-.43.89-1.06,1.35-1.91.39-.71.01-1.59-.74-1.71s-1.42.06-2.03.55c-2.74,2.18-4.03,5.21-3.87,9.09.04.84.7,1.51,1.54,1.57,1.97.14,3.52-.53,4.65-2.02Z"/>
  <path class="st0" d="M225.85,559.2c-.04-.29-.42-.36-.57-.12-2.2,3.51-7.88,4.71-8.12-.86-.17-3.82,1.34-7.06,4.52-9.73,2.66-2.22,4.98-2.49,6.94-.81.29.24.71.19.93-.12.43-.6.98-.92,1.63-.95,1.11-.05,1.9,1.05,1.4,1.94-1.79,3.17-3.08,6.26-3.87,9.26-.24.91.57,1.75,1.49,1.54l1.05-.25c.36-.09.67.26.53.61-1.2,3.21-5.3,3.66-5.93-.51ZM227.84,550.43c.21-.77-.32-1.55-1.11-1.64-4.21-.46-6.28,6.69-6.23,9.74.02,1.09,1.32,1.64,2.12.9,2.46-2.29,4.2-5.29,5.22-9Z"/>
  <ellipse class="st0" cx="17.97" cy="551.05" rx="3.92" ry="3.58" transform="translate(-344.96 136.01) rotate(-39.3)"/>
  <path class="st1" d="M46.58,554.6c-.2-.17-.16-.74.11-1.7.42-1.49,1.19-2.75,2.32-3.77,1.25-1.13,2.23-1.39,2.94-.77.74.64.62,1.66-.33,3.05-.86,1.26-2,2.19-3.42,2.81-.91.39-1.45.52-1.62.38Z"/>
  <path class="st1" d="M115.14,554.6c-.21-.17-.18-.73.07-1.69.38-1.48,1.13-2.75,2.23-3.78,1.22-1.15,2.19-1.43,2.9-.83.75.63.66,1.64-.27,3.04-.83,1.27-1.94,2.22-3.34,2.85-.9.41-1.43.55-1.59.41Z"/>
  <ellipse class="st1" cx="133.04" cy="553.53" rx="6.45" ry="2.58" transform="translate(-416.38 404.41) rotate(-61.3)"/>
  <ellipse class="st0" cx="163.61" cy="551.6" rx="3.91" ry="3.52" transform="translate(-260.05 162.31) rotate(-30.9)"/>
  <ellipse class="st1" cx="193.53" cy="554.43" rx="6.52" ry="2.58" transform="translate(-391.85 507.76) rotate(-66.2)"/>
  <path class="st1" d="M227.84,550.43c-1.02,3.71-2.76,6.71-5.22,9-.8.74-2.1.19-2.12-.9-.05-3.05,2.02-10.2,6.23-9.74.79.09,1.32.87,1.11,1.64Z"/>
  <path class="st0" d="M246.43,607.74l-.87,5.19c-.02.14-.14.25-.28.25h-8.99c-.49,0-.88.39-.88.88v.42c0,.44.36.78.79.76,7.27-.39,12.38,1.7,11.05,10.4-.91,5.97-7.83,6.27-12.59,5.69-3.5-.43-5.69-2.41-6.57-5.94-1.29-5.2-2.02-16.79,5.43-18.24,4-.78,8.22-.71,12.65.21.17.03.29.2.26.38ZM239.16,622c0-.43-.36-.78-.79-.77l-2.14.03c-.43,0-.77.36-.77.79l.04,3.06c0,.43.36.78.79.77l2.14-.03c.43,0,.77-.36.77-.79l-.04-3.06Z"/>
  <path class="st0" d="M327.72,624.78c.27,0,.49.22.49.49v5.21c0,.27-.21.49-.48.49h-18.5c-.33,0-.59-.26-.59-.59.05-4.93-.6-8.79,4.32-11.73,1.72-1.03,3.99-2.16,6.82-3.41.57-.25.87-.88.72-1.48-.15-.6-.72-1.01-1.34-.96l-8.37.67c-.31.02-.59-.2-.64-.51l-.78-4.68c-.04-.24.11-.47.35-.53,4.94-1.33,9.82-1.55,14.65-.67,4.75.86,4.57,8.13,3.2,11.2-1.09,2.43-6.78,4.46-9.88,5.56-.22.08-.35.31-.32.54.04.23.24.4.48.4h9.87Z"/>
  <path class="st0" d="M332.54,630.09l1-5.15c.02-.14.14-.24.28-.24l8.96.23c.48.01.88-.37.89-.85l.02-.42c.01-.43-.34-.79-.77-.78-7.25.2-12.29-2.01-10.74-10.64,1.06-5.92,7.96-6.04,12.68-5.34,3.48.51,5.61,2.54,6.4,6.08,1.15,5.21,1.58,16.77-5.88,18.03-4,.67-8.2.49-12.59-.54-.17-.03-.28-.2-.25-.38ZM343.6,615.91v-2.8c-.01-.4-.33-.72-.74-.72h-1.57c-.66,0-1.2.42-1.19.93v2.42c0,.5.54.91,1.21.91h1.57c.4,0,.73-.33.72-.74Z"/>
  <path class="st0" d="M151.41,606.92c2.45-.01,3.96.12,4.53.39,4.87,2.26,6.02,5.81,3.47,10.65-.01.02-.26.24-.73.67-.17.15-.27.31-.3.47-.05.25.05.5.26.63,1.83,1.15,2.77,2.66,2.81,4.54.13,6.1-5.09,7.26-9.98,7.28-4.89.01-10.11-1.13-10.01-7.24.03-1.87.96-3.39,2.79-4.55.21-.13.31-.38.25-.63-.03-.16-.13-.31-.3-.47-.47-.42-.72-.64-.73-.66-2.58-4.83-1.44-8.39,3.42-10.67.57-.27,2.08-.4,4.52-.41ZM153.1,615.72l.24-2.29c.03-.28-.17-.53-.45-.56l-.22-.03c-1.55-.17-2.88.37-2.97,1.21l-.03.28c-.1.83,1.09,1.64,2.64,1.81l.22.03c.28.03.53-.17.57-.45ZM149.86,622.44l-.32,3.22c-.02.13.08.25.21.26l.35.04c1.64.17,3.05-.44,3.14-1.35l.04-.4c.09-.91-1.16-1.78-2.81-1.95l-.34-.04c-.14,0-.25.09-.27.22Z"/>
  <path class="st0" d="M268.18,613.58h-8.06c-.26,0-.47.21-.47.48v.31c0,.46.34.85.8.92,5.81.81,11.12,1.7,10.03,9.51-.59,4.19-2.97,6.36-7.15,6.51-4.67.17-8.7-.05-12.09-.65-.36-.07-.6-.41-.54-.77l.78-4.71c.05-.26.27-.45.53-.45h9.74c.33,0,.61-.23.67-.55l.08-.37c.04-.53-.35-.99-.88-1.03-4.23-.33-10.42-.1-10.09-6.23.17-3.05.29-5.97.38-8.77,0-.35.29-.63.64-.63h15.82c.34,0,.62.28.62.62v5c0,.45-.36.81-.81.81Z"/>
  <path class="st0" d="M373.44,612.71c0,.44-.36.81-.81.81l-8.05.05c-.26,0-.47.22-.47.48v.31c0,.46.35.85.81.92,5.81.77,11.13,1.63,10.08,9.45-.56,4.18-2.93,6.37-7.11,6.55-4.66.19-8.69,0-12.09-.58-.36-.06-.6-.4-.54-.76l.75-4.72c.04-.26.26-.45.52-.45l9.74-.06c.33,0,.61-.24.67-.56l.08-.37c.03-.52-.36-.98-.89-1.02-4.23-.3-10.42-.04-10.13-6.17.15-3.05.26-5.97.33-8.77.01-.35.29-.63.64-.63l15.82-.1c.34,0,.62.27.62.62l.03,5Z"/>
  <path class="st0" d="M183.33,624.79c.46,0,.83.38.83.84v4.45c0,.5-.4.9-.89.9h-17.54c-.36,0-.66-.3-.66-.66v-4.91c0-.34.27-.61.61-.61h4.93c.72,0,1.31-.59,1.31-1.31v-7.28c0-.71-.61-1.27-1.32-1.22l-4.74.38c-.37.03-.69-.27-.69-.64v-4.63c0-.41.26-.77.65-.9,4.68-1.55,9.14-2.23,13.39-2.04.38.02.68.33.68.72v16.35c0,.31.26.56.57.56h2.87Z"/>
  <path class="st0" d="M205.77,627.78v2.44c0,.44-.35.79-.78.79h-6.13c-.54,0-.95-.49-.86-1.03.16-.88.19-1.62.08-2.23-.06-.35-.36-.61-.72-.61h-10.13c-.31,0-.57-.22-.62-.52-.4-2.2-.22-4.26.55-6.19,1.08-2.73,2.7-6.97,4.86-12.72.12-.33.44-.55.8-.55h12.54c.23,0,.42.19.42.42v12.43c0,.4.37.7.76.62.46-.09.83-.12,1.11-.09.38.04.66.35.66.73v5.29c0,.35-.28.63-.63.63h-1.32c-.33,0-.59.26-.59.59ZM197.33,620.58c.42,0,.76-.34.76-.76v-6.1c0-.36-.49-.46-.63-.13l-2.65,6.26c-.15.35.11.73.49.73h2.03Z"/>
  <path class="st0" d="M292.18,624.79c.46,0,.83.38.83.84v4.47c0,.49-.4.9-.89.9l-17.6.02c-.36,0-.66-.3-.66-.67v-4.92c0-.34.27-.61.61-.61h4.94c.73-.01,1.32-.6,1.32-1.32v-7.31c-.01-.71-.62-1.28-1.34-1.22l-4.75.38c-.37.03-.69-.26-.69-.64v-4.64c-.01-.42.25-.78.64-.91,4.7-1.55,9.18-2.24,13.44-2.06.38.02.68.34.68.73v16.4c.01.31.27.56.59.56h2.88Z"/>
  <path class="st0" d="M396.58,624.77c.45,0,.82.37.82.84v4.44c.01.5-.39.9-.88.9l-17.52.02c-.36,0-.66-.3-.66-.66v-4.91c0-.33.27-.61.61-.61h4.92c.72,0,1.31-.59,1.31-1.31v-7.27c0-.71-.62-1.27-1.33-1.22l-4.73.38c-.37.03-.69-.26-.69-.64v-4.62c0-.41.26-.77.64-.9,4.68-1.55,9.13-2.23,13.38-2.05.38.02.68.34.68.72v16.33c.01.31.26.56.58.56h2.87Z"/>
  <path class="st0" d="M135.8,621.77c-.01,3.74.17,6.29,2.87,8.82.14.13.22.31.22.49v4.37c0,.4-.36.7-.76.63-7.37-1.34-9.19-7.74-9.18-14.32.02-6.58,1.86-12.97,9.23-14.29.4-.07.76.24.76.64l-.02,4.37c0,.18-.08.36-.22.49-2.71,2.52-2.9,5.06-2.9,8.8Z"/>
  <path class="st0" d="M219.79,622.18c0,6.57-1.83,12.96-9.19,14.28-.39.08-.75-.23-.75-.63v-4.36c0-.19.08-.36.22-.49,2.71-2.53,2.89-5.07,2.89-8.8-.01-3.73-.19-6.27-2.89-8.79-.14-.13-.22-.31-.22-.49v-4.37c-.01-.4.35-.7.74-.63,7.37,1.32,9.19,7.71,9.2,14.28Z"/>
  <path class="st1" d="M343.6,615.91c0,.41-.32.74-.72.74h-1.57c-.67,0-1.2-.41-1.21-.91v-2.42c-.01-.51.53-.93,1.19-.93h1.57c.41,0,.73.32.74.72v2.8Z"/>
  <path class="st1" d="M153.1,615.72c-.04.28-.29.48-.57.45l-.22-.03c-1.55-.17-2.74-.98-2.64-1.81l.03-.28c.09-.84,1.42-1.38,2.97-1.21l.22.03c.28.03.48.28.45.56l-.24,2.29Z"/>
  <path class="st1" d="M197.33,620.58h-2.03c-.38,0-.64-.38-.49-.73l2.65-6.26c.14-.33.63-.23.63.13v6.1c0,.42-.34.76-.76.76Z"/>
  <rect class="st0" x="295.34" y="617.81" width="11.34" height="5.64" rx=".91" ry=".91" transform="translate(-2.16 1.05) rotate(-.2)"/>
  <rect class="st1" x="235.48" y="621.24" width="3.7" height="4.62" rx=".78" ry=".78" transform="translate(-7.6 2.95) rotate(-.7)"/>
  <path class="st1" d="M149.86,622.44c.02-.13.13-.23.27-.22l.34.04c1.65.17,2.9,1.04,2.81,1.95l-.04.4c-.09.91-1.5,1.52-3.14,1.35l-.35-.04c-.13-.01-.23-.13-.21-.26l.32-3.22Z"/>
</svg>