<?xml version="1.0" encoding="UTF-8"?>
<svg id="Layer_1" xmlns="http://www.w3.org/2000/svg" version="1.1" viewBox="0 0 4801 5401">
  <!-- Generator: Adobe Illustrator 29.5.1, SVG Export Plug-In . SVG Version: 2.1.0 Build 141)  -->
  <defs>
    <style>
      .st0 {
        fill: #fff;
      }

      .st1 {
        fill: #1c6a95;
      }
    </style>
  </defs>
  <path class="st1" d="M4800.94,0v5401H.06V0h4800.89ZM4649.54,257.7c0-.69-.55-1.23-1.23-1.23H153.56c-.69,0-1.23.55-1.23,1.23v4925.62c0,.69.55,1.23,1.23,1.23h4494.75c.69,0,1.23-.55,1.23-1.23V257.7Z"/>
  <ellipse class="st1" cx="2409.8" cy="1897.38" rx="79.45" ry="73.28" transform="translate(495.64 4293.88) rotate(-89.6)"/>
  <path class="st1" d="M748.64,2354.7c.55,1.61,2.81,1.58,3.33-.03l153.93-490.54c.75-2.38,2.96-3.99,5.46-4.02,52.86-.32,96.53-.43,130.99-.34,15.28.03,27.25.52,35.95,1.41,2.84.29,4.48.52,4.91.72,3.96,1.61,4.13,7.18.26,9.02-17.54,8.36-33.68,15.02-39.85,33.74-1.23,3.7-1.84,14.64-1.87,32.79-.2,168.86-.29,349.04-.2,540.56.03,34.11,19.3,45.05,47.84,53.84,1.38.43,2.41,1.55,2.76,2.93.83,3.19-.17,5.34-3.01,6.4-8.33,3.19-27.79,9.59-35.49,19.18-6.4,8.01-9.62,17.06-9.65,27.16-.95,191.66-.89,397.28.17,616.91.03,3.73-.57,6.63-1.81,8.73-.55.89-1.41,1.55-2.44,1.84-15.62,4.22-36.29,4.97-49.82-5.2-2.79-2.1-6.86-7.38-12.2-15.88-109.69-174.15-218.65-346.03-326.93-515.61-.75-1.18-2.58-.66-2.58.75-.2,168.38-.14,317.74.14,448.1.03,8.93.4,16.42,1.12,22.54,2.61,22.2,6.32,34.71,27.82,42.9,6.2,2.35,12.66,4.71,19.38,7.09,3.96,1.41,7.81,4.54,7.41,9.27-.2,2.21-2.01,3.88-4.22,3.9-48.04.34-91.34.17-129.9-.55-3.76-.06-6.29-3.9-4.85-7.41.78-1.95,2.41-3.3,4.85-4.05,11.03-3.33,29.4-8.59,40.37-17.14.75-.6,1.41-1.26,1.95-2.01,8.96-12.35,13.5-23.92,13.61-34.74.52-49.07.69-208.75.55-479.03,0-15.19-1.21-27.11-3.62-35.78-6.26-22.43-17.26-42.55-32.99-60.44-16.68-18.92-25.87-29.23-27.51-30.87-.72-.69-1.15-1.64-1.21-2.64-.34-5.17,1.61-7.75,5.83-7.75,41.09.03,74.37,0,99.81-.06,1.44,0,2.44-1.41,1.98-2.76l-189.37-569.5c-.17-.49-.63-.78-1.15-.69-.49.09-.83.55-.83,1.03,2.33,169.58,3.13,340.34,2.41,512.31-.09,16.6,3.36,36.27,17.89,48.04,6.98,5.63,22.05,9.27,28.31,12.61.78.4,1.44,1,1.9,1.75,1.92,3.24,1.98,5.94.23,8.15-.6.78-1.58,1.23-2.58,1.23h-112.82c-1.12,0-2.18-.55-2.81-1.46-1.75-2.47-1.95-4.97-.66-7.52.46-.86,1.18-1.52,2.04-1.9,14.24-6.09,23.09-10.39,26.53-12.95,18.26-13.5,20.5-38.59,20.5-59.44.03-165.42-.09-341.75-.34-529.05,0-14.64-2.76-29.75-14.18-39.74-7.21-6.32-20.44-10.82-30.92-18.23-2.9-2.07-4.36-4.71-4.36-7.9,0-2.33,1.87-4.22,4.19-4.22h166.85c2.67,0,5.05,1.72,5.89,4.28l163.03,490.25ZM905.56,1951.57c-.37.2-.66.6-.83,1.15-32.19,101.07-92.46,292.39-180.81,573.92-.95,3.01-.52,6.26,1.18,8.9l293.45,458.35c.66,1,2.07,1.12,2.87.2.34-.37.52-.78.52-1.15.03-6.17.03-128.06-.06-365.67,0-27.36,3.16-64.55-27.68-76.38-16.91-6.49-29.37-8.87-48.1-8.7-30.95.26-57.25-.06-78.9-.95-2.93-.14-4.74-.69-5.43-1.69-1.9-2.73-.89-6.52,2.1-8.07,22.74-11.8,41.98-21.42,41.89-51.57-.49-173.8-.06-349.62,1.29-527.44,0-.78-.8-1.29-1.49-.92Z"/>
  <path class="st1" d="M2155.03,2066.28c-.83,0-1.49.66-1.49,1.49-.37,186.41-.55,309.73-.49,370,.03,24.78,5,52.32,26.88,66.87,31.24,20.76,63.83-7.12,82.75-31.18,1.06-1.35,2.99-1.58,4.36-.55,6.75,5.11,5.69,10.51,1.38,17.74-26.19,43.79-65.41,66.3-117.67,67.48-54.58,1.23-102.59-22.57-117.7-78.13-8.7-31.96-8.99-69.08-8.56-103.97.2-17.14.6-119.36,1.15-306.66.03-1.72-1.38-3.13-3.1-3.13h-54.53c-2.56,0-4.65-1.95-4.85-4.45-.29-3.59.69-6.03,4.45-6.72,27.68-4.91,57.25-17.06,78.79-33.8,10.54-8.18,22.91-21.62,37.1-40.34,14.33-18.89,31.15-40.37,50.54-64.43,5.66-7.03,10.88-12.52,15.68-16.48,2.3-1.92,5.8-.26,5.8,2.76v140.7c0,.98.78,1.75,1.75,1.75h94.04c2.18,0,3.93,1.75,3.93,3.91v13.38c0,2.07-1.69,3.76-3.76,3.76h-96.45Z"/>
  <path class="st0" d="M905.56,1951.57c.69-.37,1.49.14,1.49.92-1.35,177.82-1.78,353.63-1.29,527.44.09,30.15-19.15,39.77-41.89,51.57-2.99,1.55-3.99,5.34-2.1,8.07.69,1,2.5,1.55,5.43,1.69,21.65.89,47.95,1.21,78.9.95,18.72-.17,31.18,2.21,48.1,8.7,30.84,11.83,27.68,49.01,27.68,76.38.09,237.6.09,359.49.06,365.67,0,.37-.17.78-.52,1.15-.8.92-2.21.8-2.87-.2l-293.45-458.35c-1.69-2.64-2.12-5.89-1.18-8.9,88.35-281.54,148.62-472.85,180.81-573.92.17-.55.46-.95.83-1.15Z"/>
  <path class="st1" d="M2725.42,2099.56c.23,1.32,1.87,1.84,2.79.86,43.56-45.51,106.15-78.33,170.67-69.4,76.98,10.65,99.92,81.26,99.92,149.08-.03,198.38,0,300.46.11,306.29.26,13.93,9.76,31.7,23.4,38.13,7.01,3.3,16.42,5.91,18.86,11.57,1.32,3.04-.92,6.43-4.22,6.43h-44.22c-1.69,0-3.1,1.35-3.19,3.04-2.04,45.45-3.04,88.27-3.04,128.38.09,233.15-1.15,373.88,1.41,468.23.34,12.52.75,20.01,1.18,22.48,4.22,23.06,19.07,30.41,39.02,38.13,4.16,1.61,3.85,7.58-.46,8.76-2.73.75-5.51,1.12-8.36,1.15-34.08.37-99.12.34-195.17-.06-3.47-.03-6.4-.92-8.79-2.67-2.67-1.95-2.27-6.06.75-7.44,30.32-13.81,41.63-24.46,41.66-59.09.17-211.56.26-391.97.29-541.25,0-10.71-.92-20.21-2.73-28.51-4.54-20.53-20.93-24.89-38.65-31.56-1.9-.72-3.01-2.15-3.36-4.31-.52-3.04,1.29-5.94,4.13-6.58,9.79-2.12,18.78-4.68,26.96-7.7,22.25-8.15,26.39-28.51,26.39-49.88-.06-213.28-.32-325.87-.78-337.79-1.21-31.24-20.64-53.15-52.37-53.95-32.48-.8-61.59,17.23-84.65,39.68-4.39,4.25-6.09,6.72-6.06,13.55.06,186.87.06,302.41,0,346.63-.06,26.39,13.29,40.4,36.58,50.19,3.01,1.26,3.33,2.47,3.62,5.54.26,2.7-1.87,5.02-4.57,5.02-108.57-.09-174.95-.06-199.13.03-3.73,0-6.37-1.15-7.95-3.42-1.95-2.84-.66-6.81,2.64-7.95,31.36-11.11,40.86-25.27,40.89-58.29.03-100.81-.2-204.38-.66-310.71-.09-18.55-.92-30.01-2.53-34.37-6.55-17.74-21.59-19.38-38.02-25.53-1.29-.49-2.35-1.44-2.99-2.67-1.35-2.61-1.23-5.31.29-8.13.55-1.03,1.46-1.81,2.56-2.24l146.15-57.23c.78-.32,1.61-.43,2.47-.4,6.63.37,10.39,3.85,11.23,10.42,3.7,29.29,6.35,48.44,7.9,57.48Z"/>
  <path class="st1" d="M1364.66,2481.59c-.26.03-.52.06-.75.09-.34.03-.63.2-.86.46-18.06,22.11-38.36,41.75-60.93,58.95-1,.78-1.55,1.98-1.46,3.24.09,1.23.43,5.94,1.09,14.07,2.93,36.49-9.53,62.71-37.36,78.65-18.46,10.57-41.46,12.46-59.98,4.59-30.12-12.83-46-36.29-47.64-70.43-.52-10.74.98-21.22,4.45-31.41.72-2.1.06-4.39-1.67-5.77-24.49-19.78-39.28-45.22-44.39-76.26-6.23-37.93-1.26-70.89,23.11-101.44,32.79-41.12,76.32-61.22,129.15-75.34,26.9-7.18,57.4-13.7,91.42-19.55,2.01-.34,3.47-2.07,3.5-4.11.78-35.66.46-72.47-.92-110.43-1.38-37.82-10.02-95.53-60.67-94.9-52.89.69-49.1,75.26-54.27,109.66-5.54,36.72-34.92,67.94-75.2,55.96-27.45-8.15-38.33-34.69-37.36-62.45,3.73-103,121.06-129.33,203.35-124.82,64.75,3.56,117.21,35.12,137.59,98.46,8.04,24.98,12.23,51.89,12.61,80.74.46,36.9.57,112.53.34,226.84-.03,21.28,1.46,34.92,4.54,40.97,6.43,12.63,18.41,18.78,35.92,18.46,6-.11,12.38.43,17.2,1.58,5.57,1.32,8.82,5.05,5.34,10.25-24.23,36.47-59.01,52.4-104.32,47.78-45.11-4.59-69.03-31.01-80.63-72.96-.14-.55-.66-.92-1.23-.86ZM1362.85,2283.32c0-1.29-1.18-2.27-2.47-2.01-15.53,3.19-29.95,6.72-43.24,10.57-36.72,10.62-68.17,39.85-78.39,77.44-6.75,24.78-7.15,50.31-1.21,76.61,7.61,33.68,37.3,58.46,72.59,45.97,19.81-7.03,37.04-19.35,51.71-36.98.66-.78,1-1.75,1-2.76v-168.84Z"/>
  <path class="st1" d="M1972.55,2768.75c.03,1.12,1.41,1.67,2.21.89,24.09-22.86,49.93-41.09,77.53-54.7,50.82-25.07,125.79-21.45,163.55,24.66,26.33,32.16,33.54,72.44,33.59,113.07.17,121.08.17,217.48,0,289.23-.09,27.34,5.17,49.44,33.91,58.06,4.54,1.38,6.43,3.93,5.51,8.56-.49,2.41-2.58,4.13-5.02,4.16-67.1.2-133.49.17-199.16-.09-3.13-.03-5.57-1.03-7.32-3.01-1.75-2.01-1.06-5.14,1.38-6.17,16.31-6.92,31.87-14.7,38.56-32.59,1.92-5.08,2.93-15.36,3.01-30.78.72-107.27.72-211.68.03-313.21-.09-15.02-1.18-28.66-3.22-40.97-3.39-20.36-15.59-31.96-36.61-34.74-39.02-5.23-75.89,10.94-104.2,37.27-.89.83-1.41,2.01-1.41,3.24.69,131.36.78,251.47.29,360.38,0,.72.63,4.74,1.9,12.12,3.3,19.38,14.27,31.7,32.85,36.95.6.17,1.15.43,1.64.78,1.58,1.03,2.81,2.33,3.68,3.9,1.64,2.99-.49,6.66-3.91,6.69-97.31.92-164.99.77-203.09-.46-1.18-.03-2.38-.32-3.59-.86-3.42-1.55-3.45-6.4-.06-8.01,23-11,41.84-21.82,41.92-50.39.55-177.99.43-367.27-.37-567.89-.09-18.64-9.22-30.92-27.42-36.9-11.14-3.65-20.82-5.46-29.06-5.4-85.54.66-156.37.46-212.48-.6-3.24-.09-5.54-.98-6.89-2.67-2.21-2.76-.75-6.83,2.67-7.47,31.44-5.77,42.84-28.91,42.67-58.86-.55-87.32-.6-194.53-.14-321.59.03-4.71-.72-10.62-2.24-17.77-4.71-22.2-21.33-25.5-40.29-31.47-1.41-.43-2.5-1.55-2.87-2.99-1.78-6.58,2.12-9.59,8.04-11.86,72.21-27.77,120.17-46.26,143.85-55.5,2.58-1,5.51-.14,7.12,2.12,3.73,5.2,5.83,9.82,6.26,13.9,1.21,10.91,3.62,37.96,7.26,81.12.11,1.38,1.95,1.78,2.64.57,18.43-32.04,40.89-61.27,70.64-81.66,25.87-17.74,63.03-25.64,91.39-9.27,50.65,29.23,44.22,137.62-24.18,141.13-33.22,1.72-56.68-23.26-73.54-48.32-8.15-12.15-22.54-19.04-34.23-6.37-11.8,12.78-20.76,27.02-26.9,42.67-3.93,10.08-4.65,26.33-4.65,37.53.09,96.48.29,187.41.57,272.78.11,31.79,22.71,44.68,50.28,51.14,8.61,2.01,13.15,1.95,22.14-.63,56.45-16.22,102.22-28.97,137.28-38.25,10.57-2.79,17.74.55,21.56,10.05.37.92.55,1.9.52,2.87-2.12,77.01-3.5,137.31-4.16,180.87-.46,31.61-.29,59.87.55,84.76Z"/>
  <path class="st1" d="M2512.11,2531.81c2.24.98,3.82,3.36,3.53,5.89-.29,2.56-2.44,4.48-5,4.51-67.28,1.06-135.13.95-203.55-.34-1.15-.03-2.21-.63-2.79-1.64-2.44-4.08-.78-7.52,3.9-9.19,14.18-4.94,28.4-10.25,34.28-25.64,3.53-9.33,5.31-18.98,5.28-28.94-.32-94.27-.4-203.84-.32-328.68.03-30.06-14.41-37.99-40.43-45.22-3.82-1.06-5.37-5.6-3.01-8.79,1.46-1.98,3.76-3.56,6.89-4.74,23.17-8.79,72.7-27.16,148.59-55.13,14.16-5.23,17.89,3.04,17.74,15.56-2.15,202.75-2.53,348.95-1.12,438.63.2,12.17,4.82,22.77,13.87,31.79,5.4,5.37,15.42,9.02,22.11,11.94Z"/>
  <path class="st0" d="M1362.85,2283.32v168.84c0,1-.34,1.98-1,2.76-14.67,17.63-31.9,29.95-51.71,36.98-35.29,12.49-64.98-12.29-72.59-45.97-5.94-26.3-5.54-51.83,1.21-76.61,10.22-37.59,41.66-66.82,78.39-77.44,13.29-3.85,27.71-7.38,43.24-10.57,1.29-.26,2.47.72,2.47,2.01Z"/>
  <path class="st1" d="M3294.58,2536.92c-33.22.17-54.58.26-64.15.26-.37,0-.8-.14-1.32-.43-2.1-1.18-2.01-4.22.17-5.25,6.58-3.16,8.93-8.38,7.09-15.65-4.51-17.89-8.81-33.42-12.86-46.66-.29-.98-1.18-1.64-2.21-1.64h-57.77c-.86,0-1.61.57-1.84,1.38l-16.28,51.83c-.89,2.79.52,5.77,3.22,6.89l7.61,3.13c3.27,1.35,2.3,6.23-1.23,6.23h-32.02c-1.21,0-2.24-.89-2.41-2.07-.2-1.18.52-2.33,1.67-2.7,9.59-3.07,15.82-9.33,18.69-18.81,15.65-51.34,34.48-113.48,56.57-186.38.78-2.58,3.13-4.34,5.83-4.34h15.53c2.79,0,5.25,1.84,6.03,4.51l57.77,193.61c.26.78.66,1.46,1.23,2.04l11.66,11.66c.89.89.26,2.38-.98,2.38ZM3164.19,2457.47c-.37,1.21.52,2.41,1.78,2.41l53.01.57c1.26,0,2.18-1.18,1.84-2.38l-25.58-89.79c-.52-1.78-3.04-1.81-3.59-.03l-27.45,89.21Z"/>
  <path class="st1" d="M3337.59,2373.71c-.86-.4-1.84.23-1.84,1.21v145.35c0,1.15.29,2.27.86,3.24,2.35,4.11,6.17,6.75,11.49,7.98,1.52.34,2.64,1.67,2.73,3.24l-.03.17c-.06,1.26-1.12,2.27-2.38,2.24l-34.71-.14c-1.38-.03-2.47-1.15-2.41-2.53v-.17c.17-1.64,1.46-2.96,3.1-3.19,9.1-1.26,13.64-7.7,13.64-19.32.03-42.98,0-92.37-.06-148.16,0-1.35-.14-2.64-.43-3.93-2.73-11.8-8.61-21.91-17.69-30.38-.43-.43-.69-1-.69-1.58v-1.46c0-1.69,1.35-3.04,3.04-3.04h42.7c2.33,0,4.48,1.18,5.74,3.16,40.63,63.37,70.15,109.6,88.58,138.69.26.4.66.57,1.21.52.89-.09,1.35-.6,1.35-1.55.06-13.9-.14-55.02-.6-123.35-.03-3.3-1.78-6.32-4.62-7.98l-11.26-6.49c-1.44-.83-.86-3.02.8-3.02h33.11c1.38,0,2.56,1.01,2.73,2.38.2,1.35-.63,2.64-1.95,3.04-4.39,1.29-7.64,3.9-9.73,7.81-.46.89-.72,1.87-.72,2.84v195.22c0,1.46-.98,2.79-2.41,3.19-10.51,2.96-13.87,1.92-20.1-7.84-37.07-58-69.63-109.48-97.68-154.45-.52-.83-1.09-1.38-1.75-1.69Z"/>
  <path class="st1" d="M3657.78,2429.93c.06,60.27-30.61,104.06-93.69,106.67-25.47,1.06-50.36,1.06-74.65.03-1.41-.06-2.04-1.78-1-2.76,6.49-6.17,12.26-7.03,12.38-18.58.03-4.25.03-32.65-.03-85.19-.06-52.55-.11-80.94-.17-85.19-.14-11.54-5.92-12.4-12.4-18.55-1.03-.98-.4-2.7,1-2.76,24.29-1.09,49.16-1.15,74.65-.14,63.08,2.47,93.84,46.17,93.92,106.47ZM3544.47,2334.92l.34,190.71c0,2.81,2.27,5.08,5.08,5.08l8.81-.03c29.09-.06,52.6-29.72,52.55-66.24l-.11-68.57c-.06-36.52-23.69-66.13-52.78-66.07l-8.81.03c-2.81,0-5.08,2.27-5.08,5.08Z"/>
  <path class="st0" d="M3544.47,2334.92c0-2.81,2.27-5.08,5.08-5.08l8.81-.03c29.09-.06,52.72,29.55,52.78,66.07l.11,68.57c.06,36.52-23.46,66.18-52.55,66.24l-8.81.03c-2.81,0-5.08-2.27-5.08-5.08l-.34-190.71Z"/>
  <path class="st0" d="M3164.19,2457.47l27.45-89.21c.55-1.78,3.07-1.75,3.59.03l25.58,89.79c.34,1.21-.57,2.38-1.84,2.38l-53.01-.57c-1.26,0-2.15-1.21-1.78-2.41Z"/>
  <path class="st1" d="M3378.77,2846.62c-4.25,1.69-7.49.23-9.73-4.39-7.75-16.08-20.53-41.23-38.33-75.46-15.3-29.46-39.48-46.6-72.7-46.09-38.25.57-77.35,20.5-85.19,60.79-5.8,29.98,5.17,61.85,31.9,78.99,34.37,21.99,64.2,31.7,108.08,46.2,56.34,18.61,97.86,62.68,108.05,121.63,5.83,33.94,3.47,67.96-9.3,100.1-16.85,42.41-57.83,75.4-99.52,87.4-80.54,23.17-156.63,13.9-228.27-27.85-.95-.55-1.52-1.55-1.52-2.64-.06-41.4-.06-80.89,0-118.41,0-2.44,1.75-4.51,4.16-4.91,2.73-.43,4.68.49,5.83,2.81,18.32,37.21,31.35,63.4,39.08,78.56,18.78,36.78,49.67,62.83,92.63,63.8,49.01,1.09,95.13-22.8,98.8-76,3.9-55.88-32.04-79.02-78.22-95.96-42.93-15.71-66.13-24.32-69.6-25.78-31.61-13.35-58.98-36.84-76-65.41-29.86-50.05-26.96-117.32,2.79-167.26,21.22-35.6,52.6-58.69,94.12-69.23,66.18-16.83,128.95-8.07,188.25,26.27,1.21.72,1.92,2.04,1.84,3.45l-5.4,107.02c-.06,1.06-.72,2.01-1.72,2.38Z"/>
  <path class="st1" d="M1770.41,3095.08c4.45.17,6.66,2.87,6.69,8.13,0,.69-.14,1.41-.4,2.07-8.15,20.85-18.84,39.62-32.07,56.34-57,72.01-164.82,84.27-243.63,44.36-59.61-30.15-98.37-86.74-113.5-152.12-27.54-119.22-3.07-260.03,111.75-324.98,61.73-34.92,154.65-43.44,216.76-.98,34.03,23.29,53.78,55.24,59.24,95.93,4.16,31.13-6.78,64.81-41.2,72.04-41.69,8.76-64.03-21.59-72.7-57.54-1.95-8.07-2.7-19.61-2.21-34.63.6-18.32,1.09-34.05,1.41-47.2,1.32-55.19-59.95-39.6-85.65-20.96-38.62,28-49.44,75.57-56.05,119.85-9.85,66.1-8.38,131.54,4.39,196.29,1.35,6.78,4.71,16.62,10.11,29.57,8.84,21.25,18.98,37.56,30.44,48.9,27.77,27.54,66.13,34.89,105.35,31.33,41.23-3.76,74.4-31.01,97.08-64.26.95-1.38,2.56-2.18,4.22-2.12Z"/>
  <path class="st1" d="M4124.71,2769.47c.11,1.46,1.9,2.12,2.93,1.09,46.11-46.29,112.73-82.49,180.09-67.76,36.04,7.9,61.25,28.6,75.63,62.05,9.71,22.54,14.67,46.34,14.93,71.35,1.15,109.86,1.21,212.97.2,309.36-.06,4.68.95,12,3.02,21.97,4.39,21.33,20.1,27.36,38.1,35.43.78.34,1.41.89,1.84,1.61,1.58,2.64,1.64,5.02.17,7.15-.46.69-1.26,1.09-2.1,1.09-59.35-.03-127.11-.03-203.32-.03-3.33,0-7.38-1.03-9.27-3.88-1.35-2.04-.55-4.8,1.69-5.77,7.9-3.45,14.41-6.63,19.58-9.53,18.95-10.71,22.91-30.78,22.74-52.34-.66-91.39-.66-197.86.06-319.35.17-30.38-7.32-61.99-41.26-68.45-35.83-6.83-70.26,12.61-95.9,37.36-5.31,5.11-7.18,7.09-7.12,15.33.89,113.73.98,225.66.32,335.83-.17,29.32,7.29,50.13,37.24,60.01.92.32,1.67,1,2.01,1.92,2.18,5.92-2.07,8.82-6.83,8.82-49.88.14-113.59.17-191.2.06-5.11,0-8.96-.43-11.54-1.32-4.13-1.44-4.31-7.21-.26-8.87,16.34-6.69,33.42-15.13,38.3-31.93,2.61-8.99,3.96-20.7,4.02-35.15.34-95.3.11-202.23-.72-320.84-.11-15.76-5.51-29.69-21.22-35.92-6.69-2.67-12.52-4.88-17.43-6.6-8.13-2.87-8.33-10.14-.75-13.09,63.66-24.95,112.36-44.05,146.15-57.28.75-.29,1.55-.4,2.35-.32,10.88.95,13.44,22.86,14.36,31.93,1.29,12.83,2.35,24.87,3.19,36.09Z"/>
  <path class="st1" d="M2776.33,2965.27c-.2,54.13-10.68,108.54-36.98,155.11-39.74,70.38-106.93,108.42-188.45,108.11-81.52-.29-148.45-38.82-187.64-109.51-25.96-46.77-36.04-101.24-35.83-155.37s10.68-108.51,36.98-155.08c39.74-70.41,106.93-108.42,188.45-108.13,81.52.32,148.45,38.82,187.64,109.51,25.96,46.77,36.04,101.24,35.83,155.37ZM2464.9,2964.26c0,48.32,1.46,94.35,7.12,143.22,5.37,46.57,22.86,100.32,79.85,100.32s74.48-53.75,79.85-100.32c5.63-48.9,7.09-94.93,7.06-143.25,0-48.32-1.46-94.35-7.09-143.22-5.4-46.57-22.88-100.32-79.88-100.32s-74.45,53.75-79.82,100.32c-5.66,48.87-7.09,94.93-7.09,143.25Z"/>
  <path class="st1" d="M3691.86,2700.33c81.55.29,148.48,38.82,187.7,109.51,25.96,46.8,36.04,101.27,35.83,155.4-.2,54.15-10.65,108.54-36.95,155.14-39.74,70.41-106.96,108.45-188.5,108.16-81.52-.29-148.45-38.82-187.7-109.51-25.96-46.8-36.01-101.27-35.81-155.4.17-54.15,10.65-108.57,36.95-155.14,39.74-70.41,106.93-108.45,188.48-108.16ZM3603.94,2964.12c0,48.3,1.44,94.29,7.06,143.14,5.37,46.52,22.8,100.24,79.77,100.27,56.97,0,74.43-53.69,79.82-100.24,5.66-48.84,7.12-94.84,7.12-143.11s-1.44-94.29-7.06-143.14c-5.37-46.54-22.8-100.24-79.77-100.27-56.94,0-74.43,53.69-79.79,100.24-5.66,48.81-7.12,94.81-7.15,143.11Z"/>
  <path class="st1" d="M1335.37,3207.81c-.29,2.53-2.44,4.45-5,4.51-67.28,1.06-135.13.92-203.52-.37-1.15-.03-2.21-.63-2.79-1.64-2.44-4.08-.78-7.52,3.91-9.19,14.18-4.94,28.4-10.25,34.28-25.64,3.53-9.33,5.31-18.98,5.28-28.94-.29-94.27-.4-203.81-.29-328.65.03-30.06-14.41-37.99-40.43-45.22-3.79-1.03-5.37-5.6-3.01-8.79,1.49-1.95,3.79-3.53,6.89-4.74,23.17-8.79,72.7-27.13,148.59-55.1,14.16-5.23,17.89,3.04,17.74,15.56-2.18,202.72-2.58,348.93-1.18,438.6.2,12.17,4.82,22.77,13.87,31.79,5.4,5.37,15.42,9.02,22.11,11.94,2.24.98,3.82,3.36,3.53,5.89Z"/>
  <path class="st0" d="M2551.82,2720.69c57,0,74.48,53.75,79.88,100.32,5.63,48.87,7.09,94.9,7.09,143.22.03,48.32-1.44,94.35-7.06,143.25-5.37,46.57-22.83,100.32-79.85,100.32s-74.48-53.75-79.85-100.32c-5.66-48.87-7.12-94.9-7.12-143.22s1.44-94.38,7.09-143.25c5.37-46.57,22.83-100.32,79.82-100.32Z"/>
  <path class="st0" d="M3603.94,2964.12c.03-48.3,1.49-94.3,7.15-143.11,5.37-46.54,22.86-100.24,79.79-100.24,56.97.03,74.4,53.72,79.77,100.27,5.63,48.84,7.06,94.84,7.06,143.14s-1.46,94.27-7.12,143.11c-5.4,46.54-22.86,100.24-79.82,100.24-56.97-.03-74.4-53.75-79.77-100.27-5.63-48.84-7.06-94.84-7.06-143.14Z"/>
  <path class="st1" d="M710.66,3403.41c29.25.31,52.62,30.38,52.25,67.14-.4,36.77-24.4,66.35-53.64,66.03-29.25-.31-52.62-30.38-52.25-67.14.4-36.77,24.4-66.35,53.64-66.03ZM733.62,3431.91c-.02-12.54-10.19-22.67-22.72-22.64h-1.95c-12.53.03-22.66,10.2-22.64,22.73l.13,75.11c.02,12.54,10.19,22.67,22.72,22.64h1.95c12.53-.03,22.66-10.2,22.64-22.73l-.13-75.11Z"/>
  <path class="st1" d="M1779.2,3403.49c29.23.2,52.71,30.15,52.45,66.87-.26,36.73-24.15,66.33-53.38,66.13-29.23-.2-52.71-30.15-52.45-66.87.26-36.73,24.15-66.33,53.38-66.13ZM1802.33,3432.02c-.02-12.51-10.19-22.64-22.69-22.62h-1.95c-12.5.03-22.64,10.19-22.62,22.7l.13,75.23c.02,12.51,10.19,22.64,22.69,22.62h1.95c12.5-.03,22.64-10.2,22.62-22.7l-.13-75.23Z"/>
  <path class="st1" d="M2354.36,3504.71c3.39,15.51,13.44,28.23,31.01,25.47,17-2.64,22.14-20.42,13.64-34.17-2.1-3.36-6.52-6.86-13.35-10.48-23.11-12.29-40.86-25.73-34.8-55.24,5.94-29.03,42.41-29.98,64.95-20.07,1.35.57,2.41,1.69,2.93,3.07,2.56,6.89,2.58,13.67.06,20.3-.57,1.52-2.67,1.58-3.36.11-6.35-13.87-12.78-31.18-32.25-23.6-14.5,5.66-15.07,23.09-6.95,34.48,5.37,7.55,19.35,12.52,30.03,19.3,16.57,10.45,22.31,25.9,17.26,46.34-7.47,30.21-47.43,28.14-69.97,19.44-1.52-.57-2.67-1.81-3.13-3.39-2.47-8.01-2.61-15.28-.43-21.79.75-2.18,3.88-2.01,4.36.23Z"/>
  <path class="st1" d="M911.05,3504.88c3.42,15.51,13.47,28.17,31.04,25.41,16.94-2.64,22.08-20.42,13.58-34.17-2.1-3.36-6.55-6.83-13.35-10.45-23.11-12.26-40.89-25.67-34.86-55.19,5.91-29.03,42.38-30.01,64.89-20.13,1.35.6,2.41,1.69,2.93,3.07,2.56,6.89,2.58,13.67.09,20.3-.57,1.49-2.67,1.58-3.36.11-6.35-13.87-12.81-31.18-32.25-23.57-14.5,5.69-15.05,23.09-6.92,34.48,5.37,7.55,19.38,12.49,30.03,19.24,16.57,10.45,22.34,25.9,17.31,46.31-7.44,30.21-47.38,28.17-69.95,19.5-1.49-.57-2.64-1.81-3.13-3.36-2.47-8.01-2.61-15.28-.43-21.79.75-2.18,3.88-2.01,4.36.23Z"/>
  <path class="st1" d="M1200.16,3469.79c-.03-32.7-.06-49.33-.14-49.9-.06-1.06-.34-2.1-.86-3.07l-4.02-7.58c-.52-.98.14-2.18,1.23-2.24,48.35-2.33,95.56-.09,95.62,62.74.03,62.83-47.18,65.12-95.53,62.85-1.12-.06-1.78-1.26-1.26-2.24l4.02-7.58c.52-.98.8-2.01.86-3.07.09-.57.09-17.2.09-49.9ZM1225.75,3416.27v107.22c0,2.58,2.1,4.68,4.68,4.68h2.41c17.66,0,31.96-16.74,31.96-37.41v-41.75c0-20.67-14.3-37.41-31.96-37.41h-2.41c-2.58,0-4.68,2.1-4.68,4.68Z"/>
  <path class="st1" d="M1842.43,3469.91c-.2-32.65-.34-49.27-.4-49.85-.06-1.06-.37-2.12-.89-3.07l-4.05-7.55c-.55-.98.11-2.18,1.23-2.24,48.3-2.58,95.5-.63,95.87,62.16s-46.77,65.32-95.13,63.34c-1.09-.06-1.78-1.23-1.26-2.24l3.99-7.61c.49-.95.78-2.01.83-3.07.06-.57,0-17.2-.2-49.88ZM1868.32,3415.84l-.17,108.31c0,2.44,1.98,4.45,4.42,4.45h2.5c17.66.03,31.96-16.97,32.02-37.99l.06-41.12c.06-21.02-14.21-38.07-31.84-38.1h-2.5c-2.47,0-4.48,1.98-4.48,4.45Z"/>
  <path class="st1" d="M2489.89,3469.68c.03-32.68,0-49.3-.09-49.88-.06-1.06-.34-2.12-.86-3.07l-4.02-7.58c-.52-.98.14-2.18,1.26-2.24,48.32-2.27,95.5,0,95.47,62.8,0,62.8-47.18,65.04-95.5,62.71-1.12-.03-1.78-1.23-1.26-2.21l4.02-7.58c.52-.98.8-2.01.89-3.07.06-.57.09-17.2.09-49.88ZM2515.73,3415.81l.17,108.13c0,2.33,1.9,4.19,4.22,4.19h4.34c16.77-.03,30.35-17.83,30.32-39.74l-.06-37.16c-.03-21.91-13.7-39.65-30.49-39.62h-4.34c-2.3,0-4.16,1.89-4.16,4.19Z"/>
  <path class="st1" d="M805.67,3531.04c.49.78-.06,1.78-.98,1.78h-34.63c-1.21,0-1.98-1.32-1.35-2.35,3.73-6.35,5.25-11.14,5.2-18.75-.43-45.17-.52-74.77-.29-88.81.06-5.08-1.75-7.7-4.39-11.43-1.21-1.69-.03-4.05,2.07-4.11,19.58-.46,41.12-1.15,59.55,2.3,11.94,2.24,20.93,12.92,21.94,24.66,1.41,16.08-5.31,27.36-20.1,33.82-1.26.55-1.84,2.04-1.23,3.3l28.46,60.79c.11.23-.09.49-.34.49h-24.98c-.43,0-.83-.26-1-.63-7.03-15.36-14.01-32.39-20.93-51.14-1.92-5.2-5.34-8.21-10.22-9.1-1.64-.29-3.16.98-3.16,2.64v43.82c0,1.81.52,3.56,1.49,5.08l4.91,7.64ZM798.61,3415.64l.52,49.44c.03,2.12,1.75,3.85,3.88,3.82l4.36-.06c11.89-.11,21.39-10.71,21.25-23.63l-.11-10.28c-.14-12.95-9.85-23.34-21.71-23.23l-4.36.06c-2.12.03-3.85,1.75-3.82,3.88Z"/>
  <path class="st1" d="M1035.06,3533.02c-9.07,0-16.31-.17-21.71-.52-1.58-.11-1.98-2.27-.55-2.93,7.49-3.45,9.36-7.95,9.13-16.42-.14-4.94-.11-36.72.11-95.41,0-2.58-1.87-4.8-4.42-5.2-20.07-3.13-19.98,8.99-26.88,22.57-.23.46-.57.83-.98,1.12-.46.32-.95.43-1.46.37-1.23-.14-1.84-.75-1.84-1.81.06-8.04.32-15.99.78-23.86.11-1.87,1.64-3.33,3.5-3.39,6-.14,20.76-.23,44.3-.23s38.28.06,44.3.23c1.84.06,3.36,1.52,3.47,3.39.49,7.87.75,15.82.8,23.83,0,1.09-.6,1.69-1.84,1.81-.52.09-1-.03-1.46-.37-.43-.29-.75-.66-.98-1.12-6.89-13.55-6.81-25.7-26.88-22.54-2.56.4-4.45,2.61-4.42,5.2.23,58.66.29,90.48.14,95.41-.26,8.44,1.61,12.95,9.13,16.42,1.44.66,1.03,2.81-.55,2.9-5.4.37-12.66.55-21.74.55Z"/>
  <path class="st1" d="M1090.59,3409.89c-.98-.98-.29-2.67,1.09-2.67h36.72c1.84,0,2.58,2.33,1.12,3.42-7.55,5.57-6.26,11.4-6.29,21.59-.03,22.25.2,42.27.72,60.04.49,16.91,5.94,33.37,26.73,31.01,14.96-1.72,22.37-14.39,22.74-28.25.63-22.43.66-49.01.09-79.74,0-.83-.52-1.58-1.29-1.89l-4.02-1.67c-2.15-.89-1.75-4.05.57-4.36,5.83-.78,11.11-.46,15.85.95.75.23.95,1.21.32,1.69-4.02,3.13-5.94,7.58-5.77,13.38,1.03,33.97,2.99,53.15-1.41,78.65-4.28,24.84-21.19,37.38-46.43,33.28-19.04-3.1-30.01-15.48-32.85-37.1-1.06-8.07-1.38-34.63-1-79.74,0-1.09-.43-2.12-1.21-2.9l-5.69-5.69Z"/>
  <path class="st1" d="M1359.06,3482.42c0,1.75-2.41,2.21-3.07.6-4.54-11.34-12.89-15.36-25.04-12.09-1.55.43-2.61,1.84-2.61,3.42l-.06,46.89c0,3.24,2.53,5.94,5.8,6.17,3.79.29,12.06.34,24.87.17,9.19-.11,10.51-9.5,13.18-18.78.4-1.26,1.21-2.07,2.41-2.44,1.23-.34,2.47.55,2.47,1.81.11,7.95.06,14.96-.2,20.99-.06,1.95-1.67,3.53-3.65,3.53l-74.34-.09c-2.18,0-3.27-2.64-1.72-4.19l3.3-3.33c1.21-1.21,1.9-2.84,1.9-4.54l.09-100.04c0-1.32-.37-2.64-1.06-3.76l-3.91-6.12c-.95-1.44.11-3.36,1.84-3.36l71.67.06c1.58,0,2.84,1.29,2.84,2.84l-.03,22.14c0,1.69-2.33,2.21-3.04.66l-8.44-18.06c-.72-1.52-2.21-2.47-3.88-2.47l-25.93-.03c-2.27,0-4.13,1.84-4.13,4.11l-.06,45.11c0,1.23.83,2.35,2.04,2.76,11.43,3.65,19.9.4,25.44-9.73.89-1.61,3.36-.98,3.36.86l-.03,26.9Z"/>
  <path class="st1" d="M1403.74,3439.87s-.14.23-.4.6t-.03.03v80.66c0,1.29.46,2.56,1.32,3.56,1.12,1.29,2.87,2.41,5.25,3.3,2.3.86,1.69,4.28-.78,4.28h-17.37c-1.58,0-2.38-1.89-1.26-3.01l5.57-5.57c1.26-1.26,1.98-2.99,1.98-4.74-.03-11.57-.09-41-.17-88.35-.03-5.66-3.1-12-9.22-19.04-1.49-1.72-.29-4.42,1.98-4.42h20.82c3.19,0,6.14,1.67,7.81,4.36,5.17,8.36,21.02,33.19,47.58,74.57.57.89,1.75,1.09,2.47.43,1.44-1.29.75-40.74.69-69.26,0-.89-.34-1.78-.98-2.41-1.41-1.49-3.39-2.7-5.94-3.62-.98-.34-1.55-1.35-1.38-2.38.17-1,1.06-1.75,2.1-1.75h14.99c1.67,0,2.5,1.98,1.38,3.19-4.16,4.42-5.34,5.89-5.34,12.23.06,34.03.09,69.8.11,107.3,0,2.53-2.24,4.48-4.74,4.11-2.21-.32-4.42-1.29-6.6-2.96-.37-.29-.69-.63-.95-1.03l-56.91-89.67c-.43-.66-1.35-.86-1.98-.4Z"/>
  <path class="st1" d="M1632.53,3412.45c-2.27-.92-1.72-4.28.72-4.45,20.01-1.44,39.88-1.12,59.61.98,1.84.2,3.59.69,5.23,1.49,15.02,7.32,19.96,19.84,14.84,37.56-2.53,8.7-9.22,10.88-17.95,15.71-.95.52-.89,1.89.09,2.35l12.95,5.83c.34.17.66.37.98.6,9.91,7.84,13.7,18.55,11.34,32.07-5.8,33.39-61.45,29.78-85.08,27.85-1.69-.14-2.73-1.95-1.98-3.47l4.11-8.33c.26-.46.37-1,.37-1.55v-102.1c0-1.44-.86-2.73-2.18-3.27l-3.04-1.26ZM1662.74,3414.8l.52,48.12c0,1.69,1.41,3.04,3.1,3.04l4.88-.06c10.62-.11,19.18-9.13,19.07-20.16l-.17-14.36c-.11-11.03-8.81-19.87-19.47-19.75l-4.88.06c-1.69.03-3.04,1.41-3.04,3.1ZM1663.11,3472.23l.11,52.6c0,1.9,1.52,3.42,3.42,3.42l4.77-.03c12.95,0,23.43-10.68,23.4-23.83v-11.83c-.03-13.15-10.57-23.77-23.52-23.77l-4.77.03c-1.9,0-3.42,1.52-3.42,3.42Z"/>
  <path class="st1" d="M1933.82,3408.92c-.34-.8.23-1.69,1.09-1.69h36.01c1.35,0,2.12,1.55,1.32,2.61-2.38,3.19-3.53,6.32-3.42,9.45.03.63.14,1.23.37,1.84l18.26,46.63c.4,1.03,1.84,1.03,2.27.03,12.23-28.71,18.58-43.7,19.01-44.97,1.69-4.68,1.69-9.19,0-13.5-.43-1.06.34-2.21,1.49-2.21h11.71c1.46,0,2.18,1.75,1.15,2.79l-5.91,5.91c-.2.23-.37.49-.52.78l-22.83,55.45c-.6,1.44-.92,3.02-.92,4.59v46.83c0,1.67.98,3.16,2.5,3.85,2.7,1.23,4.54,2.27,5.48,3.16.89.83.32,2.33-.92,2.33h-38.99c-1.67,0-2.5-2.04-1.32-3.22l4.94-4.94c1.18-1.18,1.84-2.76,1.84-4.42v-35.43c0-1.38-.29-2.73-.83-3.99l-31.79-71.87Z"/>
  <path class="st1" d="M2064.9,3409.41c-.52-.8.03-1.9,1-1.92,10.97-.46,23.49-.49,37.56-.09,13.7.4,23.49,2.58,29.43,6.55,9.16,6.12,14.41,14.41,15.82,24.92,4.57,34.31-20.44,46.49-50.28,45.71-.83-.03-1.55.6-1.58,1.44-.32,7.09-.4,16.88-.26,29.35.09,6.63,2.79,10.11,7.29,14.41,1.21,1.15.4,3.16-1.26,3.16h-35.29c-1.49,0-2.33-1.69-1.46-2.9,3.24-4.54,4.88-8.93,4.91-13.15.09-16.88.03-49.3-.2-97.28,0-.86-.26-1.72-.72-2.44l-4.97-7.75ZM2096.22,3414.78l.23,63c0,1.35,1.09,2.44,2.44,2.41h4.82c11.57-.06,20.9-10.62,20.85-23.66l-.06-20.73c-.06-13.01-9.48-23.54-21.02-23.49h-4.82c-1.35.03-2.44,1.12-2.44,2.47Z"/>
  <path class="st1" d="M2193.71,3530.95c.49.78-.06,1.78-.98,1.78l-34.63.03c-1.21,0-1.95-1.29-1.35-2.33,3.73-6.37,5.25-11.17,5.17-18.78-.46-45.14-.6-74.74-.37-88.78.03-5.08-1.78-7.7-4.42-11.43-1.21-1.69-.03-4.05,2.07-4.11,19.58-.49,41.12-1.21,59.55,2.21,11.94,2.24,20.93,12.89,21.97,24.64,1.41,16.08-5.28,27.36-20.07,33.85-1.26.55-1.81,2.04-1.23,3.3l28.54,60.73c.11.23-.09.49-.34.49l-24.98.06c-.43,0-.83-.26-1-.63-7.03-15.36-14.04-32.39-20.99-51.11-1.95-5.2-5.34-8.21-10.22-9.1-1.67-.29-3.16.98-3.16,2.64l.06,43.82c0,1.81.52,3.56,1.49,5.08l4.91,7.64ZM2186.99,3414.86l-.11,50.77c0,1.61,1.32,2.9,2.9,2.9l6.49.03c11.03,0,19.98-9.73,20.01-21.79v-12.92c.03-12.06-8.87-21.85-19.9-21.85l-6.49-.03c-1.61,0-2.9,1.29-2.9,2.9Z"/>
  <path class="st1" d="M2440.76,3470.02c.06-32.3.06-48.78.03-49.44,0-1.64-.49-3.22-1.41-4.59l-3.39-5.17c-.92-1.38,0-3.24,1.67-3.39,2.21-.14,7.64-.23,16.25-.2,8.64,0,14.07.11,16.28.29,1.67.11,2.58,1.98,1.64,3.36l-3.39,5.17c-.92,1.35-1.41,2.96-1.44,4.57-.03.66-.09,17.17-.17,49.47-.06,32.3-.06,48.81,0,49.44,0,1.64.49,3.24,1.38,4.59l3.39,5.17c.92,1.38,0,3.24-1.64,3.39-2.24.14-7.67.23-16.28.2-8.64,0-14.07-.11-16.28-.29-1.67-.11-2.56-1.98-1.64-3.36l3.39-5.17c.92-1.35,1.41-2.96,1.44-4.57.06-.66.11-17.14.17-49.47Z"/>
  <path class="st1" d="M2693.84,3440.04s-.14.2-.4.6t-.03.03l.03,80.63c0,1.32.49,2.58,1.32,3.56,1.12,1.32,2.87,2.41,5.28,3.3,2.3.89,1.67,4.28-.78,4.28l-17.37.03c-1.58,0-2.38-1.92-1.26-3.02l5.54-5.57c1.29-1.29,1.98-2.99,1.98-4.74,0-11.57-.09-41.03-.2-88.35-.03-5.66-3.1-12-9.25-19.04-1.49-1.72-.29-4.42,1.98-4.42h20.82c3.19,0,6.17,1.64,7.81,4.34,5.17,8.36,21.05,33.19,47.64,74.54.55.89,1.75,1.09,2.47.43,1.44-1.29.72-40.74.63-69.26,0-.89-.34-1.75-.98-2.41-1.41-1.46-3.39-2.67-5.94-3.59-.98-.37-1.55-1.35-1.38-2.38.17-1,1.06-1.75,2.1-1.75l14.99-.03c1.67,0,2.5,1.98,1.38,3.19-4.16,4.42-5.34,5.89-5.34,12.23.09,34.05.14,69.8.17,107.3,0,2.56-2.24,4.48-4.71,4.11-2.24-.29-4.45-1.29-6.63-2.96-.37-.29-.69-.63-.95-1.03l-56.94-89.61c-.43-.69-1.35-.86-1.98-.4Z"/>
  <path class="st1" d="M2830.54,3407.17c23.52.03,38.27.14,44.28.32,1.84.06,3.36,1.52,3.47,3.39.46,7.87.72,15.82.75,23.83,0,1.06-.6,1.67-1.84,1.81-.52.09-1.01-.06-1.46-.37-.43-.29-.75-.66-.98-1.12-6.86-13.58-6.75-25.7-26.82-22.6-2.56.4-4.45,2.61-4.42,5.2.11,58.63.09,90.42-.06,95.36-.26,8.44,1.61,12.95,9.1,16.42,1.44.66,1.03,2.81-.55,2.9-5.4.37-12.63.55-21.71.52s-16.31-.2-21.71-.57c-1.58-.11-1.98-2.27-.55-2.93,7.49-3.45,9.39-7.95,9.16-16.4-.14-4.94-.06-36.72.29-95.36.03-2.58-1.84-4.79-4.39-5.2-20.07-3.19-19.98,8.93-26.9,22.48-.23.46-.57.83-.98,1.12-.46.32-.95.46-1.46.37-1.23-.14-1.84-.75-1.84-1.81.06-8.04.34-15.96.83-23.83.11-1.87,1.64-3.33,3.5-3.39,6-.14,20.76-.2,44.28-.14Z"/>
  <path class="st1" d="M575.01,3529.97l3.56-6.03c1-1.67,1.52-3.59,1.52-5.51v-100.32c0-.89-.26-1.72-.78-2.44-1.23-1.78-2.81-3.07-4.68-3.85-2.3-.98-1.61-4.39.89-4.39h72.79c2.18,0,3.93,1.75,3.93,3.93v23.57c0,1.23-1.35,1.98-2.38,1.32-4.25-2.73-5.77-10.31-7.7-16.6-1.35-4.39-5.4-7.38-9.99-7.38h-19.67c-3.53,0-6.4,2.87-6.4,6.4v44.36c0,.8.52,1.52,1.26,1.75,11.51,3.65,20.44.66,26.85-8.96.92-1.35,3.04-.72,3.04.92.06,13.58.03,21.56-.09,23.95-.03.55-.32.98-.92,1.26-1.23.6-2.24.29-3.07-.92-2.27-3.27-4.11-6-5.48-8.18-.69-1.09-1.9-1.75-3.19-1.75h-16.71c-.89,0-1.58.69-1.61,1.58-.2,11.94-.2,24.87-.06,38.79.11,8.01-.69,13.38,7.18,18.15,1.46.89.83,3.16-.89,3.16h-35.81c-1.44,0-2.35-1.58-1.61-2.81Z"/>
  <path class="st1" d="M1540.68,3532.96c-9.07,0-16.31-.17-21.71-.52-1.58-.11-1.98-2.24-.55-2.93,7.49-3.45,9.36-7.95,9.1-16.4-.14-4.94-.14-36.7,0-95.3.03-2.58-1.87-4.79-4.42-5.2-20.04-3.1-19.96,9.02-26.82,22.57-.23.46-.55.83-.98,1.12-.46.32-.95.46-1.46.37-1.21-.14-1.84-.75-1.84-1.81.06-8.01.32-15.94.78-23.8.11-1.87,1.64-3.33,3.47-3.39,6-.17,20.76-.26,44.25-.29,23.52-.06,38.25.03,44.25.17,1.87.03,3.39,1.49,3.5,3.36.49,7.87.75,15.82.8,23.83,0,1.06-.6,1.67-1.81,1.81-.52.09-1.01-.06-1.46-.37-.43-.29-.75-.66-1.01-1.12-6.89-13.55-6.81-25.64-26.85-22.48-2.56.4-4.45,2.61-4.42,5.2.32,58.6.4,90.36.26,95.3-.23,8.44,1.64,12.92,9.13,16.37,1.44.69,1.03,2.81-.55,2.93-5.4.37-12.61.55-21.68.57Z"/>
  <path class="st1" d="M2321.34,3482.51c0,1.75-2.41,2.21-3.07.6-4.54-11.34-12.89-15.36-25.01-12.06-1.55.4-2.61,1.81-2.61,3.39l-.09,46.83c0,3.27,2.53,5.97,5.77,6.2,3.79.29,12.06.34,24.87.17,9.16-.11,10.51-9.48,13.18-18.75.37-1.26,1.18-2.07,2.41-2.44,1.23-.34,2.44.55,2.47,1.81.09,7.95.03,14.93-.23,20.96-.06,1.98-1.67,3.53-3.62,3.53l-74.28-.14c-2.18,0-3.3-2.64-1.75-4.16l3.3-3.33c1.21-1.21,1.9-2.84,1.9-4.54l.17-99.95c0-1.32-.37-2.64-1.09-3.76l-3.88-6.09c-.95-1.46.11-3.39,1.84-3.39l71.61.11c1.58,0,2.84,1.29,2.84,2.84l-.06,22.11c0,1.69-2.3,2.21-3.01.66l-8.44-18.06c-.72-1.49-2.21-2.47-3.88-2.47l-25.9-.06c-2.27,0-4.13,1.87-4.13,4.13l-.09,45.05c0,1.26.83,2.35,2.04,2.76,11.4,3.68,19.87.43,25.44-9.71.89-1.61,3.33-.98,3.33.86l-.03,26.88Z"/>
  <path class="st1" d="M2649.19,3482.45c0,1.75-2.41,2.24-3.07.63-4.57-11.34-12.95-15.33-25.07-12-1.55.43-2.61,1.84-2.61,3.42l.11,46.86c0,3.27,2.53,5.97,5.8,6.17,3.79.29,12.06.32,24.87.11,9.19-.17,10.48-9.53,13.12-18.84.4-1.26,1.18-2.07,2.41-2.44,1.23-.34,2.44.55,2.47,1.81.14,7.92.09,14.93-.14,20.96-.06,1.98-1.67,3.53-3.62,3.53l-74.34.17c-2.18,0-3.3-2.64-1.75-4.19l3.3-3.33c1.21-1.21,1.87-2.84,1.87-4.57l-.2-100.01c0-1.32-.37-2.64-1.09-3.76l-3.9-6.09c-.95-1.46.09-3.39,1.81-3.39l71.67-.14c1.58,0,2.84,1.26,2.84,2.81l.06,22.14c0,1.69-2.33,2.21-3.04.66l-8.5-18.03c-.72-1.49-2.24-2.47-3.91-2.47l-25.9.06c-2.3,0-4.13,1.87-4.13,4.13l.11,45.11c0,1.23.8,2.35,2.04,2.73,11.4,3.65,19.87.37,25.38-9.79.89-1.61,3.36-1.01,3.36.86l.06,26.88Z"/>
  <rect class="st0" x="686.36" y="3409.26" width="47.32" height="120.48" rx="22.68" ry="22.68" transform="translate(-6.05 1.24) rotate(-.1)"/>
  <rect class="st0" x="1755.14" y="3409.41" width="47.26" height="120.54" rx="22.65" ry="22.65" transform="translate(-6.05 3.11) rotate(-.1)"/>
  <path class="st0" d="M798.61,3415.64c-.03-2.13,1.69-3.85,3.82-3.88l4.36-.06c11.86-.11,21.56,10.28,21.71,23.23l.11,10.28c.14,12.92-9.36,23.52-21.25,23.63l-4.36.06c-2.12.03-3.85-1.69-3.88-3.82l-.52-49.44Z"/>
  <path class="st0" d="M1225.75,3416.27c0-2.58,2.1-4.68,4.68-4.68h2.41c17.66,0,31.96,16.74,31.96,37.41v41.75c0,20.67-14.3,37.41-31.96,37.41h-2.41c-2.58,0-4.68-2.1-4.68-4.68v-107.22Z"/>
  <path class="st0" d="M1662.74,3414.8c0-1.69,1.35-3.07,3.04-3.1l4.88-.06c10.65-.11,19.35,8.73,19.47,19.75l.17,14.36c.11,11.03-8.44,20.04-19.07,20.16l-4.88.06c-1.69,0-3.1-1.35-3.1-3.04l-.52-48.12Z"/>
  <path class="st0" d="M1868.32,3415.84c0-2.47,2.01-4.45,4.48-4.45h2.5c17.63.03,31.9,17.08,31.84,38.1l-.06,41.12c-.06,21.02-14.36,38.02-32.02,37.99h-2.5c-2.44,0-4.42-2.01-4.42-4.45l.17-108.31Z"/>
  <path class="st0" d="M2186.99,3414.86c0-1.61,1.29-2.9,2.9-2.9l6.49.03c11.03,0,19.93,9.79,19.9,21.85v12.92c-.03,12.06-8.99,21.79-20.01,21.79l-6.49-.03c-1.58,0-2.9-1.29-2.9-2.9l.11-50.77Z"/>
  <path class="st0" d="M2515.73,3415.81c0-2.3,1.87-4.19,4.16-4.19h4.34c16.8-.03,30.46,17.72,30.49,39.62l.06,37.16c.03,21.91-13.55,39.71-30.32,39.74h-4.34c-2.33,0-4.22-1.87-4.22-4.19l-.17-108.13Z"/>
  <path class="st0" d="M2096.22,3414.78c0-1.35,1.09-2.44,2.44-2.47h4.82c11.54-.06,20.96,10.48,21.02,23.49l.06,20.73c.06,13.04-9.27,23.6-20.85,23.66h-4.82c-1.35.03-2.44-1.06-2.44-2.41l-.23-63Z"/>
  <rect class="st1" x="3680.57" y="2719.28" width="16.08" height="1502.12" rx="7.09" ry="7.09" transform="translate(211.85 7152.89) rotate(-89.9)"/>
  <path class="st0" d="M1663.11,3472.23c0-1.9,1.52-3.42,3.42-3.42l4.77-.03c12.95,0,23.49,10.62,23.52,23.77v11.83c.03,13.15-10.45,23.83-23.4,23.83l-4.77.03c-1.9,0-3.42-1.52-3.42-3.42l-.11-52.6Z"/>
  <path class="st1" d="M1863.87,3732.75c.29,24.69,6.14,72.33,45.37,58.06,7.32-2.67,11.17-15.82,14.21-24.38.11-.32.32-.6.57-.8.49-.37.72-.55.75-.55,1.52-.29,2.96.78,3.1,2.33.75,7.78.2,14.5-1.64,20.1-1.35,4.16-5.8,5.23-9.71,6.75-46,17.72-80-16.48-80.54-61.16-.55-44.68,32.59-79.71,78.99-63.11,3.96,1.41,8.44,2.38,9.91,6.49,1.95,5.57,2.67,12.26,2.12,20.07-.11,1.55-1.52,2.64-3.04,2.38-.03,0-.29-.17-.78-.52-.26-.2-.46-.46-.57-.78-3.27-8.5-7.44-21.54-14.82-24.03-39.57-13.29-44.25,34.46-43.93,59.15Z"/>
  <path class="st1" d="M2354.39,3767.09c3.39,15.53,13.44,28.25,31.04,25.53,17-2.64,22.17-20.44,13.67-34.23-2.1-3.36-6.55-6.86-13.35-10.48-23.14-12.32-40.92-25.78-34.83-55.36,5.97-29.06,42.5-29.98,65.04-20.04,1.35.57,2.41,1.69,2.93,3.07,2.56,6.92,2.58,13.7.06,20.33-.57,1.52-2.7,1.58-3.36.11-6.35-13.9-12.78-31.24-32.27-23.66-14.53,5.66-15.1,23.11-6.98,34.54,5.37,7.55,19.38,12.55,30.06,19.32,16.57,10.48,22.34,25.96,17.26,46.4-7.49,30.26-47.52,28.17-70.09,19.44-1.49-.57-2.67-1.84-3.13-3.39-2.47-8.01-2.61-15.3-.4-21.82.72-2.18,3.88-2.01,4.36.23Z"/>
  <path class="st1" d="M1435.76,3792.5c.75,1.18-.09,2.73-1.49,2.73h-34.17c-1.21,0-2.04-1.23-1.58-2.35l4.08-9.88c.23-.6.26-1.26.06-1.87l-8.36-25.1c-.4-1.21-1.52-2.01-2.79-2.01h-29.52c-1.67,0-3.13,1.09-3.65,2.67l-7.78,24.81c-.43,1.38-.23,2.9.57,4.13l3.9,6.12c.8,1.26-.11,2.93-1.61,2.93h-14.07c-2.18,0-3.22-2.67-1.64-4.16,5.46-5.17,7.18-5.51,9.42-12.86,13.87-46.06,24.18-79.94,30.87-101.62,1.95-6.26,10.37-10.88,15.96-5.92,1.29,1.15,2.56,3.76,3.76,7.81,11.86,39.54,22.02,73.48,30.47,101.85.34,1.15.83,2.27,1.49,3.3l6.06,9.42ZM1360.93,3746.82c-.4,1.29.57,2.61,1.95,2.61l28.05.2c1.35,0,2.35-1.29,1.98-2.58l-13.7-48.15c-.57-1.95-3.33-1.98-3.91-.03l-14.39,47.95Z"/>
  <path class="st1" d="M2247.4,3794.97h-25.1c-.43,0-.83-.29-.98-.69-7.78-20.47-13.58-35.06-17.34-43.73-2.73-6.29-6.2-11.83-10.42-16.62-.98-1.12-.26-2.84,1.21-2.96,11.23-.86,17.92-6.58,20.13-17.14,3.82-18.35,1.69-41.66-23.49-39.51-2.79.23-4.91,2.64-4.77,5.46,1.46,28.17,1.49,59.12.09,92.83-.32,7.7,2.04,14.1,7.09,19.21,1.09,1.09.32,2.96-1.23,2.96h-34.31c-1.38,0-2.21-1.52-1.49-2.7,3.27-5.37,4.97-7.98,4.97-14.36.03-24.92.03-52.55,0-82.84-.03-9.85.57-15.74-4.51-22.77-.8-1.12-.06-2.67,1.32-2.73,24.12-1.01,46.06-3.65,64.98,4.11,19.41,7.98,23.98,37.56,6.72,50.74-2.96,2.27-5.83,4.22-8.64,5.91-1.81,1.09-2.5,3.36-1.61,5.28l27.68,59.09c.11.2-.06.46-.29.46Z"/>
  <path class="st1" d="M2581.83,3731.74c.11,63-47.2,65.32-95.67,63.11-1.12-.06-1.78-1.26-1.26-2.24l4.02-7.61c.52-.98.8-2.01.86-3.1.06-.55.06-17.23.03-49.99-.06-32.76-.11-49.44-.2-50.02-.06-1.06-.34-2.12-.86-3.07l-4.05-7.61c-.52-.98.14-2.18,1.23-2.24,48.47-2.38,95.79-.2,95.9,62.77ZM2515.78,3677.02l-.17,109.34c0,2.1,1.69,3.79,3.76,3.79h4.48c17.06.03,30.9-18.03,30.92-40.37l.06-36.06c.03-22.31-13.73-40.46-30.75-40.49h-4.48c-2.1,0-3.82,1.69-3.82,3.79Z"/>
  <path class="st1" d="M1461.23,3701.97s-.17.23-.43.6c0,0-.03,0-.03.03l-.14,80.86c0,1.29.46,2.58,1.32,3.59,1.09,1.29,2.84,2.41,5.25,3.3,2.3.89,1.67,4.31-.8,4.31l-17.4-.06c-1.58,0-2.38-1.9-1.26-3.02l5.6-5.57c1.26-1.26,1.98-2.99,1.98-4.74.03-11.6.03-41.12.03-88.58-.03-5.69-3.07-12.03-9.22-19.12-1.49-1.72-.29-4.42,2.01-4.42l20.87.03c3.19.03,6.14,1.69,7.81,4.39,5.17,8.38,21.02,33.34,47.55,74.86.57.89,1.75,1.12,2.47.46,1.44-1.29.83-40.86.83-69.46,0-.89-.34-1.75-.98-2.41-1.41-1.49-3.39-2.7-5.94-3.65-.98-.34-1.55-1.35-1.38-2.35.17-1.03,1.06-1.78,2.1-1.78l15.05.03c1.64,0,2.5,1.98,1.35,3.22-4.16,4.42-5.34,5.89-5.37,12.23,0,34.14-.03,70-.09,107.59-.03,2.56-2.27,4.48-4.77,4.11-2.24-.32-4.42-1.29-6.63-2.99-.37-.29-.69-.63-.95-1.03l-56.85-90.02c-.46-.69-1.35-.86-1.98-.4Z"/>
  <path class="st1" d="M1556.55,3732.06c-.2-32.68-.34-49.27-.4-49.85-.09-1.06-.37-2.12-.89-3.07l-4.08-7.55c-.52-.98.14-2.18,1.23-2.24,48.32-2.58,95.5-.63,95.87,62.16.4,62.77-46.77,65.32-95.1,63.34-1.12-.06-1.78-1.23-1.26-2.24l3.96-7.61c.52-.95.8-2.01.86-3.07.06-.57,0-17.2-.2-49.88ZM1581.97,3678.62l.17,106.53c0,2.79,2.27,5.02,5.05,5.02h1.35c18.03-.03,32.65-16.37,32.59-36.49l-.06-43.7c-.06-20.13-14.7-36.41-32.76-36.38h-1.35c-2.76,0-5,2.27-5,5.02Z"/>
  <path class="st1" d="M1724.87,3674.63c-4.74,3.13-4.31,6.69-2.64,12.03,3.47,11,10.6,34.97,21.42,71.87.14.49.37.8.69.98,1.01.52,1.67.23,2.01-.86,4.85-15.05,12.72-40.11,23.63-75.17.29-.89.4-1.81.32-2.73-.17-2.27-1.32-4.77-3.42-7.49-1.32-1.72-.03-4.19,2.12-4.08l12.61.63c1.69.09,2.35,2.27.98,3.27l-5.2,3.76c-.78.55-1.29,1.38-1.41,2.33-.09.6-10.88,37.38-32.36,110.32-1.21,4.13-3.62,6.46-7.26,6.95-3.62.49-7.09-1.69-8.24-5.23-10.83-33.19-21.42-66.73-31.76-100.61-2.53-8.21-5.17-12.92-10.85-18.03-1.32-1.18-.46-3.39,1.32-3.39h36.41c2.96,0,4.11,3.82,1.64,5.46Z"/>
  <path class="st1" d="M2000.55,3744.46c0,1.75-2.41,2.24-3.07.6-4.57-11.34-12.95-15.36-25.1-12.06-1.55.43-2.61,1.81-2.61,3.42v46.95c0,3.27,2.53,5.97,5.8,6.2,3.79.26,12.09.32,24.92.14,9.19-.14,10.51-9.53,13.18-18.84.37-1.26,1.18-2.07,2.41-2.44,1.23-.34,2.44.55,2.47,1.81.11,7.95.06,14.96-.17,21.02-.06,1.98-1.67,3.53-3.65,3.53h-74.45c-2.18,0-3.3-2.64-1.75-4.19l3.3-3.33c1.21-1.21,1.9-2.84,1.9-4.57v-100.18c0-1.32-.37-2.64-1.09-3.76l-3.9-6.12c-.95-1.46.11-3.39,1.84-3.39h71.78c1.58,0,2.84,1.26,2.84,2.84v22.17c0,1.69-2.33,2.21-3.04.66l-8.47-18.09c-.72-1.52-2.24-2.47-3.9-2.47h-25.96c-2.3,0-4.13,1.84-4.13,4.13v45.17c0,1.26.83,2.35,2.04,2.76,11.43,3.65,19.93.4,25.47-9.76.89-1.64,3.36-1,3.36.86v26.93Z"/>
  <path class="st1" d="M2065.04,3671.42c-.52-.83.06-1.9,1.03-1.92,10.97-.46,23.52-.46,37.61-.03,13.72.46,23.55,2.64,29.49,6.63,9.16,6.14,14.41,14.47,15.79,25.01,4.51,34.4-20.59,46.54-50.48,45.71-.83-.06-1.55.6-1.58,1.44-.34,7.09-.46,16.91-.32,29.4.06,6.63,2.76,10.14,7.26,14.44,1.21,1.15.4,3.19-1.26,3.16l-35.37-.06c-1.46,0-2.33-1.69-1.46-2.93,3.27-4.54,4.91-8.9,4.97-13.15.11-16.91.11-49.42,0-97.48,0-.86-.26-1.72-.72-2.44l-4.97-7.78ZM2096.25,3677.5v61.85c0,2.21,1.78,3.99,3.99,3.99h.86c13.06,0,23.63-11.05,23.63-24.69v-20.44c0-13.64-10.57-24.69-23.63-24.69h-.86c-2.21,0-3.99,1.78-3.99,3.99Z"/>
  <path class="st1" d="M2321.39,3744.49c0,1.75-2.44,2.24-3.1.6-4.59-11.37-12.98-15.39-25.15-12.03-1.55.4-2.61,1.81-2.61,3.42l.06,47.03c.03,3.27,2.56,6,5.83,6.2,3.79.26,12.12.32,24.98.11,9.19-.14,10.51-9.56,13.18-18.89.37-1.26,1.18-2.07,2.41-2.44,1.23-.34,2.44.55,2.47,1.81.11,7.98.09,14.99-.14,21.05-.06,1.98-1.67,3.56-3.65,3.56l-74.6.09c-2.21.03-3.3-2.64-1.75-4.19l3.3-3.33c1.21-1.23,1.9-2.87,1.9-4.59l-.17-100.35c0-1.35-.37-2.64-1.09-3.79l-3.9-6.12c-.95-1.46.09-3.39,1.84-3.39l71.93-.11c1.55,0,2.84,1.26,2.84,2.84l.03,22.22c0,1.69-2.33,2.21-3.04.66l-8.53-18.12c-.72-1.52-2.24-2.47-3.9-2.47l-26.01.03c-2.3.03-4.13,1.87-4.13,4.16l.06,45.25c0,1.26.83,2.35,2.07,2.76,11.46,3.65,19.96.37,25.5-9.82.89-1.64,3.36-1,3.36.86l.06,26.99Z"/>
  <path class="st1" d="M2453.79,3668.75c8.7,0,14.16.09,16.37.26,1.69.11,2.58,2.01,1.67,3.39l-3.42,5.2c-.92,1.38-1.41,2.96-1.41,4.59-.06.66-.09,17.26-.09,49.73s0,49.07.06,49.73c0,1.64.49,3.24,1.41,4.59l3.42,5.2c.95,1.41.03,3.27-1.64,3.39-2.24.17-7.7.26-16.37.26s-14.16-.09-16.37-.26c-1.67-.11-2.58-2.01-1.67-3.39l3.42-5.2c.92-1.38,1.41-2.96,1.41-4.59.06-.66.09-17.26.09-49.73.03-32.5,0-49.07-.06-49.73,0-1.64-.49-3.24-1.41-4.59l-3.42-5.2c-.92-1.41-.03-3.27,1.67-3.39,2.21-.17,7.67-.26,16.34-.26Z"/>
  <path class="st1" d="M2649.3,3744.46c0,1.75-2.41,2.24-3.07.6-4.59-11.37-12.95-15.39-25.12-12.09-1.55.43-2.61,1.84-2.61,3.45v46.98c0,3.27,2.53,5.97,5.8,6.2,3.79.29,12.12.32,24.95.14,9.19-.11,10.51-9.53,13.18-18.84.4-1.26,1.21-2.1,2.41-2.44,1.23-.34,2.47.55,2.47,1.81.11,7.95.06,14.99-.17,21.05-.06,1.95-1.67,3.53-3.65,3.53l-74.51-.03c-2.21,0-3.3-2.64-1.75-4.19l3.3-3.33c1.21-1.21,1.9-2.84,1.9-4.57v-100.27c0-1.35-.37-2.64-1.09-3.79l-3.91-6.12c-.95-1.46.11-3.39,1.84-3.39h71.87c1.55,0,2.84,1.29,2.84,2.87v22.17c0,1.72-2.33,2.21-3.04.66l-8.5-18.09c-.72-1.52-2.24-2.47-3.9-2.47l-25.99-.03c-2.27,0-4.13,1.87-4.13,4.16v45.19c0,1.26.83,2.35,2.04,2.76,11.43,3.68,19.93.4,25.5-9.76.89-1.64,3.36-1,3.36.86v26.96Z"/>
  <path class="st1" d="M2693.72,3702.2s-.14.23-.4.6l-.03.03.03,80.94c0,1.29.46,2.58,1.32,3.59,1.12,1.29,2.87,2.41,5.28,3.3,2.3.86,1.67,4.28-.78,4.28l-17.46.03c-1.58,0-2.38-1.92-1.26-3.04l5.6-5.57c1.26-1.29,1.98-2.99,1.98-4.77-.03-11.6-.09-41.17-.2-88.67,0-5.66-3.1-12.03-9.25-19.09-1.52-1.75-.29-4.45,1.98-4.45h20.9c3.19,0,6.17,1.67,7.84,4.36,5.17,8.38,21.1,33.34,47.75,74.83.57.89,1.75,1.09,2.5.43,1.44-1.29.72-40.89.66-69.49,0-.92-.34-1.78-.98-2.44-1.44-1.49-3.42-2.7-5.97-3.62-.98-.34-1.55-1.35-1.38-2.38s1.06-1.78,2.1-1.78h15.05c1.67,0,2.53,1.98,1.38,3.22-4.16,4.42-5.34,5.89-5.34,12.26.06,34.17.11,70.06.14,107.7,0,2.53-2.27,4.48-4.77,4.11-2.21-.32-4.42-1.29-6.63-2.96-.37-.29-.69-.63-.95-1.03l-57.14-89.99c-.43-.66-1.32-.86-1.98-.4Z"/>
  <path class="st1" d="M1824.19,3732.46c.06,32.19.09,48.61.14,49.27.03,1.64.52,3.22,1.41,4.57l3.42,5.14c.92,1.38,0,3.24-1.67,3.36-2.21.17-7.61.29-16.19.29s-14.01-.06-16.22-.23c-1.67-.11-2.56-1.98-1.64-3.36l3.36-5.17c.92-1.35,1.41-2.93,1.41-4.54.06-.66.06-17.08,0-49.3-.06-32.19-.11-48.61-.14-49.27-.03-1.61-.52-3.19-1.44-4.54l-3.39-5.17c-.92-1.38,0-3.22,1.64-3.36,2.21-.17,7.64-.26,16.22-.29,8.61,0,14.01.09,16.22.23,1.64.14,2.56,1.98,1.64,3.36l-3.36,5.17c-.92,1.35-1.41,2.96-1.41,4.57-.06.66-.06,17.08,0,49.27Z"/>
  <path class="st1" d="M2830.34,3795.52c-9.1,0-16.37-.17-21.79-.55-1.58-.11-1.98-2.27-.55-2.93,7.52-3.47,9.42-7.98,9.16-16.45-.14-4.97-.06-36.87.2-95.73,0-2.61-1.87-4.82-4.45-5.23-20.13-3.19-20.04,8.99-26.96,22.6-.23.46-.57.83-.98,1.12-.46.34-.98.46-1.49.37-1.21-.11-1.84-.75-1.84-1.81.06-8.07.34-16.02.8-23.92.14-1.89,1.67-3.36,3.53-3.39,6-.17,20.82-.23,44.45-.23,23.6.03,38.42.11,44.45.29,1.87.03,3.39,1.49,3.5,3.39.46,7.9.72,15.88.78,23.92,0,1.06-.63,1.69-1.84,1.81-.55.09-1.03-.03-1.49-.37-.4-.29-.75-.66-.98-1.12-6.89-13.61-6.81-25.78-26.96-22.65-2.56.4-4.45,2.64-4.42,5.23.2,58.86.2,90.79.06,95.73-.23,8.47,1.64,13.01,9.16,16.48,1.44.66,1.03,2.81-.55,2.93-5.43.34-12.69.55-21.79.52Z"/>
  <path class="st0" d="M2515.78,3677.02c0-2.1,1.72-3.79,3.82-3.79h4.48c17.03.03,30.78,18.18,30.75,40.49l-.06,36.06c-.03,22.34-13.87,40.4-30.92,40.37h-4.48c-2.07,0-3.76-1.69-3.76-3.79l.17-109.34Z"/>
  <path class="st0" d="M1581.97,3678.62c0-2.76,2.24-5.02,5-5.02h1.35c18.06-.03,32.7,16.25,32.76,36.38l.06,43.7c.06,20.13-14.56,36.47-32.59,36.49h-1.35c-2.79,0-5.05-2.24-5.05-5.02l-.17-106.53Z"/>
  <path class="st0" d="M2096.25,3677.5c0-2.21,1.78-3.99,3.99-3.99h.86c13.06,0,23.63,11.05,23.63,24.69v20.44c0,13.64-10.57,24.69-23.63,24.69h-.86c-2.21,0-3.99-1.78-3.99-3.99v-61.85Z"/>
  <path class="st0" d="M1360.93,3746.82l14.39-47.95c.57-1.95,3.33-1.92,3.91.03l13.7,48.15c.37,1.29-.63,2.58-1.98,2.58l-28.05-.2c-1.38,0-2.35-1.32-1.95-2.61Z"/>
</svg>